<?xml version="1.0" encoding="utf-8"?>
<!-- Generator: Adobe Illustrator 15.0.0, SVG Export Plug-In . SVG Version: 6.00 Build 0)  -->
<!DOCTYPE svg PUBLIC "-//W3C//DTD SVG 1.1//EN" "http://www.w3.org/Graphics/SVG/1.1/DTD/svg11.dtd">
<svg version="1.1" id="Layer_1" xmlns="http://www.w3.org/2000/svg" xmlns:xlink="http://www.w3.org/1999/xlink" x="0px" y="0px"
	 width="200px" height="200px" viewBox="0 0 200 200" enable-background="new 0 0 200 200" xml:space="preserve">
<g>
	<path fill="#FFFFFF" d="M140.202,91.659V71.511c0-3.691-3.002-6.693-6.693-6.693H38.267c-3.689,0-6.689,3.002-6.689,6.693v20.833
		c0,3.691,3,6.693,6.689,6.693h75.166c-1.408,1.181-2.705,2.485-3.904,3.878c-0.088-0.009-0.171-0.026-0.262-0.026h-71
		c-3.689,0-6.689,3.002-6.689,6.693v20.834c0,3.691,3,6.693,6.689,6.693H83.49v20.658c-2.91,0.831-5.204,3.125-6.033,6.037H53.781
		c-1.324,0-2.399,1.075-2.399,2.4c0,1.324,1.075,2.4,2.399,2.4h23.674c1.047,3.674,4.429,6.373,8.434,6.373
		c4.008,0,7.389-2.7,8.435-6.373h23.672c1.326,0,2.4-1.076,2.4-2.4c0-1.325-1.074-2.4-2.4-2.4h-23.67
		c-0.83-2.912-3.123-5.208-6.035-6.037v-20.66h15.546c4.944,12.341,17.003,21.093,31.089,21.093
		c18.471,0,33.498-15.028,33.498-33.501C168.421,108.03,156.167,94.203,140.202,91.659z M38.267,94.238
		c-1.042,0-1.89-0.848-1.89-1.893V71.511c0-1.043,0.847-1.893,1.89-1.893h95.242c1.044,0,1.894,0.848,1.894,1.893v19.712
		c-0.161-0.002-0.317-0.024-0.479-0.024c-5.144,0-10,1.2-14.36,3.28c-0.313-0.15-0.66-0.242-1.033-0.242H38.267z M89.868,166.206
		c0,2.191-1.784,3.975-3.979,3.975c-2.191,0-3.976-1.783-3.976-3.975c0-2.193,1.784-3.979,3.976-3.979
		C88.084,162.227,89.868,164.013,89.868,166.206z M101.427,124.702c0,2.621,0.332,5.16,0.903,7.607H38.267
		c-1.042,0-1.89-0.848-1.89-1.893v-20.834c0-1.043,0.847-1.895,1.89-1.895h67.85C103.157,112.685,101.427,118.487,101.427,124.702z
		 M134.924,153.401c-15.825,0-28.699-12.875-28.699-28.701s12.875-28.699,28.699-28.699s28.698,12.875,28.698,28.701
		C163.622,140.527,150.748,153.401,134.924,153.401z M46.866,45.892c2.074,0,3.762-1.688,3.762-3.763s-1.688-3.763-3.762-3.763
		c-2.073,0-3.762,1.688-3.762,3.763S44.793,45.892,46.866,45.892z M46.866,41.092c0.573,0,1.039,0.465,1.039,1.037
		s-0.466,1.037-1.039,1.037c-0.572,0-1.038-0.466-1.038-1.037S46.294,41.092,46.866,41.092z M73.47,45.892
		c2.073,0,3.762-1.688,3.762-3.763s-1.688-3.763-3.762-3.763s-3.762,1.688-3.762,3.763S71.396,45.892,73.47,45.892z M73.47,41.092
		c0.572,0,1.038,0.465,1.038,1.037s-0.466,1.037-1.038,1.037c-0.573,0-1.038-0.466-1.038-1.037S72.896,41.092,73.47,41.092z
		 M60.167,45.892c2.075,0,3.764-1.688,3.764-3.763s-1.688-3.763-3.764-3.763s-3.763,1.688-3.763,3.763S58.094,45.892,60.167,45.892z
		 M60.167,41.092c0.571,0,1.037,0.465,1.037,1.037s-0.466,1.037-1.037,1.037s-1.036-0.466-1.036-1.037S59.596,41.092,60.167,41.092z
		 M60.167,78.167c-2.075,0-3.763,1.688-3.763,3.762c0,2.075,1.688,3.763,3.763,3.763s3.764-1.688,3.764-3.763
		C63.931,79.855,62.242,78.167,60.167,78.167z M60.167,82.967c-0.571,0-1.036-0.465-1.036-1.038c0-0.571,0.465-1.037,1.036-1.037
		s1.037,0.466,1.037,1.037C61.206,82.502,60.74,82.967,60.167,82.967z M60.167,123.763c2.075,0,3.764-1.688,3.764-3.764
		c0-2.073-1.688-3.762-3.764-3.762s-3.763,1.688-3.763,3.762C56.405,122.075,58.094,123.763,60.167,123.763z M60.167,118.962
		c0.571,0,1.037,0.467,1.037,1.037c0,0.573-0.466,1.039-1.037,1.039s-1.036-0.466-1.036-1.039
		C59.131,119.429,59.596,118.962,60.167,118.962z M46.866,123.763c2.074,0,3.762-1.688,3.762-3.764c0-2.073-1.688-3.762-3.762-3.762
		c-2.073,0-3.762,1.688-3.762,3.762C43.104,122.075,44.793,123.763,46.866,123.763z M46.866,118.962
		c0.573,0,1.039,0.467,1.039,1.037c0,0.573-0.466,1.039-1.039,1.039c-0.572,0-1.038-0.466-1.038-1.039
		C45.828,119.429,46.294,118.962,46.866,118.962z M73.47,123.763c2.073,0,3.762-1.688,3.762-3.764c0-2.073-1.688-3.762-3.762-3.762
		s-3.762,1.688-3.762,3.762C69.708,122.075,71.396,123.763,73.47,123.763z M73.47,118.962c0.572,0,1.038,0.467,1.038,1.037
		c0,0.573-0.466,1.039-1.038,1.039c-0.573,0-1.038-0.466-1.038-1.039C72.432,119.429,72.896,118.962,73.47,118.962z M73.47,78.167
		c-2.073,0-3.762,1.688-3.762,3.762c0,2.075,1.688,3.763,3.762,3.763s3.762-1.688,3.762-3.763
		C77.231,79.855,75.543,78.167,73.47,78.167z M73.47,82.967c-0.573,0-1.038-0.465-1.038-1.038c0-0.571,0.465-1.037,1.038-1.037
		c0.572,0,1.038,0.466,1.038,1.037C74.508,82.502,74.042,82.967,73.47,82.967z M46.866,78.167c-2.073,0-3.762,1.688-3.762,3.762
		c0,2.075,1.688,3.763,3.762,3.763c2.074,0,3.762-1.688,3.762-3.763C50.628,79.855,48.94,78.167,46.866,78.167z M46.866,82.967
		c-0.572,0-1.038-0.465-1.038-1.038c0-0.571,0.466-1.037,1.038-1.037c0.573,0,1.039,0.466,1.039,1.037
		C47.905,82.502,47.439,82.967,46.866,82.967z M38.267,59.238h95.242c3.691,0,6.693-3.001,6.693-6.693V31.711
		c0-3.689-3.002-6.691-6.693-6.691H38.267c-3.689,0-6.689,3.002-6.689,6.691v20.833C31.577,56.236,34.577,59.238,38.267,59.238z
		 M36.377,31.711c0-1.042,0.847-1.891,1.89-1.891h95.242c1.044,0,1.894,0.848,1.894,1.891v20.833c0,1.043-0.849,1.893-1.894,1.893
		H38.267c-1.042,0-1.89-0.848-1.89-1.893V31.711z"/>
	<g>
		<path fill="#FFFFFF" d="M148.25,114.303c-0.829,0-1.5-0.672-1.5-1.5c0-0.712-3.741-3.053-12-3.053s-12,2.341-12,3.053
			c0,0.828-0.672,1.5-1.5,1.5s-1.5-0.672-1.5-1.5c0-4.158,7.775-6.053,15-6.053c7.223,0,15,1.895,15,6.053
			C149.75,113.631,149.079,114.303,148.25,114.303z M134.75,142.75c-7.225,0-15-1.895-15-6.051c0-0.83,0.672-1.5,1.5-1.5
			s1.5,0.67,1.5,1.5c0,0.71,3.741,3.051,12,3.051s12-2.341,12-3.051c0-0.83,0.671-1.5,1.5-1.5s1.5,0.67,1.5,1.5
			C149.75,140.855,141.973,142.75,134.75,142.75z M134.75,134.784c-7.225,0-15-1.896-15-6.052c0-0.83,0.672-1.501,1.5-1.501
			s1.5,0.671,1.5,1.501c0,0.711,3.741,3.052,12,3.052s12-2.343,12-3.052c0-0.83,0.671-1.501,1.5-1.501s1.5,0.671,1.5,1.501
			C149.75,132.891,141.973,134.784,134.75,134.784z M134.75,126.82c-7.225,0-15-1.895-15-6.053c0-0.828,0.672-1.5,1.5-1.5
			s1.5,0.672,1.5,1.5c0,0.71,3.741,3.053,12,3.053s12-2.343,12-3.053c0-0.828,0.671-1.5,1.5-1.5s1.5,0.672,1.5,1.5
			C149.75,124.926,141.973,126.82,134.75,126.82z M134.75,118.853c-7.225,0-15-1.893-15-6.05c0-0.829,0.672-1.5,1.5-1.5
			s1.5,0.671,1.5,1.5c0,0.711,3.741,3.05,12,3.05s12-2.341,12-3.05c0-0.829,0.671-1.5,1.5-1.5s1.5,0.671,1.5,1.5
			C149.75,116.96,141.973,118.853,134.75,118.853z M148.25,138.199c-0.829,0-1.5-0.67-1.5-1.5v-23.896c0-0.829,0.671-1.5,1.5-1.5
			s1.5,0.671,1.5,1.5v23.896C149.75,137.529,149.079,138.199,148.25,138.199z M121.25,138.199c-0.828,0-1.5-0.67-1.5-1.5v-23.896
			c0-0.829,0.672-1.5,1.5-1.5s1.5,0.671,1.5,1.5v23.896C122.75,137.529,122.078,138.199,121.25,138.199z"/>
		<circle fill="#FFFFFF" cx="124.625" cy="119.617" r="1.125"/>
		<circle fill="#FFFFFF" cx="124.625" cy="127.583" r="1.125"/>
		<circle fill="#FFFFFF" cx="124.625" cy="135.546" r="1.125"/>
	</g>
</g>
</svg>
