<?xml version="1.0" encoding="utf-8"?>
<!-- Generator: Adobe Illustrator 15.0.0, SVG Export Plug-In . SVG Version: 6.00 Build 0)  -->
<!DOCTYPE svg PUBLIC "-//W3C//DTD SVG 1.1//EN" "http://www.w3.org/Graphics/SVG/1.1/DTD/svg11.dtd">
<svg version="1.1" id="Layer_1" xmlns="http://www.w3.org/2000/svg" xmlns:xlink="http://www.w3.org/1999/xlink" x="0px" y="0px"
	 width="200px" height="200px" viewBox="0 0 200 200" enable-background="new 0 0 200 200" xml:space="preserve">
<g>
	<path fill="#FFFFFF" d="M98.991,63.702l0.853-3.417l-2.731-2.22c-0.512-0.34-0.171-1.195,0.341-1.366l3.417-0.17l1.365-3.244
		c0.171-0.684,1.195-0.684,1.367,0l1.364,3.244l3.414,0.17c0.687,0,0.854,0.855,0.345,1.366l-2.733,2.22l0.854,3.417
		c0.172,0.682-0.515,1.195-1.023,0.853l-2.903-1.878l-2.904,1.878C99.502,64.897,98.821,64.384,98.991,63.702z"/>
	<path fill="#FFFFFF" d="M116.146,63.702L117,60.285l-2.732-2.22c-0.513-0.34-0.172-1.195,0.342-1.366l3.416-0.17l1.365-3.244
		c0.172-0.684,1.194-0.684,1.366,0l1.367,3.244l3.415,0.17c0.684,0,0.855,0.855,0.342,1.366l-2.732,2.22l0.854,3.417
		c0.17,0.682-0.515,1.195-1.026,0.853l-2.9-1.878l-2.903,1.878C116.658,64.897,115.979,64.384,116.146,63.702z"/>
	<path fill="#FFFFFF" d="M133.311,63.702l0.854-3.417l-2.729-2.22c-0.515-0.34-0.172-1.195,0.34-1.366l3.416-0.17l1.367-3.244
		c0.17-0.684,1.194-0.684,1.365,0l1.366,3.244l3.414,0.17c0.687,0,0.854,0.855,0.343,1.366l-2.732,2.22l0.854,3.417
		c0.171,0.682-0.514,1.195-1.021,0.853l-2.904-1.878l-2.905,1.878C133.82,64.897,133.141,64.384,133.311,63.702z"/>
	<path fill="#FFFFFF" d="M107.424,78.13l0.854-3.417l-2.729-2.221c-0.513-0.339-0.171-1.194,0.341-1.365l3.418-0.171l1.364-3.244
		c0.171-0.684,1.196-0.684,1.367,0l1.364,3.244l3.414,0.171c0.687,0,0.855,0.854,0.345,1.365l-2.733,2.221l0.855,3.417
		c0.17,0.682-0.516,1.195-1.024,0.853l-2.903-1.878l-2.903,1.878C107.936,79.325,107.254,78.812,107.424,78.13z"/>
	<path fill="#FFFFFF" d="M124.828,78.13l0.854-3.417l-2.729-2.221c-0.515-0.339-0.173-1.194,0.341-1.365l3.416-0.171l1.366-3.244
		c0.171-0.684,1.194-0.684,1.366,0l1.365,3.244l3.414,0.171c0.687,0,0.855,0.854,0.344,1.365l-2.732,2.221l0.854,3.417
		c0.17,0.682-0.514,1.195-1.022,0.853l-2.903-1.878l-2.904,1.878C125.34,79.325,124.658,78.812,124.828,78.13z"/>
</g>
<path fill="#FFFFFF" d="M133.398,98.437v-7.872c0-5.994-12.862-9.131-25.565-9.131c-4.213,0-8.439,0.348-12.212,1.027l-2.4-4.597
	c-0.788-1.521-1.784-2.921-2.96-4.166c-0.668-0.713-1.39-1.372-2.161-1.974c-2.66-2.022-5.475-3.835-8.419-5.417l-4.529,21.711
	l-2.251-14.429l1.53-2.456l-2.25-2.863l5.922-3.8v-2.418c0.565-0.941,0.948-1.978,1.135-3.059c0.435-0.031,1.006-0.642,1.619-2.814
	c0.838-2.971-0.05-3.405-0.81-3.336c0.143-0.398,0.251-0.806,0.326-1.223c1.282-7.698-2.507-7.965-2.507-7.965
	c-0.554-0.9-1.342-1.635-2.28-2.122c-1.417-0.82-3.06-1.166-4.688-0.987c-0.634,0.031-1.262,0.15-1.864,0.354
	c-0.731,0.254-1.421,0.609-2.053,1.057c-0.774,0.492-1.485,1.078-2.112,1.747c-1.106,1.093-1.892,2.468-2.271,3.977
	c-0.302,1.3-0.302,2.649,0,3.948c0.076,0.417,0.185,0.826,0.327,1.224c-0.76-0.08-1.648,0.375-0.81,3.335
	c0.632,2.173,1.184,2.813,1.619,2.813c0.187,1.096,0.572,2.146,1.136,3.101v2.387l5.921,3.8l-2.27,2.863l1.529,2.376L67.8,87.96
	l-4.52-21.714c-2.903,1.554-5.682,3.33-8.31,5.311c-2.382,1.823-4.287,4.193-5.558,6.907l-3.374,7.195l-3.702,7.898
	c-0.66,1.409-0.552,3.06,0.287,4.372l7.724,11.625v41.813c0,5.993,12.861,9.132,25.565,9.132s25.566-3.139,25.566-9.132v-8.113
	c1.474,0.124,2.975,0.205,4.483,0.241v7.873c0,5.992,12.86,9.131,25.565,9.131c12.701,0,25.563-3.139,25.563-9.131v-43.826
	C157.091,101.844,145.461,98.729,133.398,98.437z M107.833,85.054c13.593,0,21.914,3.546,21.914,5.478
	c0,0.005-0.004,0.012-0.004,0.017c-0.026,1.13-2.884,2.796-7.938,3.992c-0.3-1.03-1.209-1.814-2.341-1.883l-19.335-1.559
	l-2.748-5.264C100.373,85.361,103.871,85.054,107.833,85.054z M56.686,105.229c0.278-0.13,0.571-0.259,0.89-0.388 M87.27,88.972
	l3.529,4.707c-1.856-0.625-3.224-1.301-4.025-1.932l0.111-2.512C87.001,89.148,87.132,89.061,87.27,88.972z M51.634,95.036
	l5.043-7.52l0.703,13.549c-0.911,0.326-1.751,0.684-2.514,1.068l-3.232-5.499C51.333,96.145,51.333,95.526,51.634,95.036z
	 M97.827,142.115v9.671c-0.001,1.932-8.321,5.478-21.914,5.478c-13.593,0-21.913-3.546-21.913-5.478v-9.671v-0.001
	c4.719,2.765,13.35,4.192,21.913,4.192c0.535,0,1.071-0.006,1.605-0.017C85.542,146.123,93.404,144.704,97.827,142.115
	L97.827,142.115z M97.827,136.635c0,0.001-0.001,0.003-0.001,0.004v0.122c0,0.656-0.981,1.499-2.782,2.326
	c-0.063-0.014-0.128-0.026-0.19-0.039c-1.428,0.633-3.34,1.251-5.7,1.766c-3.507,0.766-7.972,1.301-13.241,1.301
	c-13.593,0-21.913-3.546-21.913-5.479v-9.546v-0.124c4.719,2.764,13.35,4.189,21.913,4.189c8.565,0,17.196-1.426,21.914-4.189
	V136.635z M97.827,122.148c0,0.001-0.001,0.003-0.001,0.004c0,0.553-0.702,1.237-1.991,1.934c-0.001,0-0.003-0.001-0.004-0.001
	c-0.057,0.03-0.108,0.061-0.167,0.091c-1.558,0.808-3.921,1.622-6.997,2.257c0.002,0.001,0.003,0.002,0.005,0.003
	c-0.859,0.177-1.786,0.336-2.753,0.481v-0.003c-1.146,0.173-2.362,0.318-3.651,0.433c-1.966,0.175-4.079,0.281-6.355,0.281
	c-13.593,0-21.913-3.547-21.913-5.479v-9.667v-0.005c4.719,2.767,13.35,4.192,21.913,4.192c8.565,0,17.196-1.428,21.914-4.192
	V122.148z M56.686,105.229c5.186-2.271,9.814-3.229,16.648-3.729s12.951,1.302,12.951,1.302c7.319,1.15,11.543,3.334,11.543,4.709
	c0,0.005-0.004,0.012-0.004,0.017c0,0.005,0.004,0.012,0.004,0.017c0,0.576-0.755,1.296-2.154,2.022
	c-0.015-0.003-0.03-0.006-0.044-0.008c-0.002,0.001-0.003,0.002-0.005,0.003c-1.405,0.721-3.465,1.442-6.087,2.04
	c0.019,0.006,0.037,0.013,0.055,0.019c-1.122,0.258-2.347,0.489-3.673,0.688v-0.032c-1.146,0.173-2.361,0.318-3.65,0.433
	c-1.966,0.175-4.079,0.281-6.355,0.281c-7.125,0-12.78-0.977-16.567-2.182C58.191,110.45,51.5,107.5,56.686,105.229z
	 M105.962,140.258c-1.575-0.039-3.07-0.125-4.483-0.251v-10.941c1.473,0.124,2.975,0.203,4.483,0.239V140.258z M105.962,125.106
	c-1.576-0.039-3.07-0.125-4.483-0.251v-10.94c1.473,0.124,2.975,0.203,4.483,0.239V125.106z M105.962,107.543v3.075
	c-1.576-0.039-3.07-0.125-4.483-0.251v-2.823c0-4.297-6.613-7.118-15.033-8.376l0.146-3.304c2.15,1.122,4.969,2.001,8.159,2.633
	c0.979,0.689,2.171,1.046,3.399,0.969l2.1-0.156c2.464,0.252,5.026,0.382,7.583,0.382c8.566,0,17.195-1.428,21.915-4.192v0.003
	v2.932C117.648,98.714,105.962,101.83,105.962,107.543z M153.439,142.116v9.671c0,1.932-8.318,5.479-21.912,5.479
	s-21.914-3.547-21.914-5.479v-9.671v-0.002c4.719,2.768,13.349,4.192,21.914,4.192c8.563,0,17.195-1.427,21.912-4.192V142.116z
	 M153.439,127.088v9.548c0,1.931-8.318,5.478-21.914,5.478c-2.851,0-5.453-0.162-7.812-0.427c-3.524-0.395-6.465-1.027-8.735-1.747
	c-0.099,0.01-0.202,0.018-0.302,0.027c-3.262-1.074-5.063-2.313-5.063-3.207v-0.116c0-0.003-0.002-0.005-0.002-0.008v-9.672
	c4.721,2.765,13.351,4.19,21.914,4.19c8.565,0,17.197-1.428,21.914-4.19V127.088z M153.439,112.479v9.67
	c0,1.842-7.565,5.141-20.041,5.448c-0.616,0.015-1.233,0.03-1.873,0.03c-0.607,0-1.192-0.015-1.778-0.029v0.002
	c-1.874-0.044-3.651-0.147-5.296-0.312c0.002,0,0.003-0.001,0.004-0.001c0,0-0.001,0-0.002,0c-4.573-0.457-8.205-1.322-10.741-2.269
	c-0.09-0.034-0.178-0.067-0.265-0.102c-0.001,0-0.002,0-0.002,0c-1.318-0.512-2.333-1.042-2.976-1.545
	c-0.565-0.441-0.858-0.861-0.858-1.224v-9.672c4.721,2.765,13.351,4.191,21.914,4.191c8.565,0,17.197-1.429,21.914-4.191V112.479z
	 M153.436,107.527c-0.042,1.844-7.597,5.125-20.037,5.432c-0.615,0.015-1.231,0.03-1.871,0.03c-0.608,0-1.193-0.015-1.78-0.029
	v0.032c-2.428-0.057-4.668-0.225-6.706-0.477c0.029-0.007,0.057-0.015,0.085-0.021c-3.909-0.477-7.069-1.246-9.347-2.089
	c-0.003-0.001-0.006-0.002-0.009-0.003c-0.023,0.002-0.047,0.004-0.07,0.006c-2.64-0.988-4.087-2.064-4.087-2.865
	c0-0.005,0.004-0.011,0.004-0.016c0-0.006-0.004-0.012-0.004-0.017c0-1.934,8.322-5.479,21.914-5.479
	c13.594,0,21.912,3.545,21.912,5.479C153.439,107.516,153.436,107.521,153.436,107.527z"/>
</svg>
