<?xml version="1.0" encoding="utf-8"?>
<!-- Generator: Adobe Illustrator 15.0.0, SVG Export Plug-In . SVG Version: 6.00 Build 0)  -->
<!DOCTYPE svg PUBLIC "-//W3C//DTD SVG 1.1//EN" "http://www.w3.org/Graphics/SVG/1.1/DTD/svg11.dtd">
<svg version="1.1" id="Layer_1" xmlns="http://www.w3.org/2000/svg" xmlns:xlink="http://www.w3.org/1999/xlink" x="0px" y="0px"
	 width="200px" height="200px" viewBox="0 0 200 200" enable-background="new 0 0 200 200" xml:space="preserve">
<g>
	<path fill="#999999" d="M25.146,55.556h10.41l5.602,16.807c0.016,0.048,0.031,0.094,0.047,0.141l12.675,38.023l5.194,15.585
		c-4.959,1.731-8.532,6.442-8.532,11.984c0,7.001,5.697,12.698,12.698,12.698c7.002,0,12.699-5.697,12.699-12.698
		c0-2.313-0.632-4.479-1.718-6.35h32.008c-1.086,1.871-1.719,4.036-1.719,6.35c0,7.001,5.697,12.698,12.699,12.698
		s12.698-5.697,12.698-12.698c0-7.002-5.696-12.698-12.698-12.698h-51.68l-4.232-12.699h11.458c0.002,0,0.005,0,0.006,0
		c0.002,0,0.005,0,0.007,0h31.739c0.002,0,0.005,0,0.008,0c0.001,0,0.005,0,0.006,0h15.863c1.366,0,2.579-0.874,3.012-2.17
		l12.698-38.095c0.322-0.968,0.159-2.033-0.436-2.859c-0.6-0.83-1.555-1.32-2.576-1.32H66.538c-0.003,0-0.008,0-0.011,0H46.481
		l-5.625-16.877c-0.433-1.296-1.646-2.17-3.012-2.17H25.146c-1.754,0-3.175,1.421-3.175,3.174
		C21.971,54.135,23.392,55.556,25.146,55.556z M91.812,106.35V93.651h12.125l-2.116,12.699H91.812z M91.812,87.301V74.604h15.3
		l-2.117,12.698H91.812z M85.463,87.301H72.279l-2.117-12.698h15.3V87.301z M85.463,93.651v12.699H75.454l-2.116-12.699H85.463z
		 M69.017,106.35h-9.837l-4.232-12.699h11.955L69.017,106.35z M69.59,138.096c0,3.501-2.849,6.35-6.35,6.35
		c-3.5,0-6.349-2.849-6.349-6.35c0-3.502,2.849-6.35,6.349-6.35C66.741,131.746,69.59,134.594,69.59,138.096z M123.558,138.096
		c0,3.501-2.848,6.35-6.349,6.35s-6.35-2.849-6.35-6.35c0-3.502,2.849-6.35,6.35-6.35S123.558,134.594,123.558,138.096z
		 M118.095,106.35h-9.837l2.116-12.699h11.954L118.095,106.35z M124.444,87.301h-13.013l2.117-12.698h15.129L124.444,87.301z
		 M63.726,74.604l2.116,12.698H52.83l-4.232-12.698H63.726z"/>
	<g>
		<path fill="#32C5D2" d="M138.771,150.794h-24.525l4.312-54.042h20.214h20.212l4.313,54.042H138.771z M129.081,103.179
			c0-0.88-0.712-1.592-1.589-1.592c-0.879,0-1.591,0.712-1.591,1.592c0,0.877,0.712,1.589,1.591,1.589
			C128.369,104.768,129.081,104.056,129.081,103.179L129.081,103.179z M151.639,103.179c0-0.88-0.712-1.592-1.59-1.592
			s-1.59,0.712-1.59,1.592c0,0.877,0.712,1.589,1.59,1.589S151.639,104.056,151.639,103.179L151.639,103.179z"/>
		<g>
			<path fill="#32C5D2" d="M148.396,95.86c-0.048-2.251-0.311-4.491-0.788-6.689c-0.421-1.949-1.103-3.832-2.025-5.599
				c-0.861-1.65-2.061-3.1-3.518-4.254c-0.938-0.744-2.099-1.149-3.295-1.149c-1.198,0-2.358,0.405-3.295,1.149
				c-1.46,1.156-2.656,2.605-3.52,4.254c-0.922,1.767-1.604,3.65-2.024,5.599c-0.476,2.199-0.742,4.438-0.789,6.689h-2.224
				c0.048-2.407,0.329-4.806,0.839-7.161c0.464-2.144,1.214-4.213,2.229-6.157c1.006-1.926,2.404-3.618,4.105-4.967
				c1.331-1.056,2.98-1.63,4.678-1.63c1.698,0,3.347,0.575,4.677,1.63c1.702,1.349,3.101,3.042,4.106,4.967
				c1.016,1.943,1.765,4.013,2.229,6.157c0.509,2.354,0.79,4.752,0.838,7.161H148.396z"/>
		</g>
		<path fill="#32C5D2" d="M165.478,150.794L161.9,105.98h16.495l3.575,44.813H165.478z M172.306,111.31
			c0-0.728-0.592-1.317-1.318-1.317c-0.729,0-1.318,0.59-1.318,1.317c0,0.729,0.591,1.318,1.318,1.318
			C171.714,112.628,172.306,112.038,172.306,111.31L172.306,111.31z"/>
		<g>
			<path fill="#32C5D2" d="M156.247,94.577h-2.091c0.064-0.127,0.129-0.252,0.194-0.378c0.835-1.596,1.992-3,3.405-4.119
				c1.103-0.874,2.47-1.351,3.877-1.351c1.408,0,2.774,0.477,3.878,1.351c1.412,1.119,2.573,2.523,3.405,4.119
				c0.841,1.613,1.463,3.329,1.847,5.106c0.423,1.951,0.655,3.94,0.696,5.938h-1.843c-0.042-1.866-0.259-3.724-0.653-5.546
				c-0.352-1.617-0.915-3.177-1.682-4.644c-0.714-1.368-1.707-2.571-2.917-3.529c-0.777-0.616-1.74-0.952-2.731-0.952
				c-0.992,0-1.956,0.336-2.733,0.952C157.837,92.369,156.936,93.402,156.247,94.577z"/>
		</g>
	</g>
</g>
</svg>
