<?xml version="1.0" encoding="utf-8"?>
<!-- Generator: Adobe Illustrator 15.0.0, SVG Export Plug-In . SVG Version: 6.00 Build 0)  -->
<!DOCTYPE svg PUBLIC "-//W3C//DTD SVG 1.1//EN" "http://www.w3.org/Graphics/SVG/1.1/DTD/svg11.dtd">
<svg version="1.1" id="Layer_1" xmlns="http://www.w3.org/2000/svg" xmlns:xlink="http://www.w3.org/1999/xlink" x="0px" y="0px"
	 width="200px" height="200px" viewBox="0 0 200 200" enable-background="new 0 0 200 200" xml:space="preserve">
<g transform="translate(0,-1020.3622)">
	<path fill="#999999" d="M45.894,1088.143c-3.267,0-5.894,2.626-5.894,5.885v7.447h102.215v-7.447c0-3.259-2.627-5.885-5.894-5.885
		H45.894z"/>
	<path fill="#999999" d="M40,1114.808v34.112c0,3.259,2.626,5.885,5.894,5.885h76.149c-1.021-3.823-1.563-8.26-1.433-13.332h-9.504
		v-13.333h13.332v3.524h0.494c5.523-0.045,10.57-2.198,14.496-6.231l2.786-2.873v-7.751H40z M55.555,1137.028h22.22v4.444h-22.22
		V1137.028z"/>
	<path fill="#32C5D2" d="M159.475,1135.547c-6.525,0-12.765-2.682-17.263-7.407c-4.619,4.746-10.709,7.368-17.256,7.407
		c-4.115,31.273,17.257,37.034,17.257,37.034S163.586,1166.82,159.475,1135.547L159.475,1135.547z"/>
</g>
</svg>
