<?xml version="1.0" encoding="utf-8"?>
<!-- Generator: Adobe Illustrator 21.0.0, SVG Export Plug-In . SVG Version: 6.00 Build 0)  -->
<svg version="1.1" id="Layer_1" xmlns="http://www.w3.org/2000/svg" xmlns:xlink="http://www.w3.org/1999/xlink" x="0px" y="0px"
	 viewBox="0 0 200 200" style="enable-background:new 0 0 200 200;" xml:space="preserve">
<style type="text/css">
	.st0{fill:#32C5D2;}
	.st1{fill:#999999;}
</style>
<g>
	<g>
		<g>
			<path class="st0" d="M87.3,47.4c-0.5,0-1,0.1-1.5,0.3l-6.1-6.1c0.2-0.5,0.3-1,0.3-1.5c0-2-1.6-3.7-3.7-3.7s-3.7,1.6-3.7,3.7
				c0,0.7,0.2,1.3,0.5,1.9l-0.7,0.7c-3.2-7-10.2-11.8-18.4-11.8C43,30.9,34,40,34,51.1c0,0.4,0,0.9,0,1.3c-1.5,0.5-2.5,1.9-2.5,3.5
				c0,2,1.6,3.7,3.7,3.7c0.2,0,0.5,0,0.7-0.1c1,2.2,2.5,4.3,4.2,6c0.2,0.2,0.5,0.3,0.8,0.3c0.3,0,0.6-0.1,0.8-0.3
				c0.4-0.5,0.4-1.2,0-1.6c-1.6-1.6-2.9-3.4-3.8-5.5c0.6-0.6,0.9-1.5,0.9-2.4c0-0.6-0.1-1.1-0.4-1.6l7.1-7.1c0.5,0.2,1,0.4,1.6,0.4
				c0.5,0,1.1-0.1,1.5-0.3l7.8,7.8c0,0,0,0,0.1,0.1c-0.2,0.5-0.3,1-0.3,1.5c0,2,1.6,3.7,3.7,3.7c2,0,3.7-1.6,3.7-3.7
				c0-0.5-0.1-0.9-0.3-1.3l8.3-8.3c0.3,1.3,0.5,2.7,0.5,4.1c0,9.8-8,17.9-17.9,17.9c-3.1,0-6.2-0.8-8.9-2.4
				c-0.6-0.3-1.3-0.1-1.6,0.4c-0.3,0.6-0.1,1.3,0.4,1.6c3,1.8,6.5,2.7,10.1,2.7c11.1,0,20.2-9.1,20.2-20.2c0-2.1-0.3-4.1-0.9-6
				l1.6-1.6c0.4,0.2,0.9,0.3,1.3,0.3c0.6,0,1.2-0.2,1.7-0.4l6,6c-0.3,0.5-0.4,1.1-0.4,1.7c0,2,1.6,3.7,3.7,3.7s3.7-1.6,3.7-3.7
				C91,49.1,89.4,47.4,87.3,47.4z M35.2,57.2c-0.7,0-1.3-0.6-1.3-1.3s0.6-1.3,1.3-1.3s1.3,0.6,1.3,1.3S35.9,57.2,35.2,57.2z
				 M47.1,45.2c-0.7,0-1.3-0.6-1.3-1.3c0-0.7,0.6-1.3,1.3-1.3s1.3,0.6,1.3,1.3S47.9,45.2,47.1,45.2z M59.9,58
				c-0.7,0-1.3-0.6-1.3-1.3c0-0.7,0.6-1.3,1.3-1.3s1.3,0.6,1.3,1.3C61.2,57.4,60.6,58,59.9,58z M61.8,53.5c-0.6-0.3-1.2-0.5-1.9-0.5
				c-0.6,0-1.2,0.2-1.7,0.4c0,0,0,0,0,0l-7.8-7.8c0.3-0.5,0.4-1.1,0.4-1.7c0-2-1.6-3.7-3.7-3.7c-2,0-3.7,1.6-3.7,3.7
				c0,0.6,0.1,1.1,0.4,1.6l-7.1,7.1c-0.1-0.1-0.3-0.1-0.4-0.2c0-0.5-0.1-0.9-0.1-1.4c0-9.8,8-17.9,17.9-17.9c7.5,0,14,4.7,16.6,11.3
				L61.8,53.5z M76.4,41.4c-0.7,0-1.3-0.6-1.3-1.3s0.6-1.3,1.3-1.3c0.7,0,1.3,0.6,1.3,1.3S77.1,41.4,76.4,41.4z M87.3,52.4
				c-0.7,0-1.3-0.6-1.3-1.3s0.6-1.3,1.3-1.3c0.7,0,1.3,0.6,1.3,1.3S88.1,52.4,87.3,52.4z"/>
		</g>
	</g>
	<g>
		<g>
			<path class="st1" d="M165.5,157.9h-0.9v-43.9c0-1.1-0.9-2-2-2s-2,0.9-2,2v43.9h-7.7V71.9h7.7v34c0,1.1,0.9,2,2,2c1.1,0,2-0.9,2-2
				v-36c0-1.1-0.9-2-2-2h-11.7c-1.1,0-2,0.9-2,2v88.1h-4V87.5c0-1.1-0.9-2-2-2h-11.7c-1.1,0-2,0.9-2,2v70.5h-4v-55.4
				c0-1.1-0.9-2-2-2h-11.7c-1.1,0-2,0.9-2,2v55.4h-4v-40.8c0-1.1-0.9-2-2-2H91.5c-1.1,0-2,0.9-2,2v40.8h-4v-31c0-1.1-0.9-2-2-2H71.7
				c-1.1,0-2,0.9-2,2v11.6c0,1.1,0.9,2,2,2s2-0.9,2-2v-9.6h7.7v29h-7.7v-11.3c0-1.1-0.9-2-2-2s-2,0.9-2,2v11.3h-4v-31
				c0-1.1-0.9-2-2-2H51.9c-1.1,0-2,0.9-2,2v31H34.6c-1.1,0-2,0.9-2,2s0.9,2,2,2h130.9v0c1.1,0,2-0.9,2-2
				C167.5,158.8,166.6,157.9,165.5,157.9z M61.7,157.9h-7.7v-29h7.7V157.9z M101.2,157.9h-7.7v-38.8h7.7V157.9z M121,157.9h-7.7
				v-53.4h7.7V157.9z M140.8,157.9h-7.7V89.5h7.7V157.9z"/>
		</g>
	</g>
	<g>
		<path class="st0" d="M135.1,58.8c0.5,0.8,1.2,1.5,2,2c2.5,1.4,5.7,0.5,7.2-2c0.3-0.5,0.1-1.1-0.4-1.4c-0.5-0.3-1.2-0.1-1.4,0.4
			c-0.3,0.5-0.7,0.9-1.2,1.2c-1.5,0.9-3.4,0.3-4.3-1.2c0,0,0,0,0,0c-0.3-0.5-0.9-0.7-1.4-0.4C135,57.7,134.8,58.3,135.1,58.8z"/>
		<path class="st0" d="M129.1,55c0,5.9,4.7,10.6,10.6,10.6s10.6-4.7,10.6-10.6s-4.7-10.6-10.6-10.6C133.8,44.4,129.1,49.2,129.1,55z
			 M139.7,63.5c-4.7,0-8.5-3.8-8.5-8.5s3.8-8.5,8.5-8.5c4.7,0,8.5,3.8,8.5,8.5C148.2,59.7,144.4,63.5,139.7,63.5
			C139.7,63.5,139.7,63.5,139.7,63.5z"/>
		<circle class="st0" cx="136.5" cy="52.9" r="2.1"/>
		<circle class="st0" cx="142.9" cy="52.9" r="2.1"/>
	</g>
	<g>
		<path class="st1" d="M49.9,107.3C49.9,107.4,49.9,107.4,49.9,107.3c0,5.9,4.8,10.6,10.6,10.6c5.9,0,10.6-4.8,10.6-10.6
			c0-5.9-4.8-10.6-10.6-10.6C54.6,96.8,49.9,101.5,49.9,107.3z M60.5,115.8L60.5,115.8c-4.7,0-8.4-3.8-8.4-8.5c0,0,0,0,0-0.1
			c0-4.7,3.9-8.4,8.6-8.4c4.7,0,8.4,3.9,8.4,8.6C69,112.1,65.1,115.9,60.5,115.8L60.5,115.8z"/>
		<path class="st1" d="M64.6,103.3L64.6,103.3c0.7,0.4,1.1,1.1,1.1,1.9c0,1.2-0.9,2.1-2.1,2.1c-1.2,0-2.1-0.9-2.1-2.1L64.6,103.3
			L64.6,103.3z"/>
		<path class="st1" d="M55.9,111.4c0.5-0.8,1.2-1.5,2-2c2.5-1.4,5.7-0.5,7.2,2c0.3,0.5,0.1,1.1-0.4,1.4c-0.5,0.3-1.1,0.1-1.4-0.4
			c-0.3-0.5-0.7-0.9-1.2-1.2c-1.5-0.9-3.4-0.3-4.3,1.2c0,0,0,0,0,0c-0.3,0.5-0.9,0.7-1.4,0.4C55.8,112.5,55.6,111.9,55.9,111.4z"/>
		<path class="st1" d="M55.4,106.1c-0.5-1.1,0-2.3,1-2.8l3,1.9c0,1.2-0.9,2.1-2.1,2.1C56.5,107.4,55.7,106.9,55.4,106.1z"/>
	</g>
	<g>
		<path class="st1" d="M95.5,83.2c-0.3,0.5-0.1,1.2,0.4,1.4c0.5,0.3,1.1,0.1,1.4-0.4c0.3-0.5,0.7-0.9,1.2-1.2
			c1.5-0.9,3.4-0.3,4.3,1.2c0.3,0.5,0.9,0.7,1.4,0.4c0.5-0.3,0.7-0.9,0.4-1.4c-0.9-1.6-2.7-2.6-4.6-2.6
			C98.2,80.5,96.5,81.6,95.5,83.2z"/>
		<circle class="st1" cx="96.9" cy="77.1" r="2.1"/>
		<circle class="st1" cx="103.3" cy="77.1" r="2.1"/>
		<path class="st1" d="M89.5,79.2L89.5,79.2c0,5.9,4.7,10.6,10.6,10.6c5.9,0,10.6-4.7,10.6-10.6s-4.7-10.6-10.6-10.6
			C94.2,68.6,89.5,73.3,89.5,79.2z M100.1,87.7c-4.7,0-8.5-3.8-8.5-8.5c0-4.7,3.8-8.5,8.5-8.5c4.7,0,8.5,3.8,8.5,8.5
			C108.6,83.9,104.8,87.7,100.1,87.7L100.1,87.7z"/>
	</g>
</g>
</svg>
