<?xml version="1.0" encoding="utf-8"?>
<!-- Generator: Adobe Illustrator 21.0.0, SVG Export Plug-In . SVG Version: 6.00 Build 0)  -->
<svg version="1.1" id="Layer_1" xmlns="http://www.w3.org/2000/svg" xmlns:xlink="http://www.w3.org/1999/xlink" x="0px" y="0px"
	 viewBox="0 0 200 200" style="enable-background:new 0 0 200 200;" xml:space="preserve">
<style type="text/css">
	.st0{fill:#999999;}
	.st1{fill:#FFFFFF;}
	.st2{fill:#3DCFCF;}
</style>
<g>
	<g>
		<path class="st0" d="M97.4,84.4c-25.2,0-45-9.9-45-22.5s19.8-22.5,45-22.5c25.2,0,45,9.9,45,22.5S122.6,84.4,97.4,84.4z
			 M97.4,44.4c-23.9,0-40,9.1-40,17.5c0,8.5,16.1,17.5,40,17.5s40-9.1,40-17.5C137.4,53.4,121.3,44.4,97.4,44.4z"/>
		<path class="st0" d="M64.9,109.4c1.4,0,2.5,1.1,2.5,2.5c0,1.4-1.1,2.5-2.5,2.5c-1.4,0-2.5-1.1-2.5-2.5
			C62.4,110.5,63.5,109.4,64.9,109.4z"/>
		<circle class="st0" cx="64.9" cy="86.9" r="2.5"/>
		<circle class="st0" cx="64.9" cy="136.9" r="2.5"/>
		<path class="st0" d="M97.4,159.4c-25.2,0-45-9.9-45-22.5v-75h5v75c0,8.4,16.1,17.5,40,17.5s40-9.1,40-17.5V62.3h5v74.6
			C142.4,149.5,122.6,159.4,97.4,159.4z"/>
		<path class="st0" d="M97.4,134.4c-25.2,0-45-9.9-45-22.5h5c0,8.5,16.1,17.5,40,17.5s40-9.1,40-17.5h5
			C142.4,124.5,122.6,134.4,97.4,134.4z"/>
		<path class="st0" d="M97.4,109.4c-25.2,0-45-9.9-45-22.5h5c0,8.4,16.1,17.5,40,17.5s40-9.1,40-17.5h5
			C142.4,99.5,122.6,109.4,97.4,109.4z"/>
	</g>
	<g>
		<g>
			<path class="st1" d="M119.8,156.6c13.1,0,23.8-10.7,23.8-23.8c0-13.1-10.7-23.8-23.8-23.8s-23.8,10.7-23.8,23.8
				C95.9,145.9,106.6,156.6,119.8,156.6z"/>
			<path class="st0" d="M119.8,160.6c15.4,0,27.9-12.5,27.9-27.9c0-15.4-12.5-27.9-27.9-27.9s-27.9,12.6-27.9,27.9
				C91.9,148.1,104.3,160.6,119.8,160.6z M119.8,108.9c13.1,0,23.8,10.7,23.8,23.8c0,13.1-10.7,23.8-23.8,23.8s-23.8-10.7-23.8-23.8
				C95.9,119.6,106.6,108.9,119.8,108.9z"/>
		</g>
	</g>
	<path class="st2" d="M128.7,135.7l1.3-3.5c0.2-0.6-0.2-1.2-0.8-1.2h-3.3c0.6-1.1,1-2.3,1-3.6v0c2.2-0.4,3.6-1.1,3.6-1.8
		c0-0.7-1.5-1.4-3.9-1.8c-0.5-1.8-1.5-3.7-2.3-4.6c-0.5-0.7-1.4-0.9-2.2-0.5l-1.5,0.8c-0.5,0.3-1.1,0.3-1.6,0l-1.5-0.8
		c-0.8-0.4-1.7-0.2-2.2,0.5c-0.8,0.9-1.8,2.8-2.3,4.6c-2.4,0.4-3.9,1.1-3.9,1.8c0,0.7,1.4,1.3,3.6,1.8v0c0,1.3,0.4,2.5,1,3.6h-3.2
		c-0.6,0-1.1,0.7-0.8,1.2l1.4,3.4c-2.2,1.3-3.8,3.7-3.8,6.5v2.5c0,1.4,1.1,2.5,2.5,2.5h20c1.4,0,2.5-1.1,2.5-2.5V142
		C132.3,139.3,130.8,137,128.7,135.7L128.7,135.7z M117.1,145.2l-2.3-10.7l2.8,1.8l1.3,2.2L117.1,145.2z M122.4,145.2l-1.8-6.7
		l1.3-2.2l2.8-1.8L122.4,145.2z M124.8,128.6c-0.2,0.7-0.4,1.4-0.9,1.9c-0.6,0.5-2.7,1.3-3.6-1.4c-0.2-0.5-0.9-0.5-1,0
		c-0.9,2.8-3.1,1.8-3.6,1.4c-0.5-0.5-0.7-1.2-0.9-1.9c0-0.1-0.4-0.3-0.4-0.3v-0.6c1.6,0.2,3.4,0.3,5.4,0.3s3.8-0.1,5.4-0.3v0.6
		C125.1,128.3,124.8,128.4,124.8,128.6z"/>
</g>
</svg>
