<?xml version="1.0" encoding="utf-8"?>
<!-- Generator: Adobe Illustrator 23.0.0, SVG Export Plug-In . SVG Version: 6.00 Build 0)  -->
<svg version="1.1" id="Layer_1" xmlns="http://www.w3.org/2000/svg" xmlns:xlink="http://www.w3.org/1999/xlink" x="0px" y="0px"
	 viewBox="0 0 200 200" style="enable-background:new 0 0 200 200;" xml:space="preserve">
<style type="text/css">
	.st0{fill:#808080;}
	.st1{fill:#3DCFCF;}
	.st2{fill:#FFFFFF;}
</style>
<g>
	<g>
		<path class="st0" d="M10,82.1v35.9c0,4.9,10.5,7.5,20.9,7.5s20.9-2.6,20.9-7.5V82.1c0-4.9-10.5-7.5-20.9-7.5
			C20.5,74.6,10,77.2,10,82.1z M48.9,106c0,1.6-6.8,4.5-17.9,4.5c-11.1,0-17.9-2.9-17.9-4.5v-7.9c3.9,2.3,10.9,3.4,17.9,3.4
			c7,0,14.1-1.2,17.9-3.4V106z M48.9,94c0,1.6-6.8,4.5-17.9,4.5C19.8,98.5,13,95.6,13,94v-7.9c3.9,2.3,10.9,3.4,17.9,3.4
			c7,0,14.1-1.2,17.9-3.4V94z M30.9,77.6c11.1,0,17.9,2.9,17.9,4.5c0,1.6-6.8,4.5-17.9,4.5c-11.1,0-17.9-2.9-17.9-4.5
			C13,80.5,19.8,77.6,30.9,77.6z M30.9,122.8c-11.1,0-17.9-2.9-17.9-4.5v-7.9c3.9,2.3,10.9,3.4,17.9,3.4c7,0,14.1-1.2,17.9-3.4v7.9
			C48.9,119.9,42,122.8,30.9,122.8z"/>
	</g>
	<g>
		<g>
			<path class="st0" d="M135.9,85.2v29.6c0,4,8.7,6.2,17.3,6.2c8.6,0,17.3-2.1,17.3-6.2V85.2c0-4-8.7-6.2-17.3-6.2
				C144.6,79,135.9,81.2,135.9,85.2z M167.9,104.9c0,1.3-5.6,3.7-14.8,3.7c-9.2,0-14.8-2.4-14.8-3.7v-6.5c3.2,1.9,9,2.8,14.8,2.8
				c5.8,0,11.6-1,14.8-2.8V104.9z M167.9,95.1c0,1.3-5.6,3.7-14.8,3.7c-9.2,0-14.8-2.4-14.8-3.7v-6.5c3.2,1.9,9,2.8,14.8,2.8
				c5.8,0,11.6-1,14.8-2.8V95.1z M153.2,81.5c9.2,0,14.8,2.4,14.8,3.7c0,1.3-5.6,3.7-14.8,3.7c-9.2,0-14.8-2.4-14.8-3.7
				C138.4,83.9,144,81.5,153.2,81.5z M153.2,118.8c-9.2,0-14.8-2.4-14.8-3.7v-6.5c3.2,1.9,9,2.8,14.8,2.8c5.8,0,11.6-1,14.8-2.8v6.5
				C167.9,116.4,162.3,118.8,153.2,118.8z"/>
		</g>
		<g>
			<path class="st1" d="M155.9,132.7v4.2c18.2-1.4,32.7-15.9,34.1-34.1h-4.2C184.5,118.7,171.8,131.3,155.9,132.7z"/>
			<path class="st1" d="M185.8,97.2h4.2c-1.4-18.2-15.9-32.7-34.1-34.1v4.2C171.8,68.7,184.5,81.3,185.8,97.2z"/>
			<path class="st1" d="M120.5,102.8h-4.2c1.4,18.2,15.9,32.7,34.1,34.1v-4.2C134.5,131.3,121.8,118.7,120.5,102.8z"/>
			<path class="st1" d="M150.4,67.3v-4.2c-18.2,1.4-32.7,15.9-34.1,34.1h4.2C121.8,81.3,134.5,68.7,150.4,67.3z"/>
		</g>
	</g>
	<g>
		<g>
			<polygon class="st0" points="96.5,100.1 90.6,94.2 90.6,97.5 71.7,97.5 71.7,102.6 90.6,102.6 90.6,105.9 			"/>
		</g>
	</g>
	<circle class="st2" cx="49.8" cy="118.8" r="12.9"/>
	<path class="st1" d="M55.6,114.8l1.9-1.9l-1.9-1.9l-1.9,1.9c-0.8-0.5-1.7-0.9-2.6-1.1v-2.6h-2.7v2.6c-1,0.2-1.8,0.5-2.6,1.1
		l-1.9-1.9l-1.9,1.9l1.8,1.9c-0.5,0.8-0.9,1.7-1.1,2.6h-2.6v2.7h2.6c0.2,1,0.6,1.8,1.1,2.6l-1.8,1.9l1.9,1.9l1.9-1.9
		c0.8,0.5,1.7,0.9,2.6,1.1v2.6h2.7v-2.6c1-0.2,1.8-0.5,2.6-1.1l1.9,1.8l1.9-1.9l-1.9-1.9c0.5-0.8,0.9-1.7,1.1-2.6h2.6v-2.7h-2.6
		C56.5,116.5,56.1,115.6,55.6,114.8z M49.8,121.7c-1.6,0-2.9-1.3-2.9-2.9c0-1.6,1.3-2.9,2.9-2.9c1.6,0,2.9,1.3,2.9,2.9
		C52.7,120.4,51.4,121.7,49.8,121.7z"/>
</g>
</svg>
