<?xml version="1.0" encoding="utf-8"?>
<!-- Generator: Adobe Illustrator 15.0.0, SVG Export Plug-In . SVG Version: 6.00 Build 0)  -->
<!DOCTYPE svg PUBLIC "-//W3C//DTD SVG 1.1//EN" "http://www.w3.org/Graphics/SVG/1.1/DTD/svg11.dtd">
<svg version="1.1" id="Layer_1" xmlns="http://www.w3.org/2000/svg" xmlns:xlink="http://www.w3.org/1999/xlink" x="0px" y="0px"
	 width="200px" height="200px" viewBox="0 0 200 200" enable-background="new 0 0 200 200" xml:space="preserve">
<g>
	<path fill="#999999" d="M158.857,51.214h-15.216c-0.998-4.883-5.325-8.571-10.499-8.571H81.714C75.806,42.643,71,47.449,71,53.357
		v23.571h-4.286c-1.183,0-2.143,0.958-2.143,2.143v8.571c0,0.789,0.433,1.514,1.127,1.888l26.73,14.393v18.005
		c0,0.865,0.523,1.65,1.322,1.98c0.266,0.11,0.544,0.162,0.821,0.162c0.557,0,1.105-0.219,1.515-0.628l8.571-8.571
		c0.403-0.401,0.628-0.944,0.628-1.516v-9.433l26.731-14.393c0.693-0.375,1.126-1.099,1.126-1.888v-8.571
		c0-1.186-0.96-2.143-2.143-2.143h-4.285v-8.572h23.571c5.908,0,10.714-4.806,10.714-10.714v-4.286
		C161,52.172,160.04,51.214,158.857,51.214z M128.856,86.362l-26.73,14.392c-0.692,0.375-1.126,1.101-1.126,1.89v9.826l-4.286,4.285
		v-14.111c0-0.789-0.433-1.515-1.127-1.89l-26.73-14.392v-5.147h4.286h51.428h4.285V86.362z M75.286,76.929V53.357
		c0-3.544,2.884-6.429,6.428-6.429h42.862c-0.063,0.082-0.107,0.178-0.167,0.262c-0.127,0.178-0.236,0.364-0.351,0.55
		c-0.224,0.36-0.428,0.731-0.608,1.119c-0.096,0.21-0.189,0.418-0.273,0.634c-0.16,0.414-0.288,0.84-0.396,1.275
		c-0.05,0.201-0.114,0.396-0.152,0.602c-0.121,0.645-0.199,1.305-0.199,1.986v12.857v10.714H75.286z M126.715,64.071V53.357
		c0-3.544,2.884-6.429,6.428-6.429s6.429,2.884,6.429,6.429v4.286c0,0.681,0.079,1.341,0.2,1.986
		c0.039,0.207,0.103,0.401,0.153,0.603c0.109,0.435,0.236,0.861,0.396,1.274c0.083,0.217,0.176,0.424,0.274,0.635
		c0.179,0.388,0.384,0.758,0.607,1.119c0.117,0.186,0.227,0.373,0.351,0.55c0.061,0.083,0.105,0.18,0.167,0.261H126.715z
		 M156.714,57.643c0,3.544-2.885,6.428-6.428,6.428c-3.545,0-6.43-2.884-6.43-6.428V55.5h12.857V57.643z"/>
	<path fill="#32C5D2" d="M152.428,132.643c-2.924,0-5.507,1.477-7.054,3.721l-10.167-5.083c0.023-0.262,0.079-0.515,0.079-0.78
		c0-4.729-3.845-8.571-8.571-8.571c-4.729,0-8.572,3.843-8.572,8.571c0,1.003,0.206,1.95,0.522,2.846l-10.906,9.088
		c-1.569-2.03-4.002-3.362-6.759-3.362c-2.209,0-4.207,0.863-5.728,2.239l-11.495-5.746c0.024-0.26,0.079-0.513,0.079-0.778
		c0-4.729-3.844-8.571-8.571-8.571c-4.728,0-8.572,3.843-8.572,8.571c0,0.318,0.06,0.623,0.094,0.932l-11.552,7.701
		c-1.515-1.354-3.495-2.204-5.685-2.204c-4.727,0-8.571,3.843-8.571,8.571c0,4.727,3.844,8.571,8.571,8.571
		c4.728,0,8.572-3.845,8.572-8.571c0-0.986-0.202-1.919-0.507-2.801l10.748-7.165c1.561,2.133,4.063,3.536,6.903,3.536
		c2.925,0,5.507-1.477,7.054-3.719l10.573,5.286c-0.292,0.858-0.484,1.763-0.484,2.719c0,4.729,3.844,8.571,8.571,8.571
		c4.728,0,8.571-3.843,8.571-8.571c0-0.359-0.063-0.702-0.107-1.049l11.618-9.682c1.512,1.326,3.468,2.159,5.633,2.159
		c2.924,0,5.507-1.477,7.054-3.72l10.167,5.082c-0.023,0.261-0.079,0.515-0.079,0.781c0,4.727,3.845,8.571,8.571,8.571
		c4.729,0,8.572-3.845,8.572-8.571C161,136.486,157.156,132.643,152.428,132.643z M49.571,154.071c-2.363,0-4.286-1.922-4.286-4.285
		c0-2.364,1.923-4.286,4.286-4.286c2.364,0,4.286,1.922,4.286,4.286C53.857,152.149,51.935,154.071,49.571,154.071z M75.286,139.071
		c-2.364,0-4.286-1.922-4.286-4.285c0-2.364,1.922-4.286,4.286-4.286c2.363,0,4.286,1.922,4.286,4.286
		C79.572,137.149,77.649,139.071,75.286,139.071z M101,151.928c-2.364,0-4.286-1.922-4.286-4.285s1.922-4.286,4.286-4.286
		c2.363,0,4.285,1.923,4.285,4.286S103.363,151.928,101,151.928z M126.715,134.786c-2.365,0-4.286-1.923-4.286-4.286
		s1.921-4.285,4.286-4.285c2.363,0,4.285,1.922,4.285,4.285S129.078,134.786,126.715,134.786z M152.428,145.5
		c-2.363,0-4.285-1.922-4.285-4.285c0-2.365,1.922-4.287,4.285-4.287c2.365,0,4.286,1.922,4.286,4.287
		C156.714,143.578,154.793,145.5,152.428,145.5z"/>
	<rect x="81.714" y="68.357" fill="#999999" width="8.571" height="4.286"/>
	<rect x="94.572" y="68.357" fill="#999999" width="8.572" height="4.286"/>
	<rect x="107.429" y="68.357" fill="#999999" width="8.571" height="4.286"/>
	<rect x="81.714" y="59.786" fill="#999999" width="8.571" height="4.285"/>
	<rect x="94.572" y="59.786" fill="#999999" width="8.572" height="4.285"/>
	<rect x="107.429" y="59.786" fill="#999999" width="8.571" height="4.285"/>
	<rect x="81.714" y="51.214" fill="#999999" width="8.571" height="4.286"/>
	<rect x="94.572" y="51.214" fill="#999999" width="8.572" height="4.286"/>
	<rect x="107.429" y="51.214" fill="#999999" width="8.571" height="4.286"/>
	<rect x="113.856" y="106.929" fill="#999999" width="4.286" height="4.286"/>
	<rect x="122.429" y="106.929" fill="#999999" width="4.286" height="4.286"/>
	<rect x="131" y="106.929" fill="#999999" width="4.286" height="4.286"/>
	<rect x="62.429" y="106.929" fill="#999999" width="4.286" height="4.286"/>
	<rect x="71" y="106.929" fill="#999999" width="4.286" height="4.286"/>
	<rect x="79.572" y="106.929" fill="#999999" width="4.285" height="4.286"/>
</g>
</svg>
