<?xml version="1.0" encoding="utf-8"?>
<!-- Generator: Adobe Illustrator 15.0.0, SVG Export Plug-In . SVG Version: 6.00 Build 0)  -->
<!DOCTYPE svg PUBLIC "-//W3C//DTD SVG 1.1//EN" "http://www.w3.org/Graphics/SVG/1.1/DTD/svg11.dtd">
<svg version="1.1" id="Layer_1" xmlns="http://www.w3.org/2000/svg" xmlns:xlink="http://www.w3.org/1999/xlink" x="0px" y="0px"
	 width="200px" height="200px" viewBox="0 0 200 200" enable-background="new 0 0 200 200" xml:space="preserve">
<g>
	<path fill="#32C5D2" d="M98.149,99.466c-1.776,0.111-3.49-0.669-4.57-2.08l-6.662-8.884l-0.987,22.307H51.18l-8.557-12.88
		c-0.839-1.312-0.947-2.963-0.287-4.372l3.702-7.898l3.374-7.195c1.271-2.714,3.176-5.084,5.558-6.907
		c2.628-1.981,5.407-3.757,8.31-5.311L67.8,87.96l2.25-14.432l-1.529-2.376l2.27-2.863l-5.921-3.8v-2.387
		c-0.564-0.955-0.949-2.005-1.136-3.101c-0.435,0-0.987-0.64-1.619-2.813c-0.838-2.96,0.05-3.415,0.81-3.335
		c-0.142-0.398-0.251-0.807-0.327-1.224l0,0c-0.302-1.299-0.302-2.648,0-3.948c0.379-1.509,1.165-2.884,2.271-3.977
		c0.627-0.669,1.338-1.255,2.112-1.747c0.632-0.448,1.322-0.803,2.053-1.057l0,0c0.602-0.204,1.23-0.323,1.864-0.354
		c1.628-0.179,3.271,0.167,4.688,0.987c0.938,0.487,1.726,1.222,2.28,2.122c0,0,3.789,0.267,2.507,7.965
		c-0.075,0.417-0.183,0.825-0.326,1.223c0.76-0.069,1.648,0.365,0.81,3.336c-0.613,2.172-1.184,2.783-1.619,2.814
		c-0.187,1.081-0.57,2.118-1.135,3.059v2.418l-5.922,3.8l2.25,2.863l-1.53,2.456l2.251,14.429l4.529-21.711
		c2.944,1.582,5.759,3.395,8.419,5.417c0.771,0.602,1.493,1.261,2.161,1.974l0,0c1.176,1.245,2.172,2.646,2.96,4.166l6.909,13.235
		l19.335,1.559c1.441,0.087,2.537,1.33,2.45,2.771c-0.082,1.317-1.133,2.367-2.45,2.449L98.149,99.466z M57.684,106.928
		l-1.007-19.412l-5.043,7.52c-0.301,0.49-0.301,1.109,0,1.599L57.684,106.928z"/>
	<g>
		<path fill="#32C5D2" d="M98.991,63.702l0.853-3.417l-2.731-2.22c-0.512-0.34-0.171-1.195,0.341-1.366l3.417-0.17l1.365-3.244
			c0.171-0.684,1.195-0.684,1.367,0l1.365,3.244l3.414,0.17c0.686,0,0.854,0.855,0.344,1.366l-2.733,2.22l0.854,3.417
			c0.172,0.682-0.514,1.195-1.023,0.853l-2.903-1.878l-2.904,1.878C99.502,64.897,98.821,64.384,98.991,63.702z"/>
		<path fill="#32C5D2" d="M116.146,63.702L117,60.285l-2.732-2.22c-0.513-0.34-0.172-1.195,0.342-1.366l3.416-0.17l1.365-3.244
			c0.172-0.684,1.194-0.684,1.366,0l1.367,3.244l3.415,0.17c0.684,0,0.855,0.855,0.342,1.366l-2.732,2.22l0.854,3.417
			c0.17,0.682-0.515,1.195-1.026,0.853l-2.901-1.878l-2.903,1.878C116.658,64.897,115.979,64.384,116.146,63.702z"/>
		<path fill="#32C5D2" d="M133.311,63.702l0.854-3.417l-2.73-2.22c-0.514-0.34-0.172-1.195,0.34-1.366l3.416-0.17l1.367-3.244
			c0.17-0.684,1.195-0.684,1.366,0l1.366,3.244l3.414,0.17c0.686,0,0.855,0.855,0.343,1.366l-2.733,2.22l0.854,3.417
			c0.171,0.682-0.513,1.195-1.022,0.853l-2.904-1.878l-2.905,1.878C133.82,64.897,133.141,64.384,133.311,63.702z"/>
		<path fill="#32C5D2" d="M107.424,78.13l0.854-3.417l-2.73-2.221c-0.513-0.339-0.171-1.194,0.34-1.365l3.418-0.171l1.365-3.244
			c0.171-0.684,1.196-0.684,1.367,0l1.365,3.244l3.414,0.171c0.686,0,0.855,0.854,0.344,1.365l-2.733,2.221l0.855,3.417
			c0.17,0.682-0.515,1.195-1.024,0.853l-2.904-1.878l-2.903,1.878C107.936,79.325,107.254,78.812,107.424,78.13z"/>
		<path fill="#32C5D2" d="M124.828,78.13l0.854-3.417l-2.73-2.221c-0.514-0.339-0.172-1.194,0.341-1.365l3.416-0.171l1.366-3.244
			c0.171-0.684,1.195-0.684,1.367,0l1.365,3.244l3.414,0.171c0.686,0,0.855,0.854,0.344,1.365l-2.733,2.221l0.854,3.417
			c0.17,0.682-0.514,1.195-1.023,0.853l-2.903-1.878l-2.905,1.878C125.34,79.325,124.658,78.812,124.828,78.13z"/>
	</g>
	<g>
		<g>
			<path fill="#999999" d="M82.268,90.565v43.828c0,5.99,12.861,9.129,25.565,9.129c12.703,0,25.565-3.139,25.565-9.129V90.565
				c0-5.994-12.862-9.131-25.565-9.131C95.129,81.435,82.268,84.572,82.268,90.565z M129.747,119.781
				c0,1.934-8.321,5.479-21.914,5.479s-21.914-3.546-21.914-5.479v-9.672c4.719,2.768,13.349,4.195,21.914,4.195
				c8.565,0,17.194-1.429,21.914-4.195V119.781z M129.747,105.174c0,1.934-8.321,5.479-21.914,5.479s-21.914-3.545-21.914-5.479
				v-9.671c4.719,2.766,13.349,4.194,21.914,4.194c8.565,0,17.194-1.428,21.914-4.194V105.174z M107.833,85.088
				c13.593,0,21.914,3.545,21.914,5.478s-8.321,5.477-21.914,5.477s-21.914-3.544-21.914-5.477S94.24,85.088,107.833,85.088z
				 M107.833,140.288c-13.593,0-21.914-3.546-21.914-5.479v-9.672c4.719,2.766,13.349,4.193,21.914,4.193
				c8.565,0,17.194-1.43,21.914-4.193v9.672C129.747,136.742,121.426,140.288,107.833,140.288z"/>
			<path fill="#FFFFFF" d="M107.833,140.288c-13.593,0-21.914-3.546-21.914-5.479v-9.672c4.719,2.766,13.349,4.193,21.914,4.193
				c8.565,0,17.194-1.428,21.914-4.193v9.672C129.747,136.742,121.426,140.288,107.833,140.288z"/>
			<path fill="#FFFFFF" d="M107.832,125.137c-13.593,0-21.914-3.547-21.914-5.478v-9.673c4.72,2.766,13.35,4.193,21.914,4.193
				c8.566,0,17.195-1.429,21.915-4.193v9.673C129.747,121.59,121.426,125.137,107.832,125.137z"/>
			<path fill="#FFFFFF" d="M107.832,110.648c-13.593,0-21.914-3.547-21.914-5.477V95.5c4.72,2.764,13.35,4.192,21.914,4.192
				c8.566,0,17.195-1.428,21.915-4.192v9.672C129.747,107.104,121.426,110.648,107.832,110.648z"/>
			<path fill="#FFFFFF" d="M107.833,85.054c13.593,0,21.914,3.546,21.914,5.478c0,1.933-8.321,5.478-21.914,5.478
				s-21.914-3.545-21.914-5.478C85.919,88.6,94.24,85.054,107.833,85.054z"/>
		</g>
		<g>
			<path fill="#999999" d="M50.347,107.544v43.824c0,5.993,12.861,9.132,25.565,9.132s25.566-3.139,25.566-9.132v-43.824
				c0-5.995-12.862-9.131-25.566-9.131S50.347,101.549,50.347,107.544z M97.826,136.761c0,1.933-8.32,5.479-21.914,5.479
				c-13.593,0-21.913-3.546-21.913-5.479v-9.673c4.719,2.768,13.35,4.195,21.913,4.195c8.564,0,17.196-1.43,21.914-4.195V136.761z
				 M97.826,122.152c0,1.933-8.32,5.479-21.914,5.479c-13.593,0-21.913-3.546-21.913-5.479v-9.672
				c4.719,2.766,13.35,4.192,21.913,4.192c8.564,0,17.196-1.427,21.914-4.192V122.152z M75.913,102.066
				c13.593,0,21.914,3.545,21.914,5.478s-8.32,5.478-21.914,5.478c-13.593,0-21.913-3.545-21.913-5.478
				S62.32,102.066,75.913,102.066z M75.913,157.266c-13.593,0-21.913-3.547-21.913-5.479v-9.672
				c4.719,2.767,13.35,4.191,21.913,4.191c8.565,0,17.196-1.426,21.914-4.191v9.672C97.826,153.719,89.506,157.266,75.913,157.266z"
				/>
			<path fill="#FFFFFF" d="M75.913,157.264c-13.593,0-21.913-3.546-21.913-5.478v-9.672c4.719,2.765,13.35,4.192,21.913,4.192
				c8.565,0,17.196-1.429,21.914-4.192v9.672C97.826,153.718,89.506,157.264,75.913,157.264z"/>
			<path fill="#FFFFFF" d="M75.913,142.114c-13.593,0-21.913-3.546-21.913-5.479v-9.67c4.719,2.764,13.35,4.189,21.913,4.189
				c8.565,0,17.196-1.426,21.914-4.189v9.67C97.826,138.568,89.506,142.114,75.913,142.114z"/>
			<path fill="#FFFFFF" d="M75.913,127.628c-13.593,0-21.913-3.547-21.913-5.479v-9.672c4.719,2.766,13.35,4.192,21.913,4.192
				c8.565,0,17.196-1.428,21.914-4.192v9.672C97.826,124.081,89.506,127.628,75.913,127.628z"/>
			<path fill="#FFFFFF" d="M75.913,102.032c13.593,0,21.914,3.545,21.914,5.479c0,1.933-8.32,5.479-21.914,5.479
				c-13.593,0-21.913-3.546-21.913-5.479C54,105.577,62.32,102.032,75.913,102.032z"/>
		</g>
		<g>
			<path fill="#999999" d="M105.962,107.543v43.826c0,5.992,12.86,9.131,25.565,9.131c12.701,0,25.564-3.139,25.564-9.131v-43.826
				c0-5.993-12.863-9.131-25.564-9.131C118.822,98.412,105.962,101.55,105.962,107.543z M153.439,136.76
				c0,1.934-8.318,5.479-21.912,5.479s-21.914-3.546-21.914-5.479v-9.672c4.719,2.766,13.349,4.194,21.914,4.194
				c8.563,0,17.195-1.429,21.912-4.194V136.76z M153.439,122.15c0,1.934-8.318,5.479-21.912,5.479s-21.914-3.547-21.914-5.479
				v-9.672c4.719,2.768,13.349,4.194,21.914,4.194c8.563,0,17.195-1.428,21.912-4.194V122.15z M131.527,102.066
				c13.594,0,21.912,3.543,21.912,5.477s-8.318,5.479-21.912,5.479s-21.914-3.545-21.914-5.479S117.936,102.066,131.527,102.066z
				 M131.527,157.266c-13.594,0-21.914-3.547-21.914-5.479v-9.671c4.719,2.765,13.349,4.192,21.914,4.192
				c8.564,0,17.195-1.429,21.912-4.192v9.671C153.439,153.719,145.121,157.266,131.527,157.266z"/>
			<path fill="#FFFFFF" d="M131.527,157.266c-13.594,0-21.914-3.547-21.914-5.479v-9.673c4.719,2.768,13.349,4.192,21.914,4.192
				c8.564,0,17.195-1.426,21.912-4.192v9.673C153.439,153.719,145.121,157.266,131.527,157.266z"/>
			<path fill="#FFFFFF" d="M131.525,142.113c-13.594,0-21.914-3.547-21.914-5.477v-9.672c4.721,2.764,13.351,4.191,21.914,4.191
				c8.566,0,17.197-1.428,21.914-4.191v9.672C153.439,138.566,145.121,142.113,131.525,142.113z"/>
			<path fill="#FFFFFF" d="M131.525,127.627c-13.594,0-21.914-3.546-21.914-5.479v-9.672c4.721,2.765,13.351,4.192,21.914,4.192
				c8.566,0,17.197-1.429,21.914-4.192v9.672C153.439,124.081,145.121,127.627,131.525,127.627z"/>
			<path fill="#FFFFFF" d="M131.527,102.032c13.594,0,21.912,3.545,21.912,5.479c0,1.933-8.318,5.478-21.912,5.478
				s-21.914-3.545-21.914-5.478C109.613,105.577,117.936,102.032,131.527,102.032z"/>
		</g>
	</g>
</g>
</svg>
