<svg width="200" height="200" viewBox="0 0 200 200" fill="none" xmlns="http://www.w3.org/2000/svg">
<path d="M140.202 91.6624V71.5144C140.202 67.8234 137.2 64.8214 133.509 64.8214H38.2671C34.5781 64.8214 31.5781 67.8234 31.5781 71.5144V92.3474C31.5781 96.0384 34.5781 99.0404 38.2671 99.0404H113.433C112.025 100.221 110.728 101.525 109.529 102.918C109.441 102.909 109.358 102.892 109.267 102.892H38.2671C34.5781 102.892 31.5781 105.894 31.5781 109.585V130.419C31.5781 134.11 34.5781 137.112 38.2671 137.112H83.4901V157.77C80.5801 158.601 78.2861 160.895 77.4571 163.807H53.7811C52.4571 163.807 51.3821 164.882 51.3821 166.207C51.3821 167.531 52.4571 168.607 53.7811 168.607H77.4551C78.5021 172.281 81.8841 174.98 85.8891 174.98C89.8971 174.98 93.2781 172.28 94.3241 168.607H117.996C119.322 168.607 120.396 167.531 120.396 166.207C120.396 164.882 119.322 163.807 117.996 163.807H94.3261C93.4961 160.895 91.2031 158.599 88.2911 157.77V137.11H103.837C108.781 149.451 120.84 158.203 134.926 158.203C153.397 158.203 168.424 143.175 168.424 124.702C168.421 108.033 156.167 94.2064 140.202 91.6624ZM38.2671 94.2414C37.2251 94.2414 36.3771 93.3934 36.3771 92.3484V71.5144C36.3771 70.4714 37.2241 69.6214 38.2671 69.6214H133.509C134.553 69.6214 135.403 70.4694 135.403 71.5144V91.2264C135.242 91.2244 135.086 91.2024 134.924 91.2024C129.78 91.2024 124.924 92.4024 120.564 94.4824C120.251 94.3324 119.904 94.2404 119.531 94.2404H38.2671V94.2414ZM89.8681 166.209C89.8681 168.4 88.0841 170.184 85.8891 170.184C83.6981 170.184 81.9131 168.401 81.9131 166.209C81.9131 164.016 83.6971 162.23 85.8891 162.23C88.0841 162.23 89.8681 164.016 89.8681 166.209ZM101.427 124.705C101.427 127.326 101.759 129.865 102.33 132.312H38.2671C37.2251 132.312 36.3771 131.464 36.3771 130.419V109.585C36.3771 108.542 37.2241 107.69 38.2671 107.69H106.117C103.157 112.688 101.427 118.49 101.427 124.705ZM134.924 153.404C119.099 153.404 106.225 140.529 106.225 124.703C106.225 108.877 119.1 96.0044 134.924 96.0044C150.748 96.0044 163.622 108.879 163.622 124.705C163.622 140.53 150.748 153.404 134.924 153.404ZM46.8661 45.8954C48.9401 45.8954 50.6281 44.2074 50.6281 42.1324C50.6281 40.0574 48.9401 38.3694 46.8661 38.3694C44.7931 38.3694 43.1041 40.0574 43.1041 42.1324C43.1041 44.2074 44.7931 45.8954 46.8661 45.8954ZM46.8661 41.0954C47.4391 41.0954 47.9051 41.5604 47.9051 42.1324C47.9051 42.7044 47.4391 43.1694 46.8661 43.1694C46.2941 43.1694 45.8281 42.7034 45.8281 42.1324C45.8281 41.5614 46.2941 41.0954 46.8661 41.0954ZM73.4701 45.8954C75.5431 45.8954 77.2321 44.2074 77.2321 42.1324C77.2321 40.0574 75.5441 38.3694 73.4701 38.3694C71.3961 38.3694 69.7081 40.0574 69.7081 42.1324C69.7081 44.2074 71.3961 45.8954 73.4701 45.8954ZM73.4701 41.0954C74.0421 41.0954 74.5081 41.5604 74.5081 42.1324C74.5081 42.7044 74.0421 43.1694 73.4701 43.1694C72.8971 43.1694 72.4321 42.7034 72.4321 42.1324C72.4321 41.5614 72.8961 41.0954 73.4701 41.0954ZM60.1671 45.8954C62.2421 45.8954 63.9311 44.2074 63.9311 42.1324C63.9311 40.0574 62.2431 38.3694 60.1671 38.3694C58.0911 38.3694 56.4041 40.0574 56.4041 42.1324C56.4041 44.2074 58.0941 45.8954 60.1671 45.8954ZM60.1671 41.0954C60.7381 41.0954 61.2041 41.5604 61.2041 42.1324C61.2041 42.7044 60.7381 43.1694 60.1671 43.1694C59.5961 43.1694 59.1311 42.7034 59.1311 42.1324C59.1311 41.5614 59.5961 41.0954 60.1671 41.0954ZM60.1671 78.1704C58.0921 78.1704 56.4041 79.8584 56.4041 81.9324C56.4041 84.0074 58.0921 85.6954 60.1671 85.6954C62.2421 85.6954 63.9311 84.0074 63.9311 81.9324C63.9311 79.8584 62.2421 78.1704 60.1671 78.1704ZM60.1671 82.9704C59.5961 82.9704 59.1311 82.5054 59.1311 81.9324C59.1311 81.3614 59.5961 80.8954 60.1671 80.8954C60.7381 80.8954 61.2041 81.3614 61.2041 81.9324C61.2061 82.5054 60.7401 82.9704 60.1671 82.9704ZM60.1671 123.766C62.2421 123.766 63.9311 122.078 63.9311 120.002C63.9311 117.929 62.2431 116.24 60.1671 116.24C58.0911 116.24 56.4041 117.928 56.4041 120.002C56.4051 122.078 58.0941 123.766 60.1671 123.766ZM60.1671 118.965C60.7381 118.965 61.2041 119.432 61.2041 120.002C61.2041 120.575 60.7381 121.041 60.1671 121.041C59.5961 121.041 59.1311 120.575 59.1311 120.002C59.1311 119.432 59.5961 118.965 60.1671 118.965ZM46.8661 123.766C48.9401 123.766 50.6281 122.078 50.6281 120.002C50.6281 117.929 48.9401 116.24 46.8661 116.24C44.7931 116.24 43.1041 117.928 43.1041 120.002C43.1041 122.078 44.7931 123.766 46.8661 123.766ZM46.8661 118.965C47.4391 118.965 47.9051 119.432 47.9051 120.002C47.9051 120.575 47.4391 121.041 46.8661 121.041C46.2941 121.041 45.8281 120.575 45.8281 120.002C45.8281 119.432 46.2941 118.965 46.8661 118.965ZM73.4701 123.766C75.5431 123.766 77.2321 122.078 77.2321 120.002C77.2321 117.929 75.5441 116.24 73.4701 116.24C71.3961 116.24 69.7081 117.928 69.7081 120.002C69.7081 122.078 71.3961 123.766 73.4701 123.766ZM73.4701 118.965C74.0421 118.965 74.5081 119.432 74.5081 120.002C74.5081 120.575 74.0421 121.041 73.4701 121.041C72.8971 121.041 72.4321 120.575 72.4321 120.002C72.4321 119.432 72.8961 118.965 73.4701 118.965ZM73.4701 78.1704C71.3971 78.1704 69.7081 79.8584 69.7081 81.9324C69.7081 84.0074 71.3961 85.6954 73.4701 85.6954C75.5441 85.6954 77.2321 84.0074 77.2321 81.9324C77.2311 79.8584 75.5431 78.1704 73.4701 78.1704ZM73.4701 82.9704C72.8971 82.9704 72.4321 82.5054 72.4321 81.9324C72.4321 81.3614 72.8971 80.8954 73.4701 80.8954C74.0421 80.8954 74.5081 81.3614 74.5081 81.9324C74.5081 82.5054 74.0421 82.9704 73.4701 82.9704ZM46.8661 78.1704C44.7931 78.1704 43.1041 79.8584 43.1041 81.9324C43.1041 84.0074 44.7921 85.6954 46.8661 85.6954C48.9401 85.6954 50.6281 84.0074 50.6281 81.9324C50.6281 79.8584 48.9401 78.1704 46.8661 78.1704ZM46.8661 82.9704C46.2941 82.9704 45.8281 82.5054 45.8281 81.9324C45.8281 81.3614 46.2941 80.8954 46.8661 80.8954C47.4391 80.8954 47.9051 81.3614 47.9051 81.9324C47.9051 82.5054 47.4391 82.9704 46.8661 82.9704ZM38.2671 59.2414H133.509C137.2 59.2414 140.202 56.2404 140.202 52.5484V31.7144C140.202 28.0254 137.2 25.0234 133.509 25.0234H38.2671C34.5781 25.0234 31.5781 28.0254 31.5781 31.7144V52.5474C31.5771 56.2394 34.5771 59.2414 38.2671 59.2414ZM36.3771 31.7144C36.3771 30.6724 37.2241 29.8234 38.2671 29.8234H133.509C134.553 29.8234 135.403 30.6714 135.403 31.7144V52.5474C135.403 53.5904 134.554 54.4404 133.509 54.4404H38.2671C37.2251 54.4404 36.3771 53.5924 36.3771 52.5474V31.7144Z" fill="#7F56D9"/>
<path d="M148.25 114.303C147.421 114.303 146.75 113.631 146.75 112.803C146.75 112.091 143.009 109.75 134.75 109.75C126.491 109.75 122.75 112.091 122.75 112.803C122.75 113.631 122.078 114.303 121.25 114.303C120.422 114.303 119.75 113.631 119.75 112.803C119.75 108.645 127.525 106.75 134.75 106.75C141.973 106.75 149.75 108.645 149.75 112.803C149.75 113.631 149.079 114.303 148.25 114.303ZM134.75 142.75C127.525 142.75 119.75 140.855 119.75 136.699C119.75 135.869 120.422 135.199 121.25 135.199C122.078 135.199 122.75 135.869 122.75 136.699C122.75 137.409 126.491 139.75 134.75 139.75C143.009 139.75 146.75 137.409 146.75 136.699C146.75 135.869 147.421 135.199 148.25 135.199C149.079 135.199 149.75 135.869 149.75 136.699C149.75 140.855 141.973 142.75 134.75 142.75ZM134.75 134.784C127.525 134.784 119.75 132.888 119.75 128.732C119.75 127.902 120.422 127.231 121.25 127.231C122.078 127.231 122.75 127.902 122.75 128.732C122.75 129.443 126.491 131.784 134.75 131.784C143.009 131.784 146.75 129.441 146.75 128.732C146.75 127.902 147.421 127.231 148.25 127.231C149.079 127.231 149.75 127.902 149.75 128.732C149.75 132.891 141.973 134.784 134.75 134.784ZM134.75 126.82C127.525 126.82 119.75 124.925 119.75 120.767C119.75 119.939 120.422 119.267 121.25 119.267C122.078 119.267 122.75 119.939 122.75 120.767C122.75 121.477 126.491 123.82 134.75 123.82C143.009 123.82 146.75 121.477 146.75 120.767C146.75 119.939 147.421 119.267 148.25 119.267C149.079 119.267 149.75 119.939 149.75 120.767C149.75 124.926 141.973 126.82 134.75 126.82ZM134.75 118.853C127.525 118.853 119.75 116.96 119.75 112.803C119.75 111.974 120.422 111.303 121.25 111.303C122.078 111.303 122.75 111.974 122.75 112.803C122.75 113.514 126.491 115.853 134.75 115.853C143.009 115.853 146.75 113.512 146.75 112.803C146.75 111.974 147.421 111.303 148.25 111.303C149.079 111.303 149.75 111.974 149.75 112.803C149.75 116.96 141.973 118.853 134.75 118.853ZM148.25 138.199C147.421 138.199 146.75 137.529 146.75 136.699V112.803C146.75 111.974 147.421 111.303 148.25 111.303C149.079 111.303 149.75 111.974 149.75 112.803V136.699C149.75 137.529 149.079 138.199 148.25 138.199ZM121.25 138.199C120.422 138.199 119.75 137.529 119.75 136.699V112.803C119.75 111.974 120.422 111.303 121.25 111.303C122.078 111.303 122.75 111.974 122.75 112.803V136.699C122.75 137.529 122.078 138.199 121.25 138.199Z" fill="#7F56D9"/>
<path d="M124.625 120.742C125.246 120.742 125.75 120.239 125.75 119.617C125.75 118.996 125.246 118.492 124.625 118.492C124.004 118.492 123.5 118.996 123.5 119.617C123.5 120.239 124.004 120.742 124.625 120.742Z" fill="#7F56D9"/>
<path d="M124.625 128.711C125.246 128.711 125.75 128.207 125.75 127.586C125.75 126.965 125.246 126.461 124.625 126.461C124.004 126.461 123.5 126.965 123.5 127.586C123.5 128.207 124.004 128.711 124.625 128.711Z" fill="#7F56D9"/>
<path d="M124.625 136.672C125.246 136.672 125.75 136.168 125.75 135.547C125.75 134.926 125.246 134.422 124.625 134.422C124.004 134.422 123.5 134.926 123.5 135.547C123.5 136.168 124.004 136.672 124.625 136.672Z" fill="#7F56D9"/>
</svg>
