<?xml version="1.0" encoding="utf-8"?>
<!-- Generator: Adobe Illustrator 23.0.0, SVG Export Plug-In . SVG Version: 6.00 Build 0)  -->
<svg version="1.1" id="Layer_1" xmlns="http://www.w3.org/2000/svg" xmlns:xlink="http://www.w3.org/1999/xlink" x="0px" y="0px"
	 viewBox="0 0 200 200" style="enable-background:new 0 0 200 200;" xml:space="preserve">
<style type="text/css">
	.st0{fill-rule:evenodd;clip-rule:evenodd;fill:#999999;}
	.st1{fill:#3DCFCF;}
	.st2{fill:#999999;}
</style>
<g>
	<g>
		<path class="st0" d="M82.5,111.3H34.7c-2.7,0-4.9-2.2-4.9-4.9v-63c0-2.7,2.2-4.9,4.9-4.9c11.5,0,23.1,0,34.6,0
			c1.4,0,2.2,0.3,3.2,1.3c4.4,4.2,8.9,8.4,13.3,12.6c1,0.9,1.5,1.8,1.5,3.4v50.6C87.4,109.1,85.2,111.3,82.5,111.3L82.5,111.3z
			 M83.5,57.7H72.2c-2.7,0-4.9-2.2-4.9-4.9V42.4H34.7c-0.5,0-1,0.4-1,1v63c0,0.5,0.4,1,1,1h47.8c0.5,0,1-0.4,1-1V57.7L83.5,57.7z
			 M42.1,54.2c-2.3,0-2.3,3.5,0,3.5h16.7c2.3,0,2.3-3.5,0-3.5H42.1L42.1,54.2z M42.1,95.7c-2.3,0-2.3,3.5,0,3.5h33
			c2.3,0,2.3-3.5,0-3.5H42.1L42.1,95.7z M42.1,85.3c-2.3,0-2.3,3.5,0,3.5h33c2.3,0,2.3-3.5,0-3.5H42.1L42.1,85.3z M42.1,74.8
			c-2.3,0-2.3,3.5,0,3.5h33c2.3,0,2.3-3.5,0-3.5H42.1L42.1,74.8z M42.1,64.4c-2.3,0-2.3,3.5,0,3.5h33c2.3,0,2.3-3.5,0-3.5H42.1z"/>
	</g>
	<path class="st1" d="M85.8,125.2c-0.3,0.1-0.5,0.4-0.5,0.8v5.3c-8.4-0.8-15.5-6.2-18.5-13.7c-0.1-0.3-0.4-0.5-0.8-0.5
		c0,0-0.1,0-0.1,0c-0.4,0.1-0.7,0.4-0.7,0.8c0,0.2,0,0.4,0,0.6c0,11.6,8.9,21.1,20.2,22.2v5.8c0,0.3,0.2,0.7,0.5,0.8
		c0.1,0,0.2,0.1,0.3,0.1c0.2,0,0.4-0.1,0.6-0.2l10.2-10.2c0.3-0.3,0.3-0.9,0-1.2l-10.2-10.2c-0.2-0.2-0.4-0.2-0.6-0.2
		C86,125.1,85.9,125.1,85.8,125.2z"/>
	<g>
		<path class="st0" d="M165.3,161.5h-47.8c-2.7,0-4.9-2.2-4.9-4.9v-63c0-2.7,2.2-4.9,4.9-4.9c11.5,0,23.1,0,34.6,0
			c1.4,0,2.2,0.3,3.2,1.3c4.4,4.2,8.9,8.4,13.3,12.6c1,0.9,1.5,1.8,1.5,3.4v50.6C170.2,159.3,168,161.5,165.3,161.5L165.3,161.5z
			 M166.3,107.9H155c-2.7,0-4.9-2.2-4.9-4.9V92.6h-32.6c-0.5,0-1,0.4-1,1v63c0,0.5,0.4,1,1,1h47.8c0.5,0,1-0.4,1-1V107.9
			L166.3,107.9z M125,104.4c-2.3,0-2.3,3.5,0,3.5h16.7c2.3,0,2.3-3.5,0-3.5H125L125,104.4z M125,145.9c-2.3,0-2.3,3.5,0,3.5h33
			c2.3,0,2.3-3.5,0-3.5H125L125,145.9z M125,135.5c-2.3,0-2.3,3.5,0,3.5h33c2.3,0,2.3-3.5,0-3.5H125L125,135.5z M125,125.1
			c-2.3,0-2.3,3.5,0,3.5h33c2.3,0,2.3-3.5,0-3.5H125L125,125.1z M125,114.6c-2.3,0-2.3,3.5,0,3.5h33c2.3,0,2.3-3.5,0-3.5H125z"/>
	</g>
	<path class="st2" d="M107,147.2c-0.5,0-1-0.4-1-1v-63c0-0.5,0.4-1,1-1h32.6v4.5h12.5c0.1,0,0.1,0,0.2,0c-2.5-2.4-5-4.7-7.5-7.1
		c-1.1-1-1.8-1.2-3.2-1.3c-11.5,0-23.1,0-34.6,0c-2.7,0-4.9,2.2-4.9,4.9v63c0,2.7,2.2,4.9,4.9,4.9h3.7v-3.9H107z"/>
</g>
</svg>
