<?xml version="1.0" encoding="utf-8"?>
<!-- Generator: Adobe Illustrator 15.0.0, SVG Export Plug-In . SVG Version: 6.00 Build 0)  -->
<!DOCTYPE svg PUBLIC "-//W3C//DTD SVG 1.1//EN" "http://www.w3.org/Graphics/SVG/1.1/DTD/svg11.dtd">
<svg version="1.1" id="Layer_1" xmlns="http://www.w3.org/2000/svg" xmlns:xlink="http://www.w3.org/1999/xlink" x="0px" y="0px"
	 width="200px" height="200px" viewBox="0 0 200 200" enable-background="new 0 0 200 200" xml:space="preserve">
<path fill="#FFFFFF" d="M25,50.665v75.963c0,10.389,22.292,15.827,44.313,15.827c22.019,0,44.313-5.438,44.313-15.827V50.665
	c0-10.39-22.294-15.827-44.313-15.827C47.292,34.838,25,40.274,25,50.665z M107.296,101.307c0,3.35-14.422,9.494-37.983,9.494
	c-23.562,0-37.983-6.145-37.983-9.494V84.542c8.18,4.795,23.139,7.27,37.983,7.27c14.844,0,29.804-2.475,37.983-7.27V101.307z
	 M107.296,75.986c0,3.349-14.422,9.496-37.983,9.496c-23.562,0-37.983-6.146-37.983-9.496V59.221
	c8.18,4.793,23.139,7.269,37.983,7.269c14.844,0,29.804-2.474,37.983-7.269V75.986z M69.313,41.168
	c23.561,0,37.983,6.146,37.983,9.496c0,3.348-14.422,9.494-37.983,9.494c-23.562,0-37.983-6.146-37.983-9.494
	C31.33,47.315,45.751,41.168,69.313,41.168z M69.313,136.85c-23.562,0-37.983-6.148-37.983-9.497v-16.765
	c8.18,4.795,23.139,7.267,37.983,7.267c14.846,0,29.804-2.472,37.983-7.267v16.765C107.296,130.701,92.874,136.85,69.313,136.85z"/>
<g>
	<path fill="#FFFFFF" d="M86.375,88.173v75.964c0,10.387,22.292,15.824,44.313,15.824c22.018,0,44.313-5.438,44.313-15.824V88.173
		c0-10.39-22.295-15.827-44.313-15.827C108.666,72.346,86.375,77.783,86.375,88.173z M168.67,138.814
		c0,3.349-14.421,9.497-37.982,9.497s-37.983-6.148-37.983-9.497v-16.764c8.179,4.795,23.137,7.269,37.983,7.269
		c14.843,0,29.804-2.474,37.982-7.269V138.814z M168.67,113.494c0,3.35-14.421,9.496-37.982,9.496s-37.983-6.146-37.983-9.496V96.73
		c8.179,4.793,23.137,7.268,37.983,7.268c14.843,0,29.804-2.474,37.982-7.268V113.494z M130.688,78.677
		c23.562,0,37.982,6.146,37.982,9.496c0,3.348-14.421,9.494-37.982,9.494s-37.983-6.146-37.983-9.494
		C92.704,84.824,107.126,78.677,130.688,78.677z M130.688,174.356c-23.562,0-37.983-6.147-37.983-9.494v-16.765
		c8.179,4.792,23.137,7.268,37.983,7.268c14.846,0,29.804-2.476,37.982-7.268v16.765
		C168.67,168.209,154.249,174.356,130.688,174.356z"/>
</g>
<g>
	<path fill="#FFFFFF" d="M162.751,46.611l5.195-5.513l-5.204-5.506l0.963-7.514l-7.445-1.397l-3.639-6.643l-6.843,3.244
		l-6.849-3.236l-3.628,6.647l-7.444,1.407l0.972,7.514l-5.195,5.512l5.204,5.507l-0.967,7.514l7.446,1.396l3.638,6.644l6.845-3.246
		l6.848,3.237l3.629-6.648l7.446-1.406l-0.101-0.769L162.751,46.611z M145.79,55.641c-8.026,0-14.528-6.504-14.528-14.529
		s6.502-14.528,14.528-14.528c8.025,0,14.528,6.504,14.528,14.528S153.815,55.641,145.79,55.641z"/>
	<path fill="#FFFFFF" d="M145.79,29.325c-6.498,0-11.786,5.288-11.786,11.788c0,6.5,5.288,11.788,11.786,11.788
		c6.5,0,11.788-5.288,11.788-11.788C157.578,34.613,152.29,29.325,145.79,29.325z M145.557,46.574l-5.424-4.524l-1.054-0.878
		l1.756-2.104l4.345,3.622l6.17-7.583l2.126,1.728L145.557,46.574z"/>
</g>
</svg>
