<?xml version="1.0" encoding="utf-8"?>
<!-- Generator: Adobe Illustrator 23.0.3, SVG Export Plug-In . SVG Version: 6.00 Build 0)  -->
<svg version="1.1" id="Layer_1" xmlns="http://www.w3.org/2000/svg" xmlns:xlink="http://www.w3.org/1999/xlink" x="0px" y="0px"
	 viewBox="0 0 200 200" style="enable-background:new 0 0 200 200;" xml:space="preserve">
<style type="text/css">
	.st0{fill:#999999;}
	.st1{fill:#32C5D2;stroke:#32C5D2;stroke-miterlimit:10;}
	.st2{fill:#32C5D2;stroke:#32C5D2;stroke-width:1.5;stroke-miterlimit:10;}
	.st3{fill:none;stroke:#999999;stroke-width:3;stroke-linecap:round;stroke-miterlimit:10;}
	.st4{fill:none;stroke:#999999;stroke-width:3.5416;stroke-linecap:round;stroke-miterlimit:10;}
</style>
<g>
	<g>
		<path class="st0" d="M107.8,99.7c0-7.7-6.3-14-14-14c-7.7,0-14,6.3-14,14s6.3,14,14,14C101.5,113.7,107.8,107.4,107.8,99.7z
			 M93.8,111.8c-6.7,0-12-5.4-12-12c0-6.7,5.4-12,12-12c6.7,0,12,5.4,12,12C105.8,106.4,100.4,111.8,93.8,111.8z"/>
		<path class="st0" d="M94,120.7c0.7,0,2.1-0.1,2.8-0.1l2.9,4.5l7.5-3.2l-1.1-5.2c1.7-1.3,3.1-2.7,4.3-4.3l5.2,1.1l3.1-7.5l-4.5-2.8
			c0.3-2.1,0.3-4.1,0-6.1l4.5-2.9l-3.2-7.5l-5.2,1.1c-1.3-1.7-2.7-3.1-4.3-4.3l1.1-5.2L99.6,75l-2.8,4.5c-2-0.3-4.1-0.3-6.1,0
			L87.8,75l-7.7,2.9l1.1,5.2c-1.7,1.3-3.1,2.7-4.3,4.3l-5-1.1l-3.1,7.5l4.5,2.8c-0.3,2-0.3,4.1,0,6.1l-4.5,2.9l3.2,7.5l5.2-1.1
			c1.3,1.7,2.7,3.1,4.3,4.3l-1.1,5.2l7.5,3.1l2.8-4.5C90.7,120.3,90.8,120.6,94,120.7z M90.6,118.2l-0.7-0.1l-2.7,4.2l-4.3-1.8
			l1-4.9l-0.6-0.4c-1.8-1.3-3.5-2.8-4.7-4.7l-0.4-0.6l-4.9,1.1l-1.8-4.3l4.2-2.7l-0.1-0.7c-0.4-2.2-0.4-4.5,0-6.7l0.1-0.7l-4.2-2.7
			l1.8-4.3l4.9,1l0.4-0.6c1.3-1.8,2.9-3.5,4.7-4.7l0.6-0.4l-1.1-4.9l4.3-1.8l2.7,4.2l0.6-0.3c2.2-0.4,4.5-0.4,6.7,0l0.7,0.1l2.7-4.2
			l4.3,1.8l-1,4.9l0.6,0.4c2,1.3,3.5,2.9,4.7,4.7l0.4,0.6l4.9-1.1l1.8,4.3l-4.2,2.7l0.1,0.7c0.4,2.2,0.4,4.5,0,6.7l-0.1,0.7l4.2,2.7
			l-1.8,4.3l-4.9-1l-0.4,0.6c-1.3,1.8-2.8,3.5-4.7,4.7l-0.6,0.4l1.1,4.9l-4.3,1.8l-2.7-4.2l-0.6,0.3C95,118.6,92.8,118.6,90.6,118.2
			z"/>
	</g>
	<g>
		<path class="st1" d="M32.4,49.4c-5.6,0-10-2.2-10-5c0-2.8,4.4-5,10-5c5.6,0,10,2.2,10,5C42.4,47.2,38,49.4,32.4,49.4z M32.4,40.5
			c-5.3,0-8.9,2-8.9,3.9c0,1.9,3.6,3.9,8.9,3.9c5.3,0,8.9-2,8.9-3.9S37.7,40.5,32.4,40.5z"/>
		<circle class="st1" cx="25.2" cy="55.5" r="0.6"/>
		<circle class="st1" cx="25.2" cy="49.9" r="0.6"/>
		<circle class="st1" cx="25.2" cy="61.1" r="0.6"/>
		<path class="st1" d="M32.4,66.1c-5.6,0-10-2.2-10-5V44.4h1.1v16.7c0,1.9,3.6,3.9,8.9,3.9c5.3,0,8.9-2,8.9-3.9V44.5h1.1v16.6
			C42.4,63.9,38,66.1,32.4,66.1z"/>
		<path class="st1" d="M32.4,60.5c-5.6,0-10-2.2-10-5h1.1c0,1.9,3.6,3.9,8.9,3.9c5.3,0,8.9-2,8.9-3.9h1.1
			C42.4,58.3,38,60.5,32.4,60.5z"/>
		<path class="st1" d="M32.4,54.9c-5.6,0-10-2.2-10-5h1.1c0,1.9,3.6,3.9,8.9,3.9c5.3,0,8.9-2,8.9-3.9h1.1
			C42.4,52.7,38,54.9,32.4,54.9z"/>
	</g>
	<g>
		<path class="st1" d="M32.4,96.9c-5.6,0-10-2.2-10-5c0-2.8,4.4-5,10-5c5.6,0,10,2.2,10,5C42.4,94.7,38,96.9,32.4,96.9z M32.4,88.1
			c-5.3,0-8.9,2-8.9,3.9c0,1.9,3.6,3.9,8.9,3.9c5.3,0,8.9-2,8.9-3.9S37.7,88.1,32.4,88.1z"/>
		<circle class="st1" cx="25.2" cy="103.1" r="0.6"/>
		<circle class="st1" cx="25.2" cy="97.5" r="0.6"/>
		<circle class="st1" cx="25.2" cy="108.6" r="0.6"/>
		<path class="st1" d="M32.4,113.6c-5.6,0-10-2.2-10-5V91.9h1.1v16.7c0,1.9,3.6,3.9,8.9,3.9c5.3,0,8.9-2,8.9-3.9V92h1.1v16.6
			C42.4,111.4,38,113.6,32.4,113.6z"/>
		<path class="st1" d="M32.4,108.1c-5.6,0-10-2.2-10-5h1.1c0,1.9,3.6,3.9,8.9,3.9c5.3,0,8.9-2,8.9-3.9h1.1
			C42.4,105.9,38,108.1,32.4,108.1z"/>
		<path class="st1" d="M32.4,102.5c-5.6,0-10-2.2-10-5h1.1c0,1.9,3.6,3.9,8.9,3.9c5.3,0,8.9-2,8.9-3.9h1.1
			C42.4,100.3,38,102.5,32.4,102.5z"/>
	</g>
	<g>
		<path class="st2" d="M162.6,95.3c-8.4,0-15-3.3-15-7.5c0-4.2,6.6-7.5,15-7.5c8.4,0,15,3.3,15,7.5C177.6,92,171,95.3,162.6,95.3z
			 M162.6,81.9c-8,0-13.3,3-13.3,5.8c0,2.8,5.4,5.8,13.3,5.8c8,0,13.3-3,13.3-5.8C175.9,85,170.6,81.9,162.6,81.9z"/>
		<circle class="st2" cx="151.8" cy="104.4" r="0.8"/>
		<circle class="st2" cx="151.8" cy="96.1" r="0.8"/>
		<circle class="st2" cx="151.8" cy="112.8" r="0.8"/>
		<path class="st2" d="M162.6,120.3c-8.4,0-15-3.3-15-7.5v-25h1.7v25c0,2.8,5.4,5.8,13.3,5.8c8,0,13.3-3,13.3-5.8V87.9h1.7v24.9
			C177.6,117,171,120.3,162.6,120.3z"/>
		<path class="st2" d="M162.6,111.9c-8.4,0-15-3.3-15-7.5h1.7c0,2.8,5.4,5.8,13.3,5.8c8,0,13.3-3,13.3-5.8h1.7
			C177.6,108.6,171,111.9,162.6,111.9z"/>
		<path class="st2" d="M162.6,103.6c-8.4,0-15-3.3-15-7.5h1.7c0,2.8,5.4,5.8,13.3,5.8c8,0,13.3-3,13.3-5.8h1.7
			C177.6,100.3,171,103.6,162.6,103.6z"/>
	</g>
	<g>
		<path class="st1" d="M32.4,143.9c-5.6,0-10-2.2-10-5c0-2.8,4.4-5,10-5c5.6,0,10,2.2,10,5C42.4,141.7,38,143.9,32.4,143.9z
			 M32.4,135.1c-5.3,0-8.9,2-8.9,3.9c0,1.9,3.6,3.9,8.9,3.9c5.3,0,8.9-2,8.9-3.9C41.3,137.1,37.7,135.1,32.4,135.1z"/>
		<circle class="st1" cx="25.2" cy="150.1" r="0.6"/>
		<circle class="st1" cx="25.2" cy="144.5" r="0.6"/>
		<circle class="st1" cx="25.2" cy="155.6" r="0.6"/>
		<path class="st1" d="M32.4,160.6c-5.6,0-10-2.2-10-5v-16.7h1.1v16.7c0,1.9,3.6,3.9,8.9,3.9c5.3,0,8.9-2,8.9-3.9V139h1.1v16.6
			C42.4,158.4,38,160.6,32.4,160.6z"/>
		<path class="st1" d="M32.4,155.1c-5.6,0-10-2.2-10-5h1.1c0,1.9,3.6,3.9,8.9,3.9c5.3,0,8.9-2,8.9-3.9h1.1
			C42.4,152.9,38,155.1,32.4,155.1z"/>
		<path class="st1" d="M32.4,149.5c-5.6,0-10-2.2-10-5h1.1c0,1.9,3.6,3.9,8.9,3.9c5.3,0,8.9-2,8.9-3.9h1.1
			C42.4,147.3,38,149.5,32.4,149.5z"/>
	</g>
	<line class="st3" x1="45.7" y1="65.6" x2="64.6" y2="84.5"/>
	<line class="st3" x1="63.1" y1="114.7" x2="44.3" y2="133.5"/>
	<line class="st4" x1="52.5" y1="99.4" x2="60.5" y2="99.4"/>
	<line class="st4" x1="128.6" y1="99.4" x2="136.6" y2="99.4"/>
</g>
</svg>
