<?xml version="1.0" encoding="utf-8"?>
<!-- Generator: Adobe Illustrator 23.0.0, SVG Export Plug-In . SVG Version: 6.00 Build 0)  -->
<svg version="1.1" id="Layer_1" xmlns="http://www.w3.org/2000/svg" xmlns:xlink="http://www.w3.org/1999/xlink" x="0px" y="0px"
	 viewBox="0 0 200 200" style="enable-background:new 0 0 200 200;" xml:space="preserve">
<style type="text/css">
	.st0{fill:#999999;}
	.st1{fill:#FFFFFF;stroke:#999999;stroke-width:5;stroke-miterlimit:10;}
	.st2{fill:#3DCFCF;}
</style>
<g>
	<g>
		<path class="st0" d="M52.7,57.9v61.8c0,8.4,18.2,12.9,36.1,12.9s36.1-4.4,36.1-12.9V57.9c0-8.4-18.2-12.9-36.1-12.9
			S52.7,49.4,52.7,57.9z M119.7,99.1c0,2.7-11.8,7.8-30.9,7.8c-19.2,0-30.9-5-30.9-7.8V85.4c6.7,3.9,18.8,5.9,30.9,5.9
			c12.1,0,24.2-2,30.9-5.9C119.7,85.4,119.7,99.1,119.7,99.1z M119.7,78.4c0,2.7-11.8,7.8-30.9,7.8c-19.2,0-30.9-5-30.9-7.8V64.8
			c6.7,3.9,18.8,5.9,30.9,5.9c12.1,0,24.2-2,30.9-5.9C119.7,64.8,119.7,78.4,119.7,78.4z M88.7,50.1c19.2,0,30.9,5,30.9,7.8
			c0,2.7-11.8,7.8-30.9,7.8c-19.2,0-30.9-5-30.9-7.8C57.9,55.1,69.6,50.1,88.7,50.1z M88.7,128c-19.2,0-30.9-5-30.9-7.8v-13.6
			c6.7,3.9,18.8,5.9,30.9,5.9c12.1,0,24.2-2,30.9-5.9v13.6C119.7,123,107.9,128,88.7,128z"/>
	</g>
	<circle class="st1" cx="120.2" cy="128" r="27"/>
	<g>
		<path class="st2" d="M126,129.8h-11.5l-6.1,9.6c-0.3,0.3-0.2,0.8,0,0.9c0.1,0.2,0.3,0.5,0.8,0.5h22c0.4,0,0.7-0.3,0.8-0.5
			c0.1-0.2,0.3-0.5,0-0.9L126,129.8z"/>
		<path class="st2" d="M135.7,137.3l-9.3-14.8c-0.3-0.4-0.4-0.9-0.4-1.4v-7.8h1c0.7,0,1.2-0.5,1.2-1.2c0-0.7-0.5-1.2-1.2-1.2h-13.6
			c-0.7,0-1.2,0.5-1.2,1.2c0,0.7,0.5,1.2,1.2,1.2h1v7.8c0,0.5-0.2,1-0.4,1.4l-9.3,14.8c-1,1.6-1,3.6-0.2,5.3
			c0.9,1.7,2.6,2.7,4.5,2.7h22c2,0,3.7-1,4.5-2.7C136.7,140.8,136.7,138.9,135.7,137.3z M133.7,141.4c-0.5,0.9-1.4,1.4-2.4,1.4h-22
			c-1,0-2-0.5-2.4-1.4c-0.5-0.9-0.5-2,0.1-2.8l9.2-14.8c0.5-0.9,0.8-1.8,0.8-2.7v-7.8h6.7v7.8c0,1,0.3,2,0.8,2.7l9.2,14.8
			C134.1,139.4,134.2,140.5,133.7,141.4z"/>
	</g>
</g>
</svg>
