<?xml version="1.0" encoding="utf-8"?>
<!-- Generator: Adobe Illustrator 15.0.0, SVG Export Plug-In . SVG Version: 6.00 Build 0)  -->
<!DOCTYPE svg PUBLIC "-//W3C//DTD SVG 1.1//EN" "http://www.w3.org/Graphics/SVG/1.1/DTD/svg11.dtd">
<svg version="1.1" id="Layer_1" xmlns="http://www.w3.org/2000/svg" xmlns:xlink="http://www.w3.org/1999/xlink" x="0px" y="0px"
	 width="200px" height="200px" viewBox="0 0 200 200" enable-background="new 0 0 200 200" xml:space="preserve">
<g>
	<g>
		<g>
			<g>
				<g>
					<g>
						<path fill="#999999" d="M147.598,132.728l-37.063-64.179c-2.313-4.014-5.36-6.017-8.416-6.017s-6.103,2.002-8.419,6.017
							l-37.013,64.179c-4.679,8.027-0.883,14.595,8.419,14.595h74.027C148.434,147.322,152.23,140.755,147.598,132.728z
							 M97.297,94.885h9.651v22.458h-9.662V94.885H97.297z M102.127,131.9c-2.919,0-5.286-2.368-5.286-5.287
							c0-2.918,2.368-5.284,5.286-5.284c2.92,0,5.287,2.366,5.287,5.284l0,0c0.005,2.919-2.358,5.291-5.277,5.297
							c-0.006,0-0.014,0-0.02,0L102.127,131.9z"/>
					</g>
				</g>
			</g>
		</g>
	</g>
	<g>
		<path fill="#3DCFCF" d="M54.664,92.613c4.147,0,8.25-1.588,11.427-4.72c3.043-3.045,4.721-7.104,4.721-11.427
			c0-4.324-1.678-8.383-4.721-11.427c-6.309-6.309-16.545-6.309-22.811,0c-6.309,6.308-6.309,16.545,0,22.81
			C46.414,91.024,50.517,92.613,54.664,92.613z M45.134,66.936c5.25-5.25,13.81-5.25,19.061,0c2.558,2.558,3.97,5.955,3.97,9.53
			c0,3.573-1.412,6.97-3.97,9.53c-5.25,5.249-13.81,5.249-19.061,0C39.885,80.745,39.885,72.185,45.134,66.936z"/>
		<path fill="#3DCFCF" d="M53.341,79.554h7.058c0.75,0,1.325-0.573,1.325-1.325c0-0.751-0.574-1.324-1.325-1.324h-5.735v-7.5
			c0-0.75-0.573-1.325-1.324-1.325s-1.324,0.573-1.324,1.325v8.824C52.017,78.981,52.591,79.554,53.341,79.554z"/>
	</g>
	<g transform="translate(0,-952.36218)">
		<path fill="#3DCFCF" d="M137.73,1017.683c-1.833,0-3.342,1.509-3.342,3.341v15.595c0,1.833,1.51,3.342,3.342,3.342h27.478
			c1.833,0,3.341-1.509,3.341-3.342v-15.595c0-1.832-1.509-3.342-3.341-3.342L137.73,1017.683L137.73,1017.683z M137.73,1019.91
			h27.478c0.637,0,1.114,0.478,1.114,1.114v15.595c0,0.637-0.478,1.115-1.114,1.115H137.73c-0.637,0-1.114-0.478-1.114-1.115
			v-15.595C136.616,1020.388,137.094,1019.91,137.73,1019.91z M163.433,1022.08c-0.306-0.003-0.599,0.118-0.813,0.336l-10.279,9.039
			c-0.51,0.45-1.252,0.45-1.762,0l-10.258-9.039c-0.224-0.201-0.516-0.306-0.813-0.29c-0.616,0.034-1.086,0.559-1.052,1.173
			c0.018,0.305,0.157,0.59,0.39,0.789l5.479,4.827l-5.456,4.618c-0.473,0.396-0.535,1.1-0.14,1.571
			c0.395,0.474,1.098,0.537,1.57,0.14c0.002-0.001,0.006-0.003,0.01-0.006l5.708-4.839l3.087,2.728c1.336,1.18,3.372,1.177,4.71,0
			l3.1-2.728l5.719,4.839c0.471,0.399,1.173,0.343,1.575-0.127c0.398-0.47,0.341-1.173-0.129-1.573
			c-0.002-0.002-0.004-0.004-0.005-0.006l-5.457-4.629l5.466-4.816c0.495-0.368,0.596-1.065,0.229-1.559
			C164.104,1022.251,163.778,1022.084,163.433,1022.08z"/>
	</g>
</g>
</svg>
