<svg width="200" height="200" viewBox="0 0 200 200" fill="none" xmlns="http://www.w3.org/2000/svg">
<path d="M131.674 93.825V77.703C131.674 74.75 129.273 72.348 126.318 72.348H50.103C47.151 72.348 44.75 74.75 44.75 77.703V94.374C44.75 97.328 47.151 99.73 50.103 99.73H110.251C109.125 100.676 108.088 101.719 107.128 102.835C107.058 102.828 106.991 102.814 106.918 102.814H50.103C47.151 102.814 44.75 105.215 44.75 108.168V124.84C44.75 127.794 47.151 130.196 50.103 130.196H86.292V146.725C83.963 147.391 82.127 149.227 81.464 151.557H62.518C61.458 151.557 60.599 152.416 60.599 153.477C60.599 154.537 61.459 155.397 62.518 155.397H81.462C82.299 158.337 85.005 160.499 88.211 160.499C91.419 160.499 94.124 158.339 94.96 155.397H113.901C114.964 155.397 115.823 154.537 115.823 153.477C115.823 152.416 114.964 151.557 113.901 151.557H94.961C94.297 149.227 92.462 147.389 90.132 146.725V130.194H102.571C106.528 140.069 116.177 147.073 127.45 147.073C142.231 147.073 154.256 135.048 154.256 120.264C154.254 106.927 144.448 95.861 131.674 93.825ZM127.832 93.478C127.703 93.477 127.578 93.458 127.448 93.458C123.333 93.458 119.446 94.419 115.958 96.083C115.707 95.963 115.43 95.89 115.131 95.89H50.103C49.27 95.89 48.591 95.212 48.591 94.375V77.703C48.591 76.868 49.268 76.189 50.103 76.189H126.317C127.153 76.189 127.833 76.868 127.833 77.703M91.395 153.479C91.395 155.233 89.967 156.662 88.212 156.662C86.458 156.662 85.03 155.233 85.03 153.479C85.03 151.723 86.458 150.294 88.212 150.294C89.967 150.295 91.395 151.725 91.395 153.479ZM100.646 120.268C100.646 122.367 100.913 124.399 101.369 126.356H50.103C49.27 126.356 48.591 125.677 48.591 124.841V108.169C48.591 107.333 49.268 106.652 50.103 106.652H104.397C102.028 110.65 100.646 115.295 100.646 120.268ZM127.448 143.232C114.785 143.232 104.483 132.929 104.483 120.265C104.483 107.599 114.786 97.299 127.448 97.299C140.112 97.299 150.414 107.601 150.414 120.267C150.414 132.932 140.112 143.232 127.448 143.232ZM56.985 57.202C58.644 57.202 59.994 55.851 59.994 54.192C59.994 52.531 58.644 51.18 56.985 51.18C55.326 51.18 53.975 52.531 53.975 54.192C53.975 55.851 55.326 57.202 56.985 57.202ZM56.985 53.361C57.444 53.361 57.817 53.734 57.817 54.192C57.817 54.648 57.444 55.021 56.985 55.021C56.526 55.021 56.153 54.648 56.153 54.192C56.153 53.734 56.526 53.361 56.985 53.361ZM78.274 57.202C79.932 57.202 81.283 55.851 81.283 54.192C81.283 52.531 79.932 51.18 78.274 51.18C76.614 51.18 75.263 52.531 75.263 54.192C75.263 55.851 76.614 57.202 78.274 57.202ZM78.274 53.361C78.731 53.361 79.105 53.734 79.105 54.192C79.105 54.648 78.731 55.021 78.274 55.021C77.814 55.021 77.443 54.648 77.443 54.192C77.443 53.734 77.814 53.361 78.274 53.361ZM67.628 57.202C69.289 57.202 70.64 55.851 70.64 54.192C70.64 52.531 69.289 51.18 67.628 51.18C65.968 51.18 64.618 52.531 64.618 54.192C64.618 55.851 65.969 57.202 67.628 57.202ZM67.628 53.361C68.085 53.361 68.459 53.734 68.459 54.192C68.459 54.648 68.085 55.021 67.628 55.021C67.171 55.021 66.799 54.648 66.799 54.192C66.799 53.734 67.171 53.361 67.628 53.361ZM67.628 83.03C65.968 83.03 64.618 84.381 64.618 86.04C64.618 87.701 65.968 89.051 67.628 89.051C69.289 89.051 70.64 87.701 70.64 86.04C70.64 84.381 69.289 83.03 67.628 83.03ZM67.628 86.871C67.171 86.871 66.799 86.498 66.799 86.04C66.799 85.583 67.171 85.209 67.628 85.209C68.085 85.209 68.459 85.583 68.459 86.04C68.461 86.498 68.086 86.871 67.628 86.871ZM67.628 119.516C69.289 119.516 70.64 118.165 70.64 116.504C70.64 114.844 69.289 113.493 67.628 113.493C65.968 113.493 64.618 114.844 64.618 116.504C64.618 118.165 65.969 119.516 67.628 119.516ZM67.628 115.675C68.085 115.675 68.459 116.047 68.459 116.504C68.459 116.963 68.085 117.336 67.628 117.336C67.171 117.336 66.799 116.963 66.799 116.504C66.799 116.047 67.171 115.675 67.628 115.675ZM56.985 119.516C58.644 119.516 59.994 118.165 59.994 116.504C59.994 114.844 58.644 113.493 56.985 113.493C55.326 113.493 53.975 114.844 53.975 116.504C53.975 118.165 55.326 119.516 56.985 119.516ZM56.985 115.675C57.444 115.675 57.817 116.047 57.817 116.504C57.817 116.963 57.444 117.336 56.985 117.336C56.526 117.336 56.153 116.963 56.153 116.504C56.153 116.047 56.526 115.675 56.985 115.675ZM78.274 119.516C79.932 119.516 81.283 118.165 81.283 116.504C81.283 114.844 79.932 113.493 78.274 113.493C76.614 113.493 75.263 114.844 75.263 116.504C75.263 118.165 76.614 119.516 78.274 119.516ZM78.274 115.675C78.731 115.675 79.105 116.047 79.105 116.504C79.105 116.963 78.731 117.336 78.274 117.336C77.814 117.336 77.443 116.963 77.443 116.504C77.443 116.047 77.814 115.675 78.274 115.675ZM78.274 83.03C76.614 83.03 75.263 84.381 75.263 86.04C75.263 87.701 76.614 89.051 78.274 89.051C79.932 89.051 81.283 87.701 81.283 86.04C81.283 84.381 79.932 83.03 78.274 83.03ZM78.274 86.871C77.814 86.871 77.443 86.498 77.443 86.04C77.443 85.583 77.814 85.209 78.274 85.209C78.731 85.209 79.105 85.583 79.105 86.04C79.105 86.498 78.731 86.871 78.274 86.871ZM56.985 83.03C55.326 83.03 53.975 84.381 53.975 86.04C53.975 87.701 55.326 89.051 56.985 89.051C58.644 89.051 59.994 87.701 59.994 86.04C59.994 84.381 58.644 83.03 56.985 83.03ZM56.985 86.871C56.526 86.871 56.153 86.498 56.153 86.04C56.153 85.583 56.526 85.209 56.985 85.209C57.444 85.209 57.817 85.583 57.817 86.04C57.816 86.498 57.444 86.871 56.985 86.871ZM50.103 67.882H126.317C129.272 67.882 131.673 65.48 131.673 62.526V45.855C131.673 42.902 129.272 40.5 126.317 40.5H50.103C47.151 40.5 44.75 42.902 44.75 45.855V62.526C44.75 65.48 47.151 67.882 50.103 67.882ZM47.678 45.855C47.678 45.459 47.782 44.788 48.248 44.302C48.763 43.764 49.665 43.429 50.102 43.429H126.317C126.703 43.429 127.466 43.627 127.944 44.074C128.501 44.595 128.744 45.405 128.744 45.855V62.526C128.744 62.944 128.522 63.8 128.02 64.303C127.518 64.806 126.735 64.954 126.317 64.954H50.103C49.655 64.954 48.846 64.669 48.325 64.113C47.877 63.635 47.679 62.913 47.679 62.527L47.678 45.855Z" fill="#999999"/>
<path d="M115 110.169V131.597C115 134.527 121.289 136.064 127.5 136.064C133.711 136.064 140 134.527 140 131.597V110.169C140 107.237 133.711 105.703 127.5 105.703C121.289 105.703 115 107.237 115 110.169ZM138.215 124.453C138.215 125.399 134.147 127.133 127.5 127.133C120.853 127.133 116.785 125.4 116.785 124.453V119.725C119.094 121.078 123.312 121.776 127.5 121.776C131.688 121.776 135.908 121.078 138.215 119.725V124.453ZM138.215 117.314C138.215 118.256 134.147 119.992 127.5 119.992C120.853 119.992 116.785 118.258 116.785 117.314V112.584C119.094 113.938 123.312 114.635 127.5 114.635C131.688 114.635 135.908 113.938 138.215 112.584V117.314ZM127.5 107.49C134.146 107.49 138.215 109.223 138.215 110.169C138.215 111.112 134.147 112.847 127.5 112.847C120.853 112.847 116.785 111.115 116.785 110.169C116.785 109.223 120.854 107.49 127.5 107.49ZM127.5 134.48C120.854 134.48 116.785 132.748 116.785 131.801V127.072C119.094 128.426 123.312 129.122 127.5 129.122C131.688 129.122 135.908 128.426 138.215 127.072V131.801C138.215 132.747 134.146 134.48 127.5 134.48Z" fill="#7F56D9"/>
<path d="M127.496 134.479C120.85 134.479 116.781 132.745 116.781 131.799V127.07C119.09 128.423 123.308 129.119 127.496 129.119C131.684 129.119 135.904 128.423 138.211 127.07V131.799C138.211 132.744 134.142 134.479 127.496 134.479Z" fill="white"/>
<path d="M127.496 127.073C120.85 127.073 116.781 125.337 116.781 124.393V119.664C119.088 121.015 123.308 121.713 127.496 121.713C131.684 121.713 135.904 121.015 138.211 119.664V124.393C138.211 125.337 134.142 127.073 127.496 127.073Z" fill="white"/>
<path d="M127.496 119.987C120.85 119.987 116.781 118.253 116.781 117.307V112.578C119.088 113.931 123.308 114.629 127.496 114.629C131.684 114.629 135.904 113.931 138.211 112.578V117.307C138.211 118.253 134.142 119.987 127.496 119.987Z" fill="white"/>
<path d="M127.496 107.477C134.142 107.477 138.211 109.209 138.211 110.153C138.211 111.1 134.143 112.834 127.496 112.834C120.849 112.834 116.781 111.101 116.781 110.153C116.781 109.209 120.85 107.477 127.496 107.477Z" fill="white"/>
</svg>
