<?xml version="1.0" encoding="utf-8"?>
<!-- Generator: Adobe Illustrator 15.0.0, SVG Export Plug-In . SVG Version: 6.00 Build 0)  -->
<!DOCTYPE svg PUBLIC "-//W3C//DTD SVG 1.1//EN" "http://www.w3.org/Graphics/SVG/1.1/DTD/svg11.dtd">
<svg version="1.1" id="Layer_1" xmlns="http://www.w3.org/2000/svg" xmlns:xlink="http://www.w3.org/1999/xlink" x="0px" y="0px"
	 width="200px" height="200px" viewBox="0 0 200 200" enable-background="new 0 0 200 200" xml:space="preserve">
<g>
	<path fill="#999999" d="M46.155,36.539c-3.188,0-5.77-2.583-5.77-5.769c0-3.188,2.582-5.771,5.77-5.771
		c3.186,0,5.769,2.583,5.769,5.771C51.923,33.956,49.34,36.539,46.155,36.539L46.155,36.539z M46.155,26.924
		c-2.125,0-3.847,1.722-3.847,3.847c0,2.123,1.722,3.845,3.847,3.845c2.123,0,3.846-1.723,3.846-3.845
		C50.001,28.646,48.277,26.924,46.155,26.924z"/>
	<circle fill="#32C5D2" cx="53.846" cy="50" r="5.77"/>
	<path fill="#999999" d="M69.231,67.308c-3.187,0-5.77-2.582-5.77-5.769c0-3.187,2.583-5.77,5.77-5.77
		c3.186,0,5.769,2.583,5.769,5.77l0,0C75,64.726,72.417,67.308,69.231,67.308z M69.231,57.692c-2.125,0-3.846,1.722-3.846,3.847
		c0,2.125,1.722,3.846,3.846,3.846c2.124,0,3.845-1.722,3.845-3.846C73.077,59.414,71.355,57.692,69.231,57.692z"/>
	<circle fill="#32C5D2" cx="75.332" cy="103.846" r="5.769"/>
	<circle fill="#32C5D2" cx="101.924" cy="78.846" r="5.77"/>
	<path fill="#999999" d="M34.616,57.692c-3.186,0-5.77-2.583-5.77-5.769s2.583-5.769,5.77-5.769c3.187,0,5.77,2.582,5.77,5.769
		S37.802,57.692,34.616,57.692z M34.616,48.077c-2.124,0-3.845,1.722-3.845,3.846s1.722,3.846,3.845,3.846
		c2.124,0,3.846-1.722,3.846-3.846S36.74,48.077,34.616,48.077z"/>
	<circle fill="#32C5D2" cx="148.076" cy="51.924" r="5.769"/>
	<path fill="#999999" d="M165.385,57.692c-3.187,0-5.769-2.583-5.769-5.769s2.582-5.769,5.769-5.769s5.769,2.582,5.769,5.769
		S168.571,57.692,165.385,57.692z M165.385,48.077c-2.125,0-3.847,1.722-3.847,3.846s1.722,3.846,3.847,3.846
		c2.123,0,3.846-1.722,3.846-3.846S167.508,48.077,165.385,48.077z"/>
	<path fill="#999999" d="M165.385,73.077c-3.187,0-5.769-2.582-5.769-5.769c0-3.186,2.582-5.769,5.769-5.769
		s5.769,2.583,5.769,5.769C171.153,70.495,168.571,73.077,165.385,73.077z M165.385,63.461c-2.125,0-3.847,1.722-3.847,3.847
		s1.722,3.846,3.847,3.846c2.123,0,3.846-1.722,3.846-3.846S167.508,63.461,165.385,63.461z"/>
	<path fill="#999999" d="M146.154,82.692c-3.188,0-5.77-2.582-5.77-5.769c0-3.185,2.582-5.769,5.77-5.769
		c3.187,0,5.769,2.584,5.769,5.769C151.923,80.11,149.341,82.692,146.154,82.692z M146.154,73.077c-2.124,0-3.846,1.722-3.846,3.846
		c0,2.125,1.722,3.847,3.846,3.847s3.847-1.722,3.847-3.847C150.001,74.798,148.278,73.077,146.154,73.077z"/>
	<circle fill="#32C5D2" cx="101.924" cy="103.846" r="5.769"/>
	<path fill="#999999" d="M119.231,150.001c-3.188,0-5.77-2.584-5.77-5.771c0-3.186,2.581-5.77,5.77-5.77
		c3.187,0,5.768,2.584,5.768,5.77C124.999,147.417,122.418,150.001,119.231,150.001z M119.231,140.385
		c-2.124,0-3.847,1.721-3.847,3.846c0,2.124,1.723,3.846,3.847,3.846s3.846-1.722,3.846-3.846
		C123.077,142.105,121.355,140.385,119.231,140.385z"/>
	<path fill="#999999" d="M98.078,157.692c-3.187,0-5.771-2.584-5.771-5.77s2.583-5.769,5.771-5.769s5.769,2.583,5.769,5.769
		S101.265,157.692,98.078,157.692z M98.078,148.076c-2.125,0-3.847,1.723-3.847,3.847s1.722,3.846,3.847,3.846
		c2.123,0,3.846-1.722,3.846-3.846S100.201,148.076,98.078,148.076z"/>
	<path fill="#999999" d="M78.847,169.23c-3.187,0-5.77-2.582-5.77-5.771c0-3.185,2.583-5.768,5.77-5.768
		c3.186,0,5.769,2.583,5.769,5.768C84.616,166.648,82.033,169.23,78.847,169.23z M78.847,159.616c-2.124,0-3.847,1.72-3.847,3.844
		c0,2.126,1.723,3.848,3.847,3.848c2.124,0,3.845-1.722,3.845-3.848C82.692,161.336,80.97,159.616,78.847,159.616z"/>
	<circle fill="#32C5D2" cx="98.408" cy="169.23" r="5.77"/>
	<circle fill="#32C5D2" cx="98.408" cy="169.23" r="3.846"/>
	<path fill="#999999" d="M82.866,83.904l-6.904-9.115c-0.895-0.574-2.083-0.313-2.658,0.58c-0.523,0.817-0.356,1.894,0.389,2.515
		l3.153,5.154c-13.461-2.422-21.385-10.095-25.981-23.077c-0.355-1.003-1.458-1.529-2.461-1.172
		c-1.003,0.355-1.529,1.458-1.173,2.461c5.096,14.443,14.365,23.077,29.366,25.673l-4.481,4.654
		c-0.93,0.531-1.252,1.715-0.721,2.645c0.531,0.929,1.715,1.251,2.645,0.721l8.616-7.827c0.929-0.514,1.266-1.684,0.752-2.614
		c-0.133-0.242-0.318-0.453-0.541-0.618V83.904z"/>
	<path fill="#999999" d="M107.787,87.327l6.636-9.442c0.835-0.659,2.043-0.517,2.702,0.318c0.658,0.833,0.517,2.043-0.316,2.702
		l-2.963,5.269c13.365-2.904,21.001-10.865,25.136-24.038c0.318-1.014,1.398-1.579,2.413-1.259c1.014,0.318,1.577,1.399,1.26,2.413
		c-4.577,14.616-13.462,23.635-28.423,26.731l4.557,4.519c0.951,0.478,1.333,1.636,0.856,2.587
		c-0.479,0.949-1.636,1.333-2.587,0.856l-8.904-7.5c-0.948-0.477-1.333-1.632-0.856-2.581c0.128-0.253,0.308-0.476,0.531-0.65
		L107.787,87.327z"/>
	<path fill="#999999" d="M93.942,112.847l1.25,11.364c-0.191,1.063-1.207,1.769-2.269,1.577c-1.063-0.189-1.769-1.207-1.578-2.269
		l-1.25-5.904c-8.115,11-8.595,22.038-3,34.615c0.431,0.972-0.008,2.108-0.98,2.539c-0.972,0.431-2.109-0.009-2.539-0.981
		c-6.23-14-5.461-26.691,3.693-38.826l-6.424-0.386c-1.042,0.21-2.054-0.467-2.262-1.509c-0.19-0.952,0.359-1.897,1.282-2.201
		l11.711-0.29c1.026-0.271,2.08,0.338,2.352,1.364c0.074,0.277,0.084,0.567,0.032,0.848L93.942,112.847z"/>
</g>
</svg>
