<?xml version="1.0" encoding="utf-8"?>
<!-- Generator: Adobe Illustrator 21.0.0, SVG Export Plug-In . SVG Version: 6.00 Build 0)  -->
<svg version="1.1" id="Layer_1" xmlns="http://www.w3.org/2000/svg" xmlns:xlink="http://www.w3.org/1999/xlink" x="0px" y="0px"
	 viewBox="0 0 200 200" style="enable-background:new 0 0 200 200;" xml:space="preserve">
<style type="text/css">
	.st0{fill:#999999;}
	.st1{fill:#32C5D2;}
</style>
<g>
	<g>
		<g>
			<g>
				<g>
					<path class="st0" d="M50.2,160c-5.6,0-10.2-4.6-10.2-10.2V61.3c0-5.6,4.6-10.2,10.2-10.2h23v-9.2c0-1,0.8-1.9,1.9-1.9
						s1.9,0.8,1.9,1.9v9.2h51.6v-9.2c0-1,0.8-1.9,1.9-1.9c1,0,1.9,0.8,1.9,1.9v9.2h17.5c5.6,0,10.2,4.6,10.2,10.2v68.3h-0.1l0,0.9
						c0,0.6-0.1,1-0.4,1.3l-27.7,27.7c-0.3,0.3-0.8,0.5-1.3,0.6L50.2,160z M43.8,149.8c0,3.5,2.9,6.4,6.4,6.4h78.4v-17.5
						c0-5.6,4.6-10.2,10.2-10.2h17.5v-46H43.8V149.8z M138.7,132.3c-3.5,0-6.4,2.9-6.4,6.4v14.8l21.2-21.2H138.7z M50.2,54.8
						c-3.5,0-6.4,2.9-6.4,6.4v17.5h112.5V61.3c0-3.5-2.9-6.4-6.4-6.4h-17.5v12c0,2.6-2.1,4.6-4.6,4.6s-4.7-2.1-4.7-4.7
						c0-2.6,2.1-4.7,4.7-4.7h0.9v-7.3H77v12c0,2.6-2.1,4.6-4.6,4.6c-2.6,0-4.7-2.1-4.7-4.7c0-2.6,2.1-4.7,4.7-4.7h0.9v-7.3H50.2z"/>
				</g>
			</g>
		</g>
	</g>
	<g>
		<path class="st1" d="M88.3,115.8c1.3-0.2,2.6,0.3,3.5,1.2l2.3,2.3l2.2-2.2l-3.1-3.1c-0.5-0.5-0.5-1.3,0-1.8c0.5-0.5,1.3-0.5,1.8,0
			l3.1,3.1l2.2-2.2l-2.3-2.3c-0.9-0.9-1.4-2.2-1.2-3.5c0.4-2.9-0.5-6-2.8-8.2c-2.3-2.3-5.4-3.2-8.4-2.8c-0.5,0.1-0.7,0.7-0.3,1l3,3
			c1.4,1.4,1.4,3.7,0,5.1l-1.8,1.8c-1.4,1.4-3.7,1.4-5.1,0l-3-3c-0.3-0.3-0.9-0.1-1,0.3c-0.4,3,0.5,6.1,2.8,8.4
			C82.3,115.2,85.4,116.2,88.3,115.8z"/>
		<path class="st1" d="M106.7,119.7l-2.2,2.2l12.9,12.9c0.5,0.5,0.5,1.3,0,1.8c-0.5,0.5-1.3,0.5-1.8,0l-12.9-12.9l-2.2,2.2
			l13.3,13.3c1.7,1.7,4.4,1.7,6.1,0c1.7-1.7,1.7-4.4,0-6.1L106.7,119.7z"/>
		<path class="st1" d="M90.4,120.9l-11.3,11.3c-2.4,2.4-2.4,6.2,0,8.5c2.4,2.4,6.2,2.4,8.5,0L99,129.5l-2.9-2.9l15.6-15.6h5.7
			l5.7-11.5l-2.9-2.9l-11.5,5.7v5.7l-15.6,15.6L90.4,120.9z"/>
	</g>
</g>
</svg>
