<?xml version="1.0" encoding="utf-8"?>
<!-- Generator: Adobe Illustrator 23.0.0, SVG Export Plug-In . SVG Version: 6.00 Build 0)  -->
<svg version="1.1" id="Layer_1" xmlns="http://www.w3.org/2000/svg" xmlns:xlink="http://www.w3.org/1999/xlink" x="0px" y="0px"
	 viewBox="0 0 200 200" style="enable-background:new 0 0 200 200;" xml:space="preserve">
<style type="text/css">
	.st0{fill:none;}
	.st1{fill:#3DCFCF;}
	.st2{fill:#FFFFFF;}
	.st3{fill:#999999;}
</style>
<g>
	<g>
		<path class="st0" d="M106,111h-0.4c-0.7,0-1.3,0.6-1.3,1.3v0.4c0,0.7,0.6,1.3,1.3,1.3h0.4c0.7,0,1.3-0.6,1.3-1.3v-0.4
			C107.2,111.6,106.7,111,106,111z"/>
		<path class="st0" d="M106,105.6h-0.4c-0.7,0-1.3,0.6-1.3,1.3v0.4c0,0.7,0.6,1.3,1.3,1.3h0.4c0.7,0,1.3-0.6,1.3-1.3v-0.4
			C107.2,106.2,106.7,105.6,106,105.6z"/>
		<path class="st0" d="M93.7,111c-0.7,0-1.3,0.6-1.3,1.3v0.4c0,0.7,0.6,1.3,1.3,1.3c0.7,0,1.3-0.6,1.3-1.3v-0.4
			C94.9,111.6,94.4,111,93.7,111z"/>
		<path class="st0" d="M98.7,111h-0.4c-0.7,0-1.3,0.6-1.3,1.3v0.4c0,0.7,0.6,1.3,1.3,1.3h0.4c0.7,0,1.3-0.6,1.3-1.3v-0.4
			C100,111.6,99.4,111,98.7,111z"/>
		<path class="st0" d="M106,100.9h-0.4c-0.7,0-1.3,0.6-1.3,1.3v0.4c0,0.7,0.6,1.3,1.3,1.3h0.4c0.7,0,1.3-0.6,1.3-1.3v-0.4
			C107.2,101.5,106.7,100.9,106,100.9z"/>
		<path class="st0" d="M98.7,105.6h-0.4c-0.7,0-1.3,0.6-1.3,1.3v0.4c0,0.7,0.6,1.3,1.3,1.3h0.4c0.7,0,1.3-0.6,1.3-1.3v-0.4
			C100,106.2,99.4,105.6,98.7,105.6z"/>
		<path class="st0" d="M93.7,105.6c-0.7,0-1.3,0.6-1.3,1.3v0.4c0,0.7,0.6,1.3,1.3,1.3c0.7,0,1.3-0.6,1.3-1.3v-0.4
			C94.9,106.2,94.4,105.6,93.7,105.6z"/>
		<path class="st0" d="M98.7,100.9h-0.4c-0.7,0-1.3,0.6-1.3,1.3v0.4c0,0.7,0.6,1.3,1.3,1.3h0.4c0.7,0,1.3-0.6,1.3-1.3v-0.4
			C100,101.5,99.4,100.9,98.7,100.9z"/>
		<path class="st0" d="M93.7,100.9c-0.7,0-1.3,0.6-1.3,1.3v0.4c0,0.7,0.6,1.3,1.3,1.3c0.7,0,1.3-0.6,1.3-1.3v-0.4
			C94.9,101.5,94.4,100.9,93.7,100.9z"/>
		<g>
			<path class="st0" d="M93.7,100.9c-0.7,0-1.3,0.6-1.3,1.3v0.4c0,0.7,0.6,1.3,1.3,1.3c0.7,0,1.3-0.6,1.3-1.3v-0.4
				C94.9,101.5,94.4,100.9,93.7,100.9z"/>
			<path class="st0" d="M98.7,111h-0.4c-0.7,0-1.3,0.6-1.3,1.3v0.4c0,0.7,0.6,1.3,1.3,1.3h0.4c0.7,0,1.3-0.6,1.3-1.3v-0.4
				C100,111.6,99.4,111,98.7,111z"/>
			<path class="st0" d="M93.7,105.6c-0.7,0-1.3,0.6-1.3,1.3v0.4c0,0.7,0.6,1.3,1.3,1.3c0.7,0,1.3-0.6,1.3-1.3v-0.4
				C94.9,106.2,94.4,105.6,93.7,105.6z"/>
			<path class="st0" d="M93.7,111c-0.7,0-1.3,0.6-1.3,1.3v0.4c0,0.7,0.6,1.3,1.3,1.3c0.7,0,1.3-0.6,1.3-1.3v-0.4
				C94.9,111.6,94.4,111,93.7,111z"/>
			<path class="st0" d="M98.7,105.6h-0.4c-0.7,0-1.3,0.6-1.3,1.3v0.4c0,0.7,0.6,1.3,1.3,1.3h0.4c0.7,0,1.3-0.6,1.3-1.3v-0.4
				C100,106.2,99.4,105.6,98.7,105.6z"/>
			<path class="st0" d="M106,105.6h-0.4c-0.7,0-1.3,0.6-1.3,1.3v0.4c0,0.7,0.6,1.3,1.3,1.3h0.4c0.7,0,1.3-0.6,1.3-1.3v-0.4
				C107.2,106.2,106.7,105.6,106,105.6z"/>
			<path class="st0" d="M98.7,100.9h-0.4c-0.7,0-1.3,0.6-1.3,1.3v0.4c0,0.7,0.6,1.3,1.3,1.3h0.4c0.7,0,1.3-0.6,1.3-1.3v-0.4
				C100,101.5,99.4,100.9,98.7,100.9z"/>
			<path class="st0" d="M106,100.9h-0.4c-0.7,0-1.3,0.6-1.3,1.3v0.4c0,0.7,0.6,1.3,1.3,1.3h0.4c0.7,0,1.3-0.6,1.3-1.3v-0.4
				C107.2,101.5,106.7,100.9,106,100.9z"/>
			<path class="st0" d="M106,111h-0.4c-0.7,0-1.3,0.6-1.3,1.3v0.4c0,0.7,0.6,1.3,1.3,1.3h0.4c0.7,0,1.3-0.6,1.3-1.3v-0.4
				C107.2,111.6,106.7,111,106,111z"/>
			<path class="st1" d="M101.9,93.9l-10.1,3c-0.9,0.2-1.5,1.1-1.5,2v16.5h-0.5c-0.3,0-0.5,0-0.5,0.4c0,0.3,0.3,0.4,0.5,0.4h11.6
				c0.7,0,1.3-0.6,1.3-1.3V96.3v-1.8c0-0.2,0-0.4-0.2-0.4C102.2,93.9,102,93.8,101.9,93.9z M94.9,112.7c0,0.7-0.6,1.3-1.3,1.3
				c-0.7,0-1.3-0.6-1.3-1.3v-0.4c0-0.7,0.6-1.3,1.3-1.3c0.7,0,1.3,0.6,1.3,1.3V112.7z M94.9,107.2c0,0.7-0.6,1.3-1.3,1.3
				c-0.7,0-1.3-0.6-1.3-1.3v-0.4c0-0.7,0.6-1.3,1.3-1.3c0.7,0,1.3,0.6,1.3,1.3V107.2z M94.9,102.5c0,0.7-0.6,1.3-1.3,1.3
				c-0.7,0-1.3-0.6-1.3-1.3v-0.4c0-0.7,0.6-1.3,1.3-1.3c0.7,0,1.3,0.6,1.3,1.3V102.5z M100,112.7c0,0.7-0.6,1.3-1.3,1.3h-0.4
				c-0.7,0-1.3-0.6-1.3-1.3v-0.4c0-0.7,0.6-1.3,1.3-1.3h0.4c0.7,0,1.3,0.6,1.3,1.3V112.7z M100,107.2c0,0.7-0.6,1.3-1.3,1.3h-0.4
				c-0.7,0-1.3-0.6-1.3-1.3v-0.4c0-0.7,0.6-1.3,1.3-1.3h0.4c0.7,0,1.3,0.6,1.3,1.3V107.2z M100,102.5c0,0.7-0.6,1.3-1.3,1.3h-0.4
				c-0.7,0-1.3-0.6-1.3-1.3v-0.4c0-0.7,0.6-1.3,1.3-1.3h0.4c0.7,0,1.3,0.6,1.3,1.3V102.5z"/>
			<path class="st1" d="M110.2,115.1h-0.5V100c0-0.9-0.7-1.7-1.5-2l-3.7-1.2c-0.8-0.3-1.7,0.3-1.7,1.2v16.8c0,0.7,0.6,1.3,1.3,1.3
				h6.1c0.3,0,0.6-0.2,0.6-0.5C110.8,115.3,110.6,115.1,110.2,115.1z M107.2,112.7c0,0.7-0.6,1.3-1.3,1.3h-0.4
				c-0.7,0-1.3-0.6-1.3-1.3v-0.4c0-0.7,0.6-1.3,1.3-1.3h0.4c0.7,0,1.3,0.6,1.3,1.3V112.7z M107.2,107.2c0,0.7-0.6,1.3-1.3,1.3h-0.4
				c-0.7,0-1.3-0.6-1.3-1.3v-0.4c0-0.7,0.6-1.3,1.3-1.3h0.4c0.7,0,1.3,0.6,1.3,1.3V107.2z M107.2,102.5c0,0.7-0.6,1.3-1.3,1.3h-0.4
				c-0.7,0-1.3-0.6-1.3-1.3v-0.4c0-0.7,0.6-1.3,1.3-1.3h0.4c0.7,0,1.3,0.6,1.3,1.3V102.5z"/>
		</g>
	</g>
	<g>
		<path class="st2" d="M68.2,147.6h0.3c0.5,0,0.9,0.4,0.9,0.9v0.3c0,0.5-0.4,0.9-0.9,0.9h-0.3c-0.5,0-0.9-0.4-0.9-0.9v-0.3
			C67.4,148,67.8,147.6,68.2,147.6z"/>
		<path class="st2" d="M68.2,144.3h0.3c0.5,0,0.9,0.4,0.9,0.9v0.3c0,0.5-0.4,0.9-0.9,0.9h-0.3c-0.5,0-0.9-0.4-0.9-0.9v-0.3
			C67.4,144.7,67.8,144.3,68.2,144.3z"/>
		<path class="st2" d="M65,144.3L65,144.3c0.5,0,0.9,0.4,0.9,0.9v0.3c0,0.5-0.4,0.9-0.9,0.9l0,0c-0.5,0-0.9-0.4-0.9-0.9v-0.3
			C64.1,144.7,64.5,144.3,65,144.3z"/>
		<path class="st3" d="M71.1,141v-1.3c0-0.1,0-0.3-0.1-0.3c-0.1-0.1-0.2-0.1-0.3-0.1l-7.1,2.1c-0.6,0.2-1.1,0.8-1.1,1.4v11.5h-0.4
			c-0.2,0-0.4,0-0.4,0.3c0,0.2,0.2,0.3,0.4,0.3h8.1c0.5,0,0.9-0.4,0.9-0.9V141L71.1,141z M65,153.4L65,153.4c-0.5,0-0.9-0.4-0.9-0.9
			v-0.3c0-0.5,0.4-0.9,0.9-0.9l0,0c0.5,0,0.9,0.4,0.9,0.9v0.3C65.8,153,65.4,153.4,65,153.4z M65,149.6L65,149.6
			c-0.5,0-0.9-0.4-0.9-0.9v-0.3c0-0.5,0.4-0.9,0.9-0.9l0,0c0.5,0,0.9,0.4,0.9,0.9v0.3C65.8,149.2,65.4,149.6,65,149.6z M65,146.3
			L65,146.3c-0.5,0-0.9-0.4-0.9-0.9v-0.3c0-0.5,0.4-0.9,0.9-0.9l0,0c0.5,0,0.9,0.4,0.9,0.9v0.3C65.8,145.9,65.4,146.3,65,146.3z
			 M68.5,153.4h-0.3c-0.5,0-0.9-0.4-0.9-0.9v-0.3c0-0.5,0.4-0.9,0.9-0.9h0.3c0.5,0,0.9,0.4,0.9,0.9v0.3
			C69.4,153,69,153.4,68.5,153.4z M68.5,149.6h-0.3c-0.5,0-0.9-0.4-0.9-0.9v-0.3c0-0.5,0.4-0.9,0.9-0.9h0.3c0.5,0,0.9,0.4,0.9,0.9
			v0.3C69.4,149.2,69,149.6,68.5,149.6z M68.5,146.3h-0.3c-0.5,0-0.9-0.4-0.9-0.9v-0.3c0-0.5,0.4-0.9,0.9-0.9h0.3
			c0.5,0,0.9,0.4,0.9,0.9v0.3C69.4,145.9,69,146.3,68.5,146.3z"/>
		<path class="st3" d="M77,154.6c0-0.2-0.2-0.4-0.4-0.4h-0.3v-10.6c0-0.6-0.5-1.2-1.1-1.4l-2.6-0.9c-0.6-0.2-1.2,0.2-1.2,0.8V154
			c0,0.5,0.4,0.9,0.9,0.9h4.3C76.8,154.9,77,154.8,77,154.6z M73.6,153.4h-0.3c-0.5,0-0.9-0.4-0.9-0.9v-0.3c0-0.5,0.4-0.9,0.9-0.9
			h0.3c0.5,0,0.9,0.4,0.9,0.9v0.3C74.4,153,74,153.4,73.6,153.4z M73.6,149.6h-0.3c-0.5,0-0.9-0.4-0.9-0.9v-0.3
			c0-0.5,0.4-0.9,0.9-0.9h0.3c0.5,0,0.9,0.4,0.9,0.9v0.3C74.4,149.2,74,149.6,73.6,149.6z M73.6,146.3h-0.3c-0.5,0-0.9-0.4-0.9-0.9
			v-0.3c0-0.5,0.4-0.9,0.9-0.9h0.3c0.5,0,0.9,0.4,0.9,0.9v0.3C74.4,145.9,74,146.3,73.6,146.3z"/>
		<path class="st2" d="M65,147.6L65,147.6c0.5,0,0.9,0.4,0.9,0.9v0.3c0,0.5-0.4,0.9-0.9,0.9l0,0c-0.5,0-0.9-0.4-0.9-0.9v-0.3
			C64.1,148,64.5,147.6,65,147.6z"/>
	</g>
	<path class="st3" d="M100,124.4L100,124.4c-10.7,0-19.4-8.7-19.4-19.4c0-10.7,8.7-19.4,19.4-19.4s19.4,8.7,19.4,19.4
		C119.4,115.7,110.7,124.4,100,124.4z M100,88.1c-9.3,0-16.8,7.6-16.8,16.8c0,9.3,7.6,16.8,16.8,16.8s16.8-7.6,16.8-16.8
		C116.8,95.7,109.3,88.1,100,88.1z"/>
	
		<rect x="115.1" y="117.8" transform="matrix(0.8091 -0.5876 0.5876 0.8091 -52.7165 92.7232)" class="st3" width="2.6" height="19.5"/>
	
		<rect x="72.2" y="86.6" transform="matrix(0.3092 -0.951 0.951 0.3092 -40.8726 136.4671)" class="st3" width="2.6" height="19.5"/>
	
		<rect x="116.8" y="95.1" transform="matrix(0.9512 -0.3087 0.3087 0.9512 -23.5709 43.7542)" class="st3" width="19.5" height="2.6"/>
	<polygon class="st3" points="78.9,136.1 76.9,134.6 88.3,118.9 90.4,120.4 	"/>
	<rect x="98.7" y="67.4" class="st3" width="2.6" height="19.5"/>
	<path class="st3" d="M149.6,104.3L149.6,104.3c-8.5,0-15.5-6.9-15.5-15.5c0-4.1,1.6-8,4.5-10.9c2.9-2.9,6.8-4.5,10.9-4.5l0,0
		c4.1,0,8,1.6,10.9,4.5c2.9,2.9,4.5,6.8,4.5,10.9C165,97.4,158.1,104.3,149.6,104.3z M149.6,75.3L149.6,75.3c-3.6,0-7,1.4-9.6,4
		c-2.6,2.6-4,6-4,9.6c0,7.5,6.1,13.5,13.5,13.5v1l0-1c7.5,0,13.5-6.1,13.5-13.5c0-3.6-1.4-7-4-9.6C156.6,76.8,153.2,75.3,149.6,75.3
		z"/>
	<path class="st3" d="M100,68.3c-8.5,0-15.5-6.9-15.5-15.5c0-8.5,6.9-15.5,15.5-15.5c4.1,0,8,1.6,10.9,4.5c2.9,2.9,4.5,6.8,4.5,10.9
		s-1.6,8-4.5,10.9C108,66.7,104.1,68.3,100,68.3z M100,39.3c-7.5,0-13.5,6.1-13.5,13.5c0,7.5,6.1,13.5,13.5,13.5l0,0
		c3.6,0,7-1.4,9.6-4c2.6-2.6,4-6,4-9.6c0-3.6-1.4-7-4-9.6C107,40.8,103.6,39.3,100,39.3z"/>
	<path class="st3" d="M130.6,162.6L130.6,162.6c-8.5,0-15.5-6.9-15.5-15.5c0-4.1,1.6-8,4.5-10.9c2.9-2.9,6.8-4.5,10.9-4.5
		c4.1,0,8,1.6,10.9,4.5c2.9,2.9,4.5,6.8,4.5,10.9C146.1,155.6,139.1,162.6,130.6,162.6z M130.6,133.6c-3.6,0-7,1.4-9.6,4
		c-2.6,2.6-4,6-4,9.6c0,7.5,6.1,13.5,13.5,13.5c7.5,0,13.5-6.1,13.5-13.5c0-3.6-1.4-7-4-9.6C137.6,135,134.2,133.6,130.6,133.6z"/>
	<path class="st3" d="M69.4,162.6L69.4,162.6c-8.5,0-15.5-6.9-15.5-15.5c0-8.5,6.9-15.5,15.5-15.5c8.5,0,15.5,6.9,15.5,15.5
		c0,4.1-1.6,8-4.5,10.9C77.4,161,73.5,162.6,69.4,162.6z M69.4,133.6c-7.5,0-13.5,6.1-13.5,13.5c0,7.5,6.1,13.5,13.5,13.5
		c3.6,0,7-1.4,9.6-4c2.6-2.6,4-6,4-9.6C82.9,139.7,76.8,133.6,69.4,133.6z"/>
	<path class="st3" d="M50.5,104.3L50.5,104.3c-8.5,0-15.5-6.9-15.5-15.5c0-8.5,6.9-15.5,15.4-15.5h0c4.1,0,8,1.6,10.9,4.5
		c2.9,2.9,4.5,6.8,4.5,10.9C65.9,97.4,59,104.3,50.5,104.3z M50.5,75.3C50.5,75.3,50.5,75.3,50.5,75.3c-7.5,0-13.5,6.1-13.5,13.5
		c0,7.5,6.1,13.5,13.5,13.5h0c7.5,0,13.5-6.1,13.5-13.5c0-3.6-1.4-7-4-9.6C57.5,76.8,54.1,75.3,50.5,75.3z"/>
	<g>
		<path class="st2" d="M129.4,147.6h0.3c0.5,0,0.9,0.4,0.9,0.9v0.3c0,0.5-0.4,0.9-0.9,0.9h-0.3c-0.5,0-0.9-0.4-0.9-0.9v-0.3
			C128.5,148,128.9,147.6,129.4,147.6z"/>
		<path class="st2" d="M129.4,144.1h0.3c0.5,0,0.9,0.4,0.9,0.9v0.3c0,0.5-0.4,0.9-0.9,0.9h-0.3c-0.5,0-0.9-0.4-0.9-0.9V145
			C128.5,144.5,128.9,144.1,129.4,144.1z"/>
		<path class="st2" d="M125.9,144.1L125.9,144.1c0.5,0,0.9,0.4,0.9,0.9v0.3c0,0.5-0.4,0.9-0.9,0.9h0c-0.5,0-0.9-0.4-0.9-0.9V145
			C124.9,144.5,125.4,144.1,125.9,144.1z"/>
		<path class="st3" d="M132.5,140.6v-1.4c0-0.1,0-0.3-0.1-0.3c-0.1-0.1-0.2-0.1-0.4-0.1l-7.6,2.3c-0.7,0.2-1.1,0.8-1.1,1.5v12.3
			h-0.4c-0.2,0-0.4,0-0.4,0.3c0,0.2,0.2,0.3,0.4,0.3h8.7c0.5,0,0.9-0.4,0.9-0.9V140.6L132.5,140.6z M125.9,153.8L125.9,153.8
			c-0.5,0-0.9-0.4-0.9-0.9v-0.3c0-0.5,0.4-0.9,0.9-0.9h0c0.5,0,0.9,0.4,0.9,0.9v0.3C126.8,153.4,126.4,153.8,125.9,153.8z
			 M125.9,149.8L125.9,149.8c-0.5,0-0.9-0.4-0.9-0.9v-0.3c0-0.5,0.4-0.9,0.9-0.9h0c0.5,0,0.9,0.4,0.9,0.9v0.3
			C126.8,149.3,126.4,149.8,125.9,149.8z M125.9,146.2L125.9,146.2c-0.5,0-0.9-0.4-0.9-0.9V145c0-0.5,0.4-0.9,0.9-0.9h0
			c0.5,0,0.9,0.4,0.9,0.9v0.3C126.8,145.8,126.4,146.2,125.9,146.2z M129.7,153.8h-0.3c-0.5,0-0.9-0.4-0.9-0.9v-0.3
			c0-0.5,0.4-0.9,0.9-0.9h0.3c0.5,0,0.9,0.4,0.9,0.9v0.3C130.6,153.4,130.2,153.8,129.7,153.8z M129.7,149.8h-0.3
			c-0.5,0-0.9-0.4-0.9-0.9v-0.3c0-0.5,0.4-0.9,0.9-0.9h0.3c0.5,0,0.9,0.4,0.9,0.9v0.3C130.6,149.3,130.2,149.8,129.7,149.8z
			 M129.7,146.2h-0.3c-0.5,0-0.9-0.4-0.9-0.9V145c0-0.5,0.4-0.9,0.9-0.9h0.3c0.5,0,0.9,0.4,0.9,0.9v0.3
			C130.6,145.8,130.2,146.2,129.7,146.2z"/>
		<path class="st3" d="M138.7,155.1c0-0.2-0.2-0.4-0.5-0.4h-0.4v-11.3c0-0.7-0.5-1.3-1.1-1.5L134,141c-0.6-0.2-1.2,0.3-1.2,0.9v12.6
			c0,0.5,0.4,0.9,0.9,0.9h4.6C138.6,155.5,138.7,155.3,138.7,155.1z M135.1,153.8h-0.3c-0.5,0-0.9-0.4-0.9-0.9v-0.3
			c0-0.5,0.4-0.9,0.9-0.9h0.3c0.5,0,0.9,0.4,0.9,0.9v0.3C136,153.4,135.6,153.8,135.1,153.8z M135.1,149.8h-0.3
			c-0.5,0-0.9-0.4-0.9-0.9v-0.3c0-0.5,0.4-0.9,0.9-0.9h0.3c0.5,0,0.9,0.4,0.9,0.9v0.3C136,149.3,135.6,149.8,135.1,149.8z
			 M135.1,146.2h-0.3c-0.5,0-0.9-0.4-0.9-0.9V145c0-0.5,0.4-0.9,0.9-0.9h0.3c0.5,0,0.9,0.4,0.9,0.9v0.3
			C136,145.8,135.6,146.2,135.1,146.2z"/>
		<path class="st2" d="M125.9,147.6L125.9,147.6c0.5,0,0.9,0.4,0.9,0.9v0.3c0,0.5-0.4,0.9-0.9,0.9h0c-0.5,0-0.9-0.4-0.9-0.9v-0.3
			C124.9,148,125.4,147.6,125.9,147.6z"/>
	</g>
	<g>
		<path class="st2" d="M148.3,89.4h0.3c0.5,0,0.9,0.4,0.9,0.9v0.3c0,0.5-0.4,0.9-0.9,0.9h-0.3c-0.5,0-0.9-0.4-0.9-0.9v-0.3
			C147.4,89.8,147.8,89.4,148.3,89.4z"/>
		<path class="st2" d="M148.3,85.8h0.3c0.5,0,0.9,0.4,0.9,0.9v0.3c0,0.5-0.4,0.9-0.9,0.9h-0.3c-0.5,0-0.9-0.4-0.9-0.9v-0.3
			C147.4,86.3,147.8,85.8,148.3,85.8z"/>
		<path class="st2" d="M144.8,85.8L144.8,85.8c0.5,0,0.9,0.4,0.9,0.9v0.3c0,0.5-0.4,0.9-0.9,0.9h0c-0.5,0-0.9-0.4-0.9-0.9v-0.3
			C143.9,86.3,144.3,85.8,144.8,85.8z"/>
		<path class="st3" d="M151.4,82.3V81c0-0.1,0-0.3-0.1-0.3c-0.1-0.1-0.2-0.1-0.4-0.1l-7.6,2.3c-0.6,0.2-1.1,0.8-1.1,1.5v12.4h-0.4
			c-0.2,0-0.4,0-0.4,0.3s0.2,0.3,0.4,0.3h8.7c0.5,0,0.9-0.4,0.9-0.9V82.3L151.4,82.3z M144.8,95.6L144.8,95.6
			c-0.5,0-0.9-0.4-0.9-0.9v-0.3c0-0.5,0.4-0.9,0.9-0.9h0c0.5,0,0.9,0.4,0.9,0.9v0.3C145.8,95.2,145.3,95.6,144.8,95.6z M144.8,91.5
			L144.8,91.5c-0.5,0-0.9-0.4-0.9-0.9v-0.3c0-0.5,0.4-0.9,0.9-0.9h0c0.5,0,0.9,0.4,0.9,0.9v0.3C145.8,91.1,145.3,91.5,144.8,91.5z
			 M144.8,88L144.8,88c-0.5,0-0.9-0.4-0.9-0.9v-0.3c0-0.5,0.4-0.9,0.9-0.9h0c0.5,0,0.9,0.4,0.9,0.9v0.3
			C145.8,87.6,145.3,88,144.8,88z M148.6,95.6h-0.3c-0.5,0-0.9-0.4-0.9-0.9v-0.3c0-0.5,0.4-0.9,0.9-0.9h0.3c0.5,0,0.9,0.4,0.9,0.9
			v0.3C149.5,95.2,149.1,95.6,148.6,95.6z M148.6,91.5h-0.3c-0.5,0-0.9-0.4-0.9-0.9v-0.3c0-0.5,0.4-0.9,0.9-0.9h0.3
			c0.5,0,0.9,0.4,0.9,0.9v0.3C149.5,91.1,149.1,91.5,148.6,91.5z M148.6,88h-0.3c-0.5,0-0.9-0.4-0.9-0.9v-0.3c0-0.5,0.4-0.9,0.9-0.9
			h0.3c0.5,0,0.9,0.4,0.9,0.9v0.3C149.5,87.6,149.1,88,148.6,88z"/>
		<path class="st3" d="M157.7,96.9c0-0.2-0.2-0.4-0.5-0.4h-0.4V85.2c0-0.7-0.5-1.3-1.1-1.5l-2.8-0.9c-0.6-0.2-1.2,0.3-1.2,0.9v12.6
			c0,0.5,0.4,0.9,0.9,0.9h4.6C157.5,97.2,157.7,97.1,157.7,96.9z M154,95.6h-0.3c-0.5,0-0.9-0.4-0.9-0.9v-0.3c0-0.5,0.4-0.9,0.9-0.9
			h0.3c0.5,0,0.9,0.4,0.9,0.9v0.3C155,95.2,154.5,95.6,154,95.6z M154,91.5h-0.3c-0.5,0-0.9-0.4-0.9-0.9v-0.3c0-0.5,0.4-0.9,0.9-0.9
			h0.3c0.5,0,0.9,0.4,0.9,0.9v0.3C155,91.1,154.5,91.5,154,91.5z M154,88h-0.3c-0.5,0-0.9-0.4-0.9-0.9v-0.3c0-0.5,0.4-0.9,0.9-0.9
			h0.3c0.5,0,0.9,0.4,0.9,0.9v0.3C155,87.6,154.5,88,154,88z"/>
		<path class="st2" d="M144.8,89.4L144.8,89.4c0.5,0,0.9,0.4,0.9,0.9v0.3c0,0.5-0.4,0.9-0.9,0.9h0c-0.5,0-0.9-0.4-0.9-0.9v-0.3
			C143.9,89.8,144.3,89.4,144.8,89.4z"/>
	</g>
	<g>
		<path class="st2" d="M98.8,53.4h0.3c0.5,0,0.9,0.4,0.9,0.9v0.3c0,0.5-0.4,0.9-0.9,0.9h-0.3c-0.5,0-0.9-0.4-0.9-0.9v-0.3
			C97.8,53.8,98.3,53.4,98.8,53.4z"/>
		<path class="st2" d="M98.8,49.8h0.3c0.5,0,0.9,0.4,0.9,0.9v0.3c0,0.5-0.4,0.9-0.9,0.9h-0.3c-0.5,0-0.9-0.4-0.9-0.9v-0.3
			C97.8,50.3,98.3,49.8,98.8,49.8z"/>
		<path class="st2" d="M95.3,49.8L95.3,49.8c0.5,0,0.9,0.4,0.9,0.9v0.3c0,0.5-0.4,0.9-0.9,0.9l0,0c-0.5,0-0.9-0.4-0.9-0.9v-0.3
			C94.3,50.3,94.7,49.8,95.3,49.8z"/>
		<path class="st3" d="M101.9,46.3V45c0-0.1,0-0.3-0.1-0.3c-0.1-0.1-0.2-0.1-0.4-0.1l-7.6,2.3c-0.7,0.2-1.1,0.8-1.1,1.5v12.3h-0.4
			c-0.2,0-0.4,0-0.4,0.3s0.2,0.3,0.4,0.3h8.7c0.5,0,0.9-0.4,0.9-0.9V46.3L101.9,46.3z M95.3,59.6L95.3,59.6c-0.5,0-0.9-0.4-0.9-0.9
			v-0.3c0-0.5,0.4-0.9,0.9-0.9l0,0c0.5,0,0.9,0.4,0.9,0.9v0.3C96.2,59.2,95.8,59.6,95.3,59.6z M95.3,55.5L95.3,55.5
			c-0.5,0-0.9-0.4-0.9-0.9v-0.3c0-0.5,0.4-0.9,0.9-0.9l0,0c0.5,0,0.9,0.4,0.9,0.9v0.3C96.2,55.1,95.8,55.5,95.3,55.5z M95.3,52
			L95.3,52c-0.5,0-0.9-0.4-0.9-0.9v-0.3c0-0.5,0.4-0.9,0.9-0.9l0,0c0.5,0,0.9,0.4,0.9,0.9v0.3C96.2,51.6,95.8,52,95.3,52z
			 M99.1,59.6h-0.3c-0.5,0-0.9-0.4-0.9-0.9v-0.3c0-0.5,0.4-0.9,0.9-0.9h0.3c0.5,0,0.9,0.4,0.9,0.9v0.3C100,59.2,99.6,59.6,99.1,59.6
			z M99.1,55.5h-0.3c-0.5,0-0.9-0.4-0.9-0.9v-0.3c0-0.5,0.4-0.9,0.9-0.9h0.3c0.5,0,0.9,0.4,0.9,0.9v0.3
			C100,55.1,99.6,55.5,99.1,55.5z M99.1,52h-0.3c-0.5,0-0.9-0.4-0.9-0.9v-0.3c0-0.5,0.4-0.9,0.9-0.9h0.3c0.5,0,0.9,0.4,0.9,0.9v0.3
			C100,51.6,99.6,52,99.1,52z"/>
		<path class="st3" d="M108.1,60.9c0-0.2-0.2-0.4-0.5-0.4h-0.4V49.2c0-0.7-0.5-1.3-1.1-1.5l-2.8-0.9c-0.6-0.2-1.2,0.3-1.2,0.9v12.6
			c0,0.5,0.4,0.9,0.9,0.9h4.6C107.9,61.2,108.1,61.1,108.1,60.9z M104.5,59.6h-0.3c-0.5,0-0.9-0.4-0.9-0.9v-0.3
			c0-0.5,0.4-0.9,0.9-0.9h0.3c0.5,0,0.9,0.4,0.9,0.9v0.3C105.4,59.2,105,59.6,104.5,59.6z M104.5,55.5h-0.3c-0.5,0-0.9-0.4-0.9-0.9
			v-0.3c0-0.5,0.4-0.9,0.9-0.9h0.3c0.5,0,0.9,0.4,0.9,0.9v0.3C105.4,55.1,105,55.5,104.5,55.5z M104.5,52h-0.3
			c-0.5,0-0.9-0.4-0.9-0.9v-0.3c0-0.5,0.4-0.9,0.9-0.9h0.3c0.5,0,0.9,0.4,0.9,0.9v0.3C105.4,51.6,105,52,104.5,52z"/>
		<path class="st2" d="M95.3,53.4L95.3,53.4c0.5,0,0.9,0.4,0.9,0.9v0.3c0,0.5-0.4,0.9-0.9,0.9l0,0c-0.5,0-0.9-0.4-0.9-0.9v-0.3
			C94.3,53.8,94.7,53.4,95.3,53.4z"/>
	</g>
	<g>
		<path class="st2" d="M49.2,89.4h0.3c0.5,0,0.9,0.4,0.9,0.9v0.3c0,0.5-0.4,0.9-0.9,0.9h-0.3c-0.5,0-0.9-0.4-0.9-0.9v-0.3
			C48.3,89.8,48.7,89.4,49.2,89.4z"/>
		<path class="st2" d="M49.2,85.8h0.3c0.5,0,0.9,0.4,0.9,0.9V87c0,0.5-0.4,0.9-0.9,0.9h-0.3c-0.5,0-0.9-0.4-0.9-0.9v-0.3
			C48.3,86.3,48.7,85.8,49.2,85.8z"/>
		<path class="st2" d="M45.7,85.8L45.7,85.8c0.5,0,0.9,0.4,0.9,0.9V87c0,0.5-0.4,0.9-0.9,0.9h0c-0.5,0-0.9-0.4-0.9-0.9v-0.3
			C44.8,86.3,45.2,85.8,45.7,85.8z"/>
		<path class="st3" d="M52.3,82.3V81c0-0.1,0-0.3-0.1-0.3c-0.1-0.1-0.2-0.1-0.4-0.1l-7.6,2.3c-0.6,0.2-1.1,0.8-1.1,1.5v12.3h-0.4
			c-0.2,0-0.4,0-0.4,0.3s0.2,0.3,0.4,0.3h8.7c0.5,0,0.9-0.4,0.9-0.9V82.3L52.3,82.3z M45.7,95.6L45.7,95.6c-0.5,0-0.9-0.4-0.9-0.9
			v-0.3c0-0.5,0.4-0.9,0.9-0.9h0c0.5,0,0.9,0.4,0.9,0.9v0.3C46.7,95.2,46.2,95.6,45.7,95.6z M45.7,91.5L45.7,91.5
			c-0.5,0-0.9-0.4-0.9-0.9v-0.3c0-0.5,0.4-0.9,0.9-0.9h0c0.5,0,0.9,0.4,0.9,0.9v0.3C46.7,91.1,46.2,91.5,45.7,91.5z M45.7,88
			L45.7,88c-0.5,0-0.9-0.4-0.9-0.9v-0.3c0-0.5,0.4-0.9,0.9-0.9h0c0.5,0,0.9,0.4,0.9,0.9V87C46.7,87.6,46.2,88,45.7,88z M49.5,95.6
			h-0.3c-0.5,0-0.9-0.4-0.9-0.9v-0.3c0-0.5,0.4-0.9,0.9-0.9h0.3c0.5,0,0.9,0.4,0.9,0.9v0.3C50.5,95.2,50,95.6,49.5,95.6z M49.5,91.5
			h-0.3c-0.5,0-0.9-0.4-0.9-0.9v-0.3c0-0.5,0.4-0.9,0.9-0.9h0.3c0.5,0,0.9,0.4,0.9,0.9v0.3C50.5,91.1,50,91.5,49.5,91.5z M49.5,88
			h-0.3c-0.5,0-0.9-0.4-0.9-0.9v-0.3c0-0.5,0.4-0.9,0.9-0.9h0.3c0.5,0,0.9,0.4,0.9,0.9V87C50.5,87.6,50,88,49.5,88z"/>
		<path class="st3" d="M58.6,96.9c0-0.2-0.2-0.4-0.5-0.4h-0.4V85.2c0-0.7-0.5-1.3-1.1-1.5l-2.8-0.9c-0.6-0.2-1.2,0.3-1.2,0.9v12.6
			c0,0.5,0.4,0.9,0.9,0.9h4.6C58.4,97.2,58.6,97.1,58.6,96.9z M54.9,95.6h-0.3c-0.5,0-0.9-0.4-0.9-0.9v-0.3c0-0.5,0.4-0.9,0.9-0.9
			h0.3c0.5,0,0.9,0.4,0.9,0.9v0.3C55.9,95.2,55.4,95.6,54.9,95.6z M54.9,91.5h-0.3c-0.5,0-0.9-0.4-0.9-0.9v-0.3
			c0-0.5,0.4-0.9,0.9-0.9h0.3c0.5,0,0.9,0.4,0.9,0.9v0.3C55.9,91.1,55.4,91.5,54.9,91.5z M54.9,88h-0.3c-0.5,0-0.9-0.4-0.9-0.9v-0.3
			c0-0.5,0.4-0.9,0.9-0.9h0.3c0.5,0,0.9,0.4,0.9,0.9V87C55.9,87.6,55.4,88,54.9,88z"/>
		<path class="st2" d="M45.7,89.4L45.7,89.4c0.5,0,0.9,0.4,0.9,0.9v0.3c0,0.5-0.4,0.9-0.9,0.9h0c-0.5,0-0.9-0.4-0.9-0.9v-0.3
			C44.8,89.8,45.2,89.4,45.7,89.4z"/>
	</g>
</g>
</svg>
