<?xml version="1.0" encoding="utf-8"?>
<!-- Generator: Adobe Illustrator 15.0.0, SVG Export Plug-In . SVG Version: 6.00 Build 0)  -->
<!DOCTYPE svg PUBLIC "-//W3C//DTD SVG 1.1//EN" "http://www.w3.org/Graphics/SVG/1.1/DTD/svg11.dtd">
<svg version="1.1" id="Layer_1" xmlns="http://www.w3.org/2000/svg" xmlns:xlink="http://www.w3.org/1999/xlink" x="0px" y="0px"
	 width="200px" height="200px" viewBox="0 0 200 200" enable-background="new 0 0 200 200" xml:space="preserve">
<g>
	<path fill="#FFFFFF" d="M63.497,116.359h36.279v-9.069H63.497V116.359z M81.637,110.314h12.092v3.021H81.637V110.314z
		 M75.591,110.314h3.023v3.021h-3.023V110.314z M69.543,110.314h3.023v3.021h-3.023V110.314z"/>
	<path fill="#FFFFFF" d="M63.497,128.453h36.279v-9.07H63.497V128.453z M81.637,122.406h12.092v3.023H81.637V122.406z
		 M75.591,122.406h3.023v3.023h-3.023V122.406z M69.543,122.406h3.023v3.023h-3.023V122.406z"/>
	<path fill="#FFFFFF" d="M63.497,104.268h36.28v-9.071h-36.28V104.268z M81.637,98.22h12.092v3.023H81.637V98.22z M75.591,98.22
		h3.023v3.023h-3.023V98.22z M69.543,98.22h3.023v3.023h-3.023V98.22z"/>
	<path fill="#FFFFFF" d="M125.107,99.529c-0.938-1.535-2.479-1.513-3.418,0.021l-14.123,22.994
		c-0.939,1.534-0.237,2.722,1.561,2.722h28.543c1.798-0.002,2.5-1.18,1.559-2.713L125.107,99.529z M123.387,104.373
		c0.904,0,1.604,1.001,1.559,2.223l-0.286,7.358c-0.048,1.219-0.62,2.22-1.274,2.22c-0.652,0-1.229-1.001-1.275-2.22l-0.282-7.358
		C121.777,105.374,122.479,104.373,123.387,104.373z M123.387,121.715c-1.143,0-1.924-0.835-1.902-1.975
		c0-1.165,0.787-1.975,1.902-1.975c1.162,0,1.898,0.81,1.924,1.975C125.311,120.881,124.549,121.715,123.387,121.715z"/>
	<path fill="#FFFFFF" d="M162.122,104.287c-1.377-3.254-3.349-6.177-5.854-8.685c-2.509-2.508-5.431-4.477-8.686-5.854
		c-2.326-0.984-4.752-1.634-7.246-1.941c-0.168-3.837-1.011-7.564-2.506-11.096c-1.625-3.844-3.95-7.294-6.915-10.257
		c-2.961-2.962-6.413-5.289-10.256-6.914c-3.982-1.682-8.209-2.537-12.563-2.537c-6.048,0-11.943,1.683-17.053,4.869
		c-3.818,2.381-7.088,5.524-9.609,9.214c-2.481-1.243-5.237-1.904-8.047-1.904c-4.798,0-9.309,1.869-12.701,5.261
		c-3.393,3.394-5.261,7.903-5.261,12.701c0,0.384,0.012,0.767,0.036,1.148c-5.303,1.215-10.138,3.996-13.899,8.046
		c-4.705,5.068-7.295,11.668-7.295,18.586v0.152c0,3.688,0.723,7.267,2.148,10.637c1.377,3.255,3.346,6.178,5.854,8.684
		c2.508,2.512,5.43,4.479,8.685,5.856c3.372,1.425,6.95,2.147,10.637,2.147h75.353c3.688,0,7.268-0.725,10.639-2.147
		c3.255-1.377,6.175-3.347,8.686-5.856c2.51-2.504,4.479-5.429,5.854-8.684c1.425-3.37,2.146-6.949,2.146-10.637v-0.152
		C164.268,111.236,163.545,107.657,162.122,104.287z M160.616,115.077c0,13.073-10.601,23.673-23.675,23.673H61.589
		c-13.073,0-23.671-10.598-23.671-23.673v-0.151c0-12.436,9.592-22.634,21.782-23.596c-0.405-1.324-0.623-2.729-0.623-4.186
		c0-7.903,6.407-14.309,14.309-14.309c3.521,0,6.744,1.272,9.237,3.381c4.746-9.238,14.371-15.559,25.473-15.559
		c15.807,0,28.617,12.814,28.617,28.619c0,0.665-0.023,1.325-0.066,1.978h0.295c13.074,0,23.675,10.598,23.675,23.672V115.077z"/>
</g>
</svg>
