<svg xmlns="http://www.w3.org/2000/svg" width="24" height="24" viewBox="0 0 24 24">
  <g id="Group_180" data-name="Group 180" transform="translate(-563 -434)">
    <g id="Group_179" data-name="Group 179" transform="translate(563 434)">
      <path id="Path_77" data-name="Path 77" d="M0,0H24V24H0Z" fill="none"/>
      <g id="Group_178" data-name="Group 178" opacity="0.3">
        <circle id="Ellipse_21" data-name="Ellipse 21" cx="2" cy="2" r="2" transform="translate(7 7)" fill="#32c5d2"/>
        <path id="Path_78" data-name="Path 78" d="M9,17c-2.69,0-5.77,1.28-6,2H15C14.8,18.29,11.7,17,9,17Z" fill="#32c5d2"/>
      </g>
      <path id="Path_79" data-name="Path 79" d="M9,13A4,4,0,1,0,5,9,4,4,0,0,0,9,13ZM9,7A2,2,0,1,1,7,9,2.006,2.006,0,0,1,9,7Zm0,8c-2.67,0-8,1.34-8,4v2H17V19C17,16.34,11.67,15,9,15ZM3,19c.22-.72,3.31-2,6-2s5.8,1.29,6,2ZM16.76,5.36,15.08,7.05a3.317,3.317,0,0,1,0,3.89l1.68,1.69A5.117,5.117,0,0,0,16.76,5.36ZM20.07,2,18.44,3.63a7.978,7.978,0,0,1,0,10.74L20.07,16A9.829,9.829,0,0,0,20.07,2Z" fill="#32c5d2"/>
    </g>
  </g>
</svg>
