<?xml version="1.0" encoding="utf-8"?>
<!-- Generator: Adobe Illustrator 15.0.0, SVG Export Plug-In . SVG Version: 6.00 Build 0)  -->
<!DOCTYPE svg PUBLIC "-//W3C//DTD SVG 1.1//EN" "http://www.w3.org/Graphics/SVG/1.1/DTD/svg11.dtd">
<svg version="1.1" id="Layer_1" xmlns="http://www.w3.org/2000/svg" xmlns:xlink="http://www.w3.org/1999/xlink" x="0px" y="0px"
	 width="200px" height="200px" viewBox="0 0 200 200" enable-background="new 0 0 200 200" xml:space="preserve">
<g>
	<path fill="#32C5D2" d="M42.771,75.342c0.479-0.122,0.963,0.13,1.284,0.475c0.185,0.193,0.228,0.463,0.29,0.712
		c0.218,0.769,0.571,1.493,0.958,2.189c0.395,0.529,0.861,1.006,1.379,1.415c1.241,0.903,2.819,1.363,4.349,1.169
		c2.527-0.222,4.767-2.21,5.33-4.676c0.066-0.358,0.295-0.688,0.636-0.835c0.4-0.183,0.852-0.046,1.242,0.094
		c3.014,1.731,6.025,3.469,9.03,5.215c0.205,0.116,0.421,0.229,0.56,0.427c0.244,0.319,0.25,0.753,0.177,1.134
		c-0.06,0.295-0.293,0.497-0.503,0.689c-0.391,0.415-0.75,0.858-1.045,1.345c-0.581,0.77-0.807,1.738-0.931,2.677
		c-0.129,1.528,0.33,3.096,1.276,4.306c1.47,1.968,4.205,2.85,6.557,2.163c0.351-0.116,0.764-0.127,1.077,0.098
		c0.409,0.262,0.521,0.778,0.562,1.229c0.001,3.557,0,7.114,0,10.674c-0.016,0.703-0.788,1.184-1.441,1.091
		c-0.69-0.178-1.394-0.321-2.109-0.338c-0.813-0.104-1.611,0.122-2.374,0.38c-1.358,0.521-2.511,1.55-3.195,2.836
		c-0.647,1.192-0.896,2.61-0.639,3.945c0.171,1.056,0.636,2.06,1.304,2.893c0.222,0.271,0.479,0.507,0.705,0.771
		c0.302,0.39,0.277,0.991-0.057,1.352c-0.169,0.185-0.343,0.368-0.56,0.497c-3.087,1.779-6.173,3.563-9.259,5.346
		c-0.533,0.224-1.135-0.065-1.476-0.485c-0.179-0.222-0.186-0.518-0.269-0.776c-0.231-0.746-0.587-1.446-0.97-2.124
		c-0.655-0.871-1.514-1.603-2.516-2.048c-1.704-0.751-3.764-0.705-5.403,0.199c-1.409,0.723-2.472,2.044-2.977,3.54
		c-0.128,0.37-0.169,0.802-0.479,1.078c-0.29,0.287-0.731,0.346-1.111,0.235c-0.473-0.093-0.859-0.393-1.273-0.616
		c-2.656-1.528-5.308-3.067-7.963-4.597c-0.276-0.159-0.588-0.292-0.776-0.56c-0.24-0.339-0.247-0.79-0.151-1.179
		c0.083-0.342,0.399-0.529,0.617-0.778c0.242-0.279,0.493-0.554,0.688-0.869c0.342-0.477,0.681-0.969,0.835-1.543
		c0.536-1.521,0.447-3.26-0.292-4.697c-0.841-1.794-2.616-3.115-4.581-3.382c-0.857-0.164-1.749-0.098-2.59,0.125
		c-0.291,0.081-0.614,0.145-0.904,0.024c-0.346-0.126-0.595-0.438-0.683-0.789c-0.14-0.393-0.093-0.813-0.099-1.223
		c0-3.298,0.003-6.597,0-9.896c-0.042-0.781,0.857-1.371,1.573-1.17c0.871,0.27,1.792,0.344,2.699,0.34
		c0.711-0.104,1.428-0.266,2.075-0.592c2.183-1.005,3.626-3.41,3.497-5.807c-0.059-1.399-0.604-2.78-1.528-3.835
		c-0.298-0.346-0.751-0.641-0.771-1.144c-0.069-0.518,0.315-0.932,0.684-1.235c2.919-1.693,5.846-3.373,8.766-5.063
		C42.253,75.607,42.488,75.42,42.771,75.342 M35.269,82.146c0.696,0.88,1.175,1.917,1.48,2.992c0.244,0.932,0.31,1.904,0.249,2.864
		c-0.208,2.473-1.597,4.812-3.654,6.193c-0.901,0.592-1.91,1.031-2.974,1.236c-0.586,0.161-1.196,0.185-1.798,0.14
		c-0.47-0.038-0.941-0.021-1.409-0.074c0,2.778,0,5.555,0,8.331c1.544-0.184,3.154-0.001,4.572,0.655
		c1.371,0.61,2.583,1.589,3.421,2.838c0.428,0.574,0.721,1.235,1.002,1.889c0.47,1.282,0.598,2.679,0.429,4.031
		c-0.125,0.8-0.359,1.583-0.67,2.329c-0.231,0.453-0.526,0.87-0.801,1.296c-0.13,0.229-0.264,0.458-0.436,0.66
		c2.421,1.366,4.813,2.784,7.231,4.155c0.653-1.583,1.788-2.979,3.24-3.893c0.935-0.581,1.97-1.022,3.064-1.187
		c1.518-0.237,3.117-0.116,4.542,0.481c1.173,0.453,2.211,1.221,3.06,2.144c0.313,0.368,0.664,0.717,0.871,1.164
		c0.267,0.549,0.582,1.074,0.841,1.626c0.521-0.329,1.071-0.604,1.597-0.928c1.873-1.069,3.73-2.166,5.607-3.229
		c-1.379-1.796-2.015-4.155-1.661-6.396c0.363-2.552,2.014-4.872,4.285-6.085c0.941-0.515,1.992-0.816,3.057-0.954
		c0.579-0.079,1.163,0.041,1.742,0.024c0.231-0.007,0.46,0.008,0.689,0.042c-0.004-2.776,0.001-5.553-0.004-8.33
		c-2.494,0.348-5.133-0.485-6.944-2.244c-0.662-0.643-1.219-1.397-1.638-2.22c-1.128-2.145-1.206-4.791-0.271-7.019
		c0.21-0.622,0.657-1.12,0.973-1.688c0.099-0.186,0.223-0.356,0.36-0.515c-2.406-1.395-4.819-2.771-7.22-4.173
		c-0.199,0.48-0.439,0.943-0.723,1.381c-1.21,1.898-3.221,3.259-5.432,3.688c-0.771,0.106-1.552,0.192-2.328,0.099
		c-1.021-0.05-2.006-0.383-2.928-0.805c-0.834-0.409-1.597-0.96-2.244-1.625c-0.454-0.491-0.94-0.975-1.219-1.594
		c-0.228-0.5-0.534-0.962-0.743-1.471C40.076,79.363,37.668,80.747,35.269,82.146z"/>
	<path fill="#32C5D2" d="M48.816,85.749c0.382-0.027,0.767-0.052,1.148-0.038c0.57,0.041,1.031,0.606,0.96,1.173
		c-0.029,0.548-0.542,1.014-1.092,0.984c-0.659,0-1.313,0.093-1.961,0.207c-0.813,0.172-1.631,0.352-2.387,0.708
		c-1.118,0.44-2.146,1.083-3.078,1.838c-0.418,0.353-1.104,0.3-1.467-0.109c-0.414-0.421-0.379-1.181,0.078-1.556
		c1.304-1.08,2.802-1.924,4.399-2.485C46.514,86.087,47.664,85.877,48.816,85.749z"/>
	<path fill="#32C5D2" d="M54.561,86.841c0.318-0.107,0.659-0.032,0.95,0.117c2.126,0.846,4.063,2.191,5.533,3.951
		c0.504,0.561,0.931,1.188,1.342,1.818c0.207,0.27,0.282,0.627,0.197,0.957c-0.141,0.595-0.837,0.959-1.41,0.745
		c-0.426-0.133-0.633-0.553-0.859-0.9c-1.346-2.049-3.33-3.671-5.618-4.555c-0.372-0.128-0.728-0.385-0.838-0.777
		C53.678,87.648,54.008,87.007,54.561,86.841z"/>
	<path fill="#32C5D2" d="M49.929,89.798c2.561-0.103,5.144,0.812,7.065,2.503c2.072,1.803,3.385,4.449,3.543,7.193
		c0.16,2.415-0.559,4.885-2.005,6.83c-0.773,1.064-1.763,1.97-2.883,2.656c-0.374,0.232-0.887,0.202-1.229-0.074
		c-0.381-0.289-0.521-0.845-0.327-1.282c0.105-0.27,0.342-0.451,0.582-0.598c1.896-1.212,3.218-3.256,3.592-5.469
		c0.251-1.44,0.104-2.943-0.408-4.312c-0.904-2.437-3.023-4.401-5.557-5.026c-2.137-0.57-4.5-0.18-6.353,1.025
		c-0.273,0.181-0.54,0.419-0.884,0.436c-0.474,0.05-0.952-0.254-1.113-0.701c-0.178-0.447-0.007-0.995,0.391-1.267
		C45.961,90.541,47.934,89.866,49.929,89.798z"/>
	<path fill="#32C5D2" d="M38.06,92.513c0.608-0.143,1.268,0.338,1.299,0.964c0.061,0.426-0.225,0.771-0.397,1.13
		c-1.04,2.117-1.478,4.538-1.153,6.88c0.06,0.369,0.159,0.779-0.049,1.124c-0.249,0.483-0.882,0.696-1.378,0.48
		c-0.342-0.143-0.599-0.472-0.65-0.841c-0.531-3.128,0.045-6.427,1.597-9.194C37.478,92.78,37.75,92.573,38.06,92.513z"/>
	<path fill="#32C5D2" d="M49.79,94.15c1.943-0.168,3.97,0.652,5.175,2.201c0.789,0.919,1.286,2.094,1.38,3.304
		c0.049,0.563,0.066,1.134-0.046,1.689c-0.11,0.729-0.418,1.409-0.749,2.064c-0.227,0.468-0.605,0.839-0.97,1.204
		c-0.566,0.556-1.2,1.073-1.957,1.343c-0.767,0.329-1.605,0.466-2.438,0.455c-0.629,0.045-1.236-0.165-1.833-0.334
		c-1.154-0.342-2.153-1.102-2.895-2.038c-0.473-0.656-0.816-1.406-1.07-2.175c-0.322-1.33-0.25-2.78,0.323-4.035
		C45.54,95.779,47.595,94.323,49.79,94.15 M49.729,96.345c-0.631,0.102-1.256,0.33-1.746,0.752
		c-1.303,0.894-1.867,2.646-1.504,4.158c0.276,0.863,0.732,1.71,1.502,2.229c0.529,0.425,1.203,0.594,1.854,0.737
		c0.841,0.086,1.713-0.076,2.446-0.507c0.388-0.255,0.721-0.586,1.044-0.918c0.323-0.322,0.481-0.762,0.656-1.171
		c0.291-0.713,0.271-1.505,0.136-2.249c-0.192-0.883-0.724-1.664-1.411-2.24C51.878,96.479,50.773,96.184,49.729,96.345z"/>
	<path fill="#32C5D2" d="M42.133,94.271c0.509-0.177,1.118,0.094,1.326,0.591c0.146,0.325,0.114,0.716-0.072,1.017
		c-0.895,1.479-1.312,3.243-1.159,4.965c0.122,1.633,0.808,3.191,1.798,4.482c0.167,0.206,0.312,0.443,0.319,0.713
		c0.042,0.489-0.294,0.977-0.767,1.112c-0.413,0.132-0.892-0.016-1.162-0.356c-1.369-1.673-2.23-3.771-2.365-5.936
		c-0.15-2.109,0.369-4.264,1.461-6.074C41.651,94.546,41.868,94.354,42.133,94.271z"/>
	<path fill="#32C5D2" d="M62.699,97.303c0.6-0.254,1.354,0.155,1.458,0.8c0.541,3.122-0.005,6.43-1.556,9.196
		c-0.181,0.362-0.565,0.626-0.977,0.611c-0.56,0.025-1.078-0.465-1.087-1.022c-0.041-0.435,0.26-0.78,0.436-1.146
		c1.001-2.075,1.425-4.437,1.131-6.724c-0.037-0.276-0.108-0.548-0.088-0.826C62.051,97.798,62.331,97.441,62.699,97.303z"/>
	<path fill="#32C5D2" d="M38.139,105.938c0.365-0.075,0.77,0.038,1.02,0.32c0.176,0.208,0.301,0.452,0.454,0.672
		c1.333,2.02,3.292,3.619,5.546,4.499c0.314,0.117,0.641,0.285,0.8,0.601c0.286,0.509,0.076,1.219-0.448,1.479
		c-0.369,0.207-0.818,0.125-1.174-0.066c-2.706-1.07-5.052-3.008-6.625-5.453c-0.185-0.295-0.439-0.591-0.427-0.96
		C37.252,106.521,37.644,106.036,38.139,105.938z"/>
	<path fill="#32C5D2" d="M45.442,107.211c0.562-0.22,1.25,0.132,1.405,0.714c0.187,0.578-0.208,1.252-0.806,1.367
		c-0.575,0.143-1.205-0.273-1.301-0.854C44.631,107.927,44.947,107.376,45.442,107.211z"/>
	<path fill="#32C5D2" d="M48.597,108.255c0.505-0.092,1.013,0.069,1.522,0.063c0.425,0.041,0.884-0.121,1.285,0.085
		c0.454,0.218,0.71,0.776,0.566,1.262c-0.111,0.422-0.498,0.753-0.933,0.792c-0.768,0.083-1.542,0.01-2.306-0.081
		c-0.406-0.046-0.767-0.346-0.889-0.736C47.643,109.068,48.011,108.394,48.597,108.255z"/>
	<path fill="#32C5D2" d="M57.935,109.587c0.604-0.144,1.26,0.322,1.308,0.944c0.053,0.393-0.141,0.789-0.459,1.019
		c-0.873,0.68-1.795,1.303-2.798,1.773c-1.639,0.78-3.427,1.253-5.242,1.363c-0.453,0.025-0.977,0.127-1.355-0.191
		c-0.48-0.351-0.563-1.111-0.17-1.555c0.202-0.245,0.509-0.396,0.827-0.385c2.145-0.062,4.283-0.667,6.107-1.797
		c0.412-0.29,0.843-0.551,1.231-0.874C57.546,109.75,57.724,109.626,57.935,109.587z"/>
</g>
<g>
	<path fill="#999999" d="M160,126.711c-14.021,0-25-5.493-25-12.5c0-7.009,10.979-12.501,25-12.501s25,5.492,25,12.501
		C185,121.218,174.021,126.711,160,126.711z M160,104.487c-13.293,0-22.224,5.029-22.224,9.724c0,4.692,8.931,9.722,22.224,9.722
		s22.224-5.029,22.224-9.722C182.224,109.517,173.293,104.487,160,104.487z"/>
	<circle fill="#999999" cx="141.945" cy="141.988" r="1.389"/>
	<circle fill="#999999" cx="141.945" cy="128.099" r="1.388"/>
	<circle fill="#999999" cx="141.945" cy="155.878" r="1.389"/>
	<path fill="#999999" d="M160,168.377c-14.021,0-25-5.491-25-12.5v-41.666h2.776v41.666c0,4.696,8.931,9.722,22.224,9.722
		s22.224-5.025,22.224-9.722V114.44H185v41.437C185,162.886,174.021,168.377,160,168.377z"/>
	<path fill="#999999" d="M160,154.489c-14.021,0-25-5.493-25-12.5h2.776c0,4.693,8.931,9.722,22.224,9.722
		s22.224-5.028,22.224-9.722H185C185,148.996,174.021,154.489,160,154.489z"/>
	<path fill="#999999" d="M160,140.599c-14.021,0-25-5.491-25-12.5h2.776c0,4.694,8.931,9.722,22.224,9.722
		s22.224-5.027,22.224-9.722H185C185,135.107,174.021,140.599,160,140.599z"/>
</g>
<path fill="#999999" d="M179.861,32.342c-0.198-0.457-0.654-0.719-1.178-0.719h-37.368c-0.457,0-0.915,0.262-1.176,0.719
	c-0.196,0.458-0.196,0.98,0.064,1.372l15.811,22.212v21.233c0,0.523,0.326,0.979,0.784,1.177c0.131,0.065,0.327,0.13,0.522,0.13
	c0.327,0,0.654-0.13,0.915-0.393l5.227-5.228c0.26-0.26,0.391-0.586,0.391-0.914v-16.07l11.891-16.528h0.064v-0.065l3.987-5.554
	C180.057,33.322,180.057,32.8,179.861,32.342z M161.566,54.686c-0.131,0.195-0.26,0.457-0.26,0.782v15.878l-2.613,2.612v-18.49
	c0-0.261-0.065-0.521-0.261-0.782l-10.977-15.353h25.022L161.566,54.686z"/>
<g>
	<path fill="#32C5D2" stroke="#32C5D2" stroke-width="0.375" stroke-miterlimit="10" d="M114.27,120.616l-0.465,0.216l-0.931,0.431
		c0,0,3.563,7.632,3.653,7.831c-1.966-0.715-23.156-8.429-23.156-8.429l-0.525,1.443c0,0,21.19,7.714,23.155,8.427
		c-1.688,0.79-7.83,3.65-7.83,3.65l0.651,1.395l10.204-4.761L114.27,120.616z"/>
</g>
<g>
	<path fill="#32C5D2" stroke="#32C5D2" stroke-width="0.375" stroke-miterlimit="10" d="M103.856,73.104l0.175-0.481l0.354-0.962
		c0,0-7.916-2.877-8.122-2.954c1.896-0.884,22.334-10.413,22.334-10.413l-0.649-1.393c0,0-20.438,9.529-22.332,10.415
		c0.635-1.752,2.956-8.118,2.956-8.118l-1.447-0.525l-3.849,10.582L103.856,73.104z"/>
</g>
</svg>
