<?xml version="1.0" encoding="utf-8"?>
<!-- Generator: Adobe Illustrator 21.0.0, SVG Export Plug-In . SVG Version: 6.00 Build 0)  -->
<svg version="1.1" id="Layer_1" xmlns="http://www.w3.org/2000/svg" xmlns:xlink="http://www.w3.org/1999/xlink" x="0px" y="0px"
	 viewBox="0 0 200 200" style="enable-background:new 0 0 200 200;" xml:space="preserve">
<style type="text/css">
	.st0{fill:none;stroke:#999999;stroke-width:4;stroke-miterlimit:10;}
	.st1{fill:#FFFFFF;stroke:#999999;stroke-width:4;stroke-miterlimit:10;}
	.st2{fill:#3DCFCF;}
</style>
<g>
	<path class="st0" d="M120.2,147h-53c-2.8,0-5-2.3-5-5V70.6c0-2.8,2.2-5,5-5h53c2.8,0,5,2.3,5,5V142
		C125.2,144.7,122.9,147,120.2,147z"/>
	<path class="st1" d="M132.8,134.4h-53c-2.8,0-5-2.3-5-5V58c0-2.8,2.3-5,5-5h53c2.8,0,5,2.3,5,5v71.3
		C137.8,132.1,135.6,134.4,132.8,134.4z"/>
	<g>
		<g>
			<path class="st2" d="M124.7,73.3H87.9c-1.4,0-2.5,1.1-2.5,2.5c0,1.4,1.1,2.5,2.5,2.5h36.8c1.4,0,2.5-1.1,2.5-2.5
				C127.2,74.4,126.1,73.3,124.7,73.3z"/>
			<path class="st2" d="M124.7,85.2H87.9c-1.4,0-2.5,1.1-2.5,2.5c0,1.4,1.1,2.5,2.5,2.5h36.8c1.4,0,2.5-1.1,2.5-2.5
				C127.2,86.3,126.1,85.2,124.7,85.2z"/>
			<path class="st2" d="M124.7,97.2H87.9c-1.4,0-2.5,1.1-2.5,2.5c0,1.4,1.1,2.5,2.5,2.5h36.8c1.4,0,2.5-1.1,2.5-2.5
				C127.2,98.3,126.1,97.2,124.7,97.2z"/>
			<path class="st2" d="M124.7,109.1H87.9c-1.4,0-2.5,1.1-2.5,2.5c0,1.4,1.1,2.5,2.5,2.5h36.8c1.4,0,2.5-1.1,2.5-2.5
				C127.2,110.2,126.1,109.1,124.7,109.1z"/>
		</g>
	</g>
</g>
</svg>
