<?xml version="1.0" encoding="utf-8"?>
<!-- Generator: Adobe Illustrator 15.0.0, SVG Export Plug-In . SVG Version: 6.00 Build 0)  -->
<!DOCTYPE svg PUBLIC "-//W3C//DTD SVG 1.1//EN" "http://www.w3.org/Graphics/SVG/1.1/DTD/svg11.dtd">
<svg version="1.1" id="Layer_1" xmlns="http://www.w3.org/2000/svg" xmlns:xlink="http://www.w3.org/1999/xlink" x="0px" y="0px"
	 width="200px" height="200px" viewBox="0 0 200 200" enable-background="new 0 0 200 200" xml:space="preserve">
<g>
	<g>
		<path fill="#FFFFFF" d="M30,114.825v40.002c0,5.469,11.737,8.334,23.333,8.334c11.594,0,23.334-2.865,23.334-8.334v-40.002
			c0-5.472-11.74-8.333-23.334-8.333C41.737,106.492,30,109.354,30,114.825z M73.333,141.492c0,1.765-7.593,5.001-20,5.001
			s-19.999-3.236-19.999-5.001v-8.826c4.308,2.523,12.183,3.828,19.999,3.828c7.817,0,15.694-1.305,20-3.828V141.492z
			 M73.333,128.159c0,1.763-7.593,4.999-20,4.999s-19.999-3.236-19.999-4.999v-8.828c4.308,2.524,12.183,3.828,19.999,3.828
			c7.817,0,15.694-1.304,20-3.828V128.159z M53.333,109.826c12.407,0,20,3.238,20,4.999c0,1.763-7.593,5.002-20,5.002
			s-19.999-3.239-19.999-5.002C33.333,113.064,40.926,109.826,53.333,109.826z M53.333,160.207c-12.407,0-19.999-3.236-19.999-5.001
			v-8.828c4.308,2.526,12.183,3.829,19.999,3.829c7.817,0,15.694-1.303,20-3.829v8.828C73.333,156.971,65.74,160.207,53.333,160.207
			z"/>
	</g>
	<g>
		<path fill="#FFFFFF" d="M123.334,114.825v40.002c0,5.469,11.736,8.334,23.332,8.334S170,160.296,170,154.827v-40.002
			c0-5.472-11.738-8.333-23.334-8.333S123.334,109.354,123.334,114.825z M166.666,141.492c0,1.765-7.593,5.001-20,5.001
			c-12.406,0-20.001-3.236-20.001-5.001v-8.826c4.31,2.523,12.187,3.828,20.001,3.828c7.816,0,15.693-1.305,20-3.828V141.492z
			 M166.666,128.159c0,1.763-7.593,4.999-20,4.999c-12.406,0-20.001-3.236-20.001-4.999v-8.828
			c4.31,2.524,12.187,3.828,20.001,3.828c7.816,0,15.693-1.304,20-3.828V128.159z M146.666,109.826c12.407,0,20,3.238,20,4.999
			c0,1.763-7.593,5.002-20,5.002c-12.406,0-20.001-3.239-20.001-5.002C126.666,113.064,134.26,109.826,146.666,109.826z
			 M146.666,160.207c-12.406,0-20.001-3.236-20.001-5.001v-8.828c4.31,2.526,12.187,3.829,20.001,3.829
			c7.816,0,15.693-1.303,20-3.829v8.828C166.666,156.971,159.073,160.207,146.666,160.207z"/>
	</g>
	<g transform="translate(0,-952.36218)">
		<path fill="#FFFFFF" stroke="#FFFFFF" stroke-width="0.7778" stroke-miterlimit="10" d="M143.648,1046.075l1.183-10.018
			c0.024-0.241-0.155-0.461-0.381-0.484c-0.226-0.022-0.456,0.153-0.481,0.381l-1.066,9.021l-15.467-18.433
			c-0.156-0.182-0.428-0.205-0.607-0.054c-0.184,0.155-0.206,0.427-0.057,0.608l15.471,18.434l-9.071-0.516
			c-0.229-0.013-0.442,0.183-0.457,0.41c-0.013,0.227,0.157,0.436,0.412,0.459l10.069,0.573
			C143.453,1046.453,143.615,1046.26,143.648,1046.075L143.648,1046.075z"/>
	</g>
	<g transform="translate(0,-952.36218)">
		<path fill="#FFFFFF" stroke="#FFFFFF" stroke-width="0.7778" stroke-miterlimit="10" d="M70.312,1028.439
			c-0.034-0.185-0.195-0.378-0.455-0.381l-10.071,0.574c-0.253,0.022-0.424,0.229-0.412,0.458c0.013,0.229,0.231,0.424,0.458,0.411
			l9.07-0.517l-15.468,18.433c-0.152,0.185-0.13,0.456,0.054,0.609c0.182,0.153,0.454,0.129,0.608-0.054l15.466-18.434l1.068,9.021
			c0.027,0.228,0.257,0.403,0.483,0.382c0.224-0.024,0.406-0.245,0.379-0.485L70.312,1028.439L70.312,1028.439z"/>
	</g>
	<g>
		<path fill="#FFFFFF" d="M123.334,81.459l-7.912-19.481c3.76-8.271,2.534-17.61-3.469-22.742c-0.112-0.127-0.236-0.246-0.375-0.346
			c-0.412-0.291-0.912-0.439-1.484-0.439c-3.189,0-9.076,5.055-14.683,12.498l-3.012-1.623c-0.266-0.142-0.564-0.218-0.866-0.218
			c-0.612,0-1.18,0.305-1.522,0.814l-0.362,0.54c-0.533,0.796-0.368,1.873,0.377,2.454l2.582,2.014
			c-2.522,3.815-4.539,7.585-5.749,10.803c-1.358,3.61-1.563,6.177-0.626,7.515c0.06,0.15,0.163,0.281,0.301,0.371l0.08,0.051
			l0.001-0.002c0.055,0.047,0.107,0.096,0.164,0.137c0.138,0.099,0.289,0.174,0.445,0.239c2.384,1.391,5.064,2.098,7.968,2.098
			c4.724,0,9.546-1.952,13.512-5.294V81.46L123.334,81.459L123.334,81.459z M120.999,79.888h-10.724V69.412
			c0.988-0.99,1.906-2.072,2.736-3.24c0.538-0.76,1.026-1.541,1.471-2.335L120.999,79.888z M110.096,40.021
			c0.242,0,0.43,0.049,0.57,0.151c0.052,0.034,0.098,0.079,0.141,0.126c0.004,0.003,0.004,0.005,0.006,0.009
			c0.645,0.793,0.381,3.207-1.033,6.756c-0.02,0.043-0.032,0.087-0.055,0.133c-0.031,0.084-0.07,0.172-0.106,0.258
			c-1.015,2.445-2.545,5.383-4.646,8.64l-8.155-4.39C102.564,44.111,107.844,40.021,110.096,40.021z M90.995,51.679
			c-0.1-0.076-0.117-0.227-0.04-0.339l0.362-0.54c0.049-0.074,0.131-0.118,0.218-0.118c0.042,0,0.083,0.011,0.12,0.031l12.449,6.701
			c-0.359,0.536-0.734,1.079-1.127,1.632c-0.31,0.436-0.613,0.851-0.922,1.266L90.995,51.679z M89.911,72.206
			c-0.124,0.06-0.242,0.106-0.359,0.154c-0.086,0.034-0.174,0.073-0.255,0.104c-0.136,0.046-0.26,0.077-0.382,0.109
			c-0.055,0.014-0.115,0.034-0.167,0.047c-0.173,0.033-0.334,0.055-0.483,0.055c-0.004,0-0.007-0.003-0.012-0.003
			c-0.1,0-0.187-0.011-0.27-0.029c-0.022-0.006-0.045-0.013-0.067-0.019c-0.083-0.023-0.159-0.057-0.224-0.101
			c-0.034-0.025-0.068-0.056-0.099-0.089c-0.006-0.007-0.011-0.012-0.018-0.019c-0.522-0.594-0.61-2.488,0.758-6.13
			c1.159-3.082,3.092-6.703,5.52-10.387l7.254,5.661c-1.958,2.537-3.854,4.669-5.584,6.357c-0.039,0.036-0.079,0.077-0.116,0.115
			c-0.259,0.25-0.513,0.485-0.764,0.716c-0.068,0.063-0.138,0.129-0.206,0.192c-0.227,0.205-0.449,0.4-0.67,0.589
			c-0.087,0.075-0.177,0.151-0.261,0.225c-0.203,0.168-0.397,0.33-0.592,0.485c-0.101,0.078-0.2,0.158-0.299,0.234
			c-0.176,0.137-0.349,0.266-0.518,0.391c-0.111,0.08-0.219,0.156-0.326,0.23c-0.154,0.108-0.305,0.211-0.453,0.309
			c-0.116,0.076-0.228,0.145-0.34,0.214c-0.131,0.081-0.263,0.162-0.389,0.235c-0.12,0.067-0.235,0.126-0.35,0.186
			C90.128,72.098,90.017,72.156,89.911,72.206z M95.193,74.568c-1.732,0-3.374-0.276-4.905-0.823
			c0.002-0.002,0.004-0.002,0.006-0.004c0.049-0.022,0.1-0.049,0.148-0.072c0.198-0.09,0.397-0.185,0.603-0.295
			c0.089-0.046,0.182-0.103,0.272-0.156c0.171-0.097,1.572-1.011,1.681-1.09c0.183-0.133,0.365-0.27,0.553-0.412
			c0.106-0.084,0.215-0.168,0.323-0.254c0.196-0.155,0.392-0.316,0.592-0.482c0.104-0.086,0.207-0.174,0.31-0.263
			c0.215-0.185,0.432-0.377,0.65-0.573c0.093-0.083,0.182-0.162,0.274-0.249c0.25-0.227,0.498-0.464,0.751-0.705
			c0.067-0.064,0.131-0.126,0.198-0.19c0.988-0.964,2.002-2.039,3.027-3.214c0.013-0.014,0.026-0.03,0.04-0.045
			c0.321-0.371,0.644-0.747,0.966-1.137c0.057-0.067,0.111-0.137,0.17-0.204c0.279-0.34,0.562-0.684,0.842-1.037
			c0.074-0.096,0.149-0.192,0.229-0.289c0.261-0.331,0.521-0.669,0.781-1.01c0.04-0.052,0.081-0.103,0.121-0.157l-0.005-0.002
			c0.48-0.635,0.964-1.28,1.437-1.949c0.57-0.805,1.13-1.626,1.673-2.454l0.002,0.002c3.713-5.667,6.506-11.539,6.758-15.259
			c4.687,5.854,4.43,15.436-0.957,23.021C107.654,71.003,101.318,74.568,95.193,74.568z"/>
		<path fill="#FFFFFF" d="M87.317,53.542c-0.499-0.728-0.763-1.58-0.763-2.462c0-2.4,1.954-4.354,4.354-4.354
			c0.256,0,0.514,0.021,0.766,0.066l0.275-1.548c-0.341-0.061-0.692-0.092-1.041-0.092c-3.268,0-5.925,2.659-5.925,5.927
			c0,1.201,0.359,2.359,1.037,3.351L87.317,53.542z"/>
		<path fill="#FFFFFF" d="M90.909,42.666c0.544,0,1.087,0.054,1.619,0.157l0.302-1.542c-0.63-0.124-1.277-0.188-1.922-0.188
			c-5.508,0-9.986,4.479-9.986,9.985c0,1.963,0.573,3.867,1.655,5.505l1.311-0.866c-0.911-1.38-1.395-2.984-1.395-4.64
			C82.494,46.441,86.269,42.666,90.909,42.666z"/>
		<path fill="#FFFFFF" d="M90.909,38.41c0.665,0,1.336,0.054,1.991,0.157l0.249-1.552c-0.738-0.116-1.492-0.177-2.24-0.177
			c-7.853,0-14.242,6.39-14.242,14.243c0,2.753,0.79,5.428,2.286,7.739l1.319-0.854c-1.331-2.056-2.033-4.437-2.033-6.886
			C78.237,44.094,83.921,38.41,90.909,38.41z"/>
	</g>
</g>
</svg>
