<svg id="Group_123" data-name="Group 123" xmlns="http://www.w3.org/2000/svg" width="24" height="24" viewBox="0 0 24 24">
  <g id="Group_121" data-name="Group 121">
    <g id="Group_120" data-name="Group 120">
      <path id="Path_56" data-name="Path 56" d="M0,0H24V24H0Z" fill="none"/>
    </g>
  </g>
  <g id="Group_122" data-name="Group 122" transform="translate(4.001 4)">
    <path id="Path_57" data-name="Path 57" d="M13.5,20a1.986,1.986,0,0,1-1.983-1.981V16.513A1.986,1.986,0,0,1,13.5,14.531h1.5a1.984,1.984,0,0,1,1.982,1.982v1.506A1.984,1.984,0,0,1,15.008,20Zm0-4.515a1,1,0,0,0-1.028,1.028v1.506A1,1,0,0,0,13.5,19.046h1.5a1,1,0,0,0,1.028-1.027V16.513a1.005,1.005,0,0,0-1.028-1.028ZM5.982,20A1.984,1.984,0,0,1,4,18.019V16.513a1.984,1.984,0,0,1,1.982-1.982h1.5a1.983,1.983,0,0,1,1.979,1.982v1.506A1.982,1.982,0,0,1,7.486,20Zm0-4.515a1.005,1.005,0,0,0-1.028,1.028v1.506a1.005,1.005,0,0,0,1.028,1.027h1.5a1,1,0,0,0,1.025-1.027V16.513a1,1,0,0,0-1.025-1.028Zm7.522-3.01a1.986,1.986,0,0,1-1.983-1.982V5.981A1.986,1.986,0,0,1,13.5,4h4.515A1.982,1.982,0,0,1,20,5.981v4.512a1.983,1.983,0,0,1-1.979,1.982Zm0-7.522a1,1,0,0,0-1.028,1.028v4.512A1,1,0,0,0,13.5,11.522h4.515a1.006,1.006,0,0,0,1.028-1.029V5.981a1.005,1.005,0,0,0-1.028-1.028ZM5.982,12.475A1.984,1.984,0,0,1,4,10.493v-1.5A1.986,1.986,0,0,1,5.982,7.009h1.5A1.984,1.984,0,0,1,9.466,8.992v1.5a1.983,1.983,0,0,1-1.98,1.983Zm0-4.512A1.006,1.006,0,0,0,4.954,8.992v1.5a1.006,1.006,0,0,0,1.028,1.03h1.5a1,1,0,0,0,1.025-1.029v-1.5a1,1,0,0,0-1.025-1.03Z" transform="translate(-4 -4)" fill="#999"/>
  </g>
</svg>
