<?xml version="1.0" encoding="utf-8"?>
<!-- Generator: Adobe Illustrator 15.0.0, SVG Export Plug-In . SVG Version: 6.00 Build 0)  -->
<!DOCTYPE svg PUBLIC "-//W3C//DTD SVG 1.1//EN" "http://www.w3.org/Graphics/SVG/1.1/DTD/svg11.dtd">
<svg version="1.1" id="Layer_1" xmlns="http://www.w3.org/2000/svg" xmlns:xlink="http://www.w3.org/1999/xlink" x="0px" y="0px"
	 width="200px" height="200px" viewBox="0 0 200 200" enable-background="new 0 0 200 200" xml:space="preserve">
<path fill="#999999" d="M105.979,136.643h1.983 M49.468,47.378l114.966,0.063l0.066-0.004v1.922v87.284H49.443l0.004-87.284
	 M51.427,49.359v85.3h111.089v-85.3H51.427z"/>
<g>
	<circle fill="#999999" cx="72.042" cy="114.701" r="18.002"/>
	<path fill="#FFFFFF" stroke="#999999" stroke-width="2.2363" stroke-miterlimit="10" d="M58.98,127.143
		c-7.01-7.012-7.01-18.358,0-25.369c7.012-7.011,18.359-7.011,25.37,0c7.012,7.011,7.012,18.357,0,25.369
		C77.339,134.152,65.992,134.152,58.98,127.143z"/>
	<path fill="#999999" d="M56.227,125.854c0.437-0.436,1.249-0.332,2.812,1.23l0,0c1.56,1.561,1.666,2.373,1.229,2.811
		l-20.003,21.619c-0.435,0.435-2.056-0.479-3.616-2.039l0,0c-1.563-1.563-2.475-3.184-2.04-3.619L56.227,125.854z"/>
	<g>
		<path fill="#32C5D2" d="M64.581,122.886v-16.389c0-0.749,0-0.749-0.751-0.749c-0.75,0-0.733,0.018-0.733,0.768v16.389
			c0,0.752,0,0.752,0.751,0.752S64.581,123.637,64.581,122.886z M69.424,120.652h-3.342v-8.938h3.36v8.938H69.424L69.424,120.652z
			 M74.464,120.652h-3.359v-13.404h3.359V120.652z M79.486,120.652h-3.36v-6.096h3.36V120.652z M63.848,123.637h16.389
			c0.751,0,0.751,0,0.751-0.751c0-0.75,0-0.75-0.751-0.75H63.848c-0.751,0-0.751,0-0.751,0.75
			C63.097,123.637,63.097,123.637,63.848,123.637z"/>
	</g>
</g>
<g>
	<path fill="#32C5D2" d="M107.468,116.807c-9.039,0-16.366-7.326-16.366-16.365h16.366V84.076c9.038,0,16.365,7.327,16.365,16.366
		C123.833,109.479,116.506,116.807,107.468,116.807z"/>
	<path fill="#32C5D2" d="M88.126,97.962c0-9.313,7.55-16.862,16.862-16.862v16.862H88.126z"/>
	<rect x="83.167" y="78.125" fill="#32C5D2" width="3.967" height="1.984"/>
	<rect x="55.395" y="78.125" fill="#32C5D2" width="23.805" height="1.984"/>
	<rect x="69.28" y="72.173" fill="#32C5D2" width="3.968" height="1.984"/>
	<rect x="77.215" y="72.173" fill="#32C5D2" width="9.919" height="1.984"/>
	<rect x="55.395" y="72.173" fill="#32C5D2" width="9.918" height="1.984"/>
	<rect x="83.167" y="56.303" fill="#32C5D2" width="49.593" height="3.968"/>
	<rect x="93.085" y="64.238" fill="#32C5D2" width="29.755" height="3.968"/>
	<polygon fill="#32C5D2" points="85.85,90.027 85.85,92.01 81.183,92.01 75.232,86.059 55.395,86.125 55.395,84.076 76.224,84.076 
		82.175,90.027 	"/>
	<rect x="126.809" y="119.783" fill="#32C5D2" width="9.92" height="1.982"/>
	<rect x="148.63" y="119.783" fill="#32C5D2" width="9.919" height="1.982"/>
	<rect x="140.693" y="119.783" fill="#32C5D2" width="3.969" height="1.982"/>
	<rect x="126.809" y="125.734" fill="#32C5D2" width="23.805" height="1.982"/>
	<rect x="154.581" y="125.734" fill="#32C5D2" width="3.968" height="1.982"/>
	<polygon fill="#32C5D2" points="127.801,109.864 127.801,107.881 132.468,107.881 138.419,113.832 158.256,113.768 
		158.256,115.814 137.428,115.814 131.477,109.864 	"/>
</g>
</svg>
