<?xml version="1.0" encoding="utf-8"?>
<!-- Generator: Adobe Illustrator 15.0.0, SVG Export Plug-In . SVG Version: 6.00 Build 0)  -->
<!DOCTYPE svg PUBLIC "-//W3C//DTD SVG 1.1//EN" "http://www.w3.org/Graphics/SVG/1.1/DTD/svg11.dtd">
<svg version="1.1" id="Layer_1" xmlns="http://www.w3.org/2000/svg" xmlns:xlink="http://www.w3.org/1999/xlink" x="0px" y="0px"
	 width="200px" height="200px" viewBox="0 0 200 200" enable-background="new 0 0 200 200" xml:space="preserve">
<g>
	<path fill="#32C5D2" d="M42,76h12v12c0,1.106,0.896,2,2,2h16v12c0,1.106,0.896,2,2,2h28c1.104,0,2-0.894,2-2V70
		c0-1.106-0.896-2-2-2H86V56c0-1.106-0.896-2-2-2H72V42c0-1.106-0.896-2-2-2H42c-1.104,0-2,0.894-2,2v32C40,75.106,40.896,76,42,76z
		 M100,100H76V72h24V100z M82,68h-8c-1.104,0-2,0.894-2,2H62v4h10v4H62v4h10v4H58V58h24V68z M44,44h24v10H56c-1.104,0-2,0.894-2,2
		h-6v4h6v4h-6v4h6v4H44V44z"/>
	<rect x="48" y="48" fill="#32C5D2" width="16" height="4"/>
	<rect x="62" y="62" fill="#32C5D2" width="16" height="4"/>
	<path fill="#999999" d="M142.828,134l4.586-4.586c0.782-0.782,0.782-2.046,0-2.828L142.828,122l10.586-10.586
		c0.782-0.782,0.782-2.046,0-2.828l-8-8c-0.782-0.782-2.046-0.782-2.828,0l-42,42c-0.782,0.782-0.782,2.046,0,2.828l8,8
		c0.391,0.39,0.901,0.586,1.414,0.586s1.023-0.196,1.414-0.586L122,142.828l4.586,4.586c0.391,0.39,0.901,0.586,1.414,0.586
		s1.023-0.196,1.414-0.586l4.586-4.586l16.586,16.586c0.391,0.39,0.901,0.586,1.414,0.586s1.023-0.196,1.414-0.586l6-6
		c0.782-0.782,0.782-2.046,0-2.828L142.828,134z M110,149.172L104.828,144L144,104.828l5.172,5.172l-10.586,10.586l-18,18
		L110,149.172z M128,143.172L124.828,140L140,124.828l3.172,3.172l-4.586,4.586l-6,6L128,143.172z M152,155.172L136.828,140
		l3.172-3.172L155.172,152L152,155.172z"/>
	
		<rect x="92.998" y="127.928" transform="matrix(-0.7071 0.7071 -0.7071 -0.7071 257.6302 163.2832)" fill="#999999" width="4" height="14.141"/>
	
		<rect x="127.999" y="82.686" transform="matrix(-0.707 0.7072 -0.7072 -0.707 288.3874 68.5319)" fill="#999999" width="4" height="22.628"/>
	
		<rect x="122.999" y="104.758" transform="matrix(-0.7071 0.7071 -0.7071 -0.7071 290.4632 97.6891)" fill="#999999" width="4.001" height="8.487"/>
	<rect x="80" y="76" fill="#32C5D2" width="16" height="4"/>
	<rect x="80" y="84" fill="#32C5D2" width="16" height="4"/>
	<rect x="80" y="92" fill="#32C5D2" width="16" height="4"/>
	<path fill="#999999" d="M116,74c-3.308,0-6,2.692-6,6s2.692,6,6,6s6-2.692,6-6S119.308,74,116,74z M116,82c-1.102,0-2-0.896-2-2
		s0.898-2,2-2s2,0.896,2,2S117.102,82,116,82z"/>
	<path fill="#999999" d="M108,98c0,3.308,2.692,6,6,6s6-2.692,6-6s-2.692-6-6-6S108,94.692,108,98z M116,98c0,1.104-0.898,2-2,2
		s-2-0.896-2-2s0.898-2,2-2S116,96.896,116,98z"/>
	
		<rect x="107.172" y="42" transform="matrix(-0.707 0.7072 -0.7072 -0.707 218.8883 -2.6812)" fill="#999999" width="5.655" height="4"/>
	<rect x="108" y="62" fill="#999999" width="6" height="4"/>
	<rect x="88" y="40" fill="#999999" width="4" height="6"/>
	
		<rect x="41.171" y="102" transform="matrix(-0.7071 0.7071 -0.7071 -0.7071 148.6472 146.4326)" fill="#999999" width="5.656" height="4"/>
	<rect x="40" y="82" fill="#999999" width="6" height="4"/>
	<rect x="62" y="102" fill="#999999" width="4" height="6"/>
	<path fill="#999999" d="M84,132c0.512,0,1.024-0.196,1.414-0.586l6-6c0.782-0.782,0.782-2.046,0-2.828l-6-6
		c-0.782-0.782-2.046-0.782-2.828,0l-6,6c-0.782,0.782-0.782,2.046,0,2.828l6,6C82.976,131.804,83.487,132,84,132z M84,120.828
		L87.171,124L84,127.172L80.828,124L84,120.828z"/>
</g>
</svg>
