<?xml version="1.0" encoding="utf-8"?>
<!-- Generator: Adobe Illustrator 15.0.0, SVG Export Plug-In . SVG Version: 6.00 Build 0)  -->
<!DOCTYPE svg PUBLIC "-//W3C//DTD SVG 1.1//EN" "http://www.w3.org/Graphics/SVG/1.1/DTD/svg11.dtd">
<svg version="1.1" id="Layer_1" xmlns="http://www.w3.org/2000/svg" xmlns:xlink="http://www.w3.org/1999/xlink" x="0px" y="0px"
	 width="200px" height="200px" viewBox="0 0 200 200" enable-background="new 0 0 200 200" xml:space="preserve">
<g>
	<g>
		<path fill="#999999" d="M87.75,74.915c-25.236,0-45-9.886-45-22.5s19.764-22.499,45-22.499c25.233,0,45,9.885,45,22.499
			S112.983,74.915,87.75,74.915z M87.75,34.916c-23.924,0-39.999,9.051-39.999,17.499c0,8.451,16.075,17.501,39.999,17.501
			s39.999-9.05,39.999-17.501C127.749,43.967,111.674,34.916,87.75,34.916z"/>
		<path fill="#999999" d="M55.251,99.917c1.38,0,2.499,1.116,2.499,2.496c0,1.387-1.119,2.503-2.499,2.503
			c-1.383,0-2.502-1.116-2.502-2.503C52.749,101.033,53.868,99.917,55.251,99.917z"/>
		<circle fill="#999999" cx="55.251" cy="77.416" r="2.5"/>
		<circle fill="#999999" cx="55.251" cy="127.414" r="2.5"/>
		<path fill="#999999" d="M87.75,149.915c-25.236,0-45-9.885-45-22.5v-75h5.001v75c0,8.449,16.075,17.502,39.999,17.502
			s39.999-9.053,39.999-17.502V52.83h5.001v74.585C132.75,140.03,112.983,149.915,87.75,149.915z"/>
		<path fill="#999999" d="M87.75,124.913c-25.236,0-45-9.881-45-22.5h5.001c0,8.453,16.075,17.505,39.999,17.505
			s39.999-9.052,39.999-17.505h5.001C132.75,115.032,112.983,124.913,87.75,124.913z"/>
		<path fill="#999999" d="M87.75,99.917c-25.236,0-45-9.888-45-22.501h5.001c0,8.45,16.075,17.5,39.999,17.5
			s39.999-9.05,39.999-17.5h5.001C132.75,90.029,112.983,99.917,87.75,99.917z"/>
	</g>
	<g>
		<g>
			<path fill="#FFFFFF" d="M110.142,147.138c13.135,0,23.838-10.703,23.838-23.839c0-13.135-10.703-23.837-23.838-23.837
				s-23.838,10.702-23.838,23.837C86.304,136.435,97.007,147.138,110.142,147.138z"/>
			<path fill="#999999" d="M110.142,151.192c15.405,0,27.892-12.486,27.892-27.894c0-15.405-12.486-27.891-27.892-27.891
				S82.25,107.976,82.25,123.299C82.25,138.624,94.736,151.192,110.142,151.192z M110.142,99.462
				c13.135,0,23.838,10.702,23.838,23.837c0,13.136-10.703,23.839-23.838,23.839s-23.838-10.703-23.838-23.839
				C86.304,110.164,97.007,99.462,110.142,99.462z"/>
			<path fill="#999999" d="M133.169,145.921c-1.622,1.623-1.622,4.136,0,5.757l17.188,17.188c0.811,0.813,1.865,1.218,2.839,1.218
				c0.973,0,2.108-0.405,2.838-1.218c1.621-1.621,1.621-4.134,0-5.755l-17.19-17.19
				C137.304,144.381,134.709,144.381,133.169,145.921z"/>
		</g>
		<polygon fill="#3DCFCF" points="116.392,139.836 112.577,129.274 114.854,129.274 111.734,121.5 114.586,121.5 103.892,106.764 
			107.781,117.428 105.496,117.428 108.537,125.202 105.697,125.202 		"/>
	</g>
</g>
</svg>
