<?xml version="1.0" encoding="utf-8"?>
<!-- Generator: Adobe Illustrator 23.0.0, SVG Export Plug-In . SVG Version: 6.00 Build 0)  -->
<svg version="1.1" id="Layer_1" xmlns="http://www.w3.org/2000/svg" xmlns:xlink="http://www.w3.org/1999/xlink" x="0px" y="0px"
	 viewBox="0 0 200 200" style="enable-background:new 0 0 200 200;" xml:space="preserve">
<style type="text/css">
	.st0{fill:#999999;}
	.st1{fill:#3DCFCF;}
</style>
<g>
	<g>
		<path class="st0" d="M71.3,109.5c-4.1-0.4-7.4,3-7.1,7.1c0.3,3.1,2.8,5.6,5.9,5.9c4.1,0.4,7.4-3,7.1-7.1
			C76.9,112.3,74.4,109.8,71.3,109.5z"/>
		<path class="st0" d="M59.9,135.5h21.7c1,0,1.7-0.8,1.7-1.7c0-5.3-4.2-9.6-9.5-9.6h-6c-5.3,0-9.6,4.3-9.6,9.6
			C58.2,134.7,58.9,135.5,59.9,135.5z"/>
	</g>
	<g>
		<path class="st0" d="M107.7,127.7c-4.1-0.4-7.4,3-7.1,7.1c0.3,3.1,2.8,5.6,5.9,5.9c4.1,0.4,7.4-3,7.1-7.1
			C113.3,130.5,110.8,128,107.7,127.7z"/>
		<path class="st0" d="M96.3,153.7H118c1,0,1.7-0.8,1.7-1.7c0-5.3-4.2-9.6-9.5-9.6h-6c-5.3,0-9.6,4.3-9.6,9.6
			C94.6,153,95.3,153.7,96.3,153.7z"/>
	</g>
	<g>
		<path class="st0" d="M145.2,93.4c-4.1-0.4-7.4,3-7.1,7.1c0.3,3.1,2.8,5.6,5.9,5.9c4.1,0.4,7.4-3,7.1-7.1
			C150.9,96.2,148.3,93.7,145.2,93.4z"/>
		<path class="st0" d="M133.8,119.4l21.7,0c1,0,1.7-0.8,1.7-1.7c0-5.3-4.2-9.6-9.5-9.6h-6c-5.3,0-9.6,4.3-9.6,9.6
			C132.1,118.6,132.9,119.4,133.8,119.4z"/>
	</g>
	<g>
		<path class="st0" d="M119.2,61.2c-4.1-0.4-7.4,3-7.1,7.1c0.3,3.1,2.8,5.6,5.9,5.9c4.1,0.4,7.4-3,7.1-7.1
			C124.9,64,122.3,61.5,119.2,61.2z"/>
		<path class="st0" d="M107.8,87.2h21.7c1,0,1.7-0.8,1.7-1.7c0-5.3-4.2-9.6-9.5-9.6h-6c-5.3,0-9.6,4.3-9.6,9.6
			C106.1,86.4,106.9,87.2,107.8,87.2z"/>
	</g>
	<g>
		<path class="st1" d="M71.3,61.2c-4.1-0.4-7.4,3-7.1,7.1c0.3,3.1,2.8,5.6,5.9,5.9c4.1,0.4,7.4-3,7.1-7.1
			C76.9,64,74.4,61.5,71.3,61.2z"/>
		<path class="st1" d="M59.9,87.2h21.7c1,0,1.7-0.8,1.7-1.7c0-5.3-4.2-9.6-9.5-9.6h-6c-5.3,0-9.6,4.3-9.6,9.6
			C58.2,86.4,58.9,87.2,59.9,87.2z"/>
	</g>
	<g>
		<path class="st0" d="M131.8,138.2c-0.8,0-1.7-0.4-2.3-1L92.3,100c-0.6-0.6-1-1.5-1-2.3c0-0.9,0.4-1.7,1-2.3
			c0.6-0.6,1.4-0.9,2.3-0.9c0.9,0,1.7,0.3,2.3,0.9l37.2,37.2c1.3,1.3,1.3,3.4,0,4.7C133.5,137.8,132.6,138.2,131.8,138.2z"/>
		<g>
			<g>
				<path class="st0" d="M70.7,102.1c15.4,0,27.9-12.5,27.9-27.9c0-15.4-12.5-27.9-27.9-27.9S42.8,58.9,42.8,74.2
					C42.8,89.5,55.3,102.1,70.7,102.1z M70.7,50.3c13.1,0,23.8,10.7,23.8,23.8C94.6,87.3,83.9,98,70.7,98S46.9,87.3,46.9,74.2
					C46.9,61,57.6,50.3,70.7,50.3z"/>
			</g>
		</g>
	</g>
</g>
</svg>
