<?xml version="1.0" encoding="utf-8"?>
<!-- Generator: Adobe Illustrator 15.0.0, SVG Export Plug-In . SVG Version: 6.00 Build 0)  -->
<!DOCTYPE svg PUBLIC "-//W3C//DTD SVG 1.1//EN" "http://www.w3.org/Graphics/SVG/1.1/DTD/svg11.dtd">
<svg version="1.1" id="Layer_1" xmlns="http://www.w3.org/2000/svg" xmlns:xlink="http://www.w3.org/1999/xlink" x="0px" y="0px"
	 width="100px" height="100px" viewBox="0 0 100 100" enable-background="new 0 0 100 100" xml:space="preserve">
<path fill="#E6E6E6" stroke="#3FA9F5" stroke-width="0.7" stroke-miterlimit="10" d="M75.65,78.109h-4.352v-2.953
	c0-0.168-0.137-0.307-0.305-0.307c-0.169,0-0.305,0.138-0.305,0.307v2.953h-5.498v-2.953c0-0.168-0.138-0.307-0.306-0.307
	c-0.17,0-0.307,0.138-0.307,0.307v2.953h-5.497v-2.953c0-0.168-0.137-0.307-0.307-0.307c-0.168,0-0.306,0.138-0.306,0.307v2.953
	h-5.498v-2.953c0-0.168-0.137-0.307-0.306-0.307s-0.305,0.138-0.305,0.307v2.953h-5.497v-2.953c0-0.168-0.137-0.307-0.306-0.307
	s-0.306,0.138-0.306,0.307v2.953h-5.498v-2.953c0-0.168-0.137-0.307-0.306-0.307c-0.168,0-0.305,0.138-0.305,0.307v2.953h-5.498
	v-2.953c0-0.168-0.137-0.307-0.306-0.307c-0.168,0-0.305,0.138-0.305,0.307v2.953h-5.498v-2.953c0-0.168-0.137-0.307-0.306-0.307
	c-0.168,0-0.305,0.138-0.305,0.307v2.953H16.833v-6.923h2.454c0.167,0,0.305-0.137,0.305-0.305c0-0.17-0.138-0.307-0.305-0.307
	h-2.454v-5.497h2.454c0.167,0,0.305-0.137,0.305-0.307c0-0.169-0.138-0.306-0.305-0.306h-2.454v-5.497h2.454
	c0.167,0,0.305-0.137,0.305-0.307c0-0.167-0.138-0.305-0.305-0.305h-2.454v-5.498h2.454c0.167,0,0.305-0.136,0.305-0.306
	c0-0.167-0.138-0.306-0.305-0.306h-2.454V46.75h2.454c0.167,0,0.305-0.137,0.305-0.305s-0.138-0.306-0.305-0.306h-2.454v-5.498
	h2.454c0.167,0,0.305-0.137,0.305-0.306c0-0.168-0.138-0.306-0.305-0.306h-2.454v-5.498h2.454c0.167,0,0.305-0.136,0.305-0.306
	c0-0.168-0.138-0.305-0.305-0.305h-2.454v-5.498h2.454c0.167,0,0.305-0.136,0.305-0.306c0-0.168-0.138-0.305-0.305-0.305h-2.454
	v-4.989c0-0.506-0.411-0.916-0.917-0.916c-0.505,0-0.917,0.413-0.917,0.918v56.199c0,0.506,0.41,0.917,0.916,0.917H75.65
	c0.506,0,0.916-0.411,0.916-0.917S76.156,78.109,75.65,78.109z"/>
<rect x="24.557" y="30.221" fill="#E6E6E6" stroke="#3FA9F5" stroke-width="0.7" stroke-miterlimit="10" width="6.262" height="41.413"/>
<path fill="#E6E6E6" stroke="#3FA9F5" stroke-width="0.7" stroke-miterlimit="10" d="M44.104,49.71
	c-0.821-1.072-1.485-2.224-1.994-3.428h-4.268v25.352h6.262V49.71z"/>
<path fill="#E6E6E6" stroke="#3FA9F5" stroke-width="0.7" stroke-miterlimit="10" d="M57.237,55.878
	c-0.202,0.009-0.406,0.021-0.608,0.021c-1.965,0-3.872-0.36-5.652-1.041v16.773h6.261V55.878z"/>
<path fill="#E6E6E6" stroke="#3FA9F5" stroke-width="0.7" stroke-miterlimit="10" d="M70.981,59.646l-6.025-6.112
	c-0.076,0.048-0.158,0.089-0.236,0.136v17.963h6.262V59.646L70.981,59.646z"/>
<path fill="#E6E6E6" stroke="#3FA9F5" stroke-width="0.7" stroke-miterlimit="10" d="M84.486,65.981L67.58,48.828
	c4.238-5.468,3.86-13.385-1.158-18.405c-5.44-5.44-14.294-5.44-19.736,0c-5.441,5.441-5.441,14.294,0,19.736
	c5.019,5.02,12.936,5.396,18.404,1.158l16.906,17.153c0.687,0.688,1.801,0.688,2.487,0C85.173,67.783,85.173,66.669,84.486,65.981z
	 M63.937,47.672c-4.07,4.069-10.692,4.07-14.762,0c-4.069-4.069-4.069-10.69,0-14.759c4.07-4.07,10.69-4.07,14.762,0
	C68.005,36.981,68.005,43.603,63.937,47.672z"/>
<path fill="#3FA9F5" stroke="#3FA9F5" stroke-width="0.4738" stroke-miterlimit="10" d="M56.839,39.161
	c-1.081-0.447-1.395-0.717-1.395-1.207c0-0.391,0.287-0.849,1.094-0.849c0.761,0,1.237,0.273,1.442,0.39
	c0.052,0.03,0.115,0.036,0.172,0.015c0.058-0.021,0.102-0.064,0.124-0.121l0.308-0.811c0.036-0.094-0.003-0.201-0.089-0.251
	c-0.439-0.256-0.93-0.403-1.493-0.446v-0.994c0-0.114-0.092-0.207-0.206-0.207h-0.761c-0.113,0-0.206,0.092-0.206,0.207v1.068
	c-1.131,0.25-1.852,1.076-1.852,2.145c0,1.29,1.035,1.875,2.151,2.314c0.893,0.36,1.257,0.728,1.257,1.267
	c0,0.595-0.504,0.995-1.252,0.995c-0.58,0-1.182-0.179-1.65-0.492c-0.054-0.036-0.119-0.044-0.181-0.025
	c-0.06,0.02-0.109,0.066-0.13,0.126l-0.294,0.821c-0.031,0.087,0,0.185,0.075,0.238c0.43,0.307,1.114,0.523,1.789,0.569v1.041
	c0,0.114,0.093,0.207,0.207,0.207h0.772c0.113,0,0.207-0.093,0.207-0.207v-1.105c1.165-0.26,1.938-1.148,1.938-2.254
	C58.866,40.468,58.259,39.74,56.839,39.161z"/>
</svg>
