<?xml version="1.0" encoding="utf-8"?>
<!-- Generator: Adobe Illustrator 15.0.0, SVG Export Plug-In . SVG Version: 6.00 Build 0)  -->
<!DOCTYPE svg PUBLIC "-//W3C//DTD SVG 1.1//EN" "http://www.w3.org/Graphics/SVG/1.1/DTD/svg11.dtd">
<svg version="1.1" id="Layer_1" xmlns="http://www.w3.org/2000/svg" xmlns:xlink="http://www.w3.org/1999/xlink" x="0px" y="0px"
	 width="100px" height="100px" viewBox="0 0 100 100" enable-background="new 0 0 100 100" xml:space="preserve">
<g id="Layer_2">
</g>
<g>
	<path fill="#666666" d="M70.336,34.013h-40.67c-1.301,0-2.362,1.051-2.362,2.355v8.02c0,1.302,1.062,2.353,2.362,2.353h40.67
		c1.297,0,2.359-1.051,2.359-2.353v-8.02C72.695,35.065,71.633,34.013,70.336,34.013z M31.557,39.599
		c-0.803,0-1.456-0.651-1.456-1.456c0-0.801,0.651-1.453,1.456-1.453s1.454,0.651,1.454,1.453
		C33.011,38.948,32.361,39.599,31.557,39.599z M66.492,43.792H56.219v-3.414h10.273V43.792L66.492,43.792z"/>
	<path fill="#939393" d="M70.336,48.038h-40.67c-1.301,0-2.362,1.053-2.362,2.358v8.018c0,1.301,1.062,2.355,2.362,2.355h40.67
		c1.297,0,2.359-1.055,2.359-2.355v-8.018C72.695,49.091,71.633,48.038,70.336,48.038z M31.557,53.625
		c-0.803,0-1.456-0.648-1.456-1.453s0.651-1.457,1.456-1.457s1.454,0.652,1.454,1.457C33.011,52.973,32.361,53.625,31.557,53.625z
		 M66.492,57.816H56.219v-3.414h10.273V57.816L66.492,57.816z"/>
	<path fill="#CCCCCC" d="M70.336,62.063h-40.67c-1.301,0-2.362,1.055-2.362,2.359v8.02c0,1.301,1.062,2.355,2.362,2.355h40.67
		c1.297,0,2.359-1.055,2.359-2.355v-8.02C72.695,63.117,71.633,62.063,70.336,62.063z M31.557,67.648
		c-0.803,0-1.456-0.645-1.456-1.453c0-0.805,0.651-1.453,1.456-1.453s1.454,0.648,1.454,1.453
		C33.011,67.004,32.361,67.648,31.557,67.648z M66.492,71.84H56.219v-3.414h10.273V71.84L66.492,71.84z"/>
	<polygon fill="#CCCCCC" points="57.023,82.465 52.691,82.465 52.691,76.16 47.312,76.16 47.312,82.465 42.973,82.465 
		42.973,84.125 27.802,84.125 27.802,89.504 42.973,89.504 42.973,91.168 57.023,91.168 57.023,89.504 72.195,89.504 72.195,84.125 
		57.023,84.125 	"/>
	<path fill="#444444" d="M74.004,21.077c-0.578-0.047-1.113-0.345-1.461-0.813c-3.262-4.404-8.488-7.121-14.055-7.121
		c-0.348,0-0.695,0.01-1.047,0.031c-0.48,0.03-0.953-0.113-1.344-0.406c-3.383-2.555-7.488-3.938-11.784-3.938
		c-7.699,0-14.531,4.459-17.723,11.211c-0.293,0.62-0.879,1.049-1.558,1.143C16.55,22.378,10,29.685,10,38.491
		c0,8.397,5.952,15.423,13.861,17.095v-5.19c0-0.648,0.119-1.264,0.319-1.846c-4.229-1.391-7.294-5.371-7.294-10.059
		c0-5.837,4.75-10.59,10.592-10.59c0.294,0,0.584,0.022,0.874,0.045c1.683,0.13,3.204-0.961,3.615-2.592
		c1.425-5.676,6.501-9.641,12.346-9.641c3.34,0,6.5,1.292,8.897,3.633c0.824,0.801,1.984,1.141,3.105,0.906
		c0.719-0.148,1.445-0.224,2.172-0.224c4.09,0,7.742,2.298,9.531,5.998c0.625,1.301,2,2.077,3.438,1.93
		c0.359-0.035,0.719-0.055,1.063-0.055c5.844,0,10.594,4.752,10.594,10.592c0,4.688-3.066,8.666-7.297,10.059
		c0.199,0.58,0.32,1.197,0.32,1.845v5.192C84.043,53.91,90,46.888,90,38.491C89.996,29.354,82.949,21.833,74.004,21.077z"/>
</g>
</svg>
