<?xml version="1.0" ?><!DOCTYPE svg  PUBLIC '-//W3C//DTD SVG 1.1//EN'  'http://www.w3.org/Graphics/SVG/1.1/DTD/svg11.dtd'><svg enable-background="new 0 0 100 100" height="100px" version="1.1" viewBox="0 0 100 100" width="100px" xml:space="preserve" xmlns="http://www.w3.org/2000/svg" xmlns:xlink="http://www.w3.org/1999/xlink"><g id="Layer_1"><g><polygon fill="#759C3E" points="50,28.778 79.823,37.568 79.823,28.912 50,14   "/><polygon fill="#759C3E" points="73.839,47.64 50,46.472 50,60.872 73.839,57.272   "/><polygon fill="#4B612C" points="26.162,47.64 50,46.472 50,60.872 26.162,57.272   "/><polygon fill="#4B612C" points="50,28.778 20.177,37.568 20.177,28.912 50,14   "/><polygon fill="#3C4929" points="20.177,37.568 50,28.778 79.823,37.568 50,41.209   "/><polygon fill="#759C3E" points="65.875,69.44 50,74.938 50,86 65.875,78.062   "/><polygon fill="#4B612C" points="34.125,69.44 50,74.938 50,86 34.125,78.062   "/><polygon fill="#B7CA9D" points="65.875,69.44 50,65.928 34.125,69.44 50,74.938   "/></g></g></svg>