<?xml version="1.0" encoding="utf-8"?>
<!-- Generator: Adobe Illustrator 15.0.0, SVG Export Plug-In . SVG Version: 6.00 Build 0)  -->
<!DOCTYPE svg PUBLIC "-//W3C//DTD SVG 1.1//EN" "http://www.w3.org/Graphics/SVG/1.1/DTD/svg11.dtd">
<svg version="1.1" id="Layer_1" xmlns="http://www.w3.org/2000/svg" xmlns:xlink="http://www.w3.org/1999/xlink" x="0px" y="0px"
	 width="100px" height="100px" viewBox="0 0 100 100" enable-background="new 0 0 100 100" xml:space="preserve">
<g>
	<g>
		<path fill="#E8E8E8" stroke="#0071BC" stroke-width="0.5" stroke-miterlimit="10" d="M65.803,43.311
			c0-0.153-0.082-0.294-0.214-0.371c-0.133-0.076-0.296-0.076-0.428,0l-8.263,4.771c-0.439,0.254-0.711,0.723-0.711,1.23v9.542
			c0,0.152,0.081,0.293,0.214,0.369c0.132,0.077,0.295,0.077,0.428,0.001l7.947-4.588c0.635-0.367,1.026-1.045,1.026-1.778V43.311z"
			/>
		<path fill="#E8E8E8" stroke="#0071BC" stroke-width="0.5" stroke-miterlimit="10" d="M46.443,42.94
			c-0.132-0.076-0.295-0.077-0.427,0c-0.133,0.077-0.214,0.217-0.214,0.37c0,0,0,0,0,0v9.177c0,0.733,0.391,1.411,1.026,1.778
			l7.947,4.587c0,0,0,0.001,0.001,0.001c0.132,0.076,0.295,0.076,0.428-0.001c0.131-0.076,0.213-0.218,0.213-0.37v-9.542
			c0-0.508-0.271-0.977-0.711-1.23L46.443,42.94z"/>
		<path fill="#E8E8E8" stroke="#0071BC" stroke-width="0.5" stroke-miterlimit="10" d="M64.776,42.274
			c0.132-0.076,0.214-0.217,0.214-0.37c0-0.152-0.081-0.294-0.214-0.37l0,0l-7.947-4.589c-0.636-0.367-1.418-0.367-2.053,0
			l-7.947,4.588c-0.001,0-0.001,0-0.001,0c-0.132,0.077-0.214,0.218-0.214,0.371s0.082,0.293,0.215,0.37l8.263,4.771
			c0.439,0.254,0.981,0.254,1.421,0L64.776,42.274z"/>
	</g>
	<g>
		<path fill="#E8E8E8" stroke="#0071BC" stroke-width="0.5" stroke-miterlimit="10" d="M77.636,50.105
			c0-0.153-0.082-0.294-0.214-0.371c-0.133-0.076-0.296-0.076-0.428,0l-8.263,4.771c-0.439,0.254-0.711,0.723-0.711,1.23v9.542
			c0,0.152,0.081,0.293,0.214,0.369c0.132,0.077,0.295,0.077,0.428,0.001l7.947-4.588c0.635-0.367,1.026-1.045,1.026-1.778V50.105z"
			/>
		<path fill="#E8E8E8" stroke="#0071BC" stroke-width="0.5" stroke-miterlimit="10" d="M58.277,49.734
			c-0.133-0.076-0.295-0.077-0.428,0s-0.214,0.217-0.214,0.37c0,0,0,0,0,0v9.177c0,0.733,0.392,1.411,1.026,1.778l7.947,4.587v0.001
			c0.133,0.076,0.295,0.076,0.428-0.001c0.133-0.076,0.213-0.218,0.213-0.37v-9.541c0-0.509-0.27-0.978-0.71-1.23L58.277,49.734z"/>
		<path fill="#E8E8E8" stroke="#0071BC" stroke-width="0.5" stroke-miterlimit="10" d="M76.609,49.068
			c0.132-0.076,0.214-0.217,0.214-0.37c0-0.152-0.081-0.294-0.214-0.37l0,0l-7.947-4.589c-0.636-0.367-1.418-0.367-2.053,0
			l-7.947,4.588l0,0c-0.133,0.077-0.215,0.218-0.215,0.371s0.082,0.293,0.215,0.37l8.263,4.771c0.44,0.254,0.981,0.254,1.421,0
			L76.609,49.068z"/>
	</g>
	<g>
		<g>
			<path fill="#E8E8E8" stroke="#0071BC" stroke-width="0.5" stroke-miterlimit="10" d="M58.469,54.646
				c0-0.153-0.082-0.295-0.213-0.371c-0.133-0.076-0.297-0.076-0.428,0l-8.264,4.771c-0.439,0.254-0.711,0.723-0.711,1.23v9.542
				c0,0.152,0.081,0.293,0.214,0.369c0.132,0.077,0.295,0.077,0.428,0.001l7.948-4.588c0.635-0.367,1.025-1.045,1.025-1.778V54.646z
				"/>
			<path fill="#E8E8E8" stroke="#0071BC" stroke-width="0.5" stroke-miterlimit="10" d="M39.11,54.274
				c-0.133-0.076-0.295-0.076-0.428,0c-0.132,0.077-0.214,0.218-0.214,0.371l0,0v9.177c0,0.733,0.392,1.411,1.026,1.778l7.947,4.587
				c0,0,0,0.001,0.001,0.001c0.132,0.076,0.295,0.076,0.428-0.001c0.132-0.076,0.213-0.218,0.213-0.37v-9.541
				c0-0.508-0.271-0.977-0.711-1.23L39.11,54.274z"/>
			<path fill="#E8E8E8" stroke="#0071BC" stroke-width="0.5" stroke-miterlimit="10" d="M57.443,53.608
				c0.131-0.076,0.213-0.217,0.213-0.37c0-0.152-0.08-0.294-0.213-0.37l0,0l-7.948-4.589c-0.636-0.367-1.418-0.367-2.053,0
				l-7.947,4.589l0,0c-0.133,0.076-0.214,0.217-0.214,0.37s0.082,0.294,0.214,0.37l8.263,4.771c0.44,0.254,0.981,0.254,1.421,0
				L57.443,53.608z"/>
		</g>
		<g>
			<path fill="#E8E8E8" stroke="#0071BC" stroke-width="0.5" stroke-miterlimit="10" d="M70.303,61.439
				c0-0.153-0.082-0.294-0.215-0.371c-0.133-0.076-0.295-0.075-0.428,0.001l-8.262,4.771c-0.439,0.254-0.711,0.723-0.711,1.23v9.542
				c0,0.152,0.08,0.293,0.213,0.369c0.133,0.077,0.295,0.077,0.428,0.001l7.947-4.588c0.635-0.367,1.027-1.045,1.027-1.778V61.439z"
				/>
			<path fill="#E8E8E8" stroke="#0071BC" stroke-width="0.5" stroke-miterlimit="10" d="M50.943,61.069
				c-0.133-0.076-0.295-0.077-0.428,0c-0.132,0.076-0.214,0.217-0.214,0.369c0,0,0,0,0,0.001v9.177c0,0.733,0.392,1.411,1.026,1.778
				l7.947,4.587c0,0,0,0.001,0.001,0.001c0.132,0.076,0.295,0.076,0.428-0.001c0.132-0.076,0.213-0.218,0.213-0.37V67.07
				c0-0.509-0.271-0.978-0.71-1.23L50.943,61.069z"/>
			<path fill="#E8E8E8" stroke="#0071BC" stroke-width="0.5" stroke-miterlimit="10" d="M69.275,60.402
				c0.133-0.076,0.215-0.218,0.215-0.37s-0.082-0.294-0.215-0.37l0,0l-7.947-4.589c-0.635-0.367-1.418-0.367-2.053,0l-7.947,4.588
				l0,0c-0.133,0.077-0.214,0.219-0.214,0.371s0.082,0.293,0.214,0.37l8.264,4.771c0.439,0.254,0.98,0.254,1.42,0L69.275,60.402z"/>
		</g>
	</g>
	<g>
		<g>
			<path fill="#E8E8E8" stroke="#0071BC" stroke-width="0.5" stroke-miterlimit="10" d="M42.364,61.149
				c0-0.153-0.082-0.294-0.214-0.371c-0.133-0.076-0.296-0.075-0.428,0.001L33.46,65.55c-0.439,0.254-0.711,0.723-0.711,1.23v9.542
				c0,0.152,0.081,0.293,0.214,0.369c0.132,0.077,0.295,0.077,0.428,0.001l7.947-4.588c0.635-0.367,1.026-1.045,1.026-1.778V61.149z
				"/>
			<path fill="#E8E8E8" stroke="#0071BC" stroke-width="0.5" stroke-miterlimit="10" d="M23.006,60.779
				c-0.133-0.076-0.295-0.077-0.428,0c-0.132,0.076-0.214,0.217-0.214,0.369c0,0,0,0,0,0.001v9.177c0,0.733,0.392,1.411,1.026,1.778
				l7.947,4.587c0,0,0,0.001,0.001,0.001c0.132,0.076,0.295,0.076,0.428-0.001c0.132-0.076,0.213-0.218,0.213-0.37V66.78
				c0-0.509-0.271-0.978-0.711-1.23L23.006,60.779z"/>
			<path fill="#E8E8E8" stroke="#0071BC" stroke-width="0.5" stroke-miterlimit="10" d="M41.338,60.112
				c0.132-0.076,0.214-0.217,0.214-0.37c0-0.152-0.081-0.294-0.214-0.37l0,0l-7.947-4.589c-0.636-0.366-1.418-0.366-2.053,0
				l-7.947,4.589l0,0c-0.133,0.076-0.214,0.217-0.214,0.37s0.082,0.294,0.214,0.37l8.263,4.771c0.44,0.254,0.981,0.254,1.421,0
				L41.338,60.112z"/>
		</g>
		<g>
			<path fill="#E8E8E8" stroke="#0071BC" stroke-width="0.5" stroke-miterlimit="10" d="M54.197,67.943
				c0-0.153-0.082-0.295-0.213-0.371c-0.133-0.076-0.297-0.076-0.428,0l-8.264,4.771c-0.439,0.254-0.711,0.723-0.711,1.23v9.542
				c0,0.152,0.081,0.293,0.214,0.369c0.132,0.077,0.295,0.077,0.428,0.001l7.948-4.588c0.635-0.367,1.025-1.045,1.025-1.778V67.943z
				"/>
			<path fill="#E8E8E8" stroke="#0071BC" stroke-width="0.5" stroke-miterlimit="10" d="M34.839,67.572
				c-0.133-0.076-0.295-0.076-0.428,0c-0.132,0.077-0.214,0.218-0.214,0.371l0,0v9.177c0,0.733,0.392,1.411,1.026,1.778l7.947,4.587
				c0,0,0,0.001,0.001,0.001c0.132,0.076,0.295,0.076,0.428-0.001c0.132-0.076,0.213-0.218,0.213-0.37v-9.541
				c0-0.508-0.271-0.977-0.711-1.23L34.839,67.572z"/>
			<path fill="#E8E8E8" stroke="#0071BC" stroke-width="0.5" stroke-miterlimit="10" d="M53.172,66.906
				c0.131-0.076,0.213-0.217,0.213-0.37c0-0.152-0.08-0.294-0.213-0.37l0,0l-7.948-4.589c-0.636-0.366-1.418-0.366-2.053,0
				l-7.947,4.589l0,0c-0.133,0.076-0.214,0.217-0.214,0.37s0.082,0.294,0.214,0.37l8.263,4.771c0.44,0.254,0.981,0.254,1.421,0
				L53.172,66.906z"/>
		</g>
	</g>
	<g>
		<path fill="#E8E8E8" stroke="#0071BC" stroke-width="0.5" stroke-miterlimit="10" d="M63.808,23.098
			c0-0.153-0.082-0.294-0.214-0.371c-0.133-0.076-0.296-0.076-0.428,0l-8.263,4.771c-0.439,0.254-0.711,0.723-0.711,1.23v9.542
			c0,0.152,0.081,0.293,0.214,0.369c0.132,0.077,0.295,0.077,0.428,0.001l7.947-4.588c0.635-0.367,1.026-1.045,1.026-1.778V23.098z"
			/>
		<path fill="#E8E8E8" stroke="#0071BC" stroke-width="0.5" stroke-miterlimit="10" d="M44.448,22.728
			c-0.132-0.076-0.295-0.077-0.427,0c-0.133,0.077-0.214,0.217-0.214,0.37c0,0,0,0,0,0v9.177c0,0.733,0.391,1.411,1.026,1.778
			l7.947,4.587c0,0,0,0.001,0.001,0.001c0.132,0.076,0.295,0.076,0.428-0.001c0.131-0.076,0.213-0.218,0.213-0.37v-9.541
			c0-0.508-0.271-0.977-0.711-1.23L44.448,22.728z"/>
		<path fill="#E8E8E8" stroke="#0071BC" stroke-width="0.5" stroke-miterlimit="10" d="M62.781,22.061
			c0.132-0.076,0.214-0.217,0.214-0.37c0-0.152-0.081-0.294-0.214-0.37l0,0l-7.947-4.589c-0.636-0.367-1.418-0.367-2.053,0
			l-7.947,4.588c-0.001,0-0.001,0-0.001,0c-0.132,0.077-0.214,0.218-0.214,0.371s0.082,0.293,0.215,0.37l8.263,4.771
			c0.439,0.254,0.981,0.254,1.421,0L62.781,22.061z"/>
	</g>
	<g>
		<path fill="#E8E8E8" stroke="#0071BC" stroke-width="0.5" stroke-miterlimit="10" d="M61.18,36.758
			c0-0.153-0.082-0.294-0.214-0.371c-0.133-0.076-0.296-0.076-0.428,0l-8.263,4.771c-0.439,0.254-0.711,0.723-0.711,1.23v9.542
			c0,0.152,0.081,0.293,0.214,0.369c0.132,0.077,0.295,0.077,0.428,0.001l7.947-4.588c0.635-0.367,1.026-1.045,1.026-1.778V36.758z"
			/>
		<path fill="#E8E8E8" stroke="#0071BC" stroke-width="0.5" stroke-miterlimit="10" d="M41.82,36.388
			c-0.132-0.076-0.295-0.077-0.427,0s-0.214,0.217-0.214,0.37c0,0,0,0,0,0v9.177c0,0.733,0.391,1.411,1.026,1.778l7.947,4.587
			c0,0,0,0.001,0.001,0.001c0.132,0.076,0.295,0.076,0.428-0.001c0.131-0.076,0.213-0.218,0.213-0.37v-9.542
			c0-0.508-0.271-0.977-0.711-1.23L41.82,36.388z"/>
		<path fill="#E8E8E8" stroke="#0071BC" stroke-width="0.5" stroke-miterlimit="10" d="M60.153,35.721
			c0.132-0.076,0.214-0.217,0.214-0.37c0-0.152-0.081-0.294-0.214-0.37l0,0l-7.947-4.589c-0.636-0.367-1.418-0.367-2.053,0
			l-7.947,4.588c-0.001,0-0.001,0-0.001,0c-0.132,0.077-0.213,0.218-0.213,0.371s0.082,0.293,0.214,0.37l8.263,4.771
			c0.439,0.254,0.981,0.254,1.421,0L60.153,35.721z"/>
	</g>
	<g>
		<path fill="#E8E8E8" stroke="#0071BC" stroke-width="0.5" stroke-miterlimit="10" d="M59.921,40.629
			c0-0.153-0.082-0.294-0.214-0.371c-0.133-0.076-0.296-0.076-0.428,0l-8.263,4.771c-0.439,0.254-0.711,0.723-0.711,1.23v9.542
			c0,0.152,0.081,0.293,0.214,0.369c0.132,0.077,0.295,0.077,0.428,0.001l7.947-4.588c0.635-0.367,1.026-1.045,1.026-1.779V40.629z"
			/>
		<path fill="#E8E8E8" stroke="#0071BC" stroke-width="0.5" stroke-miterlimit="10" d="M40.562,40.259
			c-0.132-0.076-0.295-0.077-0.427,0c-0.133,0.077-0.214,0.217-0.214,0.37c0,0,0,0,0,0v9.177c0,0.734,0.391,1.412,1.026,1.779
			l7.947,4.587c0,0,0,0.001,0.001,0.001c0.132,0.076,0.295,0.076,0.428-0.001c0.131-0.076,0.213-0.218,0.213-0.37V46.26
			c0-0.508-0.271-0.977-0.711-1.23L40.562,40.259z"/>
		<path fill="#E8E8E8" stroke="#0071BC" stroke-width="0.5" stroke-miterlimit="10" d="M58.895,39.592
			c0.132-0.076,0.214-0.217,0.214-0.37c0-0.152-0.081-0.294-0.214-0.37l0,0l-7.947-4.589c-0.636-0.367-1.418-0.367-2.053,0
			l-7.947,4.588c-0.001,0-0.001,0-0.001,0c-0.132,0.077-0.214,0.218-0.214,0.371s0.082,0.293,0.215,0.37l8.263,4.771
			c0.439,0.254,0.981,0.254,1.421,0L58.895,39.592z"/>
	</g>
	<path fill="#E8E8E8" stroke="#0071BC" stroke-width="0.5" stroke-miterlimit="10" d="M56.474,34.432
		c0-0.153-0.082-0.295-0.213-0.371c-0.133-0.076-0.297-0.076-0.428,0l-8.264,4.771c-0.439,0.254-0.711,0.723-0.711,1.23v9.542
		c0,0.152,0.081,0.293,0.214,0.369c0.132,0.077,0.295,0.077,0.428,0.001l7.948-4.588c0.635-0.367,1.025-1.045,1.025-1.778V34.432z"
		/>
	<path fill="#E8E8E8" stroke="#0071BC" stroke-width="0.5" stroke-miterlimit="10" d="M46.089,49.604v-1.27v-8.271
		c0-0.508-0.271-0.977-0.711-1.23l-8.263-4.771c-0.133-0.076-0.295-0.076-0.428,0c-0.132,0.077-0.214,0.218-0.214,0.371l0,0v9.177"
		/>
	<path fill="#E8E8E8" stroke="#0071BC" stroke-width="0.5" stroke-miterlimit="10" d="M45.447,49.974
		C45.447,49.974,45.447,49.975,45.447,49.974"/>
	<path fill="#E8E8E8" stroke="#0071BC" stroke-width="0.5" stroke-miterlimit="10" d="M55.448,33.395
		c0.131-0.076,0.213-0.217,0.213-0.37c0-0.152-0.08-0.294-0.213-0.37l0,0L47.5,28.066c-0.636-0.367-1.418-0.367-2.053,0L37.5,32.655
		l0,0c-0.133,0.076-0.214,0.217-0.214,0.37s0.082,0.294,0.214,0.37l8.263,4.771c0.44,0.254,0.981,0.254,1.421,0L55.448,33.395z"/>
	<g>
		<path fill="#E8E8E8" stroke="#0071BC" stroke-width="0.5" stroke-miterlimit="10" d="M68.308,41.226
			c0-0.153-0.082-0.294-0.215-0.371c-0.133-0.076-0.295-0.075-0.428,0.001l-8.262,4.771c-0.439,0.254-0.711,0.723-0.711,1.23v9.542
			c0,0.152,0.08,0.293,0.213,0.369c0.133,0.077,0.295,0.077,0.428,0.001l7.947-4.588c0.635-0.367,1.027-1.045,1.027-1.779V41.226z"
			/>
		<path fill="#E8E8E8" stroke="#0071BC" stroke-width="0.5" stroke-miterlimit="10" d="M48.948,40.856
			c-0.133-0.076-0.295-0.077-0.428,0c-0.132,0.076-0.214,0.217-0.214,0.369c0,0,0,0,0,0.001v9.177c0,0.734,0.392,1.412,1.026,1.779
			l7.947,4.587c0,0,0,0.001,0.001,0.001c0.132,0.076,0.295,0.076,0.428-0.001c0.132-0.076,0.213-0.218,0.213-0.37v-9.542
			c0-0.509-0.271-0.978-0.71-1.23L48.948,40.856z"/>
		<path fill="#E8E8E8" stroke="#0071BC" stroke-width="0.5" stroke-miterlimit="10" d="M67.28,40.189
			c0.133-0.076,0.215-0.218,0.215-0.37s-0.082-0.294-0.215-0.37l0,0l-7.947-4.589c-0.635-0.367-1.418-0.367-2.053,0l-7.947,4.588
			l0,0c-0.133,0.077-0.214,0.219-0.214,0.371s0.082,0.293,0.214,0.37l8.264,4.771c0.439,0.254,0.98,0.254,1.42,0L67.28,40.189z"/>
	</g>
	<g>
		<path fill="#E8E8E8" stroke="#0071BC" stroke-width="0.5" stroke-miterlimit="10" d="M52.202,47.73
			c0-0.153-0.082-0.295-0.213-0.371c-0.133-0.076-0.297-0.076-0.428,0l-8.264,4.772c-0.439,0.254-0.711,0.723-0.711,1.23v9.542
			c0,0.152,0.081,0.293,0.214,0.369c0.132,0.077,0.295,0.077,0.428,0.001l7.948-4.588c0.635-0.367,1.025-1.045,1.025-1.778V47.73z"
			/>
		<path fill="#E8E8E8" stroke="#0071BC" stroke-width="0.5" stroke-miterlimit="10" d="M32.844,47.359
			c-0.133-0.076-0.295-0.076-0.428,0c-0.132,0.077-0.214,0.218-0.214,0.371l0,0v9.177c0,0.733,0.392,1.411,1.026,1.778l7.947,4.587
			c0,0,0,0.001,0.001,0.001c0.132,0.076,0.295,0.076,0.428-0.001c0.132-0.076,0.213-0.218,0.213-0.37v-9.541
			c0-0.508-0.271-0.977-0.711-1.23L32.844,47.359z"/>
		<path fill="#E8E8E8" stroke="#0071BC" stroke-width="0.5" stroke-miterlimit="10" d="M51.177,46.693
			c0.131-0.076,0.213-0.217,0.213-0.37c0-0.152-0.08-0.294-0.213-0.37l0,0l-7.948-4.589c-0.636-0.366-1.418-0.366-2.053,0
			l-7.947,4.589l0,0c-0.133,0.076-0.214,0.217-0.214,0.37s0.082,0.294,0.214,0.37l8.263,4.772c0.44,0.254,0.981,0.254,1.421,0
			L51.177,46.693z"/>
	</g>
	<g>
		<path fill="#E8E8E8" stroke="#0071BC" stroke-width="0.5" stroke-miterlimit="10" d="M62.61,35.877
			c0-0.153-0.082-0.295-0.213-0.371c-0.133-0.076-0.297-0.076-0.428,0l-8.263,4.771c-0.439,0.254-0.711,0.723-0.711,1.23v9.542
			c0,0.152,0.08,0.293,0.213,0.369c0.133,0.077,0.295,0.077,0.428,0.001l7.948-4.588c0.635-0.367,1.025-1.045,1.025-1.778V35.877z"
			/>
		<path fill="#E8E8E8" stroke="#0071BC" stroke-width="0.5" stroke-miterlimit="10" d="M43.252,35.506
			c-0.133-0.076-0.295-0.076-0.428,0c-0.132,0.077-0.214,0.218-0.214,0.371l0,0v9.177c0,0.733,0.392,1.411,1.026,1.778l7.947,4.587
			c0,0,0,0.001,0.001,0.001c0.132,0.076,0.295,0.076,0.428-0.001c0.132-0.076,0.213-0.218,0.213-0.37v-9.542
			c0-0.508-0.271-0.977-0.711-1.23L43.252,35.506z"/>
		<path fill="#E8E8E8" stroke="#0071BC" stroke-width="0.5" stroke-miterlimit="10" d="M61.585,34.84
			c0.131-0.076,0.213-0.217,0.213-0.37c0-0.152-0.08-0.294-0.213-0.37l0,0l-7.948-4.589c-0.635-0.366-1.418-0.366-2.053,0
			L43.637,34.1l0,0c-0.133,0.076-0.214,0.217-0.214,0.37s0.082,0.294,0.214,0.37l8.263,4.771c0.44,0.254,0.981,0.254,1.421,0
			L61.585,34.84z"/>
	</g>
</g>
</svg>
