<?xml version="1.0" encoding="utf-8"?>
<!-- Generator: Adobe Illustrator 15.0.0, SVG Export Plug-In . SVG Version: 6.00 Build 0)  -->
<!DOCTYPE svg PUBLIC "-//W3C//DTD SVG 1.1//EN" "http://www.w3.org/Graphics/SVG/1.1/DTD/svg11.dtd">
<svg version="1.1" id="Layer_1" xmlns="http://www.w3.org/2000/svg" xmlns:xlink="http://www.w3.org/1999/xlink" x="0px" y="0px"
	 width="100px" height="100px" viewBox="0 0 100 100" enable-background="new 0 0 100 100" xml:space="preserve">
<g id="Layer_2">
</g>
<g display="none">
	<g display="inline">
		<path fill="#CCCCCC" d="M61.711,39.008h-25.42c-0.813,0-1.476,0.657-1.476,1.472v5.012c0,0.814,0.663,1.472,1.476,1.472h25.42
			c0.811,0,1.475-0.658,1.475-1.472V40.48C63.186,39.666,62.521,39.008,61.711,39.008z M37.473,42.499
			c-0.502,0-0.91-0.406-0.91-0.909c0-0.501,0.407-0.909,0.91-0.909s0.909,0.407,0.909,0.909
			C38.382,42.093,37.976,42.499,37.473,42.499z M59.309,45.12h-6.422v-2.133h6.422V45.12L59.309,45.12z"/>
		<path fill="#CCCCCC" d="M61.711,47.774h-25.42c-0.813,0-1.476,0.658-1.476,1.473v5.012c0,0.813,0.663,1.474,1.476,1.474h25.42
			c0.811,0,1.475-0.659,1.475-1.474v-5.012C63.186,48.432,62.521,47.774,61.711,47.774z M37.473,51.266
			c-0.502,0-0.91-0.404-0.91-0.909c0-0.501,0.407-0.91,0.91-0.91s0.909,0.409,0.909,0.91C38.382,50.859,37.976,51.266,37.473,51.266
			z M59.309,53.886h-6.422v-2.134h6.422V53.886L59.309,53.886z"/>
		<path fill="#CCCCCC" d="M61.711,56.54h-25.42c-0.813,0-1.476,0.659-1.476,1.474v5.012c0,0.813,0.663,1.473,1.476,1.473h25.42
			c0.811,0,1.475-0.658,1.475-1.473v-5.012C63.186,57.199,62.521,56.54,61.711,56.54z M37.473,60.031
			c-0.502,0-0.91-0.403-0.91-0.909c0-0.502,0.407-0.908,0.91-0.908s0.909,0.406,0.909,0.908
			C38.382,59.628,37.976,60.031,37.473,60.031z M59.309,62.65h-6.422v-2.133h6.422V62.65L59.309,62.65z"/>
		<polygon fill="#CCCCCC" points="53.391,69.291 50.682,69.291 50.682,65.35 47.32,65.35 47.32,69.291 44.608,69.291 44.608,70.329 
			35.126,70.329 35.126,73.691 44.608,73.691 44.608,74.73 53.391,74.73 53.391,73.691 62.872,73.691 62.872,70.329 53.391,70.329 
					"/>
		<path fill="#CCCCCC" d="M64.004,30.924c-0.363-0.03-0.697-0.217-0.915-0.509c-2.038-2.752-5.305-4.45-8.782-4.45
			c-0.218,0-0.437,0.006-0.654,0.019c-0.301,0.019-0.598-0.071-0.84-0.253c-2.115-1.597-4.682-2.462-7.367-2.462
			c-4.812,0-9.082,2.787-11.077,7.007c-0.183,0.387-0.549,0.656-0.973,0.714C28.094,31.737,24,36.303,24,41.807
			c0,5.248,3.72,9.64,8.663,10.685v-3.245c0-0.405,0.075-0.79,0.2-1.153c-2.643-0.869-4.559-3.357-4.559-6.287
			c0-3.649,2.969-6.619,6.62-6.619c0.184,0,0.365,0.014,0.546,0.029c1.052,0.082,2.003-0.601,2.26-1.621
			c0.89-3.547,4.063-6.024,7.716-6.024c2.087,0,4.063,0.806,5.562,2.27c0.514,0.5,1.24,0.712,1.941,0.566
			c0.447-0.093,0.902-0.14,1.357-0.14c2.555,0,4.838,1.437,5.955,3.749c0.393,0.813,1.252,1.297,2.15,1.205
			c0.225-0.022,0.447-0.033,0.664-0.033c3.65,0,6.619,2.969,6.619,6.619c0,2.93-1.916,5.417-4.559,6.287
			c0.123,0.363,0.198,0.748,0.198,1.153v3.245C70.277,51.445,74,47.055,74,41.807C73.999,36.097,69.594,31.396,64.004,30.924z"/>
	</g>
</g>
<g display="none">
	<g id="_x31_86_50_" display="inline">
		<g>
			<path fill="#CCCCCC" d="M40.822,46.274c0,0-0.063-0.693-0.095-1.042c0.164-0.094,0.321-0.195,0.469-0.31
				c0.261,0.15,0.78,0.451,0.78,0.451l0.888-0.233l1.006-1.738l-0.233-0.888c0,0-0.67-0.389-1.005-0.581
				c-0.009-0.192-0.03-0.385-0.069-0.568c0.267-0.229,0.796-0.683,0.796-0.683v-0.917L42.05,38.24h-0.917
				c0,0-0.435,0.372-0.652,0.559c-0.235-0.114-0.484-0.208-0.744-0.279c-0.021-0.258-0.063-0.774-0.063-0.774l-0.648-0.648
				l-2.003,0.162l-0.647,0.648c0,0,0.055,0.681,0.082,1.021c-0.196,0.111-0.381,0.237-0.554,0.378
				c-0.281-0.13-0.847-0.387-0.847-0.387l-0.887,0.232l-0.839,1.827L33.3,41.103l0.263,0.763c0,0,0.654,0.299,0.982,0.448
				c0.014,0.217,0.047,0.426,0.101,0.631c-0.25,0.21-0.749,0.635-0.749,0.635v0.916l1.3,1.534c0,0,0.755,0.09,0.796,0.066
				c0.041-0.021,0.122-0.066,0.122-0.066s0.475-0.402,0.712-0.604c0.2,0.09,0.409,0.165,0.626,0.224
				c0.023,0.271,0.074,0.81,0.074,0.81l0.647,0.647l2-0.183L40.822,46.274z M38.476,44.123c-1.115,0-2.021-0.905-2.021-2.021
				c0-1.116,0.905-2.021,2.021-2.021c1.118,0,2.023,0.905,2.023,2.021C40.5,43.216,39.594,44.123,38.476,44.123z"/>
			<path fill="#CCCCCC" d="M46.379,52.85c0,0-0.048-0.524-0.071-0.789c0.124-0.069,0.243-0.146,0.354-0.231
				c0.197,0.11,0.59,0.34,0.59,0.34l0.671-0.176l0.761-1.313l-0.176-0.671c0,0-0.506-0.294-0.76-0.438
				c-0.006-0.146-0.022-0.291-0.052-0.431c0.2-0.172,0.602-0.516,0.602-0.516v-0.693l-0.99-1.153h-0.693c0,0-0.329,0.28-0.493,0.422
				c-0.178-0.086-0.367-0.157-0.563-0.211c-0.016-0.195-0.047-0.586-0.047-0.586l-0.49-0.49l-1.514,0.123l-0.49,0.489
				c0,0,0.042,0.516,0.063,0.771c-0.148,0.084-0.289,0.18-0.419,0.286c-0.212-0.099-0.64-0.292-0.64-0.292l-0.671,0.176
				l-0.634,1.382l-0.021,0.094l0.198,0.576c0,0,0.495,0.227,0.742,0.339c0.011,0.164,0.036,0.32,0.077,0.478
				c-0.189,0.159-0.566,0.478-0.566,0.478v0.693l0.982,1.16c0,0,0.571,0.068,0.602,0.051c0.031-0.016,0.093-0.051,0.093-0.051
				s0.358-0.305,0.538-0.455c0.15,0.066,0.309,0.125,0.474,0.168c0.019,0.205,0.056,0.611,0.056,0.611l0.49,0.49l1.512-0.14
				L46.379,52.85z M44.606,51.223c-0.844,0-1.527-0.686-1.527-1.529c0-0.845,0.684-1.528,1.527-1.528c0.846,0,1.53,0.685,1.53,1.528
				C46.136,50.537,45.452,51.223,44.606,51.223z"/>
			<path fill="#CCCCCC" d="M60.314,33.787c-6.418,0-12.835,0-19.253,0c-1.611,0-1.611,2.5,0,2.5c6.418,0,12.835,0,19.253,0
				C61.926,36.287,61.926,33.787,60.314,33.787z"/>
			<path fill="#CCCCCC" d="M60.314,39.704c-6.418,0-2.836,0-9.254,0c-1.611,0-1.611,2.5,0,2.5c6.418,0,2.836,0,9.254,0
				C61.926,42.204,61.926,39.704,60.314,39.704z"/>
			<polygon fill="#CCCCCC" points="34.86,30.662 63.914,30.662 63.914,46.529 66.914,46.529 66.914,27.662 31.86,27.662 
				31.86,37.446 34.86,37.446 			"/>
			<path fill="#CCCCCC" d="M61.631,63.455c-0.004-0.32-0.029-0.637-0.084-0.943c0.449-0.361,1.35-1.082,1.35-1.082l0.052-1.512
				l-2.076-2.586l-1.517-0.049c0,0-0.733,0.592-1.104,0.887c-0.383-0.199-0.789-0.369-1.213-0.5
				c-0.021-0.426-0.064-1.281-0.064-1.281l-1.035-1.102l-3.309,0.16l-1.104,1.033c0,0,0.055,1.125,0.08,1.688
				c-0.328,0.174-0.642,0.373-0.935,0.594c-0.457-0.229-1.374-0.684-1.374-0.684l-1.475,0.338l-1.479,2.969l-0.055,0.203
				l0.392,1.271c0,0,1.063,0.524,1.596,0.791c0.012,0.356,0.056,0.705,0.133,1.043c-0.423,0.334-1.27,1.01-1.27,1.01l-0.049,1.508
				l2.061,2.598c0,0,1.239,0.189,1.308,0.154c0.068-0.035,0.205-0.105,0.205-0.105s0.805-0.637,1.207-0.955
				c0.324,0.158,0.664,0.296,1.02,0.4c0.025,0.447,0.078,1.338,0.078,1.338l1.035,1.104l3.305-0.195l1.104-1.03
				c0,0-0.065-1.148-0.101-1.726c0.273-0.146,0.539-0.308,0.789-0.485c0.42,0.262,1.265,0.784,1.265,0.784l1.475-0.338l1.753-2.813
				l-0.339-1.477C63.258,64.465,62.174,63.791,61.631,63.455z M54.666,66.84c-1.84-0.059-3.285-1.598-3.225-3.438
				c0.059-1.844,1.6-3.285,3.438-3.229c1.843,0.062,3.285,1.601,3.228,3.443C58.047,65.457,56.508,66.898,54.666,66.84z"/>
			<path fill="#CCCCCC" d="M67.777,56.402c0,0-1.166-0.728-1.75-1.088c-0.004-0.344-0.029-0.685-0.09-1.013
				c0.483-0.389,1.453-1.166,1.453-1.166l0.053-1.625l-2.234-2.782l-1.627-0.053c0,0-0.793,0.635-1.188,0.955
				c-0.412-0.217-0.849-0.399-1.308-0.539c-0.021-0.46-0.065-1.379-0.065-1.379l-1.111-1.187L56.348,46.7l-1.187,1.111
				c0,0,0.06,1.209,0.086,1.813c-0.354,0.187-0.688,0.399-1.002,0.64c-0.492-0.246-1.479-0.733-1.479-0.733l-1.584,0.362
				l-1.593,3.193l-0.06,0.219l0.423,1.367c0,0,0.747,0.369,1.334,0.662l0.659-0.619l0.271-0.252l0.367-0.018l2.656-0.129
				c0.465-1.506,1.877-2.584,3.526-2.529c1.982,0.063,3.535,1.719,3.471,3.699c-0.016,0.533-0.155,1.031-0.379,1.479l1.865,2.324
				l0.232,0.289l-0.012,0.371l-0.031,0.957c0.387,0.24,0.758,0.471,0.758,0.471l1.586-0.363l1.883-3.022L67.777,56.402z"/>
			<path fill="#CCCCCC" d="M33.588,52.85c0.294,0,0.537-0.08,0.73-0.235c0.192-0.158,0.339-0.384,0.436-0.671
				c0.097-0.291,0.146-0.674,0.146-1.146c0-0.398-0.03-0.715-0.09-0.949c-0.061-0.236-0.145-0.436-0.25-0.601
				c-0.107-0.163-0.241-0.289-0.403-0.375c-0.163-0.086-0.353-0.13-0.568-0.13c-0.293,0-0.536,0.078-0.729,0.235
				c-0.193,0.157-0.34,0.38-0.438,0.67c-0.096,0.292-0.146,0.674-0.146,1.149c0,0.756,0.133,1.301,0.396,1.637
				C32.894,52.711,33.2,52.85,33.588,52.85z M33.04,49.439c0.135-0.191,0.316-0.288,0.544-0.288c0.229,0,0.422,0.108,0.578,0.325
				c0.153,0.219,0.231,0.658,0.231,1.321c0,0.658-0.078,1.098-0.231,1.316c-0.155,0.221-0.347,0.33-0.572,0.33
				c-0.227,0-0.418-0.109-0.572-0.328c-0.154-0.221-0.231-0.658-0.231-1.318C32.784,50.138,32.869,49.684,33.04,49.439z"/>
			<path fill="#CCCCCC" d="M36.504,49.281c-0.207,0.185-0.449,0.342-0.725,0.473v0.477c0.153-0.056,0.327-0.141,0.521-0.254
				c0.193-0.112,0.348-0.228,0.467-0.34v3.147h0.494v-4.04h-0.318C36.857,48.917,36.711,49.095,36.504,49.281z"/>
			<path fill="#CCCCCC" d="M34.655,55.248c-0.107-0.162-0.24-0.289-0.404-0.375c-0.163-0.086-0.353-0.129-0.568-0.129
				c-0.292,0-0.536,0.078-0.729,0.234c-0.193,0.155-0.337,0.379-0.437,0.67c-0.097,0.289-0.146,0.674-0.146,1.147
				c0,0.756,0.133,1.302,0.397,1.636c0.222,0.278,0.525,0.418,0.914,0.418c0.294,0,0.538-0.08,0.732-0.236
				c0.19-0.158,0.337-0.385,0.435-0.674c0.098-0.287,0.146-0.67,0.146-1.144c0-0.397-0.03-0.717-0.09-0.95
				C34.843,55.611,34.759,55.412,34.655,55.248z M34.254,58.115c-0.155,0.219-0.345,0.33-0.572,0.33s-0.417-0.111-0.571-0.33
				c-0.155-0.219-0.23-0.658-0.23-1.318c0-0.658,0.083-1.111,0.253-1.357c0.135-0.19,0.317-0.289,0.544-0.289
				c0.231,0,0.423,0.109,0.578,0.326c0.155,0.219,0.232,0.658,0.232,1.32C34.487,57.457,34.41,57.895,34.254,58.115z"/>
			<path fill="#CCCCCC" d="M37.356,58.783v-4.041h-0.318c-0.085,0.174-0.232,0.354-0.438,0.539
				c-0.206,0.184-0.447,0.342-0.724,0.473v0.477c0.153-0.057,0.327-0.141,0.52-0.254c0.193-0.112,0.35-0.229,0.468-0.34v3.146
				H37.356L37.356,58.783z"/>
			<path fill="#CCCCCC" d="M40.064,58.783v-4.041h-0.317c-0.085,0.174-0.232,0.354-0.438,0.539
				c-0.206,0.184-0.447,0.342-0.724,0.473v0.477c0.152-0.057,0.327-0.141,0.52-0.254c0.193-0.112,0.351-0.229,0.468-0.34v3.146
				H40.064L40.064,58.783z"/>
			<path fill="#CCCCCC" d="M43.614,55.248c-0.107-0.162-0.24-0.289-0.404-0.375c-0.163-0.086-0.353-0.129-0.567-0.129
				c-0.293,0-0.537,0.078-0.729,0.234c-0.193,0.155-0.337,0.379-0.437,0.67c-0.097,0.291-0.146,0.674-0.146,1.147
				c0,0.756,0.132,1.302,0.396,1.638c0.222,0.276,0.526,0.416,0.915,0.416c0.293,0,0.537-0.08,0.73-0.236
				c0.192-0.158,0.337-0.383,0.435-0.67c0.098-0.291,0.147-0.674,0.147-1.146c0-0.398-0.031-0.715-0.092-0.949
				C43.803,55.611,43.72,55.412,43.614,55.248z M43.213,58.115c-0.155,0.219-0.345,0.33-0.571,0.33c-0.228,0-0.418-0.111-0.573-0.33
				c-0.155-0.219-0.23-0.658-0.23-1.318c0-0.658,0.085-1.111,0.253-1.357c0.137-0.19,0.317-0.289,0.544-0.289
				c0.231,0,0.423,0.109,0.578,0.326c0.155,0.219,0.232,0.658,0.232,1.32C43.447,57.457,43.37,57.895,43.213,58.115z"/>
			<path fill="#CCCCCC" d="M34.655,61.994c-0.107-0.164-0.24-0.289-0.404-0.377c-0.163-0.086-0.353-0.129-0.568-0.129
				c-0.292,0-0.536,0.076-0.729,0.234c-0.193,0.155-0.337,0.381-0.437,0.67c-0.097,0.291-0.146,0.672-0.146,1.147
				c0,0.758,0.133,1.303,0.397,1.637c0.222,0.277,0.525,0.419,0.914,0.419c0.294,0,0.538-0.08,0.732-0.238
				c0.19-0.156,0.337-0.383,0.435-0.672c0.098-0.289,0.146-0.672,0.146-1.146c0-0.396-0.03-0.715-0.09-0.949
				C34.843,62.355,34.759,62.158,34.655,61.994z M34.254,64.861c-0.155,0.219-0.345,0.326-0.572,0.326s-0.417-0.107-0.571-0.326
				c-0.155-0.221-0.23-0.658-0.23-1.318s0.083-1.111,0.253-1.357c0.135-0.19,0.317-0.289,0.544-0.289
				c0.231,0,0.423,0.109,0.578,0.326c0.155,0.219,0.232,0.658,0.232,1.32C34.487,64.201,34.41,64.641,34.254,64.861z"/>
			<path fill="#CCCCCC" d="M37.781,61.994c-0.108-0.164-0.242-0.289-0.404-0.377c-0.163-0.086-0.353-0.129-0.568-0.129
				c-0.292,0-0.536,0.076-0.729,0.234c-0.193,0.155-0.339,0.381-0.438,0.67c-0.097,0.291-0.146,0.672-0.146,1.147
				c0,0.756,0.132,1.301,0.396,1.635c0.223,0.279,0.526,0.418,0.915,0.418c0.294,0,0.538-0.077,0.73-0.237
				c0.192-0.156,0.339-0.381,0.436-0.672c0.098-0.289,0.146-0.67,0.146-1.144c0-0.397-0.031-0.717-0.09-0.951
				C37.969,62.355,37.885,62.158,37.781,61.994z M37.38,64.861c-0.155,0.219-0.345,0.326-0.572,0.326s-0.418-0.107-0.571-0.326
				c-0.155-0.221-0.232-0.658-0.232-1.318s0.085-1.111,0.255-1.357c0.135-0.19,0.317-0.289,0.544-0.289
				c0.231,0,0.423,0.109,0.578,0.326c0.154,0.219,0.232,0.658,0.232,1.32C37.613,64.201,37.535,64.641,37.38,64.861z"/>
			<path fill="#CCCCCC" d="M40.905,61.994c-0.106-0.164-0.24-0.289-0.402-0.377c-0.165-0.086-0.354-0.129-0.568-0.129
				c-0.292,0-0.536,0.076-0.729,0.234c-0.194,0.155-0.339,0.381-0.438,0.67c-0.097,0.291-0.146,0.672-0.146,1.147
				c0,0.756,0.132,1.301,0.396,1.635c0.223,0.279,0.526,0.418,0.915,0.418c0.293,0,0.538-0.077,0.73-0.237
				c0.192-0.156,0.337-0.381,0.435-0.672c0.098-0.289,0.147-0.67,0.147-1.144c0-0.397-0.031-0.717-0.092-0.951
				C41.095,62.355,41.011,62.158,40.905,61.994z M40.505,64.861c-0.154,0.219-0.346,0.326-0.571,0.326
				c-0.228,0-0.418-0.107-0.572-0.326c-0.155-0.221-0.231-0.658-0.231-1.318s0.085-1.111,0.254-1.357
				c0.136-0.19,0.318-0.289,0.544-0.289c0.23,0,0.423,0.109,0.578,0.326c0.155,0.219,0.233,0.658,0.233,1.32
				C40.739,64.201,40.661,64.641,40.505,64.861z"/>
			<path fill="#CCCCCC" d="M43.61,65.527v-4.039h-0.318c-0.086,0.174-0.233,0.352-0.44,0.535c-0.207,0.188-0.447,0.344-0.724,0.475
				v0.479c0.154-0.059,0.327-0.143,0.52-0.256s0.351-0.229,0.468-0.34v3.148h0.495L43.61,65.527L43.61,65.527z"/>
			<path fill="#CCCCCC" d="M46.277,68.574c-0.207,0.184-0.449,0.342-0.726,0.473v0.477c0.154-0.057,0.328-0.141,0.521-0.254
				c0.192-0.11,0.348-0.227,0.467-0.34v3.146h0.494v-4.041h-0.319C46.628,68.209,46.482,68.389,46.277,68.574z"/>
			<path fill="#CCCCCC" d="M34.655,68.738c-0.107-0.164-0.24-0.289-0.404-0.375c-0.163-0.09-0.353-0.133-0.568-0.133
				c-0.292,0-0.536,0.078-0.729,0.235c-0.193,0.156-0.337,0.382-0.437,0.67c-0.097,0.291-0.146,0.675-0.146,1.15
				c0,0.756,0.133,1.299,0.397,1.635c0.222,0.277,0.525,0.416,0.914,0.416c0.294,0,0.538-0.078,0.732-0.235
				c0.19-0.156,0.337-0.384,0.435-0.675c0.098-0.288,0.146-0.67,0.146-1.141c0-0.4-0.03-0.72-0.09-0.951
				C34.843,69.1,34.759,68.902,34.655,68.738z M34.254,71.604c-0.155,0.222-0.345,0.33-0.572,0.33s-0.417-0.108-0.571-0.33
				c-0.155-0.219-0.23-0.653-0.23-1.313c0-0.662,0.083-1.113,0.253-1.358c0.135-0.191,0.317-0.287,0.544-0.287
				c0.231,0,0.423,0.106,0.578,0.325c0.155,0.218,0.232,0.656,0.232,1.32C34.487,70.947,34.41,71.385,34.254,71.604z"/>
			<path fill="#CCCCCC" d="M36.599,68.768c-0.207,0.188-0.447,0.344-0.724,0.476v0.478c0.153-0.058,0.327-0.142,0.52-0.255
				c0.193-0.11,0.35-0.227,0.468-0.34v3.146h0.493V68.23h-0.318C36.953,68.406,36.805,68.584,36.599,68.768z"/>
			<path fill="#CCCCCC" d="M39.308,68.768c-0.207,0.188-0.447,0.344-0.724,0.476v0.478c0.152-0.058,0.327-0.142,0.52-0.255
				c0.193-0.11,0.351-0.227,0.468-0.34v3.146h0.493V68.23h-0.317C39.662,68.406,39.514,68.584,39.308,68.768z"/>
			<path fill="#CCCCCC" d="M43.614,68.738c-0.107-0.164-0.24-0.289-0.404-0.375c-0.163-0.09-0.353-0.133-0.567-0.133
				c-0.293,0-0.537,0.078-0.729,0.235c-0.193,0.156-0.337,0.382-0.437,0.67c-0.097,0.291-0.146,0.675-0.146,1.15
				c0,0.756,0.132,1.299,0.396,1.635c0.222,0.277,0.526,0.416,0.915,0.416c0.293,0,0.537-0.078,0.73-0.235
				c0.192-0.156,0.337-0.384,0.435-0.675c0.098-0.288,0.147-0.67,0.147-1.141c0-0.4-0.031-0.72-0.092-0.951
				C43.803,69.1,43.72,68.902,43.614,68.738z M43.213,71.604c-0.155,0.222-0.345,0.33-0.571,0.33c-0.228,0-0.418-0.108-0.573-0.33
				c-0.155-0.219-0.23-0.653-0.23-1.313c0-0.662,0.085-1.113,0.253-1.358c0.137-0.191,0.317-0.287,0.544-0.287
				c0.231,0,0.423,0.106,0.578,0.325c0.155,0.218,0.232,0.656,0.232,1.32C43.447,70.947,43.37,71.385,43.213,71.604z"/>
		</g>
	</g>
</g>
<path fill="#E8E328" d="M26.919,83.571H73.08L50,44.108L26.919,83.571z M31.901,80.712L50,49.766l18.1,30.946H31.901z"/>
<path fill="#444444" d="M48.571,57.856v11.431c0,0.788,0.638,1.429,1.429,1.429c0.791,0,1.428-0.64,1.428-1.429V57.856
	c0-0.789-0.637-1.429-1.428-1.429C49.209,56.428,48.571,57.067,48.571,57.856z"/>
<path fill="#444444" d="M50,73.571c-0.789,0-1.429,0.637-1.429,1.429v1.428c0,0.791,0.638,1.43,1.429,1.43
	c0.791,0,1.428-0.636,1.428-1.43V75C51.428,74.209,50.789,73.571,50,73.571z"/>
<path fill="#00AFF0" d="M78.336,39.266c-0.195-0.027-3.511-0.479-6.692,0.003c-0.071,0.011-0.146,0.018-0.216,0.018
	c-0.696,0-1.303-0.506-1.412-1.215c-0.119-0.781,0.419-1.509,1.197-1.629c2.188-0.333,4.375-0.28,5.834-0.176
	C76.088,25.193,66.9,16.429,55.834,16.429c-6.709,0-13.454,3.4-17.549,8.757c2.79,2.359,4.571,5.881,4.571,9.816
	c0,0.791-0.639,1.429-1.429,1.429c-0.789,0-1.429-0.638-1.429-1.429c0-3.517-1.831-6.609-4.584-8.394
	c-0.324-0.211-0.659-0.396-1.003-0.566c-0.1-0.047-0.199-0.099-0.301-0.144c-0.389-0.176-0.785-0.334-1.191-0.458
	c-0.05-0.014-0.101-0.025-0.152-0.038c-0.37-0.107-0.746-0.189-1.128-0.253c-0.112-0.018-0.22-0.035-0.333-0.051
	c-0.432-0.055-0.867-0.095-1.309-0.095c-5.512,0-10,4.488-10,10c0,0.117,0.008,0.233,0.017,0.349l0.018,0.301l-0.013,0.228
	c-0.012,0.186-0.022,0.371-0.022,0.551v0.901l-0.81,0.388C13.864,40.269,10,46.429,10,52.362c0,8.544,6.95,15.495,15.493,15.495
	H32.8L50,38.447l17.2,29.409h8.475C83.572,67.856,90,61.428,90,53.531C90,46.659,84.986,40.531,78.336,39.266z"/>
<g display="none">
	<g display="inline">
		<path fill="#CCCCCC" d="M59.18,47.39H40.821c-1.753,0-3.172,1.42-3.172,3.172v17.184c0,1.753,1.419,3.173,3.172,3.173H59.18
			c1.752,0,3.172-1.42,3.172-3.173V50.563C62.352,48.81,60.932,47.39,59.18,47.39z M56.521,49.327c0.848,0,1.533,0.687,1.533,1.532
			c0,0.849-0.688,1.533-1.533,1.533c-0.849,0-1.535-0.687-1.535-1.533C54.986,50.014,55.674,49.327,56.521,49.327z M43.479,49.327
			c0.847,0,1.534,0.687,1.534,1.532c0,0.849-0.687,1.533-1.534,1.533c-0.848,0-1.534-0.687-1.534-1.533
			C41.945,50.014,42.631,49.327,43.479,49.327z M59.052,66.739c0,0.485-0.394,0.879-0.88,0.879H41.827
			c-0.485,0-0.879-0.394-0.879-0.879v-11.46c0-0.484,0.394-0.879,0.879-0.879h16.345c0.486,0,0.88,0.395,0.88,0.879V66.739
			L59.052,66.739z"/>
		<polygon fill="#CCCCCC" points="46.592,58.102 51.018,58.102 51.018,58.131 47.038,65.896 49.428,65.896 53.408,57.654 
			53.408,56.244 46.592,56.244 		"/>
		<path fill="#CCCCCC" d="M64.865,36.726c-0.277-0.02-0.531-0.162-0.693-0.387c-2.031-2.818-5.342-4.562-8.865-4.562
			c-0.256,0-0.511,0.01-0.767,0.027c-0.228,0.016-0.454-0.053-0.638-0.192c-2.133-1.64-4.733-2.531-7.458-2.531
			c-4.868,0-9.183,2.854-11.147,7.16c-0.135,0.296-0.414,0.5-0.737,0.541C29.178,37.455,25,42.059,25,47.62
			c0,5.879,4.672,10.674,10.497,10.899v-4.304c-3.451-0.222-6.193-3.092-6.193-6.598c0-3.649,2.969-6.619,6.619-6.619
			c0.184,0,0.366,0.015,0.546,0.029c1.052,0.082,2.004-0.601,2.26-1.621c0.89-3.546,4.063-6.024,7.716-6.024
			c2.087,0,4.063,0.807,5.563,2.27c0.514,0.5,1.239,0.713,1.941,0.566c0.445-0.093,0.902-0.14,1.357-0.14
			c2.555,0,4.838,1.437,5.954,3.75c0.394,0.813,1.253,1.296,2.151,1.204C63.636,41.011,63.857,41,64.075,41
			c3.649,0,6.62,2.97,6.62,6.62c0,3.505-2.742,6.376-6.193,6.597v4.305C70.328,58.296,75,53.499,75,47.621
			C74.999,41.862,70.521,37.131,64.865,36.726z"/>
	</g>
</g>
<g display="none">
	<g display="inline">
		<path fill="#CCCCCC" d="M50,25c-13.807,0-25,11.193-25,25c0,13.807,11.193,25,25,25c13.807,0,25-11.193,25-25
			C75,36.192,63.807,25,50,25z M59.909,61.826c-0.274,0-0.546-0.016-0.812-0.043c-0.244,0.027-0.49,0.043-0.742,0.043h-6.274
			l6.75-6.813c0.392-0.395,0.515-0.996,0.31-1.522c-0.205-0.525-0.695-0.869-1.238-0.869h-3.327v-7.111
			c0-0.856-0.694-1.552-1.552-1.552h-4.706c-0.856,0-1.552,0.695-1.552,1.552v7.111h-3.588c-0.002,0-0.005,0-0.008,0
			c-0.738,0-1.336,0.623-1.336,1.392c0,0.438,0.194,0.829,0.496,1.084l6.668,6.729H38.965c-3.653,0-6.614-2.962-6.614-6.614
			c0-3.042,2.055-5.603,4.852-6.374c0.309-2.591,2.51-4.6,5.183-4.6c0.808,0,1.571,0.189,2.254,0.518
			c1.329-3.698,4.864-6.343,9.02-6.343c4.982,0,9.076,3.804,9.538,8.665c2.63,1.236,4.45,3.909,4.45,7.008
			C67.648,58.359,64.184,61.826,59.909,61.826z"/>
	</g>
</g>
<g display="none">
	<g id="Layer_1_127_" display="inline">
		<g>
			<path fill="#CCCCCC" d="M72.868,69.854l-7.177-7.178c-0.478-0.475-1.117-0.67-1.737-0.604l-1.005-1.006
				c3.353-3.803,5.203-8.623,5.203-13.736c0-5.563-2.166-10.793-6.101-14.727c-3.935-3.937-9.163-6.104-14.728-6.104
				c-5.563,0-10.795,2.167-14.728,6.102c-8.122,8.121-8.122,21.336,0,29.458c3.934,3.936,9.164,6.102,14.727,6.102
				c5.114,0,9.934-1.852,13.737-5.204l1.004,1.005c-0.064,0.62,0.129,1.264,0.604,1.737l7.179,7.177
				c0.416,0.416,0.963,0.625,1.508,0.625s1.095-0.208,1.511-0.626C73.703,72.04,73.703,70.688,72.868,69.854z M47.324,63.886
				c-4.421,0-8.578-1.722-11.706-4.849c-6.456-6.456-6.456-16.96,0-23.415c3.128-3.127,7.285-4.851,11.707-4.851
				c4.421,0,8.579,1.724,11.708,4.852c3.127,3.127,4.849,7.285,4.849,11.706c0,4.422-1.723,8.579-4.853,11.706
				C55.902,62.164,51.745,63.886,47.324,63.886z"/>
			<path fill="#CCCCCC" d="M59.758,51.852L53.35,46.51c-0.317-0.266-0.764-0.322-1.138-0.146c-0.375,0.176-0.614,0.553-0.614,0.967
				v2.258h-5.341c-0.59,0-1.068,0.479-1.068,1.068v4.022c0,0.59,0.478,1.067,1.068,1.067h5.341v2.261
				c0,0.415,0.239,0.792,0.614,0.969c0.146,0.066,0.3,0.103,0.453,0.103c0.245,0,0.487-0.084,0.685-0.248l6.408-5.34
				c0.243-0.203,0.385-0.505,0.385-0.82S60.001,52.055,59.758,51.852z"/>
			<path fill="#CCCCCC" d="M49.46,44v-4.023c0-0.59-0.478-1.067-1.068-1.067h-5.339v-2.26c0-0.416-0.24-0.793-0.615-0.969
				c-0.376-0.175-0.819-0.117-1.137,0.146l-6.411,5.341c-0.244,0.203-0.384,0.503-0.384,0.821c0,0.316,0.141,0.617,0.384,0.82
				l6.411,5.342c0.195,0.162,0.438,0.248,0.684,0.248c0.154,0,0.309-0.034,0.454-0.102c0.375-0.177,0.615-0.553,0.615-0.968v-2.263
				h5.339C48.982,45.066,49.46,44.589,49.46,44z"/>
		</g>
	</g>
</g>
</svg>
