<?xml version="1.0" encoding="utf-8"?>
<!-- Generator: Adobe Illustrator 15.0.0, SVG Export Plug-In . SVG Version: 6.00 Build 0)  -->
<!DOCTYPE svg PUBLIC "-//W3C//DTD SVG 1.1//EN" "http://www.w3.org/Graphics/SVG/1.1/DTD/svg11.dtd">
<svg version="1.1" id="Layer_1" xmlns="http://www.w3.org/2000/svg" xmlns:xlink="http://www.w3.org/1999/xlink" x="0px" y="0px"
	 width="100px" height="100px" viewBox="0 0 100 100" enable-background="new 0 0 100 100" xml:space="preserve">
<g>
	<g>
		<path fill="#E8E8E8" stroke="#0071BC" stroke-width="0.5" stroke-miterlimit="10" d="M-140.333-26.023
			c0-0.153-0.082-0.294-0.214-0.371c-0.133-0.076-0.296-0.076-0.428,0l-8.263,4.771c-0.439,0.254-0.711,0.723-0.711,1.23v9.542
			c0,0.152,0.081,0.293,0.214,0.369c0.132,0.077,0.295,0.077,0.428,0.001l7.947-4.588c0.635-0.367,1.026-1.045,1.026-1.778V-26.023z
			"/>
		<path fill="#E8E8E8" stroke="#0071BC" stroke-width="0.5" stroke-miterlimit="10" d="M-159.693-26.394
			c-0.132-0.076-0.295-0.077-0.427,0c-0.133,0.077-0.214,0.217-0.214,0.37c0,0,0,0,0,0v9.177c0,0.733,0.391,1.411,1.026,1.778
			l7.947,4.587c0,0,0,0.001,0.001,0.001c0.132,0.076,0.295,0.076,0.428-0.001c0.131-0.076,0.213-0.218,0.213-0.37v-9.542
			c0-0.508-0.271-0.977-0.711-1.23L-159.693-26.394z"/>
		<path fill="#E8E8E8" stroke="#0071BC" stroke-width="0.5" stroke-miterlimit="10" d="M-141.36-27.06
			c0.132-0.076,0.214-0.217,0.214-0.37c0-0.152-0.081-0.294-0.214-0.37l0,0l-7.947-4.589c-0.636-0.367-1.418-0.367-2.053,0
			l-7.947,4.588c-0.001,0-0.001,0-0.001,0c-0.132,0.077-0.214,0.218-0.214,0.371s0.082,0.293,0.215,0.37l8.263,4.771
			c0.439,0.254,0.981,0.254,1.421,0L-141.36-27.06z"/>
	</g>
	<g>
		<path fill="#E8E8E8" stroke="#0071BC" stroke-width="0.5" stroke-miterlimit="10" d="M-128.5-19.229
			c0-0.153-0.082-0.294-0.214-0.371c-0.133-0.076-0.296-0.076-0.428,0l-8.263,4.771c-0.439,0.254-0.711,0.723-0.711,1.23v9.542
			c0,0.152,0.081,0.293,0.214,0.369c0.132,0.077,0.295,0.077,0.428,0.001l7.947-4.588c0.635-0.367,1.026-1.045,1.026-1.778V-19.229z
			"/>
		<path fill="#E8E8E8" stroke="#0071BC" stroke-width="0.5" stroke-miterlimit="10" d="M-147.859-19.6
			c-0.133-0.076-0.295-0.077-0.428,0s-0.214,0.217-0.214,0.37c0,0,0,0,0,0v9.177c0,0.733,0.392,1.411,1.026,1.778l7.947,4.587v0.001
			c0.133,0.076,0.295,0.076,0.428-0.001c0.133-0.076,0.213-0.218,0.213-0.37v-9.541c0-0.509-0.27-0.978-0.71-1.23L-147.859-19.6z"/>
		<path fill="#E8E8E8" stroke="#0071BC" stroke-width="0.5" stroke-miterlimit="10" d="M-129.527-20.266
			c0.132-0.076,0.214-0.217,0.214-0.37c0-0.152-0.081-0.294-0.214-0.37l0,0l-7.947-4.589c-0.636-0.367-1.418-0.367-2.053,0
			l-7.947,4.588l0,0c-0.133,0.077-0.215,0.218-0.215,0.371s0.082,0.293,0.215,0.37l8.263,4.771c0.44,0.254,0.981,0.254,1.421,0
			L-129.527-20.266z"/>
	</g>
	<g>
		<g>
			<path fill="#E8E8E8" stroke="#0071BC" stroke-width="0.5" stroke-miterlimit="10" d="M-147.667-14.688
				c0-0.153-0.082-0.295-0.213-0.371c-0.133-0.076-0.297-0.076-0.428,0l-8.264,4.771c-0.439,0.254-0.711,0.723-0.711,1.23v9.542
				c0,0.152,0.081,0.293,0.214,0.369c0.132,0.077,0.295,0.077,0.428,0.001l7.948-4.588c0.635-0.367,1.025-1.045,1.025-1.778V-14.688
				z"/>
			<path fill="#E8E8E8" stroke="#0071BC" stroke-width="0.5" stroke-miterlimit="10" d="M-167.026-15.06
				c-0.133-0.076-0.295-0.076-0.428,0c-0.132,0.077-0.214,0.218-0.214,0.371l0,0v9.177c0,0.733,0.392,1.411,1.026,1.778l7.947,4.587
				c0,0,0,0.001,0.001,0.001c0.132,0.076,0.295,0.076,0.428-0.001c0.132-0.076,0.213-0.218,0.213-0.37v-9.541
				c0-0.508-0.271-0.977-0.711-1.23L-167.026-15.06z"/>
			<path fill="#E8E8E8" stroke="#0071BC" stroke-width="0.5" stroke-miterlimit="10" d="M-148.693-15.726
				c0.131-0.076,0.213-0.217,0.213-0.37c0-0.152-0.08-0.294-0.213-0.37l0,0l-7.948-4.589c-0.636-0.367-1.418-0.367-2.053,0
				l-7.947,4.589l0,0c-0.133,0.076-0.214,0.217-0.214,0.37s0.082,0.294,0.214,0.37l8.263,4.771c0.44,0.254,0.981,0.254,1.421,0
				L-148.693-15.726z"/>
		</g>
		<g>
			<path fill="#E8E8E8" stroke="#0071BC" stroke-width="0.5" stroke-miterlimit="10" d="M-135.833-7.895
				c0-0.153-0.082-0.294-0.215-0.371c-0.133-0.076-0.295-0.075-0.428,0.001l-8.262,4.771c-0.439,0.254-0.711,0.723-0.711,1.23v9.542
				c0,0.152,0.08,0.293,0.213,0.369c0.133,0.077,0.295,0.077,0.428,0.001l7.947-4.588c0.635-0.367,1.027-1.045,1.027-1.778V-7.895z"
				/>
			<path fill="#E8E8E8" stroke="#0071BC" stroke-width="0.5" stroke-miterlimit="10" d="M-155.193-8.265
				c-0.133-0.076-0.295-0.077-0.428,0c-0.132,0.076-0.214,0.217-0.214,0.369c0,0,0,0,0,0.001v9.177c0,0.733,0.392,1.411,1.026,1.778
				l7.947,4.587c0,0,0,0.001,0.001,0.001c0.132,0.076,0.295,0.076,0.428-0.001c0.132-0.076,0.213-0.218,0.213-0.37v-9.541
				c0-0.509-0.271-0.978-0.71-1.23L-155.193-8.265z"/>
			<path fill="#E8E8E8" stroke="#0071BC" stroke-width="0.5" stroke-miterlimit="10" d="M-136.861-8.932
				c0.133-0.076,0.215-0.218,0.215-0.37s-0.082-0.294-0.215-0.37l0,0l-7.947-4.589c-0.635-0.367-1.418-0.367-2.053,0l-7.947,4.588
				l0,0c-0.133,0.077-0.214,0.219-0.214,0.371s0.082,0.293,0.214,0.37l8.264,4.771c0.439,0.254,0.98,0.254,1.42,0L-136.861-8.932z"
				/>
		</g>
	</g>
	<g>
		<g>
			<path fill="#E8E8E8" stroke="#0071BC" stroke-width="0.5" stroke-miterlimit="10" d="M-163.772-8.185
				c0-0.153-0.082-0.294-0.214-0.371c-0.133-0.076-0.296-0.075-0.428,0.001l-8.263,4.771c-0.439,0.254-0.711,0.723-0.711,1.23v9.542
				c0,0.152,0.081,0.293,0.214,0.369c0.132,0.077,0.295,0.077,0.428,0.001l7.947-4.588c0.635-0.367,1.026-1.045,1.026-1.778V-8.185z
				"/>
			<path fill="#E8E8E8" stroke="#0071BC" stroke-width="0.5" stroke-miterlimit="10" d="M-183.13-8.555
				c-0.133-0.076-0.295-0.077-0.428,0c-0.132,0.076-0.214,0.217-0.214,0.369c0,0,0,0,0,0.001v9.177c0,0.733,0.392,1.411,1.026,1.778
				l7.947,4.587c0,0,0,0.001,0.001,0.001c0.132,0.076,0.295,0.076,0.428-0.001c0.132-0.076,0.213-0.218,0.213-0.37v-9.541
				c0-0.509-0.271-0.978-0.711-1.23L-183.13-8.555z"/>
			<path fill="#E8E8E8" stroke="#0071BC" stroke-width="0.5" stroke-miterlimit="10" d="M-164.798-9.222
				c0.132-0.076,0.214-0.217,0.214-0.37c0-0.152-0.081-0.294-0.214-0.37l0,0l-7.947-4.589c-0.636-0.366-1.418-0.366-2.053,0
				l-7.947,4.589l0,0c-0.133,0.076-0.214,0.217-0.214,0.37s0.082,0.294,0.214,0.37l8.263,4.771c0.44,0.254,0.981,0.254,1.421,0
				L-164.798-9.222z"/>
		</g>
		<g>
			<path fill="#E8E8E8" stroke="#0071BC" stroke-width="0.5" stroke-miterlimit="10" d="M-151.939-1.391
				c0-0.153-0.082-0.295-0.213-0.371c-0.133-0.076-0.297-0.076-0.428,0l-8.264,4.771c-0.439,0.254-0.711,0.723-0.711,1.23v9.542
				c0,0.152,0.081,0.293,0.214,0.369c0.132,0.077,0.295,0.077,0.428,0.001l7.948-4.588c0.635-0.367,1.025-1.045,1.025-1.778V-1.391z
				"/>
			<path fill="#E8E8E8" stroke="#0071BC" stroke-width="0.5" stroke-miterlimit="10" d="M-171.297-1.762
				c-0.133-0.076-0.295-0.076-0.428,0c-0.132,0.077-0.214,0.218-0.214,0.371l0,0v9.177c0,0.733,0.392,1.411,1.026,1.778l7.947,4.587
				c0,0,0,0.001,0.001,0.001c0.132,0.076,0.295,0.076,0.428-0.001c0.132-0.076,0.213-0.218,0.213-0.37V4.24
				c0-0.508-0.271-0.977-0.711-1.23L-171.297-1.762z"/>
			<path fill="#E8E8E8" stroke="#0071BC" stroke-width="0.5" stroke-miterlimit="10" d="M-152.964-2.428
				c0.131-0.076,0.213-0.217,0.213-0.37c0-0.152-0.08-0.294-0.213-0.37l0,0l-7.948-4.589c-0.636-0.366-1.418-0.366-2.053,0
				l-7.947,4.589l0,0c-0.133,0.076-0.214,0.217-0.214,0.37s0.082,0.294,0.214,0.37l8.263,4.771c0.44,0.254,0.981,0.254,1.421,0
				L-152.964-2.428z"/>
		</g>
	</g>
	<g>
		<path fill="#E8E8E8" stroke="#0071BC" stroke-width="0.5" stroke-miterlimit="10" d="M-142.329-46.236
			c0-0.153-0.082-0.294-0.214-0.371c-0.133-0.076-0.296-0.076-0.428,0l-8.263,4.771c-0.439,0.254-0.711,0.723-0.711,1.23v9.542
			c0,0.152,0.081,0.293,0.214,0.369c0.132,0.077,0.295,0.077,0.428,0.001l7.947-4.588c0.635-0.367,1.026-1.045,1.026-1.778V-46.236z
			"/>
		<path fill="#E8E8E8" stroke="#0071BC" stroke-width="0.5" stroke-miterlimit="10" d="M-161.688-46.606
			c-0.132-0.076-0.295-0.077-0.427,0c-0.133,0.077-0.214,0.217-0.214,0.37c0,0,0,0,0,0v9.177c0,0.733,0.391,1.411,1.026,1.778
			l7.947,4.587c0,0,0,0.001,0.001,0.001c0.132,0.076,0.295,0.076,0.428-0.001c0.131-0.076,0.213-0.218,0.213-0.37v-9.541
			c0-0.508-0.271-0.977-0.711-1.23L-161.688-46.606z"/>
		<path fill="#E8E8E8" stroke="#0071BC" stroke-width="0.5" stroke-miterlimit="10" d="M-143.355-47.273
			c0.132-0.076,0.214-0.217,0.214-0.37c0-0.152-0.081-0.294-0.214-0.37l0,0l-7.947-4.589c-0.636-0.367-1.418-0.367-2.053,0
			l-7.947,4.588c-0.001,0-0.001,0-0.001,0c-0.132,0.077-0.214,0.218-0.214,0.371s0.082,0.293,0.215,0.37l8.263,4.771
			c0.439,0.254,0.981,0.254,1.421,0L-143.355-47.273z"/>
	</g>
	<g>
		<path fill="#E8E8E8" stroke="#0071BC" stroke-width="0.5" stroke-miterlimit="10" d="M-144.957-32.576
			c0-0.153-0.082-0.294-0.214-0.371c-0.133-0.076-0.296-0.076-0.428,0l-8.263,4.771c-0.439,0.254-0.711,0.723-0.711,1.23v9.542
			c0,0.152,0.081,0.293,0.214,0.369c0.132,0.077,0.295,0.077,0.428,0.001l7.947-4.588c0.635-0.367,1.026-1.045,1.026-1.778V-32.576z
			"/>
		<path fill="#E8E8E8" stroke="#0071BC" stroke-width="0.5" stroke-miterlimit="10" d="M-164.316-32.946
			c-0.132-0.076-0.295-0.077-0.427,0s-0.214,0.217-0.214,0.37c0,0,0,0,0,0v9.177c0,0.733,0.391,1.411,1.026,1.778l7.947,4.587
			c0,0,0,0.001,0.001,0.001c0.132,0.076,0.295,0.076,0.428-0.001c0.131-0.076,0.213-0.218,0.213-0.37v-9.542
			c0-0.508-0.271-0.977-0.711-1.23L-164.316-32.946z"/>
		<path fill="#E8E8E8" stroke="#0071BC" stroke-width="0.5" stroke-miterlimit="10" d="M-145.983-33.613
			c0.132-0.076,0.214-0.217,0.214-0.37c0-0.152-0.081-0.294-0.214-0.37l0,0l-7.947-4.589c-0.636-0.367-1.418-0.367-2.053,0
			l-7.947,4.588c-0.001,0-0.001,0-0.001,0c-0.132,0.077-0.213,0.218-0.213,0.371s0.082,0.293,0.214,0.37l8.263,4.771
			c0.439,0.254,0.981,0.254,1.421,0L-145.983-33.613z"/>
	</g>
	<g>
		<path fill="#E8E8E8" stroke="#0071BC" stroke-width="0.5" stroke-miterlimit="10" d="M-146.215-28.705
			c0-0.153-0.082-0.294-0.214-0.371c-0.133-0.076-0.296-0.076-0.428,0l-8.263,4.771c-0.439,0.254-0.711,0.723-0.711,1.23v9.542
			c0,0.152,0.081,0.293,0.214,0.369c0.132,0.077,0.295,0.077,0.428,0.001l7.947-4.588c0.635-0.367,1.026-1.045,1.026-1.779V-28.705z
			"/>
		<path fill="#E8E8E8" stroke="#0071BC" stroke-width="0.5" stroke-miterlimit="10" d="M-165.575-29.075
			c-0.132-0.076-0.295-0.077-0.427,0c-0.133,0.077-0.214,0.217-0.214,0.37c0,0,0,0,0,0v9.177c0,0.734,0.391,1.412,1.026,1.779
			l7.947,4.587c0,0,0,0.001,0.001,0.001c0.132,0.076,0.295,0.076,0.428-0.001c0.131-0.076,0.213-0.218,0.213-0.37v-9.542
			c0-0.508-0.271-0.977-0.711-1.23L-165.575-29.075z"/>
		<path fill="#E8E8E8" stroke="#0071BC" stroke-width="0.5" stroke-miterlimit="10" d="M-147.242-29.742
			c0.132-0.076,0.214-0.217,0.214-0.37c0-0.152-0.081-0.294-0.214-0.37l0,0l-7.947-4.589c-0.636-0.367-1.418-0.367-2.053,0
			l-7.947,4.588c-0.001,0-0.001,0-0.001,0c-0.132,0.077-0.214,0.218-0.214,0.371s0.082,0.293,0.215,0.37l8.263,4.771
			c0.439,0.254,0.981,0.254,1.421,0L-147.242-29.742z"/>
	</g>
	<path fill="#E8E8E8" stroke="#0071BC" stroke-width="0.5" stroke-miterlimit="10" d="M-149.663-34.902
		c0-0.153-0.082-0.295-0.213-0.371c-0.133-0.076-0.297-0.076-0.428,0l-8.264,4.771c-0.439,0.254-0.711,0.723-0.711,1.23v9.542
		c0,0.152,0.081,0.293,0.214,0.369c0.132,0.077,0.295,0.077,0.428,0.001l7.948-4.588c0.635-0.367,1.025-1.045,1.025-1.778V-34.902z"
		/>
	<path fill="#E8E8E8" stroke="#0071BC" stroke-width="0.5" stroke-miterlimit="10" d="M-160.047-19.73V-21v-8.271
		c0-0.508-0.271-0.977-0.711-1.23l-8.263-4.771c-0.133-0.076-0.295-0.076-0.428,0c-0.132,0.077-0.214,0.218-0.214,0.371l0,0v9.177"
		/>
	<path fill="#E8E8E8" stroke="#0071BC" stroke-width="0.5" stroke-miterlimit="10" d="M-160.689-19.36
		C-160.689-19.36-160.689-19.359-160.689-19.36"/>
	<path fill="#E8E8E8" stroke="#0071BC" stroke-width="0.5" stroke-miterlimit="10" d="M-150.688-35.939
		c0.131-0.076,0.213-0.217,0.213-0.37c0-0.152-0.08-0.294-0.213-0.37l0,0l-7.948-4.589c-0.636-0.367-1.418-0.367-2.053,0
		l-7.947,4.589l0,0c-0.133,0.076-0.214,0.217-0.214,0.37s0.082,0.294,0.214,0.37l8.263,4.771c0.44,0.254,0.981,0.254,1.421,0
		L-150.688-35.939z"/>
	<g>
		<path fill="#E8E8E8" stroke="#0071BC" stroke-width="0.5" stroke-miterlimit="10" d="M-137.829-28.108
			c0-0.153-0.082-0.294-0.215-0.371c-0.133-0.076-0.295-0.075-0.428,0.001l-8.262,4.771c-0.439,0.254-0.711,0.723-0.711,1.23v9.542
			c0,0.152,0.08,0.293,0.213,0.369c0.133,0.077,0.295,0.077,0.428,0.001l7.947-4.588c0.635-0.367,1.027-1.045,1.027-1.779V-28.108z"
			/>
		<path fill="#E8E8E8" stroke="#0071BC" stroke-width="0.5" stroke-miterlimit="10" d="M-157.188-28.478
			c-0.133-0.076-0.295-0.077-0.428,0c-0.132,0.076-0.214,0.217-0.214,0.369c0,0,0,0,0,0.001v9.177c0,0.734,0.392,1.412,1.026,1.779
			l7.947,4.587c0,0,0,0.001,0.001,0.001c0.132,0.076,0.295,0.076,0.428-0.001c0.132-0.076,0.213-0.218,0.213-0.37v-9.542
			c0-0.509-0.271-0.978-0.71-1.23L-157.188-28.478z"/>
		<path fill="#E8E8E8" stroke="#0071BC" stroke-width="0.5" stroke-miterlimit="10" d="M-138.856-29.145
			c0.133-0.076,0.215-0.218,0.215-0.37s-0.082-0.294-0.215-0.37l0,0l-7.947-4.589c-0.635-0.367-1.418-0.367-2.053,0l-7.947,4.588
			l0,0c-0.133,0.077-0.214,0.219-0.214,0.371s0.082,0.293,0.214,0.37l8.264,4.771c0.439,0.254,0.98,0.254,1.42,0L-138.856-29.145z"
			/>
	</g>
	<g>
		<path fill="#E8E8E8" stroke="#0071BC" stroke-width="0.5" stroke-miterlimit="10" d="M-153.934-21.604
			c0-0.153-0.082-0.295-0.213-0.371c-0.133-0.076-0.297-0.076-0.428,0l-8.264,4.772c-0.439,0.254-0.711,0.723-0.711,1.23v9.542
			c0,0.152,0.081,0.293,0.214,0.369c0.132,0.077,0.295,0.077,0.428,0.001l7.948-4.588c0.635-0.367,1.025-1.045,1.025-1.778V-21.604z
			"/>
		<path fill="#E8E8E8" stroke="#0071BC" stroke-width="0.5" stroke-miterlimit="10" d="M-173.292-21.975
			c-0.133-0.076-0.295-0.076-0.428,0c-0.132,0.077-0.214,0.218-0.214,0.371l0,0v9.177c0,0.733,0.392,1.411,1.026,1.778l7.947,4.587
			c0,0,0,0.001,0.001,0.001c0.132,0.076,0.295,0.076,0.428-0.001c0.132-0.076,0.213-0.218,0.213-0.37v-9.541
			c0-0.508-0.271-0.977-0.711-1.23L-173.292-21.975z"/>
		<path fill="#E8E8E8" stroke="#0071BC" stroke-width="0.5" stroke-miterlimit="10" d="M-154.959-22.641
			c0.131-0.076,0.213-0.217,0.213-0.37c0-0.152-0.08-0.294-0.213-0.37l0,0l-7.948-4.589c-0.636-0.366-1.418-0.366-2.053,0
			l-7.947,4.589l0,0c-0.133,0.076-0.214,0.217-0.214,0.37s0.082,0.294,0.214,0.37l8.263,4.772c0.44,0.254,0.981,0.254,1.421,0
			L-154.959-22.641z"/>
	</g>
	<g>
		<path fill="#E8E8E8" stroke="#0071BC" stroke-width="0.5" stroke-miterlimit="10" d="M-143.526-33.457
			c0-0.153-0.082-0.295-0.213-0.371c-0.133-0.076-0.297-0.076-0.428,0l-8.263,4.771c-0.439,0.254-0.711,0.723-0.711,1.23v9.542
			c0,0.152,0.08,0.293,0.213,0.369c0.133,0.077,0.295,0.077,0.428,0.001l7.948-4.588c0.635-0.367,1.025-1.045,1.025-1.778V-33.457z"
			/>
		<path fill="#E8E8E8" stroke="#0071BC" stroke-width="0.5" stroke-miterlimit="10" d="M-162.884-33.828
			c-0.133-0.076-0.295-0.076-0.428,0c-0.132,0.077-0.214,0.218-0.214,0.371l0,0v9.177c0,0.733,0.392,1.411,1.026,1.778l7.947,4.587
			c0,0,0,0.001,0.001,0.001c0.132,0.076,0.295,0.076,0.428-0.001c0.132-0.076,0.213-0.218,0.213-0.37v-9.542
			c0-0.508-0.271-0.977-0.711-1.23L-162.884-33.828z"/>
		<path fill="#E8E8E8" stroke="#0071BC" stroke-width="0.5" stroke-miterlimit="10" d="M-144.551-34.494
			c0.131-0.076,0.213-0.217,0.213-0.37c0-0.152-0.08-0.294-0.213-0.37l0,0l-7.948-4.589c-0.635-0.366-1.418-0.366-2.053,0
			l-7.947,4.589l0,0c-0.133,0.076-0.214,0.217-0.214,0.37s0.082,0.294,0.214,0.37l8.263,4.771c0.44,0.254,0.981,0.254,1.421,0
			L-144.551-34.494z"/>
	</g>
</g>
<g>
	<g>
		<path fill="#E8E8E8" stroke="#0071BC" stroke-width="0.75" stroke-miterlimit="10" d="M78.404,63.581
			c0.053-0.514,0.052-1.041-0.004-1.574l1.592-0.796c-0.258-1.565-0.867-2.989-1.74-4.202l-1.684,0.563
			c-0.339-0.407-0.708-0.779-1.112-1.115l0.563-1.688c-1.231-0.888-2.664-1.495-4.202-1.743l-0.796,1.593
			c-0.517-0.05-1.041-0.05-1.574,0.003l-0.793-1.588c-1.578,0.255-3.013,0.876-4.226,1.758l0.563,1.685
			c-0.392,0.325-0.749,0.683-1.071,1.072l-1.689-0.563c-0.896,1.236-1.512,2.676-1.763,4.223l1.593,0.796
			c-0.051,0.514-0.051,1.041,0.001,1.574l-1.588,0.796c0.253,1.567,0.868,2.989,1.741,4.202l1.682-0.563
			c0.339,0.408,0.708,0.779,1.117,1.113l-0.566,1.688c1.229,0.885,2.664,1.495,4.203,1.743l0.794-1.593
			c0.516,0.049,1.042,0.049,1.576-0.003l0.791,1.587c1.579-0.254,3.012-0.873,4.226-1.757l-0.559-1.685
			c0.388-0.322,0.746-0.684,1.068-1.07l1.691,0.563c0.895-1.235,1.51-2.675,1.762-4.222L78.404,63.581z M72.563,65.13l-2.33,0.967
			l-2.328-0.967l-0.963-2.338l0.963-2.338l2.328-0.972l2.33,0.972l0.966,2.338L72.563,65.13z"/>
		<g>
			<path fill="#E8E8E8" stroke="#0071BC" stroke-width="0.75" stroke-miterlimit="10" d="M58.001,64.773l-0.293-1.814l0.334-0.167
				l-0.34-0.17l0.293-1.813c0.305-1.893,1.071-3.723,2.208-5.293l1.078-1.482l0.287,0.099l-0.096-0.287l1.482-1.077
				c1.562-1.134,3.396-1.894,5.303-2.201l1.813-0.292l0.162,0.33l0.167-0.34l1.816,0.292c1.881,0.306,3.702,1.058,5.262,2.183
				l1.494,1.075l-0.117,0.354l0.352-0.117l0.756,1.048C79.965,54.971,80,54.844,80,54.709c0-6.028-4.879-10.926-10.91-10.926
				c-0.015,0-0.021,0-0.032,0c-0.481-7.632-6.827-13.672-14.579-13.672c-7.156,0-13.108,5.143-14.374,11.928
				c-0.158-0.005-0.331-0.013-0.49-0.013c-5.333,0-9.831,3.532-11.298,8.38c-0.23-0.02-0.46-0.032-0.688-0.032
				C23.42,50.376,20,53.786,20,58c0,4.216,3.415,7.628,7.62,7.628c0.043,0,18.301,0,30.57,0
				C58.123,65.347,58.048,65.065,58.001,64.773z"/>
			<polygon fill="#E8E8E8" stroke="#0071BC" stroke-width="0.75" stroke-miterlimit="10" points="70.646,63.217 70.822,62.792 
				70.646,62.365 70.235,62.194 69.825,62.365 69.648,62.792 69.825,63.217 70.235,63.39 			"/>
		</g>
	</g>
</g>
</svg>
