<?xml version="1.0" encoding="utf-8"?>
<!-- Generator: Adobe Illustrator 15.0.0, SVG Export Plug-In . SVG Version: 6.00 Build 0)  -->
<!DOCTYPE svg PUBLIC "-//W3C//DTD SVG 1.1//EN" "http://www.w3.org/Graphics/SVG/1.1/DTD/svg11.dtd">
<svg version="1.1" id="Layer_1" xmlns="http://www.w3.org/2000/svg" xmlns:xlink="http://www.w3.org/1999/xlink" x="0px" y="0px"
	 width="100px" height="100px" viewBox="0 0 100 100" enable-background="new 0 0 100 100" xml:space="preserve">
<g id="Layer_2" display="none">
</g>
<g display="none">
	<g display="inline">
		<path fill="#CCCCCC" d="M61.711,39.008h-25.42c-0.813,0-1.476,0.657-1.476,1.472v5.012c0,0.814,0.663,1.472,1.476,1.472h25.42
			c0.811,0,1.475-0.658,1.475-1.472V40.48C63.186,39.666,62.521,39.008,61.711,39.008z M37.473,42.499
			c-0.502,0-0.91-0.406-0.91-0.909c0-0.501,0.407-0.909,0.91-0.909s0.909,0.407,0.909,0.909
			C38.382,42.093,37.976,42.499,37.473,42.499z M59.309,45.12h-6.422v-2.133h6.422V45.12L59.309,45.12z"/>
		<path fill="#CCCCCC" d="M61.711,47.774h-25.42c-0.813,0-1.476,0.658-1.476,1.473v5.012c0,0.813,0.663,1.474,1.476,1.474h25.42
			c0.811,0,1.475-0.659,1.475-1.474v-5.012C63.186,48.432,62.521,47.774,61.711,47.774z M37.473,51.266
			c-0.502,0-0.91-0.404-0.91-0.909c0-0.501,0.407-0.91,0.91-0.91s0.909,0.409,0.909,0.91C38.382,50.859,37.976,51.266,37.473,51.266
			z M59.309,53.886h-6.422v-2.134h6.422V53.886L59.309,53.886z"/>
		<path fill="#CCCCCC" d="M61.711,56.54h-25.42c-0.813,0-1.476,0.659-1.476,1.474v5.012c0,0.813,0.663,1.473,1.476,1.473h25.42
			c0.811,0,1.475-0.658,1.475-1.473v-5.012C63.186,57.199,62.521,56.54,61.711,56.54z M37.473,60.031
			c-0.502,0-0.91-0.403-0.91-0.909c0-0.502,0.407-0.908,0.91-0.908s0.909,0.406,0.909,0.908
			C38.382,59.628,37.976,60.031,37.473,60.031z M59.309,62.65h-6.422v-2.133h6.422V62.65L59.309,62.65z"/>
		<polygon fill="#CCCCCC" points="53.391,69.291 50.682,69.291 50.682,65.35 47.32,65.35 47.32,69.291 44.608,69.291 44.608,70.329 
			35.126,70.329 35.126,73.691 44.608,73.691 44.608,74.73 53.391,74.73 53.391,73.691 62.872,73.691 62.872,70.329 53.391,70.329 
					"/>
		<path fill="#CCCCCC" d="M64.004,30.924c-0.363-0.03-0.697-0.217-0.915-0.509c-2.038-2.752-5.305-4.45-8.782-4.45
			c-0.218,0-0.437,0.006-0.654,0.019c-0.301,0.019-0.598-0.071-0.84-0.253c-2.115-1.597-4.682-2.462-7.367-2.462
			c-4.812,0-9.082,2.787-11.077,7.007c-0.183,0.387-0.549,0.656-0.973,0.714C28.094,31.737,24,36.303,24,41.807
			c0,5.248,3.72,9.64,8.663,10.685v-3.245c0-0.405,0.075-0.79,0.2-1.153c-2.643-0.869-4.559-3.357-4.559-6.287
			c0-3.649,2.969-6.619,6.62-6.619c0.184,0,0.365,0.014,0.546,0.029c1.052,0.082,2.003-0.601,2.26-1.621
			c0.89-3.547,4.063-6.024,7.716-6.024c2.087,0,4.063,0.806,5.562,2.27c0.514,0.5,1.24,0.712,1.941,0.566
			c0.447-0.093,0.902-0.14,1.357-0.14c2.555,0,4.838,1.437,5.955,3.749c0.393,0.813,1.252,1.297,2.15,1.205
			c0.225-0.022,0.447-0.033,0.664-0.033c3.65,0,6.619,2.969,6.619,6.619c0,2.93-1.916,5.417-4.559,6.287
			c0.123,0.363,0.198,0.748,0.198,1.153v3.245C70.277,51.445,74,47.055,74,41.807C73.999,36.097,69.594,31.396,64.004,30.924z"/>
	</g>
</g>
<path fill="#444444" d="M68.009,21.694c-11.205,0-22.41,0-33.615,0c-2.813,0-2.813,4.365,0,4.365c11.205,0,22.41,0,33.615,0
	C70.822,26.059,70.822,21.694,68.009,21.694z"/>
<path fill="#444444" d="M68.009,32.024c-11.205,0-4.951,0-16.157,0c-2.813,0-2.813,4.365,0,4.365c11.206,0,4.952,0,16.157,0
	C70.822,36.389,70.822,32.024,68.009,32.024z"/>
<polygon fill="#444444" points="23.566,16.237 74.294,16.237 74.294,43.94 79.531,43.94 79.531,11 18.329,11 18.329,28.082 
	23.566,28.082 "/>
<g>
	<path fill="#161616" d="M33.976,43.495c0,0-0.11-1.21-0.166-1.82c0.286-0.163,0.56-0.34,0.818-0.541
		c0.456,0.262,1.362,0.788,1.362,0.788l1.55-0.406l1.757-3.035l-0.407-1.55c0,0-1.17-0.679-1.755-1.014
		c-0.016-0.335-0.052-0.673-0.12-0.991c0.466-0.401,1.39-1.193,1.39-1.193v-1.6l-2.286-2.663h-1.601c0,0-0.759,0.649-1.138,0.976
		c-0.41-0.199-0.845-0.363-1.299-0.487c-0.037-0.45-0.11-1.351-0.11-1.351l-1.131-1.131l-3.497,0.282l-1.129,1.132
		c0,0,0.096,1.188,0.143,1.783c-0.342,0.193-0.665,0.414-0.967,0.66c-0.491-0.228-1.479-0.676-1.479-0.676l-1.549,0.405l-1.464,3.19
		l-0.055,0.217l0.459,1.333c0,0,1.142,0.521,1.714,0.782c0.025,0.379,0.082,0.744,0.177,1.102c-0.437,0.367-1.308,1.109-1.308,1.109
		v1.6l2.269,2.677c0,0,1.319,0.158,1.391,0.116c0.072-0.037,0.213-0.116,0.213-0.116s0.829-0.701,1.243-1.055
		c0.349,0.158,0.713,0.289,1.093,0.392c0.04,0.473,0.128,1.415,0.128,1.415l1.129,1.129l3.492-0.32L33.976,43.495z M29.88,39.74
		c-1.947,0-3.528-1.581-3.528-3.529c0-1.949,1.58-3.528,3.528-3.528c1.951,0,3.532,1.58,3.532,3.528
		C33.414,38.156,31.832,39.74,29.88,39.74z"/>
	<path fill="#161616" d="M43.678,54.976c0,0-0.083-0.916-0.124-1.378c0.216-0.12,0.424-0.254,0.618-0.404
		c0.344,0.193,1.03,0.595,1.03,0.595l1.171-0.308l1.33-2.293l-0.308-1.172c0,0-0.883-0.513-1.327-0.765
		c-0.01-0.255-0.038-0.508-0.091-0.752c0.35-0.301,1.051-0.901,1.051-0.901v-1.209l-1.728-2.014h-1.21c0,0-0.574,0.49-0.861,0.738
		c-0.311-0.15-0.641-0.275-0.983-0.369c-0.028-0.341-0.082-1.023-0.082-1.023l-0.856-0.855l-2.644,0.215l-0.855,0.854
		c0,0,0.073,0.901,0.11,1.346c-0.258,0.146-0.504,0.314-0.731,0.5c-0.37-0.173-1.117-0.51-1.117-0.51L34.9,45.576l-1.107,2.414
		l-0.037,0.164l0.346,1.006c0,0,0.865,0.396,1.296,0.592c0.019,0.287,0.063,0.559,0.134,0.835c-0.33,0.276-0.988,0.833-0.988,0.833
		v1.211l1.714,2.025c0,0,0.997,0.119,1.051,0.088c0.054-0.026,0.163-0.088,0.163-0.088s0.625-0.532,0.938-0.794
		c0.263,0.115,0.54,0.218,0.828,0.293c0.033,0.357,0.098,1.067,0.098,1.067l0.855,0.855l2.64-0.244L43.678,54.976z M40.583,52.135
		c-1.473,0-2.666-1.197-2.666-2.669c0-1.475,1.194-2.667,2.666-2.667c1.477,0,2.671,1.196,2.671,2.667S42.06,52.135,40.583,52.135z"
		/>
	<path fill="#161616" d="M70.308,73.492c-0.007-0.559-0.052-1.112-0.147-1.647c0.785-0.63,2.357-1.889,2.357-1.889l0.09-2.64
		l-3.625-4.515l-2.647-0.085c0,0-1.28,1.033-1.927,1.548c-0.669-0.348-1.378-0.645-2.118-0.873
		c-0.037-0.743-0.112-2.237-0.112-2.237l-1.807-1.923l-5.777,0.279l-1.927,1.805c0,0,0.096,1.964,0.14,2.945
		c-0.573,0.304-1.119,0.651-1.632,1.037c-0.797-0.398-2.398-1.193-2.398-1.193l-2.575,0.59l-2.582,5.184l-0.097,0.354l0.685,2.22
		c0,0,1.856,0.915,2.786,1.381c0.021,0.623,0.098,1.231,0.233,1.821c-0.739,0.583-2.217,1.763-2.217,1.763l-0.086,2.633l3.598,4.535
		c0,0,2.164,0.331,2.284,0.27c0.119-0.062,0.357-0.185,0.357-0.185s1.405-1.111,2.107-1.667c0.566,0.276,1.16,0.517,1.78,0.699
		c0.044,0.78,0.137,2.336,0.137,2.336l1.807,1.928l5.771-0.341l1.928-1.799c0,0-0.114-2.005-0.175-3.013
		c0.477-0.254,0.94-0.537,1.378-0.848c0.732,0.457,2.208,1.37,2.208,1.37l2.574-0.591l3.061-4.912l-0.592-2.577
		C73.147,75.256,71.256,74.079,70.308,73.492z M58.147,79.402c-3.213-0.103-5.735-2.79-5.63-6.003
		c0.102-3.219,2.793-5.735,6.003-5.638c3.218,0.107,5.736,2.794,5.635,6.012C64.05,76.987,61.363,79.504,58.147,79.402z"/>
	<path fill="#161616" d="M81.039,61.178c0,0-2.036-1.27-3.056-1.899c-0.007-0.6-0.052-1.194-0.157-1.767
		c0.845-0.679,2.538-2.037,2.538-2.037l0.091-2.836l-3.9-4.857l-2.841-0.094c0,0-1.384,1.109-2.073,1.668
		c-0.719-0.378-1.481-0.697-2.282-0.941c-0.036-0.803-0.114-2.407-0.114-2.407l-1.94-2.072l-6.221,0.304l-2.071,1.939
		c0,0,0.104,2.111,0.149,3.165c-0.618,0.327-1.201,0.697-1.749,1.118c-0.859-0.43-2.583-1.28-2.583-1.28l-2.766,0.632l-2.781,5.574
		l-0.105,0.382l0.739,2.388c0,0,1.305,0.645,2.329,1.155l1.151-1.08l0.472-0.44l0.642-0.03l4.638-0.226
		c0.811-2.629,3.277-4.511,6.156-4.416c3.461,0.109,6.172,3.001,6.06,6.459c-0.026,0.931-0.271,1.801-0.661,2.582l3.257,4.058
		l0.405,0.505l-0.021,0.647l-0.055,1.671c0.675,0.42,1.323,0.821,1.323,0.821l2.77-0.634l3.286-5.276L81.039,61.178z"/>
</g>
<g>
	<path fill="#5B5B5B" d="M21.346,54.976c0.513,0,0.938-0.14,1.274-0.411c0.334-0.276,0.592-0.67,0.761-1.171
		c0.169-0.509,0.255-1.177,0.255-2.001c0-0.693-0.052-1.248-0.157-1.656c-0.106-0.413-0.253-0.761-0.437-1.049
		c-0.187-0.285-0.421-0.505-0.703-0.655c-0.285-0.15-0.617-0.227-0.993-0.227c-0.511,0-0.935,0.136-1.272,0.411
		c-0.337,0.273-0.594,0.663-0.765,1.169c-0.167,0.51-0.255,1.176-0.255,2.006c0,1.32,0.233,2.271,0.691,2.857
		C20.135,54.733,20.669,54.976,21.346,54.976z M20.389,49.021c0.236-0.333,0.552-0.502,0.95-0.502c0.4,0,0.737,0.188,1.009,0.567
		c0.267,0.382,0.403,1.148,0.403,2.306c0,1.149-0.136,1.916-0.403,2.299c-0.271,0.385-0.606,0.576-0.999,0.576
		c-0.396,0-0.73-0.191-0.999-0.573c-0.27-0.386-0.403-1.149-0.403-2.302C19.943,50.242,20.091,49.449,20.389,49.021z"/>
	<path fill="#5B5B5B" d="M26.438,48.746c-0.362,0.322-0.784,0.597-1.266,0.825v0.833c0.268-0.098,0.571-0.247,0.909-0.443
		c0.338-0.195,0.608-0.398,0.816-0.594v5.495h0.863v-7.054h-0.556C27.053,48.109,26.799,48.421,26.438,48.746z"/>
	<path fill="#5B5B5B" d="M23.208,59.163c-0.187-0.283-0.418-0.504-0.705-0.654c-0.285-0.151-0.616-0.226-0.991-0.226
		c-0.51,0-0.936,0.137-1.273,0.409c-0.336,0.271-0.588,0.661-0.763,1.17c-0.17,0.505-0.255,1.177-0.255,2.003
		c0,1.32,0.231,2.273,0.693,2.855c0.388,0.487,0.917,0.73,1.596,0.73c0.513,0,0.94-0.14,1.278-0.412
		c0.332-0.277,0.588-0.672,0.76-1.177c0.17-0.502,0.255-1.17,0.255-1.997c0-0.693-0.053-1.251-0.158-1.658
		C23.537,59.798,23.391,59.45,23.208,59.163z M22.509,64.169c-0.271,0.382-0.602,0.577-0.999,0.577
		c-0.396,0-0.728-0.195-0.997-0.577c-0.271-0.382-0.401-1.149-0.401-2.302c0-1.148,0.145-1.94,0.441-2.369
		c0.236-0.333,0.554-0.505,0.951-0.505c0.403,0,0.738,0.19,1.008,0.569c0.271,0.382,0.405,1.149,0.405,2.305
		C22.916,63.02,22.782,63.784,22.509,64.169z"/>
	<path fill="#5B5B5B" d="M27.925,65.335V58.28H27.37c-0.149,0.304-0.405,0.616-0.765,0.941c-0.359,0.319-0.781,0.596-1.264,0.824
		v0.832c0.267-0.099,0.571-0.245,0.908-0.442c0.337-0.196,0.611-0.399,0.817-0.594v5.493H27.925L27.925,65.335z"/>
	<path fill="#5B5B5B" d="M32.653,65.335V58.28H32.1c-0.148,0.304-0.405,0.616-0.765,0.941c-0.359,0.319-0.781,0.596-1.264,0.824
		v0.832c0.265-0.099,0.571-0.245,0.908-0.442c0.336-0.196,0.613-0.399,0.817-0.594v5.493H32.653L32.653,65.335z"/>
	<path fill="#5B5B5B" d="M38.851,59.163c-0.187-0.283-0.418-0.504-0.705-0.654c-0.285-0.151-0.616-0.226-0.99-0.226
		c-0.512,0-0.938,0.137-1.273,0.409c-0.336,0.271-0.588,0.661-0.763,1.17c-0.17,0.509-0.255,1.177-0.255,2.003
		c0,1.32,0.23,2.273,0.691,2.859c0.388,0.483,0.918,0.727,1.598,0.727c0.511,0,0.938-0.14,1.274-0.412
		c0.335-0.277,0.588-0.668,0.76-1.17c0.17-0.509,0.256-1.177,0.256-2.002c0-0.695-0.055-1.248-0.161-1.657
		C39.181,59.798,39.037,59.45,38.851,59.163z M38.15,64.169c-0.27,0.382-0.602,0.577-0.996,0.577c-0.398,0-0.73-0.195-1.001-0.577
		c-0.271-0.382-0.402-1.149-0.402-2.302c0-1.148,0.149-1.94,0.442-2.369c0.24-0.333,0.554-0.505,0.95-0.505
		c0.403,0,0.738,0.19,1.009,0.569c0.271,0.382,0.405,1.149,0.405,2.305C38.559,63.02,38.425,63.784,38.15,64.169z"/>
	<path fill="#5B5B5B" d="M23.208,70.941c-0.187-0.286-0.418-0.505-0.705-0.658c-0.285-0.15-0.616-0.226-0.991-0.226
		c-0.51,0-0.936,0.134-1.273,0.409c-0.336,0.271-0.588,0.666-0.763,1.171c-0.17,0.507-0.255,1.173-0.255,2.003
		c0,1.322,0.231,2.274,0.693,2.857c0.388,0.484,0.917,0.731,1.596,0.731c0.513,0,0.94-0.14,1.278-0.416
		c0.332-0.272,0.588-0.669,0.76-1.173c0.17-0.505,0.255-1.174,0.255-2c0-0.691-0.053-1.248-0.158-1.657
		C23.537,71.572,23.391,71.228,23.208,70.941z M22.509,75.948c-0.271,0.382-0.602,0.569-0.999,0.569
		c-0.396,0-0.728-0.188-0.997-0.569c-0.271-0.386-0.401-1.149-0.401-2.303c0-1.152,0.145-1.94,0.441-2.37
		c0.236-0.332,0.554-0.505,0.951-0.505c0.403,0,0.738,0.19,1.008,0.57c0.271,0.382,0.405,1.148,0.405,2.305
		C22.916,74.795,22.782,75.563,22.509,75.948z"/>
	<path fill="#5B5B5B" d="M28.667,70.941c-0.189-0.286-0.422-0.505-0.705-0.658c-0.285-0.15-0.617-0.226-0.992-0.226
		c-0.51,0-0.936,0.134-1.273,0.409c-0.336,0.271-0.591,0.666-0.764,1.171c-0.169,0.507-0.255,1.173-0.255,2.003
		c0,1.319,0.23,2.271,0.691,2.854c0.389,0.488,0.918,0.73,1.598,0.73c0.513,0,0.939-0.135,1.274-0.414
		c0.335-0.273,0.592-0.666,0.761-1.173c0.17-0.505,0.254-1.171,0.254-1.997c0-0.694-0.054-1.252-0.157-1.66
		C28.995,71.572,28.848,71.228,28.667,70.941z M27.966,75.948c-0.27,0.382-0.602,0.569-0.998,0.569c-0.396,0-0.73-0.188-0.998-0.569
		c-0.27-0.386-0.405-1.149-0.405-2.303c0-1.152,0.148-1.94,0.445-2.37c0.236-0.332,0.554-0.505,0.951-0.505
		c0.403,0,0.738,0.19,1.008,0.57c0.27,0.382,0.405,1.148,0.405,2.305C28.373,74.795,28.238,75.563,27.966,75.948z"/>
	<path fill="#5B5B5B" d="M34.121,70.941c-0.185-0.286-0.418-0.505-0.701-0.658c-0.289-0.15-0.619-0.226-0.992-0.226
		c-0.51,0-0.936,0.134-1.272,0.409c-0.338,0.271-0.592,0.666-0.765,1.171c-0.169,0.507-0.255,1.173-0.255,2.003
		c0,1.319,0.23,2.271,0.691,2.854c0.39,0.488,0.918,0.73,1.598,0.73c0.511,0,0.939-0.135,1.274-0.414
		c0.335-0.273,0.588-0.666,0.76-1.173c0.17-0.505,0.257-1.171,0.257-1.997c0-0.694-0.055-1.252-0.162-1.66
		C34.454,71.572,34.307,71.228,34.121,70.941z M33.423,75.948c-0.269,0.382-0.604,0.569-0.997,0.569
		c-0.398,0-0.73-0.188-0.999-0.569c-0.271-0.386-0.403-1.149-0.403-2.303c0-1.152,0.148-1.94,0.443-2.37
		c0.238-0.332,0.556-0.505,0.951-0.505c0.401,0,0.738,0.19,1.008,0.57c0.271,0.382,0.408,1.148,0.408,2.305
		C33.831,74.795,33.695,75.563,33.423,75.948z"/>
	<path fill="#5B5B5B" d="M38.844,77.11v-7.053h-0.555c-0.15,0.304-0.407,0.614-0.768,0.936c-0.361,0.327-0.781,0.6-1.264,0.828
		v0.835c0.27-0.102,0.571-0.248,0.908-0.446c0.337-0.197,0.613-0.399,0.818-0.594v5.497h0.864V77.11H38.844z"/>
	<path fill="#5B5B5B" d="M43.5,82.43c-0.361,0.321-0.783,0.598-1.268,0.826v0.831c0.27-0.099,0.573-0.245,0.91-0.443
		c0.336-0.193,0.608-0.396,0.816-0.593v5.493h0.863v-7.056h-0.558C44.113,81.792,43.858,82.106,43.5,82.43z"/>
	<path fill="#5B5B5B" d="M23.208,82.717c-0.187-0.287-0.418-0.505-0.705-0.655c-0.285-0.157-0.616-0.231-0.991-0.231
		c-0.51,0-0.936,0.136-1.273,0.41c-0.336,0.273-0.588,0.667-0.763,1.171c-0.17,0.507-0.255,1.178-0.255,2.008
		c0,1.319,0.231,2.268,0.693,2.854C20.303,88.757,20.831,89,21.51,89c0.513,0,0.94-0.138,1.278-0.411
		c0.332-0.273,0.588-0.671,0.76-1.179c0.17-0.503,0.255-1.17,0.255-1.991c0-0.699-0.053-1.257-0.158-1.661
		C23.537,83.347,23.391,83.003,23.208,82.717z M22.509,87.719c-0.271,0.387-0.602,0.576-0.999,0.576
		c-0.396,0-0.728-0.189-0.997-0.576c-0.271-0.382-0.401-1.141-0.401-2.293c0-1.156,0.145-1.943,0.441-2.372
		c0.236-0.334,0.554-0.501,0.951-0.501c0.403,0,0.738,0.186,1.008,0.567c0.271,0.38,0.405,1.146,0.405,2.306
		C22.916,86.572,22.782,87.337,22.509,87.719z"/>
	<path fill="#5B5B5B" d="M26.604,82.767c-0.361,0.33-0.781,0.602-1.265,0.831v0.834c0.267-0.101,0.571-0.247,0.908-0.445
		c0.337-0.193,0.611-0.396,0.817-0.593v5.492h0.861V81.83H27.37C27.221,82.137,26.963,82.447,26.604,82.767z"/>
	<path fill="#5B5B5B" d="M31.333,82.767c-0.361,0.33-0.781,0.602-1.264,0.831v0.834c0.265-0.101,0.571-0.247,0.908-0.445
		c0.337-0.193,0.613-0.396,0.817-0.593v5.492h0.861V81.83h-0.553C31.951,82.137,31.693,82.447,31.333,82.767z"/>
	<path fill="#5B5B5B" d="M38.851,82.717c-0.187-0.287-0.418-0.505-0.705-0.655c-0.285-0.157-0.616-0.231-0.99-0.231
		c-0.512,0-0.938,0.136-1.273,0.41c-0.336,0.273-0.588,0.667-0.763,1.171c-0.17,0.507-0.255,1.178-0.255,2.008
		c0,1.319,0.23,2.268,0.691,2.854C35.944,88.757,36.475,89,37.154,89c0.511,0,0.938-0.138,1.274-0.411
		c0.335-0.273,0.588-0.671,0.76-1.179c0.17-0.503,0.256-1.17,0.256-1.991c0-0.699-0.055-1.257-0.161-1.661
		C39.181,83.347,39.037,83.003,38.851,82.717z M38.15,87.719c-0.27,0.387-0.602,0.576-0.996,0.576c-0.398,0-0.73-0.189-1.001-0.576
		c-0.271-0.382-0.402-1.141-0.402-2.293c0-1.156,0.149-1.943,0.442-2.372c0.24-0.334,0.554-0.501,0.95-0.501
		c0.403,0,0.738,0.186,1.009,0.567c0.271,0.38,0.405,1.146,0.405,2.306C38.559,86.572,38.425,87.337,38.15,87.719z"/>
</g>
<g display="none">
	<path display="inline" fill="#CCCCCC" d="M35.574,70.982h28.851L50,46.318L35.574,70.982z M38.688,69.195L50,49.854l11.313,19.341
		H38.688z"/>
	<path display="inline" fill="#CCCCCC" d="M49.107,54.91v7.145c0,0.492,0.399,0.893,0.893,0.893s0.893-0.399,0.893-0.893V54.91
		c0-0.493-0.398-0.893-0.893-0.893S49.107,54.417,49.107,54.91z"/>
	<path display="inline" fill="#CCCCCC" d="M50,64.732c-0.493,0-0.893,0.397-0.893,0.893v0.893c0,0.494,0.399,0.894,0.893,0.894
		s0.893-0.397,0.893-0.894v-0.893C50.893,65.131,50.493,64.732,50,64.732z"/>
	<path display="inline" fill="#CCCCCC" d="M67.71,43.291c-0.122-0.017-2.194-0.299-4.183,0.002
		c-0.045,0.007-0.092,0.011-0.135,0.011c-0.436,0-0.814-0.316-0.883-0.759c-0.074-0.488,0.262-0.943,0.748-1.018
		c1.367-0.208,2.734-0.175,3.646-0.11c-0.6-6.921-6.342-12.399-13.258-12.399c-4.193,0-8.409,2.125-10.968,5.473
		c1.744,1.475,2.857,3.676,2.857,6.135c0,0.494-0.399,0.893-0.893,0.893c-0.493,0-0.893-0.399-0.893-0.893
		c0-2.198-1.144-4.131-2.865-5.246c-0.203-0.132-0.412-0.248-0.627-0.354c-0.062-0.03-0.124-0.062-0.188-0.09
		c-0.243-0.11-0.491-0.209-0.745-0.286c-0.031-0.009-0.063-0.016-0.095-0.024c-0.231-0.067-0.466-0.118-0.705-0.158
		c-0.07-0.011-0.138-0.022-0.208-0.032c-0.27-0.034-0.542-0.059-0.818-0.059c-3.445,0-6.25,2.805-6.25,6.25
		c0,0.073,0.005,0.146,0.011,0.218l0.011,0.188l-0.008,0.143c-0.007,0.116-0.014,0.231-0.014,0.344v0.563l-0.506,0.242
		C27.415,43.918,25,47.768,25,51.477c0,5.34,4.344,9.685,9.683,9.685h4.567L50,42.78l10.75,18.38h5.297
		c4.936,0,8.953-4.018,8.953-8.953C75,47.912,71.866,44.082,67.71,43.291z"/>
</g>
<g display="none">
	<g display="inline">
		<path fill="#CCCCCC" d="M59.18,47.39H40.821c-1.753,0-3.172,1.42-3.172,3.172v17.184c0,1.753,1.419,3.173,3.172,3.173H59.18
			c1.752,0,3.172-1.42,3.172-3.173V50.563C62.352,48.81,60.932,47.39,59.18,47.39z M56.521,49.327c0.848,0,1.533,0.687,1.533,1.532
			c0,0.849-0.688,1.533-1.533,1.533c-0.849,0-1.535-0.687-1.535-1.533C54.986,50.014,55.674,49.327,56.521,49.327z M43.479,49.327
			c0.847,0,1.534,0.687,1.534,1.532c0,0.849-0.687,1.533-1.534,1.533c-0.848,0-1.534-0.687-1.534-1.533
			C41.945,50.014,42.631,49.327,43.479,49.327z M59.052,66.739c0,0.485-0.394,0.879-0.88,0.879H41.827
			c-0.485,0-0.879-0.394-0.879-0.879v-11.46c0-0.484,0.394-0.879,0.879-0.879h16.345c0.486,0,0.88,0.395,0.88,0.879V66.739
			L59.052,66.739z"/>
		<polygon fill="#CCCCCC" points="46.592,58.102 51.018,58.102 51.018,58.131 47.038,65.896 49.428,65.896 53.408,57.654 
			53.408,56.244 46.592,56.244 		"/>
		<path fill="#CCCCCC" d="M64.865,36.726c-0.277-0.02-0.531-0.162-0.693-0.387c-2.031-2.818-5.342-4.562-8.865-4.562
			c-0.256,0-0.511,0.01-0.767,0.027c-0.228,0.016-0.454-0.053-0.638-0.192c-2.133-1.64-4.733-2.531-7.458-2.531
			c-4.868,0-9.183,2.854-11.147,7.16c-0.135,0.296-0.414,0.5-0.737,0.541C29.178,37.455,25,42.059,25,47.62
			c0,5.879,4.672,10.674,10.497,10.899v-4.304c-3.451-0.222-6.193-3.092-6.193-6.598c0-3.649,2.969-6.619,6.619-6.619
			c0.184,0,0.366,0.015,0.546,0.029c1.052,0.082,2.004-0.601,2.26-1.621c0.89-3.546,4.063-6.024,7.716-6.024
			c2.087,0,4.063,0.807,5.563,2.27c0.514,0.5,1.239,0.713,1.941,0.566c0.445-0.093,0.902-0.14,1.357-0.14
			c2.555,0,4.838,1.437,5.954,3.75c0.394,0.813,1.253,1.296,2.151,1.204C63.636,41.011,63.857,41,64.075,41
			c3.649,0,6.62,2.97,6.62,6.62c0,3.505-2.742,6.376-6.193,6.597v4.305C70.328,58.296,75,53.499,75,47.621
			C74.999,41.862,70.521,37.131,64.865,36.726z"/>
	</g>
</g>
<g display="none">
	<g display="inline">
		<path fill="#CCCCCC" d="M50,25c-13.807,0-25,11.193-25,25c0,13.807,11.193,25,25,25c13.807,0,25-11.193,25-25
			C75,36.192,63.807,25,50,25z M59.909,61.826c-0.274,0-0.546-0.016-0.812-0.043c-0.244,0.027-0.49,0.043-0.742,0.043h-6.274
			l6.75-6.813c0.392-0.395,0.515-0.996,0.31-1.522c-0.205-0.525-0.695-0.869-1.238-0.869h-3.327v-7.111
			c0-0.856-0.694-1.552-1.552-1.552h-4.706c-0.856,0-1.552,0.695-1.552,1.552v7.111h-3.588c-0.002,0-0.005,0-0.008,0
			c-0.738,0-1.336,0.623-1.336,1.392c0,0.438,0.194,0.829,0.496,1.084l6.668,6.729H38.965c-3.653,0-6.614-2.962-6.614-6.614
			c0-3.042,2.055-5.603,4.852-6.374c0.309-2.591,2.51-4.6,5.183-4.6c0.808,0,1.571,0.189,2.254,0.518
			c1.329-3.698,4.864-6.343,9.02-6.343c4.982,0,9.076,3.804,9.538,8.665c2.63,1.236,4.45,3.909,4.45,7.008
			C67.648,58.359,64.184,61.826,59.909,61.826z"/>
	</g>
</g>
<g display="none">
	<g id="Layer_1_127_" display="inline">
		<g>
			<path fill="#CCCCCC" d="M72.868,69.854l-7.177-7.178c-0.478-0.475-1.117-0.67-1.737-0.604l-1.005-1.006
				c3.353-3.803,5.203-8.623,5.203-13.736c0-5.563-2.166-10.793-6.101-14.727c-3.935-3.937-9.163-6.104-14.728-6.104
				c-5.563,0-10.795,2.167-14.728,6.102c-8.122,8.121-8.122,21.336,0,29.458c3.934,3.936,9.164,6.102,14.727,6.102
				c5.114,0,9.934-1.852,13.737-5.204l1.004,1.005c-0.064,0.62,0.129,1.264,0.604,1.737l7.179,7.177
				c0.416,0.416,0.963,0.625,1.508,0.625s1.095-0.208,1.511-0.626C73.703,72.04,73.703,70.688,72.868,69.854z M47.324,63.886
				c-4.421,0-8.578-1.722-11.706-4.849c-6.456-6.456-6.456-16.96,0-23.415c3.128-3.127,7.285-4.851,11.707-4.851
				c4.421,0,8.579,1.724,11.708,4.852c3.127,3.127,4.849,7.285,4.849,11.706c0,4.422-1.723,8.579-4.853,11.706
				C55.902,62.164,51.745,63.886,47.324,63.886z"/>
			<path fill="#CCCCCC" d="M59.758,51.852L53.35,46.51c-0.317-0.266-0.764-0.322-1.138-0.146c-0.375,0.176-0.614,0.553-0.614,0.967
				v2.258h-5.341c-0.59,0-1.068,0.479-1.068,1.068v4.022c0,0.59,0.478,1.067,1.068,1.067h5.341v2.261
				c0,0.415,0.239,0.792,0.614,0.969c0.146,0.066,0.3,0.103,0.453,0.103c0.245,0,0.487-0.084,0.685-0.248l6.408-5.34
				c0.243-0.203,0.385-0.505,0.385-0.82S60.001,52.055,59.758,51.852z"/>
			<path fill="#CCCCCC" d="M49.46,44v-4.023c0-0.59-0.478-1.067-1.068-1.067h-5.339v-2.26c0-0.416-0.24-0.793-0.615-0.969
				c-0.376-0.175-0.819-0.117-1.137,0.146l-6.411,5.341c-0.244,0.203-0.384,0.503-0.384,0.821c0,0.316,0.141,0.617,0.384,0.82
				l6.411,5.342c0.195,0.162,0.438,0.248,0.684,0.248c0.154,0,0.309-0.034,0.454-0.102c0.375-0.177,0.615-0.553,0.615-0.968v-2.263
				h5.339C48.982,45.066,49.46,44.589,49.46,44z"/>
		</g>
	</g>
</g>
</svg>
