<?xml version="1.0" encoding="utf-8"?>
<!-- Generator: Adobe Illustrator 15.0.0, SVG Export Plug-In . SVG Version: 6.00 Build 0)  -->
<!DOCTYPE svg PUBLIC "-//W3C//DTD SVG 1.1//EN" "http://www.w3.org/Graphics/SVG/1.1/DTD/svg11.dtd">
<svg version="1.1" id="Layer_1" xmlns="http://www.w3.org/2000/svg" xmlns:xlink="http://www.w3.org/1999/xlink" x="0px" y="0px"
	 width="100px" height="100px" viewBox="0 0 100 100" enable-background="new 0 0 100 100" xml:space="preserve">
<g>
	<g>
		<path fill="#E8E8E8" stroke="#0071BC" stroke-width="0.5" stroke-miterlimit="10" d="M-140.333-26.023
			c0-0.153-0.082-0.294-0.214-0.371c-0.133-0.076-0.296-0.076-0.428,0l-8.263,4.771c-0.439,0.254-0.711,0.723-0.711,1.23v9.542
			c0,0.152,0.081,0.293,0.214,0.369c0.132,0.077,0.295,0.077,0.428,0.001l7.947-4.588c0.635-0.367,1.026-1.045,1.026-1.778V-26.023z
			"/>
		<path fill="#E8E8E8" stroke="#0071BC" stroke-width="0.5" stroke-miterlimit="10" d="M-159.693-26.394
			c-0.132-0.076-0.295-0.077-0.427,0c-0.133,0.077-0.214,0.217-0.214,0.37c0,0,0,0,0,0v9.177c0,0.733,0.391,1.411,1.026,1.778
			l7.947,4.587c0,0,0,0.001,0.001,0.001c0.132,0.076,0.295,0.076,0.428-0.001c0.131-0.076,0.213-0.218,0.213-0.37v-9.542
			c0-0.508-0.271-0.977-0.711-1.23L-159.693-26.394z"/>
		<path fill="#E8E8E8" stroke="#0071BC" stroke-width="0.5" stroke-miterlimit="10" d="M-141.36-27.06
			c0.132-0.076,0.214-0.217,0.214-0.37c0-0.152-0.081-0.294-0.214-0.37l0,0l-7.947-4.589c-0.636-0.367-1.418-0.367-2.053,0
			l-7.947,4.588c-0.001,0-0.001,0-0.001,0c-0.132,0.077-0.214,0.218-0.214,0.371s0.082,0.293,0.215,0.37l8.263,4.771
			c0.439,0.254,0.981,0.254,1.421,0L-141.36-27.06z"/>
	</g>
	<g>
		<path fill="#E8E8E8" stroke="#0071BC" stroke-width="0.5" stroke-miterlimit="10" d="M-128.5-19.229
			c0-0.153-0.082-0.294-0.214-0.371c-0.133-0.076-0.296-0.076-0.428,0l-8.263,4.771c-0.439,0.254-0.711,0.723-0.711,1.23v9.542
			c0,0.152,0.081,0.293,0.214,0.369c0.132,0.077,0.295,0.077,0.428,0.001l7.947-4.588c0.635-0.367,1.026-1.045,1.026-1.778V-19.229z
			"/>
		<path fill="#E8E8E8" stroke="#0071BC" stroke-width="0.5" stroke-miterlimit="10" d="M-147.859-19.6
			c-0.133-0.076-0.295-0.077-0.428,0s-0.214,0.217-0.214,0.37c0,0,0,0,0,0v9.177c0,0.733,0.392,1.411,1.026,1.778l7.947,4.587v0.001
			c0.133,0.076,0.295,0.076,0.428-0.001c0.133-0.076,0.213-0.218,0.213-0.37v-9.541c0-0.509-0.27-0.978-0.71-1.23L-147.859-19.6z"/>
		<path fill="#E8E8E8" stroke="#0071BC" stroke-width="0.5" stroke-miterlimit="10" d="M-129.527-20.266
			c0.132-0.076,0.214-0.217,0.214-0.37c0-0.152-0.081-0.294-0.214-0.37l0,0l-7.947-4.589c-0.636-0.367-1.418-0.367-2.053,0
			l-7.947,4.588l0,0c-0.133,0.077-0.215,0.218-0.215,0.371s0.082,0.293,0.215,0.37l8.263,4.771c0.44,0.254,0.981,0.254,1.421,0
			L-129.527-20.266z"/>
	</g>
	<g>
		<g>
			<path fill="#E8E8E8" stroke="#0071BC" stroke-width="0.5" stroke-miterlimit="10" d="M-147.667-14.688
				c0-0.153-0.082-0.295-0.213-0.371c-0.133-0.076-0.297-0.076-0.428,0l-8.264,4.771c-0.439,0.254-0.711,0.723-0.711,1.23v9.542
				c0,0.152,0.081,0.293,0.214,0.369c0.132,0.077,0.295,0.077,0.428,0.001l7.948-4.588c0.635-0.367,1.025-1.045,1.025-1.778V-14.688
				z"/>
			<path fill="#E8E8E8" stroke="#0071BC" stroke-width="0.5" stroke-miterlimit="10" d="M-167.026-15.06
				c-0.133-0.076-0.295-0.076-0.428,0c-0.132,0.077-0.214,0.218-0.214,0.371l0,0v9.177c0,0.733,0.392,1.411,1.026,1.778l7.947,4.587
				c0,0,0,0.001,0.001,0.001c0.132,0.076,0.295,0.076,0.428-0.001c0.132-0.076,0.213-0.218,0.213-0.37v-9.541
				c0-0.508-0.271-0.977-0.711-1.23L-167.026-15.06z"/>
			<path fill="#E8E8E8" stroke="#0071BC" stroke-width="0.5" stroke-miterlimit="10" d="M-148.693-15.726
				c0.131-0.076,0.213-0.217,0.213-0.37c0-0.152-0.08-0.294-0.213-0.37l0,0l-7.948-4.589c-0.636-0.367-1.418-0.367-2.053,0
				l-7.947,4.589l0,0c-0.133,0.076-0.214,0.217-0.214,0.37s0.082,0.294,0.214,0.37l8.263,4.771c0.44,0.254,0.981,0.254,1.421,0
				L-148.693-15.726z"/>
		</g>
		<g>
			<path fill="#E8E8E8" stroke="#0071BC" stroke-width="0.5" stroke-miterlimit="10" d="M-135.833-7.895
				c0-0.153-0.082-0.294-0.215-0.371c-0.133-0.076-0.295-0.075-0.428,0.001l-8.262,4.771c-0.439,0.254-0.711,0.723-0.711,1.23v9.542
				c0,0.152,0.08,0.293,0.213,0.369c0.133,0.077,0.295,0.077,0.428,0.001l7.947-4.588c0.635-0.367,1.027-1.045,1.027-1.778V-7.895z"
				/>
			<path fill="#E8E8E8" stroke="#0071BC" stroke-width="0.5" stroke-miterlimit="10" d="M-155.193-8.265
				c-0.133-0.076-0.295-0.077-0.428,0c-0.132,0.076-0.214,0.217-0.214,0.369c0,0,0,0,0,0.001v9.177c0,0.733,0.392,1.411,1.026,1.778
				l7.947,4.587c0,0,0,0.001,0.001,0.001c0.132,0.076,0.295,0.076,0.428-0.001c0.132-0.076,0.213-0.218,0.213-0.37v-9.541
				c0-0.509-0.271-0.978-0.71-1.23L-155.193-8.265z"/>
			<path fill="#E8E8E8" stroke="#0071BC" stroke-width="0.5" stroke-miterlimit="10" d="M-136.861-8.932
				c0.133-0.076,0.215-0.218,0.215-0.37s-0.082-0.294-0.215-0.37l0,0l-7.947-4.589c-0.635-0.367-1.418-0.367-2.053,0l-7.947,4.588
				l0,0c-0.133,0.077-0.214,0.219-0.214,0.371s0.082,0.293,0.214,0.37l8.264,4.771c0.439,0.254,0.98,0.254,1.42,0L-136.861-8.932z"
				/>
		</g>
	</g>
	<g>
		<g>
			<path fill="#E8E8E8" stroke="#0071BC" stroke-width="0.5" stroke-miterlimit="10" d="M-163.772-8.185
				c0-0.153-0.082-0.294-0.214-0.371c-0.133-0.076-0.296-0.075-0.428,0.001l-8.263,4.771c-0.439,0.254-0.711,0.723-0.711,1.23v9.542
				c0,0.152,0.081,0.293,0.214,0.369c0.132,0.077,0.295,0.077,0.428,0.001l7.947-4.588c0.635-0.367,1.026-1.045,1.026-1.778V-8.185z
				"/>
			<path fill="#E8E8E8" stroke="#0071BC" stroke-width="0.5" stroke-miterlimit="10" d="M-183.13-8.555
				c-0.133-0.076-0.295-0.077-0.428,0c-0.132,0.076-0.214,0.217-0.214,0.369c0,0,0,0,0,0.001v9.177c0,0.733,0.392,1.411,1.026,1.778
				l7.947,4.587c0,0,0,0.001,0.001,0.001c0.132,0.076,0.295,0.076,0.428-0.001c0.132-0.076,0.213-0.218,0.213-0.37v-9.541
				c0-0.509-0.271-0.978-0.711-1.23L-183.13-8.555z"/>
			<path fill="#E8E8E8" stroke="#0071BC" stroke-width="0.5" stroke-miterlimit="10" d="M-164.798-9.222
				c0.132-0.076,0.214-0.217,0.214-0.37c0-0.152-0.081-0.294-0.214-0.37l0,0l-7.947-4.589c-0.636-0.366-1.418-0.366-2.053,0
				l-7.947,4.589l0,0c-0.133,0.076-0.214,0.217-0.214,0.37s0.082,0.294,0.214,0.37l8.263,4.771c0.44,0.254,0.981,0.254,1.421,0
				L-164.798-9.222z"/>
		</g>
		<g>
			<path fill="#E8E8E8" stroke="#0071BC" stroke-width="0.5" stroke-miterlimit="10" d="M-151.939-1.391
				c0-0.153-0.082-0.295-0.213-0.371c-0.133-0.076-0.297-0.076-0.428,0l-8.264,4.771c-0.439,0.254-0.711,0.723-0.711,1.23v9.542
				c0,0.152,0.081,0.293,0.214,0.369c0.132,0.077,0.295,0.077,0.428,0.001l7.948-4.588c0.635-0.367,1.025-1.045,1.025-1.778V-1.391z
				"/>
			<path fill="#E8E8E8" stroke="#0071BC" stroke-width="0.5" stroke-miterlimit="10" d="M-171.297-1.762
				c-0.133-0.076-0.295-0.076-0.428,0c-0.132,0.077-0.214,0.218-0.214,0.371l0,0v9.177c0,0.733,0.392,1.411,1.026,1.778l7.947,4.587
				c0,0,0,0.001,0.001,0.001c0.132,0.076,0.295,0.076,0.428-0.001c0.132-0.076,0.213-0.218,0.213-0.37V4.24
				c0-0.508-0.271-0.977-0.711-1.23L-171.297-1.762z"/>
			<path fill="#E8E8E8" stroke="#0071BC" stroke-width="0.5" stroke-miterlimit="10" d="M-152.964-2.428
				c0.131-0.076,0.213-0.217,0.213-0.37c0-0.152-0.08-0.294-0.213-0.37l0,0l-7.948-4.589c-0.636-0.366-1.418-0.366-2.053,0
				l-7.947,4.589l0,0c-0.133,0.076-0.214,0.217-0.214,0.37s0.082,0.294,0.214,0.37l8.263,4.771c0.44,0.254,0.981,0.254,1.421,0
				L-152.964-2.428z"/>
		</g>
	</g>
	<g>
		<path fill="#E8E8E8" stroke="#0071BC" stroke-width="0.5" stroke-miterlimit="10" d="M-142.329-46.236
			c0-0.153-0.082-0.294-0.214-0.371c-0.133-0.076-0.296-0.076-0.428,0l-8.263,4.771c-0.439,0.254-0.711,0.723-0.711,1.23v9.542
			c0,0.152,0.081,0.293,0.214,0.369c0.132,0.077,0.295,0.077,0.428,0.001l7.947-4.588c0.635-0.367,1.026-1.045,1.026-1.778V-46.236z
			"/>
		<path fill="#E8E8E8" stroke="#0071BC" stroke-width="0.5" stroke-miterlimit="10" d="M-161.688-46.606
			c-0.132-0.076-0.295-0.077-0.427,0c-0.133,0.077-0.214,0.217-0.214,0.37c0,0,0,0,0,0v9.177c0,0.733,0.391,1.411,1.026,1.778
			l7.947,4.587c0,0,0,0.001,0.001,0.001c0.132,0.076,0.295,0.076,0.428-0.001c0.131-0.076,0.213-0.218,0.213-0.37v-9.541
			c0-0.508-0.271-0.977-0.711-1.23L-161.688-46.606z"/>
		<path fill="#E8E8E8" stroke="#0071BC" stroke-width="0.5" stroke-miterlimit="10" d="M-143.355-47.273
			c0.132-0.076,0.214-0.217,0.214-0.37c0-0.152-0.081-0.294-0.214-0.37l0,0l-7.947-4.589c-0.636-0.367-1.418-0.367-2.053,0
			l-7.947,4.588c-0.001,0-0.001,0-0.001,0c-0.132,0.077-0.214,0.218-0.214,0.371s0.082,0.293,0.215,0.37l8.263,4.771
			c0.439,0.254,0.981,0.254,1.421,0L-143.355-47.273z"/>
	</g>
	<g>
		<path fill="#E8E8E8" stroke="#0071BC" stroke-width="0.5" stroke-miterlimit="10" d="M-144.957-32.576
			c0-0.153-0.082-0.294-0.214-0.371c-0.133-0.076-0.296-0.076-0.428,0l-8.263,4.771c-0.439,0.254-0.711,0.723-0.711,1.23v9.542
			c0,0.152,0.081,0.293,0.214,0.369c0.132,0.077,0.295,0.077,0.428,0.001l7.947-4.588c0.635-0.367,1.026-1.045,1.026-1.778V-32.576z
			"/>
		<path fill="#E8E8E8" stroke="#0071BC" stroke-width="0.5" stroke-miterlimit="10" d="M-164.316-32.946
			c-0.132-0.076-0.295-0.077-0.427,0s-0.214,0.217-0.214,0.37c0,0,0,0,0,0v9.177c0,0.733,0.391,1.411,1.026,1.778l7.947,4.587
			c0,0,0,0.001,0.001,0.001c0.132,0.076,0.295,0.076,0.428-0.001c0.131-0.076,0.213-0.218,0.213-0.37v-9.542
			c0-0.508-0.271-0.977-0.711-1.23L-164.316-32.946z"/>
		<path fill="#E8E8E8" stroke="#0071BC" stroke-width="0.5" stroke-miterlimit="10" d="M-145.983-33.613
			c0.132-0.076,0.214-0.217,0.214-0.37c0-0.152-0.081-0.294-0.214-0.37l0,0l-7.947-4.589c-0.636-0.367-1.418-0.367-2.053,0
			l-7.947,4.588c-0.001,0-0.001,0-0.001,0c-0.132,0.077-0.213,0.218-0.213,0.371s0.082,0.293,0.214,0.37l8.263,4.771
			c0.439,0.254,0.981,0.254,1.421,0L-145.983-33.613z"/>
	</g>
	<g>
		<path fill="#E8E8E8" stroke="#0071BC" stroke-width="0.5" stroke-miterlimit="10" d="M-146.215-28.705
			c0-0.153-0.082-0.294-0.214-0.371c-0.133-0.076-0.296-0.076-0.428,0l-8.263,4.771c-0.439,0.254-0.711,0.723-0.711,1.23v9.542
			c0,0.152,0.081,0.293,0.214,0.369c0.132,0.077,0.295,0.077,0.428,0.001l7.947-4.588c0.635-0.367,1.026-1.045,1.026-1.779V-28.705z
			"/>
		<path fill="#E8E8E8" stroke="#0071BC" stroke-width="0.5" stroke-miterlimit="10" d="M-165.575-29.075
			c-0.132-0.076-0.295-0.077-0.427,0c-0.133,0.077-0.214,0.217-0.214,0.37c0,0,0,0,0,0v9.177c0,0.734,0.391,1.412,1.026,1.779
			l7.947,4.587c0,0,0,0.001,0.001,0.001c0.132,0.076,0.295,0.076,0.428-0.001c0.131-0.076,0.213-0.218,0.213-0.37v-9.542
			c0-0.508-0.271-0.977-0.711-1.23L-165.575-29.075z"/>
		<path fill="#E8E8E8" stroke="#0071BC" stroke-width="0.5" stroke-miterlimit="10" d="M-147.242-29.742
			c0.132-0.076,0.214-0.217,0.214-0.37c0-0.152-0.081-0.294-0.214-0.37l0,0l-7.947-4.589c-0.636-0.367-1.418-0.367-2.053,0
			l-7.947,4.588c-0.001,0-0.001,0-0.001,0c-0.132,0.077-0.214,0.218-0.214,0.371s0.082,0.293,0.215,0.37l8.263,4.771
			c0.439,0.254,0.981,0.254,1.421,0L-147.242-29.742z"/>
	</g>
	<path fill="#E8E8E8" stroke="#0071BC" stroke-width="0.5" stroke-miterlimit="10" d="M-149.663-34.902
		c0-0.153-0.082-0.295-0.213-0.371c-0.133-0.076-0.297-0.076-0.428,0l-8.264,4.771c-0.439,0.254-0.711,0.723-0.711,1.23v9.542
		c0,0.152,0.081,0.293,0.214,0.369c0.132,0.077,0.295,0.077,0.428,0.001l7.948-4.588c0.635-0.367,1.025-1.045,1.025-1.778V-34.902z"
		/>
	<path fill="#E8E8E8" stroke="#0071BC" stroke-width="0.5" stroke-miterlimit="10" d="M-160.047-19.73V-21v-8.271
		c0-0.508-0.271-0.977-0.711-1.23l-8.263-4.771c-0.133-0.076-0.295-0.076-0.428,0c-0.132,0.077-0.214,0.218-0.214,0.371l0,0v9.177"
		/>
	<path fill="#E8E8E8" stroke="#0071BC" stroke-width="0.5" stroke-miterlimit="10" d="M-160.689-19.36
		C-160.689-19.36-160.689-19.359-160.689-19.36"/>
	<path fill="#E8E8E8" stroke="#0071BC" stroke-width="0.5" stroke-miterlimit="10" d="M-150.688-35.939
		c0.131-0.076,0.213-0.217,0.213-0.37c0-0.152-0.08-0.294-0.213-0.37l0,0l-7.948-4.589c-0.636-0.367-1.418-0.367-2.053,0
		l-7.947,4.589l0,0c-0.133,0.076-0.214,0.217-0.214,0.37s0.082,0.294,0.214,0.37l8.263,4.771c0.44,0.254,0.981,0.254,1.421,0
		L-150.688-35.939z"/>
	<g>
		<path fill="#E8E8E8" stroke="#0071BC" stroke-width="0.5" stroke-miterlimit="10" d="M-137.829-28.108
			c0-0.153-0.082-0.294-0.215-0.371c-0.133-0.076-0.295-0.075-0.428,0.001l-8.262,4.771c-0.439,0.254-0.711,0.723-0.711,1.23v9.542
			c0,0.152,0.08,0.293,0.213,0.369c0.133,0.077,0.295,0.077,0.428,0.001l7.947-4.588c0.635-0.367,1.027-1.045,1.027-1.779V-28.108z"
			/>
		<path fill="#E8E8E8" stroke="#0071BC" stroke-width="0.5" stroke-miterlimit="10" d="M-157.188-28.478
			c-0.133-0.076-0.295-0.077-0.428,0c-0.132,0.076-0.214,0.217-0.214,0.369c0,0,0,0,0,0.001v9.177c0,0.734,0.392,1.412,1.026,1.779
			l7.947,4.587c0,0,0,0.001,0.001,0.001c0.132,0.076,0.295,0.076,0.428-0.001c0.132-0.076,0.213-0.218,0.213-0.37v-9.542
			c0-0.509-0.271-0.978-0.71-1.23L-157.188-28.478z"/>
		<path fill="#E8E8E8" stroke="#0071BC" stroke-width="0.5" stroke-miterlimit="10" d="M-138.856-29.145
			c0.133-0.076,0.215-0.218,0.215-0.37s-0.082-0.294-0.215-0.37l0,0l-7.947-4.589c-0.635-0.367-1.418-0.367-2.053,0l-7.947,4.588
			l0,0c-0.133,0.077-0.214,0.219-0.214,0.371s0.082,0.293,0.214,0.37l8.264,4.771c0.439,0.254,0.98,0.254,1.42,0L-138.856-29.145z"
			/>
	</g>
	<g>
		<path fill="#E8E8E8" stroke="#0071BC" stroke-width="0.5" stroke-miterlimit="10" d="M-153.934-21.604
			c0-0.153-0.082-0.295-0.213-0.371c-0.133-0.076-0.297-0.076-0.428,0l-8.264,4.772c-0.439,0.254-0.711,0.723-0.711,1.23v9.542
			c0,0.152,0.081,0.293,0.214,0.369c0.132,0.077,0.295,0.077,0.428,0.001l7.948-4.588c0.635-0.367,1.025-1.045,1.025-1.778V-21.604z
			"/>
		<path fill="#E8E8E8" stroke="#0071BC" stroke-width="0.5" stroke-miterlimit="10" d="M-173.292-21.975
			c-0.133-0.076-0.295-0.076-0.428,0c-0.132,0.077-0.214,0.218-0.214,0.371l0,0v9.177c0,0.733,0.392,1.411,1.026,1.778l7.947,4.587
			c0,0,0,0.001,0.001,0.001c0.132,0.076,0.295,0.076,0.428-0.001c0.132-0.076,0.213-0.218,0.213-0.37v-9.541
			c0-0.508-0.271-0.977-0.711-1.23L-173.292-21.975z"/>
		<path fill="#E8E8E8" stroke="#0071BC" stroke-width="0.5" stroke-miterlimit="10" d="M-154.959-22.641
			c0.131-0.076,0.213-0.217,0.213-0.37c0-0.152-0.08-0.294-0.213-0.37l0,0l-7.948-4.589c-0.636-0.366-1.418-0.366-2.053,0
			l-7.947,4.589l0,0c-0.133,0.076-0.214,0.217-0.214,0.37s0.082,0.294,0.214,0.37l8.263,4.772c0.44,0.254,0.981,0.254,1.421,0
			L-154.959-22.641z"/>
	</g>
	<g>
		<path fill="#E8E8E8" stroke="#0071BC" stroke-width="0.5" stroke-miterlimit="10" d="M-143.526-33.457
			c0-0.153-0.082-0.295-0.213-0.371c-0.133-0.076-0.297-0.076-0.428,0l-8.263,4.771c-0.439,0.254-0.711,0.723-0.711,1.23v9.542
			c0,0.152,0.08,0.293,0.213,0.369c0.133,0.077,0.295,0.077,0.428,0.001l7.948-4.588c0.635-0.367,1.025-1.045,1.025-1.778V-33.457z"
			/>
		<path fill="#E8E8E8" stroke="#0071BC" stroke-width="0.5" stroke-miterlimit="10" d="M-162.884-33.828
			c-0.133-0.076-0.295-0.076-0.428,0c-0.132,0.077-0.214,0.218-0.214,0.371l0,0v9.177c0,0.733,0.392,1.411,1.026,1.778l7.947,4.587
			c0,0,0,0.001,0.001,0.001c0.132,0.076,0.295,0.076,0.428-0.001c0.132-0.076,0.213-0.218,0.213-0.37v-9.542
			c0-0.508-0.271-0.977-0.711-1.23L-162.884-33.828z"/>
		<path fill="#E8E8E8" stroke="#0071BC" stroke-width="0.5" stroke-miterlimit="10" d="M-144.551-34.494
			c0.131-0.076,0.213-0.217,0.213-0.37c0-0.152-0.08-0.294-0.213-0.37l0,0l-7.948-4.589c-0.635-0.366-1.418-0.366-2.053,0
			l-7.947,4.589l0,0c-0.133,0.076-0.214,0.217-0.214,0.37s0.082,0.294,0.214,0.37l8.263,4.771c0.44,0.254,0.981,0.254,1.421,0
			L-144.551-34.494z"/>
	</g>
</g>
<g>
	<g>
		<path fill="#E8E8E8" stroke="#0071BC" stroke-width="0.75" stroke-miterlimit="10" d="M-59.096,53.471
			c0.053-0.514,0.052-1.041-0.004-1.574l1.592-0.797c-0.258-1.565-0.867-2.989-1.74-4.202l-1.684,0.563
			c-0.339-0.407-0.708-0.779-1.112-1.115l0.563-1.688c-1.231-0.888-2.664-1.495-4.202-1.743l-0.796,1.593
			c-0.517-0.05-1.041-0.05-1.574,0.003l-0.793-1.588c-1.578,0.255-3.013,0.876-4.226,1.758l0.563,1.685
			c-0.392,0.325-0.749,0.683-1.071,1.072l-1.689-0.563c-0.896,1.236-1.512,2.676-1.763,4.223l1.593,0.795
			c-0.051,0.514-0.051,1.041,0.001,1.574l-1.588,0.797c0.253,1.566,0.868,2.988,1.741,4.201l1.682-0.563
			c0.339,0.408,0.708,0.779,1.117,1.113l-0.566,1.688c1.229,0.885,2.664,1.494,4.203,1.742l0.794-1.592
			c0.516,0.049,1.042,0.049,1.576-0.004l0.791,1.588c1.579-0.254,3.012-0.873,4.226-1.758l-0.559-1.684
			c0.388-0.322,0.746-0.684,1.068-1.07l1.691,0.563c0.895-1.236,1.51-2.676,1.762-4.223L-59.096,53.471z M-64.938,55.02l-2.33,0.967
			l-2.328-0.967l-0.963-2.338l0.963-2.338l2.328-0.972l2.33,0.972l0.966,2.338L-64.938,55.02z"/>
		<g>
			<path fill="#E8E8E8" stroke="#0071BC" stroke-width="0.75" stroke-miterlimit="10" d="M-79.499,54.662l-0.293-1.814l0.334-0.166
				l-0.34-0.17l0.293-1.814c0.305-1.892,1.071-3.722,2.208-5.292l1.078-1.482l0.287,0.099l-0.096-0.287l1.482-1.077
				c1.562-1.134,3.396-1.894,5.303-2.201l1.813-0.292l0.162,0.33l0.167-0.34l1.816,0.292c1.881,0.306,3.702,1.058,5.262,2.183
				l1.494,1.075l-0.117,0.354l0.352-0.117l0.756,1.048c0.003-0.128,0.038-0.255,0.038-0.39c0-6.028-4.879-10.926-10.91-10.926
				c-0.015,0-0.021,0-0.032,0C-68.924,26.04-75.27,20-83.021,20c-7.156,0-13.108,5.143-14.374,11.928
				c-0.158-0.005-0.331-0.013-0.49-0.013c-5.333,0-9.831,3.532-11.298,8.38c-0.23-0.02-0.46-0.032-0.688-0.032
				c-4.209,0.003-7.63,3.413-7.63,7.626c0,4.216,3.415,7.628,7.62,7.628c0.043,0,18.301,0,30.57,0
				C-79.377,55.236-79.452,54.955-79.499,54.662z"/>
			<polygon fill="#E8E8E8" stroke="#0071BC" stroke-width="0.75" stroke-miterlimit="10" points="-66.854,53.105 -66.678,52.682 
				-66.854,52.254 -67.265,52.084 -67.675,52.254 -67.852,52.682 -67.675,53.105 -67.265,53.279 			"/>
		</g>
	</g>
</g>
<g>
	<path fill="#E8E8E8" stroke="#0071BC" stroke-width="0.5921" stroke-miterlimit="10" d="M14.853,28.887H6.171
		C5.524,28.887,5,29.411,5,30.057v8.69c0,0.648,0.524,1.171,1.171,1.171h8.682c0.647,0,1.171-0.523,1.171-1.171v-8.69
		C16.023,29.411,15.5,28.887,14.853,28.887z M13.682,37.577h-6.34v-6.349h6.34V37.577z"/>
	<path fill="#E8E8E8" stroke="#0071BC" stroke-width="0.5921" stroke-miterlimit="10" d="M14.853,44.381H6.171
		C5.524,44.381,5,44.905,5,45.552v8.693c0,0.646,0.524,1.172,1.171,1.172h8.682c0.647,0,1.171-0.525,1.171-1.172v-8.693
		C16.023,44.906,15.5,44.381,14.853,44.381z M13.682,53.075h-6.34v-6.353h6.34V53.075z"/>
	<path fill="#E8E8E8" stroke="#0071BC" stroke-width="0.5921" stroke-miterlimit="10" d="M14.853,60.281H6.171
		C5.524,60.281,5,60.804,5,61.451v8.692c0,0.647,0.524,1.172,1.171,1.172h8.682c0.647,0,1.171-0.524,1.171-1.172v-8.692
		C16.023,60.804,15.5,60.281,14.853,60.281z M13.682,68.973h-6.34v-6.352h6.34V68.973z"/>
	<path fill="#E8E8E8" stroke="#0071BC" stroke-width="0.5921" stroke-miterlimit="10" d="M30.655,28.684h-8.681
		c-0.646,0-1.17,0.524-1.17,1.171v8.692c0,0.646,0.524,1.17,1.17,1.17h8.681c0.647,0,1.171-0.524,1.171-1.17v-8.692
		C31.826,29.208,31.302,28.684,30.655,28.684z M29.486,37.377h-6.34v-6.352h6.34V37.377z"/>
	<path fill="#E8E8E8" stroke="#0071BC" stroke-width="0.5921" stroke-miterlimit="10" d="M30.655,44.18h-8.681
		c-0.646,0-1.17,0.522-1.17,1.17v8.691c0,0.647,0.524,1.171,1.17,1.171h8.681c0.647,0,1.171-0.523,1.171-1.171V45.35
		C31.826,44.702,31.302,44.18,30.655,44.18z M29.486,52.871h-6.34v-6.35h6.34V52.871z"/>
	<path fill="#E8E8E8" stroke="#0071BC" stroke-width="0.5921" stroke-miterlimit="10" d="M30.655,60.078h-8.681
		c-0.646,0-1.17,0.524-1.17,1.172v8.69c0,0.646,0.524,1.172,1.17,1.172h8.681c0.647,0,1.171-0.525,1.171-1.172v-8.69
		C31.826,60.603,31.302,60.078,30.655,60.078z M29.486,68.771h-6.34V62.42h6.34V68.771z"/>
	<path fill="#E8E8E8" stroke="#0071BC" stroke-width="0.5921" stroke-miterlimit="10" d="M46.46,28.686h-8.681
		c-0.647,0-1.172,0.524-1.172,1.17v8.693c0,0.646,0.524,1.17,1.172,1.17h8.681c0.646,0,1.171-0.524,1.171-1.17v-8.693
		C47.63,29.21,47.106,28.686,46.46,28.686z M45.289,37.377h-6.34v-6.352h6.34V37.377z"/>
	<path fill="#E8E8E8" stroke="#0071BC" stroke-width="0.5921" stroke-miterlimit="10" d="M46.46,44.182h-8.681
		c-0.647,0-1.172,0.523-1.172,1.17v8.692c0,0.646,0.524,1.171,1.172,1.171h8.681c0.646,0,1.171-0.524,1.171-1.171v-8.692
		C47.63,44.705,47.106,44.182,46.46,44.182z M45.289,52.874h-6.34v-6.352h6.34V52.874z"/>
	<path fill="#E8E8E8" stroke="#0071BC" stroke-width="0.5921" stroke-miterlimit="10" d="M46.46,60.08h-8.681
		c-0.647,0-1.172,0.523-1.172,1.17v8.692c0,0.647,0.524,1.171,1.172,1.171h8.681c0.646,0,1.171-0.523,1.171-1.171V61.25
		C47.63,60.604,47.106,60.08,46.46,60.08z M45.289,68.771h-6.34v-6.35h6.34V68.771z"/>
	<path fill="#E8E8E8" stroke="#0071BC" stroke-width="0.5921" stroke-miterlimit="10" d="M62.222,28.887H53.54
		c-0.646,0-1.172,0.524-1.172,1.17v8.69c0,0.648,0.524,1.171,1.172,1.171h8.682c0.647,0,1.171-0.523,1.171-1.171v-8.69
		C63.392,29.411,62.869,28.887,62.222,28.887z M61.05,37.577h-6.34v-6.349h6.34V37.577z"/>
	<path fill="#E8E8E8" stroke="#0071BC" stroke-width="0.5921" stroke-miterlimit="10" d="M62.222,44.381H53.54
		c-0.646,0-1.172,0.524-1.172,1.171v8.693c0,0.646,0.524,1.172,1.172,1.172h8.682c0.647,0,1.171-0.525,1.171-1.172v-8.693
		C63.392,44.906,62.869,44.381,62.222,44.381z M61.05,53.075h-6.34v-6.353h6.34V53.075z"/>
	<path fill="#E8E8E8" stroke="#0071BC" stroke-width="0.5921" stroke-miterlimit="10" d="M62.222,60.281H53.54
		c-0.646,0-1.172,0.522-1.172,1.17v8.692c0,0.647,0.524,1.172,1.172,1.172h8.682c0.647,0,1.171-0.524,1.171-1.172v-8.692
		C63.392,60.804,62.869,60.281,62.222,60.281z M61.05,68.973h-6.34v-6.352h6.34V68.973z"/>
	<path fill="#E8E8E8" stroke="#0071BC" stroke-width="0.5921" stroke-miterlimit="10" d="M78.023,28.684h-8.681
		c-0.646,0-1.17,0.524-1.17,1.171v8.692c0,0.646,0.523,1.17,1.17,1.17h8.681c0.647,0,1.173-0.524,1.173-1.17v-8.692
		C79.194,29.208,78.671,28.684,78.023,28.684z M76.854,37.377h-6.341v-6.352h6.341V37.377z"/>
	<path fill="#E8E8E8" stroke="#0071BC" stroke-width="0.5921" stroke-miterlimit="10" d="M78.023,44.18h-8.681
		c-0.646,0-1.17,0.522-1.17,1.17v8.691c0,0.647,0.523,1.171,1.17,1.171h8.681c0.647,0,1.173-0.523,1.173-1.171V45.35
		C79.194,44.702,78.671,44.18,78.023,44.18z M76.854,52.871h-6.341v-6.35h6.341V52.871z"/>
	<path fill="#E8E8E8" stroke="#0071BC" stroke-width="0.5921" stroke-miterlimit="10" d="M78.023,60.078h-8.681
		c-0.646,0-1.17,0.524-1.17,1.172v8.69c0,0.646,0.523,1.172,1.17,1.172h8.681c0.647,0,1.173-0.525,1.173-1.172v-8.69
		C79.194,60.603,78.671,60.078,78.023,60.078z M76.854,68.771h-6.341V62.42h6.341V68.771z"/>
	<path fill="#E8E8E8" stroke="#0071BC" stroke-width="0.5921" stroke-miterlimit="10" d="M93.828,28.686h-8.681
		c-0.648,0-1.172,0.524-1.172,1.17v8.693c0,0.646,0.523,1.17,1.172,1.17h8.681c0.646,0,1.172-0.524,1.172-1.17v-8.693
		C94.999,29.21,94.475,28.686,93.828,28.686z M92.657,37.377h-6.34v-6.352h6.34V37.377z"/>
	<path fill="#E8E8E8" stroke="#0071BC" stroke-width="0.5921" stroke-miterlimit="10" d="M93.828,44.182h-8.681
		c-0.648,0-1.172,0.523-1.172,1.17v8.692c0,0.646,0.523,1.171,1.172,1.171h8.681c0.646,0,1.172-0.524,1.172-1.171v-8.692
		C94.999,44.705,94.475,44.182,93.828,44.182z M92.657,52.874h-6.34v-6.352h6.34V52.874z"/>
	<path fill="#E8E8E8" stroke="#0071BC" stroke-width="0.5921" stroke-miterlimit="10" d="M93.828,60.08h-8.681
		c-0.648,0-1.172,0.523-1.172,1.17v8.692c0,0.647,0.523,1.171,1.172,1.171h8.681c0.646,0,1.172-0.523,1.172-1.171V61.25
		C94.999,60.604,94.475,60.08,93.828,60.08z M92.657,68.771h-6.34v-6.35h6.34V68.771z"/>
</g>
<g>
	<path fill="#B5B5B5" d="M58.196,49.137c0-8.285,6.715-15,14.999-15c8.285,0,15.001,6.715,15.001,15c0,8.283-6.716,15-15.001,15
		C64.911,64.136,58.196,57.42,58.196,49.137z"/>
	<g>
		<path fill="#FFFFFF" d="M82.804,45.116c-0.553,0.002-1.104,0.003-1.657,0.004c-1.243-2.785-3.681-4.797-6.762-5.28
			c-3.433-0.537-6.718,1.057-8.677,3.861c-0.869,1.245,1.175,2.411,2.037,1.176c2.687-3.846,8.423-3.498,10.781,0.25
			c-0.511,0.001-1.022,0.003-1.531,0.004c-0.143,0.001-0.245,0.064-0.309,0.154c-0.102,0.109-0.141,0.27-0.033,0.437
			c0.973,1.508,1.944,3.017,2.915,4.523c0.165,0.254,0.518,0.252,0.678-0.002c0.965-1.512,1.931-3.025,2.894-4.539
			C83.3,45.454,83.09,45.116,82.804,45.116z"/>
		<path fill="#FFFFFF" d="M78.646,53.396c-2.687,3.847-8.423,3.498-10.78-0.251c0.51,0,1.021-0.002,1.53-0.003
			c0.144-0.001,0.245-0.063,0.309-0.153c0.102-0.109,0.141-0.271,0.033-0.438c-0.972-1.508-1.944-3.016-2.915-4.524
			c-0.163-0.252-0.517-0.25-0.678,0.003c-0.964,1.513-1.929,3.025-2.894,4.539c-0.16,0.25,0.05,0.589,0.336,0.588
			c0.554-0.002,1.104-0.003,1.658-0.004c1.242,2.786,3.682,4.798,6.762,5.28c3.432,0.538,6.717-1.056,8.676-3.86
			C81.553,53.326,79.508,52.161,78.646,53.396z"/>
	</g>
</g>
<path fill="#FFFFFF" d="M71.34,49.138c0-1.026,0.832-1.856,1.857-1.856s1.855,0.83,1.855,1.856c0,1.024-0.83,1.854-1.855,1.854
	S71.34,50.161,71.34,49.138z"/>
</svg>
