<svg width="100" height="100" viewBox="0 0 100 100" fill="none" xmlns="http://www.w3.org/2000/svg">
<path d="M74.6928 35.3628C78.0598 35.3628 80.7928 32.6318 80.7928 29.2628C80.7928 26.0098 78.2448 23.3548 75.0358 23.1768C74.6498 20.6348 72.4628 18.6918 69.8118 18.6918C68.4468 18.6918 67.2078 19.2128 66.2668 20.0638C65.0988 17.5728 62.5788 15.8438 59.6458 15.8438C55.7198 15.8438 52.5198 18.9378 52.3368 22.8208C49.9408 23.7788 48.2578 26.1108 48.2578 28.8568C48.2578 32.4618 51.1598 35.3628 54.7638 35.3628H64.5238H74.6928Z" fill="#E8E8E8"/>
<path d="M26.9892 32.1605C29.2342 32.1605 31.0552 30.3394 31.0552 28.0944C31.0552 25.9254 29.3572 24.1564 27.2172 24.0364C26.9622 22.3424 25.5022 21.0464 23.7352 21.0464C22.8252 21.0464 21.9992 21.3954 21.3722 21.9614C20.5942 20.3004 18.9132 19.1484 16.9582 19.1484C14.3402 19.1484 12.2082 21.2114 12.0872 23.7994C10.4902 24.4374 9.36719 25.9924 9.36719 27.8234C9.36719 30.2274 11.3012 32.1605 13.7042 32.1605H20.2102H26.9892Z" fill="#E8E8E8"/>
<path d="M50.0446 39.7102C60.6231 39.7102 69.1986 37.2357 69.1986 34.1832C69.1986 31.1308 60.6231 28.6562 50.0446 28.6562C39.4662 28.6562 30.8906 31.1308 30.8906 34.1832C30.8906 37.2357 39.4662 39.7102 50.0446 39.7102Z" fill="#7F56D9"/>
<path d="M50.0446 50.2929C39.4666 50.2929 30.8916 47.8189 30.8916 44.7659C30.8916 44.7339 30.9066 44.7029 30.9096 44.6719H30.8906V51.8189H30.9076C31.0866 54.8249 39.5766 57.2519 50.0456 57.2519C60.5146 57.2519 69.0066 54.8249 69.1846 51.8189H69.2006V44.7719C69.1886 47.8229 60.6136 50.2929 50.0446 50.2929Z" fill="#7F56D9"/>
<path d="M69.1967 44.7491V44.6641H69.1797C69.1867 44.6921 69.1967 44.7211 69.1967 44.7491Z" fill="#7F56D9"/>
<path d="M50.0446 58.8632C39.4666 58.8632 30.8916 56.3862 30.8916 53.3362C30.8916 53.3032 30.9066 53.2722 30.9096 53.2422H30.8906V60.3902H30.9076C31.0866 63.3962 39.5766 65.8202 50.0456 65.8202C60.5146 65.8202 69.0066 63.3962 69.1846 60.3902H69.2006V53.3382C69.1886 56.3912 60.6136 58.8632 50.0446 58.8632Z" fill="#7F56D9"/>
<path d="M69.1967 53.3282V53.2422H69.1797C69.1867 53.2692 69.1967 53.2992 69.1967 53.3282Z" fill="#7F56D9"/>
<path d="M50.0446 67.4413C39.4666 67.4413 30.8916 64.9643 30.8916 61.9123C30.8916 61.8813 30.9066 61.8513 30.9096 61.8203H30.8906V68.9663H30.9076C31.0866 71.9743 39.5766 74.3983 50.0456 74.3983C60.5146 74.3983 69.0066 71.9743 69.1846 68.9663H69.2006V61.9203C69.1886 64.9693 60.6136 67.4413 50.0446 67.4413Z" fill="#7F56D9"/>
<path d="M69.1967 61.9063V61.8203H69.1797C69.1867 61.8503 69.1967 61.8793 69.1967 61.9063Z" fill="#7F56D9"/>
<path d="M50.0446 41.5214C39.4666 41.5214 30.8916 39.0464 30.8916 35.9934C30.8916 35.9604 30.9066 35.9314 30.9096 35.8984H30.8906V43.0444H30.9076C31.0866 46.0534 39.5766 48.4784 50.0456 48.4784C60.5146 48.4784 69.0066 46.0534 69.1846 43.0444H69.2006V36.0004C69.1886 39.0474 60.6136 41.5214 50.0446 41.5214Z" fill="#7F56D9"/>
<path d="M69.1967 35.9874V35.8984H69.1797C69.1867 35.9294 69.1967 35.9584 69.1967 35.9874Z" fill="#7F56D9"/>
<path d="M43.2386 37.2114V37.1484H43.2266C43.2276 37.1714 43.2386 37.1904 43.2386 37.2114Z" fill="#ADAAB3"/>
<path d="M43.2386 43.3989V43.3359H43.2266C43.2276 43.3559 43.2386 43.3779 43.2386 43.3989Z" fill="#ADAAB3"/>
<path d="M43.2386 49.5854V49.5234H43.2266C43.2276 49.5424 43.2386 49.5654 43.2386 49.5854Z" fill="#ADAAB3"/>
<path d="M28.8156 46.2174V42.5864H28.8166L28.8156 42.4904V41.1994C21.4626 41.1084 15.6016 39.3594 15.6016 37.2154C15.6016 37.1934 15.6126 37.1704 15.6126 37.1484H15.6016V42.3044H15.6126C15.7366 44.4154 21.5436 46.1284 28.8156 46.2174Z" fill="#ADAAB3"/>
<path d="M28.8156 52.4049V51.2589V51.1629V47.3859C21.4626 47.2939 15.6016 45.5459 15.6016 43.4029C15.6016 43.3809 15.6126 43.3569 15.6126 43.3359H15.6016V48.4909H15.6126C15.7366 50.6039 21.5436 52.3149 28.8156 52.4049Z" fill="#ADAAB3"/>
<path d="M28.8156 53.5822C21.4626 53.4882 15.6016 51.7422 15.6016 49.5972C15.6016 49.5752 15.6126 49.5522 15.6126 49.5312H15.6016V54.6862H15.6126C15.7386 56.7972 21.5436 58.5103 28.8156 58.6003V53.5822Z" fill="#ADAAB3"/>
<path d="M28.8156 39.8981V34.8791C21.4636 34.7891 15.6016 33.0411 15.6016 30.8961C15.6016 30.8721 15.6126 30.8521 15.6126 30.8281H15.6016V35.9841H15.6126C15.7366 38.0961 21.5436 39.8091 28.8156 39.8981Z" fill="#ADAAB3"/>
<path d="M28.8196 33.5706C28.8826 30.2386 34.0376 28.1656 40.5036 27.2086C37.9836 26.2326 33.9566 25.6016 29.4176 25.6016C21.7866 25.6016 15.6016 27.3876 15.6016 29.5886C15.6016 31.7326 21.4646 33.4806 28.8196 33.5706Z" fill="#ADAAB3"/>
<path d="M84.3925 42.3044H84.4025V37.1484H84.3925C84.3925 37.1704 84.4025 37.1924 84.4025 37.2154C84.4025 39.3594 78.5425 41.1084 71.1895 41.1994V42.4904L71.1875 42.5864H71.1895V46.2174C78.4595 46.1284 84.2675 44.4154 84.3925 42.3044Z" fill="#ADAAB3"/>
<path d="M84.3905 48.4909H84.4005V43.3359H84.3905C84.3905 43.3569 84.4005 43.3809 84.4005 43.4029C84.4005 45.5459 78.5405 47.2939 71.1875 47.3859V51.1629V51.2589V52.4049C78.4575 52.3149 84.2655 50.6039 84.3905 48.4909Z" fill="#ADAAB3"/>
<path d="M71.1875 53.5822V58.6003C78.4585 58.5103 84.2635 56.7972 84.3905 54.6862H84.4005V49.5312H84.3905C84.3905 49.5522 84.4005 49.5752 84.4005 49.5972C84.3975 51.7422 78.5375 53.4882 71.1875 53.5822Z" fill="#ADAAB3"/>
<path d="M84.3905 35.9841H84.4005V30.8281H84.3905C84.3905 30.8521 84.4005 30.8721 84.4005 30.8961C84.4005 33.0411 78.5405 34.7891 71.1875 34.8791V39.8981C78.4575 39.8091 84.2655 38.0961 84.3905 35.9841Z" fill="#ADAAB3"/>
<path d="M84.401 29.5886C84.401 27.3866 78.214 25.6016 70.586 25.6016C66.047 25.6016 62.021 26.2326 59.5 27.2086C65.967 28.1656 71.121 30.2386 71.185 33.5706C78.539 33.4806 84.401 31.7326 84.401 29.5886Z" fill="#ADAAB3"/>
<path d="M51.6976 87.4012C57.3086 87.4012 61.8616 82.8482 61.8616 77.2352C61.8616 71.8132 57.6156 67.3891 52.2676 67.0901C51.6246 62.8541 47.9756 59.6132 43.5616 59.6132C41.2856 59.6132 39.2156 60.4821 37.6526 61.9001C35.7046 57.7501 31.5046 54.8672 26.6176 54.8672C20.0726 54.8672 14.7386 60.0231 14.4396 66.4941C10.4456 68.0911 7.64062 71.9761 7.64062 76.5541C7.64062 82.5651 12.4766 87.4012 18.4846 87.4012H34.7506H51.6976Z" fill="#E8E8E8"/>
</svg>
