<svg width="32" height="32" viewBox="0 0 32 32" fill="none" xmlns="http://www.w3.org/2000/svg">
<path d="M28.3333 16.0005C28.3333 9.18903 22.8117 3.66708 16.0002 3.66699C9.18873 3.66699 3.66675 9.18898 3.66675 16.0005C3.66684 22.8119 9.18879 28.3335 16.0002 28.3335C22.8116 28.3334 28.3332 22.8119 28.3333 16.0005ZM16.0134 20.3335C16.5657 20.3335 17.0133 20.7813 17.0134 21.3335C17.0134 21.8858 16.5657 22.3335 16.0134 22.3335H16.0002C15.448 22.3335 15.0002 21.8858 15.0002 21.3335C15.0003 20.7813 15.448 20.3335 16.0002 20.3335H16.0134ZM15.0002 16.0005V10.667C15.0002 10.1147 15.448 9.66699 16.0002 9.66699C16.5525 9.66708 17.0002 10.1148 17.0002 10.667V16.0005C17.0002 16.5526 16.5524 17.0004 16.0002 17.0005C15.448 17.0005 15.0003 16.5527 15.0002 16.0005ZM30.3333 16.0005C30.3332 23.9164 23.9162 30.3334 16.0002 30.3335C8.08422 30.3335 1.66684 23.9165 1.66675 16.0005C1.66675 8.08441 8.08416 1.66699 16.0002 1.66699C23.9163 1.66708 30.3333 8.08446 30.3333 16.0005Z" fill="#D92D20"/>
</svg>
