<svg width="32" height="32" viewBox="0 0 32 32" fill="none" xmlns="http://www.w3.org/2000/svg">
<path d="M13.7724 1.83678C17.011 1.32655 20.3267 1.94194 23.1665 3.58044C23.6448 3.85641 23.809 4.46782 23.5332 4.94616C23.2572 5.42451 22.6453 5.58884 22.167 5.31286C19.7235 3.90301 16.8706 3.37337 14.084 3.81237C11.2973 4.25141 8.74515 5.63259 6.8535 7.72546C4.96194 9.81826 3.84505 12.4962 3.68895 15.3129C3.53288 18.1296 4.34721 20.9149 5.99608 23.204C7.64492 25.4929 10.0284 27.1477 12.7495 27.892C15.4706 28.6362 18.3649 28.4246 20.9492 27.2933C23.5334 26.162 25.652 24.1792 26.9512 21.6752C28.2503 19.1711 28.6515 16.2973 28.0884 13.5331C27.9781 12.9919 28.3275 12.4637 28.8686 12.3534C29.4097 12.2432 29.9376 12.5925 30.0478 13.1337C30.7024 16.3462 30.2359 19.6859 28.7261 22.5961C27.2162 25.5062 24.7543 27.8111 21.751 29.1258C18.7477 30.4405 15.3844 30.686 12.2222 29.8212C9.05975 28.9563 6.28928 27.0331 4.37303 24.3729C2.45681 21.7127 1.51053 18.476 1.69188 15.2025C1.87325 11.929 3.17123 8.81639 5.36961 6.38415C7.56798 3.95193 10.5339 2.34704 13.7724 1.83678ZM28.6264 4.62585C29.0169 4.23554 29.65 4.23552 30.0405 4.62585C30.431 5.01637 30.431 5.64987 30.0405 6.0404L16.707 19.3734C16.5195 19.5609 16.2652 19.6664 16 19.6664C15.7348 19.6663 15.4805 19.5609 15.293 19.3734L11.293 15.3734C10.9026 14.9829 10.9025 14.3498 11.293 13.9593C11.6834 13.5689 12.3165 13.569 12.707 13.9593L16 17.2523L28.6264 4.62585Z" fill="#079455"/>
</svg>
