<svg width="100" height="100" viewBox="0 0 100 100" fill="none" xmlns="http://www.w3.org/2000/svg">
<path d="M43.2386 37.2114V37.1484H43.2266C43.2276 37.1714 43.2386 37.1904 43.2386 37.2114Z" fill="#999999"/>
<path d="M43.2386 43.3989V43.3359H43.2266C43.2276 43.3559 43.2386 43.3779 43.2386 43.3989Z" fill="#999999"/>
<path d="M43.2386 49.5854V49.5234H43.2266C43.2276 49.5424 43.2386 49.5654 43.2386 49.5854Z" fill="#999999"/>
<path d="M57.6462 39.7102C68.2246 39.7102 76.8002 37.2357 76.8002 34.1832C76.8002 31.1308 68.2246 28.6562 57.6462 28.6562C47.0677 28.6562 38.4922 31.1308 38.4922 34.1832C38.4922 37.2357 47.0677 39.7102 57.6462 39.7102Z" fill="#7F56D9"/>
<path d="M57.6462 50.2929C47.0682 50.2929 38.4942 47.8189 38.4942 44.7659C38.4942 44.7349 38.5092 44.7029 38.5122 44.6719H38.4922V51.8189H38.5092C38.6882 54.8249 47.1782 57.2519 57.6472 57.2519C68.1162 57.2519 76.6082 54.8249 76.7862 51.8189H76.8022V44.7719C76.7892 47.8229 68.2152 50.2929 57.6462 50.2929Z" fill="#7F56D9"/>
<path d="M76.7982 44.7491V44.6641H76.7812C76.7873 44.6921 76.7982 44.7221 76.7982 44.7491Z" fill="#7F56D9"/>
<path d="M57.6462 58.8632C47.0682 58.8632 38.4942 56.3862 38.4942 53.3362C38.4942 53.3032 38.5092 53.2722 38.5122 53.2422H38.4922V60.3902H38.5092C38.6882 63.3962 47.1782 65.8202 57.6472 65.8202C68.1162 65.8202 76.6082 63.3962 76.7862 60.3902H76.8022V53.3382C76.7892 56.3912 68.2152 58.8632 57.6462 58.8632Z" fill="#7F56D9"/>
<path d="M76.7982 53.3282V53.2422H76.7812C76.7873 53.2692 76.7982 53.2992 76.7982 53.3282Z" fill="#7F56D9"/>
<path d="M57.6462 67.4413C47.0682 67.4413 38.4942 64.9643 38.4942 61.9123C38.4942 61.8813 38.5092 61.8513 38.5122 61.8203H38.4922V68.9663H38.5092C38.6882 71.9743 47.1782 74.3983 57.6472 74.3983C68.1162 74.3983 76.6082 71.9743 76.7862 68.9663H76.8022V61.9203C76.7892 64.9693 68.2152 67.4413 57.6462 67.4413Z" fill="#7F56D9"/>
<path d="M76.7982 61.9063V61.8203H76.7812C76.7873 61.8503 76.7982 61.8793 76.7982 61.9063Z" fill="#7F56D9"/>
<path d="M57.6462 41.5214C47.0682 41.5214 38.4942 39.0454 38.4942 35.9934C38.4942 35.9604 38.5092 35.9314 38.5122 35.8984H38.4922V43.0444H38.5092C38.6882 46.0534 47.1782 48.4794 57.6472 48.4794C68.1162 48.4794 76.6082 46.0534 76.7862 43.0444H76.8022V36.0004C76.7892 39.0474 68.2152 41.5214 57.6462 41.5214Z" fill="#7F56D9"/>
<path d="M76.7982 35.9874V35.8984H76.7812C76.7873 35.9294 76.7982 35.9584 76.7982 35.9874Z" fill="#7F56D9"/>
<path d="M36.4171 46.2164V42.5854V42.4894V41.1984C29.0631 41.1074 23.2031 39.3584 23.2031 37.2144C23.2031 37.1934 23.2141 37.1694 23.2141 37.1484H23.2031V42.3044H23.2141C23.3381 44.4144 29.1451 46.1274 36.4171 46.2164Z" fill="#ADAAB3"/>
<path d="M36.4171 52.4049V51.2589V51.1629V47.3869C29.0641 47.2939 23.2031 45.5459 23.2031 43.4029C23.2031 43.3809 23.2141 43.3569 23.2141 43.3359H23.2031V48.4909H23.2141C23.3381 50.6039 29.1451 52.3149 36.4171 52.4049Z" fill="#ADAAB3"/>
<path d="M36.4171 53.5812C29.0631 53.4872 23.2031 51.7412 23.2031 49.5962C23.2031 49.5752 23.2141 49.5512 23.2141 49.5312H23.2031V54.6852H23.2141C23.3401 56.7962 29.1451 58.5093 36.4171 58.5993V53.5812Z" fill="#ADAAB3"/>
<path d="M36.4171 39.8981V34.8781C29.0641 34.7881 23.2031 33.0401 23.2031 30.8961C23.2031 30.8721 23.2141 30.8521 23.2141 30.8281H23.2031V35.9841H23.2141C23.3381 38.0961 29.1451 39.8101 36.4171 39.8981Z" fill="#ADAAB3"/>
<path d="M36.4201 33.5696C36.4831 30.2376 41.6381 28.1646 48.1041 27.2076C45.5841 26.2316 41.5571 25.6016 37.0181 25.6016C29.3871 25.6016 23.2031 27.3876 23.2031 29.5876C23.2021 31.7316 29.0641 33.4796 36.4201 33.5696Z" fill="#ADAAB3"/>
</svg>
