<?xml version="1.0" encoding="utf-8"?>
<!-- Generator: Adobe Illustrator 15.0.0, SVG Export Plug-In . SVG Version: 6.00 Build 0)  -->
<!DOCTYPE svg PUBLIC "-//W3C//DTD SVG 1.1//EN" "http://www.w3.org/Graphics/SVG/1.1/DTD/svg11.dtd">
<svg version="1.1" id="Layer_1" xmlns="http://www.w3.org/2000/svg" xmlns:xlink="http://www.w3.org/1999/xlink" x="0px" y="0px"
	 width="100px" height="100px" viewBox="0 0 100 100" enable-background="new 0 0 100 100" xml:space="preserve">
<g>
	<g transform="translate(0,-952.36218)">
		<path fill="#999999" d="M80,1031.162c9.94,0,18-8.06,18-18c0-9.599-7.521-17.434-16.987-17.962
			c-1.137-7.497-7.598-13.237-15.413-13.237c-4.029,0-7.693,1.542-10.462,4.05c-3.448-7.348-10.884-12.45-19.538-12.45
			c-11.588,0-21.031,9.13-21.563,20.587C6.967,996.976,2,1003.858,2,1011.962c0,10.637,8.563,19.2,19.2,19.2H50H80z"/>
	</g>
	<rect x="43.333" y="51" fill="#32C5D2" width="17.333" height="13.167"/>
	<g>
		<path fill="#FFFFFF" d="M37.5,45.754v23.71c0,0.932,0.756,1.688,1.687,1.688h9.046h9.046c0.931,0,1.687-0.756,1.687-1.688v-0.813
			H51.77h-9.049c-1.457,0-2.645-1.188-2.645-2.645V44.067h-0.893C38.252,44.067,37.5,44.823,37.5,45.754z"/>
		<path fill="#FFFFFF" d="M51.77,67.695h7.193h1.85c0.932,0,1.688-0.756,1.688-1.688v-17.67h-0.588
			c-0.047,0.003-0.098,0.007-0.146,0.007h-3.678h-0.943c-1.311,0-2.377-1.065-2.377-2.377v-0.943v-3.678
			c0-0.061,0.004-0.121,0.01-0.179v-0.559H51.77h-9.046c-0.931,0-1.687,0.757-1.687,1.688v1.771v21.941
			c0,0.932,0.756,1.688,1.687,1.688H51.77L51.77,67.695z M44.628,61.162c0-0.439,0.356-0.797,0.798-0.797h7.9
			c0.439,0,0.797,0.357,0.797,0.797c0,0.441-0.357,0.799-0.797,0.799h-7.898C44.988,61.961,44.628,61.604,44.628,61.162z
			 M44.73,57.094c0-0.441,0.357-0.799,0.797-0.799h11.799c0.439,0,0.797,0.357,0.797,0.799c0,0.439-0.357,0.797-0.797,0.797H45.527
			C45.088,57.891,44.73,57.533,44.73,57.094z M58.123,52.771c0,0.439-0.357,0.797-0.797,0.797H45.527
			c-0.439,0-0.797-0.357-0.797-0.797c0-0.441,0.357-0.799,0.797-0.799h11.799C57.766,51.973,58.123,52.33,58.123,52.771z"/>
		<path fill="#FFFFFF" d="M62.27,46.174l-5.33-5.329c-0.146-0.147-0.322-0.21-0.497-0.21c-0.363,0-0.714,0.283-0.714,0.711v4.625
			c0,0.003,0,0.01,0,0.012c0.006,0.772,0.631,1.397,1.402,1.404c0.004,0,0.01,0,0.014,0h4.621
			C62.4,47.387,62.717,46.622,62.27,46.174z"/>
	</g>
</g>
</svg>
