<svg width="222" height="48" viewBox="0 0 222 48" fill="none" xmlns="http://www.w3.org/2000/svg">
<path d="M41.6052 21.5984C40.3736 21.5984 39.402 22.5015 39.2378 23.6374H27.5922C27.5512 23.391 27.5101 23.1447 27.428 22.8984L32.0397 21.0236C32.4092 21.5162 33.0661 21.6805 33.6271 21.4752C34.325 21.1878 34.6535 20.4078 34.3661 19.7236C34.0787 19.0257 33.2987 18.6972 32.6145 18.9846C31.9987 19.2309 31.6702 19.8878 31.7934 20.4899L27.1817 22.3647C27.0585 22.1184 26.8943 21.872 26.689 21.6668L34.9408 13.4287C35.8851 14.1676 37.2672 14.1266 38.1293 13.2645C39.0736 12.3202 39.0736 10.8149 38.1293 9.87068C37.1851 8.92644 35.6798 8.92644 34.7356 9.87068C33.8734 10.7328 33.7913 12.0739 34.5303 13.0181L26.2785 21.2289C26.0732 21.0647 25.868 20.9415 25.6627 20.8183L27.5785 16.2066C28.1533 16.2887 28.7691 15.9603 29.0154 15.3856C29.3028 14.6876 28.9744 13.9213 28.2765 13.6339C27.5785 13.3466 26.8122 13.675 26.5248 14.3729C26.2785 14.9887 26.4838 15.6456 27.0175 16.0014L25.1016 20.572C24.8553 20.4899 24.5679 20.4489 24.2806 20.4078V8.77591C25.4711 8.6117 26.3606 7.62641 26.3606 6.40848C26.4017 5.05371 25.2932 4 23.9932 4C22.6795 4 21.5847 5.0674 21.5847 6.40848C21.5847 7.6401 22.4879 8.65275 23.6648 8.77591V20.4215C23.3774 20.4625 23.1311 20.5036 22.8847 20.5857L21.0099 15.974C21.5026 15.6045 21.6668 14.9477 21.4615 14.3866C21.1742 13.6887 20.3941 13.3602 19.7099 13.6476C19.012 13.935 18.6836 14.715 18.9709 15.3992C19.2173 16.0151 19.8741 16.3435 20.4762 16.2203L22.351 20.832C22.1047 20.9552 21.8994 21.0783 21.6942 21.2836L13.4561 12.9771C14.154 12.0328 14.1129 10.6918 13.2508 9.82963C12.3066 8.88539 10.8013 8.88539 9.85702 9.82963C8.91279 10.7739 8.91279 12.2792 9.85702 13.2234C10.7191 14.0855 12.1013 14.1676 13.0455 13.3876L21.2973 21.6394C21.1331 21.8447 20.9689 22.091 20.8457 22.3373L16.234 20.4215C16.3161 19.8467 15.9877 19.2309 15.413 18.9846C14.715 18.6972 13.9487 19.0257 13.6613 19.7236C13.374 20.4215 13.7024 21.1878 14.4003 21.4752C15.0161 21.7215 15.673 21.5162 16.0288 20.9826L20.5994 22.8984C20.5173 23.1447 20.4762 23.391 20.4352 23.6374H8.74857C8.58436 22.4879 7.55801 21.5984 6.38114 21.5984C5.02637 21.5984 3.97266 22.7068 3.97266 24.0068C3.97266 25.3206 5.04005 26.4153 6.38114 26.4153C7.61275 26.4153 8.62541 25.4711 8.74857 24.2942H20.3941C20.3941 24.5816 20.4762 24.869 20.5584 25.1153L15.9467 26.9901C15.5772 26.4974 14.9203 26.3332 14.3592 26.5385C13.6613 26.8259 13.3329 27.6059 13.6203 28.2901C13.9077 28.988 14.6877 29.3165 15.3719 29.0291C15.9877 28.7828 16.3161 28.1259 16.193 27.5238L20.8047 25.649C20.9278 25.8953 21.051 26.1006 21.2563 26.3058L12.9634 34.5576C12.0192 33.8597 10.6781 33.9008 9.81597 34.7629C8.87173 35.7071 8.87173 37.2125 9.81597 38.1567C10.7602 39.1009 12.2655 39.1009 13.2097 38.1567C14.0719 37.2946 14.154 35.9124 13.374 34.9682L21.6258 26.7164C21.831 26.8806 22.0773 27.0448 22.3237 27.168L20.4078 31.7797C19.8331 31.6976 19.2173 32.026 18.9709 32.6007C18.6836 33.2987 19.012 34.065 19.7099 34.3524C20.4078 34.6398 21.1742 34.3113 21.4615 33.6134C21.7079 32.9976 21.5026 32.3407 20.9689 31.9849L22.8847 27.4143C23.1311 27.4964 23.4184 27.5375 23.7058 27.5785V39.2241C22.5152 39.3883 21.6258 40.3736 21.6258 41.5915C21.6258 42.9052 22.6931 44 24.0342 44C25.389 44 26.4427 42.9326 26.4427 41.5915C26.4427 40.3599 25.5395 39.3472 24.3627 39.2241V27.6196C24.65 27.5785 24.8964 27.5375 25.1427 27.4554L27.0175 32.0671C26.5248 32.4365 26.3606 33.0934 26.5659 33.6545C26.8533 34.3524 27.6333 34.6808 28.3175 34.3934C29.0154 34.1061 29.3438 33.326 29.0565 32.6418C28.8101 32.026 28.1533 31.6976 27.5512 31.8207L25.6353 27.209C25.8817 27.0859 26.128 26.9217 26.3332 26.7164L34.585 34.9682C33.8461 35.9124 33.8871 37.2946 34.7493 38.1567C35.6935 39.1009 37.1988 39.1009 38.143 38.1567C39.0873 37.2125 39.0873 35.7071 38.143 34.7629C37.2809 33.9008 35.9398 33.8187 34.9956 34.5576L26.7848 26.3058C26.949 26.1006 27.0722 25.8953 27.1954 25.69L31.8071 27.6059C31.725 28.1806 32.0534 28.7964 32.6281 29.0428C33.3261 29.3301 34.0924 29.0017 34.3798 28.3038C34.6671 27.6059 34.3387 26.8395 33.6408 26.5522C33.025 26.3058 32.3681 26.5111 32.0123 27.0448L27.4417 25.129C27.5238 24.8416 27.5649 24.5953 27.6059 24.2668H39.2515C39.3746 25.4574 40.401 26.388 41.6189 26.388C42.9326 26.388 44.0274 25.3206 44.0274 23.9795C44.0137 22.6247 42.9463 21.5984 41.6052 21.5984Z" fill="#7F56D9"/>
<path d="M160.785 45.464V43.956L162.709 43.488V35.168L160.785 34.908V33.426L165.465 32.386H166.713V33.582C167.285 33.2007 167.918 32.8973 168.611 32.672C169.322 32.4293 169.963 32.308 170.535 32.308C170.622 32.308 170.752 32.308 170.925 32.308C171.116 32.308 171.246 32.3167 171.315 32.334L170.795 37.3H168.533L167.987 34.804C167.779 34.804 167.554 34.8473 167.311 34.934C167.068 35.0033 166.86 35.1073 166.687 35.246V43.488L169.729 43.982V45.464H160.785Z" fill="#7F56D9"/>
<path d="M153.064 45.724C151.521 45.724 150.273 45.4207 149.32 44.814C148.367 44.2073 147.665 43.4013 147.214 42.396C146.781 41.3907 146.564 40.2987 146.564 39.12C146.564 37.872 146.781 36.7453 147.214 35.74C147.647 34.7173 148.341 33.9027 149.294 33.296C150.247 32.6893 151.504 32.386 153.064 32.386C154.676 32.386 155.967 32.6893 156.938 33.296C157.909 33.9027 158.611 34.7173 159.044 35.74C159.477 36.7453 159.694 37.872 159.694 39.12C159.694 40.2987 159.469 41.3907 159.018 42.396C158.585 43.4013 157.883 44.2073 156.912 44.814C155.941 45.4207 154.659 45.724 153.064 45.724ZM153.168 43.8C153.827 43.8 154.312 43.592 154.624 43.176C154.953 42.7427 155.17 42.1707 155.274 41.46C155.378 40.7493 155.43 39.952 155.43 39.068C155.43 38.1493 155.361 37.3347 155.222 36.624C155.101 35.896 154.867 35.3327 154.52 34.934C154.173 34.518 153.671 34.31 153.012 34.31C152.405 34.31 151.946 34.518 151.634 34.934C151.322 35.3327 151.105 35.896 150.984 36.624C150.88 37.3347 150.828 38.1493 150.828 39.068C150.828 39.952 150.889 40.7493 151.01 41.46C151.131 42.1707 151.357 42.7427 151.686 43.176C152.033 43.592 152.527 43.8 153.168 43.8Z" fill="#7F56D9"/>
<path d="M141.632 45.698C140.921 45.698 140.392 45.6027 140.046 45.412C139.716 45.204 139.5 44.944 139.396 44.632C139.292 44.32 139.24 44.008 139.24 43.696V34.726H137.368V33.322L139.63 32.334L141.346 29.734H143.14V32.672H145.61V34.752L143.14 34.7V43.02L145.246 43.592V45.1C144.882 45.2213 144.492 45.3253 144.076 45.412C143.66 45.4987 143.235 45.568 142.802 45.62C142.386 45.672 141.996 45.698 141.632 45.698Z" fill="#7F56D9"/>
<path d="M127.495 45.724C126.836 45.724 126.264 45.6027 125.779 45.36C125.311 45.1 124.947 44.736 124.687 44.268C124.444 43.7827 124.323 43.202 124.323 42.526C124.323 42.0407 124.427 41.538 124.635 41.018C124.843 40.498 125.189 40.03 125.675 39.614C126.16 39.1807 126.819 38.8773 127.651 38.704L131.031 37.95V36.26C131.031 35.5493 130.909 35.09 130.667 34.882C130.424 34.674 130.06 34.57 129.575 34.57C129.211 34.57 128.899 34.596 128.639 34.648C128.379 34.7 128.145 34.7693 127.937 34.856L127.391 37.04H125.207L124.765 33.348C125.631 33.0533 126.585 32.8193 127.625 32.646C128.665 32.4727 129.687 32.386 130.693 32.386C131.594 32.386 132.365 32.4813 133.007 32.672C133.648 32.8453 134.142 33.1833 134.489 33.686C134.835 34.1713 135.009 34.8733 135.009 35.792V43.072L136.803 43.904V45.152C136.144 45.3253 135.633 45.438 135.269 45.49C134.922 45.5593 134.506 45.594 134.021 45.594C133.414 45.594 132.816 45.49 132.227 45.282C131.637 45.0567 131.265 44.71 131.109 44.242C130.485 44.71 129.904 45.074 129.367 45.334C128.829 45.594 128.205 45.724 127.495 45.724ZM129.315 43.436C129.644 43.436 129.973 43.3667 130.303 43.228C130.632 43.0893 130.875 42.9593 131.031 42.838V39.588L129.861 39.926C129.219 40.0993 128.777 40.368 128.535 40.732C128.292 41.096 128.171 41.5727 128.171 42.162C128.171 42.5953 128.266 42.916 128.457 43.124C128.665 43.332 128.951 43.436 129.315 43.436Z" fill="#7F56D9"/>
<path d="M113.762 45.464V43.956L115.686 43.488V35.168L113.762 34.908V33.426L118.442 32.386H119.69V33.582C120.262 33.2007 120.894 32.8973 121.588 32.672C122.298 32.4293 122.94 32.308 123.512 32.308C123.598 32.308 123.728 32.308 123.902 32.308C124.092 32.308 124.222 32.3167 124.292 32.334L123.772 37.3H121.51L120.964 34.804C120.756 34.804 120.53 34.8473 120.288 34.934C120.045 35.0033 119.837 35.1073 119.664 35.246V43.488L122.706 43.982V45.464H113.762Z" fill="#7F56D9"/>
<path d="M107.485 45.724C106.151 45.724 105.059 45.5333 104.209 45.152C103.377 44.7533 102.736 44.2333 102.285 43.592C101.835 42.9507 101.523 42.24 101.349 41.46C101.176 40.68 101.089 39.9 101.089 39.12C101.089 37.768 101.263 36.6587 101.609 35.792C101.956 34.908 102.424 34.2233 103.013 33.738C103.62 33.2353 104.287 32.8887 105.015 32.698C105.743 32.49 106.48 32.386 107.225 32.386C109.097 32.386 110.458 32.7933 111.307 33.608C112.157 34.4227 112.581 35.6967 112.581 37.43C112.581 37.5167 112.573 37.6813 112.555 37.924C112.555 38.1667 112.547 38.418 112.529 38.678C112.512 38.938 112.486 39.1373 112.451 39.276H105.353V39.822C105.353 40.914 105.483 41.7287 105.743 42.266C106.021 42.8033 106.411 43.1587 106.913 43.332C107.416 43.488 108.031 43.566 108.759 43.566C109.227 43.566 109.765 43.5053 110.371 43.384C110.978 43.2453 111.602 43.0893 112.243 42.916L112.451 44.19C112.018 44.5713 111.377 44.9267 110.527 45.256C109.678 45.568 108.664 45.724 107.485 45.724ZM105.405 37.716L108.629 37.456V36.936C108.629 36.52 108.612 36.1127 108.577 35.714C108.543 35.3153 108.439 34.9947 108.265 34.752C108.092 34.492 107.789 34.362 107.355 34.362C106.783 34.362 106.359 34.5093 106.081 34.804C105.821 35.0813 105.648 35.4713 105.561 35.974C105.475 36.4767 105.423 37.0573 105.405 37.716Z" fill="#7F56D9"/>
<path d="M84.7656 45.464V44.138L86.6896 43.488V35.168L84.7656 34.908V33.348L89.3676 32.386H90.6676V33.426C90.8583 33.3393 91.2136 33.218 91.7336 33.062C92.2536 32.8887 92.8256 32.7327 93.4496 32.594C94.091 32.4553 94.6803 32.386 95.2176 32.386C95.7723 32.386 96.2836 32.4727 96.7516 32.646C97.237 32.8193 97.627 33.1053 97.9216 33.504C98.2163 33.8853 98.3636 34.4053 98.3636 35.064V43.488L100.314 44.138V45.464H93.0336V44.138L94.3856 43.488V36.078C94.3856 35.4713 94.2816 35.09 94.0736 34.934C93.883 34.778 93.4843 34.7 92.8776 34.7C92.3403 34.7 91.9156 34.726 91.6036 34.778C91.309 34.83 90.997 34.908 90.6676 35.012V43.488L92.0456 44.138V45.464H84.7656Z" fill="#7F56D9"/>
<path d="M78.4893 45.724C77.1546 45.724 76.0626 45.5333 75.2133 45.152C74.3813 44.7533 73.7399 44.2333 73.2893 43.592C72.8386 42.9507 72.5266 42.24 72.3533 41.46C72.1799 40.68 72.0933 39.9 72.0933 39.12C72.0933 37.768 72.2666 36.6587 72.6133 35.792C72.9599 34.908 73.4279 34.2233 74.0173 33.738C74.6239 33.2353 75.2913 32.8887 76.0193 32.698C76.7473 32.49 77.4839 32.386 78.2293 32.386C80.1013 32.386 81.4619 32.7933 82.3113 33.608C83.1606 34.4227 83.5853 35.6967 83.5853 37.43C83.5853 37.5167 83.5766 37.6813 83.5593 37.924C83.5593 38.1667 83.5506 38.418 83.5333 38.678C83.5159 38.938 83.4899 39.1373 83.4553 39.276H76.3573V39.822C76.3573 40.914 76.4873 41.7287 76.7473 42.266C77.0246 42.8033 77.4146 43.1587 77.9173 43.332C78.4199 43.488 79.0353 43.566 79.7633 43.566C80.2313 43.566 80.7686 43.5053 81.3753 43.384C81.9819 43.2453 82.6059 43.0893 83.2473 42.916L83.4553 44.19C83.0219 44.5713 82.3806 44.9267 81.5313 45.256C80.6819 45.568 79.6679 45.724 78.4893 45.724ZM76.4093 37.716L79.6333 37.456V36.936C79.6333 36.52 79.6159 36.1127 79.5813 35.714C79.5466 35.3153 79.4426 34.9947 79.2693 34.752C79.0959 34.492 78.7926 34.362 78.3593 34.362C77.7873 34.362 77.3626 34.5093 77.0853 34.804C76.8253 35.0813 76.6519 35.4713 76.5653 35.974C76.4786 36.4767 76.4266 37.0573 76.4093 37.716Z" fill="#7F56D9"/>
<path d="M64.372 45.672C62.8293 45.672 61.5207 45.4553 60.446 45.022C59.3713 44.5713 58.5047 43.9647 57.846 43.202C57.2047 42.422 56.7367 41.5293 56.442 40.524C56.1473 39.5187 56 38.4527 56 37.326C56 36.1993 56.156 35.142 56.468 34.154C56.7973 33.1487 57.3087 32.2733 58.002 31.528C58.6953 30.7653 59.5967 30.1673 60.706 29.734C61.8153 29.3007 63.1587 29.084 64.736 29.084C65.3253 29.084 65.9233 29.1273 66.53 29.214C67.1367 29.2833 67.7087 29.3787 68.246 29.5C68.7833 29.604 69.2253 29.7167 69.572 29.838L69.312 34.05H67.7L67.05 31.502C66.79 31.3633 66.4693 31.268 66.088 31.216C65.7067 31.164 65.282 31.138 64.814 31.138C63.8607 31.138 63.0807 31.3287 62.474 31.71C61.8673 32.0913 61.3907 32.594 61.044 33.218C60.7147 33.8247 60.4807 34.492 60.342 35.22C60.2207 35.9307 60.16 36.6327 60.16 37.326C60.16 38.2273 60.2293 39.0593 60.368 39.822C60.5067 40.5847 60.732 41.252 61.044 41.824C61.356 42.3787 61.7633 42.812 62.266 43.124C62.7687 43.436 63.384 43.592 64.112 43.592C64.2853 43.592 64.5193 43.5833 64.814 43.566C65.126 43.5487 65.464 43.5053 65.828 43.436V39.848L63.566 39.198V37.95H71.158V39.276L69.702 39.77V44.58C69.0607 44.9267 68.2547 45.1953 67.284 45.386C66.3307 45.5767 65.36 45.672 64.372 45.672Z" fill="#7F56D9"/>
<path d="M212.096 21.724C211.437 21.724 210.865 21.6027 210.38 21.36C209.912 21.1 209.548 20.736 209.288 20.268C209.045 19.7827 208.924 19.202 208.924 18.526C208.924 18.0407 209.028 17.538 209.236 17.018C209.444 16.498 209.791 16.03 210.276 15.614C210.761 15.1807 211.42 14.8773 212.252 14.704L215.632 13.95V12.26C215.632 11.5493 215.511 11.09 215.268 10.882C215.025 10.674 214.661 10.57 214.176 10.57C213.812 10.57 213.5 10.596 213.24 10.648C212.98 10.7 212.746 10.7693 212.538 10.856L211.992 13.04H209.808L209.366 9.34799C210.233 9.05332 211.186 8.81932 212.226 8.64599C213.266 8.47265 214.289 8.38599 215.294 8.38599C216.195 8.38599 216.967 8.48132 217.608 8.67199C218.249 8.84532 218.743 9.18332 219.09 9.68599C219.437 10.1713 219.61 10.8733 219.61 11.792V19.072L221.404 19.904V21.152C220.745 21.3253 220.234 21.438 219.87 21.49C219.523 21.5593 219.107 21.594 218.622 21.594C218.015 21.594 217.417 21.49 216.828 21.282C216.239 21.0567 215.866 20.71 215.71 20.242C215.086 20.71 214.505 21.074 213.968 21.334C213.431 21.594 212.807 21.724 212.096 21.724ZM213.916 19.436C214.245 19.436 214.575 19.3667 214.904 19.228C215.233 19.0893 215.476 18.9593 215.632 18.838V15.588L214.462 15.926C213.821 16.0993 213.379 16.368 213.136 16.732C212.893 17.096 212.772 17.5727 212.772 18.162C212.772 18.5953 212.867 18.916 213.058 19.124C213.266 19.332 213.552 19.436 213.916 19.436Z" fill="#7F56D9"/>
<path d="M203.966 21.698C203.255 21.698 202.726 21.6027 202.38 21.412C202.05 21.204 201.834 20.944 201.73 20.632C201.626 20.32 201.574 20.008 201.574 19.696V10.726H199.702V9.32201L201.964 8.33401L203.68 5.73401H205.474V8.67201H207.944V10.752L205.474 10.7V19.02L207.58 19.592V21.1C207.216 21.2213 206.826 21.3253 206.41 21.412C205.994 21.4987 205.569 21.568 205.136 21.62C204.72 21.672 204.33 21.698 203.966 21.698Z" fill="#7F56D9"/>
<path d="M189.828 21.724C189.17 21.724 188.598 21.6027 188.112 21.36C187.644 21.1 187.28 20.736 187.02 20.268C186.778 19.7827 186.656 19.202 186.656 18.526C186.656 18.0407 186.76 17.538 186.968 17.018C187.176 16.498 187.523 16.03 188.008 15.614C188.494 15.1807 189.152 14.8773 189.984 14.704L193.364 13.95V12.26C193.364 11.5493 193.243 11.09 193 10.882C192.758 10.674 192.394 10.57 191.908 10.57C191.544 10.57 191.232 10.596 190.972 10.648C190.712 10.7 190.478 10.7693 190.27 10.856L189.724 13.04H187.54L187.098 9.34799C187.965 9.05332 188.918 8.81932 189.958 8.64599C190.998 8.47265 192.021 8.38599 193.026 8.38599C193.928 8.38599 194.699 8.48132 195.34 8.67199C195.982 8.84532 196.476 9.18332 196.822 9.68599C197.169 10.1713 197.342 10.8733 197.342 11.792V19.072L199.136 19.904V21.152C198.478 21.3253 197.966 21.438 197.602 21.49C197.256 21.5593 196.84 21.594 196.354 21.594C195.748 21.594 195.15 21.49 194.56 21.282C193.971 21.0567 193.598 20.71 193.442 20.242C192.818 20.71 192.238 21.074 191.7 21.334C191.163 21.594 190.539 21.724 189.828 21.724ZM191.648 19.436C191.978 19.436 192.307 19.3667 192.636 19.228C192.966 19.0893 193.208 18.9593 193.364 18.838V15.588L192.194 15.926C191.553 16.0993 191.111 16.368 190.868 16.732C190.626 17.096 190.504 17.5727 190.504 18.162C190.504 18.5953 190.6 18.916 190.79 19.124C190.998 19.332 191.284 19.436 191.648 19.436Z" fill="#7F56D9"/>
<path d="M169.882 21.464V20.19L172.014 19.514V7.372L169.856 6.748V5.474H177.084C179.06 5.474 180.664 5.79467 181.894 6.436C183.125 7.07733 184.026 7.97867 184.598 9.14C185.17 10.284 185.456 11.61 185.456 13.118C185.456 14.7127 185.188 16.1427 184.65 17.408C184.13 18.656 183.29 19.644 182.128 20.372C180.984 21.1 179.476 21.464 177.604 21.464H169.882ZM177.682 19.826C178.445 19.826 179.06 19.6613 179.528 19.332C180.014 18.9853 180.378 18.5087 180.62 17.902C180.88 17.278 181.054 16.5587 181.14 15.744C181.244 14.9293 181.296 14.054 181.296 13.118C181.296 11.922 181.123 10.882 180.776 9.998C180.43 9.114 179.944 8.42933 179.32 7.944C178.714 7.45867 177.986 7.216 177.136 7.216C176.842 7.216 176.608 7.23333 176.434 7.268C176.278 7.28533 176.131 7.32 175.992 7.372V19.566C176.27 19.6353 176.547 19.696 176.824 19.748C177.102 19.8 177.388 19.826 177.682 19.826Z" fill="#7F56D9"/>
<path d="M159.707 21.724C158.251 21.724 157.072 21.4207 156.171 20.814C155.287 20.2073 154.637 19.4013 154.221 18.396C153.805 17.3907 153.597 16.2987 153.597 15.12C153.597 13.872 153.797 12.7453 154.195 11.74C154.611 10.7173 155.27 9.90265 156.171 9.29599C157.072 8.68932 158.251 8.38599 159.707 8.38599C160.643 8.38599 161.475 8.46399 162.203 8.61999C162.948 8.75865 163.694 8.96665 164.439 9.24399L163.919 13.04H162.125L161.605 10.622C161.328 10.4833 161.094 10.3967 160.903 10.362C160.713 10.31 160.487 10.284 160.227 10.284C159.534 10.284 159.014 10.5093 158.667 10.96C158.338 11.3933 158.121 11.974 158.017 12.702C157.913 13.4127 157.861 14.2013 157.861 15.068C157.861 16.108 157.922 16.9313 158.043 17.538C158.165 18.1447 158.338 18.5953 158.563 18.89C158.806 19.1847 159.092 19.3753 159.421 19.462C159.75 19.5487 160.123 19.592 160.539 19.592C160.938 19.592 161.432 19.5487 162.021 19.462C162.61 19.358 163.356 19.1847 164.257 18.942L164.491 20.19C164.006 20.606 163.321 20.97 162.437 21.282C161.553 21.5767 160.643 21.724 159.707 21.724Z" fill="#7F56D9"/>
<path d="M145.018 21.464V20.008L146.942 19.488V11.194L145.018 10.908V9.426L149.62 8.386H150.92V19.488L152.87 20.008V21.464H145.018ZM148.788 6.8C148.112 6.8 147.548 6.58333 147.098 6.15C146.664 5.71667 146.448 5.17933 146.448 4.538C146.448 3.87933 146.664 3.342 147.098 2.926C147.548 2.49267 148.112 2.276 148.788 2.276C149.464 2.276 150.018 2.49267 150.452 2.926C150.902 3.342 151.128 3.87933 151.128 4.538C151.128 5.17933 150.902 5.71667 150.452 6.15C150.018 6.58333 149.464 6.8 148.788 6.8Z" fill="#7F56D9"/>
<path d="M139.981 21.698C139.271 21.698 138.742 21.6027 138.395 21.412C138.066 21.204 137.849 20.944 137.745 20.632C137.641 20.32 137.589 20.008 137.589 19.696V10.726H135.717V9.32201L137.979 8.33401L139.695 5.73401H141.489V8.67201H143.959V10.752L141.489 10.7V19.02L143.595 19.592V21.1C143.231 21.2213 142.841 21.3253 142.425 21.412C142.009 21.4987 141.585 21.568 141.151 21.62C140.735 21.672 140.345 21.698 139.981 21.698Z" fill="#7F56D9"/>
<path d="M129.753 21.724C128.418 21.724 127.326 21.5333 126.477 21.152C125.645 20.7533 125.004 20.2333 124.553 19.592C124.102 18.9507 123.79 18.24 123.617 17.46C123.444 16.68 123.357 15.9 123.357 15.12C123.357 13.768 123.53 12.6587 123.877 11.792C124.224 10.908 124.692 10.2233 125.281 9.73799C125.888 9.23532 126.555 8.88865 127.283 8.69799C128.011 8.48999 128.748 8.38599 129.493 8.38599C131.365 8.38599 132.726 8.79332 133.575 9.60799C134.424 10.4227 134.849 11.6967 134.849 13.43C134.849 13.5167 134.84 13.6813 134.823 13.924C134.823 14.1667 134.814 14.418 134.797 14.678C134.78 14.938 134.754 15.1373 134.719 15.276H127.621V15.822C127.621 16.914 127.751 17.7287 128.011 18.266C128.288 18.8033 128.678 19.1587 129.181 19.332C129.684 19.488 130.299 19.566 131.027 19.566C131.495 19.566 132.032 19.5053 132.639 19.384C133.246 19.2453 133.87 19.0893 134.511 18.916L134.719 20.19C134.286 20.5713 133.644 20.9267 132.795 21.256C131.946 21.568 130.932 21.724 129.753 21.724ZM127.673 13.716L130.897 13.456V12.936C130.897 12.52 130.88 12.1127 130.845 11.714C130.81 11.3153 130.706 10.9947 130.533 10.752C130.36 10.492 130.056 10.362 129.623 10.362C129.051 10.362 128.626 10.5093 128.349 10.804C128.089 11.0813 127.916 11.4713 127.829 11.974C127.742 12.4767 127.69 13.0573 127.673 13.716Z" fill="#7F56D9"/>
<path d="M107.028 21.464V20.008L108.926 19.488V5.21401L107.002 4.92801V3.44601L111.604 2.43201H112.904V9.42601C113.182 9.28734 113.589 9.14001 114.126 8.98401C114.681 8.82801 115.262 8.68934 115.868 8.56801C116.492 8.44667 117.047 8.38601 117.532 8.38601C118.087 8.38601 118.59 8.48134 119.04 8.67201C119.508 8.84534 119.881 9.13134 120.158 9.53001C120.453 9.91134 120.6 10.4227 120.6 11.064V19.488L122.576 20.164V21.464H115.296V20.164L116.648 19.488V12.078C116.648 11.5233 116.562 11.1593 116.388 10.986C116.232 10.7953 115.86 10.7 115.27 10.7C114.594 10.7 114.083 10.7347 113.736 10.804C113.407 10.856 113.13 10.9253 112.904 11.012V19.488L114.256 20.164V21.464H107.028Z" fill="#7F56D9"/>
<path d="M102.2 21.698C101.489 21.698 100.961 21.6027 100.614 21.412C100.285 21.204 100.068 20.944 99.964 20.632C99.86 20.32 99.808 20.008 99.808 19.696V10.726H97.936V9.32201L100.198 8.33401L101.914 5.73401H103.708V8.67201H106.178V10.752L103.708 10.7V19.02L105.814 19.592V21.1C105.45 21.2213 105.06 21.3253 104.644 21.412C104.228 21.4987 103.803 21.568 103.37 21.62C102.954 21.672 102.564 21.698 102.2 21.698Z" fill="#7F56D9"/>
<path d="M81.8203 21.464V20.138L83.7443 19.488V11.168L81.8203 10.908V9.34799L86.4223 8.38599H87.7223V9.42599C87.913 9.33932 88.2683 9.21799 88.7883 9.06199C89.3083 8.88865 89.8803 8.73265 90.5043 8.59399C91.1456 8.45532 91.735 8.38599 92.2723 8.38599C92.827 8.38599 93.3383 8.47265 93.8063 8.64599C94.2916 8.81932 94.6816 9.10532 94.9763 9.50399C95.271 9.88532 95.4183 10.4053 95.4183 11.064V19.488L97.3683 20.138V21.464H90.0883V20.138L91.4403 19.488V12.078C91.4403 11.4713 91.3363 11.09 91.1283 10.934C90.9376 10.778 90.539 10.7 89.9323 10.7C89.395 10.7 88.9703 10.726 88.6583 10.778C88.3636 10.83 88.0516 10.908 87.7223 11.012V19.488L89.1003 20.138V21.464H81.8203Z" fill="#7F56D9"/>
<path d="M71.345 25.832C70.9116 25.832 70.3916 25.7627 69.785 25.624C69.1956 25.5027 68.5716 25.3033 67.913 25.026L68.147 23.7H70.045C70.669 23.7 71.2063 23.5613 71.657 23.284C72.1076 23.0067 72.4803 22.66 72.775 22.244C73.0696 21.8453 73.2776 21.4553 73.399 21.074L68.901 10.57L67.679 9.79V8.672H74.231V9.79L73.087 10.57L75.401 16.576L77.429 10.622L75.817 10.336V8.672H81.667V10.232L79.977 10.622L76.363 20.58C75.7736 22.2093 75.089 23.492 74.309 24.428C73.529 25.364 72.541 25.832 71.345 25.832Z" fill="#7F56D9"/>
<path d="M60.9919 21.672C60.2465 21.672 59.4232 21.6027 58.5219 21.464C57.6205 21.3427 56.8059 21.1433 56.0779 20.866L56.4679 16.94H58.1059L58.4699 19.202C58.7472 19.2713 59.0939 19.358 59.5099 19.462C59.9259 19.5487 60.3765 19.592 60.8619 19.592C61.7112 19.592 62.3872 19.4533 62.8899 19.176C63.3925 18.8987 63.6439 18.448 63.6439 17.824C63.6439 17.2173 63.4532 16.7753 63.0719 16.498C62.6905 16.2033 62.1445 15.8913 61.4339 15.562L59.2239 14.548C58.7732 14.34 58.3225 14.054 57.8719 13.69C57.4385 13.3087 57.0745 12.8233 56.7799 12.234C56.5025 11.6273 56.3639 10.882 56.3639 9.99799C56.3639 8.45532 56.8579 7.25932 57.8459 6.40999C58.8339 5.56065 60.2205 5.13599 62.0059 5.13599C62.8205 5.13599 63.6179 5.19665 64.3979 5.31799C65.1779 5.42199 65.9405 5.59532 66.6859 5.83799L66.3999 9.73799H64.8659L64.2939 7.42399C64.0859 7.33732 63.7739 7.26799 63.3579 7.21599C62.9592 7.16399 62.6385 7.13799 62.3959 7.13799C61.9452 7.13799 61.5032 7.18999 61.0699 7.29399C60.6539 7.38065 60.3072 7.55399 60.0299 7.81399C59.7699 8.07399 59.6399 8.47265 59.6399 9.00999C59.6399 9.59932 59.8479 10.0847 60.2639 10.466C60.6972 10.83 61.2432 11.1507 61.9019 11.428L64.1119 12.364C65.3079 12.8667 66.1225 13.482 66.5559 14.21C67.0065 14.938 67.2319 15.7527 67.2319 16.654C67.2319 18.1793 66.7032 19.4013 65.6459 20.32C64.6059 21.2213 63.0545 21.672 60.9919 21.672Z" fill="#7F56D9"/>
</svg>
