<svg width="765" height="120" viewBox="0 0 765 120" fill="none" xmlns="http://www.w3.org/2000/svg">
<rect width="765" height="120" fill="white"/>
<path d="M10 51.7671H173.32V110H10V51.7671Z" fill="#2DE5A7"/>
<path d="M736.041 91.9277L711.576 60.5221L733.537 34.5783H751.63L723.296 67.008V54.8327L755.157 91.9277H736.041ZM698.49 91.9277V10H713.852V91.9277H698.49Z" fill="#161616"/>
<path d="M657.62 91.9277V34.5784H671.274L672.754 45.1607C674.119 42.6573 675.826 40.5333 677.874 38.7885C679.998 37.0438 682.388 35.6783 685.043 34.6921C687.774 33.706 690.77 33.2129 694.032 33.2129V49.4846H688.798C686.522 49.4846 684.398 49.7502 682.426 50.2812C680.529 50.8122 678.86 51.6846 677.419 52.8983C675.978 54.0362 674.878 55.6292 674.119 57.6774C673.361 59.7256 672.981 62.3048 672.981 65.415V91.9277H657.62Z" fill="#161616"/>
<path d="M620.94 93.2932C615.478 93.2932 610.547 92.0415 606.148 89.5382C601.824 86.959 598.372 83.4315 595.793 78.9559C593.289 74.4043 592.038 69.208 592.038 63.3668C592.038 57.374 593.289 52.1397 595.793 47.664C598.372 43.1125 601.861 39.585 606.261 37.0817C610.661 34.5025 615.592 33.2129 621.054 33.2129C626.591 33.2129 631.522 34.5025 635.846 37.0817C640.246 39.585 643.698 43.1125 646.201 47.664C648.78 52.1397 650.07 57.336 650.07 63.253C650.07 69.17 648.78 74.4043 646.201 78.9559C643.698 83.4315 640.246 86.959 635.846 89.5382C631.446 92.0415 626.478 93.2932 620.94 93.2932ZM620.94 79.98C623.519 79.98 625.795 79.3731 627.767 78.1593C629.815 76.9456 631.409 75.087 632.546 72.5837C633.76 70.0804 634.367 66.9701 634.367 63.253C634.367 59.536 633.76 56.4637 632.546 54.0362C631.409 51.5328 629.815 49.6743 627.767 48.4605C625.795 47.1709 623.557 46.5261 621.054 46.5261C618.626 46.5261 616.388 47.1709 614.34 48.4605C612.292 49.6743 610.661 51.5328 609.447 54.0362C608.309 56.4637 607.741 59.536 607.741 63.253C607.741 66.9701 608.309 70.0804 609.447 72.5837C610.661 75.087 612.254 76.9456 614.226 78.1593C616.275 79.3731 618.512 79.98 620.94 79.98Z" fill="#161616"/>
<path d="M519.36 91.9276L502.519 34.5782H517.653L528.804 81.1177L525.959 81.0039L538.704 34.5782H555.772L568.516 81.0039L565.558 81.1177L576.823 34.5782H591.957L575.116 91.9276H559.186L545.645 44.1365H548.831L535.29 91.9276H519.36Z" fill="#161616"/>
<path d="M475.092 93.2932C469.327 93.2932 464.207 92.0795 459.731 89.652C455.331 87.1486 451.88 83.697 449.376 79.2972C446.949 74.8215 445.735 69.6631 445.735 63.822C445.735 57.8291 446.949 52.5569 449.376 48.0054C451.88 43.378 455.331 39.7747 459.731 37.1955C464.131 34.5404 469.251 33.2129 475.092 33.2129C480.782 33.2129 485.751 34.4646 489.999 36.9679C494.247 39.4713 497.547 42.847 499.898 47.0951C502.25 51.3432 503.426 56.1602 503.426 61.5462C503.426 62.3048 503.426 63.1772 503.426 64.1634C503.426 65.0737 503.35 66.0219 503.198 67.0081H456.659V57.6774H487.951C487.723 53.9603 486.395 51.0398 483.968 48.9157C481.616 46.7917 478.658 45.7296 475.092 45.7296C472.513 45.7296 470.124 46.3365 467.924 47.5502C465.724 48.6881 463.979 50.4708 462.69 52.8983C461.476 55.3258 460.869 58.3981 460.869 62.1152V65.415C460.869 68.5252 461.438 71.2562 462.576 73.6078C463.789 75.8836 465.458 77.6663 467.582 78.9559C469.706 80.1696 472.172 80.7765 474.979 80.7765C477.785 80.7765 480.099 80.1696 481.92 78.9559C483.816 77.7421 485.22 76.187 486.13 74.2905H501.833C500.771 77.8559 498.988 81.0799 496.485 83.9626C493.981 86.8452 490.909 89.121 487.268 90.7899C483.627 92.4588 479.568 93.2932 475.092 93.2932Z" fill="#161616"/>
<path d="M346.124 91.9277V34.5784H359.665L360.916 42.2022C362.737 39.4713 365.127 37.3093 368.085 35.7162C371.119 34.0473 374.571 33.2129 378.44 33.2129C381.322 33.2129 383.902 33.5922 386.177 34.3508C388.453 35.1094 390.463 36.2093 392.208 37.6506C394.029 39.092 395.508 40.9126 396.646 43.1125C398.77 40.0023 401.539 37.5748 404.953 35.83C408.366 34.0853 412.083 33.2129 416.104 33.2129C421.111 33.2129 425.283 34.237 428.621 36.2852C431.958 38.2575 434.462 41.1402 436.131 44.9331C437.875 48.7261 438.748 53.3914 438.748 58.9291V91.9277H423.5V60.2945C423.5 55.743 422.59 52.2535 420.769 49.826C419.024 47.3985 416.293 46.1848 412.576 46.1848C410.149 46.1848 407.987 46.7916 406.09 48.0054C404.194 49.2191 402.715 50.9639 401.653 53.2397C400.667 55.5154 400.173 58.2464 400.173 61.4324V91.9277H384.812V60.2945C384.812 55.743 383.902 52.2535 382.081 49.826C380.26 47.3985 377.454 46.1848 373.661 46.1848C371.309 46.1848 369.185 46.7916 367.289 48.0054C365.468 49.2191 364.027 50.9639 362.965 53.2397C361.978 55.5154 361.485 58.2464 361.485 61.4324V91.9277H346.124Z" fill="#161616"/>
<path d="M304.484 93.2932C299.705 93.2932 295.761 92.5346 292.65 91.0174C289.54 89.4244 287.227 87.3383 285.709 84.7591C284.268 82.104 283.547 79.1834 283.547 75.9974C283.547 72.5078 284.42 69.4356 286.165 66.7805C287.985 64.1254 290.678 62.0393 294.243 60.5221C297.885 59.0049 302.436 58.2464 307.898 58.2464H322.122C322.122 55.4396 321.742 53.1259 320.984 51.3053C320.225 49.4088 319.049 48.0054 317.456 47.0951C315.863 46.1848 313.739 45.7296 311.084 45.7296C308.202 45.7296 305.736 46.3744 303.688 47.664C301.716 48.8778 300.502 50.7742 300.047 53.3535H285.14C285.52 49.2571 286.847 45.7296 289.123 42.7711C291.475 39.7368 294.547 37.3851 298.34 35.7162C302.209 34.0473 306.495 33.2129 311.198 33.2129C316.584 33.2129 321.249 34.1232 325.194 35.9438C329.139 37.7644 332.173 40.3816 334.297 43.7952C336.421 47.2089 337.483 51.419 337.483 56.4257V91.9277H324.511L322.804 83.166C321.97 84.6832 320.984 86.0487 319.846 87.2624C318.708 88.4762 317.38 89.5382 315.863 90.4485C314.346 91.3588 312.639 92.0415 310.743 92.4967C308.846 93.0277 306.76 93.2932 304.484 93.2932ZM308.126 81.4592C310.098 81.4592 311.843 81.1178 313.36 80.4351C314.953 79.6765 316.318 78.6904 317.456 77.4766C318.594 76.187 319.467 74.7457 320.073 73.1526C320.756 71.4837 321.211 69.7011 321.439 67.8046V67.6908H309.719C307.367 67.6908 305.433 67.9942 303.915 68.6011C302.474 69.1321 301.412 69.9286 300.729 70.9907C300.047 72.0527 299.705 73.2664 299.705 74.6319C299.705 76.1491 300.047 77.4008 300.729 78.3869C301.412 79.3731 302.398 80.1317 303.688 80.6627C304.978 81.1937 306.457 81.4592 308.126 81.4592Z" fill="#161616"/>
<path d="M244.27 91.9277V34.5784H257.925L259.404 45.1607C260.769 42.6573 262.476 40.5333 264.524 38.7885C266.648 37.0438 269.038 35.6783 271.693 34.6921C274.424 33.706 277.42 33.2129 280.682 33.2129V49.4846H275.448C273.172 49.4846 271.048 49.7502 269.076 50.2812C267.179 50.8122 265.51 51.6846 264.069 52.8983C262.628 54.0362 261.528 55.6292 260.769 57.6774C260.011 59.7256 259.631 62.3048 259.631 65.415V91.9277H244.27Z" fill="#161616"/>
<path d="M187.073 91.9277V12.2758H238.96V24.6787H202.434V45.9571H231.678V58.0187H202.434V91.9277H187.073Z" fill="#161616"/>
<path d="M105.332 91.9277V12.2758H157.674V24.6787H120.693V45.502H154.261V57.4498H120.693V79.5247H157.674V91.9277H105.332Z" fill="#161616"/>
<path d="M30.5689 91.9277V12.2758H57.1954C66.4502 12.2758 74.0741 13.9447 80.0669 17.2825C86.1356 20.5444 90.6113 25.1718 93.494 31.1646C96.4525 37.0816 97.9317 44.0607 97.9317 52.1017C97.9317 60.1428 96.4525 67.1597 93.494 73.1526C90.6113 79.0696 86.1736 83.697 80.1807 87.0348C74.1878 90.2967 66.5261 91.9277 57.1954 91.9277H30.5689ZM45.9304 78.7282H56.3989C62.9228 78.7282 68.0433 77.6662 71.7604 75.5421C75.5533 73.4181 78.2463 70.3837 79.8393 66.4391C81.4324 62.4185 82.2289 57.6394 82.2289 52.1017C82.2289 46.4882 81.4324 41.709 79.8393 37.7644C78.2463 33.7438 75.5533 30.6716 71.7604 28.5475C68.0433 26.4235 62.9228 25.3614 56.3989 25.3614H45.9304V78.7282Z" fill="#161616"/>
</svg>
