<svg width="180" height="48" viewBox="0 0 180 48" fill="none" xmlns="http://www.w3.org/2000/svg">
<path d="M166.672 35.6253V16.8971H169.716V27.2799H171.385L174.674 22.4689H177.791L173.618 28.6544L178.135 35.6253H175.017L171.336 30.0044H169.716V35.6253H166.672Z" fill="#7F56D9"/>
<path d="M156.88 35.6252V22.4688H159.236L159.923 24.5798C160.447 23.9416 161.028 23.4016 161.666 22.9598C162.304 22.5179 163.065 22.297 163.949 22.297C164.129 22.297 164.317 22.3134 164.513 22.3461C164.71 22.3625 164.89 22.3952 165.053 22.4443V25.537C164.824 25.5043 164.579 25.4798 164.317 25.4634C164.055 25.447 163.801 25.4388 163.556 25.4388C163.049 25.4388 162.582 25.4961 162.157 25.6107C161.748 25.7252 161.363 25.9052 161.003 26.1507C160.643 26.3798 160.283 26.6743 159.923 27.0343V35.6252H156.88Z" fill="#7F56D9"/>
<path d="M148.726 35.7479C147.695 35.7479 146.804 35.6416 146.051 35.4288C145.298 35.2161 144.684 34.8561 144.21 34.3488C143.735 33.8416 143.384 33.1543 143.154 32.287C142.925 31.4198 142.811 30.3316 142.811 29.0225C142.811 27.6643 142.925 26.5516 143.154 25.6843C143.384 24.8007 143.735 24.1134 144.21 23.6225C144.701 23.1152 145.323 22.7716 146.075 22.5916C146.828 22.3952 147.712 22.297 148.726 22.297C149.774 22.297 150.674 22.4034 151.426 22.6161C152.179 22.8125 152.793 23.1561 153.267 23.647C153.742 24.1379 154.094 24.8252 154.323 25.7088C154.552 26.5761 154.666 27.6807 154.666 29.0225C154.666 30.3479 154.552 31.4525 154.323 32.3361C154.11 33.2034 153.766 33.8907 153.292 34.3979C152.817 34.8888 152.204 35.2407 151.451 35.4534C150.698 35.6498 149.79 35.7479 148.726 35.7479ZM148.726 33.3179C149.234 33.3179 149.667 33.277 150.027 33.1952C150.387 33.097 150.682 32.9088 150.911 32.6307C151.156 32.3361 151.336 31.9025 151.451 31.3298C151.565 30.7407 151.623 29.9634 151.623 28.9979C151.623 28.0488 151.565 27.2879 151.451 26.7152C151.336 26.1425 151.156 25.717 150.911 25.4388C150.682 25.1443 150.387 24.9561 150.027 24.8743C149.667 24.7761 149.234 24.727 148.726 24.727C148.235 24.727 147.81 24.7761 147.45 24.8743C147.09 24.9561 146.795 25.1443 146.566 25.4388C146.337 25.717 146.157 26.1425 146.026 26.7152C145.912 27.2879 145.854 28.0488 145.854 28.9979C145.854 29.9634 145.912 30.7407 146.026 31.3298C146.157 31.9025 146.337 32.3361 146.566 32.6307C146.795 32.9088 147.09 33.097 147.45 33.1952C147.81 33.277 148.235 33.3179 148.726 33.3179Z" fill="#7F56D9"/>
<path d="M126.638 35.6252L122.981 22.4688H126.098L128.577 32.8024L131.425 22.4688H133.977L136.825 32.8024L139.157 22.4688H142.274L138.666 35.6252H135.303L132.652 26.7152L129.927 35.6252H126.638Z" fill="#7F56D9"/>
<path d="M117.034 35.7479C115.61 35.7479 114.473 35.5516 113.622 35.1588C112.787 34.7661 112.182 34.087 111.806 33.1216C111.429 32.1398 111.241 30.7816 111.241 29.047C111.241 27.2798 111.421 25.9134 111.781 24.9479C112.141 23.9661 112.738 23.2788 113.573 22.8861C114.407 22.4934 115.536 22.297 116.96 22.297C118.22 22.297 119.226 22.4279 119.979 22.6898C120.748 22.9352 121.305 23.3852 121.648 24.0398C122.008 24.6779 122.188 25.5861 122.188 26.7643C122.188 27.5988 122.025 28.2698 121.697 28.777C121.37 29.2679 120.896 29.6198 120.274 29.8325C119.668 30.0452 118.948 30.1516 118.114 30.1516H114.26C114.293 30.9698 114.399 31.6243 114.579 32.1152C114.776 32.5898 115.119 32.9334 115.61 33.1461C116.117 33.3588 116.854 33.4652 117.819 33.4652H121.796V35.257C121.125 35.3879 120.413 35.5025 119.66 35.6007C118.924 35.6988 118.048 35.7479 117.034 35.7479ZM114.236 28.3107H117.819C118.392 28.3107 118.809 28.2043 119.071 27.9916C119.349 27.7625 119.488 27.3534 119.488 26.7643C119.488 26.1916 119.406 25.7416 119.243 25.4143C119.079 25.087 118.809 24.8579 118.433 24.727C118.056 24.5798 117.566 24.5061 116.96 24.5061C116.273 24.5061 115.733 24.6125 115.34 24.8252C114.947 25.0379 114.661 25.4225 114.481 25.9788C114.317 26.5188 114.236 27.2961 114.236 28.3107Z" fill="#7F56D9"/>
<path d="M89.1619 35.6253V22.469H91.641L92.2056 23.8435C92.811 23.418 93.4737 23.0499 94.1937 22.739C94.9301 22.4117 95.7974 22.248 96.7956 22.248C97.6137 22.248 98.301 22.428 98.8574 22.788C99.4301 23.1317 99.8556 23.5817 100.134 24.138C100.51 23.8435 100.96 23.5571 101.484 23.279C102.024 22.9844 102.596 22.739 103.202 22.5426C103.807 22.3462 104.405 22.248 104.994 22.248C106.008 22.248 106.818 22.4526 107.424 22.8617C108.046 23.2544 108.487 23.8108 108.749 24.5308C109.011 25.2344 109.142 26.0526 109.142 26.9853V35.6253H106.098V27.2308C106.098 26.7562 106.008 26.3553 105.828 26.028C105.648 25.7008 105.395 25.4471 105.067 25.2671C104.756 25.0871 104.372 24.9971 103.914 24.9971C103.325 24.9971 102.727 25.1117 102.122 25.3408C101.533 25.5699 100.993 25.848 100.502 26.1753C100.567 26.339 100.608 26.519 100.625 26.7153C100.657 26.9117 100.674 27.108 100.674 27.3044V35.6253H97.6301V27.2308C97.6301 26.7562 97.5401 26.3553 97.3601 26.028C97.1801 25.7008 96.9265 25.4471 96.5992 25.2671C96.2883 25.0871 95.9037 24.9971 95.4456 24.9971C95.0201 24.9971 94.6192 25.038 94.2428 25.1199C93.8828 25.2017 93.5392 25.3244 93.2119 25.488C92.8847 25.6517 92.5492 25.848 92.2056 26.0771V35.6253H89.1619Z" fill="#7F56D9"/>
<path d="M78.9301 35.7725C77.9483 35.7725 77.1465 35.478 76.5247 34.8889C75.9029 34.2998 75.5919 33.4898 75.5919 32.4589V31.3544C75.5919 30.3398 75.9356 29.5134 76.6229 28.8753C77.3265 28.2371 78.3983 27.918 79.8383 27.918H83.5938V26.7644C83.5938 26.3062 83.512 25.9216 83.3483 25.6107C83.1847 25.2998 82.8901 25.0707 82.4647 24.9234C82.0392 24.7598 81.3929 24.678 80.5256 24.678H76.5492V22.9107C77.1547 22.7471 77.8665 22.608 78.6847 22.4934C79.5029 22.3625 80.4765 22.2971 81.6056 22.2971C82.6856 22.2807 83.602 22.4116 84.3547 22.6898C85.1074 22.9516 85.672 23.3934 86.0483 24.0153C86.441 24.6371 86.6374 25.488 86.6374 26.568V35.6253H84.2565L83.741 34.2016C83.6265 34.2998 83.422 34.4307 83.1274 34.5944C82.8329 34.758 82.4647 34.938 82.0229 35.1344C81.581 35.3144 81.0901 35.4698 80.5501 35.6007C80.0265 35.7153 79.4865 35.7725 78.9301 35.7725ZM80.4029 33.6371C80.6156 33.6371 80.8529 33.6125 81.1147 33.5634C81.3929 33.498 81.671 33.4325 81.9492 33.3671C82.2274 33.2853 82.481 33.2116 82.7101 33.1462C82.9556 33.0644 83.152 32.9907 83.2992 32.9253C83.4629 32.8598 83.561 32.8189 83.5938 32.8025V29.3662L80.7465 29.5134C79.9938 29.5789 79.4456 29.7753 79.102 30.1025C78.7747 30.4298 78.611 30.8634 78.611 31.4034V31.9434C78.611 32.3525 78.6929 32.688 78.8565 32.9498C79.0365 33.1953 79.2574 33.3671 79.5192 33.4653C79.7974 33.5634 80.0919 33.6207 80.4029 33.6371Z" fill="#7F56D9"/>
<path d="M66.8927 35.6252V22.4688H69.2491L69.9364 24.5798C70.46 23.9416 71.0409 23.4016 71.6791 22.9598C72.3173 22.5179 73.0782 22.297 73.9618 22.297C74.1418 22.297 74.33 22.3134 74.5264 22.3461C74.7227 22.3625 74.9027 22.3952 75.0664 22.4443V25.537C74.8373 25.5043 74.5918 25.4798 74.33 25.4634C74.0682 25.447 73.8145 25.4388 73.5691 25.4388C73.0618 25.4388 72.5955 25.4961 72.17 25.6107C71.7609 25.7252 71.3764 25.9052 71.0164 26.1507C70.6564 26.3798 70.2964 26.6743 69.9364 27.0343V35.6252H66.8927Z" fill="#7F56D9"/>
<path d="M53.6042 35.6253V21.4626C53.6042 20.6935 53.7187 20.0553 53.9478 19.548C54.1769 19.0244 54.4796 18.6153 54.856 18.3207C55.2487 18.0262 55.6742 17.8217 56.1323 17.7071C56.6069 17.5762 57.0732 17.5107 57.5314 17.5107C58.1696 17.5107 58.9223 17.5189 59.7896 17.5353C60.6569 17.5353 61.5651 17.5598 62.5142 17.6089C63.4632 17.6417 64.3796 17.6989 65.2632 17.7807V20.3089H58.3414C57.8014 20.3089 57.376 20.4644 57.0651 20.7753C56.7705 21.0698 56.6232 21.4789 56.6232 22.0026V25.6598L64.1587 25.8317V28.2126L56.6232 28.3844V35.6253H53.6042Z" fill="#7F56D9"/>
<path d="M22.1314 19.9408C22.7204 19.9408 23.2278 20.039 23.6532 20.2354C24.095 20.4318 24.4551 20.7671 24.7332 21.2416C25.0114 21.7161 25.2241 22.3626 25.3713 23.1808C25.5186 23.999 25.5921 25.0299 25.5921 26.2735C25.5921 27.6153 25.4695 28.7609 25.2241 29.71C24.995 30.659 24.6268 31.3791 24.1196 31.87C23.6287 32.3609 22.9658 32.6061 22.1314 32.6061H17.9587V19.9408H22.1314Z" fill="#7F56D9"/>
<path fill-rule="evenodd" clip-rule="evenodd" d="M30.8562 3.081C33.8864 1.30159 37.5454 1.1868 40.6899 2.62184C43.8344 4.11435 46.0643 7.04198 46.6361 10.4862L49.4947 27.937C50.2379 32.4719 48.008 36.9493 43.9488 39.0733C41.0329 40.6232 37.0879 42.5176 32.2854 44.7563C30.0557 45.847 27.6544 46.3637 25.3104 46.3637C20.4506 46.3637 15.7623 44.2396 12.5606 40.2787C10.045 37.179 7.81529 34.5384 5.9286 32.3571C3.81319 29.9461 2.89851 26.7889 3.41307 23.6317C3.92763 20.4745 5.75719 17.719 8.55866 16.1117L30.8562 3.081ZM34.9631 17.2162C34.505 17.2162 34.0386 17.2816 33.5641 17.4125C33.106 17.527 32.6805 17.7316 32.2878 18.0261C31.9115 18.3207 31.6087 18.7298 31.3796 19.2534C31.1505 19.7607 31.036 20.399 31.036 21.1681V31.6244C31.036 32.5079 31.175 33.2034 31.4531 33.7106C31.7313 34.2179 32.0915 34.6026 32.5334 34.8644C32.9751 35.1098 33.4332 35.2653 33.9077 35.3307C34.3985 35.4125 34.8405 35.4535 35.2332 35.4535C36.035 35.4372 36.8695 35.4125 37.7368 35.3797C38.6203 35.3634 39.4877 35.339 40.3386 35.3062C41.1895 35.2571 41.9751 35.1999 42.6951 35.1344V32.6061H35.8223C35.5278 32.6061 35.2413 32.557 34.9631 32.4588C34.7014 32.3607 34.4805 32.1807 34.3005 31.919C34.1369 31.6572 34.0549 31.2806 34.0549 30.7897V27.6725L41.5906 27.5007V25.1197L34.0549 24.9479V21.7325C34.055 21.1435 34.2105 20.7098 34.5213 20.4317C34.8486 20.1535 35.2905 20.0143 35.8468 20.0143H42.6951V17.4863C42.0406 17.4372 41.3287 17.3962 40.5596 17.3635C39.807 17.3308 38.9724 17.2979 38.0561 17.2652C37.1397 17.2325 36.1086 17.2162 34.9631 17.2162ZM14.9395 35.3307H22.4259C23.8004 35.3307 24.9459 34.987 25.8622 34.2998C26.7785 33.6125 27.466 32.6062 27.9242 31.2808C28.3823 29.939 28.6113 28.2698 28.6113 26.2735C28.6113 24.8826 28.5049 23.6308 28.2922 22.5182C28.0959 21.4054 27.7603 20.4562 27.2858 19.6708C26.8112 18.869 26.1731 18.2634 25.3713 17.8544C24.5859 17.4289 23.6041 17.2162 22.4259 17.2162H14.9395V35.3307Z" fill="#7F56D9"/>
</svg>
