<?xml version="1.0" encoding="utf-8"?>
<!-- Generator: Adobe Illustrator 15.0.0, SVG Export Plug-In . SVG Version: 6.00 Build 0)  -->
<!DOCTYPE svg PUBLIC "-//W3C//DTD SVG 1.1//EN" "http://www.w3.org/Graphics/SVG/1.1/DTD/svg11.dtd">
<svg version="1.1" id="Layer_1" xmlns="http://www.w3.org/2000/svg" xmlns:xlink="http://www.w3.org/1999/xlink" x="0px" y="0px"
	 width="100px" height="100px" viewBox="0 0 100 100" enable-background="new 0 0 100 100" xml:space="preserve">
<g>
	<path fill="#999999" d="M66.008,15c2.937,0.37,1.734-0.03,3.701,0.856c3.107,1.794,4.172,5.768,2.378,8.875
		c-1.104,1.454-0.435,0.753-2.08,2.027c1.686,2.921,3.372,5.841,5.059,8.762c1.682,2.913,3.362,5.825,5.044,8.738
		c1.905-0.801,0.961-0.577,2.811-0.763c3.589,0,6.497,2.909,6.497,6.498c0,3.587-2.908,6.498-6.497,6.498
		c-1.85-0.188-0.905,0.037-2.811-0.766L70.026,73.191c0.866,0.476,1.469,1.294,2.061,2.062c1.794,3.108,0.729,7.081-2.378,8.875
		c-3.107,1.795-7.081,0.73-8.876-2.378c-0.706-1.684-0.436-0.753-0.717-2.816H39.9c0.004,0.889,0.032,0.347-0.193,1.616
		c-0.099,0.428-0.36,0.8-0.541,1.199c-1.794,3.109-5.769,4.174-8.875,2.379c-3.107-1.794-4.172-5.767-2.378-8.875
		c0.519-0.842,1.152-1.634,2.032-2.112L19.852,55.657c-1.923,0.779-0.991,0.529-2.771,0.833c-3.588,0-6.498-2.91-6.498-6.498
		c0-3.589,2.909-6.498,6.498-6.498l0,0c1.811,0.229,0.871-0.001,2.796,0.787L29.99,26.765c-1.583-1.28-0.904-0.589-2.077-2.033
		c-1.794-3.107-0.729-7.082,2.378-8.875c1.965-0.886,0.765-0.486,3.701-0.856c2.334,0.255,3.854,1.4,5.175,3.234
		c0.707,1.683,0.436,0.753,0.716,2.815H60.1c-0.005-0.888-0.033-0.346,0.193-1.615c0.099-0.427,0.36-0.801,0.54-1.2
		C62.323,15.852,63.485,15.676,66.008,15z M52.385,70.875c-0.595,0.819-1.422,1.11-2.385,1.208
		c-1.149-0.014-1.628-0.452-2.385-1.208l-8.292,4.787c0.47,0.707,0.518,1.589,0.574,2.405h20.152
		c0.083-0.816,0.226-1.674,0.694-2.366L52.385,70.875z M58.071,64.838l-5.323,3.074c0.303,0.716,0.204,0.337,0.284,1.14
		c-0.078,0.77,0.019,0.421-0.248,1.054l8.446,4.877c0.832-1.23,0.316-0.589,1.627-1.854L58.071,64.838z M41.929,64.838l-4.787,8.291
		c0.679,0.484,1.332,1.051,1.751,1.782l8.323-4.806c-0.266-0.633-0.17-0.284-0.248-1.054c0.081-0.803-0.018-0.424,0.284-1.14
		L41.929,64.838z M22.408,53.567c-0.469,0.666-1.157,1.188-1.767,1.727l10.065,17.433c0.786-0.294,1.575-0.494,2.382-0.707
		l0.019,0.001v-9.512c-1.592-0.146-2.454-1.547-2.599-2.987c0.08-0.793-0.018-0.423,0.274-1.118L22.408,53.567z M77.524,53.606
		l-8.307,4.797c0.291,0.695,0.195,0.325,0.274,1.118c-0.07,1.45-1.064,2.834-2.599,2.987v9.512l0.019-0.001
		c0.811,0.127,1.678,0.235,2.387,0.698l10.006-17.331C78.526,55.066,78.072,54.158,77.524,53.606z M64.091,61.363l-5.269,3.042
		l4.785,8.289c1.293-0.551,0.504-0.291,2.42-0.592v-9.594C65.129,62.479,64.659,61.929,64.091,61.363z M35.908,61.363
		c-0.528,0.619-1.079,1.061-1.935,1.146v9.619c1.16,0.069,0.644-0.009,1.555,0.184c0.121,0.04,0.632,0.276,0.864,0.381l4.786-8.287
		L35.908,61.363z M52.811,55.725C50.905,56.527,51.85,56.302,50,56.49c-1.85-0.188-0.905,0.037-2.811-0.766l-4.828,8.363l5.32,3.072
		c0.57-0.787,1.398-1.049,2.318-1.141c1.088,0.007,1.599,0.42,2.318,1.141l5.319-3.072L52.811,55.725z M43.546,50.424h-9.573v6.108
		c1.592,0.147,2.454,1.548,2.599,2.989c-0.079,0.778,0.018,0.422-0.257,1.075l5.296,3.058l4.773-8.268
		C44.683,54.091,43.76,52.543,43.546,50.424z M66.027,50.424h-9.573c-0.063,2.416-1.271,3.404-2.839,4.962l4.773,8.268l5.297-3.058
		c-0.276-0.653-0.18-0.297-0.258-1.075c0.07-1.452,1.064-2.834,2.6-2.989V50.424z M76.466,50.424h-9.572v6.108
		c0.878,0.025,1.349,0.562,1.901,1.115l8.391-4.847C76.441,51.03,76.608,51.84,76.466,50.424z M33.107,50.424h-9.573
		c-0.098,0.819-0.171,1.717-0.643,2.422l8.314,4.801c0.513-0.607,1.068-1.031,1.901-1.115V50.424z M58.389,36.329l-4.773,8.269
		c1.703,1.296,2.625,2.843,2.839,4.961h9.573v-6.107c-1.593-0.146-2.455-1.548-2.6-2.988c0.078-0.779-0.019-0.423,0.258-1.076
		L58.389,36.329z M31.206,42.337l-8.462,4.886c0.648,1.335,0.352,0.568,0.791,2.335h9.573v-6.107
		C32.229,43.426,31.758,42.889,31.206,42.337z M68.795,42.337c-0.513,0.607-1.068,1.03-1.901,1.114v6.107h9.572
		c0.143-1.416-0.024-0.606,0.72-2.376L68.795,42.337z M41.611,36.329l-5.296,3.058c0.275,0.653,0.178,0.297,0.257,1.076
		c-0.07,1.451-1.065,2.833-2.599,2.988v6.107h9.573c0.063-2.414,1.272-3.403,2.839-4.961L41.611,36.329z M30.686,27.293
		L20.66,44.656c0.667,0.481,1.337,1.033,1.704,1.786l8.418-4.861c-0.292-0.696-0.195-0.325-0.274-1.118
		c0.07-1.452,1.065-2.833,2.599-2.989v-9.499l-0.374-0.013C32.019,27.887,31.368,27.516,30.686,27.293z M69.291,27.251
		c-0.773,0.251-1.57,0.639-2.397,0.64v9.583c1.592,0.147,2.453,1.548,2.599,2.989c-0.079,0.792,0.017,0.422-0.274,1.118l8.307,4.796
		c0.323-0.778,1.229-1.232,1.78-1.78c-1.663-2.882-3.327-5.762-4.99-8.644l-4.445-7.7L69.291,27.251z M47.682,32.825l-5.32,3.071
		l4.828,8.363c1.905-0.801,0.961-0.577,2.811-0.763c1.85,0.186,0.905-0.038,2.811,0.763l4.827-8.363l-5.319-3.071
		c-0.57,0.786-1.397,1.048-2.318,1.141C48.911,33.957,48.4,33.544,47.682,32.825z M63.608,27.288l-4.786,8.291l5.269,3.042
		c0.529-0.621,1.079-1.061,1.937-1.147v-9.582C65.203,27.89,64.382,27.547,63.608,27.288z M36.392,27.288
		c-1.396,0.519-0.597,0.269-2.419,0.677v9.509c0.898,0.03,1.368,0.58,1.935,1.147l5.27-3.042L36.392,27.288z M61.106,25.073
		l-8.322,4.805c0.267,0.632,0.17,0.284,0.248,1.056c-0.08,0.8,0.019,0.421-0.283,1.139l5.322,3.073l4.786-8.291
		C62.18,26.371,61.526,25.804,61.106,25.073z M38.77,25.001c-0.833,1.229-0.317,0.589-1.628,1.854l4.787,8.291l5.323-3.074
		c-0.302-0.717-0.203-0.338-0.284-1.138c0.078-0.771-0.018-0.423,0.248-1.056L38.77,25.001z M60.104,21.916H39.952
		c-0.083,0.817-0.226,1.674-0.695,2.367l8.358,4.827c0.595-0.821,1.421-1.111,2.385-1.208c1.148,0.014,1.629,0.451,2.385,1.207
		l8.292-4.787C60.206,23.614,60.159,22.732,60.104,21.916z"/>
	<circle fill="#32C5D2" cx="33.445" cy="21.442" r="6.558"/>
	<circle fill="#32C5D2" cx="66.445" cy="21.442" r="6.558"/>
	<circle fill="#32C5D2" cx="82.859" cy="50" r="6.558"/>
	<circle fill="#32C5D2" cx="66.445" cy="78.442" r="6.558"/>
	<circle fill="#32C5D2" cx="33.445" cy="78.442" r="6.558"/>
	<circle fill="#32C5D2" cx="17.14" cy="50" r="6.558"/>
	<circle fill="#32C5D2" cx="50" cy="50" r="6.558"/>
	<circle fill="#32C5D2" cx="49.979" cy="30.905" r="3.095"/>
	<circle fill="#32C5D2" cx="66.445" cy="40.425" r="3.095"/>
	<circle fill="#32C5D2" cx="33.529" cy="40.462" r="3.095"/>
	<circle fill="#32C5D2" cx="33.508" cy="59.527" r="3.095"/>
	<circle fill="#32C5D2" cx="50.047" cy="69.023" r="3.095"/>
	<circle fill="#32C5D2" cx="66.445" cy="59.543" r="3.095"/>
</g>
</svg>
