<?xml version="1.0" encoding="utf-8"?>
<!-- Generator: Adobe Illustrator 15.0.0, SVG Export Plug-In . SVG Version: 6.00 Build 0)  -->
<!DOCTYPE svg PUBLIC "-//W3C//DTD SVG 1.1//EN" "http://www.w3.org/Graphics/SVG/1.1/DTD/svg11.dtd">
<svg version="1.1" id="Layer_1" xmlns="http://www.w3.org/2000/svg" xmlns:xlink="http://www.w3.org/1999/xlink" x="0px" y="0px"
	 width="100px" height="100px" viewBox="0 0 100 100" enable-background="new 0 0 100 100" xml:space="preserve">
<g>
	<path fill="#999999" d="M43.236,37.213V37.15h-0.012C43.225,37.173,43.236,37.192,43.236,37.213z"/>
	<path fill="#999999" d="M43.236,43.401v-0.063h-0.012C43.225,43.358,43.236,43.38,43.236,43.401z"/>
	<path fill="#999999" d="M43.236,49.588v-0.062h-0.012C43.225,49.545,43.236,49.568,43.236,49.588z"/>
	<g>
		<g>
			<ellipse fill="#32C5D2" cx="57.644" cy="34.182" rx="19.154" ry="5.527"/>
			<path fill="#32C5D2" d="M57.644,50.288c-10.578,0-19.152-2.474-19.152-5.527c0-0.031,0.015-0.063,0.018-0.094H38.49v7.147h0.017
				c0.179,3.006,8.669,5.433,19.138,5.433s18.961-2.427,19.139-5.433H76.8v-7.047C76.787,47.818,68.213,50.288,57.644,50.288z"/>
			<path fill="#32C5D2" d="M76.798,44.751v-0.085h-0.017C76.787,44.694,76.798,44.724,76.798,44.751z"/>
			<path fill="#32C5D2" d="M57.644,58.865c-10.578,0-19.152-2.477-19.152-5.527c0-0.033,0.015-0.064,0.018-0.094H38.49v7.148h0.017
				c0.179,3.006,8.669,5.43,19.138,5.43s18.961-2.424,19.139-5.43H76.8V53.34C76.787,56.393,68.213,58.865,57.644,58.865z"/>
			<path fill="#32C5D2" d="M76.798,53.33v-0.086h-0.017C76.787,53.271,76.798,53.301,76.798,53.33z"/>
			<path fill="#32C5D2" d="M57.644,67.441c-10.578,0-19.152-2.477-19.152-5.529c0-0.031,0.015-0.061,0.018-0.092H38.49v7.146h0.017
				c0.179,3.008,8.669,5.432,19.138,5.432s18.961-2.424,19.139-5.432H76.8V61.92C76.787,64.969,68.213,67.441,57.644,67.441z"/>
			<path fill="#32C5D2" d="M76.798,61.906V61.82h-0.017C76.787,61.85,76.798,61.879,76.798,61.906z"/>
			<path fill="#32C5D2" d="M57.644,41.521c-10.578,0-19.152-2.476-19.152-5.528c0-0.033,0.015-0.062,0.018-0.095H38.49v7.146h0.017
				c0.179,3.009,8.669,5.435,19.138,5.435s18.961-2.426,19.139-5.435H76.8V36C76.787,39.047,68.213,41.521,57.644,41.521z"/>
			<path fill="#32C5D2" d="M76.798,35.986v-0.089h-0.017C76.787,35.928,76.798,35.957,76.798,35.986z"/>
		</g>
		<g>
			<path fill="#999999" d="M36.414,46.22v-3.631h0.001l-0.001-0.096v-1.291c-7.354-0.091-13.214-1.84-13.214-3.984
				c0-0.021,0.011-0.045,0.011-0.066H23.2v5.156h0.011C23.335,44.418,29.142,46.131,36.414,46.22z"/>
			<path fill="#999999" d="M36.414,52.408v-1.146v-0.096V47.39C29.061,47.297,23.2,45.549,23.2,43.406
				c0-0.022,0.011-0.046,0.011-0.067H23.2v5.155h0.011C23.335,50.607,29.142,52.318,36.414,52.408z"/>
			<path fill="#999999" d="M36.414,53.578c-7.354-0.094-13.214-1.84-13.214-3.985c0-0.021,0.011-0.045,0.011-0.065H23.2v5.154h0.011
				c0.126,2.111,5.931,3.824,13.203,3.914V53.578L36.414,53.578z"/>
			<path fill="#999999" d="M36.414,39.896v-5.02c-7.353-0.09-13.214-1.838-13.214-3.982c0-0.024,0.011-0.044,0.011-0.068H23.2v5.156
				h0.011C23.335,38.094,29.142,39.808,36.414,39.896z"/>
			<path fill="#999999" d="M36.419,33.57c0.063-3.332,5.218-5.405,11.684-6.362c-2.52-0.976-6.547-1.606-11.086-1.606
				c-7.631,0-13.815,1.786-13.815,3.986C23.201,31.732,29.063,33.48,36.419,33.57z"/>
		</g>
	</g>
</g>
</svg>
