<?xml version="1.0" encoding="utf-8"?>
<!-- Generator: Adobe Illustrator 15.0.0, SVG Export Plug-In . SVG Version: 6.00 Build 0)  -->
<!DOCTYPE svg PUBLIC "-//W3C//DTD SVG 1.1//EN" "http://www.w3.org/Graphics/SVG/1.1/DTD/svg11.dtd">
<svg version="1.1" id="Layer_1" xmlns="http://www.w3.org/2000/svg" xmlns:xlink="http://www.w3.org/1999/xlink" x="0px" y="0px"
	 width="100px" height="100px" viewBox="0 0 100 100" enable-background="new 0 0 100 100" xml:space="preserve">
<g>
	<g transform="translate(0,-952.36218)">
		<path fill="#E8E8E8" d="M74.696,987.723c3.367,0,6.1-2.731,6.1-6.1c0-3.253-2.548-5.908-5.757-6.086
			c-0.386-2.542-2.573-4.485-5.224-4.485c-1.365,0-2.604,0.521-3.545,1.372c-1.168-2.491-3.688-4.22-6.621-4.22
			c-3.926,0-7.126,3.094-7.309,6.977c-2.396,0.958-4.079,3.29-4.079,6.036c0,3.605,2.902,6.506,6.506,6.506h9.76H74.696
			L74.696,987.723z"/>
	</g>
	<g transform="translate(0,-952.36218)">
		<path fill="#E8E8E8" d="M26.985,984.523c2.245,0,4.066-1.821,4.066-4.066c0-2.169-1.698-3.938-3.838-4.058
			c-0.255-1.694-1.715-2.99-3.482-2.99c-0.91,0-1.736,0.349-2.363,0.915c-0.778-1.661-2.459-2.813-4.414-2.813
			c-2.618,0-4.75,2.063-4.871,4.651c-1.597,0.638-2.72,2.193-2.72,4.024c0,2.404,1.934,4.337,4.337,4.337h6.506H26.985z"/>
	</g>
	<g>
		<g>
			<ellipse fill="#32C5D2" cx="50.044" cy="34.182" rx="19.154" ry="5.527"/>
			<path fill="#32C5D2" d="M50.044,50.288c-10.578,0-19.153-2.474-19.153-5.527c0-0.032,0.015-0.063,0.018-0.094H30.89v7.147h0.017
				c0.179,3.006,8.669,5.433,19.138,5.433s18.961-2.427,19.139-5.433H69.2v-7.047C69.188,47.818,60.613,50.288,50.044,50.288z"/>
			<path fill="#32C5D2" d="M69.198,44.751v-0.085h-0.017C69.188,44.694,69.198,44.723,69.198,44.751z"/>
			<path fill="#32C5D2" d="M50.044,58.865c-10.578,0-19.153-2.477-19.153-5.527c0-0.033,0.015-0.064,0.018-0.094H30.89v7.148h0.017
				c0.179,3.006,8.669,5.43,19.138,5.43s18.961-2.424,19.139-5.43H69.2V53.34C69.188,56.393,60.613,58.865,50.044,58.865z"/>
			<path fill="#32C5D2" d="M69.198,53.33v-0.086h-0.017C69.188,53.271,69.198,53.301,69.198,53.33z"/>
			<path fill="#32C5D2" d="M50.044,67.441c-10.578,0-19.153-2.477-19.153-5.529c0-0.031,0.015-0.061,0.018-0.092H30.89v7.146h0.017
				c0.179,3.008,8.669,5.432,19.138,5.432s18.961-2.424,19.139-5.432H69.2V61.92C69.188,64.969,60.613,67.441,50.044,67.441z"/>
			<path fill="#32C5D2" d="M69.198,61.906V61.82h-0.017C69.188,61.85,69.198,61.879,69.198,61.906z"/>
			<path fill="#32C5D2" d="M50.044,41.521c-10.578,0-19.153-2.475-19.153-5.528c0-0.033,0.015-0.062,0.018-0.095H30.89v7.146h0.017
				c0.179,3.009,8.669,5.434,19.138,5.434s18.961-2.425,19.139-5.434H69.2V36C69.188,39.047,60.613,41.521,50.044,41.521z"/>
			<path fill="#32C5D2" d="M69.198,35.986v-0.089h-0.017C69.188,35.928,69.198,35.957,69.198,35.986z"/>
		</g>
		<path fill="#999999" d="M43.236,37.213V37.15h-0.012C43.225,37.173,43.236,37.192,43.236,37.213z"/>
		<path fill="#999999" d="M43.236,43.401v-0.063h-0.012C43.225,43.358,43.236,43.38,43.236,43.401z"/>
		<path fill="#999999" d="M43.236,49.588v-0.062h-0.012C43.225,49.545,43.236,49.568,43.236,49.588z"/>
		<g>
			<path fill="#999999" d="M28.814,46.22v-3.631h0.001l-0.001-0.096v-1.291c-7.353-0.091-13.214-1.84-13.214-3.984
				c0-0.022,0.011-0.045,0.011-0.067H15.6v5.156h0.011C15.735,44.418,21.542,46.131,28.814,46.22z"/>
			<path fill="#999999" d="M28.814,52.408v-1.146v-0.096v-3.777c-7.353-0.092-13.214-1.84-13.214-3.983
				c0-0.022,0.011-0.046,0.011-0.067H15.6v5.155h0.011C15.735,50.607,21.542,52.318,28.814,52.408z"/>
			<path fill="#999999" d="M28.814,53.578c-7.353-0.094-13.214-1.84-13.214-3.985c0-0.022,0.011-0.045,0.011-0.066H15.6v5.155h0.011
				c0.126,2.111,5.931,3.824,13.203,3.914V53.578L28.814,53.578z"/>
			<path fill="#999999" d="M28.814,39.896v-5.019c-7.352-0.09-13.214-1.838-13.214-3.983c0-0.024,0.011-0.044,0.011-0.068H15.6
				v5.156h0.011C15.735,38.094,21.542,39.807,28.814,39.896z"/>
			<path fill="#999999" d="M28.819,33.57c0.063-3.332,5.218-5.405,11.684-6.362c-2.52-0.976-6.547-1.607-11.086-1.607
				c-7.631,0-13.816,1.786-13.816,3.987C15.601,31.732,21.464,33.48,28.819,33.57z"/>
		</g>
		<g>
			<path fill="#999999" d="M84.391,42.307h0.01v-5.156h-0.01c0,0.022,0.01,0.044,0.01,0.067c0,2.144-5.86,3.893-13.213,3.984v1.291
				l-0.002,0.096h0.002v3.631C78.458,46.131,84.266,44.418,84.391,42.307z"/>
			<path fill="#999999" d="M84.391,48.494h0.01v-5.155h-0.01c0,0.021,0.01,0.045,0.01,0.067c0,2.143-5.86,3.891-13.213,3.983v3.777
				v0.096v1.146C78.458,52.318,84.266,50.607,84.391,48.494z"/>
			<path fill="#999999" d="M71.188,53.578v5.018c7.271-0.09,13.076-1.803,13.203-3.914h0.01v-5.155h-0.01
				c0,0.021,0.01,0.044,0.01,0.066C84.398,51.738,78.538,53.484,71.188,53.578L71.188,53.578z"/>
			<path fill="#999999" d="M84.391,35.982h0.01v-5.156h-0.01c0,0.024,0.01,0.044,0.01,0.068c0,2.145-5.86,3.893-13.213,3.983v5.019
				C78.458,39.807,84.266,38.094,84.391,35.982z"/>
			<path fill="#999999" d="M84.398,29.588c0-2.202-6.187-3.987-13.815-3.987c-4.539,0-8.565,0.631-11.086,1.607
				c6.467,0.957,11.621,3.03,11.685,6.362C78.536,33.48,84.398,31.732,84.398,29.588z"/>
		</g>
	</g>
	<g transform="translate(0,-952.36218)">
		<path fill="#E8E8E8" d="M51.697,1039.765c5.611,0,10.164-4.553,10.164-10.166c0-5.422-4.246-9.846-9.594-10.145
			c-0.643-4.236-4.292-7.477-8.706-7.477c-2.276,0-4.346,0.869-5.909,2.287c-1.948-4.15-6.148-7.033-11.035-7.033
			c-6.545,0-11.879,5.156-12.178,11.627c-3.994,1.597-6.799,5.482-6.799,10.06c0,6.011,4.836,10.847,10.844,10.847h16.266H51.697
			L51.697,1039.765z"/>
	</g>
</g>
</svg>
