<?xml version="1.0" encoding="utf-8"?>
<!-- Generator: Adobe Illustrator 15.0.0, SVG Export Plug-In . SVG Version: 6.00 Build 0)  -->
<!DOCTYPE svg PUBLIC "-//W3C//DTD SVG 1.1//EN" "http://www.w3.org/Graphics/SVG/1.1/DTD/svg11.dtd">
<svg version="1.1" id="Layer_1" xmlns="http://www.w3.org/2000/svg" xmlns:xlink="http://www.w3.org/1999/xlink" x="0px" y="0px"
	 width="200px" height="200px" viewBox="0 0 200 200" enable-background="new 0 0 200 200" xml:space="preserve">
<g>
	<g>
		<path fill="#FFFFFF" d="M49.982,114.105H61.24c0.777,0,1.407-0.631,1.407-1.408v-5.631c0-0.777-0.63-1.406-1.407-1.406H49.982
			c-0.778,0-1.408,0.629-1.408,1.406v5.631C48.575,113.475,49.204,114.105,49.982,114.105z"/>
		<path fill="#FFFFFF" d="M49.982,100.031H61.24c0.777,0,1.407-0.631,1.407-1.408v-5.629c0-0.779-0.63-1.409-1.407-1.409H49.982
			c-0.778,0-1.408,0.63-1.408,1.409v5.629C48.575,99.4,49.204,100.031,49.982,100.031z"/>
		<path fill="#FFFFFF" d="M72.499,114.105h11.26c0.776,0,1.406-0.631,1.406-1.408v-5.631c0.001-0.777-0.63-1.406-1.406-1.406h-11.26
			c-0.777,0-1.407,0.629-1.407,1.406v5.631C71.092,113.475,71.722,114.105,72.499,114.105z"/>
		<path fill="#FFFFFF" d="M95.018,114.105h11.259c0.777,0,1.406-0.631,1.406-1.408v-5.631c0-0.777-0.629-1.406-1.406-1.406H95.018
			c-0.776,0-1.407,0.629-1.407,1.406v5.631C93.61,113.475,94.241,114.105,95.018,114.105z"/>
		<path fill="#FFFFFF" d="M95.018,100.031h11.259c0.777,0,1.406-0.631,1.406-1.408v-5.629c0-0.779-0.629-1.409-1.406-1.409H95.018
			c-0.776,0-1.407,0.63-1.407,1.409v5.629C93.61,99.4,94.241,100.031,95.018,100.031z"/>
		<path fill="#FFFFFF" d="M72.499,100.031h11.26c0.776,0,1.406-0.631,1.406-1.408v-5.629c0.001-0.779-0.63-1.409-1.406-1.409h-11.26
			c-0.777,0-1.407,0.63-1.407,1.409v5.629C71.092,99.4,71.722,100.031,72.499,100.031z"/>
		<path fill="#FFFFFF" d="M49.982,85.957H61.24c0.777,0,1.407-0.629,1.407-1.407v-5.63c0-0.777-0.63-1.408-1.407-1.408H49.982
			c-0.778,0-1.408,0.631-1.408,1.408v5.629C48.575,85.327,49.204,85.957,49.982,85.957z"/>
		<path fill="#FFFFFF" d="M95.018,85.957h11.259c0.777,0,1.406-0.629,1.406-1.407v-5.63c0-0.777-0.629-1.408-1.406-1.408H95.018
			c-0.776,0-1.407,0.631-1.407,1.408v5.629C93.61,85.327,94.241,85.957,95.018,85.957z"/>
		<path fill="#FFFFFF" d="M72.499,85.957h11.26c0.776,0,1.406-0.629,1.406-1.407v-5.63c0.001-0.777-0.63-1.408-1.406-1.408h-11.26
			c-0.777,0-1.407,0.631-1.407,1.408v5.629C71.092,85.327,71.722,85.957,72.499,85.957z"/>
		<path fill="#FFFFFF" d="M120.352,57.808h-12.84v1.408c0,3.104-2.525,5.63-5.63,5.63c-3.106,0-5.631-2.526-5.631-5.63v-1.408
			H83.759v1.408c0,3.104-2.524,5.63-5.63,5.63s-5.63-2.526-5.63-5.63v-1.408H60.007v1.408c0,3.104-2.525,5.63-5.629,5.63
			s-5.629-2.526-5.629-5.63v-1.408H35.907c-0.778,0-1.407,0.63-1.407,1.408v67.556c0,0.777,0.629,1.406,1.407,1.406h84.444
			c0.776,0,1.404-0.629,1.404-1.406V59.216C121.758,58.438,121.13,57.808,120.352,57.808z M116.129,119.734H40.13V71.883h75.999
			V119.734z"/>
		<path fill="#FFFFFF" d="M54.378,63.438c2.331,0,4.221-1.89,4.221-4.222v-5.63c0-2.332-1.89-4.222-4.221-4.222
			c-2.332,0-4.223,1.891-4.223,4.222v5.63C50.154,61.548,52.046,63.438,54.378,63.438z"/>
		<path fill="#FFFFFF" d="M101.882,63.438c2.329,0,4.222-1.89,4.222-4.222v-5.63c0-2.332-1.891-4.222-4.222-4.222
			c-2.332,0-4.223,1.891-4.223,4.222v5.63C97.661,61.548,99.55,63.438,101.882,63.438z"/>
		<path fill="#FFFFFF" d="M78.129,63.438c2.331,0,4.222-1.89,4.222-4.222v-5.63c0-2.332-1.891-4.222-4.222-4.222
			s-4.221,1.891-4.221,4.222v5.63C73.908,61.548,75.798,63.438,78.129,63.438z"/>
	</g>
</g>
<g>
	<g>
		<path fill="#FFFFFF" d="M68.051,127.938h11.26c0.777,0,1.406-0.629,1.406-1.405v-5.63c0-0.778-0.629-1.406-1.406-1.406h-11.26
			c-0.777,0-1.406,0.628-1.406,1.406v5.63C66.645,127.309,67.273,127.938,68.051,127.938z"/>
		<path fill="#FFFFFF" d="M68.051,113.865h11.26c0.777,0,1.406-0.631,1.406-1.407v-5.63c0-0.778-0.629-1.41-1.406-1.41h-11.26
			c-0.777,0-1.406,0.632-1.406,1.41v5.63C66.645,113.234,67.273,113.865,68.051,113.865z"/>
		<path fill="#FFFFFF" d="M90.568,127.938h11.261c0.774,0,1.405-0.629,1.405-1.405v-5.63c0-0.778-0.631-1.406-1.405-1.406H90.568
			c-0.776,0-1.407,0.628-1.407,1.406v5.63C89.161,127.309,89.792,127.938,90.568,127.938z"/>
		<path fill="#FFFFFF" d="M113.088,127.938h11.26c0.776,0,1.404-0.629,1.404-1.405v-5.63c0-0.778-0.628-1.406-1.404-1.406h-11.26
			c-0.777,0-1.406,0.628-1.406,1.406v5.63C111.682,127.309,112.311,127.938,113.088,127.938z"/>
		<path fill="#FFFFFF" d="M113.088,113.865h11.26c0.776,0,1.404-0.631,1.404-1.407v-5.63c0-0.778-0.628-1.41-1.404-1.41h-11.26
			c-0.777,0-1.406,0.632-1.406,1.41v5.63C111.682,113.234,112.311,113.865,113.088,113.865z"/>
		<path fill="#FFFFFF" d="M90.568,113.865h11.261c0.774,0,1.405-0.631,1.405-1.407v-5.63c0-0.778-0.631-1.41-1.405-1.41H90.568
			c-0.776,0-1.407,0.632-1.407,1.41v5.63C89.161,113.234,89.792,113.865,90.568,113.865z"/>
		<path fill="#FFFFFF" d="M68.051,99.791h11.26c0.777,0,1.406-0.63,1.406-1.407v-5.63c0-0.777-0.629-1.408-1.406-1.408h-11.26
			c-0.777,0-1.406,0.631-1.406,1.408v5.63C66.645,99.161,67.273,99.791,68.051,99.791z"/>
		<path fill="#FFFFFF" d="M113.088,99.791h11.26c0.776,0,1.404-0.63,1.404-1.407v-5.63c0-0.777-0.628-1.408-1.404-1.408h-11.26
			c-0.777,0-1.406,0.631-1.406,1.408v5.63C111.682,99.161,112.311,99.791,113.088,99.791z"/>
		<path fill="#FFFFFF" d="M90.568,99.791h11.261c0.774,0,1.405-0.63,1.405-1.407v-5.63c0-0.777-0.631-1.408-1.405-1.408H90.568
			c-0.776,0-1.407,0.631-1.407,1.408v5.63C89.161,99.161,89.792,99.791,90.568,99.791z"/>
	</g>
	<path fill="#FFFFFF" d="M66.817,80.368h-12.84c-0.777,0-1.407,0.63-1.407,1.408v58.83c0,0.776,0.63,1.406,1.407,1.406h84.444
		c0.778,0,1.407-0.63,1.407-1.406v-58.83c0-0.778-0.629-1.408-1.407-1.408h-12.84H66.817z M134.198,133.568H58.199V85.717h75.999
		V133.568z"/>
</g>
<g>
	<g>
		<path fill="#808080" d="M138.323,150.588c13.849,0,25.131-11.281,25.131-25.13s-11.282-25.13-25.131-25.13
			c-13.851,0-25.13,11.281-25.13,25.13S124.475,150.588,138.323,150.588z"/>
	</g>
	<g>
		<path fill="none" d="M138.49,133.7c-5.848,0-11.195,3.063-14.871,7.967c-0.445,0.556-0.779,1.226-1.002,1.835
			c4.232,3.68,9.691,5.905,15.706,5.907c6.126,0,11.753-2.341,15.93-6.185c-0.224-0.556-0.502-1.058-0.892-1.558
			C149.686,136.764,144.338,133.7,138.49,133.7z"/>
		<path fill="none" d="M138.268,130.748c5.459,0,9.857-4.4,9.857-9.857c0-5.459-4.398-9.857-9.857-9.857
			c-5.404,0-9.858,4.455-9.856,9.857C128.411,126.348,132.811,130.748,138.268,130.748z"/>
		<path fill="#FFFFFF" d="M138.323,99.281c-14.425,0-26.179,11.752-26.179,26.177s11.754,26.178,26.179,26.178
			s26.177-11.753,26.177-26.178S152.748,99.281,138.323,99.281z M138.268,111.033c5.459,0,9.857,4.398,9.857,9.857
			c0,5.457-4.398,9.857-9.857,9.857c-5.457,0-9.856-4.4-9.856-9.857C128.409,115.488,132.863,111.033,138.268,111.033z
			 M138.323,149.409c-6.015-0.002-11.474-2.228-15.706-5.907c0.223-0.609,0.557-1.279,1.002-1.835
			c3.676-4.903,9.023-7.967,14.871-7.967s11.195,3.063,14.871,7.967c0.39,0.5,0.668,1.002,0.892,1.558
			C150.076,147.068,144.449,149.409,138.323,149.409z"/>
	</g>
</g>
</svg>
