<?xml version="1.0" encoding="utf-8"?>
<!-- Generator: Adobe Illustrator 15.0.0, SVG Export Plug-In . SVG Version: 6.00 Build 0)  -->
<!DOCTYPE svg PUBLIC "-//W3C//DTD SVG 1.1//EN" "http://www.w3.org/Graphics/SVG/1.1/DTD/svg11.dtd">
<svg version="1.1" id="Layer_1" xmlns="http://www.w3.org/2000/svg" xmlns:xlink="http://www.w3.org/1999/xlink" x="0px" y="0px"
	 width="200px" height="200px" viewBox="0 0 200 200" enable-background="new 0 0 200 200" xml:space="preserve">
<g>
	<path fill="#999999" d="M150.245,86.971c-5.346,0-9.755,4.409-9.755,9.755c0,2.139,0.668,4.009,1.871,5.612l-20.445,22.049
		c-1.47-0.935-3.207-1.336-5.078-1.336c-2.806,0-5.346,1.203-7.217,3.073l-17.104-10.289c0.4-0.936,0.534-2.138,0.534-3.207
		c0-5.346-4.409-9.755-9.754-9.755c-5.346,0-9.755,4.409-9.755,9.755c0,1.069,0.134,2.138,0.534,3.207l-17.104,10.289
		c-1.737-1.87-4.276-3.073-7.216-3.073c-5.346,0-9.755,4.41-9.755,9.755c0,5.346,4.409,9.756,9.755,9.756
		c5.345,0,9.755-4.41,9.755-9.756c0-1.068-0.133-2.138-0.534-3.207l17.104-10.289c1.736,1.87,4.276,3.073,7.216,3.073
		s5.345-1.203,7.216-3.073l17.104,10.289c-0.4,0.937-0.534,2.139-0.534,3.207c0,5.346,4.409,9.756,9.755,9.756
		s9.755-4.41,9.755-9.756c0-2.138-0.668-4.008-1.871-5.611l20.445-22.05c1.47,0.936,3.207,1.336,5.078,1.336
		c5.346,0,9.755-4.409,9.755-9.754C160,91.38,155.591,86.971,150.245,86.971z"/>
	<path fill="#32C5D2" d="M112.295,82.962V59.978C99.866,60.111,89.71,70.133,89.71,82.694c0,12.562,10.156,22.718,22.719,22.718
		c12.427,0,22.582-10.022,22.716-22.584h-22.85V82.962z"/>
	<polygon fill="#32C5D2" points="115.368,77.884 115.368,79.889 117.373,79.889 	"/>
	<polygon fill="#32C5D2" points="115.368,75.211 115.368,76.949 118.308,79.889 120.045,79.889 	"/>
	<polygon fill="#32C5D2" points="115.368,72.539 115.368,74.276 120.98,79.889 122.718,79.889 	"/>
	<polygon fill="#32C5D2" points="115.368,69.866 115.368,71.604 123.653,79.889 125.391,79.889 	"/>
	<polygon fill="#32C5D2" points="115.368,67.193 115.368,68.931 126.325,79.889 128.063,79.889 	"/>
	<polygon fill="#32C5D2" points="115.368,64.521 115.368,66.258 128.998,79.889 130.735,79.889 	"/>
	<polygon fill="#32C5D2" points="115.368,61.848 115.368,63.585 131.67,79.889 133.407,79.889 	"/>
	<polygon fill="#32C5D2" points="115.368,59.176 115.368,60.913 134.343,79.889 136.08,79.889 	"/>
	<path fill="#32C5D2" d="M116.303,57.438c-0.267,0-0.667,0-0.935,0v0.802l21.647,21.648h0.802c0-0.268,0-0.668,0-0.936
		L116.303,57.438z"/>
	<path fill="#32C5D2" d="M119.243,57.706c-0.668-0.133-1.337-0.267-2.004-0.267l20.444,20.445c0-0.668-0.134-1.336-0.267-2.004
		L119.243,57.706z"/>
	<g>
		<path fill="#32C5D2" d="M135.813,70.668c-2.272-4.944-6.281-8.953-11.226-11.225L135.813,70.668z"/>
		<path fill="#32C5D2" d="M122.984,58.775c-0.801-0.268-1.604-0.535-2.538-0.802l16.703,16.704
			c-0.268-0.802-0.535-1.737-0.803-2.539L122.984,58.775z"/>
	</g>
</g>
</svg>
