<?xml version="1.0" encoding="utf-8"?>
<!-- Generator: Adobe Illustrator 15.0.0, SVG Export Plug-In . SVG Version: 6.00 Build 0)  -->
<!DOCTYPE svg PUBLIC "-//W3C//DTD SVG 1.1//EN" "http://www.w3.org/Graphics/SVG/1.1/DTD/svg11.dtd">
<svg version="1.1" id="Layer_1" xmlns="http://www.w3.org/2000/svg" xmlns:xlink="http://www.w3.org/1999/xlink" x="0px" y="0px"
	 width="200px" height="200px" viewBox="0 0 200 200" enable-background="new 0 0 200 200" xml:space="preserve">
<g>
	<rect x="100" y="93.909" fill="#999999" width="9.854" height="4.299"/>
	<rect x="113.795" y="93.909" fill="#999999" width="18.453" height="4.299"/>
	<rect x="100" y="80.472" fill="#999999" width="32.248" height="4.299"/>
	<rect x="100" y="66.857" fill="#999999" width="22.394" height="4.299"/>
	<rect x="126.334" y="66.857" fill="#999999" width="6.093" height="4.299"/>
	<rect x="100" y="132.248" fill="#999999" width="9.854" height="4.3"/>
	<rect x="113.795" y="132.248" fill="#999999" width="18.453" height="4.3"/>
	<rect x="100" y="120.423" fill="#999999" width="32.248" height="4.3"/>
	<rect x="100" y="108.6" fill="#999999" width="22.394" height="4.298"/>
	<rect x="126.334" y="108.6" fill="#999999" width="6.093" height="4.298"/>
	<path fill="#999999" d="M147.117,155H52.883V45h94.055v110H147.117z M59.332,148.55h81.336v-97.1H59.332V148.55L59.332,148.55z"/>
	<path fill="#32C5D2" d="M94.088,91.401c-0.358-0.537-0.896-0.717-1.433-0.717s-0.896,0.18-1.254,0.537
		c-1.434,1.433-3.403,3.225-5.018,4.838l-0.179,0.179c-1.612,1.612-3.403,3.225-5.016,4.837l-0.717,0.716l-4.12-4.299
		c-0.358-0.358-0.896-0.537-1.433-0.537c-0.718,0-1.255,0.358-1.435,1.074c-0.179,0.717-0.179,1.254,0.358,1.792
		c1.972,2.149,3.404,3.403,5.375,5.374c0.179,0.18,0.358,0.358,0.717,0.358c0.179,0,0.358,0.179,0.537,0.179
		c0.537,0,0.896-0.179,1.254-0.537c1.612-1.612,3.762-3.583,5.912-5.732c1.971-1.791,4.12-3.941,5.913-5.733l0.179-0.179
		C94.446,93.013,94.626,92.118,94.088,91.401z"/>
	<g>
		<path fill="#32C5D2" d="M78.682,58.437c-6.45,0-11.646,5.195-11.646,11.644c0,6.45,5.195,11.646,11.646,11.646
			c6.449,0,11.645-5.195,11.645-11.646C90.325,63.811,85.13,58.437,78.682,58.437z M78.682,79.218c-5.017,0-8.958-4.121-8.958-8.958
			c0-5.017,3.941-8.958,8.958-8.958c5.016,0,8.957,3.94,8.957,8.958C87.639,75.098,83.697,79.218,78.682,79.218z"/>
		<path fill="#32C5D2" d="M90.325,99.463c-0.357,0.358-0.716,0.717-1.075,1.074c-0.537,0.538-1.254,1.254-1.791,1.792
			c-0.896,3.941-4.479,6.808-8.778,6.808c-5.017,0-8.958-3.941-8.958-8.957c0-5.016,3.941-8.958,8.958-8.958
			c2.688,0,5.195,1.254,6.808,3.225c0.717-0.537,1.254-1.254,1.971-1.792c-2.149-2.508-5.374-3.941-8.778-3.941
			c-6.45,0-11.646,5.195-11.646,11.646c0,6.449,5.195,11.645,11.646,11.645c6.449,0,11.645-5.195,11.645-11.645
			C90.325,100,90.325,99.821,90.325,99.463z"/>
		<path fill="#32C5D2" d="M78.682,118.633c-6.45,0-11.646,5.194-11.646,11.645c0,6.448,5.195,11.645,11.646,11.645
			c6.449,0,11.645-5.196,11.645-11.645C90.326,123.827,85.13,118.633,78.682,118.633z M78.682,139.414
			c-5.017,0-8.958-4.121-8.958-8.958c0-5.017,3.941-8.956,8.958-8.956c5.016,0,8.957,3.94,8.957,8.956
			C87.639,135.293,83.697,139.414,78.682,139.414z"/>
	</g>
</g>
</svg>
