<?xml version="1.0" encoding="utf-8"?>
<!-- Generator: Adobe Illustrator 23.0.0, SVG Export Plug-In . SVG Version: 6.00 Build 0)  -->
<svg version="1.1" id="Layer_1" xmlns="http://www.w3.org/2000/svg" xmlns:xlink="http://www.w3.org/1999/xlink" x="0px" y="0px"
	 viewBox="0 0 200 200" style="enable-background:new 0 0 200 200;" xml:space="preserve">
<style type="text/css">
	.st0{fill:#999999;}
	.st1{fill:#3DCFCF;}
</style>
<g>
	<g>
		<path class="st0" d="M116.2,110.4v41.8c0,5.7,12.3,8.7,24.4,8.7s24.4-3,24.4-8.7v-41.8c0-5.7-12.3-8.7-24.4-8.7
			C128.5,101.7,116.2,104.7,116.2,110.4z M161.5,138.3c0,1.8-7.9,5.2-20.9,5.2c-13,0-20.9-3.4-20.9-5.2v-9.2c4.5,2.6,12.7,4,20.9,4
			c8.2,0,16.4-1.4,20.9-4V138.3z M161.5,124.4c0,1.8-7.9,5.2-20.9,5.2c-13,0-20.9-3.4-20.9-5.2v-9.2c4.5,2.6,12.7,4,20.9,4
			c8.2,0,16.4-1.4,20.9-4V124.4z M140.6,105.2c13,0,20.9,3.4,20.9,5.2c0,1.8-7.9,5.2-20.9,5.2c-13,0-20.9-3.4-20.9-5.2
			C119.7,108.6,127.7,105.2,140.6,105.2z M140.6,157.9c-13,0-20.9-3.4-20.9-5.2v-9.2c4.5,2.6,12.7,4,20.9,4c8.2,0,16.4-1.4,20.9-4
			v9.2C161.5,154.5,153.6,157.9,140.6,157.9z"/>
	</g>
	<path class="st0" d="M35,47.8v41.8c0,5.7,12.3,8.7,24.4,8.7s24.4-3,24.4-8.7V47.8c0-5.7-12.3-8.7-24.4-8.7
		C47.3,39.1,35,42.1,35,47.8z M80.3,75.6c0,1.8-7.9,5.2-20.9,5.2c-13,0-20.9-3.4-20.9-5.2v-9.2c4.5,2.6,12.7,4,20.9,4
		c8.2,0,16.4-1.4,20.9-4V75.6z M80.3,61.7c0,1.8-7.9,5.2-20.9,5.2c-13,0-20.9-3.4-20.9-5.2v-9.2c4.5,2.6,12.7,4,20.9,4
		c8.2,0,16.4-1.4,20.9-4V61.7z M59.4,42.5c13,0,20.9,3.4,20.9,5.2c0,1.8-7.9,5.2-20.9,5.2c-13,0-20.9-3.4-20.9-5.2
		C38.5,45.9,46.4,42.5,59.4,42.5z M59.4,95.2c-13,0-20.9-3.4-20.9-5.2v-9.2c4.5,2.6,12.7,4,20.9,4c8.2,0,16.4-1.4,20.9-4V90
		C80.3,91.8,72.3,95.2,59.4,95.2z"/>
	<path class="st1" d="M99.8,148.8c-0.1-0.3-0.3-0.5-0.5-0.7l-9-9c-0.9-0.9-2.3-0.9-3.2,0c-0.9,0.9-0.9,2.3,0,3.2l5.2,5.2H63.9v-33.9
		c0-1.2-1-2.3-2.3-2.3c-1.2,0-2.3,1-2.3,2.3v36.1c0,1.2,1,2.3,2.3,2.3h30.7l-5.2,5.2c-0.9,0.9-0.9,2.3,0,3.2c0.4,0.4,1,0.7,1.6,0.7
		s1.2-0.2,1.6-0.7l9-9c0.2-0.2,0.4-0.5,0.5-0.7C100.1,150,100.1,149.3,99.8,148.8z"/>
	<path class="st1" d="M107.7,52.6h28.4v33.9c0,1.2,1,2.3,2.3,2.3c1.2,0,2.3-1,2.3-2.3V50.3c0-1.2-1-2.3-2.3-2.3h-30.7l5.2-5.2
		c0.9-0.9,0.9-2.3,0-3.2c-0.9-0.9-2.3-0.9-3.2,0l-9,9c-0.2,0.2-0.4,0.5-0.5,0.7c-0.2,0.6-0.2,1.2,0,1.7c0.1,0.3,0.3,0.5,0.5,0.7l9,9
		c0.4,0.4,1,0.7,1.6,0.7s1.2-0.2,1.6-0.7c0.9-0.9,0.9-2.3,0-3.2L107.7,52.6z"/>
</g>
</svg>
