<?xml version="1.0" encoding="utf-8"?>
<!-- Generator: Adobe Illustrator 21.0.0, SVG Export Plug-In . SVG Version: 6.00 Build 0)  -->
<svg version="1.1" id="Layer_1" xmlns="http://www.w3.org/2000/svg" xmlns:xlink="http://www.w3.org/1999/xlink" x="0px" y="0px"
	 viewBox="0 0 200 200" style="enable-background:new 0 0 200 200;" xml:space="preserve">
<style type="text/css">
	.st0{fill:#999999;}
	.st1{fill:#32C5D2;}
</style>
<path class="st0" d="M166.3,105.5h-60.4c-0.9,0-1.7,0.6-1.7,1.7v15.1c0,0.9,0.6,1.7,1.7,1.7h60.4c0.9,0,1.7-0.6,1.7-1.7v-15.1
	C167.8,106.1,167.2,105.5,166.3,105.5z M164.6,120.6h-57.2v-11.9h57.2V120.6z"/>
<rect x="141.3" y="113" class="st1" width="3.1" height="3.1"/>
<rect x="148.1" y="113" class="st1" width="3.1" height="3.1"/>
<rect x="154.9" y="113" class="st1" width="3.1" height="3.1"/>
<rect x="113.5" y="113" class="st1" width="15.2" height="3.1"/>
<path class="st0" d="M166.3,128.1h-60.4c-0.9,0-1.7,0.6-1.7,1.7V145c0,0.9,0.6,1.7,1.7,1.7h60.4c0.9,0,1.7-0.6,1.7-1.7v-15.1
	C167.8,129,167.2,128.1,166.3,128.1z M164.6,143.2h-57.2v-11.9h57.2V143.2z"/>
<rect x="148.1" y="134.7" class="st1" width="3.1" height="3.1"/>
<rect x="141.3" y="134.7" class="st1" width="3.1" height="3.1"/>
<rect x="156.8" y="135.7" class="st1" width="3.2" height="3.2"/>
<rect x="113.5" y="134.7" class="st1" width="15.2" height="3.1"/>
<path class="st0" d="M166.3,151h-60.4c-0.9,0-1.7,0.6-1.7,1.7v15.1c0,0.9,0.6,1.7,1.7,1.7h60.4c0.9,0,1.7-0.6,1.7-1.7v-15.1
	C167.8,151.6,167.2,151,166.3,151z M164.6,166.1h-57.2v-11.9h57.2V166.1z"/>
<rect x="142.6" y="158.5" class="st1" width="3.2" height="3.2"/>
<rect x="156.8" y="158.5" class="st1" width="3.2" height="3.2"/>
<rect x="149.7" y="158.5" class="st1" width="3.2" height="3.2"/>
<rect x="113.5" y="158.5" class="st1" width="16" height="3.2"/>
<path class="st0" d="M126.6,68.6c0.6-0.9,1.1-1.7,1.1-2.8c0-6-12.1-9.1-22.2-10.6l-0.6,3.2c14.5,2.2,19.6,5.6,19.6,7.6
	c0,0.2-0.2,0.6-0.4,0.9l0,0l-0.4,0.6c-3.9,3.7-20.3,7.8-44.2,7.8s-40.6-4.1-44.2-7.8l-0.4-0.4l0,0c-0.2-0.4-0.4-0.6-0.4-0.9
	c0-1.7,5.2-5.2,19.2-7.3l-0.4-3.7c-9.9,1.5-22,4.7-22,10.6c0,0.9,0.4,1.9,0.9,2.8c0,0,0,0.2,0.2,0.2l34.3,42.7v35.6
	c0,0.4,0.2,1.1,0.6,1.3c0.2,0.2,0.6,0.2,0.9,0.2c0.2,0,0.4,0,0.6,0l22.7-8.6c0.6-0.2,1.1-0.9,1.1-1.5v-27L126.6,68.6
	C126.4,68.8,126.4,68.8,126.6,68.6z M89.3,110c-0.2,0.4-0.4,0.9-0.4,1.3v26.1l-19.4,7.3v-33.9c0-0.4-0.2-0.6-0.4-1.1L39.9,73.3
	c9.3,3.2,24.4,5,39.3,5c15.1,0,30.2-1.7,39.3-5L89.3,110z"/>
<rect x="57.2" y="33.9" class="st1" width="5.2" height="5.2"/>
<rect x="57.2" y="41.5" class="st1" width="5.2" height="5.2"/>
<rect x="57.2" y="56.6" class="st1" width="5.2" height="5.2"/>
<rect x="57.2" y="49" class="st1" width="5.2" height="5.2"/>
<rect x="66.9" y="59.2" class="st1" width="5.2" height="5.2"/>
<rect x="66.9" y="44.1" class="st1" width="5.2" height="5.2"/>
<rect x="66.9" y="51.6" class="st1" width="5.2" height="5.2"/>
<rect x="66.9" y="36.5" class="st1" width="5.2" height="5.2"/>
<rect x="76.7" y="33.9" class="st1" width="5.2" height="5.2"/>
<rect x="76.7" y="56.6" class="st1" width="5.2" height="5.2"/>
<rect x="76.7" y="49" class="st1" width="5.2" height="5.2"/>
<rect x="76.7" y="41.5" class="st1" width="5.2" height="5.2"/>
<rect x="86.4" y="54.2" class="st1" width="5.2" height="5.2"/>
<rect x="86.4" y="46.7" class="st1" width="5.2" height="5.2"/>
<rect x="86.4" y="61.8" class="st1" width="5.2" height="5.2"/>
<rect x="86.4" y="39.1" class="st1" width="5.2" height="5.2"/>
<rect x="96.3" y="51.2" class="st1" width="5.2" height="5.2"/>
<rect x="96.3" y="36.1" class="st1" width="5.2" height="5.2"/>
<rect x="96.3" y="43.7" class="st1" width="5.2" height="5.2"/>
<rect x="96.3" y="28.5" class="st1" width="5.2" height="5.2"/>
</svg>
