<?xml version="1.0" encoding="utf-8"?>
<!-- Generator: Adobe Illustrator 15.0.0, SVG Export Plug-In . SVG Version: 6.00 Build 0)  -->
<!DOCTYPE svg PUBLIC "-//W3C//DTD SVG 1.1//EN" "http://www.w3.org/Graphics/SVG/1.1/DTD/svg11.dtd">
<svg version="1.1" id="Layer_1" xmlns="http://www.w3.org/2000/svg" xmlns:xlink="http://www.w3.org/1999/xlink" x="0px" y="0px"
	 width="200px" height="200px" viewBox="0 0 200 200" enable-background="new 0 0 200 200" xml:space="preserve">
<path display="none" fill="#020202" d="M77.343,139.023c0,0,29.569,0.999,46.352-10.989c8.191,3.396,16.182,10.189,16.182,10.189
	l-1.473,9.058l-5.12,10.508c0,0-12.386,6.354-12.985,6.78c-0.599,0.427-10.389,1.025-10.389,1.025l-16.383-7.806
	C93.526,157.789,74.745,146.215,77.343,139.023z"/>
<g>
	<path fill="#FFFFFF" d="M50.704,46.385v82.364c0,3.628,8.444,6.104,13.212,7.163c14.864,3.303,35.962,1.203,50.597-5.705
		c32.131-15.165,31.98-13.856,32.581-18.468l-0.15-2.402l-0.149-62.952c0-11.265-24.171-17.159-48.046-17.159
		C74.874,29.227,50.704,35.121,50.704,46.385z M139.931,101.295c0,3.631-15.636,10.294-41.182,10.294s-41.181-6.663-41.181-10.294
		V83.118c8.868,5.198,25.086,7.881,41.181,7.881s32.315-2.683,41.182-7.881V101.295z M139.931,73.839
		c0,3.631-15.636,10.296-41.182,10.296S57.568,77.47,57.568,73.839V55.664c8.868,5.197,25.086,7.881,41.181,7.881
		s32.315-2.683,41.182-7.881V73.839z M132.581,118.295l-6.005,5.306l-15.015,6.105c0,0-12.612,3.053-13.513,3.203
		s-11.511,1.101-11.511,1.101l-8.909-0.1c-11.595-2.262-20.062-2.806-20.062-5.161v-18.176c8.868,5.197,25.086,7.879,41.181,7.879
		s32.315-2.682,41.182-7.879v2.818L132.581,118.295z M98.749,36.09c25.546,0,41.182,6.665,41.182,10.295
		s-15.636,10.295-41.182,10.295s-41.181-6.665-41.181-10.295S73.203,36.09,98.749,36.09z"/>
	<path fill="#FFFFFF" d="M18.232,87.396v61.772c0,8.447,18.127,12.869,36.034,12.869c17.905,0,36.034-4.422,36.034-12.869V87.396
		c0-8.449-18.128-12.87-36.034-12.87C36.36,74.526,18.232,78.946,18.232,87.396z M85.153,128.576c0,2.724-11.728,7.722-30.887,7.722
		c-19.16,0-30.887-4.998-30.887-7.722v-13.632c6.652,3.898,18.816,5.911,30.887,5.911s24.236-2.013,30.887-5.911V128.576z
		 M85.153,107.985c0,2.724-11.728,7.722-30.887,7.722c-19.16,0-30.887-4.998-30.887-7.722V94.354
		c6.652,3.898,18.816,5.91,30.887,5.91s24.236-2.012,30.887-5.91V107.985z M54.267,79.674c19.159,0,30.887,4.998,30.887,7.722
		c0,2.722-11.728,7.72-30.887,7.72c-19.16,0-30.887-4.998-30.887-7.72C23.379,84.672,35.107,79.674,54.267,79.674z M54.267,157.479
		c-19.16,0-30.887-4.999-30.887-7.722v-13.632c6.652,3.897,18.816,5.909,30.887,5.909c12.072,0,24.236-2.012,30.887-5.909v13.632
		C85.153,152.479,73.426,157.479,54.267,157.479z"/>
	<g>
		<g>
			<path fill="#FFFFFF" d="M180.806,55.938l-26.946,52.245c0.156,0.043,0.309,0.09,0.463,0.138c1.138,0.367,2.206,0.813,3.2,1.338
				c1.202,0.632,2.297,1.381,3.271,2.231l27-52.349c0.995-1.928,0.237-4.3-1.692-5.294
				C184.172,53.251,181.801,54.009,180.806,55.938z"/>
			<path fill="#FFFFFF" d="M91.78,152.83c4.284,3.864,9.543,7.23,15.633,10.008c10.286,4.687,19.336,6.07,19.717,6.128
				c0.011,0.002,0.021,0.003,0.031,0.005c0.119,0.016,0.24,0.025,0.361,0.025c0.029,0,0.059-0.001,0.087-0.003
				c10.819-0.353,19.252-3.956,25.064-10.71c7.642-8.88,10.403-22.235,9.867-33.717c-0.154-3.287-1.325-6.643-3.622-9.036
				c-0.172-0.179-0.349-0.353-0.531-0.521c-0.807-0.733-1.708-1.347-2.668-1.855c-0.832-0.44-1.707-0.803-2.604-1.09
				c-0.372-0.121-0.744-0.211-1.115-0.277c-0.516-0.092-1.031-0.139-1.544-0.139c-3.791,0-7.43,2.384-10.208,4.82
				c-2.868,2.516-5.78,5.257-9.021,7.403c-3.552,2.353-7.451,3.537-11.513,4.694c-5.244,1.494-10.637,2.447-16.052,3.056
				c-4.816,0.541-9.696,0.854-14.562,0.854c-1.931,0-3.86-0.049-5.781-0.152c-0.11-0.007-0.223-0.012-0.336-0.02
				c-0.061-0.005-0.124-0.008-0.184-0.008c-0.827,0-1.612,0.385-2.119,1.045c-0.544,0.712-0.697,1.647-0.406,2.497
				C82.469,142.206,86.338,147.927,91.78,152.83z M88.038,137.8c0,0,0.002,0,0.003,0c0.271,0.002,0.55,0.002,0.837,0.002
				c3.933,0,9.413-0.175,15.562-0.874c13.009-1.48,23.614-4.646,31.643-9.431c0.229-0.136,0.483-0.204,0.74-0.204
				c0.242,0,0.485,0.061,0.704,0.18c4.667,2.564,11.918,6.365,17.09,8.211c0.638,0.229,1.035,0.871,0.958,1.544
				c-0.619,5.396-2.369,12.263-6.972,17.597c-4.713,5.464-11.675,8.428-20.696,8.813c-0.028,0.001-0.058,0.001-0.084,0.001
				c-0.119,0-0.235-0.01-0.349-0.031c-0.91-0.159-3.153-0.591-6.162-1.42c0.856-0.379,1.744-0.833,2.642-1.34
				c0.803-0.454,1.613-0.948,2.414-1.465c2.48-1.599,4.882-3.418,6.751-4.912c0.432-0.345,0.026-1.02-0.482-0.807
				c-4.086,1.716-9.306,2.86-13.975,3.615c-1.468,0.235-2.88,0.433-4.188,0.597c-1.528,0.195-2.912,0.342-4.064,0.451
				c-0.299-0.132-0.602-0.267-0.902-0.404c-2.601-1.191-5.024-2.495-7.267-3.901c0.979-0.09,2.006-0.253,3.049-0.465
				c0.947-0.192,1.905-0.426,2.849-0.682c2.777-0.755,5.418-1.708,7.225-2.409c0.344-0.133,0.222-0.645-0.146-0.61
				c-3.288,0.316-7.848,0.346-11.744,0.287c-1.274-0.018-2.479-0.047-3.544-0.075c-1.398-0.041-2.557-0.082-3.317-0.114
				c-0.448-0.376-0.887-0.752-1.311-1.138c-0.55-0.498-1.078-1.004-1.592-1.521c0.791-0.08,1.612-0.204,2.446-0.365
				c0.779-0.149,1.567-0.329,2.354-0.525c3.101-0.782,6.125-1.867,8.128-2.646c0.343-0.134,0.221-0.646-0.146-0.61
				c-3.086,0.296-7.295,0.339-11.021,0.297c-0.918-0.011-1.807-0.026-2.644-0.045c-0.932-0.021-1.795-0.046-2.56-0.069
				c-1.083-1.438-2.04-2.932-2.867-4.479C87.145,138.377,87.497,137.8,88.038,137.8z"/>
			<circle fill="#FFFFFF" cx="174.289" cy="151.269" r="6.311"/>
			<circle fill="#FFFFFF" cx="160.677" cy="165.723" r="3.189"/>
			<circle fill="#FFFFFF" cx="177.967" cy="164.988" r="3.189"/>
		</g>
	</g>
</g>
</svg>
