<?xml version="1.0" encoding="utf-8"?>
<!-- Generator: Adobe Illustrator 15.0.0, SVG Export Plug-In . SVG Version: 6.00 Build 0)  -->
<!DOCTYPE svg PUBLIC "-//W3C//DTD SVG 1.1//EN" "http://www.w3.org/Graphics/SVG/1.1/DTD/svg11.dtd">
<svg version="1.1" id="Layer_1" xmlns="http://www.w3.org/2000/svg" xmlns:xlink="http://www.w3.org/1999/xlink" x="0px" y="0px"
	 width="200px" height="200px" viewBox="0 0 200 200" enable-background="new 0 0 200 200" xml:space="preserve">
<path d="M150.498,76c4.137,0,7.502,3.366,7.502,7.501c0,4.134-3.365,7.499-7.502,7.499c-4.135,0-7.498-3.365-7.498-7.499
	C143,79.365,146.363,76,150.498,76 M150.498,74.5c-4.962,0-8.998,4.037-8.998,9.001c0,4.962,4.036,8.999,8.998,8.999
	c4.965,0,9.002-4.037,9.002-8.999C159.5,78.537,155.463,74.5,150.498,74.5L150.498,74.5z"/>
<g>
	<path fill="#32C5D2" d="M48.499,110.938c3.619,0,6.564,2.943,6.564,6.563c0,3.617-2.945,6.562-6.564,6.562
		c-3.617,0-6.561-2.943-6.561-6.562C41.938,113.881,44.881,110.938,48.499,110.938 M48.499,108.5c-4.962,0-8.999,4.037-8.999,9.001
		c0,4.963,4.037,8.998,8.999,8.998c4.963,0,9.001-4.035,9.001-8.998C57.5,112.537,53.462,108.5,48.499,108.5L48.499,108.5z"/>
	<path fill="#32C5D2" d="M48.499,144.938c3.619,0,6.564,2.944,6.564,6.564c0,3.617-2.945,6.561-6.564,6.561
		c-3.617,0-6.561-2.942-6.561-6.561C41.938,147.882,44.881,144.938,48.499,144.938 M48.499,142.501
		c-4.962,0-8.999,4.037-8.999,9.001c0,4.963,4.037,8.998,8.999,8.998c4.963,0,9.001-4.035,9.001-8.998
		C57.5,146.538,53.462,142.501,48.499,142.501L48.499,142.501z"/>
	<path fill="#32C5D2" d="M82.5,73.656c3.619,0,6.564,2.944,6.564,6.564c0,3.617-2.945,6.561-6.564,6.561
		c-3.617,0-6.561-2.943-6.561-6.561C75.938,76.6,78.882,73.656,82.5,73.656 M82.5,71.219c-4.962,0-8.999,4.038-8.999,9.001
		c0,4.962,4.037,8.998,8.999,8.998c4.963,0,9.001-4.036,9.001-8.998C91.501,75.256,87.463,71.219,82.5,71.219L82.5,71.219z"/>
	<path fill="#32C5D2" d="M82.5,42.938c3.619,0,6.564,2.944,6.564,6.564c0,3.617-2.945,6.561-6.564,6.561
		c-3.617,0-6.561-2.943-6.561-6.561C75.938,45.882,78.882,42.938,82.5,42.938 M82.5,40.5c-4.962,0-8.999,4.038-8.999,9.001
		c0,4.962,4.037,8.998,8.999,8.998c4.963,0,9.001-4.036,9.001-8.998C91.5,44.538,87.463,40.5,82.5,40.5L82.5,40.5z"/>
	<path fill="#32C5D2" d="M116.498,42.938c3.619,0,6.564,2.944,6.564,6.564c0,3.617-2.945,6.561-6.564,6.561
		c-3.617,0-6.561-2.943-6.561-6.561C109.938,45.882,112.881,42.938,116.498,42.938 M116.498,40.5c-4.963,0-8.998,4.038-8.998,9.001
		c0,4.962,4.035,8.998,8.998,8.998c4.964,0,9.001-4.036,9.001-8.998C125.499,44.538,121.462,40.5,116.498,40.5L116.498,40.5z"/>
	<path fill="#32C5D2" d="M150.498,42.938c3.619,0,6.564,2.944,6.564,6.564c0,3.617-2.945,6.561-6.564,6.561
		c-3.616,0-6.561-2.943-6.561-6.561C143.938,45.882,146.882,42.938,150.498,42.938 M150.498,40.5c-4.962,0-8.997,4.038-8.997,9.001
		c0,4.962,4.035,8.998,8.997,8.998c4.965,0,9.002-4.036,9.002-8.998C159.5,44.538,155.463,40.5,150.498,40.5L150.498,40.5z"/>
	<path fill="#32C5D2" d="M150.498,76.938c3.619,0,6.563,2.944,6.563,6.564c0,3.617-2.943,6.561-6.563,6.561
		c-3.617,0-6.563-2.943-6.563-6.561C143.938,79.882,146.881,76.938,150.498,76.938 M150.498,74.501
		c-4.963,0-8.998,4.037-8.998,9.001c0,4.962,4.035,8.998,8.998,8.998c4.964,0,9.001-4.036,9.001-8.998
		C159.499,78.538,155.462,74.501,150.498,74.501L150.498,74.501z"/>
	<path fill="#32C5D2" d="M116.498,110.938c3.619,0,6.564,2.943,6.564,6.563c0,3.617-2.945,6.562-6.564,6.562
		c-3.617,0-6.561-2.943-6.561-6.562C109.938,113.881,112.881,110.938,116.498,110.938 M116.498,108.5
		c-4.963,0-8.998,4.037-8.998,9.001c0,4.963,4.035,8.998,8.998,8.998c4.964,0,9.001-4.035,9.001-8.998
		C125.499,112.537,121.462,108.5,116.498,108.5L116.498,108.5z"/>
	<path fill="#32C5D2" d="M116.498,144.938c3.619,0,6.564,2.944,6.564,6.564c0,3.617-2.945,6.561-6.564,6.561
		c-3.617,0-6.561-2.942-6.561-6.561C109.938,147.882,112.881,144.938,116.498,144.938 M116.498,142.501
		c-4.963,0-8.998,4.037-8.998,9.001c0,4.963,4.035,8.998,8.998,8.998c4.964,0,9.001-4.035,9.001-8.998
		C125.499,146.538,121.462,142.501,116.498,142.501L116.498,142.501z"/>
	<path fill="#32C5D2" d="M82.499,144.938c3.619,0,6.564,2.944,6.564,6.564c0,3.617-2.945,6.561-6.564,6.561
		c-3.616,0-6.561-2.942-6.561-6.561C75.938,147.882,78.883,144.938,82.499,144.938 M82.499,142.501
		c-4.962,0-8.998,4.037-8.998,9.001c0,4.963,4.036,8.998,8.998,8.998c4.964,0,9.001-4.035,9.001-8.998
		C91.5,146.538,87.463,142.501,82.499,142.501L82.499,142.501z"/>
</g>
<path fill="#999999" d="M151.25,142.537v-16.074c4.609-0.385,8.25-4.254,8.25-8.962c0-4.964-4.037-9.001-9.002-9.001
	c-2.211,0-4.232,0.807-5.803,2.134l-21.33-21.329c1.328-1.567,2.134-3.592,2.134-5.803c0-4.965-4.037-9.001-9.001-9.001
	c-4.963,0-8.998,4.037-8.998,9.001c0,2.211,0.807,4.236,2.134,5.805l-21.33,21.328c-1.569-1.328-3.594-2.134-5.807-2.134
	c-2.211,0-4.235,0.806-5.805,2.134l-21.327-21.33c1.329-1.567,2.134-3.592,2.134-5.805c0-4.711-3.639-8.58-8.251-8.964V58.463
	c4.612-0.384,8.251-4.253,8.251-8.961c0-4.965-4.038-9.001-9.001-9.001c-4.962,0-8.999,4.037-8.999,9.001
	c0,4.708,3.637,8.577,8.249,8.961v16.075C43.137,74.92,39.5,78.791,39.5,83.5c0,4.962,4.037,8.999,8.999,8.999
	c2.212,0,4.237-0.806,5.807-2.133l21.33,21.329c-1.329,1.568-2.134,3.593-2.134,5.806c0,4.963,4.037,8.998,8.999,8.998
	c4.964,0,9.001-4.035,9.001-8.998c0-2.213-0.806-4.237-2.134-5.806l21.33-21.329c1.567,1.327,3.592,2.133,5.804,2.133
	c2.211,0,4.236-0.806,5.807-2.134l21.33,21.328c-1.33,1.57-2.137,3.596-2.137,5.809c0,4.708,3.639,8.579,8.25,8.962v16.076
	c-4.611,0.381-8.25,4.251-8.25,8.962c0,4.963,4.036,8.999,8.998,8.999c4.965,0,9.002-4.036,9.002-8.999
	C159.5,146.79,155.859,142.922,151.25,142.537z"/>
</svg>
