<?xml version="1.0" encoding="utf-8"?>
<!-- Generator: Adobe Illustrator 15.0.0, SVG Export Plug-In . SVG Version: 6.00 Build 0)  -->
<!DOCTYPE svg PUBLIC "-//W3C//DTD SVG 1.1//EN" "http://www.w3.org/Graphics/SVG/1.1/DTD/svg11.dtd">
<svg version="1.1" id="Layer_1" xmlns="http://www.w3.org/2000/svg" xmlns:xlink="http://www.w3.org/1999/xlink" x="0px" y="0px"
	 width="200px" height="200px" viewBox="0 0 200 200" enable-background="new 0 0 200 200" xml:space="preserve">
<g>
	<path fill="#999999" d="M148.039,150H51.96c-1.083,0-1.96-0.878-1.96-1.961V51.961C50,50.878,50.878,50,51.96,50h3.922
		c1.083,0,1.96,0.878,1.96,1.961v90.196h90.196c1.083,0,1.961,0.878,1.961,1.96v3.922C150,149.122,149.122,150,148.039,150z"/>
	<path fill="#999999" d="M83.921,109.02c-0.655-0.742-1.456-1.343-2.353-1.765h-0.196c-3.732-1.733-8.164-0.112-9.896,3.62
		c-0.444,0.955-0.68,1.994-0.693,3.047c-0.009,1.731,0.619,3.406,1.765,4.705c0.652,0.747,1.454,1.349,2.354,1.765
		c1.035,0.518,2.176,0.786,3.333,0.785c4.041,0.001,7.345-3.217,7.451-7.255C85.725,112.125,85.097,110.379,83.921,109.02z
		 M78.432,118.234h-1.373c-0.959-0.308-1.788-0.929-2.353-1.764c-0.486-0.69-0.759-1.509-0.785-2.354
		c0.105-2.413,2.094-4.315,4.51-4.313h1.373c0.959,0.309,1.788,0.93,2.353,1.765c0.485,0.691,0.758,1.509,0.784,2.354
		C82.836,116.336,80.847,118.237,78.432,118.234L78.432,118.234z M105.49,72.549c-1.638-0.001-3.227,0.552-4.51,1.568
		c-0.79,0.583-1.455,1.316-1.961,2.157c-2.058,3.564-0.836,8.121,2.728,10.178c3.563,2.058,8.12,0.836,10.178-2.727
		c2.058-3.564,0.837-8.121-2.727-10.178C108.07,72.896,106.792,72.552,105.49,72.549z M105.49,84.313
		c-2.34-0.1-4.214-1.974-4.313-4.313c0.03-0.543,0.163-1.075,0.392-1.568c0.396-0.917,1.087-1.675,1.961-2.157
		c2.061-1.196,4.701-0.496,5.896,1.564c1.197,2.06,0.496,4.7-1.563,5.896C107.144,84.152,106.319,84.354,105.49,84.313z"/>
	<path fill="#999999" d="M77.059,117.843l-1.961,2.354L55.49,145.686l-2.353-1.764l19.608-25.49l1.765-2.354
		C75.125,116.949,76.027,117.574,77.059,117.843z"/>
	<path fill="#999999" d="M100.98,83.726l1.568,0.98v0.392h-0.196l-18.431,23.725l-1.961,2.354c-0.564-0.835-1.393-1.456-2.352-1.765
		l1.764-2.354l18.431-23.921l0,0v-0.392L100.98,83.726z"/>
	<path fill="#999999" d="M131.177,98.039c-0.875,0.482-1.564,1.241-1.961,2.157l-2.353-1.96l-16.275-13.922H110
		c0.968-0.353,1.701-1.159,1.961-2.156h0.588l16.274,13.921L131.177,98.039z"/>
	<g>
		<path fill="#32C5D2" d="M133.315,123.83c11.97,0,21.673-9.703,21.673-21.673c0-11.97-9.703-21.672-21.673-21.672
			s-21.672,9.766-21.672,21.672C111.644,114.064,121.346,123.83,133.315,123.83z M133.315,83.635
			c10.206,0,18.521,8.316,18.521,18.522c0,10.206-8.315,18.522-18.521,18.522s-18.521-8.316-18.521-18.522
			C114.794,91.952,123.109,83.635,133.315,83.635z"/>
		<path fill="#32C5D2" d="M148.564,118.101c-1.26,1.26-1.26,3.214,0,4.473l20.082,20.641c0.628,0.631,1.448,0.945,2.203,0.945
			c0.757,0,1.639-0.314,2.205-0.945c1.26-1.26,1.26-3.212,0-4.474l-20.081-20.64C151.777,116.904,149.761,116.904,148.564,118.101z"
			/>
	</g>
	<path fill="#32C5D2" d="M133.334,94.706c-1.638-0.001-3.228,0.552-4.511,1.568c-0.788,0.583-1.455,1.316-1.96,2.157
		c-2.058,3.563-0.837,8.12,2.727,10.178s8.121,0.836,10.178-2.727c2.059-3.564,0.837-8.121-2.727-10.179
		C135.913,95.053,134.635,94.709,133.334,94.706L133.334,94.706z"/>
	<path fill="#FFFFFF" d="M133.334,106.471c-2.34-0.1-4.215-1.974-4.314-4.313c0.031-0.544,0.164-1.075,0.393-1.569
		c0.396-0.917,1.086-1.675,1.961-2.157c2.06-1.196,4.7-0.497,5.896,1.564c1.196,2.06,0.495,4.701-1.564,5.897
		C134.986,106.31,134.163,106.51,133.334,106.471z"/>
</g>
</svg>
