<svg id="Group_38" data-name="Group 38" xmlns="http://www.w3.org/2000/svg" width="24" height="24" viewBox="0 0 24 24">
  <path id="Path_29" data-name="Path 29" d="M0,0H24V24H0Z" fill="none"/>
  <path id="Path_30" data-name="Path 30" d="M11,17.33V20h2V17.33l-1-1ZM13,6.67V4H11V6.67l1,1ZM16.33,12l1,1H20V11H17.33ZM4,11v2H6.67l1-1-1-1Z" fill="#32c5d2" opacity="0.3"/>
  <path id="Path_31" data-name="Path 31" d="M2,9v6H7.5l3-3-3-3Zm4.67,4H4V11H6.67l1,1ZM22,9H16.5l-3,3,3,3H22Zm-2,4H17.33l-1-1,1-1H20Zm-5,3.5-3-3-3,3V22h6ZM13,20H11V17.33l1-1,1,1ZM9,7.5l3,3,3-3V2H9ZM11,4h2V6.67l-1,1-1-1Z" fill="#32c5d2"/>
</svg>
