<?xml version="1.0" encoding="utf-8"?>
<!-- Generator: Adobe Illustrator 15.0.0, SVG Export Plug-In . SVG Version: 6.00 Build 0)  -->
<!DOCTYPE svg PUBLIC "-//W3C//DTD SVG 1.1//EN" "http://www.w3.org/Graphics/SVG/1.1/DTD/svg11.dtd">
<svg version="1.1" id="Layer_1" xmlns="http://www.w3.org/2000/svg" xmlns:xlink="http://www.w3.org/1999/xlink" x="0px" y="0px"
	 width="200px" height="200px" viewBox="0 0 200 200" enable-background="new 0 0 200 200" xml:space="preserve">
<g>
	<g>
		<path fill="#999999" d="M148.252,78.274v33.545H126.21l-16.234-20.965H75.571v-11.29l27.419-8.387V44.729h11.717
			c1.184-1.505,2.474-2.903,4.087-4.085H60.089c-6.773,0-12.257,5.484-12.257,12.257v80.208c0,6.773,5.484,12.256,12.257,12.256
			h80.207c2.043,0,4.087-0.538,5.7-1.398c1.183-0.645,2.364-1.506,3.225-2.473c2.043-2.149,3.227-5.054,3.227-8.278V70.318
			C151.372,72.146,149.865,74.941,148.252,78.274z M75.463,44.621h23.33v23.438l-23.33,7.096V44.621z M51.703,52.792
			c0-4.516,3.654-8.17,8.172-8.17H71.38v46.232H51.703V52.792z M51.703,94.939h56.123l13.117,16.88h-69.24V94.939z M71.377,141.173
			H59.874c-4.517,0-8.172-3.657-8.172-8.173v-17.096h19.674L71.377,141.173L71.377,141.173z M99.654,141.173H75.463v-25.267h24.191
			V141.173z M140.081,141.173h-36.342v-25.267h20.43l19.139,24.622C142.339,140.955,141.263,141.173,140.081,141.173z M148.252,133
			c0,1.828-0.646,3.656-1.72,4.944l-17.204-22.04h18.815V133H148.252z"/>
	</g>
	<g>
		<g>
			<g>
				<circle fill="#999999" cx="65.162" cy="134.389" r="24.585"/>
			</g>
		</g>
		<g>
			<path fill="#FFFFFF" d="M65.162,158.682c-13.396,0-24.293-10.898-24.293-24.292c0-13.396,10.897-24.294,24.293-24.294
				s24.294,10.898,24.294,24.294C89.456,147.783,78.558,158.682,65.162,158.682z"/>
			<path fill="#999999" d="M65.162,111.412c12.669,0,22.977,10.307,22.977,22.978c0,12.669-10.307,22.976-22.977,22.976
				c-12.669,0-22.976-10.307-22.976-22.976C42.187,121.719,52.494,111.412,65.162,111.412 M65.162,108.778
				c-14.144,0-25.609,11.468-25.609,25.611S51.019,160,65.162,160c14.145,0,25.611-11.467,25.611-25.61
				S79.307,108.778,65.162,108.778L65.162,108.778z"/>
		</g>
	</g>
	<g>
		<path fill="#32C5D2" stroke="#32C5D2" stroke-width="0.6586" stroke-miterlimit="10" d="M65.162,130.729
			c-6.154,0-10.976-2.411-10.976-5.487c0-3.078,4.821-5.487,10.976-5.487c6.155,0,10.977,2.411,10.977,5.487
			S71.317,130.729,65.162,130.729z M65.162,120.975c-5.835,0-9.756,2.206-9.756,4.268c0,2.06,3.921,4.268,9.756,4.268
			c5.836,0,9.756-2.209,9.756-4.268C74.918,123.181,70.998,120.975,65.162,120.975z"/>
		<circle fill="#32C5D2" stroke="#32C5D2" stroke-width="0.6586" stroke-miterlimit="10" cx="57.236" cy="137.437" r="0.609"/>
		<circle fill="#32C5D2" stroke="#32C5D2" stroke-width="0.6586" stroke-miterlimit="10" cx="57.236" cy="131.339" r="0.61"/>
		<circle fill="#32C5D2" stroke="#32C5D2" stroke-width="0.6586" stroke-miterlimit="10" cx="57.236" cy="143.536" r="0.61"/>
		<path fill="#32C5D2" stroke="#32C5D2" stroke-width="0.6586" stroke-miterlimit="10" d="M65.162,149.021
			c-6.154,0-10.976-2.409-10.976-5.487v-18.292h1.22v18.292c0,2.062,3.921,4.267,9.756,4.267c5.836,0,9.756-2.205,9.756-4.267
			v-18.192h1.221v18.192C76.139,146.613,71.317,149.021,65.162,149.021z"/>
		<path fill="#32C5D2" stroke="#32C5D2" stroke-width="0.6586" stroke-miterlimit="10" d="M65.162,142.926
			c-6.154,0-10.976-2.41-10.976-5.487h1.22c0,2.059,3.921,4.268,9.756,4.268c5.836,0,9.756-2.209,9.756-4.268h1.221
			C76.139,140.516,71.317,142.926,65.162,142.926z"/>
		<path fill="#32C5D2" stroke="#32C5D2" stroke-width="0.6586" stroke-miterlimit="10" d="M65.162,136.826
			c-6.154,0-10.976-2.408-10.976-5.487h1.22c0,2.063,3.921,4.267,9.756,4.267c5.836,0,9.756-2.205,9.756-4.267h1.221
			C76.139,134.418,71.317,136.826,65.162,136.826z"/>
	</g>
	<path fill="#32C5D2" d="M115.889,66.985l15.591,30.535c0.322,0.646,0.858,0.752,1.075,0.752c0.108,0,0.323,0,0.536-0.107
		c0.216-0.107,0.431-0.215,0.539-0.537c0.106-0.215,12.794-24.836,15.589-30.534c2.688-5.484,2.688-11.397,0-16.773
		c-1.613-3.225-4.085-5.806-6.989-7.634c-2.901-1.72-6.342-2.688-9.675-2.688c-2.797,0-5.698,0.645-8.386,2.043
		c-4.41,2.257-7.742,6.128-9.247,10.967C113.309,57.523,113.741,62.684,115.889,66.985z M132.663,47.955
		c5.911,0,10.643,4.73,10.643,10.645c0,5.913-4.731,10.645-10.643,10.645c-5.913,0-10.645-4.732-10.645-10.645
		C122.017,52.685,126.75,47.955,132.663,47.955z"/>
	<circle fill="#32C5D2" cx="132.663" cy="58.598" r="6.666"/>
</g>
</svg>
