<?xml version="1.0" encoding="utf-8"?>
<!-- Generator: Adobe Illustrator 15.0.0, SVG Export Plug-In . SVG Version: 6.00 Build 0)  -->
<!DOCTYPE svg PUBLIC "-//W3C//DTD SVG 1.1//EN" "http://www.w3.org/Graphics/SVG/1.1/DTD/svg11.dtd">
<svg version="1.1" id="Layer_1" xmlns="http://www.w3.org/2000/svg" xmlns:xlink="http://www.w3.org/1999/xlink" x="0px" y="0px"
	 width="200px" height="200px" viewBox="0 0 200 200" enable-background="new 0 0 200 200" xml:space="preserve">
<g>
	<g>
		<g>
			<path fill="#FFFFFF" d="M34.338,93.534c4.071-18.799,16.126-35.11,32.877-44.558c0.419-0.236,0.843-0.466,1.266-0.694
				c2.312-1.241,0.258-4.753-2.053-3.512c-17.273,9.272-30.201,25.568-35.255,44.515c-0.28,1.049-0.528,2.106-0.758,3.167
				C29.862,95.01,33.783,96.097,34.338,93.534L34.338,93.534z"/>
		</g>
	</g>
	<g>
		<g>
			<path fill="#FFFFFF" d="M131.941,166.566c-19.752,10.685-44.094,10.701-63.856,0.039c-0.48-0.258-0.956-0.527-1.429-0.801
				c-2.283-1.301-4.331,2.217-2.053,3.514c9.855,5.623,20.91,8.799,32.239,9.332c11.465,0.539,22.94-1.83,33.338-6.646
				c1.293-0.6,2.563-1.247,3.816-1.926C136.302,168.831,134.248,165.32,131.941,166.566L131.941,166.566z"/>
		</g>
	</g>
	<g>
		<g>
			<path fill="#FFFFFF" d="M129.777,47.406c17.125,8.589,30,24.194,35.016,42.705c0.206,0.76,0.395,1.525,0.573,2.292
				c0.599,2.554,4.521,1.47,3.923-1.083c-4.473-19.091-16.932-35.726-33.9-45.52c-1.166-0.673-2.354-1.305-3.56-1.909
				c-0.99-0.497-2.195-0.271-2.782,0.731C128.514,45.532,128.785,46.908,129.777,47.406L129.777,47.406z"/>
		</g>
	</g>
	<g>
		<g>
			<path fill="#FFFFFF" d="M117.146,98.745c1.184,0,2.551-0.245,3.414,0.564c0.5,0.471,0.563,1.061,0.563,1.734
				c0,1.693,0,3.393,0,5.088c0,6.061,0,12.116,0,18.174c0,2.381,0,4.762,0,7.144c0,1.2,0.268,2.868-0.738,3.597
				c-0.854,0.617-2.293,0.396-3.357,0.396c-2.241,0-4.48,0-6.725,0c-9.837,0-19.674,0-29.511,0c-1.769,0-1.958-1.523-1.958-2.952
				c0-2.05,0-4.101,0-6.147c0-6.109,0-12.22,0-18.33c0-2.195,0-4.394,0-6.588c0-0.551-0.014-1.001,0.146-1.514
				c0.443-1.427,2.292-1.165,3.542-1.165c2.623,0,2.623-4.067,0-4.067c-1.765,0-3.439-0.029-5.002,0.955
				c-1.727,1.087-2.753,3.07-2.753,5.094c0,1.336,0,2.668,0,4.004c0,5.926,0,11.854,0,17.778c0,3.755-0.117,7.527,0.009,11.279
				c0.09,2.671,2.082,4.956,4.646,5.569c0.623,0.147,1.252,0.152,1.884,0.152c1.653,0,3.306,0,4.96,0c10.68,0,21.36,0,32.042,0
				c0.293,0,0.588,0,0.885,0c2.506,0,4.725-1.596,5.613-3.912c0.543-1.412,0.387-3.074,0.387-4.567c0-5.64,0-11.277,0-16.919
				c0-3.979,0-7.954,0-11.935c0-1.133,0.051-2.248-0.293-3.349c-0.621-2-2.351-3.517-4.363-3.999
				c-1.087-0.26-2.283-0.154-3.393-0.154C114.521,94.678,114.521,98.745,117.146,98.745L117.146,98.745z"/>
		</g>
	</g>
	<g>
		<g>
			<path fill="#FFFFFF" d="M96.295,98.745c2.514,0,5.027,0,7.541,0c2.623,0,2.623-4.067,0-4.067c-2.514,0-5.027,0-7.541,0
				C93.672,94.678,93.672,98.745,96.295,98.745L96.295,98.745z"/>
		</g>
	</g>
	<g>
		<g>
			<path fill="#FFFFFF" d="M87.404,93.508c0,2.815,0,5.629,0,8.445c0,2.622,4.067,2.622,4.067,0c0-2.816,0-5.63,0-8.445
				C91.471,90.884,87.404,90.884,87.404,93.508L87.404,93.508z"/>
		</g>
	</g>
	<g>
		<g>
			<path fill="#FFFFFF" d="M76.858,112.227c9.021,0,18.043,0,27.064,0c6.393,0,12.784,0,19.178,0c2.623,0,2.623-4.065,0-4.065
				c-9.021,0-18.041,0-27.063,0c-6.393,0-12.785,0-19.177,0C74.235,108.159,74.235,112.227,76.858,112.227L76.858,112.227z"/>
		</g>
	</g>
	<g>
		<g>
			<path fill="#FFFFFF" d="M86.787,104.074c1.748,0,3.494,0,5.241,0c2.624,0,2.624-4.068,0-4.068c-1.747,0-3.493,0-5.241,0
				C84.165,100.004,84.165,104.074,86.787,104.074L86.787,104.074z"/>
		</g>
	</g>
	<g>
		<g>
			<path fill="#FFFFFF" d="M108.369,93.596c0,2.815,0,5.629,0,8.443c0,2.623,4.066,2.623,4.066,0c0-2.815,0-5.629,0-8.443
				C112.436,90.972,108.369,90.972,108.369,93.596L108.369,93.596z"/>
		</g>
	</g>
	<g>
		<g>
			<path fill="#FFFFFF" d="M107.753,104.074c1.747,0,3.494,0,5.242,0c2.622,0,2.622-4.068,0-4.068c-1.745,0-3.494,0-5.242,0
				C105.13,100.004,105.13,104.074,107.753,104.074L107.753,104.074z"/>
		</g>
	</g>
	<g>
		<g>
			<path fill="#FFFFFF" d="M84.807,121.078c1.126,0,2.251,0,3.378,0c2.624,0,2.624-4.067,0-4.067c-1.125,0-2.251,0-3.378,0
				C82.185,117.011,82.185,121.078,84.807,121.078L84.807,121.078z"/>
		</g>
	</g>
	<g>
		<g>
			<path fill="#FFFFFF" d="M98.145,121.078c1.125,0,2.251,0,3.378,0c2.621,0,2.621-4.067,0-4.067c-1.127,0-2.252,0-3.378,0
				C95.52,117.011,95.52,121.078,98.145,121.078L98.145,121.078z"/>
		</g>
	</g>
	<g>
		<g>
			<path fill="#FFFFFF" d="M111.48,121.078c1.125,0,2.25,0,3.379,0c2.621,0,2.621-4.067,0-4.067c-1.127,0-2.252,0-3.379,0
				C108.857,117.011,108.857,121.078,111.48,121.078L111.48,121.078z"/>
		</g>
	</g>
	<g>
		<g>
			<path fill="#FFFFFF" d="M84.807,130.63c1.126,0,2.251,0,3.378,0c2.624,0,2.624-4.065,0-4.065c-1.125,0-2.251,0-3.378,0
				C82.185,126.563,82.185,130.63,84.807,130.63L84.807,130.63z"/>
		</g>
	</g>
	<g>
		<g>
			<path fill="#FFFFFF" d="M98.145,130.63c1.125,0,2.251,0,3.378,0c2.621,0,2.621-4.065,0-4.065c-1.127,0-2.252,0-3.378,0
				C95.52,126.563,95.52,130.63,98.145,130.63L98.145,130.63z"/>
		</g>
	</g>
	<g>
		<path fill="#FFFFFF" d="M25.18,119.07v31.879c0,4.357,9.354,6.642,18.595,6.642c9.24,0,18.595-2.284,18.595-6.642V119.07
			c0-4.359-9.355-6.641-18.595-6.641C34.534,112.43,25.18,114.713,25.18,119.07z M59.713,140.322c0,1.406-6.052,3.984-15.938,3.984
			c-9.886,0-15.938-2.578-15.938-3.984v-7.033c3.432,2.012,9.71,3.051,15.938,3.051s12.507-1.039,15.938-3.051V140.322z
			 M59.713,129.698c0,1.403-6.052,3.985-15.938,3.985c-9.886,0-15.938-2.582-15.938-3.985v-7.036
			c3.432,2.012,9.71,3.051,15.938,3.051s12.507-1.039,15.938-3.051V129.698z M43.775,115.086c9.888,0,15.938,2.581,15.938,3.984
			c0,1.406-6.052,3.986-15.938,3.986c-9.886,0-15.938-2.58-15.938-3.986C27.835,117.667,33.887,115.086,43.775,115.086z
			 M43.775,155.236c-9.888,0-15.938-2.577-15.938-3.983v-7.034c3.432,2.012,9.71,3.049,15.938,3.049
			c6.229,0,12.507-1.037,15.938-3.049v7.034C59.713,152.659,53.661,155.236,43.775,155.236z"/>
	</g>
	<g>
		<path fill="#FFFFFF" d="M137.988,119.07v31.879c0,4.357,9.357,6.642,18.597,6.642c9.24,0,18.595-2.284,18.595-6.642V119.07
			c0-4.359-9.354-6.641-18.595-6.641C147.346,112.43,137.988,114.713,137.988,119.07z M172.523,140.322
			c0,1.406-6.053,3.984-15.938,3.984c-9.885,0-15.938-2.578-15.938-3.984v-7.033c3.435,2.012,9.707,3.051,15.938,3.051
			c6.229,0,12.508-1.039,15.938-3.051V140.322z M172.523,129.698c0,1.403-6.053,3.985-15.938,3.985
			c-9.885,0-15.938-2.582-15.938-3.985v-7.036c3.435,2.012,9.707,3.051,15.938,3.051c6.229,0,12.508-1.039,15.938-3.051V129.698z
			 M156.585,115.086c9.89,0,15.938,2.581,15.938,3.984c0,1.406-6.053,3.986-15.938,3.986c-9.885,0-15.938-2.58-15.938-3.986
			C140.646,117.667,146.697,115.086,156.585,115.086z M156.585,155.236c-9.888,0-15.938-2.577-15.938-3.983v-7.034
			c3.435,2.012,9.707,3.049,15.938,3.049c6.229,0,12.508-1.037,15.938-3.049v7.034C172.523,152.659,166.471,155.236,156.585,155.236
			z"/>
	</g>
	<g>
		<path fill="#FFFFFF" d="M81.369,27.7v31.878c0,4.359,9.354,6.641,18.595,6.641c9.239,0,18.595-2.283,18.595-6.641V27.7
			c0-4.36-9.354-6.642-18.595-6.642C90.724,21.058,81.369,23.341,81.369,27.7z M115.902,48.951c0,1.407-6.053,3.986-15.938,3.986
			c-9.888,0-15.938-2.579-15.938-3.986v-7.034c3.434,2.012,9.709,3.051,15.938,3.051c6.229,0,12.505-1.039,15.938-3.051V48.951z
			 M115.902,38.326c0,1.404-6.053,3.984-15.938,3.984c-9.888,0-15.938-2.58-15.938-3.984V31.29
			c3.434,2.011,9.709,3.051,15.938,3.051c6.229,0,12.505-1.04,15.938-3.051V38.326z M99.964,23.715
			c9.886,0,15.938,2.58,15.938,3.985c0,1.406-6.053,3.985-15.938,3.985c-9.888,0-15.938-2.58-15.938-3.985
			C84.026,26.295,90.078,23.715,99.964,23.715z M99.964,63.866c-9.888,0-15.938-2.579-15.938-3.984v-7.036
			c3.434,2.012,9.709,3.049,15.938,3.049c6.229,0,12.505-1.037,15.938-3.049v7.036C115.902,61.287,109.85,63.866,99.964,63.866z"/>
	</g>
</g>
</svg>
