<?xml version="1.0" encoding="utf-8"?>
<!-- Generator: Adobe Illustrator 15.0.0, SVG Export Plug-In . SVG Version: 6.00 Build 0)  -->
<!DOCTYPE svg PUBLIC "-//W3C//DTD SVG 1.1//EN" "http://www.w3.org/Graphics/SVG/1.1/DTD/svg11.dtd">
<svg version="1.1" id="Layer_1" xmlns="http://www.w3.org/2000/svg" xmlns:xlink="http://www.w3.org/1999/xlink" x="0px" y="0px"
	 width="200px" height="200px" viewBox="0 0 200 200" enable-background="new 0 0 200 200" xml:space="preserve">
<g>
	<rect x="78.657" y="128.229" fill="#999999" width="2.748" height="2.748"/>
	<rect x="72.611" y="128.229" fill="#999999" width="2.748" height="2.748"/>
	<rect x="84.702" y="128.229" fill="#999999" width="2.749" height="2.748"/>
	<rect x="47.878" y="128.229" fill="#999999" width="14.839" height="2.748"/>
	<path fill="#999999" d="M40,115.403h7.145v5.863H40v16.855h25.832v8.427c-2.198,0.55-4.031,2.198-4.58,4.58H47.328v2.748h13.741
		c0.549,2.748,3.114,4.764,5.862,4.764c2.932,0,5.313-2.016,5.863-4.764h14.474v-2.748H72.794c-0.55-2.198-2.199-4.03-4.58-4.58
		v-8.427h25.649v-16.855h-7.146v-5.863h7.146V98.549H40V115.403z M70.412,152.229c0,1.832-1.466,3.297-3.298,3.297
		c-1.832,0-3.297-1.465-3.297-3.297s1.466-3.298,3.297-3.298C68.946,148.931,70.412,150.396,70.412,152.229z M91.481,135.19H42.748
		v-11.359h48.733V135.19z M84.152,121.083H49.71v-5.68h34.442V121.083z M42.748,101.113h48.733v11.359H42.748V101.113z"/>
	<rect x="72.611" y="105.511" fill="#999999" width="2.748" height="2.748"/>
	<rect x="78.657" y="105.511" fill="#999999" width="2.748" height="2.748"/>
	<rect x="84.702" y="105.511" fill="#999999" width="2.749" height="2.748"/>
	<rect x="47.878" y="105.511" fill="#999999" width="14.839" height="2.748"/>
	<rect x="150.474" y="128.229" fill="#3DCFCF" width="2.748" height="2.748"/>
	<rect x="144.428" y="128.229" fill="#3DCFCF" width="2.748" height="2.748"/>
	<rect x="138.382" y="128.229" fill="#3DCFCF" width="2.748" height="2.748"/>
	<rect x="113.648" y="128.229" fill="#3DCFCF" width="14.841" height="2.748"/>
	<path fill="#3DCFCF" d="M160,115.403V98.549h-54.412v16.854h7.145v5.863h-7.145v16.855h25.832v8.427
		c-2.198,0.55-4.03,2.198-4.58,4.58h-13.741v2.748h13.741c0.55,2.748,3.114,4.764,5.862,4.764c2.932,0,5.313-2.016,5.863-4.764
		h14.473v-2.748h-14.473c-0.55-2.198-2.199-4.03-4.58-4.58v-8.427h25.648v-16.855h-7.145v-5.863H160z M136.184,152.229
		c0,1.832-1.466,3.297-3.298,3.297c-1.833,0-3.298-1.465-3.298-3.297s1.465-3.298,3.298-3.298
		C134.718,148.931,136.184,150.396,136.184,152.229z M108.336,101.113h48.732v11.359h-48.732V101.113z M157.253,135.19h-48.917
		v-11.359h48.732v11.359H157.253z M149.924,121.083H115.48v-5.68h34.443V121.083z"/>
	<rect x="150.474" y="105.511" fill="#3DCFCF" width="2.748" height="2.748"/>
	<rect x="144.428" y="105.511" fill="#3DCFCF" width="2.748" height="2.748"/>
	<rect x="138.382" y="105.511" fill="#3DCFCF" width="2.748" height="2.748"/>
	<rect x="113.648" y="105.511" fill="#3DCFCF" width="14.841" height="2.748"/>
	<path fill="#3DCFCF" d="M91.664,44.32c24.184-2.199,45.801,14.839,49.832,38.473l-7.694-6.046l-1.648,2.198l11.541,8.794
		l8.795-11.542l-2.199-1.649l-5.862,7.695c-4.214-25.099-27.298-43.054-52.947-40.672c-23.817,2.198-42.87,21.802-44.153,45.802
		l2.749,0.183C51.358,64.838,69.313,46.335,91.664,44.32z"/>
</g>
</svg>
