<?xml version="1.0" encoding="utf-8"?>
<!-- Generator: Adobe Illustrator 15.0.0, SVG Export Plug-In . SVG Version: 6.00 Build 0)  -->
<!DOCTYPE svg PUBLIC "-//W3C//DTD SVG 1.1//EN" "http://www.w3.org/Graphics/SVG/1.1/DTD/svg11.dtd">
<svg version="1.1" id="Layer_1" xmlns="http://www.w3.org/2000/svg" xmlns:xlink="http://www.w3.org/1999/xlink" x="0px" y="0px"
	 width="200px" height="200px" viewBox="0 0 200 200" enable-background="new 0 0 200 200" xml:space="preserve">
<path fill="#999999" d="M131.671,93.825V77.703c0-2.953-2.401-5.355-5.356-5.355H50.1c-2.952,0-5.353,2.402-5.353,5.355v16.671
	c0,2.954,2.401,5.356,5.353,5.356h60.148c-1.126,0.946-2.163,1.989-3.123,3.105c-0.07-0.007-0.137-0.021-0.21-0.021H50.1
	c-2.952,0-5.353,2.401-5.353,5.354v16.672c0,2.954,2.401,5.356,5.353,5.356h36.189v16.529c-2.329,0.666-4.165,2.502-4.828,4.832
	H62.515c-1.06,0-1.919,0.859-1.919,1.92c0,1.06,0.86,1.92,1.919,1.92h18.944c0.837,2.94,3.543,5.102,6.749,5.102
	c3.208,0,5.913-2.16,6.749-5.102h18.941c1.063,0,1.922-0.86,1.922-1.92c0-1.061-0.859-1.92-1.922-1.92h-18.94
	c-0.664-2.33-2.499-4.168-4.829-4.832v-16.531h12.439c3.957,9.875,13.606,16.879,24.879,16.879
	c14.781,0,26.806-12.025,26.806-26.809C154.251,106.927,144.445,95.861,131.671,93.825z M127.829,93.478
	c-0.129-0.001-0.254-0.02-0.384-0.02c-4.115,0-8.002,0.961-11.49,2.625c-0.251-0.12-0.528-0.193-0.827-0.193H50.1
	c-0.833,0-1.512-0.678-1.512-1.515V77.703c0-0.835,0.677-1.514,1.512-1.514h76.214c0.836,0,1.516,0.679,1.516,1.514 M91.392,153.479
	c0,1.754-1.428,3.183-3.183,3.183c-1.754,0-3.182-1.429-3.182-3.183c0-1.756,1.428-3.185,3.182-3.185
	C89.964,150.295,91.392,151.725,91.392,153.479z M100.643,120.268c0,2.099,0.267,4.131,0.723,6.088H50.1
	c-0.833,0-1.512-0.679-1.512-1.515v-16.672c0-0.836,0.677-1.517,1.512-1.517h54.294C102.025,110.65,100.643,115.295,100.643,120.268
	z M127.445,143.232c-12.663,0-22.965-10.303-22.965-22.967c0-12.666,10.303-22.966,22.965-22.966
	c12.664,0,22.966,10.302,22.966,22.968C150.411,132.932,140.109,143.232,127.445,143.232z M56.982,57.202
	c1.659,0,3.009-1.351,3.009-3.01c0-1.661-1.35-3.012-3.009-3.012c-1.659,0-3.01,1.351-3.01,3.012
	C53.972,55.851,55.323,57.202,56.982,57.202z M56.982,53.361c0.459,0,0.832,0.373,0.832,0.831c0,0.456-0.373,0.829-0.832,0.829
	s-0.832-0.373-0.832-0.829C56.15,53.734,56.523,53.361,56.982,53.361z M78.271,57.202c1.658,0,3.009-1.351,3.009-3.01
	c0-1.661-1.351-3.012-3.009-3.012c-1.66,0-3.011,1.351-3.011,3.012C75.26,55.851,76.611,57.202,78.271,57.202z M78.271,53.361
	c0.457,0,0.831,0.373,0.831,0.831c0,0.456-0.374,0.829-0.831,0.829c-0.46,0-0.831-0.373-0.831-0.829
	C77.44,53.734,77.811,53.361,78.271,53.361z M67.625,57.202c1.661,0,3.012-1.351,3.012-3.01c0-1.661-1.351-3.012-3.012-3.012
	c-1.66,0-3.01,1.351-3.01,3.012C64.615,55.851,65.966,57.202,67.625,57.202z M67.625,53.361c0.457,0,0.831,0.373,0.831,0.831
	c0,0.456-0.374,0.829-0.831,0.829s-0.829-0.373-0.829-0.829C66.796,53.734,67.168,53.361,67.625,53.361z M67.625,83.03
	c-1.66,0-3.01,1.351-3.01,3.01c0,1.661,1.35,3.011,3.01,3.011c1.661,0,3.012-1.35,3.012-3.011
	C70.637,84.381,69.286,83.03,67.625,83.03z M67.625,86.871c-0.457,0-0.829-0.373-0.829-0.831c0-0.457,0.372-0.831,0.829-0.831
	s0.831,0.374,0.831,0.831C68.458,86.498,68.083,86.871,67.625,86.871z M67.625,119.516c1.661,0,3.012-1.351,3.012-3.012
	c0-1.66-1.351-3.011-3.012-3.011c-1.66,0-3.01,1.351-3.01,3.011C64.615,118.165,65.966,119.516,67.625,119.516z M67.625,115.675
	c0.457,0,0.831,0.372,0.831,0.829c0,0.459-0.374,0.832-0.831,0.832s-0.829-0.373-0.829-0.832
	C66.796,116.047,67.168,115.675,67.625,115.675z M56.982,119.516c1.659,0,3.009-1.351,3.009-3.012c0-1.66-1.35-3.011-3.009-3.011
	c-1.659,0-3.01,1.351-3.01,3.011C53.972,118.165,55.323,119.516,56.982,119.516z M56.982,115.675c0.459,0,0.832,0.372,0.832,0.829
	c0,0.459-0.373,0.832-0.832,0.832s-0.832-0.373-0.832-0.832C56.15,116.047,56.523,115.675,56.982,115.675z M78.271,119.516
	c1.658,0,3.009-1.351,3.009-3.012c0-1.66-1.351-3.011-3.009-3.011c-1.66,0-3.011,1.351-3.011,3.011
	C75.26,118.165,76.611,119.516,78.271,119.516z M78.271,115.675c0.457,0,0.831,0.372,0.831,0.829c0,0.459-0.374,0.832-0.831,0.832
	c-0.46,0-0.831-0.373-0.831-0.832C77.44,116.047,77.811,115.675,78.271,115.675z M78.271,83.03c-1.66,0-3.011,1.351-3.011,3.01
	c0,1.661,1.351,3.011,3.011,3.011c1.658,0,3.009-1.35,3.009-3.011C81.28,84.381,79.929,83.03,78.271,83.03z M78.271,86.871
	c-0.46,0-0.831-0.373-0.831-0.831c0-0.457,0.371-0.831,0.831-0.831c0.457,0,0.831,0.374,0.831,0.831
	C79.102,86.498,78.728,86.871,78.271,86.871z M56.982,83.03c-1.659,0-3.01,1.351-3.01,3.01c0,1.661,1.351,3.011,3.01,3.011
	c1.659,0,3.009-1.35,3.009-3.011C59.991,84.381,58.641,83.03,56.982,83.03z M56.982,86.871c-0.459,0-0.832-0.373-0.832-0.831
	c0-0.457,0.373-0.831,0.832-0.831s0.832,0.374,0.832,0.831C57.813,86.498,57.441,86.871,56.982,86.871z M50.1,67.882h76.214
	c2.955,0,5.356-2.402,5.356-5.356V45.855c0-2.953-2.401-5.355-5.356-5.355H50.1c-2.952,0-5.353,2.402-5.353,5.355v16.671
	C44.747,65.48,47.148,67.882,50.1,67.882z M47.675,45.855c0-0.396,0.104-1.067,0.57-1.553c0.515-0.538,1.417-0.873,1.854-0.873
	h76.215c0.386,0,1.149,0.198,1.627,0.645c0.557,0.521,0.8,1.331,0.8,1.781v16.671c0,0.418-0.222,1.274-0.724,1.777
	c-0.502,0.503-1.285,0.651-1.703,0.651H50.1c-0.448,0-1.257-0.285-1.778-0.841c-0.448-0.478-0.646-1.2-0.646-1.586L47.675,45.855
	L47.675,45.855z"/>
<g>
	<path fill="#32C5D2" d="M115,110.168v21.428c0,2.93,6.289,4.467,12.5,4.467s12.5-1.537,12.5-4.467v-21.428
		c0-2.932-6.289-4.466-12.5-4.466S115,107.236,115,110.168z M138.215,124.452c0,0.946-4.068,2.68-10.715,2.68
		s-10.715-1.733-10.715-2.68v-4.728c2.309,1.353,6.527,2.051,10.715,2.051s8.408-0.698,10.715-2.051V124.452z M138.215,117.313
		c0,0.942-4.068,2.678-10.715,2.678s-10.715-1.734-10.715-2.678v-4.73c2.309,1.354,6.527,2.051,10.715,2.051
		s8.408-0.697,10.715-2.051V117.313z M127.5,107.489c6.646,0,10.715,1.733,10.715,2.679c0,0.943-4.068,2.678-10.715,2.678
		s-10.715-1.732-10.715-2.678S120.854,107.489,127.5,107.489z M127.5,134.479c-6.646,0-10.715-1.732-10.715-2.679v-4.729
		c2.309,1.354,6.527,2.05,10.715,2.05s8.408-0.696,10.715-2.05v4.729C138.215,132.746,134.146,134.479,127.5,134.479z"/>
	<path fill="#FFFFFF" d="M127.5,134.479c-6.646,0-10.715-1.734-10.715-2.68v-4.729c2.309,1.353,6.527,2.049,10.715,2.049
		s8.408-0.696,10.715-2.049v4.729C138.215,132.744,134.146,134.479,127.5,134.479z"/>
	<path fill="#FFFFFF" d="M127.5,127.072c-6.646,0-10.715-1.736-10.715-2.68v-4.729c2.307,1.351,6.527,2.049,10.715,2.049
		s8.408-0.698,10.715-2.049v4.729C138.215,125.336,134.146,127.072,127.5,127.072z"/>
	<path fill="#FFFFFF" d="M127.5,119.988c-6.646,0-10.715-1.734-10.715-2.68v-4.729c2.307,1.353,6.527,2.051,10.715,2.051
		s8.408-0.698,10.715-2.051v4.729C138.215,118.254,134.146,119.988,127.5,119.988z"/>
	<path fill="#FFFFFF" d="M127.5,107.475c6.646,0,10.715,1.732,10.715,2.676c0,0.947-4.068,2.681-10.715,2.681
		s-10.715-1.733-10.715-2.681C116.785,109.207,120.854,107.475,127.5,107.475z"/>
</g>
</svg>
