<?xml version="1.0" encoding="utf-8"?>
<!-- Generator: Adobe Illustrator 15.0.0, SVG Export Plug-In . SVG Version: 6.00 Build 0)  -->
<!DOCTYPE svg PUBLIC "-//W3C//DTD SVG 1.1//EN" "http://www.w3.org/Graphics/SVG/1.1/DTD/svg11.dtd">
<svg version="1.1" id="Layer_1" xmlns="http://www.w3.org/2000/svg" xmlns:xlink="http://www.w3.org/1999/xlink" x="0px" y="0px"
	 width="200px" height="200px" viewBox="0 0 200 200" enable-background="new 0 0 200 200" xml:space="preserve">
<g>
	<path fill="#999999" d="M127.226,94.775v49.226c0,2.749-2.2,5.225-5.226,5.225H78c-2.75,0-5.225-2.2-5.225-5.225V56
		c0-2.75,2.2-5.225,5.225-5.225h21.175V45H78c-6.05,0-11,4.95-11,11v88.001C67,150.05,71.95,155,78,155h44
		c6.052,0,11-4.95,11-10.999V94.775H127.226z"/>
	<path fill="#32C5D2" d="M127.501,50.775c-3.026,0-5.501,2.475-5.501,5.5c0,1.1,0.274,1.926,0.823,2.75L108.25,73.6
		c-0.825-0.55-1.649-0.825-2.751-0.825c-1.374,0-2.748,0.55-3.572,1.375L91.2,67.275c0.275-0.55,0.275-1.1,0.275-1.65
		c0-3.025-2.475-5.5-5.5-5.5c-3.025,0-5.5,2.475-5.5,5.5s2.475,5.5,5.5,5.5c1.375,0,2.75-0.55,3.575-1.375l10.725,6.875
		C100,77.176,100,77.725,100,78.275c0,3.026,2.476,5.5,5.499,5.5c3.026,0,5.502-2.474,5.502-5.5c0-1.099-0.275-1.925-0.824-2.75
		l14.573-14.3c0.825,0.55,1.649,0.824,2.751,0.824c3.023,0,5.499-2.475,5.499-5.5C133,53.25,130.524,50.775,127.501,50.775z"/>
	<g>
		<path fill="#999999" d="M81.025,92.3H92.85c1.1,0,2.2-1.1,2.2-2.199c0-1.1-1.101-2.2-2.2-2.2H81.025c-1.1,0-2.2,1.1-2.2,2.2
			C78.825,91.201,79.65,92.3,81.025,92.3z"/>
		<path fill="#999999" d="M78.825,101.927c0,1.098,1.101,2.198,2.2,2.198h25.3c1.1,0,2.2-1.101,2.2-2.198
			c0-1.102-1.101-2.201-2.2-2.201h-25.3C79.65,99.725,78.825,100.55,78.825,101.927z"/>
		<path fill="#999999" d="M79.1,113.476c0,1.098,1.1,2.199,2.2,2.199h36.025c1.1,0,2.198-1.102,2.198-2.199
			c0-1.101-1.099-2.201-2.198-2.201H81.3C80.2,111.274,79.1,112.375,79.1,113.476z"/>
		<path fill="#999999" d="M117.325,123.101H81.3c-1.101,0-2.2,1.1-2.2,2.199c0,1.099,1.1,2.2,2.2,2.2h36.025
			c1.1,0,2.198-1.102,2.198-2.2C119.524,124.2,118.427,123.101,117.325,123.101z"/>
		<path fill="#999999" d="M116.775,136.024H104.95c-1.1,0-2.198,1.101-2.198,2.202c0,1.097,1.099,2.198,2.198,2.198h11.825
			c1.1,0,2.2-1.102,2.2-2.198C118.976,136.85,118.149,136.024,116.775,136.024z"/>
	</g>
</g>
</svg>
