<svg xmlns="http://www.w3.org/2000/svg" width="24" height="24" viewBox="0 0 24 24">
  <g id="Group_178" data-name="Group 178" transform="translate(-3472 587)">
    <g id="Group_177" data-name="Group 177" transform="translate(3474.432 -584.973)">
      <path id="Path_70" data-name="Path 70" d="M18.25,10.75V7a3,3,0,0,0-3-3H11.5V5h3.75a2,2,0,0,1,2,2v3.75Z" transform="translate(-2.282 -2.125)" fill="#999"/>
      <path id="Path_71" data-name="Path 71" d="M6.75,17V13.25h-1V17a3,3,0,0,0,3,3H12.5V19H8.75a2,2,0,0,1-2-2Z" transform="translate(-2.282 -2.125)" fill="#999"/>
      <path id="Path_72" data-name="Path 72" d="M2.282,2.125H7.691l2.527,2.644v7.356H2.282ZM4,6.013H8.5v.495H4ZM4,8.194H6.554v.495H4Zm0,2.181H6.554v.5H4Zm0-1.09H8.5V9.78H4ZM4,7.1H8.5V7.6H4ZM9.714,4.971H7.476V2.629H2.786V11.62H9.714V4.971Z" transform="translate(-2.282 -2.125)" fill="#999" fill-rule="evenodd"/>
      <g id="Group_165" data-name="Group 165" transform="translate(11.579 9.624)">
        <path id="Path_73" data-name="Path 73" d="M17.75,11.749a10.444,10.444,0,0,0-2.626.3,3.162,3.162,0,0,0-.851.343.746.746,0,0,0-.412.608v7.5a.746.746,0,0,0,.412.608,3.162,3.162,0,0,0,.851.343,10.445,10.445,0,0,0,2.626.3,10.445,10.445,0,0,0,2.626-.3,3.162,3.162,0,0,0,.851-.343.746.746,0,0,0,.412-.608V13a.746.746,0,0,0-.412-.608,3.162,3.162,0,0,0-.851-.343,10.444,10.444,0,0,0-2.626-.3Zm0,.556a10.059,10.059,0,0,1,2.483.277,2.661,2.661,0,0,1,.694.278.7.7,0,0,1,.1.078l-.009.013a2.712,2.712,0,0,1-1.135.5,9.677,9.677,0,0,1-4.266,0,2.681,2.681,0,0,1-1.133-.5l-.013-.013a.671.671,0,0,1,.1-.078,2.661,2.661,0,0,1,.694-.278,10.059,10.059,0,0,1,2.48-.277Zm3.333,1.289v1.8a.341.341,0,0,0-.065.061,2.712,2.712,0,0,1-1.135.5,9.677,9.677,0,0,1-4.266,0,2.681,2.681,0,0,1-1.133-.5.3.3,0,0,0-.065-.052V13.6a3.9,3.9,0,0,0,1.063.4,10.326,10.326,0,0,0,4.536,0,3.936,3.936,0,0,0,1.065-.4Zm0,2.5v1.8a.341.341,0,0,0-.065.061,2.712,2.712,0,0,1-1.135.5,9.677,9.677,0,0,1-4.266,0,2.681,2.681,0,0,1-1.133-.5.3.3,0,0,0-.065-.052V16.1a3.9,3.9,0,0,0,1.063.4,10.326,10.326,0,0,0,4.536,0,3.937,3.937,0,0,0,1.065-.4Zm0,2.5V20.5a.439.439,0,0,1-.156.139,2.661,2.661,0,0,1-.694.278,10.058,10.058,0,0,1-2.483.277,10.058,10.058,0,0,1-2.483-.277,2.661,2.661,0,0,1-.694-.278.439.439,0,0,1-.156-.139V18.6a3.9,3.9,0,0,0,1.063.4,10.326,10.326,0,0,0,4.536,0,3.937,3.937,0,0,0,1.067-.4Z" transform="translate(-13.861 -11.748)" fill="#999"/>
      </g>
    </g>
    <rect id="Rectangle_29" data-name="Rectangle 29" width="24" height="24" transform="translate(3472 -587)" fill="none"/>
  </g>
</svg>
