<?xml version="1.0" encoding="utf-8"?>
<!-- Generator: Adobe Illustrator 15.0.0, SVG Export Plug-In . SVG Version: 6.00 Build 0)  -->
<!DOCTYPE svg PUBLIC "-//W3C//DTD SVG 1.1//EN" "http://www.w3.org/Graphics/SVG/1.1/DTD/svg11.dtd">
<svg version="1.1" id="Layer_1" xmlns="http://www.w3.org/2000/svg" xmlns:xlink="http://www.w3.org/1999/xlink" x="0px" y="0px"
	 width="200px" height="200px" viewBox="0 0 200 200" enable-background="new 0 0 200 200" xml:space="preserve">
<g>
	<path d="M161.623,70.396c4.998,0,9.064,4.067,9.064,9.064c0,4.996-4.066,9.061-9.064,9.061c-4.997,0-9.061-4.065-9.061-9.061
		C152.563,74.462,156.626,70.396,161.623,70.396 M161.623,68.584c-5.996,0-10.873,4.877-10.873,10.876
		c0,5.996,4.877,10.874,10.873,10.874c5.998,0,10.877-4.877,10.877-10.874C172.5,73.461,167.621,68.584,161.623,68.584
		L161.623,68.584z"/>
	<path fill="#FFFFFF" d="M38.374,112.611c4.372,0,7.931,3.558,7.931,7.933c0,4.37-3.559,7.927-7.931,7.927
		c-4.371,0-7.928-3.557-7.928-7.927C30.445,116.169,34.002,112.611,38.374,112.611 M38.374,109.667
		c-5.996,0-10.874,4.878-10.874,10.877c0,5.995,4.877,10.872,10.874,10.872c5.997,0,10.876-4.877,10.876-10.872
		C49.25,114.545,44.371,109.667,38.374,109.667L38.374,109.667z"/>
	<path fill="#FFFFFF" d="M38.374,153.695c4.372,0,7.931,3.558,7.931,7.933c0,4.371-3.559,7.927-7.931,7.927
		c-4.371,0-7.928-3.556-7.928-7.927C30.445,157.253,34.002,153.695,38.374,153.695 M38.374,150.751
		c-5.996,0-10.874,4.879-10.874,10.877c0,5.996,4.877,10.872,10.874,10.872c5.997,0,10.876-4.876,10.876-10.872
		C49.25,155.63,44.371,150.751,38.374,150.751L38.374,150.751z"/>
	<path fill="#FFFFFF" d="M79.458,67.563c4.372,0,7.931,3.558,7.931,7.932c0,4.371-3.559,7.928-7.931,7.928
		c-4.371,0-7.928-3.557-7.928-7.928C71.53,71.121,75.087,67.563,79.458,67.563 M79.458,64.619c-5.996,0-10.874,4.878-10.874,10.876
		c0,5.996,4.877,10.873,10.874,10.873c5.997,0,10.876-4.876,10.876-10.873C90.334,69.497,85.455,64.619,79.458,64.619L79.458,64.619
		z"/>
	<path fill="#FFFFFF" d="M79.458,30.445c4.372,0,7.931,3.558,7.931,7.932c0,4.372-3.559,7.928-7.931,7.928
		c-4.371,0-7.928-3.556-7.928-7.928C71.53,34.003,75.087,30.445,79.458,30.445 M79.458,27.5c-5.996,0-10.874,4.878-10.874,10.876
		c0,5.996,4.877,10.873,10.874,10.873c5.997,0,10.876-4.876,10.876-10.873C90.334,32.379,85.455,27.5,79.458,27.5L79.458,27.5z"/>
	<path fill="#FFFFFF" d="M120.538,30.445c4.373,0,7.933,3.558,7.933,7.932c0,4.372-3.56,7.928-7.933,7.928
		c-4.369,0-7.927-3.556-7.927-7.928C112.611,34.003,116.169,30.445,120.538,30.445 M120.538,27.5
		c-5.995,0-10.871,4.878-10.871,10.876c0,5.996,4.876,10.873,10.871,10.873c5.999,0,10.878-4.876,10.878-10.873
		C131.416,32.379,126.537,27.5,120.538,27.5L120.538,27.5z"/>
	<path fill="#FFFFFF" d="M161.623,30.445c4.373,0,7.932,3.558,7.932,7.932c0,4.372-3.559,7.928-7.932,7.928
		c-4.37,0-7.928-3.556-7.928-7.928C153.695,34.003,157.253,30.445,161.623,30.445 M161.623,27.5
		c-5.996,0-10.872,4.878-10.872,10.876c0,5.996,4.876,10.873,10.872,10.873c5.998,0,10.877-4.876,10.877-10.873
		C172.5,32.379,167.621,27.5,161.623,27.5L161.623,27.5z"/>
	<path fill="#FFFFFF" d="M161.622,71.529c4.373,0,7.932,3.558,7.932,7.932c0,4.371-3.559,7.928-7.932,7.928
		c-4.37,0-7.928-3.557-7.928-7.928C153.694,75.087,157.252,71.529,161.622,71.529 M161.622,68.584
		c-5.996,0-10.872,4.878-10.872,10.876c0,5.996,4.876,10.873,10.872,10.873c5.998,0,10.877-4.876,10.877-10.873
		C172.499,73.463,167.62,68.584,161.622,68.584L161.622,68.584z"/>
	<path fill="#FFFFFF" d="M120.538,112.611c4.373,0,7.933,3.558,7.933,7.933c0,4.37-3.56,7.927-7.933,7.927
		c-4.369,0-7.927-3.557-7.927-7.927C112.611,116.169,116.169,112.611,120.538,112.611 M120.538,109.667
		c-5.995,0-10.871,4.878-10.871,10.877c0,5.995,4.876,10.872,10.871,10.872c5.999,0,10.878-4.877,10.878-10.872
		C131.416,114.545,126.537,109.667,120.538,109.667L120.538,109.667z"/>
	<path fill="#FFFFFF" d="M120.538,153.695c4.373,0,7.933,3.558,7.933,7.933c0,4.371-3.56,7.927-7.933,7.927
		c-4.369,0-7.927-3.556-7.927-7.927C112.611,157.253,116.169,153.695,120.538,153.695 M120.538,150.751
		c-5.995,0-10.871,4.879-10.871,10.877c0,5.996,4.876,10.872,10.871,10.872c5.999,0,10.878-4.876,10.878-10.872
		C131.416,155.63,126.537,150.751,120.538,150.751L120.538,150.751z"/>
	<path fill="#FFFFFF" d="M79.458,153.695c4.373,0,7.932,3.558,7.932,7.933c0,4.371-3.559,7.927-7.932,7.927
		c-4.37,0-7.928-3.556-7.928-7.927C71.53,157.253,75.087,153.695,79.458,153.695 M79.458,150.751
		c-5.996,0-10.873,4.879-10.873,10.877c0,5.996,4.876,10.872,10.873,10.872c5.998,0,10.876-4.876,10.876-10.872
		C90.334,155.63,85.456,150.751,79.458,150.751L79.458,150.751z"/>
	<path fill="#FFFFFF" d="M162.531,150.795v-19.424c5.571-0.464,9.969-5.14,9.969-10.827c0-5.999-4.879-10.877-10.877-10.877
		c-2.672,0-5.116,0.973-7.012,2.578l-25.774-25.772c1.605-1.894,2.579-4.341,2.579-7.013c0-5.999-4.879-10.876-10.878-10.876
		c-5.995,0-10.871,4.877-10.871,10.876c0,2.671,0.973,5.119,2.578,7.015l-25.774,25.771c-1.896-1.605-4.342-2.578-7.016-2.578
		c-2.671,0-5.118,0.973-7.014,2.578l-25.77-25.773c1.606-1.894,2.579-4.341,2.579-7.014c0-5.693-4.397-10.368-9.97-10.832V49.205
		c5.573-0.464,9.97-5.139,9.97-10.829c0-5.999-4.879-10.876-10.876-10.876c-5.996,0-10.874,4.877-10.874,10.876
		c0,5.69,4.396,10.364,9.967,10.829v19.424c-5.571,0.462-9.967,5.139-9.967,10.83c0,5.996,4.877,10.874,10.874,10.874
		c2.673,0,5.12-0.974,7.016-2.578l25.773,25.773c-1.606,1.895-2.579,4.342-2.579,7.017c0,5.995,4.877,10.872,10.874,10.872
		c5.998,0,10.876-4.877,10.876-10.872c0-2.675-0.974-5.122-2.58-7.017l25.774-25.773c1.894,1.604,4.341,2.578,7.013,2.578
		c2.671,0,5.12-0.974,7.016-2.58l25.773,25.772c-1.606,1.896-2.58,4.344-2.58,7.019c0,5.688,4.397,10.365,9.969,10.827v19.426
		c-5.571,0.461-9.969,5.137-9.969,10.829c0,5.997,4.877,10.874,10.873,10.874c5.998,0,10.877-4.877,10.877-10.874
		C172.5,155.934,168.103,151.26,162.531,150.795z"/>
</g>
</svg>
