<?xml version="1.0" encoding="utf-8"?>
<!-- Generator: Adobe Illustrator 15.0.0, SVG Export Plug-In . SVG Version: 6.00 Build 0)  -->
<!DOCTYPE svg PUBLIC "-//W3C//DTD SVG 1.1//EN" "http://www.w3.org/Graphics/SVG/1.1/DTD/svg11.dtd">
<svg version="1.1" id="Layer_1" xmlns="http://www.w3.org/2000/svg" xmlns:xlink="http://www.w3.org/1999/xlink" x="0px" y="0px"
	 width="200px" height="200px" viewBox="0 0 200 200" enable-background="new 0 0 200 200" xml:space="preserve">
<g>
	<path fill="#999999" d="M124.892,68.021c0-13.785-11.214-25-25-25c-13.785,0-25,11.215-25,25s11.216,25,25,25
		C113.678,93.021,124.892,81.805,124.892,68.021z M99.892,89.516c-11.916,0-21.495-9.58-21.495-21.496s9.58-21.496,21.495-21.496
		c11.916,0,21.496,9.58,21.496,21.496S111.808,89.516,99.892,89.516z"/>
	<path fill="#999999" d="M154.01,155.293v-8.771h-27.808v-7.271h5.775v-14.975h-5.775v-10.053H101.39v-14.117
		c1.068,0,2.139-0.214,3.209-0.214l4.491,6.845l11.552-4.922l-1.711-7.913c2.565-1.925,4.705-4.064,6.631-6.631l7.914,1.711
		l4.705-11.551l-6.845-4.278c0.429-3.208,0.429-6.203,0-9.412l6.845-4.492l-4.918-11.551l-7.914,1.711
		c-1.927-2.567-4.065-4.706-6.633-6.631l1.711-7.914l-11.551-4.704l-4.277,6.845c-2.996-0.428-6.204-0.428-9.413,0l-4.492-6.845
		l-11.765,4.492l1.711,7.915c-2.567,1.925-4.706,4.064-6.631,6.631l-7.7-1.711l-4.706,11.551l6.845,4.278
		c-0.427,2.995-0.427,6.203,0,9.411l-6.845,4.492l4.92,11.551l7.914-1.711c1.925,2.566,4.064,4.706,6.631,6.631l-1.711,7.914
		l11.551,4.707l4.278-6.845c1.07,0.214,1.925,0.214,2.995,0.214v14.117H73.796v10.055h-5.775v14.973h5.775v7.273H45.989v8.77H40
		v14.973h14.973v-14.973h-5.989v-5.563h49.198v5.563h-5.776v14.973h14.973v-14.973h-5.776v-5.563h49.198v5.563h-5.774v14.973H160
		v-14.973h-5.989L154.01,155.293L154.01,155.293z M94.972,96.255l-1.069-0.214l-4.064,6.416l-6.631-2.78l1.498-7.486l-0.855-0.642
		c-2.781-1.925-5.348-4.278-7.272-7.272l-0.642-0.856l-7.487,1.711l-2.781-6.631l6.417-4.064l-0.214-1.069
		c-0.642-3.422-0.642-6.845,0-10.267l0.214-1.07l-6.417-4.064l2.781-6.631l7.487,1.498l0.642-0.856
		c1.925-2.78,4.492-5.348,7.272-7.272l0.855-0.642l-1.711-7.486l6.631-2.781l4.064,6.417l0.855-0.428
		c3.423-0.642,6.845-0.642,10.269,0L105.882,40l4.063-6.417l6.633,2.781l-1.498,7.487l0.855,0.642
		c2.994,1.925,5.348,4.492,7.271,7.272l0.643,0.856l7.486-1.711l2.781,6.631l-6.418,4.064l0.214,1.07
		c0.642,3.422,0.642,6.844,0,10.267l-0.214,1.07l6.418,4.064l-2.781,6.631l-7.486-1.498l-0.643,0.856
		c-1.925,2.78-4.277,5.347-7.271,7.272l-0.855,0.642l1.712,7.487l-6.632,2.78l-4.063-6.416l-0.855,0.428
		C101.815,96.896,98.395,96.896,94.972,96.255z M51.764,166.844h-8.556v-8.557h8.556V166.844z M104.17,166.844h-8.556v-8.557h8.556
		V166.844z M128.769,135.826h-8.556v-8.557h8.556V135.826z M71.015,127.271h8.556v8.557h-8.556V127.271z M77.004,139.035h5.775
		v-14.973h-5.775v-6.846h45.989v6.846h-5.774v14.973h5.774v7.273H77.004V139.035z M156.576,166.844h-8.556v-8.557h8.556V166.844z"/>
	<g>
		<path fill="#32C5D2" stroke="#32C5D2" stroke-miterlimit="10" d="M99.892,64.688c-5.608,0-10-2.197-10-5c0-2.804,4.392-5,10-5
			c5.607,0,10,2.196,10,5C109.892,62.49,105.499,64.688,99.892,64.688z M99.892,55.797c-5.316,0-8.889,2.011-8.889,3.889
			c0,1.877,3.573,3.889,8.889,3.889c5.317,0,8.888-2.011,8.888-3.889S105.209,55.797,99.892,55.797z"/>
		<circle fill="#32C5D2" stroke="#32C5D2" stroke-miterlimit="10" cx="92.67" cy="70.798" r="0.556"/>
		<circle fill="#32C5D2" stroke="#32C5D2" stroke-miterlimit="10" cx="92.67" cy="65.242" r="0.555"/>
		<circle fill="#32C5D2" stroke="#32C5D2" stroke-miterlimit="10" cx="92.67" cy="76.354" r="0.556"/>
		<path fill="#32C5D2" stroke="#32C5D2" stroke-miterlimit="10" d="M99.892,81.354c-5.608,0-10-2.196-10-5V59.688h1.111v16.666
			c0,1.878,3.573,3.889,8.889,3.889c5.317,0,8.888-2.011,8.888-3.889V59.778h1.111v16.574
			C109.892,79.157,105.499,81.354,99.892,81.354z"/>
		<path fill="#32C5D2" stroke="#32C5D2" stroke-miterlimit="10" d="M99.892,75.797c-5.608,0-10-2.196-10-5h1.111
			c0,1.877,3.573,3.889,8.889,3.889c5.317,0,8.888-2.012,8.888-3.889h1.111C109.892,73.602,105.499,75.797,99.892,75.797z"/>
		<path fill="#32C5D2" stroke="#32C5D2" stroke-miterlimit="10" d="M99.892,70.242c-5.608,0-10-2.196-10-5h1.111
			c0,1.878,3.573,3.889,8.889,3.889c5.317,0,8.888-2.011,8.888-3.889h1.111C109.892,68.045,105.499,70.242,99.892,70.242z"/>
	</g>
</g>
</svg>
