<?xml version="1.0" encoding="utf-8"?>
<!-- Generator: Adobe Illustrator 15.0.0, SVG Export Plug-In . SVG Version: 6.00 Build 0)  -->
<!DOCTYPE svg PUBLIC "-//W3C//DTD SVG 1.1//EN" "http://www.w3.org/Graphics/SVG/1.1/DTD/svg11.dtd">
<svg version="1.1" id="Layer_1" xmlns="http://www.w3.org/2000/svg" xmlns:xlink="http://www.w3.org/1999/xlink" x="0px" y="0px"
	 width="200px" height="200px" viewBox="0 0 200 200" enable-background="new 0 0 200 200" xml:space="preserve">
<g>
	<path fill="#999999" d="M59.123,85.858c-1.008,0-1.827-0.756-1.891-1.764c-0.063-0.693-0.063-1.386-0.063-2.079
		c0-1.89,0.189-3.779,0.504-5.606c0.189-1.008,1.197-1.7,2.205-1.512c1.008,0.189,1.7,1.197,1.512,2.205
		c-0.315,1.638-0.441,3.275-0.441,4.977c0,0.63,0,1.26,0.063,1.826c0.063,1.071-0.692,1.953-1.764,2.016
		C59.185,85.858,59.185,85.858,59.123,85.858z"/>
	<path fill="#999999" d="M61.894,71.307c-0.252,0-0.567-0.063-0.819-0.188c-0.944-0.441-1.323-1.575-0.882-2.52
		c5.166-10.835,16.252-17.827,28.221-17.827c1.07,0,2.142,0.063,3.213,0.189c1.008,0.126,1.764,1.008,1.7,2.078
		c-0.126,1.008-1.008,1.764-2.079,1.701c-0.944-0.063-1.889-0.126-2.834-0.126c-10.52,0-20.283,6.173-24.819,15.685
		C63.279,70.866,62.586,71.307,61.894,71.307z"/>
	<path fill="#32C5D2" d="M166.713,61.417c-0.756-0.756-1.89-0.756-2.646-0.063l-10.835,10.457c-0.314-0.063-0.629-0.126-1.008-0.126
		c-0.188,0-0.314,0-0.504,0.063l-1.638-2.079c0.126-0.378,0.252-0.818,0.252-1.26c0-2.016-1.638-3.716-3.716-3.716
		c-2.079,0-3.717,1.638-3.717,3.716c0,0.315,0.063,0.63,0.125,0.945l-3.652,3.653c-0.756,0.756-0.756,1.953,0,2.646
		c0.377,0.378,0.881,0.567,1.322,0.567s0.945-0.189,1.322-0.567L145.674,72c0.314,0.063,0.63,0.126,0.945,0.126
		c0.188,0,0.377,0,0.566-0.063l1.574,2.016c-0.125,0.378-0.252,0.818-0.252,1.322c0,2.016,1.639,3.717,3.717,3.717
		c2.079,0,3.717-1.638,3.717-3.717c0-0.314-0.063-0.566-0.126-0.818l10.835-10.457C167.469,63.37,167.469,62.173,166.713,61.417z"/>
	<path fill="#999999" d="M88.54,44.221c-21.292,0-38.552,17.322-38.552,38.551c0,21.292,17.323,38.552,38.552,38.552
		c21.228,0,38.551-17.323,38.551-38.552C127.154,61.543,109.831,44.221,88.54,44.221z M88.54,117.606
		c-19.213,0-34.772-15.622-34.772-34.771S69.39,48.063,88.54,48.063c19.212,0,34.772,15.622,34.772,34.771
		S107.752,117.606,88.54,117.606z"/>
	<path fill="#32C5D2" d="M109.264,61.354l-7.811,9.008c-2.898-1.827-6.363-2.897-10.079-2.897c-10.52,0-19.15,8.566-19.15,19.149
		c0,5.606,2.457,10.709,6.299,14.173l-4.912,6.426c-0.631,0.818-0.504,2.016,0.377,2.646c0.315,0.252,0.756,0.378,1.135,0.378
		c0.566,0,1.133-0.252,1.512-0.756l4.913-6.426c2.835,1.701,6.173,2.709,9.764,2.709c10.52,0,19.15-8.566,19.15-19.149
		c0-5.48-2.33-10.457-6.047-13.921l7.686-8.882c0.692-0.819,0.566-1.953-0.189-2.646C111.154,60.473,109.957,60.599,109.264,61.354z
		 M106.744,86.614c0,8.44-6.866,15.37-15.37,15.37c-8.441,0-15.371-6.866-15.371-15.37s6.867-15.37,15.371-15.37
		C99.878,71.307,106.744,78.173,106.744,86.614z"/>
	<path fill="#32C5D2" d="M98.051,82.079l-8.882,8.882l-3.527-3.528c-0.756-0.756-1.953-0.756-2.646,0
		c-0.756,0.757-0.756,1.953,0,2.646l4.852,4.85c0.377,0.378,0.818,0.567,1.322,0.567s1.008-0.189,1.322-0.567l10.268-10.268
		c0.756-0.756,0.756-1.952,0-2.646C100.003,81.323,98.807,81.323,98.051,82.079z"/>
	<path fill="#32C5D2" d="M75.185,131.527c-0.818-0.629-2.016-0.44-2.646,0.379l-13.04,17.7c-0.314,0-0.629,0.063-0.881,0.126
		l-3.15-3.149c0.063-0.315,0.126-0.63,0.126-0.944c0-2.017-1.638-3.717-3.716-3.717c-2.079,0-3.717,1.638-3.717,3.717
		c0,0.377,0.063,0.692,0.126,1.008l-4.725,5.039c-1.071-0.631-2.268-0.945-3.591-0.945c-3.969,0-7.244,3.213-7.244,7.244
		c0,3.969,3.213,7.244,7.244,7.244s7.244-3.213,7.244-7.244c0-1.322-0.378-2.582-1.008-3.59l4.787-5.104
		c0.252,0.063,0.504,0.063,0.819,0.063s0.63-0.063,0.944-0.126l3.15,3.15c-0.063,0.314-0.126,0.629-0.126,0.944
		c0,2.016,1.638,3.716,3.716,3.716c2.079,0,3.717-1.637,3.717-3.716c0-0.63-0.189-1.26-0.441-1.764l12.788-17.323
		C76.193,133.354,76.003,132.158,75.185,131.527z M40.036,161.449c-1.89,0-3.465-1.575-3.465-3.465s1.575-3.465,3.465-3.465
		s3.464,1.575,3.464,3.465S41.925,161.449,40.036,161.449z"/>
	<path fill="#999999" d="M164.508,145.575l-36.031-36.032c5.166-7.621,8.127-16.818,8.127-26.708
		c0-26.52-21.544-48.063-48.064-48.063c-26.521,0-48.063,21.544-48.063,48c0,26.52,21.543,48.063,48.063,48.063
		c9.89,0,19.087-3.023,26.708-8.126l9.387,9.386l0,0l0,0l26.645,26.646c1.828,1.827,4.221,2.709,6.615,2.709
		c2.394,0,4.787-0.882,6.613-2.709C168.162,155.15,168.162,149.229,164.508,145.575z M88.54,127.118
		c-24.44,0-44.284-19.905-44.284-44.283c0-24.441,19.906-44.284,44.284-44.284c24.378,0,44.284,19.906,44.284,44.284
		C132.887,107.213,112.98,127.118,88.54,127.118z M118.398,120.504c2.897-2.33,5.543-4.977,7.873-7.873l3.088,3.086l-7.875,7.874
		L118.398,120.504z M124.131,126.236l7.873-7.874l1.891,1.89l-7.875,7.875L124.131,126.236z M161.863,156.095
		c-2.143,2.142-5.67,2.142-7.875,0l-25.322-25.323l7.874-7.873l25.323,25.322C164.004,150.426,164.004,153.953,161.863,156.095z"/>
</g>
</svg>
