<svg xmlns="http://www.w3.org/2000/svg" width="24" height="24" viewBox="0 0 24 24">
  <g id="Group_133" data-name="Group 133" transform="translate(-31.511)">
    <g id="Group_131" data-name="Group 131" transform="translate(31.511)">
      <g id="Group_130" data-name="Group 130" transform="translate(0)">
        <path id="Path_58" data-name="Path 58" d="M31.511,0h24V24h-24Z" transform="translate(-31.511)" fill="none"/>
      </g>
    </g>
    <g id="Group_132" data-name="Group 132" transform="translate(33.511 2)">
      <path id="Path_59" data-name="Path 59" d="M50.511,2c-1.491,0-3,.458-3,1.333v5c0,.876,1.509,1.334,3,1.334V11h-.667v.667h1a.334.334,0,0,0,.333-.334v-1.7c1.243-.116,2.334-.558,2.334-1.3v-5C53.511,2.458,52,2,50.511,2Zm0,7C49,9,48.177,8.527,48.177,8.333v-.8a6.063,6.063,0,0,0,4.667,0v.8C52.844,8.527,52.026,9,50.511,9Zm0-1.667c-1.516,0-2.334-.473-2.334-.666v-.8a6.078,6.078,0,0,0,4.667,0v.8C52.844,6.86,52.026,7.333,50.511,7.333Zm0-1.666C49,5.667,48.177,5.194,48.177,5V4.2a5.282,5.282,0,0,0,2.334.467A5.281,5.281,0,0,0,52.844,4.2V5c0,.194-.818.667-2.333.667Zm0-1.667C49,4,48.177,3.527,48.177,3.333s.818-.666,2.334-.666,2.333.473,2.333.666S52.026,4,50.511,4Z" transform="translate(-33.511 -2)" fill="#999"/>
      <path id="Path_60" data-name="Path 60" d="M35.844,9.635v1.7a.334.334,0,0,0,.333.334h7v1.67c-1.625.037-4,.347-4,1.33v6C39.177,21.719,41.9,22,43.511,22s4.333-.281,4.333-1.333v-6c0-.983-2.375-1.293-4-1.33v-1.67h1.333V11H43.844V9.658c1.374-.063,2.667-.515,2.667-1.325v-5c0-.875-1.51-1.333-3-1.333s-3,.458-3,1.333v5c0,.811,1.292,1.262,2.666,1.325V11H36.511V9.667c1.491,0,3-.458,3-1.334v-5C39.511,2.458,38,2,36.511,2s-3,.458-3,1.333v5C33.511,9.077,34.6,9.519,35.844,9.635Zm4,5.8A10.141,10.141,0,0,0,43.511,16a10.091,10.091,0,0,0,3.668-.568v1.209c-.118.248-1.445.689-3.67.689s-3.553-.442-3.667-.666Zm0,2A10.141,10.141,0,0,0,43.511,18a10.091,10.091,0,0,0,3.668-.568v1.209c-.118.248-1.445.689-3.67.689s-3.553-.442-3.667-.666Zm3.667,3.9c-2.225,0-3.553-.442-3.667-.666V19.435A10.141,10.141,0,0,0,43.511,20a10.091,10.091,0,0,0,3.668-.568v1.209c-.116.251-1.443.692-3.668.692Zm3.658-6.666c-.188.251-1.5.666-3.656.666s-3.469-.415-3.656-.666c.177-.238,1.366-.623,3.322-.663v.663h.666V14C45.8,14.044,46.989,14.429,47.169,14.667Zm-3.656-12c1.515,0,2.333.473,2.333.666S45.028,4,43.513,4s-2.336-.473-2.336-.667.818-.666,2.334-.666ZM41.177,4.2a5.282,5.282,0,0,0,2.334.467A5.281,5.281,0,0,0,45.844,4.2V5c0,.194-.818.667-2.333.667S41.177,5.194,41.177,5Zm0,1.667a6.078,6.078,0,0,0,4.667,0v.8c0,.193-.818.666-2.333.666s-2.334-.473-2.334-.666Zm0,2.466v-.8a6.064,6.064,0,0,0,4.667,0v.8c0,.194-.818.667-2.333.667s-2.334-.473-2.334-.667ZM36.511,9C35,9,34.177,8.527,34.177,8.333v-.8a6.063,6.063,0,0,0,4.667,0v.8C38.844,8.527,38.026,9,36.511,9Zm0-6.333c1.515,0,2.333.473,2.333.666S38.026,4,36.511,4s-2.334-.473-2.334-.667.818-.666,2.334-.666ZM34.177,4.2a5.282,5.282,0,0,0,2.334.467A5.281,5.281,0,0,0,38.844,4.2V5c0,.194-.818.667-2.333.667S34.177,5.194,34.177,5Zm0,1.667a6.078,6.078,0,0,0,4.667,0v.8c0,.193-.818.666-2.333.666s-2.334-.473-2.334-.666Z" transform="translate(-33.511 -2)" fill="#999"/>
      <path id="Path_61" data-name="Path 61" d="M48.511,11h.666v.667h-.666Z" transform="translate(-33.511 -2)" fill="#999"/>
      <path id="Path_62" data-name="Path 62" d="M47.177,11h.667v.667h-.667Z" transform="translate(-33.511 -2)" fill="#999"/>
      <path id="Path_63" data-name="Path 63" d="M45.844,11h.667v.667h-.667Z" transform="translate(-33.511 -2)" fill="#999"/>
    </g>
  </g>
</svg>
