<?xml version="1.0" encoding="utf-8"?>
<!-- Generator: Adobe Illustrator 15.0.0, SVG Export Plug-In . SVG Version: 6.00 Build 0)  -->
<!DOCTYPE svg PUBLIC "-//W3C//DTD SVG 1.1//EN" "http://www.w3.org/Graphics/SVG/1.1/DTD/svg11.dtd">
<svg version="1.1" id="Layer_1" xmlns="http://www.w3.org/2000/svg" xmlns:xlink="http://www.w3.org/1999/xlink" x="0px" y="0px"
	 width="200px" height="200px" viewBox="0 0 200 200" enable-background="new 0 0 200 200" xml:space="preserve">
<g>
	<path fill="#999999" d="M64.164,60.452v62.559c0,8.556,18.358,13.033,36.493,13.033c18.134,0,36.493-4.478,36.493-13.032v-62.56
		c0-8.556-18.359-13.033-36.493-13.033C82.522,47.419,64.164,51.896,64.164,60.452z M131.938,102.158
		c0,2.758-11.877,7.818-31.279,7.818c-19.403,0-31.279-5.063-31.279-7.818V88.352c6.736,3.948,19.055,5.986,31.279,5.986
		c12.224,0,24.545-2.037,31.279-5.986V102.158z M131.938,81.305c0,2.758-11.877,7.82-31.279,7.82
		c-19.403,0-31.279-5.063-31.279-7.82V67.5c6.736,3.947,19.055,5.986,31.279,5.986c12.224,0,24.545-2.038,31.279-5.986V81.305z
		 M100.656,130.831c-19.403,0-31.279-5.063-31.279-7.82v-13.806c6.736,3.947,19.055,5.984,31.279,5.984
		c12.224,0,24.545-2.037,31.279-5.984v13.806C131.938,125.77,120.061,130.831,100.656,130.831z M100.656,52.632
		c19.404,0,31.279,5.062,31.279,7.82c0,2.758-11.875,7.82-31.279,7.82c-19.403,0-31.279-5.062-31.279-7.82
		C69.377,57.694,81.253,52.632,100.656,52.632z"/>
	<g>
		<path fill="#999999" d="M39.5,91.602v46.919c0,6.416,13.769,9.772,27.37,9.772c13.6,0,27.37-3.356,27.37-9.772V91.602
			c0-6.417-13.77-9.775-27.37-9.775C53.269,81.826,39.5,85.184,39.5,91.602z M90.33,122.88c0,2.069-8.908,5.865-23.46,5.865
			c-14.553,0-23.46-3.796-23.46-5.865v-10.354c5.052,2.964,14.292,4.492,23.46,4.492s18.408-1.528,23.46-4.492V122.88z
			 M90.33,107.241c0,2.067-8.908,5.864-23.46,5.864c-14.553,0-23.46-3.797-23.46-5.864V96.887c5.052,2.96,14.292,4.489,23.46,4.489
			s18.408-1.528,23.46-4.489V107.241z M66.87,85.736c14.552,0,23.46,3.796,23.46,5.865c0,2.067-8.908,5.864-23.46,5.864
			c-14.553,0-23.46-3.797-23.46-5.864C43.41,89.533,52.317,85.736,66.87,85.736z M66.87,144.833c-14.553,0-23.46-3.797-23.46-5.865
			v-10.354c5.052,2.963,14.292,4.488,23.46,4.488c9.169,0,18.408-1.525,23.46-4.488v10.354
			C90.33,141.036,81.422,144.833,66.87,144.833z"/>
		<path fill="#FFFFFF" d="M66.87,144.832c-14.553,0-23.46-3.797-23.46-5.865v-10.354c5.052,2.961,14.292,4.488,23.46,4.488
			c9.169,0,18.408-1.527,23.46-4.488v10.354C90.33,141.035,81.422,144.832,66.87,144.832z"/>
		<path fill="#FFFFFF" d="M66.869,128.611c-14.553,0-23.46-3.797-23.46-5.864v-10.354c5.052,2.961,14.292,4.488,23.46,4.488
			c9.17,0,18.409-1.527,23.46-4.488v10.354C90.33,124.814,81.422,128.611,66.869,128.611z"/>
		<path fill="#FFFFFF" d="M66.869,113.104c-14.553,0-23.46-3.797-23.46-5.863V96.884c5.052,2.961,14.292,4.488,23.46,4.488
			c9.17,0,18.409-1.527,23.46-4.488v10.354C90.33,109.307,81.422,113.104,66.869,113.104z"/>
		<path fill="#FFFFFF" d="M66.87,85.702c14.552,0,23.46,3.795,23.46,5.864s-8.908,5.864-23.46,5.864
			c-14.553,0-23.46-3.795-23.46-5.864S52.317,85.702,66.87,85.702z"/>
	</g>
	<path fill="#FFFFFF" d="M80.442,127.789c0,0,26.977,0.912,42.289-10.025c7.474,3.101,14.764,9.297,14.764,9.297l-1.346,8.265
		l-4.67,9.586c0,0-11.301,5.797-11.848,6.188c-0.546,0.389-9.479,0.935-9.479,0.935l-14.946-7.121
		C95.207,144.909,78.072,134.352,80.442,127.789z"/>
	<g>
		<g>
			<path fill="#32C5D2" d="M153.859,67.708l-20.469,39.683c0.118,0.032,0.233,0.067,0.353,0.104
				c0.864,0.278,1.676,0.616,2.432,1.016c0.913,0.479,1.744,1.048,2.484,1.695l20.509-39.762c0.755-1.465,0.18-3.266-1.286-4.022
				C156.415,65.667,154.615,66.243,153.859,67.708z"/>
			<path fill="#32C5D2" d="M86.239,141.302c3.254,2.935,7.249,5.492,11.875,7.601c7.813,3.563,14.687,4.611,14.976,4.656
				c0.008,0.002,0.016,0.002,0.023,0.004c0.09,0.014,0.183,0.021,0.273,0.021c0.021,0,0.045-0.001,0.065-0.003
				c8.218-0.27,14.623-3.004,19.036-8.135c5.806-6.744,7.902-16.889,7.494-25.609c-0.115-2.496-1.006-5.045-2.752-6.861
				c-0.129-0.138-0.265-0.27-0.401-0.396c-0.612-0.561-1.297-1.021-2.024-1.41c-0.634-0.335-1.298-0.607-1.979-0.827
				c-0.283-0.092-0.564-0.159-0.85-0.212c-0.392-0.068-0.783-0.104-1.172-0.104c-2.881,0-5.645,1.813-7.754,3.662
				c-2.179,1.91-4.391,3.992-6.853,5.623c-2.697,1.787-5.659,2.688-8.743,3.563c-3.982,1.135-8.08,1.858-12.193,2.319
				c-3.658,0.412-7.364,0.648-11.06,0.648c-1.466,0-2.932-0.035-4.391-0.115c-0.084-0.006-0.169-0.01-0.255-0.016
				c-0.046-0.004-0.094-0.006-0.14-0.006c-0.628,0-1.225,0.293-1.61,0.794c-0.413,0.541-0.529,1.251-0.308,1.896
				C79.168,133.232,82.106,137.577,86.239,141.302z M83.397,129.886c0,0,0.001,0,0.002,0c0.206,0.003,0.418,0.003,0.636,0.003
				c2.987,0,7.15-0.134,11.82-0.664c9.879-1.125,17.936-3.531,24.034-7.164c0.174-0.104,0.367-0.156,0.563-0.156
				c0.185,0,0.368,0.049,0.534,0.14c3.545,1.947,9.053,4.835,12.979,6.235c0.484,0.175,0.785,0.66,0.729,1.174
				c-0.471,4.098-1.801,9.313-5.297,13.363c-3.578,4.15-8.866,6.401-15.719,6.694c-0.021,0.001-0.043,0.001-0.063,0.001
				c-0.091,0-0.179-0.008-0.265-0.021c-0.691-0.121-2.396-0.449-4.683-1.079c0.649-0.288,1.325-0.634,2.007-1.019
				c0.609-0.346,1.227-0.721,1.833-1.111c1.886-1.217,3.709-2.598,5.13-3.73c0.326-0.263,0.021-0.773-0.367-0.611
				c-3.104,1.303-7.067,2.172-10.613,2.746c-1.115,0.178-2.188,0.328-3.182,0.453c-1.16,0.146-2.211,0.26-3.086,0.342
				c-0.227-0.102-0.457-0.203-0.685-0.309c-1.976-0.902-3.817-1.896-5.52-2.963c0.744-0.066,1.523-0.191,2.315-0.354
				c0.72-0.146,1.448-0.322,2.164-0.519c2.109-0.571,4.115-1.297,5.486-1.83c0.262-0.103,0.17-0.489-0.109-0.463
				c-2.497,0.24-5.961,0.263-8.92,0.218c-0.969-0.013-1.883-0.033-2.692-0.058c-1.062-0.03-1.942-0.063-2.52-0.087
				c-0.34-0.285-0.674-0.57-0.995-0.864c-0.418-0.377-0.819-0.762-1.209-1.153c0.6-0.063,1.224-0.154,1.857-0.277
				c0.591-0.112,1.19-0.25,1.788-0.397c2.355-0.595,4.652-1.419,6.174-2.011c0.26-0.102,0.167-0.49-0.111-0.463
				c-2.344,0.225-5.541,0.258-8.372,0.226c-0.697-0.008-1.373-0.021-2.008-0.034c-0.708-0.016-1.363-0.033-1.944-0.053
				c-0.822-1.093-1.549-2.227-2.177-3.402C82.719,130.324,82.986,129.886,83.397,129.886z"/>
			<circle fill="#32C5D2" cx="148.909" cy="140.116" r="4.793"/>
			<circle fill="#32C5D2" cx="138.57" cy="151.095" r="2.422"/>
			<circle fill="#32C5D2" cx="151.703" cy="150.536" r="2.422"/>
		</g>
	</g>
</g>
</svg>
