<?xml version="1.0" encoding="utf-8"?>
<!-- Generator: Adobe Illustrator 21.0.0, SVG Export Plug-In . SVG Version: 6.00 Build 0)  -->
<svg version="1.1" id="Layer_1" xmlns="http://www.w3.org/2000/svg" xmlns:xlink="http://www.w3.org/1999/xlink" x="0px" y="0px"
	 viewBox="0 0 200 200" style="enable-background:new 0 0 200 200;" xml:space="preserve">
<style type="text/css">
	.st0{fill:none;stroke:#3DCFCF;stroke-width:4;stroke-miterlimit:10;}
	.st1{fill:none;stroke:#999999;stroke-width:4;stroke-miterlimit:10;}
</style>
<g>
	<circle class="st0" cx="100" cy="70.4" r="20.4"/>
	<circle class="st1" cx="145.9" cy="75.1" r="15.2"/>
	<path class="st1" d="M176.2,126.3c-3-19.2-13.1-30.6-30.3-30.6c-6.6,0-12,1.6-16.5,4.8c0.5,0.5,1.1,1.1,1.8,1.6
		c7.3,7.7,12.4,18.8,14.7,33c0,0.5,0.2,1.1,0.2,1.4C162.7,136.7,177.4,133.9,176.2,126.3z"/>
	<circle class="st1" cx="54.1" cy="75.1" r="15.2"/>
	<path class="st1" d="M69,102.2c0.5-0.5,1.1-1.1,1.6-1.6c-4.5-3.2-10-4.8-16.5-4.8c-17,0-27.1,11.3-30.3,30.6
		c-1.3,7.5,13.6,10.4,30.3,10.4c0-0.5,0-1.1,0.2-1.4C56.5,121.1,61.5,110,69,102.2z"/>
	<path class="st0" d="M100,150c-22.4,0-42.1-3.9-40.5-13.8c4.3-25.8,17.7-40.9,40.5-40.9s36.2,15.2,40.5,40.9
		C142.1,146.1,122.4,150,100,150z"/>
</g>
</svg>
