<svg xmlns="http://www.w3.org/2000/svg" width="24" height="24" viewBox="0 0 24 24">
  <g id="Group_40" data-name="Group 40" transform="translate(0 0.365)">
    <rect id="Rectangle_12" data-name="Rectangle 12" width="24" height="24" transform="translate(0 -0.365)" fill="none"/>
    <g id="Group_39" data-name="Group 39" transform="translate(2 3)">
      <path id="Path_32" data-name="Path 32" d="M56,11V3H49V6H43V3H36v8h7V8h2V18h4v3h7V13H49v3H47V8h2v3ZM41,9H38V5h3Zm10,6h3v4H51ZM51,5h3V9H51Z" transform="translate(-36 -3)" fill="#32c5d2"/>
      <path id="Path_33" data-name="Path 33" d="M41,5V9H38V5h3" transform="translate(-36 -3)" fill="#32c5d2" opacity="0.3"/>
      <path id="Path_34" data-name="Path 34" d="M54,5V9H51V5h3" transform="translate(-36 -3)" fill="#32c5d2" opacity="0.3"/>
      <path id="Path_35" data-name="Path 35" d="M54,15v4H51V15h3" transform="translate(-36 -3)" fill="#32c5d2" opacity="0.3"/>
    </g>
  </g>
</svg>
