<?xml version="1.0" encoding="utf-8"?>
<!-- Generator: Adobe Illustrator 15.0.0, SVG Export Plug-In . SVG Version: 6.00 Build 0)  -->
<!DOCTYPE svg PUBLIC "-//W3C//DTD SVG 1.1//EN" "http://www.w3.org/Graphics/SVG/1.1/DTD/svg11.dtd">
<svg version="1.1" id="Layer_1" xmlns="http://www.w3.org/2000/svg" xmlns:xlink="http://www.w3.org/1999/xlink" x="0px" y="0px"
	 width="200px" height="200px" viewBox="0 0 200 200" enable-background="new 0 0 200 200" xml:space="preserve">
<g>
	<path fill="#FFFFFF" d="M97.802,114.9c-0.479,0.029-0.758,0.334-0.924,0.687l-0.73,2.578c-0.464,0.157-0.909,0.351-1.338,0.565
		l-2.355-1.313c-0.361-0.2-0.856-0.133-1.146,0.163l-2.444,2.441c-0.285,0.293-0.349,0.777-0.148,1.137l1.296,2.337
		c-0.218,0.437-0.408,0.89-0.565,1.356l-2.578,0.744c-0.392,0.115-0.684,0.502-0.686,0.909v3.472
		c-0.003,0.412,0.291,0.81,0.686,0.924l2.578,0.729c0.157,0.47,0.346,0.918,0.565,1.354l-1.296,2.339
		c-0.2,0.354-0.137,0.84,0.148,1.132l2.444,2.443c0.29,0.295,0.784,0.367,1.146,0.164l2.338-1.295
		c0.437,0.219,0.889,0.39,1.355,0.549l0.73,2.576c0.11,0.398,0.51,0.705,0.924,0.703h3.457c0.415,0,0.813-0.3,0.923-0.703
		l0.731-2.576c0.469-0.159,0.92-0.334,1.356-0.549l2.336,1.295c0.361,0.203,0.857,0.131,1.148-0.164l2.439-2.443
		c0.287-0.292,0.351-0.775,0.147-1.132l-1.294-2.339c0.221-0.438,0.407-0.887,0.567-1.354l2.573-0.729
		c0.396-0.116,0.69-0.512,0.688-0.924v-3.472c-0.002-0.405-0.295-0.794-0.688-0.909l-2.573-0.744
		c-0.159-0.469-0.351-0.922-0.567-1.356l1.294-2.337c0.201-0.357,0.138-0.844-0.147-1.137l-2.439-2.441
		c-0.291-0.296-0.787-0.363-1.148-0.163l-2.354,1.313c-0.431-0.217-0.873-0.408-1.338-0.565l-0.731-2.578
		c-0.115-0.396-0.512-0.69-0.923-0.687H97.802L97.802,114.9z M98.517,116.811h2.025l0.655,2.309
		c0.092,0.314,0.354,0.572,0.672,0.654c0.703,0.193,1.369,0.479,1.994,0.836c0.289,0.16,0.656,0.16,0.938,0l2.104-1.176l1.429,1.43
		l-1.175,2.115c-0.158,0.285-0.15,0.657,0.014,0.938c0.354,0.628,0.628,1.293,0.82,1.996c0.09,0.315,0.354,0.571,0.67,0.657
		l2.309,0.67v2.011l-2.309,0.671c-0.318,0.087-0.584,0.352-0.67,0.669c-0.192,0.702-0.467,1.356-0.82,1.982
		c-0.164,0.28-0.172,0.649-0.014,0.938l1.175,2.113l-1.429,1.433l-2.104-1.18c-0.282-0.16-0.649-0.16-0.938,0
		c-0.625,0.357-1.291,0.643-1.994,0.835c-0.316,0.085-0.58,0.345-0.672,0.656l-0.655,2.323h-2.025l-0.657-2.323
		c-0.09-0.313-0.354-0.571-0.669-0.656c-0.703-0.192-1.372-0.478-1.997-0.835c-0.285-0.16-0.653-0.16-0.938,0l-2.102,1.18
		l-1.431-1.433l1.175-2.113c0.157-0.286,0.152-0.657-0.014-0.938c-0.355-0.626-0.625-1.28-0.82-1.982
		c-0.085-0.317-0.35-0.582-0.669-0.669l-2.308-0.671v-2.011l2.308-0.67c0.316-0.086,0.579-0.342,0.669-0.656
		c0.195-0.704,0.465-1.369,0.819-1.997c0.167-0.28,0.173-0.651,0.015-0.938l-1.175-2.115l1.431-1.43l2.102,1.176
		c0.285,0.16,0.652,0.16,0.938,0c0.625-0.354,1.294-0.643,1.997-0.836c0.315-0.082,0.579-0.34,0.669-0.654L98.517,116.811
		L98.517,116.811z M99.53,123.008c-2.886,0-5.245,2.36-5.245,5.244s2.358,5.244,5.245,5.244c2.885,0,5.244-2.36,5.244-5.244
		S102.415,123.008,99.53,123.008L99.53,123.008z M99.53,124.914c1.857,0,3.337,1.482,3.337,3.338c0,1.852-1.482,3.338-3.337,3.338
		c-1.854,0-3.338-1.486-3.338-3.338C96.192,126.396,97.675,124.914,99.53,124.914L99.53,124.914z"/>
	<g>
		<path fill="#FFFFFF" d="M24.5,91.327v45.017c0,6.159,13.21,9.383,26.259,9.383c13.049,0,26.262-3.224,26.262-9.383V91.327
			c0-6.158-13.211-9.378-26.262-9.378C37.71,81.949,24.5,85.169,24.5,91.327z M73.271,121.34c0,1.982-8.546,5.625-22.511,5.625
			c-13.963,0-22.508-3.643-22.508-5.625v-9.936c4.848,2.842,13.712,4.309,22.508,4.309c8.796,0,17.664-1.467,22.511-4.309V121.34z
			 M73.271,106.334c0,1.984-8.546,5.627-22.511,5.627c-13.963,0-22.508-3.643-22.508-5.627v-9.937
			c4.848,2.84,13.712,4.307,22.508,4.307c8.796,0,17.664-1.465,22.511-4.307V106.334z M50.759,85.701
			c13.964,0,22.511,3.642,22.511,5.626c0,1.984-8.546,5.625-22.511,5.625c-13.963,0-22.508-3.64-22.508-5.625
			C28.251,89.342,36.797,85.701,50.759,85.701z M50.759,142.402c-13.962,0-22.508-3.646-22.508-5.633v-9.935
			c4.848,2.841,13.712,4.308,22.508,4.308c8.8,0,17.664-1.467,22.511-4.308v9.935C73.271,138.757,64.724,142.402,50.759,142.402z"/>
	</g>
	<g>
		<path fill="#FFFFFF" d="M121.977,91.327v45.017c0,6.159,13.211,9.383,26.262,9.383s26.264-3.224,26.264-9.383V91.327
			c0-6.158-13.211-9.378-26.264-9.378C135.188,81.949,121.977,85.169,121.977,91.327z M170.748,121.34
			c0,1.982-8.549,5.625-22.512,5.625s-22.51-3.643-22.51-5.625v-9.936c4.852,2.842,13.717,4.309,22.51,4.309
			c8.799,0,17.664-1.467,22.512-4.309V121.34z M170.748,106.334c0,1.984-8.549,5.627-22.512,5.627s-22.51-3.643-22.51-5.627v-9.937
			c4.852,2.84,13.717,4.307,22.51,4.307c8.799,0,17.664-1.465,22.512-4.307V106.334z M148.236,85.701
			c13.963,0,22.512,3.642,22.512,5.626c0,1.984-8.549,5.625-22.512,5.625s-22.51-3.64-22.51-5.625
			C125.727,89.342,134.273,85.701,148.236,85.701z M148.236,142.402c-13.963,0-22.51-3.646-22.51-5.633v-9.935
			c4.852,2.841,13.717,4.308,22.51,4.308c8.801,0,17.664-1.467,22.512-4.308v9.935C170.748,138.757,162.199,142.402,148.236,142.402
			z"/>
	</g>
	<path fill="#FFFFFF" stroke="#FFFFFF" stroke-width="1.2511" stroke-miterlimit="10" d="M121.458,92.994v-0.731h-3.774
		c-0.313-1.054-1.281-1.828-2.438-1.828c-1.157,0-2.122,0.774-2.439,1.828h-7.428c-1.011,0-1.83-0.819-1.83-1.828v-4.387h0.73
		c1.012,0,1.828-0.817,1.828-1.827c0-1.01-0.816-1.828-1.828-1.828h-3.288v-0.73h8.772c0.807,0,1.465-0.657,1.465-1.462
		c0-0.807-0.658-1.463-1.465-1.463h-8.772c0-0.806-0.655-1.46-1.461-1.46c-0.807,0-1.462,0.654-1.462,1.46h-8.771
		c-0.806,0-1.462,0.656-1.462,1.463c0,0.806,0.657,1.462,1.462,1.462h8.771v0.729h-3.29c-1.008,0-1.827,0.819-1.827,1.828
		c0,1.01,0.819,1.827,1.827,1.827h0.731v4.387c0,1.009-0.82,1.828-1.827,1.828h-7.429c-0.316-1.054-1.282-1.828-2.439-1.828
		c-1.158,0-2.124,0.774-2.439,1.828H77.6v0.73h3.655v13.886H77.6v0.731h3.774c0.315,1.06,1.282,1.83,2.439,1.83
		c1.156,0,2.124-0.771,2.439-1.83h3.93c1.129,0,2.874,0.531,3.811,1.162c0.109,0.068,2.672,1.764,5.537,1.764
		c2.867,0,5.431-1.693,5.539-1.764c0.938-0.631,2.684-1.162,3.812-1.162h3.929c0.317,1.06,1.283,1.83,2.439,1.83
		c1.159,0,2.124-0.771,2.441-1.83h3.771v-0.731h-3.652V92.994H121.458z M85.641,106.879c0,1.01-0.82,1.83-1.827,1.83
		s-1.827-0.82-1.827-1.83V92.994c0-1.008,0.82-1.828,1.827-1.828c1.008,0,1.827,0.82,1.827,1.828V106.879z M99.529,78.007
		c0.401,0,0.728,0.329,0.728,0.73h-1.458C98.799,78.335,99.127,78.007,99.529,78.007z M89.295,81.571
		c-0.403,0-0.731-0.613-0.731-1.37c0-0.756,0.328-1.371,0.731-1.371h8.771h2.922h8.773c0.401,0,0.731,0.615,0.731,1.371
		c0,0.757-0.33,1.37-0.731,1.37h-8.773h-2.922H89.295z M100.259,81.663v0.729h-1.46v-0.729H100.259z M94.777,85.316
		c-0.604,0-1.095-0.492-1.095-1.095c0-0.604,0.493-1.097,1.095-1.097h3.29h2.923h3.289c0.604,0,1.099,0.492,1.099,1.097
		c0,0.604-0.493,1.095-1.099,1.095H94.777z M112.688,106.879h-3.811c-1.271,0-3.162,0.576-4.219,1.285
		c-0.027,0.016-2.492,1.643-5.129,1.643c-2.637,0-5.105-1.629-5.129-1.643c-1.057-0.709-2.949-1.285-4.219-1.285H86.37V92.994h7.31
		c1.412,0,2.561-1.149,2.561-2.56v-4.387h6.573v4.387c0,1.411,1.15,2.56,2.563,2.56h7.311V106.879L112.688,106.879z
		 M117.074,106.879c0,1.01-0.82,1.83-1.829,1.83c-1.007,0-1.827-0.82-1.827-1.83V92.994c0-1.008,0.82-1.828,1.827-1.828
		c1.009,0,1.829,0.82,1.829,1.828V106.879z"/>
</g>
</svg>
