<?xml version="1.0" encoding="utf-8"?>
<!-- Generator: Adobe Illustrator 15.0.0, SVG Export Plug-In . SVG Version: 6.00 Build 0)  -->
<!DOCTYPE svg PUBLIC "-//W3C//DTD SVG 1.1//EN" "http://www.w3.org/Graphics/SVG/1.1/DTD/svg11.dtd">
<svg version="1.1" id="Layer_1" xmlns="http://www.w3.org/2000/svg" xmlns:xlink="http://www.w3.org/1999/xlink" x="0px" y="0px"
	 width="200px" height="200px" viewBox="0 0 200 200" enable-background="new 0 0 200 200" xml:space="preserve">
<g>
	<g>
		<path fill="#999999" d="M63.064,64.074c8.083-8.269,18.743-13.6,30.138-15.07c0.917,2.941,3.49,5.332,6.798,5.332
			c3.857,0,7.169-3.126,7.169-7.169c0-4.043-3.123-7.167-7.169-7.167c-3.676,0-6.616,2.755-6.983,6.249
			c-12.127,1.47-23.521,7.166-31.976,15.802L63.064,64.074z M100,42.755c2.388,0,4.411,2.023,4.411,4.411
			c0,2.391-2.023,4.411-4.411,4.411s-4.41-2.02-4.41-4.411C95.59,44.593,97.612,42.755,100,42.755z"/>
		<path fill="#999999" d="M47.812,115.527l2.57-0.734c-1.471-4.775-2.021-9.555-2.021-14.518c0-6.799,1.285-13.598,3.858-19.846
			c0.553,0.182,1.288,0.182,1.838,0.182c2.572,0,4.964-1.285,6.248-3.49c2.023-3.49,0.735-7.719-2.572-9.739
			c-1.104-0.553-2.388-0.92-3.676-0.92c-2.573,0-4.961,1.288-6.246,3.494c-0.735,1.47-1.105,3.49-0.553,5.328
			c0.368,1.47,1.285,2.755,2.573,3.675c-2.756,6.617-4.226,13.783-4.226,21.134C45.606,105.238,46.342,110.566,47.812,115.527z
			 M50.382,71.24c0.735-1.285,2.205-2.205,3.861-2.205c0.734,0,1.47,0.185,2.205,0.553c2.02,1.285,2.755,3.858,1.652,6.063
			c-1.285,2.021-4.043,2.755-6.063,1.47c-1.103-0.549-1.655-1.47-2.023-2.755C49.646,73.446,49.832,72.161,50.382,71.24z"/>
		<path fill="#999999" d="M58.836,131.33c0.92-0.917,1.47-1.835,1.838-3.123c0.553-1.835,0.185-3.67-0.735-5.328
			c-1.285-2.205-3.676-3.676-6.249-3.676c-1.284,0-2.388,0.365-3.49,0.924c-3.308,1.834-4.41,6.245-2.572,9.732
			c1.284,2.212,3.675,3.682,6.248,3.682c0.918,0,1.838-0.188,2.755-0.559c7.166,9.381,17.091,16.355,28.485,19.484l0.735-2.57
			C75.191,146.768,65.634,140.151,58.836,131.33z M50.014,128.39c-1.103-2.018-0.367-4.775,1.656-6.063
			c0.735-0.365,1.47-0.547,2.205-0.547c1.652,0,3.123,0.918,3.858,2.199c0.553,1.105,0.734,2.212,0.367,3.312
			s-1.103,2.022-2.021,2.569C54.058,131.33,51.302,130.413,50.014,128.39z"/>
		<path fill="#999999" d="M136.568,136.482c-8.087,8.08-18.561,13.226-29.77,14.696c-0.371-1.1-0.918-2.205-1.841-3.123
			c-1.282-1.288-3.12-2.205-5.14-2.205c-3.861,0-7.17,3.123-7.17,6.986c0,3.853,3.126,7.163,6.984,7.163l0,0
			c3.672,0,6.612-2.752,6.983-6.251c11.944-1.471,22.972-6.981,31.61-15.614L136.568,136.482z M100,157.612v1.288V157.612
			c-2.388,0-4.41-2.022-4.41-4.41c0-2.395,2.022-4.411,4.41-4.411c1.103,0,2.205,0.547,3.123,1.288
			c0.734,0.917,1.288,2.017,1.288,3.123C104.411,155.59,102.388,157.612,100,157.612z"/>
		<path fill="#999999" d="M141.35,69.22c-2.211,2.206-2.94,5.696-1.288,8.636c1.288,2.206,3.676,3.676,6.246,3.676
			c1.288,0,2.394-0.368,3.493-0.921c3.493-1.838,4.781-6.245,2.758-9.738c-1.287-2.206-3.675-3.676-6.251-3.676
			c-0.918,0-1.835,0.185-2.57,0.553c-7.54-10.109-18.378-17.458-30.505-20.398l-0.735,2.755
			C124.071,52.865,134.363,59.664,141.35,69.22z M150.171,72.161c1.101,2.021,0.365,4.775-1.652,5.878
			c-2.029,1.103-4.781,0.367-5.881-1.653c-1.105-2.02-0.37-4.778,1.652-5.881c0.729-0.368,1.471-0.55,2.199-0.55
			C147.96,69.956,149.43,70.873,150.171,72.161z"/>
		<path fill="#999999" d="M149.989,121.598c2.935-6.805,4.404-13.971,4.404-21.505c0-4.597-0.553-9.371-1.835-13.782l-2.758,0.735
			c1.1,4.226,1.652,8.636,1.652,13.047c0,6.983-1.464,13.782-4.223,20.216c-0.553-0.182-1.288-0.182-2.022-0.182
			c-2.57,0-4.782,1.281-6.069,3.487c-2.018,3.305-0.912,7.716,2.394,9.739c1.105,0.734,2.388,0.917,3.676,0.917
			c2.569,0,4.781-1.288,6.063-3.487c0.917-1.652,1.287-3.493,0.734-5.334C152.188,123.979,151.271,122.697,149.989,121.598z
			 M149.248,129.495c-1.1,2.018-4.04,2.759-6.063,1.471c-2.017-1.288-2.759-3.858-1.471-6.063c0.735-1.288,2.206-2.205,3.864-2.205
			c0.729,0,1.471,0.182,2.199,0.553c0.924,0.547,1.652,1.47,2.023,2.758C150.171,127.29,149.989,128.39,149.248,129.495z"/>
	</g>
	<g>
		<path fill="#32C5D2" d="M86.274,104.975L86.274,104.975L86.274,104.975c-0.311-0.467-0.465-0.932-0.776-1.242l-1.555-3.109
			c-0.622-1.71-0.933-3.577-0.933-5.596c0-9.638,8.083-17.407,17.874-16.786c8.393,0.62,15.079,7.305,15.541,15.853
			c0.154,3.263-0.621,6.372-2.02,9.016l-0.153,0.153c-0.159,0.312-0.313,0.469-0.468,0.779c-2.795,4.817-4.974,10.412-6.372,16.317
			H91.87C90.938,114.921,88.917,109.793,86.274,104.975z M92.649,122.847h14.457c-0.159,0.468-0.313,1.711-0.313,2.025H92.959
			C92.802,124.09,92.649,123.468,92.649,122.847z M93.27,128.91l-0.156-1.089c0-0.154,0-0.309,0-0.622h13.518
			c0,0.622-0.153,1.09-0.153,1.402c-0.155,0.771-0.93,1.398-1.706,1.398h-9.794C94.203,130,93.581,129.532,93.27,128.91z"/>
		
			<rect x="114.726" y="110.806" transform="matrix(0.6986 0.7155 -0.7155 0.6986 115.2363 -49.6192)" fill="#32C5D2" width="3.574" height="2.329"/>
		
			<rect x="120.905" y="100.233" transform="matrix(0.9628 0.2704 -0.2704 0.9628 31.9872 -29.3978)" fill="#32C5D2" width="3.576" height="2.33"/>
		
			<rect x="121.231" y="87.857" transform="matrix(-0.969 0.2472 -0.2472 -0.969 264.2258 144.8664)" fill="#32C5D2" width="3.575" height="2.33"/>
		<polygon fill="#32C5D2" points="119.026,78.06 116.468,80.557 114.834,78.89 117.393,76.393 		"/>
		
			<rect x="105.15" y="70.349" transform="matrix(0.9629 0.2697 -0.2697 0.9629 23.3985 -26.0037)" fill="#32C5D2" width="2.332" height="3.573"/>
		
			<rect x="92.89" y="70.233" transform="matrix(0.9691 -0.2467 0.2467 0.9691 -14.8591 25.4267)" fill="#32C5D2" width="2.33" height="3.574"/>
		
			<rect x="82.191" y="76.208" transform="matrix(0.7154 -0.6987 0.6987 0.7154 -30.773 80.4339)" fill="#32C5D2" width="2.331" height="3.573"/>
		
			<rect x="75.993" y="86.71" transform="matrix(-0.2697 0.9629 -0.9629 -0.2697 183.1846 38.0625)" fill="#32C5D2" width="2.332" height="3.573"/>
		
			<rect x="75.816" y="98.98" transform="matrix(0.247 0.969 -0.969 0.247 155.6149 1.2842)" fill="#32C5D2" width="2.331" height="3.575"/>
		
			<rect x="81.161" y="110.41" transform="matrix(-0.7143 0.6998 -0.6998 -0.7143 220.2837 133.2271)" fill="#32C5D2" width="3.575" height="2.333"/>
	</g>
</g>
</svg>
