<?xml version="1.0" encoding="utf-8"?>
<!-- Generator: Adobe Illustrator 15.0.0, SVG Export Plug-In . SVG Version: 6.00 Build 0)  -->
<!DOCTYPE svg PUBLIC "-//W3C//DTD SVG 1.1//EN" "http://www.w3.org/Graphics/SVG/1.1/DTD/svg11.dtd">
<svg version="1.1" id="Layer_1" xmlns="http://www.w3.org/2000/svg" xmlns:xlink="http://www.w3.org/1999/xlink" x="0px" y="0px"
	 width="200px" height="200px" viewBox="0 0 200 200" enable-background="new 0 0 200 200" xml:space="preserve">
<g>
	<g>
		<g>
			<path fill="#FFFFFF" d="M37.461,122.911h100V58.824h-100V122.911z M42.298,63.661h90.326v54.293l-28.537-33.132l-18.742,19.952
				l-6.892-5.685l-22.249,18.984H42.298V63.661z"/>
			<circle fill="#FFFFFF" cx="59.71" cy="80.59" r="7.859"/>
		</g>
	</g>
	<g>
		<path fill="#FFFFFF" d="M112.227,89.792c0,0,0.375-1.438,2.375-1.438s34.25-0.125,34.25-0.125s1.563-0.063,1.5,2.75
			c-0.063,2.812,0.188,6.75,0.188,6.75s-0.5,1.813-3.063,1.688c-2.563-0.125-33.5-0.125-33.5-0.125s-1.813-0.125-1.563-2.438
			S112.227,89.792,112.227,89.792z"/>
		<path fill="#FFFFFF" d="M112.227,103.791c0,0,0.375-1.438,2.375-1.438s34.25-0.125,34.25-0.125s1.563-0.063,1.5,2.75
			c-0.063,2.813,0.188,6.75,0.188,6.75s-0.5,1.813-3.063,1.688c-2.563-0.125-33.5-0.125-33.5-0.125s-1.813-0.125-1.563-2.438
			C112.664,108.54,112.227,103.791,112.227,103.791z"/>
		<path fill="#FFFFFF" d="M112.227,117.791c0,0,0.375-1.438,2.375-1.438s34.25-0.125,34.25-0.125s1.563-0.063,1.5,2.75
			c-0.063,2.813,0.188,6.75,0.188,6.75s-0.5,1.813-3.063,1.688c-2.563-0.125-33.5-0.125-33.5-0.125s-1.813-0.125-1.563-2.438
			C112.664,122.54,112.227,117.791,112.227,117.791z"/>
		<g>
			<path fill="#808080" d="M151.229,111.732v-7.361c0-1.348-1.098-2.445-2.444-2.445h-34.8c-1.35,0-2.443,1.098-2.443,2.445v7.611
				c0,1.35,1.098,2.447,2.443,2.447h27.465c-0.516,0.43-0.988,0.904-1.428,1.416c-0.033-0.004-0.063-0.012-0.097-0.012h-25.94
				c-1.35,0-2.443,1.1-2.443,2.443v7.613c0,1.35,1.098,2.445,2.443,2.445h16.522v7.549c-1.063,0.303-1.901,1.141-2.204,2.205h-8.65
				c-0.482,0-0.877,0.393-0.877,0.877s0.395,0.877,0.877,0.877h8.649c0.382,1.342,1.618,2.328,3.081,2.328
				c1.465,0,2.7-0.986,3.082-2.328h8.648c0.484,0,0.878-0.393,0.878-0.877s-0.394-0.877-0.878-0.877h-8.647
				c-0.304-1.064-1.142-1.902-2.204-2.205v-7.549h5.68c1.808,4.508,6.213,7.705,11.358,7.705c6.749,0,12.239-5.49,12.239-12.24
				C161.538,117.715,157.063,112.662,151.229,111.732z M113.982,112.676c-0.381,0-0.689-0.311-0.689-0.693v-7.609
				c0-0.381,0.309-0.689,0.689-0.689h34.8c0.382,0,0.692,0.311,0.692,0.689v7.203c-0.062-0.002-0.117-0.012-0.177-0.012
				c-1.88,0-3.653,0.439-5.247,1.199c-0.113-0.055-0.24-0.088-0.378-0.088H113.982z M132.837,138.971
				c0,0.801-0.651,1.453-1.454,1.453c-0.8,0-1.451-0.652-1.451-1.453s0.651-1.453,1.451-1.453
				C132.186,137.518,132.837,138.17,132.837,138.971z M137.061,123.807c0,0.957,0.121,1.885,0.33,2.779h-23.406
				c-0.381,0-0.689-0.311-0.689-0.691v-7.611c0-0.383,0.311-0.691,0.689-0.691h24.789
				C137.691,119.416,137.061,121.535,137.061,123.807z M149.3,134.293c-5.782,0-10.485-4.705-10.485-10.488
				c0-5.781,4.703-10.486,10.485-10.486c5.781,0,10.485,4.705,10.485,10.488C159.785,129.588,155.081,134.293,149.3,134.293z
				 M117.125,95.011c0.758,0,1.375-0.616,1.375-1.375c0-0.758-0.617-1.374-1.375-1.374s-1.374,0.616-1.374,1.374
				C115.751,94.395,116.367,95.011,117.125,95.011z M117.125,93.258c0.21,0,0.38,0.17,0.38,0.378c0,0.209-0.17,0.38-0.38,0.38
				c-0.209,0-0.379-0.171-0.379-0.38C116.746,93.428,116.916,93.258,117.125,93.258z M126.846,95.011
				c0.758,0,1.375-0.616,1.375-1.375c0-0.758-0.617-1.374-1.375-1.374s-1.375,0.616-1.375,1.374
				C125.471,94.395,126.088,95.011,126.846,95.011z M126.846,93.258c0.209,0,0.379,0.17,0.379,0.378c0,0.209-0.17,0.38-0.379,0.38
				s-0.379-0.171-0.379-0.38C126.467,93.428,126.637,93.258,126.846,93.258z M121.984,95.011c0.759,0,1.375-0.616,1.375-1.375
				c0-0.758-0.616-1.374-1.375-1.374c-0.758,0-1.375,0.616-1.375,1.374C120.609,94.395,121.229,95.011,121.984,95.011z
				 M121.984,93.258c0.209,0,0.379,0.17,0.379,0.378c0,0.209-0.17,0.38-0.379,0.38s-0.379-0.171-0.379-0.38
				C121.605,93.428,121.775,93.258,121.984,93.258z M121.984,106.803c-0.758,0-1.375,0.617-1.375,1.375s0.617,1.375,1.375,1.375
				c0.759,0,1.375-0.617,1.375-1.375S122.743,106.803,121.984,106.803z M121.984,108.557c-0.209,0-0.379-0.17-0.379-0.379
				s0.17-0.379,0.379-0.379s0.379,0.17,0.379,0.379C122.365,108.387,122.193,108.557,121.984,108.557z M121.984,123.463
				c0.759,0,1.375-0.617,1.375-1.375s-0.616-1.375-1.375-1.375c-0.758,0-1.375,0.617-1.375,1.375
				C120.611,122.846,121.229,123.463,121.984,123.463z M121.984,121.709c0.209,0,0.379,0.17,0.379,0.379s-0.17,0.379-0.379,0.379
				s-0.379-0.17-0.379-0.379S121.775,121.709,121.984,121.709z M117.125,123.463c0.758,0,1.375-0.617,1.375-1.375
				s-0.617-1.375-1.375-1.375s-1.374,0.617-1.374,1.375S116.367,123.463,117.125,123.463z M117.125,121.709
				c0.21,0,0.38,0.17,0.38,0.379s-0.17,0.379-0.38,0.379c-0.209,0-0.379-0.17-0.379-0.379S116.916,121.709,117.125,121.709z
				 M126.846,123.463c0.758,0,1.375-0.617,1.375-1.375s-0.617-1.375-1.375-1.375s-1.375,0.617-1.375,1.375
				S126.088,123.463,126.846,123.463z M126.846,121.709c0.209,0,0.379,0.17,0.379,0.379s-0.17,0.379-0.379,0.379
				s-0.379-0.17-0.379-0.379S126.637,121.709,126.846,121.709z M126.846,106.803c-0.758,0-1.375,0.617-1.375,1.375
				s0.617,1.375,1.375,1.375s1.375-0.617,1.375-1.375S127.604,106.803,126.846,106.803z M126.846,108.557
				c-0.209,0-0.379-0.17-0.379-0.379s0.17-0.379,0.379-0.379s0.379,0.17,0.379,0.379S127.055,108.557,126.846,108.557z
				 M117.125,106.803c-0.758,0-1.374,0.617-1.374,1.375s0.616,1.375,1.374,1.375s1.375-0.617,1.375-1.375
				S117.883,106.803,117.125,106.803z M117.125,108.557c-0.209,0-0.379-0.17-0.379-0.379s0.17-0.379,0.379-0.379
				c0.21,0,0.38,0.17,0.38,0.379S117.335,108.557,117.125,108.557z M113.982,99.887h34.8c1.349,0,2.444-1.096,2.444-2.445V89.83
				c0-1.348-1.098-2.444-2.444-2.444h-34.8c-1.35,0-2.443,1.097-2.443,2.444v7.612C111.539,98.791,112.635,99.887,113.982,99.887z
				 M113.293,89.829c0-0.38,0.309-0.69,0.689-0.69h34.8c0.382,0,0.692,0.31,0.692,0.69v7.612c0,0.381-0.313,0.691-0.692,0.691h-34.8
				c-0.381,0-0.689-0.309-0.689-0.691V89.829z"/>
			<g>
				<path fill="#808080" d="M149.359,116.133c-3.155,0-6.353,1.049-6.353,3.053v9.242c0,2.004,3.195,3.053,6.353,3.053
					c3.156,0,6.352-1.049,6.352-3.053v-9.242C155.711,117.182,152.518,116.133,149.359,116.133z"/>
				<path fill="#FFFFFF" d="M153.957,128.426c0,0.334-1.58,1.301-4.598,1.301c-3.019,0-4.599-0.967-4.599-1.301v-0.914
					c1.216,0.586,2.91,0.889,4.599,0.889c1.688,0,3.383-0.303,4.598-0.889V128.426z"/>
				<path fill="#FFFFFF" d="M153.957,125.346c0,0.334-1.58,1.301-4.598,1.301c-3.019,0-4.599-0.967-4.599-1.301v-0.916
					c1.216,0.586,2.91,0.889,4.599,0.889c1.688,0,3.383-0.303,4.598-0.889V125.346z"/>
				<path fill="#FFFFFF" d="M153.957,122.266c0,0.324-1.631,1.299-4.598,1.299s-4.599-0.975-4.599-1.299v-0.916
					c1.216,0.586,2.91,0.891,4.599,0.891c1.688,0,3.383-0.305,4.598-0.891V122.266z"/>
				<path fill="#FFFFFF" d="M149.359,120.484c-3.019,0-4.599-0.965-4.599-1.299c0-0.324,1.632-1.301,4.599-1.301
					s4.598,0.977,4.598,1.301C153.957,119.52,152.377,120.484,149.359,120.484z"/>
			</g>
		</g>
	</g>
</g>
</svg>
