<?xml version="1.0" encoding="utf-8"?>
<!-- Generator: Adobe Illustrator 15.0.0, SVG Export Plug-In . SVG Version: 6.00 Build 0)  -->
<!DOCTYPE svg PUBLIC "-//W3C//DTD SVG 1.1//EN" "http://www.w3.org/Graphics/SVG/1.1/DTD/svg11.dtd">
<svg version="1.1" id="Layer_1" xmlns="http://www.w3.org/2000/svg" xmlns:xlink="http://www.w3.org/1999/xlink" x="0px" y="0px"
	 width="100px" height="100px" viewBox="0 0 100 100" enable-background="new 0 0 100 100" xml:space="preserve">
<path fill="#E7505A" d="M68.244,31.756c-0.916-0.916-2.399-0.916-3.314,0L50,46.686l-14.93-14.93c-0.916-0.916-2.399-0.916-3.314,0
	s-0.916,2.399,0,3.314L46.686,50l-14.93,14.93c-0.916,0.916-0.916,2.399,0,3.314c0.458,0.457,1.057,0.686,1.657,0.686
	s1.199-0.229,1.658-0.686L50,53.314l14.93,14.93c0.458,0.457,1.058,0.686,1.657,0.686c0.601,0,1.199-0.229,1.657-0.686
	c0.916-0.916,0.916-2.399,0-3.314L53.314,50l14.93-14.93C69.16,34.155,69.16,32.672,68.244,31.756z M50,5C25.186,5,5,25.186,5,50
	c0,24.813,20.186,45,45,45c24.813,0,45-20.187,45-45C95,25.186,74.813,5,50,5z M50,90.313C27.772,90.313,9.688,72.229,9.688,50
	C9.688,27.772,27.772,9.688,50,9.688c22.229,0,40.313,18.084,40.313,40.313C90.313,72.229,72.229,90.313,50,90.313z"/>
</svg>
