<svg xmlns="http://www.w3.org/2000/svg" width="24" height="24" viewBox="0 0 24 24">
  <g id="Group_118" data-name="Group 118" transform="translate(0.013)">
    <g id="Group_117" data-name="Group 117" transform="translate(-0.013)">
      <g id="Group_116" data-name="Group 116">
        <g id="Group_115" data-name="Group 115">
          <path id="Path_43" data-name="Path 43" d="M23.987,0V24h-24" transform="translate(0.013)" fill="none"/>
        </g>
      </g>
    </g>
    <path id="Path_48" data-name="Path 48" d="M5.058,7.557" transform="translate(0 0)" fill="none"/>
    <g id="Group_139" data-name="Group 139" transform="translate(1.899 1.921)">
      <path id="Path_53" data-name="Path 53" d="M12.049,8.065a.368.368,0,0,1-.368-.368V4.341a.369.369,0,1,1,.737,0V7.7A.369.369,0,0,1,12.049,8.065Z" transform="translate(-1.899 -1.92)" fill="#999"/>
      <g id="Group_138" data-name="Group 138">
        <path id="Path_44" data-name="Path 44" d="M20.909,17.526a1.191,1.191,0,1,1,1.189-1.19A1.191,1.191,0,0,1,20.909,17.526Z" transform="translate(-1.897 -1.92)" fill="#999"/>
        <path id="Path_45" data-name="Path 45" d="M20.912,8.8A1.19,1.19,0,1,1,22.1,7.607,1.19,1.19,0,0,1,20.912,8.8Z" transform="translate(-1.9 -1.921)" fill="#999"/>
        <circle id="Ellipse_20" data-name="Ellipse 20" cx="1.19" cy="1.19" r="1.19" transform="translate(0 13.225)" fill="#999"/>
        <path id="Path_46" data-name="Path 46" d="M3.092,8.8a1.19,1.19,0,1,1,1.19-1.19A1.19,1.19,0,0,1,3.092,8.8Z" transform="translate(-1.901 -1.921)" fill="#999"/>
        <path id="Path_47" data-name="Path 47" d="M12.031,22.081a1.261,1.261,0,1,1,1.261-1.261A1.261,1.261,0,0,1,12.031,22.081Z" transform="translate(-1.901 -1.921)" fill="#999"/>
        <path id="Path_49" data-name="Path 49" d="M12.032,4.442a1.26,1.26,0,1,1,1.261-1.261,1.26,1.26,0,0,1-1.261,1.261Z" transform="translate(-1.902 -1.921)" fill="#999"/>
        <path id="Path_50" data-name="Path 50" d="M17.037,16.682,6.7,7.986,5.078,7.962a.368.368,0,0,1,0-.736h1.9L17.314,15.92l1.622.024a.368.368,0,0,1,0,.736Z" transform="translate(-1.918 -1.918)" fill="#999"/>
        <path id="Path_51" data-name="Path 51" d="M5.042,16.684a.368.368,0,1,1,0-.736H6.6L17.067,7.207,18.9,7.23a.368.368,0,0,1,0,.736H17.342L6.9,16.682Z" transform="translate(-1.882 -1.921)" fill="#999"/>
        <path id="Path_52" data-name="Path 52" d="M12.049,20.027a.368.368,0,0,1-.368-.368V7.3a.369.369,0,1,1,.737,0V19.658a.369.369,0,0,1-.369.368Z" transform="translate(-1.899 -1.92)" fill="#999"/>
        <path id="Path_54" data-name="Path 54" d="M12.051,16.827A4.828,4.828,0,1,1,16.88,12a4.828,4.828,0,0,1-4.829,4.828Zm0-9A4.172,4.172,0,1,0,16.223,12a4.172,4.172,0,0,0-4.172-4.172Z" transform="translate(-1.901 -1.921)" fill="#999"/>
        <path id="Path_55" data-name="Path 55" d="M12.046,14.219A2.222,2.222,0,1,1,14.267,12a2.222,2.222,0,0,1-2.221,2.221Z" transform="translate(-1.897 -1.92)" fill="#999"/>
      </g>
    </g>
  </g>
</svg>
