<?xml version="1.0" encoding="utf-8"?>
<!-- Generator: Adobe Illustrator 15.0.0, SVG Export Plug-In . SVG Version: 6.00 Build 0)  -->
<!DOCTYPE svg PUBLIC "-//W3C//DTD SVG 1.1//EN" "http://www.w3.org/Graphics/SVG/1.1/DTD/svg11.dtd">
<svg version="1.1" id="Layer_1" xmlns="http://www.w3.org/2000/svg" xmlns:xlink="http://www.w3.org/1999/xlink" x="0px" y="0px"
	 width="200px" height="200px" viewBox="0 0 200 200" enable-background="new 0 0 200 200" xml:space="preserve">
<g>
	<path fill="#999999" d="M123.262,112.559c-3.589,0.02-6.899,1.939-8.701,5.041c-0.552,0.96-0.221,2.188,0.739,2.739
		c0.962,0.553,2.188,0.223,2.741-0.739c1.645-2.879,5.309-3.877,8.186-2.234c0.932,0.533,1.703,1.304,2.233,2.234
		c0.554,0.962,1.778,1.292,2.741,0.739c0.961-0.551,1.291-1.779,0.739-2.739C130.145,114.502,126.842,112.585,123.262,112.559z"/>
	<circle fill="#999999" cx="129.321" cy="105.979" r="4.04"/>
	<circle fill="#999999" cx="117.201" cy="105.979" r="4.04"/>
	<path fill="#999999" d="M123.262,89.819c-11.146,0-20.182,9.036-20.182,20.181c0,11.145,9.035,20.181,20.182,20.181
		c11.145,0,20.178-9.036,20.178-20.181l0,0C143.43,98.858,134.401,89.83,123.262,89.819z M123.262,126.14
		c-8.915,0-16.141-7.227-16.141-16.14c0-8.915,7.226-16.14,16.141-16.14c8.913,0,16.139,7.225,16.139,16.14
		s-7.223,16.147-16.139,16.16V126.14z"/>
	<path fill="#32C5D2" d="M38.141,114.461c-0.949-0.566-2.177-0.26-2.743,0.69c-0.007,0.01-0.013,0.019-0.017,0.03
		c-1.645,2.875-5.309,3.875-8.187,2.233c-0.932-0.532-1.703-1.304-2.234-2.233c-0.552-0.963-1.779-1.295-2.74-0.742
		c-0.96,0.553-1.292,1.779-0.74,2.74c2.724,4.806,8.826,6.493,13.63,3.771c1.575-0.895,2.877-2.195,3.77-3.771
		C39.424,116.223,39.093,115.01,38.141,114.461z"/>
	<path fill="#32C5D2" d="M30.181,89.819C19.036,89.819,10,98.855,10,110c0,11.145,9.036,20.181,20.181,20.181
		c11.145,0,20.179-9.036,20.179-20.181C50.349,98.858,41.321,89.83,30.181,89.819z M30.181,126.14c-8.914,0-16.14-7.227-16.14-16.14
		c0-8.915,7.226-16.14,16.14-16.14c8.913,0,16.141,7.225,16.141,16.14s-7.224,16.147-16.141,16.16V126.14z"/>
	<circle fill="#32C5D2" cx="36.221" cy="105.979" r="4.04"/>
	<circle fill="#32C5D2" cx="24.121" cy="105.979" r="4.04"/>
	<path fill="#999999" d="M83.621,116.5c-2.108,1.223-4.469,1.947-6.901,2.12c-2.417-0.179-4.763-0.903-6.859-2.12
		c-1.007-0.455-2.191-0.008-2.646,0.998c-0.392,0.863-0.121,1.885,0.645,2.44c2.739,1.618,5.826,2.552,9,2.72
		c3.175-0.168,6.263-1.102,9-2.72c1.008-0.453,1.454-1.639,0.999-2.646c-0.455-1.006-1.64-1.454-2.646-0.999
		c-0.123,0.056-0.242,0.124-0.352,0.206H83.621z"/>
	<circle fill="#999999" cx="70.661" cy="105.979" r="4.04"/>
	<circle fill="#999999" cx="82.781" cy="105.979" r="4.04"/>
	<path fill="#999999" d="M76.72,89.819c-11.145,0-20.18,9.036-20.18,20.181c0,11.145,9.035,20.181,20.18,20.181
		c11.146,0,20.181-9.036,20.181-20.181l0,0C96.89,98.858,87.861,89.83,76.72,89.819z M76.72,126.14
		c-8.914,0-16.139-7.227-16.139-16.14c0-8.915,7.225-16.14,16.139-16.14c8.915,0,16.141,7.225,16.141,16.14
		s-7.223,16.147-16.141,16.16V126.14z"/>
	<path fill="#999999" d="M169.861,89.819c-11.146-0.022-20.199,8.995-20.221,20.14c-0.021,11.145,8.994,20.197,20.141,20.222
		c11.145,0.022,20.197-8.997,20.219-20.142c0-0.014,0-0.025,0-0.039C189.99,98.874,180.985,89.853,169.861,89.819z M169.861,126.14
		c-8.915,0.077-16.201-7.087-16.28-16c-0.077-8.913,7.085-16.201,15.999-16.278c8.913-0.078,16.203,7.085,16.279,15.998
		c0.002,0.048,0.002,0.095,0.002,0.141c0.001,8.861-7.139,16.072-16,16.16V126.14z"/>
	<path fill="#999999" d="M162.021,102.359l5.84,3.62c-0.016,2.209-1.819,3.987-4.028,3.972c-2.21-0.014-3.986-1.819-3.973-4.028
		c0.012-1.517,0.879-2.896,2.241-3.563H162.021z"/>
	<path fill="#999999" d="M177.861,120.359c-0.949,0.566-2.177,0.258-2.744-0.691c-0.005-0.01-0.01-0.02-0.018-0.029
		c-1.643-2.875-5.308-3.876-8.186-2.234c-0.93,0.533-1.701,1.304-2.233,2.234c-0.553,0.962-1.779,1.294-2.739,0.739
		c-0.963-0.552-1.293-1.776-0.74-2.738c2.723-4.806,8.826-6.493,13.63-3.771c1.575,0.895,2.878,2.195,3.771,3.771
		C179.143,118.596,178.813,119.81,177.861,120.359z"/>
	<path fill="#999999" d="M175.86,110c-2.208,0-4-1.791-4-4l5.761-3.621c2,0.94,2.858,3.322,1.92,5.321
		C178.872,109.123,177.433,110.023,175.86,110z"/>
</g>
</svg>
