<?xml version="1.0" encoding="utf-8"?>
<!-- Generator: Adobe Illustrator 15.0.0, SVG Export Plug-In . SVG Version: 6.00 Build 0)  -->
<!DOCTYPE svg PUBLIC "-//W3C//DTD SVG 1.1//EN" "http://www.w3.org/Graphics/SVG/1.1/DTD/svg11.dtd">
<svg version="1.1" id="Layer_1" xmlns="http://www.w3.org/2000/svg" xmlns:xlink="http://www.w3.org/1999/xlink" x="0px" y="0px"
	 width="200px" height="200px" viewBox="0 0 200 200" enable-background="new 0 0 200 200" xml:space="preserve">
<g>
	<rect x="37.5" y="68.5" fill="#FFFFFF" width="81" height="57"/>
	<g>
		<path fill="#999999" d="M49.982,114.105H61.24c0.777,0,1.407-0.631,1.407-1.408v-5.631c0-0.777-0.63-1.406-1.407-1.406H49.982
			c-0.778,0-1.408,0.629-1.408,1.406v5.631C48.575,113.475,49.204,114.105,49.982,114.105z"/>
		<path fill="#999999" d="M49.982,100.031H61.24c0.777,0,1.407-0.631,1.407-1.408v-5.629c0-0.779-0.63-1.409-1.407-1.409H49.982
			c-0.778,0-1.408,0.63-1.408,1.409v5.629C48.575,99.4,49.204,100.031,49.982,100.031z"/>
		<path fill="#999999" d="M72.499,114.105h11.26c0.776,0,1.406-0.631,1.406-1.408v-5.631c0.001-0.777-0.63-1.406-1.406-1.406h-11.26
			c-0.777,0-1.407,0.629-1.407,1.406v5.631C71.092,113.475,71.722,114.105,72.499,114.105z"/>
		<path fill="#999999" d="M95.018,114.105h11.259c0.777,0,1.406-0.631,1.406-1.408v-5.631c0-0.777-0.629-1.406-1.406-1.406H95.018
			c-0.776,0-1.407,0.629-1.407,1.406v5.631C93.61,113.475,94.241,114.105,95.018,114.105z"/>
		<path fill="#999999" d="M95.018,100.031h11.259c0.777,0,1.406-0.631,1.406-1.408v-5.629c0-0.779-0.629-1.409-1.406-1.409H95.018
			c-0.776,0-1.407,0.63-1.407,1.409v5.629C93.61,99.4,94.241,100.031,95.018,100.031z"/>
		<path fill="#999999" d="M72.499,100.031h11.26c0.776,0,1.406-0.631,1.406-1.408v-5.629c0.001-0.779-0.63-1.409-1.406-1.409h-11.26
			c-0.777,0-1.407,0.63-1.407,1.409v5.629C71.092,99.4,71.722,100.031,72.499,100.031z"/>
		<path fill="#999999" d="M49.982,85.957H61.24c0.777,0,1.407-0.629,1.407-1.407v-5.63c0-0.777-0.63-1.408-1.407-1.408H49.982
			c-0.778,0-1.408,0.631-1.408,1.408v5.629C48.575,85.327,49.204,85.957,49.982,85.957z"/>
		<path fill="#999999" d="M95.018,85.957h11.259c0.777,0,1.406-0.629,1.406-1.407v-5.63c0-0.777-0.629-1.408-1.406-1.408H95.018
			c-0.776,0-1.407,0.631-1.407,1.408v5.629C93.61,85.327,94.241,85.957,95.018,85.957z"/>
		<path fill="#999999" d="M72.499,85.957h11.26c0.776,0,1.406-0.629,1.406-1.407v-5.63c0.001-0.777-0.63-1.408-1.406-1.408h-11.26
			c-0.777,0-1.407,0.631-1.407,1.408v5.629C71.092,85.327,71.722,85.957,72.499,85.957z"/>
		<path fill="#999999" d="M120.352,57.808h-12.84v1.408c0,3.104-2.525,5.63-5.63,5.63c-3.106,0-5.631-2.526-5.631-5.63v-1.408
			H83.759v1.408c0,3.104-2.524,5.63-5.63,5.63s-5.63-2.526-5.63-5.63v-1.408H60.007v1.408c0,3.104-2.525,5.63-5.629,5.63
			s-5.629-2.526-5.629-5.63v-1.408H35.907c-0.778,0-1.407,0.63-1.407,1.408v67.556c0,0.777,0.629,1.406,1.407,1.406h84.444
			c0.777,0,1.405-0.629,1.405-1.406V59.216C121.758,58.438,121.13,57.808,120.352,57.808z M116.129,119.734H40.13V71.883h75.999
			V119.734z"/>
		<path fill="#999999" d="M54.378,63.438c2.331,0,4.221-1.89,4.221-4.222v-5.63c0-2.332-1.89-4.222-4.221-4.222
			c-2.332,0-4.223,1.891-4.223,4.222v5.63C50.154,61.548,52.046,63.438,54.378,63.438z"/>
		<path fill="#999999" d="M101.882,63.438c2.329,0,4.222-1.89,4.222-4.222v-5.63c0-2.332-1.891-4.222-4.222-4.222
			c-2.332,0-4.223,1.891-4.223,4.222v5.63C97.661,61.548,99.55,63.438,101.882,63.438z"/>
		<path fill="#999999" d="M78.129,63.438c2.331,0,4.222-1.89,4.222-4.222v-5.63c0-2.332-1.891-4.222-4.222-4.222
			s-4.221,1.891-4.221,4.222v5.63C73.908,61.548,75.798,63.438,78.129,63.438z"/>
	</g>
</g>
<g>
	<rect x="57.5" y="83.5" fill="#FFFFFF" width="81" height="56"/>
	<g>
		<path fill="#999999" d="M70.051,128.938h11.26c0.777,0,1.406-0.629,1.406-1.406v-5.629c0-0.779-0.629-1.407-1.406-1.407h-11.26
			c-0.777,0-1.406,0.628-1.406,1.407v5.629C68.645,128.309,69.273,128.938,70.051,128.938z"/>
		<path fill="#999999" d="M70.051,114.865h11.26c0.777,0,1.406-0.631,1.406-1.407v-5.63c0-0.778-0.629-1.41-1.406-1.41h-11.26
			c-0.777,0-1.406,0.632-1.406,1.41v5.63C68.645,114.234,69.273,114.865,70.051,114.865z"/>
		<path fill="#999999" d="M92.568,128.938h11.261c0.774,0,1.405-0.629,1.405-1.406v-5.629c0-0.779-0.631-1.407-1.405-1.407H92.568
			c-0.776,0-1.407,0.628-1.407,1.407v5.629C91.161,128.309,91.792,128.938,92.568,128.938z"/>
		<path fill="#999999" d="M115.088,128.938h11.26c0.776,0,1.404-0.629,1.404-1.406v-5.629c0-0.779-0.628-1.407-1.404-1.407h-11.26
			c-0.777,0-1.406,0.628-1.406,1.407v5.629C113.682,128.309,114.311,128.938,115.088,128.938z"/>
		<path fill="#999999" d="M115.088,114.865h11.26c0.776,0,1.404-0.631,1.404-1.407v-5.63c0-0.778-0.628-1.41-1.404-1.41h-11.26
			c-0.777,0-1.406,0.632-1.406,1.41v5.63C113.682,114.234,114.311,114.865,115.088,114.865z"/>
		<path fill="#999999" d="M92.568,114.865h11.261c0.774,0,1.405-0.631,1.405-1.407v-5.63c0-0.778-0.631-1.41-1.405-1.41H92.568
			c-0.776,0-1.407,0.632-1.407,1.41v5.63C91.161,114.234,91.792,114.865,92.568,114.865z"/>
		<path fill="#999999" d="M70.051,100.791h11.26c0.777,0,1.406-0.63,1.406-1.407v-5.63c0-0.777-0.629-1.408-1.406-1.408h-11.26
			c-0.777,0-1.406,0.631-1.406,1.408v5.63C68.645,100.161,69.273,100.791,70.051,100.791z"/>
		<path fill="#999999" d="M115.088,100.791h11.26c0.776,0,1.404-0.63,1.404-1.407v-5.63c0-0.777-0.628-1.408-1.404-1.408h-11.26
			c-0.777,0-1.406,0.631-1.406,1.408v5.63C113.682,100.161,114.311,100.791,115.088,100.791z"/>
		<path fill="#999999" d="M92.568,100.791h11.261c0.774,0,1.405-0.63,1.405-1.407v-5.63c0-0.777-0.631-1.408-1.405-1.408H92.568
			c-0.776,0-1.407,0.631-1.407,1.408v5.63C91.161,100.161,91.792,100.791,92.568,100.791z"/>
	</g>
	<path fill="#999999" d="M68.817,81.368h-12.84c-0.777,0-1.407,0.63-1.407,1.408v58.83c0,0.776,0.63,1.406,1.407,1.406h84.444
		c0.778,0,1.407-0.63,1.407-1.406v-58.83c0-0.778-0.629-1.408-1.407-1.408h-12.84H68.817z M136.198,134.568H60.199V86.717h75.999
		V134.568z"/>
</g>
<g>
	<g>
		<path fill="#FFFFFF" d="M138.323,150.588c13.849,0,25.131-11.281,25.131-25.13s-11.282-25.13-25.131-25.13
			c-13.851,0-25.13,11.281-25.13,25.13S124.475,150.588,138.323,150.588z"/>
	</g>
	<g>
		<g>
			<path fill="#32C5D2" d="M138.323,151.636c14.425,0,26.177-11.753,26.177-26.178s-11.752-26.177-26.177-26.177
				s-26.179,11.752-26.179,26.177S123.898,151.636,138.323,151.636z M138.268,111.033c5.459,0,9.857,4.398,9.857,9.857
				c0,5.457-4.398,9.858-9.857,9.858c-5.457,0-9.857-4.401-9.857-9.858C128.409,115.488,132.863,111.033,138.268,111.033z
				 M122.617,143.502c0.223-0.609,0.557-1.279,1.002-1.835c3.676-4.903,9.023-7.967,14.871-7.967s11.195,3.063,14.871,7.967
				c0.39,0.5,0.668,1.002,0.892,1.558c-4.177,3.844-9.804,6.184-15.93,6.184C132.309,149.407,126.85,147.182,122.617,143.502z"/>
		</g>
	</g>
</g>
</svg>
