<?xml version="1.0" encoding="utf-8"?>
<!-- Generator: Adobe Illustrator 15.0.0, SVG Export Plug-In . SVG Version: 6.00 Build 0)  -->
<!DOCTYPE svg PUBLIC "-//W3C//DTD SVG 1.1//EN" "http://www.w3.org/Graphics/SVG/1.1/DTD/svg11.dtd">
<svg version="1.1" id="Layer_1" xmlns="http://www.w3.org/2000/svg" xmlns:xlink="http://www.w3.org/1999/xlink" x="0px" y="0px"
	 width="200px" height="200px" viewBox="0 0 200 200" enable-background="new 0 0 200 200" xml:space="preserve">
<g>
	<g>
		<path fill="#999999" d="M52.603,69.651v47.5c0,6.496,13.939,9.896,27.708,9.896s27.708-3.4,27.708-9.896v-47.5
			c0-6.497-13.939-9.896-27.708-9.896C66.542,59.754,52.603,63.154,52.603,69.651z M104.063,101.316
			c0,2.095-9.018,5.938-23.75,5.938s-23.751-3.843-23.751-5.938V90.834c5.115,2.998,14.469,4.546,23.751,4.546
			c9.282,0,18.636-1.548,23.75-4.546V101.316z M104.063,85.484c0,2.094-9.018,5.938-23.75,5.938s-23.751-3.844-23.751-5.938V75.001
			c5.115,2.998,14.469,4.545,23.751,4.545c9.282,0,18.636-1.546,23.75-4.545V85.484z M80.312,63.713
			c14.733,0,23.75,3.843,23.75,5.938c0,2.093-9.019,5.937-23.75,5.937s-23.751-3.843-23.751-5.937
			C56.561,67.556,65.579,63.713,80.312,63.713z M80.312,123.542c-14.733,0-23.751-3.845-23.751-5.938V107.12
			c5.115,2.998,14.469,4.545,23.751,4.545c9.283,0,18.636-1.547,23.75-4.545v10.483C104.063,119.697,95.044,123.542,80.312,123.542z
			"/>
		<path fill="#FFFFFF" d="M80.312,123.54c-14.733,0-23.751-3.845-23.751-5.937V107.12c5.115,2.997,14.469,4.545,23.751,4.545
			c9.283,0,18.636-1.548,23.75-4.545v10.483C104.063,119.695,95.044,123.54,80.312,123.54z"/>
		<path fill="#FFFFFF" d="M80.312,107.12c-14.733,0-23.751-3.845-23.751-5.938V90.7c5.115,2.997,14.469,4.543,23.751,4.543
			c9.283,0,18.636-1.546,23.75-4.543v10.481C104.063,103.275,95.044,107.12,80.312,107.12z"/>
		<path fill="#FFFFFF" d="M80.312,91.419c-14.733,0-23.751-3.844-23.751-5.938V74.999c5.115,2.997,14.469,4.544,23.751,4.544
			c9.283,0,18.636-1.547,23.75-4.544v10.483C104.063,87.575,95.044,91.419,80.312,91.419z"/>
		<path fill="#FFFFFF" d="M80.312,63.678c14.733,0,23.75,3.842,23.75,5.937c0,2.094-9.019,5.937-23.75,5.937
			s-23.751-3.842-23.751-5.937C56.561,67.52,65.579,63.678,80.312,63.678z"/>
	</g>
	<g>
		<path fill="#999999" d="M90.98,93.104v47.501c0,6.494,13.939,9.895,27.708,9.895c13.77,0,27.709-3.4,27.709-9.895V93.104
			c0-6.497-13.939-9.896-27.709-9.896C104.919,83.208,90.98,86.608,90.98,93.104z M142.439,124.771c0,2.094-9.02,5.938-23.752,5.938
			c-14.731,0-23.75-3.845-23.75-5.938v-10.482c5.114,2.999,14.465,4.546,23.75,4.546c9.28,0,18.638-1.547,23.752-4.546V124.771z
			 M142.439,108.938c0,2.097-9.02,5.938-23.752,5.938c-14.731,0-23.75-3.844-23.75-5.938V98.455
			c5.114,2.998,14.465,4.545,23.75,4.545c9.28,0,18.638-1.547,23.752-4.545V108.938z M118.688,87.167
			c14.733,0,23.752,3.843,23.752,5.938c0,2.094-9.019,5.937-23.752,5.937c-14.73,0-23.75-3.843-23.75-5.937
			C94.938,91.01,103.956,87.167,118.688,87.167z M118.688,146.995c-14.73,0-23.75-3.845-23.75-5.937v-10.483
			c5.114,2.995,14.466,4.544,23.75,4.544c9.285,0,18.639-1.549,23.752-4.544v10.483C142.439,143.15,133.422,146.995,118.688,146.995
			z"/>
		<path fill="#FFFFFF" d="M118.688,146.995c-14.73,0-23.75-3.845-23.75-5.938v-10.481c5.114,2.998,14.466,4.545,23.75,4.545
			c9.285,0,18.639-1.547,23.752-4.545v10.481C142.439,143.15,133.422,146.995,118.688,146.995z"/>
		<path fill="#FFFFFF" d="M118.688,130.573c-14.731,0-23.75-3.845-23.75-5.938v-10.48c5.116,2.996,14.469,4.544,23.75,4.544
			c9.285,0,18.64-1.548,23.752-4.544v10.48C142.439,126.729,133.422,130.573,118.688,130.573z"/>
		<path fill="#FFFFFF" d="M118.688,114.873c-14.731,0-23.75-3.846-23.75-5.938V98.453c5.116,2.997,14.469,4.544,23.75,4.544
			c9.285,0,18.64-1.548,23.752-4.544v10.482C142.439,111.027,133.422,114.873,118.688,114.873z"/>
		<path fill="#FFFFFF" d="M118.688,87.132c14.733,0,23.752,3.842,23.752,5.937c0,2.094-9.019,5.937-23.752,5.937
			c-14.73,0-23.75-3.842-23.75-5.937C94.938,90.974,103.956,87.132,118.688,87.132z"/>
	</g>
	<g>
		<path fill="#32C5D2" d="M138.736,67.116l3.25-3.447l-3.254-3.443l0.603-4.698l-4.655-0.874l-2.275-4.154l-4.277,2.028
			l-4.281-2.023l-2.27,4.156l-4.655,0.879l0.606,4.699l-3.248,3.446l3.255,3.444l-0.604,4.698l4.655,0.873l2.274,4.154l4.279-2.029
			l4.28,2.024l2.271-4.157l4.656-0.879l-0.063-0.48L138.736,67.116z M128.132,72.763c-5.019,0-9.084-4.067-9.084-9.085
			c0-5.018,4.065-9.084,9.084-9.084s9.085,4.067,9.085,9.084C137.217,68.695,133.15,72.763,128.132,72.763z"/>
		<path fill="#32C5D2" d="M128.132,56.307c-4.063,0-7.368,3.307-7.368,7.371s3.307,7.371,7.368,7.371
			c4.063,0,7.371-3.307,7.371-7.371S132.195,56.307,128.132,56.307z M127.986,67.093l-3.394-2.829l-0.657-0.549l1.099-1.316
			l2.717,2.265l3.856-4.742l1.33,1.081L127.986,67.093z"/>
	</g>
</g>
</svg>
