<?xml version="1.0" encoding="utf-8"?>
<!-- Generator: Adobe Illustrator 15.0.0, SVG Export Plug-In . SVG Version: 6.00 Build 0)  -->
<!DOCTYPE svg PUBLIC "-//W3C//DTD SVG 1.1//EN" "http://www.w3.org/Graphics/SVG/1.1/DTD/svg11.dtd">
<svg version="1.1" id="Layer_1" xmlns="http://www.w3.org/2000/svg" xmlns:xlink="http://www.w3.org/1999/xlink" x="0px" y="0px"
	 width="200px" height="200px" viewBox="0 0 200 200" enable-background="new 0 0 200 200" xml:space="preserve">
<g>
	<path fill="#999999" d="M157.173,56.069H42.828c-1.599,0-2.828,1.229-2.828,2.828v72.91c0,1.598,1.229,2.827,2.828,2.827h6.27
		v-5.655h-3.442V61.726h108.811v67.254h-40.941v5.654h43.647c1.599,0,2.827-1.229,2.827-2.828v-72.91
		C160,57.299,158.771,56.069,157.173,56.069z"/>
	<g>
		<path fill="#32C5D2" d="M79.59,128.732l-1.721,7.377l5.655-4.058l-0.737-3.196l2.458-2.828c0.123-0.123,0.123-0.245,0-0.368
			l-1.475-3.565c0-0.121-0.123-0.121-0.246-0.121h-4.549c-0.123,0-0.246,0.121-0.246,0.121l-1.598,3.688c0,0.122,0,0.245,0,0.368
			L79.59,128.732z"/>
		<path fill="#32C5D2" d="M81.188,83.364c-9.098,0-16.475,7.377-16.475,16.476c0,9.1,7.377,16.475,16.475,16.475
			s16.476-7.375,16.476-16.475C97.664,90.742,90.287,83.364,81.188,83.364z M81.188,112.504c-7.008,0-12.787-5.779-12.787-12.787
			c0-1.106,0.123-2.09,0.369-3.074c1.475,0.737,4.18,1.844,7.254,1.844c2.213,0,4.672-0.492,6.885-2.213
			c0.246-0.123,5.902-4.181,10.328-0.123c0.369,1.106,0.492,2.336,0.492,3.688C93.976,106.725,88.197,112.504,81.188,112.504z"/>
		<polygon fill="#32C5D2" points="86.353,143.609 85.492,140.168 80.574,143.609 		"/>
		<polygon fill="#32C5D2" points="77.131,143.609 85,138.077 84.017,134.145 77.131,139.063 76.024,143.609 		"/>
		<path fill="#32C5D2" d="M110.695,143.609v-7.5c0-7.868-6.394-14.262-14.261-14.262h-0.492l-6.64,21.762H110.695z"/>
		<path fill="#32C5D2" d="M72.828,143.609l-6.271-21.762h-0.615c-7.869,0-14.262,6.394-14.262,14.262v7.5H72.828z"/>
	</g>
	<path fill="#999999" d="M130,81.644c3.688,0.983,6.639,3.565,8.359,6.885l6.764-4.304c-2.951-5.533-8.484-9.59-14.878-10.696
		L130,81.644z"/>
	<path fill="#999999" d="M124.713,107.34c-6.395-0.859-11.313-6.395-11.313-13.033c0-6.639,4.918-12.049,11.313-13.033l0.246-8.115
		c-10.941,0.738-19.549,9.959-19.549,21.024c0,11.066,8.605,20.288,19.549,21.025L124.713,107.34z"/>
	<path fill="#999999" d="M139.713,93.938c0,0.123,0,0.246,0,0.369c0,6.024-4.057,11.066-9.59,12.664l0.245,8.115
		c9.837-1.722,17.46-10.451,17.46-20.779c0-1.721-0.246-3.32-0.615-4.918L139.713,93.938z"/>
	<rect x="51.681" y="72.668" fill="#999999" width="14.016" height="3.565"/>
	<rect x="51.681" y="79.43" fill="#999999" width="16.721" height="3.565"/>
	<rect x="51.681" y="66.274" fill="#999999" width="7.008" height="3.565"/>
</g>
</svg>
