<?xml version="1.0" encoding="utf-8"?>
<!-- Generator: Adobe Illustrator 15.0.0, SVG Export Plug-In . SVG Version: 6.00 Build 0)  -->
<!DOCTYPE svg PUBLIC "-//W3C//DTD SVG 1.1//EN" "http://www.w3.org/Graphics/SVG/1.1/DTD/svg11.dtd">
<svg version="1.1" id="Layer_1" xmlns="http://www.w3.org/2000/svg" xmlns:xlink="http://www.w3.org/1999/xlink" x="0px" y="0px"
	 width="200px" height="200px" viewBox="0 0 200 200" enable-background="new 0 0 200 200" xml:space="preserve">
<g>
	<g>
		<path fill="#FFFFFF" d="M111.175,87.793h4.069c1.125,0,2.033-0.91,2.033-2.034c0-1.125-0.908-2.034-2.033-2.034h-4.069
			c-1.125,0-2.034,0.909-2.034,2.034S110.05,87.793,111.175,87.793z"/>
		<path fill="#FFFFFF" d="M104.059,102.034c-0.879-0.002-1.738-0.157-2.547-0.468c-1.042-0.397-2.225,0.127-2.628,1.176
			c-0.398,1.05,0.128,2.226,1.176,2.627c1.273,0.484,2.615,0.73,3.995,0.732h0.729c1.124,0,2.031-0.908,2.031-2.033
			s-0.907-2.034-2.031-2.034H104.059z"/>
		<path fill="#FFFFFF" d="M99.229,89.169c0.368,0,0.738-0.1,1.073-0.307c0.902-0.562,1.898-0.905,2.96-1.023
			c1.116-0.125,1.922-1.13,1.799-2.247c-0.121-1.117-1.119-1.915-2.244-1.8c-1.674,0.185-3.245,0.727-4.667,1.616
			c-0.953,0.594-1.243,1.85-0.648,2.803C97.885,88.83,98.549,89.169,99.229,89.169z"/>
		<path fill="#FFFFFF" d="M112.191,120.344c-0.176,0-0.35,0.006-0.521,0.014c-1.122,0.045-1.993,0.992-1.947,2.115
			c0.043,1.096,0.945,1.951,2.028,1.951c0.026,0,0.06,0,0.086-0.002l3.983-0.009c1.125,0,2.033-0.91,2.033-2.035
			s-0.908-2.034-2.033-2.034H112.191z"/>
		<path fill="#FFFFFF" d="M127.45,87.793c1.125,0,2.034-0.91,2.034-2.034c0-1.125-0.909-2.034-2.034-2.034h-4.068
			c-1.125,0-2.034,0.909-2.034,2.034c0,1.124,0.909,2.034,2.034,2.034H127.45z"/>
		<path fill="#FFFFFF" d="M136.168,120.344c-1.126,0-2.035,0.909-2.035,2.034s0.909,2.035,2.035,2.035h4.066
			c1.125,0,2.035-0.91,2.035-2.035s-0.91-2.034-2.035-2.034H136.168z"/>
		<path fill="#FFFFFF" d="M143.436,104.068c0-1.125-0.908-2.034-2.033-2.034h-4.067c-1.125,0-2.034,0.909-2.034,2.034
			s0.909,2.033,2.034,2.033h4.067C142.523,106.104,143.436,105.193,143.436,104.068z"/>
		<path fill="#FFFFFF" d="M123.961,124.413h4.068c1.123,0,2.035-0.91,2.035-2.035s-0.912-2.034-2.035-2.034h-4.068
			c-1.126,0-2.034,0.909-2.034,2.034S122.838,124.413,123.961,124.413z"/>
		<path fill="#FFFFFF" d="M131.229,104.068c0-1.125-0.908-2.034-2.033-2.034h-4.067c-1.125,0-2.035,0.909-2.035,2.034
			s0.91,2.033,2.035,2.033h4.067C130.316,106.104,131.229,105.193,131.229,104.068z"/>
		<path fill="#FFFFFF" d="M112.92,102.034c-1.125,0-2.033,0.909-2.033,2.034s0.908,2.033,2.033,2.033h4.068
			c1.125,0,2.035-0.908,2.035-2.033s-0.91-2.034-2.035-2.034H112.92z"/>
		<path fill="#FFFFFF" d="M87.923,156.963h-4.068c-1.125,0-2.035,0.909-2.035,2.034s0.909,2.034,2.035,2.034h4.068
			c1.125,0,2.035-0.909,2.035-2.034S89.046,156.963,87.923,156.963z"/>
		<path fill="#FFFFFF" d="M75.717,156.963h-4.068c-1.125,0-2.035,0.909-2.035,2.034s0.91,2.034,2.035,2.034h4.068
			c1.125,0,2.035-0.909,2.035-2.034S76.84,156.963,75.717,156.963z"/>
		<path fill="#FFFFFF" d="M145.984,149.877c-1.099-0.246-2.187,0.441-2.434,1.538c-0.23,1.038-0.688,1.992-1.349,2.832
			c-0.692,0.883-0.543,2.162,0.343,2.856c0.373,0.291,0.814,0.435,1.254,0.435c0.604,0,1.201-0.267,1.604-0.777
			c1.023-1.303,1.759-2.84,2.119-4.45C147.77,151.211,147.081,150.122,145.984,149.877z"/>
		<path fill="#FFFFFF" d="M143.802,146.219c0.44,0,0.888-0.144,1.255-0.436c0.887-0.696,1.037-1.977,0.344-2.855
			c-1.021-1.3-2.346-2.375-3.821-3.109c-1.013-0.502-2.229-0.088-2.729,0.916c-0.5,1.009-0.09,2.229,0.916,2.729
			c0.941,0.468,1.782,1.15,2.437,1.979C142.604,145.952,143.198,146.219,143.802,146.219z"/>
		<path fill="#FFFFFF" d="M134.717,140.686c0-1.123-0.91-2.031-2.033-2.031h-4.067c-1.125,0-2.034,0.908-2.034,2.031
			c0,1.127,0.909,2.037,2.034,2.037h4.067C133.807,142.723,134.717,141.813,134.717,140.686z"/>
		<path fill="#FFFFFF" d="M136.604,156.963h-3.927c-1.125,0-2.034,0.909-2.034,2.034s0.909,2.034,2.034,2.034l4.011-0.002
			l0.061-2.034v2.034c1.124,0,1.965-0.91,1.965-2.034C138.712,157.872,137.729,156.963,136.604,156.963z"/>
		<path fill="#FFFFFF" d="M159.863,111.458c-0.18-1.11-1.229-1.87-2.331-1.688c-1.11,0.18-1.865,1.226-1.687,2.332
			c0.057,0.362,0.09,0.73,0.086,1.123c0,0.685-0.101,1.358-0.289,2.01c-0.315,1.08,0.301,2.211,1.381,2.524
			c0.189,0.056,0.384,0.082,0.572,0.082c0.881,0,1.69-0.573,1.95-1.462c0.302-1.023,0.452-2.084,0.452-3.141
			C160.005,112.652,159.958,112.053,159.863,111.458z"/>
		<path fill="#FFFFFF" d="M95.99,99.705c1.066-0.353,1.648-1.501,1.298-2.57c-0.233-0.714-0.354-1.461-0.354-2.214
			c0.001-0.307,0.02-0.614,0.057-0.913c0.141-1.115-0.648-2.134-1.763-2.272c-1.15-0.129-2.135,0.653-2.273,1.764
			c-0.057,0.46-0.087,0.928-0.089,1.411c0,1.196,0.187,2.372,0.555,3.495c0.282,0.857,1.079,1.4,1.933,1.4
			C95.564,99.806,95.78,99.776,95.99,99.705z"/>
		<path fill="#FFFFFF" d="M154.411,103.535c-1.451-0.844-3.039-1.336-4.713-1.469c-1.117-0.08-2.101,0.748-2.187,1.869
			c-0.09,1.121,0.747,2.102,1.868,2.188c1.062,0.083,2.068,0.396,2.989,0.932c0.32,0.188,0.673,0.275,1.021,0.275
			c0.699,0,1.383-0.364,1.762-1.016C155.716,105.348,155.383,104.102,154.411,103.535z"/>
		<path fill="#FFFFFF" d="M151.563,119.792c-0.873,0.366-1.797,0.552-2.75,0.552h-0.438c-1.126,0-2.034,0.909-2.034,2.033
			c0,1.125,0.908,2.036,2.034,2.036h0.438c1.496,0,2.949-0.294,4.321-0.869c1.036-0.437,1.522-1.628,1.089-2.664
			C153.788,119.846,152.587,119.355,151.563,119.792z"/>
		<path fill="#FFFFFF" d="M105.197,130.188c0.201-1.045,0.625-2.012,1.259-2.873c0.666-0.903,0.474-2.179-0.433-2.846
			c-0.905-0.662-2.176-0.472-2.844,0.434c-0.996,1.354-1.662,2.875-1.979,4.521c-0.212,1.104,0.511,2.17,1.616,2.385
			c0.127,0.022,0.258,0.035,0.383,0.035C104.156,131.838,105.01,131.16,105.197,130.188z"/>
		<path fill="#FFFFFF" d="M108.387,141.896c0.771,0,1.51-0.441,1.85-1.188c0.469-1.022,0.019-2.229-1.004-2.694
			c-0.953-0.438-1.814-1.095-2.496-1.904c-0.725-0.859-2.008-0.973-2.865-0.248c-0.861,0.722-0.975,2.007-0.249,2.865
			c1.063,1.269,2.421,2.301,3.92,2.985C107.816,141.835,108.104,141.896,108.387,141.896z"/>
		<path fill="#FFFFFF" d="M100.129,156.963h-4.068c-1.125,0-2.034,0.909-2.034,2.034s0.909,2.034,2.034,2.034h4.068
			c1.125,0,2.036-0.909,2.036-2.034S101.253,156.963,100.129,156.963z"/>
		<path fill="#FFFFFF" d="M112.336,156.963h-4.068c-1.123,0-2.035,0.909-2.035,2.034s0.912,2.034,2.035,2.034h4.068
			c1.126,0,2.035-0.909,2.035-2.034S113.459,156.963,112.336,156.963z"/>
		<path fill="#FFFFFF" d="M122.512,140.686c0-1.123-0.91-2.031-2.033-2.031h-4.069c-1.124,0-2.034,0.908-2.034,2.031
			c0,1.127,0.91,2.037,2.034,2.037h4.069C121.6,142.723,122.512,141.813,122.512,140.686z"/>
		<path fill="#FFFFFF" d="M124.543,156.963h-4.068c-1.125,0-2.035,0.909-2.035,2.034s0.91,2.034,2.035,2.034h4.068
			c1.126,0,2.035-0.909,2.035-2.034S125.666,156.963,124.543,156.963z"/>
	</g>
	<path fill="#FFFFFF" d="M81.733,97.918c-4.62-5.217-10.78-8.09-17.349-8.09c-6.57,0-12.73,2.873-17.348,8.09
		c-9.382,10.6-9.382,27.848,0,38.449l17.348,19.597l17.347-19.597C91.115,125.766,91.115,108.52,81.733,97.918z M64.384,126.447
		c-6.732,0-12.207-5.477-12.207-12.206c0-6.732,5.475-12.207,12.207-12.207c6.731,0,12.206,5.475,12.206,12.207
		C76.59,120.973,71.116,126.447,64.384,126.447z"/>
	<path fill="#FFFFFF" d="M138.139,88.825l13.15-14.822c7.074-7.974,7.074-20.946,0-28.921c-3.5-3.942-8.171-6.113-13.152-6.113
		c-4.979,0-9.65,2.171-13.15,6.113c-7.072,7.975-7.072,20.947,0,28.921L138.139,88.825z M138.641,47.106
		c6.166,0,11.188,5.021,11.188,11.19c0,6.167-5.021,11.188-11.188,11.188c-6.17,0-11.188-5.021-11.188-11.188
		C127.45,52.127,132.471,47.106,138.641,47.106z"/>
</g>
</svg>
