<?xml version="1.0" encoding="utf-8"?>
<!-- Generator: Adobe Illustrator 15.0.0, SVG Export Plug-In . SVG Version: 6.00 Build 0)  -->
<!DOCTYPE svg PUBLIC "-//W3C//DTD SVG 1.1//EN" "http://www.w3.org/Graphics/SVG/1.1/DTD/svg11.dtd">
<svg version="1.1" id="Layer_1" xmlns="http://www.w3.org/2000/svg" xmlns:xlink="http://www.w3.org/1999/xlink" x="0px" y="0px"
	 width="200px" height="200px" viewBox="0 0 200 200" enable-background="new 0 0 200 200" xml:space="preserve">
<g>
	<g>
		<polyline fill="#999999" points="99.776,107.29 99.776,116.359 63.497,116.359 63.497,107.29 99.776,107.29 		"/>
		<polyline fill="#999999" points="99.776,119.383 99.776,128.453 63.497,128.453 63.497,119.383 99.776,119.383 		"/>
		<rect x="69.543" y="110.314" fill="#FFFFFF" width="3.023" height="3.021"/>
		<rect x="81.637" y="110.314" fill="#FFFFFF" width="12.092" height="3.021"/>
		<rect x="69.543" y="122.406" fill="#FFFFFF" width="3.023" height="3.023"/>
		<rect x="81.637" y="122.406" fill="#FFFFFF" width="12.092" height="3.023"/>
		<rect x="63.497" y="95.197" fill="#999999" width="36.28" height="9.071"/>
		<rect x="69.543" y="98.22" fill="#FFFFFF" width="3.023" height="3.023"/>
		<rect x="81.637" y="98.22" fill="#FFFFFF" width="12.092" height="3.023"/>
		<rect x="75.591" y="98.22" fill="#FFFFFF" width="3.023" height="3.023"/>
		<rect x="75.591" y="110.314" fill="#FFFFFF" width="3.023" height="3.021"/>
		<rect x="75.591" y="122.406" fill="#FFFFFF" width="3.023" height="3.023"/>
	</g>
	<g>
		<path fill="#32C5D2" d="M139.229,122.553l-14.121-23.024c-0.939-1.535-2.479-1.513-3.418,0.021l-14.123,22.994
			c-0.94,1.534-0.238,2.722,1.56,2.722h28.543C139.468,125.264,140.17,124.086,139.229,122.553z"/>
		<g>
			<path fill="#FFFFFF" d="M123.387,104.373c0.904,0,1.604,1.001,1.559,2.223l-0.287,7.358c-0.047,1.219-0.62,2.22-1.274,2.22
				c-0.653,0-1.229-1.001-1.276-2.22l-0.282-7.358C121.777,105.374,122.479,104.373,123.387,104.373z"/>
			<path fill="#FFFFFF" d="M123.387,121.715c-1.143,0-1.924-0.835-1.902-1.975c0-1.165,0.787-1.975,1.902-1.975
				c1.162,0,1.898,0.81,1.924,1.975C125.311,120.881,124.549,121.715,123.387,121.715z"/>
		</g>
	</g>
	<g>
		<path fill="#999999" d="M108.096,60.657c15.807,0,28.617,12.814,28.617,28.619c0,0.665-0.023,1.325-0.066,1.978h0.295
			c13.074,0,23.674,10.598,23.674,23.672v0.151c0,13.073-10.6,23.673-23.674,23.673H61.589c-13.073,0-23.671-10.598-23.671-23.673
			v-0.151c0-12.436,9.592-22.634,21.782-23.596c-0.405-1.324-0.623-2.729-0.623-4.186c0-7.903,6.407-14.309,14.309-14.309
			c3.521,0,6.744,1.272,9.237,3.381C87.369,66.978,96.994,60.657,108.096,60.657 M108.096,57.003
			c-6.048,0-11.943,1.683-17.053,4.869c-3.818,2.381-7.088,5.524-9.609,9.214c-2.481-1.243-5.237-1.904-8.047-1.904
			c-4.798,0-9.309,1.869-12.701,5.261c-3.393,3.394-5.261,7.903-5.261,12.701c0,0.384,0.012,0.767,0.036,1.148
			c-5.303,1.215-10.138,3.996-13.899,8.046c-4.705,5.068-7.295,11.668-7.295,18.586v0.152c0,3.688,0.723,7.267,2.148,10.637
			c1.377,3.255,3.346,6.178,5.854,8.684c2.508,2.511,5.43,4.479,8.685,5.856c3.372,1.425,6.95,2.147,10.637,2.147h75.353
			c3.688,0,7.267-0.724,10.638-2.147c3.255-1.377,6.175-3.347,8.685-5.856c2.51-2.504,4.479-5.429,5.855-8.684
			c1.425-3.37,2.146-6.949,2.146-10.637v-0.152c0-3.688-0.723-7.267-2.146-10.637c-1.377-3.254-3.348-6.177-5.855-8.685
			c-2.508-2.508-5.43-4.477-8.685-5.854c-2.326-0.984-4.752-1.634-7.246-1.941c-0.168-3.837-1.011-7.564-2.506-11.096
			c-1.625-3.844-3.95-7.294-6.915-10.257c-2.961-2.962-6.413-5.289-10.256-6.914C116.677,57.858,112.45,57.003,108.096,57.003
			L108.096,57.003z"/>
	</g>
</g>
</svg>
