<svg id="Group_41" data-name="Group 41" xmlns="http://www.w3.org/2000/svg" width="24" height="24" viewBox="0 0 24 24">
  <path id="Path_36" data-name="Path 36" d="M68,0H92V24H68Z" transform="translate(-68)" fill="none"/>
  <path id="Path_37" data-name="Path 37" d="M75.35,9.24,71.69,12.9l3.65,3.66L79,12.9Z" transform="translate(-68)" fill="#32c5d2" opacity="0.3"/>
  <path id="Path_38" data-name="Path 38" d="M75.34,6.41,68.86,12.9l6.49,6.48,6.49-6.48Zm0,10.15L71.69,12.9l3.66-3.66L79,12.9ZM87.36,6.64A8.949,8.949,0,0,0,81,4V.76L76.76,5,81,9.24V6a7,7,0,1,1-2.84,13.39l-1.49,1.49A8.993,8.993,0,0,0,87.36,6.64Z" transform="translate(-68)" fill="#32c5d2"/>
</svg>
