<?xml version="1.0" encoding="utf-8"?>
<!-- Generator: Adobe Illustrator 15.0.0, SVG Export Plug-In . SVG Version: 6.00 Build 0)  -->
<!DOCTYPE svg PUBLIC "-//W3C//DTD SVG 1.1//EN" "http://www.w3.org/Graphics/SVG/1.1/DTD/svg11.dtd">
<svg version="1.1" id="Layer_1" xmlns="http://www.w3.org/2000/svg" xmlns:xlink="http://www.w3.org/1999/xlink" x="0px" y="0px"
	 width="200px" height="200px" viewBox="0 0 200 200" enable-background="new 0 0 200 200" xml:space="preserve">
<g>
	<path fill="#32C5D2" d="M98.268,41.265c-10.745,0.528-19.299,9.431-19.299,20.304c0,7.066,3.598,13.24,9.084,16.863
		c1.773,1.169,1.627,3.849-0.352,4.592c-12.375,4.652-21.207,16.524-21.207,30.542c21.844,6.644,43.709,6.644,65.578,0
		c0-14.03-8.832-25.878-21.209-30.542c-1.965-0.719-2.172-3.397-0.426-4.542c6.412-4.214,10.312-11.96,8.857-20.479
		c-1.387-8.223-8.102-14.986-16.311-16.439C101.38,41.281,99.804,41.189,98.268,41.265z M58.013,51.931
		c-7.775,0.375-13.979,6.813-13.979,14.706c0,5.089,2.605,9.589,6.576,12.197c1.258,0.886,1.163,2.811-0.276,3.337
		C41.365,85.563,35,94.155,35,104.307c9.188,2.789,18.379,3.963,27.632,3.539c1.311-8.29,5.455-15.83,11.519-21.458
		c-2.057-1.837-4.444-3.227-7.053-4.215c-1.4-0.527-1.535-2.466-0.277-3.289c4.625-3.045,7.479-8.626,6.425-14.807
		c-1.041-5.937-5.897-10.867-11.821-11.921C60.265,51.95,59.124,51.877,58.013,51.931z M140.506,51.931
		c-7.793,0.375-13.979,6.813-13.979,14.706c0,5.089,2.615,9.589,6.6,12.197c1.246,0.886,1.148,2.811-0.275,3.337
		c-2.918,1.079-5.582,2.723-7.806,4.868c5.718,5.474,9.606,12.763,10.915,20.705c9.689,0.591,19.362-0.51,29.039-3.438
		c0-10.152-6.416-18.758-15.385-22.136c-1.413-0.527-1.588-2.466-0.277-3.289c4.614-3.045,7.416-8.626,6.375-14.807
		c-1.002-5.937-5.846-10.867-11.77-11.921C142.777,51.95,141.619,51.877,140.506,51.931z"/>
	<g>
		<polygon fill="#999999" points="45.541,116.083 43.056,123.734 35,123.734 41.525,128.48 39.041,136.134 45.541,131.417 
			52.066,136.134 49.581,128.48 56.082,123.734 48.026,123.734 		"/>
		<polygon fill="#999999" points="154.459,116.083 151.949,123.734 143.895,123.734 150.419,128.48 147.936,136.134 
			154.459,131.417 160.959,136.134 158.475,128.48 165,123.734 156.943,123.734 		"/>
		<polygon fill="#999999" points="72.344,122.232 69.157,132.02 58.841,132.02 67.174,138.093 64.012,147.881 72.344,141.832 
			80.675,147.881 77.488,138.093 85.844,132.02 75.531,132.02 		"/>
		<polygon fill="#999999" points="127.656,122.232 124.471,132.02 114.154,132.02 122.514,138.093 119.324,147.881 127.656,141.832 
			135.988,147.881 132.801,138.093 141.135,132.02 130.843,132.02 		"/>
		<polygon fill="#999999" points="99.272,126.096 95.306,138.318 82.458,138.318 92.873,145.872 88.882,158.094 99.272,150.541 
			109.688,158.094 105.697,145.872 116.111,138.318 103.264,138.318 		"/>
	</g>
</g>
</svg>
