<?xml version="1.0" encoding="utf-8"?>
<!-- Generator: Adobe Illustrator 15.0.0, SVG Export Plug-In . SVG Version: 6.00 Build 0)  -->
<!DOCTYPE svg PUBLIC "-//W3C//DTD SVG 1.1//EN" "http://www.w3.org/Graphics/SVG/1.1/DTD/svg11.dtd">
<svg version="1.1" id="Layer_1" xmlns="http://www.w3.org/2000/svg" xmlns:xlink="http://www.w3.org/1999/xlink" x="0px" y="0px"
	 width="200px" height="200px" viewBox="0 0 200 200" enable-background="new 0 0 200 200" xml:space="preserve">
<path fill="#FFFFFF" d="M105.979,136.643h1.983 M49.468,47.378l114.966,0.063l0.066-0.004v1.922v87.284H49.443l0.004-87.284
	 M51.427,49.359v85.3h111.089v-85.3H51.427z"/>
<g>
	<path fill="#FFFFFF" d="M72.042,96.699c-9.942,0-18.002,8.06-18.002,18.002c0,4.672,1.795,8.915,4.715,12.115
		c0.094,0.089,0.184,0.167,0.284,0.268c0.223,0.223,0.408,0.426,0.574,0.619c3.232,3.091,7.604,5,12.429,5
		c9.942,0,18.002-8.061,18.002-18.002C90.044,104.759,81.984,96.699,72.042,96.699z M76.126,114.557h3.36v6.096h-3.36V114.557z
		 M71.105,107.248h3.359v13.404h-3.359V107.248z M66.082,111.714h3.36v8.938h-0.018h-3.342V111.714z M80.237,123.637H64.303
		c-0.106,0.018-0.25,0.021-0.455,0.021c-0.751,0-0.751,0-0.751-0.753v-16.389c0-0.75-0.017-0.768,0.733-0.768
		c0.751,0,0.751,0,0.751,0.749v15.639h15.656c0.751,0,0.751,0,0.751,0.75C80.988,123.637,80.988,123.637,80.237,123.637z"/>
	<path fill="#FFFFFF" d="M58.755,126.816c-1.374-1.29-2.119-1.37-2.528-0.963l-21.618,20.002c-0.435,0.436,0.477,2.057,2.04,3.619
		c1.56,1.561,3.181,2.475,3.616,2.039l20.003-21.619c0.375-0.375,0.343-1.029-0.655-2.191
		C59.315,127.419,59.032,127.121,58.755,126.816z"/>
</g>
<g>
	<path fill="#FFFFFF" d="M107.468,116.807c-9.039,0-16.366-7.326-16.366-16.365h16.366V84.076c9.038,0,16.365,7.327,16.365,16.366
		C123.833,109.479,116.506,116.807,107.468,116.807z"/>
	<path fill="#FFFFFF" d="M88.126,97.962c0-9.313,7.55-16.862,16.862-16.862v16.862H88.126z"/>
	<rect x="83.167" y="78.125" fill="#FFFFFF" width="3.967" height="1.984"/>
	<rect x="55.395" y="78.125" fill="#FFFFFF" width="23.805" height="1.984"/>
	<rect x="69.28" y="72.173" fill="#FFFFFF" width="3.968" height="1.984"/>
	<rect x="77.215" y="72.173" fill="#FFFFFF" width="9.919" height="1.984"/>
	<rect x="55.395" y="72.173" fill="#FFFFFF" width="9.918" height="1.984"/>
	<rect x="83.167" y="56.303" fill="#FFFFFF" width="49.593" height="3.968"/>
	<rect x="93.085" y="64.238" fill="#FFFFFF" width="29.755" height="3.968"/>
	<polygon fill="#FFFFFF" points="85.85,90.027 85.85,92.01 81.183,92.01 75.232,86.059 55.395,86.125 55.395,84.076 76.224,84.076 
		82.175,90.027 	"/>
	<rect x="126.809" y="119.783" fill="#FFFFFF" width="9.92" height="1.982"/>
	<rect x="148.63" y="119.783" fill="#FFFFFF" width="9.919" height="1.982"/>
	<rect x="140.693" y="119.783" fill="#FFFFFF" width="3.969" height="1.982"/>
	<rect x="126.809" y="125.734" fill="#FFFFFF" width="23.805" height="1.981"/>
	<rect x="154.581" y="125.734" fill="#FFFFFF" width="3.968" height="1.981"/>
	<polygon fill="#FFFFFF" points="127.801,109.864 127.801,107.881 132.468,107.881 138.419,113.832 158.256,113.768 
		158.256,115.814 137.428,115.814 131.477,109.864 	"/>
</g>
</svg>
