<?xml version="1.0" encoding="utf-8"?>
<!-- Generator: Adobe Illustrator 21.0.0, SVG Export Plug-In . SVG Version: 6.00 Build 0)  -->
<svg version="1.1" id="Layer_1" xmlns="http://www.w3.org/2000/svg" xmlns:xlink="http://www.w3.org/1999/xlink" x="0px" y="0px"
	 viewBox="0 0 200 200" style="enable-background:new 0 0 200 200;" xml:space="preserve">
<style type="text/css">
	.st0{fill:#3DCFCF;}
	.st1{fill:#999999;}
</style>
<g>
	<g>
		<path class="st0" d="M100,54c9.1,0,16.4,7.4,16.4,16.4s-7.4,16.4-16.4,16.4s-16.4-7.4-16.4-16.4S90.9,54,100,54 M100,50
			c-11.3,0-20.4,9.1-20.4,20.4s9.1,20.4,20.4,20.4s20.4-9.1,20.4-20.4S111.3,50,100,50L100,50z"/>
	</g>
	<g>
		<path class="st1" d="M100,99.3c10,0,18.2,3.2,24.3,9.6c6.1,6.3,10.2,15.7,12.3,27.9c0.1,0.8-0.1,1.4-0.7,2.1
			c-2.8,3.2-13.8,7-35.9,7s-33.1-3.8-35.9-7c-0.6-0.7-0.8-1.3-0.7-2.1c2-12.3,6.2-21.7,12.3-28C81.8,102.5,90,99.3,100,99.3
			 M100,95.3c-22.8,0-36.2,15.1-40.5,40.9C57.9,146.1,77.6,150,100,150s42.1-3.9,40.5-13.8C136.2,110.6,122.8,95.3,100,95.3
			L100,95.3z"/>
	</g>
</g>
</svg>
