<?xml version="1.0" standalone="no"?>
<!DOCTYPE svg PUBLIC "-//W3C//DTD SVG 1.1//EN" "http://www.w3.org/Graphics/SVG/1.1/DTD/svg11.dtd" >
<svg xmlns="http://www.w3.org/2000/svg" xmlns:xlink="http://www.w3.org/1999/xlink" version="1.1">
<metadata>
Created by FontForge 20201107 at Fri May 24 21:06:21 2024
 By 
Copyright 2016 The Inter Project Authors (https://github.com/rsms/inter)
</metadata>
<defs>
<font id="Inter24pt-Black" horiz-adv-x="1294" >
  <font-face 
    font-family="Inter 24pt Black"
    font-weight="900"
    font-stretch="normal"
    units-per-em="2048"
    panose-1="2 0 5 3 0 0 0 2 0 4"
    ascent="1638"
    descent="-410"
    x-height="1084"
    cap-height="1490"
    bbox="-1707.02 -703 5281 2302"
    underline-thickness="248"
    underline-position="-307"
    unicode-range="U+0020-1F852"
  />
<missing-glyph horiz-adv-x="1344" 
d="M1016 -416h-688v2272h688v-2272zM512 -192v-64h320v64h-215l215 127v65h-320v-64h216zM512 320v-256h320v256h-320zM768 128h-192v128h192v-128zM512 704v-256h320v256h-192v-128h64v64h64v-128h-192v192h-64zM512 832v-64h320v224h-64v-160h-256zM512 960v-64h192v160
h128v64h-320v-64h128v-96h-128zM640 1248h-64v96h64v-96zM512 1408v-224h320v64h-128v160h-192zM512 1536v-64h320v64h-144v96h144v64h-320v-64h112v-96h-112z" />
    <glyph glyph-name=".notdef" horiz-adv-x="1344" 
d="M1016 -416h-688v2272h688v-2272zM512 -192v-64h320v64h-215l215 127v65h-320v-64h216zM512 320v-256h320v256h-320zM768 128h-192v128h192v-128zM512 704v-256h320v256h-192v-128h64v64h64v-128h-192v192h-64zM512 832v-64h320v224h-64v-160h-256zM512 960v-64h192v160
h128v64h-320v-64h128v-96h-128zM640 1248h-64v96h64v-96zM512 1408v-224h320v64h-128v160h-192zM512 1536v-64h320v64h-144v96h144v64h-320v-64h112v-96h-112z" />
    <glyph glyph-name=".null" horiz-adv-x="1200" 
 />
    <glyph glyph-name="nonmarkingreturn" horiz-adv-x="682" 
 />
    <glyph glyph-name="space" unicode=" " horiz-adv-x="390" 
 />
    <glyph glyph-name="exclam" unicode="!" horiz-adv-x="653" 
d="M149 469l-34 1021h424l-35 -1021h-355zM327 -21q-91 0 -151 57.5t-60 146.5q0 88 60 146t151 58t150.5 -58t59.5 -146q0 -89 -59.5 -146.5t-150.5 -57.5z" />
    <glyph glyph-name="quotedbl" unicode="&#x22;" horiz-adv-x="1173" 
d="M187 855l-35 635h361l-36 -635h-290zM696 855l-35 635h361l-36 -635h-290z" />
    <glyph glyph-name="numbersign" unicode="#" horiz-adv-x="1338" 
d="M663 0l244 1490h292l-246 -1490h-290zM3 340l50 292h1198l-50 -292h-1198zM139 0l244 1490h292l-244 -1490h-292zM87 858l50 292h1198l-50 -292h-1198z" />
    <glyph glyph-name="dollar" unicode="$" horiz-adv-x="1386" 
d="M622 -204v1898h172v-1898h-172zM703 -21q-201 0 -344.5 58.5t-220 177t-77.5 293.5h389q4 -63 35 -108t86.5 -68.5t131.5 -23.5q66 0 112.5 16.5t72 45.5t25.5 67q0 35 -24 61.5t-76 47t-135 36.5l-149 30q-208 42 -321.5 148.5t-113.5 276.5q0 142 77 249t213 166.5
t316 59.5q183 0 316 -59.5t206 -170t76 -261.5h-384q-7 75 -61 118t-149 43q-60 0 -102.5 -15.5t-65 -43t-22.5 -62.5q0 -36 21.5 -61.5t69 -44.5t121.5 -34l121 -23q125 -25 216 -65t149 -95t85 -125.5t27 -158.5q0 -152 -73.5 -258t-212.5 -161.5t-335 -55.5z" />
    <glyph glyph-name="percent" unicode="%" horiz-adv-x="2108" 
d="M500 716q-111 0 -193 48t-127 132t-45 192v52q0 110 45.5 194t128 132t191.5 48q112 0 194 -48t127.5 -132t45.5 -194v-52q0 -109 -45.5 -193t-128 -131.5t-193.5 -47.5zM500 944q55 0 81 39t26 105v52q0 67 -25.5 107.5t-81.5 40.5q-54 0 -79.5 -41t-25.5 -107v-52
q0 -66 26 -105t79 -39zM1606 -24q-111 0 -193 47.5t-127 132t-45 192.5v52q0 109 45.5 193.5t128 132.5t191.5 48q112 0 194 -48t127.5 -132.5t45.5 -193.5v-52q0 -109 -45.5 -193t-128 -131.5t-193.5 -47.5zM1606 204q55 0 81 38.5t26 105.5v52q0 67 -25.5 107.5
t-81.5 40.5q-54 0 -79.5 -41t-25.5 -107v-52q0 -67 26 -105.5t79 -38.5zM415 0l1024 1490h249l-1024 -1490h-249z" />
    <glyph glyph-name="ampersand" unicode="&#x26;" horiz-adv-x="1406" 
d="M569 -24q-160 0 -276 57t-178 152.5t-62 210.5q0 84 31 149.5t88.5 119.5t136.5 103l338 210q34 21 53 43.5t27 44.5t8 40q0 35 -26.5 62.5t-81.5 27.5q-34 0 -58.5 -12.5t-38 -35.5t-13.5 -54q0 -43 23.5 -89t66 -97.5t98.5 -113.5l722 -794h-402l-604 640
q-45 48 -98.5 116.5t-92.5 155t-39 188.5q0 114 54.5 207.5t152.5 149t229 55.5q125 0 215.5 -51.5t139.5 -137t49 -189.5q0 -69 -23 -132.5t-67 -118.5t-108 -101l-308 -218q-35 -25 -61.5 -57t-26.5 -83q0 -42 20 -72t56 -46t84 -16q75 0 149.5 36t136 101.5t99 154.5
t37.5 194h318q0 -129 -27 -249t-86.5 -219.5t-156.5 -167.5l-111 -53q-89 -58 -191 -84.5t-196 -26.5z" />
    <glyph glyph-name="quotesingle" unicode="'" horiz-adv-x="664" 
d="M187 855l-35 635h361l-36 -635h-290z" />
    <glyph glyph-name="parenleft" unicode="(" horiz-adv-x="762" 
d="M110 599q0 174 30.5 355.5t84.5 343t125 275.5h375q-61 -144 -108 -308t-73.5 -334t-26.5 -332q0 -140 22.5 -274.5t69 -282.5t116.5 -329h-375q-118 195 -179 421t-61 465z" />
    <glyph glyph-name="parenright" unicode=")" horiz-adv-x="762" 
d="M36 -287q72 181 118 329t68.5 282.5t22.5 274.5q0 162 -26.5 332t-73.5 334t-109 308h375q72 -114 126 -275.5t84.5 -343t30.5 -355.5q0 -239 -61.5 -465t-179.5 -421h-375z" />
    <glyph glyph-name="asterisk" unicode="*" horiz-adv-x="1228" 
d="M497 652l24 256l-212 -148l-118 202l234 108l-234 108l118 204l212 -148l-24 256h232l-22 -256l212 148l116 -204l-232 -108l232 -108l-116 -202l-212 148l22 -256h-232z" />
    <glyph glyph-name="plus" unicode="+" horiz-adv-x="1402" 
d="M538 49v1078h326v-1078h-326zM163 433v310h1076v-310h-1076z" />
    <glyph glyph-name="comma" unicode="," horiz-adv-x="642" 
d="M72 -377l73 635h375l-180 -635h-268z" />
    <glyph glyph-name="hyphen" unicode="-" horiz-adv-x="954" 
d="M826 731v-302h-698v302h698z" />
    <glyph glyph-name="period" unicode="." horiz-adv-x="642" 
d="M321 -21q-87 0 -147 59.5t-60 146.5q0 86 60 145.5t147 59.5t147 -59.5t60 -145.5q0 -87 -60 -146.5t-147 -59.5z" />
    <glyph glyph-name="slash" unicode="/" horiz-adv-x="826" 
d="M823 1560l-480 -1784h-340l480 1784h340z" />
    <glyph glyph-name="zero" unicode="0" horiz-adv-x="1423" 
d="M711 -22q-206 0 -353.5 92t-226 263.5t-78.5 410.5q0 240 78.5 412t226 264t353.5 92q207 0 354.5 -92t225.5 -264t78 -412t-78 -411.5t-225 -263t-355 -91.5zM711 301q81 0 137.5 52.5t86.5 151.5t30 239q0 141 -30 240.5t-87 152.5t-136 53q-80 0 -137 -53t-87 -152.5
t-30 -240.5q0 -140 29.5 -239t87 -151.5t136.5 -52.5z" />
    <glyph glyph-name="one" unicode="1" horiz-adv-x="882" 
d="M794 1490v-1490h-401v1133h-6l-329 -211v344l352 224h384z" />
    <glyph glyph-name="two" unicode="2" horiz-adv-x="1306" 
d="M85 0v290l558 456q48 39 91 78.5t69.5 86t26.5 105.5q0 55 -23.5 95t-65.5 62.5t-98 22.5q-58 0 -102.5 -25.5t-69 -75t-24.5 -120.5h-383q0 167 71 287t201 185t308 65q171 0 301 -57t202.5 -162t72.5 -249q0 -100 -39.5 -186t-122.5 -174t-214 -196l-196 -160v-6h581
v-322h-1144z" />
    <glyph glyph-name="three" unicode="3" horiz-adv-x="1334" 
d="M666 -22q-197 0 -331.5 69t-203.5 184.5t-69 254.5h397q0 -58 25.5 -101t72.5 -66.5t109 -23.5q58 0 102.5 20.5t69 57t24.5 83.5q0 48 -28 84t-78 56t-118 20h-148v280h148q63 0 110 19t73 53.5t26 81.5q0 46 -23 81.5t-62.5 55.5t-91.5 20q-56 0 -99.5 -21.5t-68 -59.5
t-24.5 -89h-388q0 137 71 244.5t201.5 169t307.5 61.5q165 0 292 -54t198.5 -149.5t71.5 -219.5q0 -130 -86 -212.5t-216 -97.5v-6q116 -12 194 -61t117.5 -124t39.5 -164q0 -129 -78 -230t-216 -158.5t-321 -57.5z" />
    <glyph glyph-name="four" unicode="4" horiz-adv-x="1425" 
d="M73 263v314l604 913h272v-393h-151l-340 -518v-6h899v-310h-1284zM799 0v359l5 138v993h384v-1490h-389z" />
    <glyph glyph-name="five" unicode="5" 
d="M643 -22q-172 0 -303 60.5t-207 170.5t-82 259h389q0 -54 27 -95.5t73.5 -65t103.5 -23.5q62 0 108 27t72.5 75.5t26.5 113.5q0 66 -26.5 115.5t-73 77t-107.5 27.5q-71 0 -124.5 -32.5t-74.5 -87.5l-365 31l49 859h1020v-324h-670l-23 -280h4q41 56 117 88.5t172 32.5
q99 0 188 -37t157.5 -104t107.5 -157.5t39 -196.5q0 -156 -74 -276.5t-208.5 -189t-315.5 -68.5z" />
    <glyph glyph-name="six" unicode="6" horiz-adv-x="1349" 
d="M699 -22q-142 0 -260.5 46t-205 139.5t-133.5 234.5t-47 330q0 181 45 326t129.5 247.5t204.5 156.5t269 54q165 0 290 -62.5t199 -166.5t86 -232h-389q-13 68 -65.5 103.5t-128.5 35.5q-86 0 -141.5 -47t-82.5 -133t-27 -204h5q34 61 87 103t122 63t147 21
q145 0 256 -63.5t173.5 -173.5t62.5 -252q0 -158 -76 -276.5t-210.5 -184t-309.5 -65.5zM695 287q61 0 107.5 27.5t73.5 75t27 108.5t-27 108.5t-73.5 75t-107.5 27.5q-44 0 -81.5 -16t-65.5 -44t-43.5 -66.5t-15.5 -84.5q0 -61 27 -108.5t74 -75t105 -27.5z" />
    <glyph glyph-name="seven" unicode="7" horiz-adv-x="1200" 
d="M149 0l584 1154v4h-686v332h1106v-324l-588 -1166h-416z" />
    <glyph glyph-name="eight" unicode="8" horiz-adv-x="1348" 
d="M673 -22q-183 0 -323 54t-218.5 150.5t-78.5 221.5q0 98 47 174.5t131 126t195 64.5v4q-147 23 -235 111.5t-88 221.5q0 120 72.5 211.5t201.5 143t296 51.5q170 0 299 -51t201 -142.5t72 -212.5q0 -133 -88.5 -221t-234.5 -112v-4q110 -15 194 -64.5t131 -126t47 -174.5
q0 -125 -78.5 -221.5t-218.5 -150.5t-324 -54zM673 256q57 0 102 23.5t70.5 65t25.5 93.5t-25.5 92t-70 63t-102.5 23q-57 0 -101 -23t-69.5 -63t-25.5 -92q0 -53 25.5 -94t69.5 -64.5t101 -23.5zM673 902q53 0 92.5 20t61.5 56.5t22 83.5q0 49 -22 84.5t-61.5 55.5
t-92.5 20q-52 0 -91 -20t-61 -55.5t-22 -84.5q0 -47 22 -83t61 -56.5t91 -20.5z" />
    <glyph glyph-name="nine" unicode="9" horiz-adv-x="1349" 
d="M647 -24q-164 0 -289 63t-199 168t-87 232h390q13 -67 65.5 -104t128.5 -37q86 0 141.5 47.5t82.5 134.5t27 204h-5q-34 -61 -87.5 -103t-121.5 -63t-148 -21q-144 0 -255 63.5t-174 174t-63 251.5q0 158 76.5 277t211 185t308.5 66q144 0 262 -46.5t204 -140t133 -235
t47 -330.5q0 -181 -44.5 -326t-129.5 -248t-204.5 -157.5t-269.5 -54.5zM653 781q45 0 82.5 16t65 44t43 66.5t15.5 84.5q0 61 -26.5 108.5t-73 75t-106.5 27.5q-59 0 -106.5 -27.5t-74.5 -75t-27 -108.5t27 -108.5t74 -75t107 -27.5z" />
    <glyph glyph-name="colon" unicode=":" horiz-adv-x="642" 
d="M321 -21q-87 0 -147 59.5t-60 146.5q0 86 60 145.5t147 59.5t147 -59.5t60 -145.5q0 -87 -60 -146.5t-147 -59.5zM321 632q-87 0 -147 59.5t-60 146.5q0 86 60 145.5t147 59.5t147 -59.5t60 -145.5q0 -87 -60 -146.5t-147 -59.5z" />
    <glyph glyph-name="semicolon" unicode=";" horiz-adv-x="648" 
d="M72 -377l73 635h375l-180 -635h-268zM327 632q-87 0 -147 59.5t-60 146.5q0 86 60 145.5t147 59.5t147 -59.5t60 -145.5q0 -87 -60 -146.5t-147 -59.5z" />
    <glyph glyph-name="less" unicode="&#x3c;" horiz-adv-x="1402" 
d="M151 430v350l1082 434v-368l-688 -238l12 18v-42l-12 18l688 -238v-366z" />
    <glyph glyph-name="equal" unicode="=" horiz-adv-x="1402" 
d="M163 702v324h1076v-324h-1076zM163 184v326h1076v-326h-1076z" />
    <glyph glyph-name="greater" unicode="&#x3e;" horiz-adv-x="1402" 
d="M1251 430l-1082 -432v366l690 238l-12 -18v42l12 -18l-690 238v368l1082 -434v-350z" />
    <glyph glyph-name="question" unicode="?" horiz-adv-x="1234" 
d="M407 469v48q0 103 19.5 168.5t63.5 110t116 83.5q69 39 108 83.5t39 100.5q0 40 -19 70.5t-52.5 47.5t-76.5 17q-47 0 -84 -20.5t-58.5 -57t-21.5 -85.5h-372q0 150 70.5 256t192.5 162.5t277 56.5q158 0 279.5 -49.5t191 -141t69.5 -219.5q0 -124 -55.5 -211
t-156.5 -149q-55 -34 -97.5 -68t-66.5 -73.5t-24 -94.5v-35h-342zM581 -21q-90 0 -150 57.5t-60 146.5q0 88 60 146t150 58q92 0 151.5 -58t59.5 -146q0 -89 -59.5 -146.5t-151.5 -57.5z" />
    <glyph glyph-name="at" unicode="@" horiz-adv-x="2141" 
d="M1082 -457q-239 0 -429 67t-324 193t-205 307t-71 408q0 222 69 405t201 315t322.5 203.5t433.5 71.5q230 0 415.5 -63.5t318 -183.5t204 -288.5t71.5 -376.5q0 -144 -33.5 -255t-97 -187.5t-152.5 -116t-199 -39.5q-78 0 -136 19t-92.5 55.5t-44.5 86.5h-5
q-24 -70 -105.5 -114.5t-204.5 -44.5q-143 0 -249 63.5t-164 180t-58 275.5q0 167 62 282.5t168 175.5t235 60q100 0 176.5 -34t105.5 -93h6v105h252v-689q0 -41 14.5 -54t39.5 -13q51 0 87 38t55 109t19 171q0 155 -44.5 272.5t-130.5 197t-209.5 120t-281.5 40.5
q-173 0 -307.5 -47t-226.5 -136.5t-140 -216.5t-48 -286q0 -161 48.5 -287.5t141 -214.5t225.5 -133.5t303 -45.5q92 0 172 12.5t143.5 31t103.5 36.5l112 -272q-50 -24 -128.5 -49.5t-183.5 -43t-234 -17.5zM1056 287q69 0 117 28t73 81t25 128q0 76 -25 128.5t-72.5 79.5
t-117.5 27t-120 -27t-75.5 -79.5t-25.5 -128.5q0 -75 25.5 -128t75.5 -81t120 -28z" />
    <glyph glyph-name="A" unicode="A" horiz-adv-x="1593" 
d="M20 0l493 1490h556l504 -1490h-464l-170 578q-55 188 -105 380t-96 391h103q-46 -199 -94 -391t-103 -380l-170 -578h-454zM387 263v312h820v-312h-820z" />
    <glyph glyph-name="B" unicode="B" horiz-adv-x="1347" 
d="M87 0v1490h646q170 0 286 -47t175 -130.5t59 -194.5q0 -84 -36 -153t-100.5 -114.5t-151.5 -62.5v-8q96 -3 173.5 -48.5t123 -125t45.5 -184.5q0 -122 -62 -217.5t-178 -150t-278 -54.5h-702zM491 316h207q87 0 135 40t48 110q0 48 -22 82.5t-62.5 53t-96.5 18.5h-209
v-304zM491 895h182q49 0 86 16.5t57.5 48t20.5 75.5q0 65 -44.5 102.5t-116.5 37.5h-185v-280z" />
    <glyph glyph-name="C" unicode="C" horiz-adv-x="1510" 
d="M775 -22q-204 0 -367.5 88.5t-259 259.5t-95.5 418q0 249 96 420.5t260 259.5t366 88q141 0 260 -40t208.5 -114.5t145.5 -181.5t71 -240h-415q-8 51 -29 91.5t-54.5 69t-78 44t-99.5 15.5q-101 0 -170.5 -49t-105.5 -140.5t-36 -222.5q0 -133 36 -224.5t105.5 -138.5
t170.5 -47q54 0 98 15t78 44t55.5 69.5t29.5 90.5h415q-12 -116 -63 -219.5t-139 -183.5t-209.5 -126t-273.5 -46z" />
    <glyph glyph-name="D" unicode="D" horiz-adv-x="1467" 
d="M666 0h-408v344h389q117 0 195.5 39.5t118 128t39.5 232.5q0 145 -40.5 233.5t-121.5 128.5t-203 40h-383v344h408q230 0 399 -91t261.5 -258t92.5 -397q0 -229 -91.5 -396t-259.5 -257.5t-396 -90.5zM498 1490v-1490h-411v1490h411z" />
    <glyph glyph-name="E" unicode="E" horiz-adv-x="1277" 
d="M87 0v1490h1119v-340h-708v-237h651v-330h-651v-243h706v-340h-1117z" />
    <glyph glyph-name="F" unicode="F" horiz-adv-x="1220" 
d="M87 0v1490h1088v-340h-677v-296h626v-330h-626v-524h-411z" />
    <glyph glyph-name="G" unicode="G" horiz-adv-x="1529" 
d="M784 -22q-219 0 -383.5 93t-256 265t-91.5 407q0 248 97.5 419.5t262 260.5t366.5 89q134 0 251.5 -37.5t208 -108t145.5 -167t66 -213.5h-417q-8 40 -27.5 71.5t-50 53.5t-71.5 33.5t-92 11.5q-103 0 -175 -48t-108.5 -139.5t-36.5 -222.5q0 -132 36.5 -224t108 -140
t178.5 -48q89 0 149.5 26.5t91 74.5t30.5 112l78 -8h-348v293h668v-211q0 -198 -86 -342.5t-239 -222.5t-355 -78z" />
    <glyph glyph-name="H" unicode="H" horiz-adv-x="1509" 
d="M87 0v1490h411v-561h514v561h410v-1490h-410v589h-514v-589h-411z" />
    <glyph glyph-name="I" unicode="I" horiz-adv-x="585" 
d="M498 1490v-1490h-411v1490h411z" />
    <glyph glyph-name="J" unicode="J" horiz-adv-x="1208" 
d="M579 -22q-258 0 -397 127.5t-139 364.5v107h393v-112q0 -77 36 -117t103 -40t102.5 40t35.5 118v1024h408v-1025q0 -235 -140.5 -361t-401.5 -126z" />
    <glyph glyph-name="K" unicode="K" horiz-adv-x="1521" 
d="M394 234v433q46 78 91.5 147.5t96.5 140t114 152.5l296 383h480l-623 -767l-38 7zM87 0v1490h411v-320l-4 -429l4 -197v-544h-411zM1024 0l-359 599l252 305l583 -904h-476z" />
    <glyph glyph-name="L" unicode="L" horiz-adv-x="1169" 
d="M87 0v1490h411v-1150h624v-340h-1035z" />
    <glyph glyph-name="M" unicode="M" horiz-adv-x="1922" 
d="M87 0v1490h629l134 -466q17 -60 39.5 -152t46 -195.5t42.5 -198t31 -159.5h-93q12 65 31 159.5t42 198t45 195.5t39 152l132 466h630v-1490h-408v576q0 51 2.5 133.5t5.5 181t5.5 198.5t2.5 186h37q-20 -90 -44 -190t-48.5 -196.5t-46.5 -177.5t-38 -135l-173 -576h-336
l-176 576q-16 54 -38.5 135t-47.5 177.5t-50 196.5t-45 190h42q0 -86 2.5 -186t5.5 -198.5t5.5 -181t2.5 -133.5v-576h-408z" />
    <glyph glyph-name="N" unicode="N" horiz-adv-x="1540" 
d="M87 0v1490h431l360 -585q33 -55 71.5 -125t77.5 -152.5t76 -173.5l-44 -64q-5 81 -10 185.5t-8.5 204.5t-3.5 164v546h416v-1490h-431l-335 544q-42 69 -85.5 147t-89 170.5t-96.5 198.5l64 14q8 -105 13.5 -207.5t7.5 -186.5t2 -136v-544h-416z" />
    <glyph glyph-name="O" unicode="O" horiz-adv-x="1555" 
d="M777 -22q-203 0 -367.5 88.5t-260.5 259.5t-96 418q0 249 96 420.5t260.5 259.5t367.5 88t367 -88t260.5 -259.5t96.5 -420.5q0 -248 -96.5 -419t-260.5 -259t-367 -88zM777 334q100 0 168 48t103 140t35 222q0 131 -35 223.5t-103 140.5t-168 48q-98 0 -166 -48
t-103.5 -140.5t-35.5 -223.5q0 -130 35.5 -222t103.5 -140t166 -48z" />
    <glyph glyph-name="P" unicode="P" horiz-adv-x="1335" 
d="M87 0v1490h637q173 0 300.5 -64.5t197.5 -182t70 -277.5q0 -159 -70.5 -276t-200 -180.5t-303.5 -63.5h-390v330h336q67 0 115 23.5t74 66t26 100.5q0 60 -26 102t-74 65t-115 23h-166v-1156h-411z" />
    <glyph glyph-name="Q" unicode="Q" horiz-adv-x="1565" 
d="M636 552h314l114 -142l192 -218l255 -302h-354l-173 206l-132 172zM777 -22q-203 0 -367.5 88.5t-260.5 259.5t-96 418q0 249 96 420.5t260.5 259.5t367.5 88t367 -88t260.5 -259.5t96.5 -420.5q0 -248 -96.5 -419t-260.5 -259t-367 -88zM777 334q100 0 168 48t103 140
t35 222q0 131 -35 223.5t-103 140.5t-168 48q-98 0 -166 -48t-103.5 -140.5t-35.5 -223.5q0 -130 35.5 -222t103.5 -140t166 -48z" />
    <glyph glyph-name="R" unicode="R" horiz-adv-x="1365" 
d="M87 0v1490h637q173 0 300.5 -62t197.5 -177.5t70 -274.5q0 -157 -72.5 -268.5t-204 -170.5t-309.5 -59h-368v318h326q67 0 115 21t74 61t26 98q0 59 -26 99.5t-74 61.5t-115 21h-166v-1158h-411zM904 0l-342 680h427l351 -680h-436z" />
    <glyph glyph-name="S" unicode="S" horiz-adv-x="1386" 
d="M703 -21q-201 0 -344.5 58.5t-220 177t-77.5 293.5h389q4 -63 35 -108t86.5 -68.5t131.5 -23.5q66 0 112.5 16.5t72 45.5t25.5 67q0 35 -24 61.5t-76 47t-135 36.5l-149 30q-208 42 -321.5 148.5t-113.5 276.5q0 142 77 249t213 166.5t316 59.5q183 0 316 -59.5t206 -170
t76 -261.5h-384q-7 75 -61 118t-149 43q-60 0 -102.5 -15.5t-65 -43t-22.5 -62.5q0 -36 21.5 -61.5t69 -44.5t121.5 -34l121 -23q125 -25 216 -65t149 -95t85 -125.5t27 -158.5q0 -152 -73.5 -258t-212.5 -161.5t-335 -55.5z" />
    <glyph glyph-name="T" unicode="T" horiz-adv-x="1372" 
d="M47 1150v340h1277v-340h-433v-1150h-411v1150h-433z" />
    <glyph glyph-name="U" unicode="U" horiz-adv-x="1459" 
d="M729 -21q-193 0 -337.5 68t-224.5 192.5t-80 293.5v957h404v-923q0 -70 31 -123.5t84.5 -84t122.5 -30.5q70 0 124 30.5t84.5 84t30.5 123.5v923h404v-957q0 -169 -80 -293.5t-224.5 -192.5t-338.5 -68z" />
    <glyph glyph-name="V" unicode="V" horiz-adv-x="1577" 
d="M520 0l-500 1490h458l173 -578q56 -188 106 -379t97 -385h-107q45 194 91.5 385t100.5 379l165 578h452l-484 -1490h-552z" />
    <glyph glyph-name="W" unicode="W" horiz-adv-x="2165" 
d="M415 0l-395 1490h452l119 -578q23 -109 42.5 -227.5t38 -236.5t36.5 -228h-89q21 110 41 228t41.5 236.5t46.5 227.5l132 578h404l132 -578q25 -109 47 -227.5t42 -236.5t41 -228h-90q19 110 37 228t37.5 236.5t41.5 227.5l120 578h452l-395 -1490h-457l-159 652
q-28 114 -50.5 259.5t-57.5 313.5h115q-38 -168 -58.5 -313t-48.5 -260l-161 -652h-457z" />
    <glyph glyph-name="X" unicode="X" horiz-adv-x="1559" 
d="M20 0l642 911v-309l-582 888h469l119 -194q37 -59 66 -116t55.5 -110t54.5 -103h-122q30 50 57 103t57 110t66 116l121 194h457l-564 -864v289l622 -915h-483l-162 256q-31 50 -54 90t-43.5 76.5t-44.5 74.5h54q-23 -38 -43.5 -74.5t-43.5 -77t-57 -89.5l-171 -256h-470z
" />
    <glyph glyph-name="Y" unicode="Y" horiz-adv-x="1537" 
d="M575 0v512l-555 978h476l214 -432q28 -56 51.5 -113.5t47.5 -123.5h-59q22 66 44 123.5t48 113.5l201 432h473l-539 -978v-512h-402z" />
    <glyph glyph-name="Z" unicode="Z" horiz-adv-x="1374" 
d="M73 0v273l555 687q67 83 143 165.5t155 165.5l37 -134q-105 -6 -210 -6.5t-211 -0.5h-460v340h1216v-273l-546 -682q-67 -84 -144 -168t-156 -169l-37 135q109 6 218.5 6.5t218.5 0.5h448v-340h-1227z" />
    <glyph glyph-name="bracketleft" unicode="[" horiz-adv-x="762" 
d="M124 -287v1860h567v-299h-171v-1263h171v-298h-567z" />
    <glyph glyph-name="backslash" unicode="\" horiz-adv-x="826" 
d="M483 -224l-480 1784h340l480 -1784h-340z" />
    <glyph glyph-name="bracketright" unicode="]" horiz-adv-x="762" 
d="M71 -287v298h171v1263h-171v299h567v-1860h-567z" />
    <glyph glyph-name="asciicircum" unicode="^" horiz-adv-x="1006" 
d="M477 1306h52v-84h-52v84zM49 814l312 652h284l312 -652h-276l-184 436h12l-184 -436h-276z" />
    <glyph glyph-name="underscore" unicode="_" horiz-adv-x="1010" 
d="M1010 0v-286h-1010v286h1010z" />
    <glyph glyph-name="grave" unicode="`" horiz-adv-x="753" 
d="M378 1214l-267 326h357l174 -326h-264z" />
    <glyph glyph-name="a" unicode="a" horiz-adv-x="1206" 
d="M412 -19q-107 0 -188.5 35t-127.5 105t-46 178q0 90 31 153.5t86.5 103.5t130 61.5t160.5 27.5q93 7 149.5 17t82 28.5t25.5 49.5v4q0 25 -15.5 43.5t-42.5 28.5t-65 10q-39 0 -68.5 -11t-47.5 -32.5t-23 -54.5l-364 16q12 109 73 189.5t171.5 125t270.5 44.5
q120 0 215 -26t160.5 -75t99.5 -117t34 -152v-733h-383v152h-6q-35 -63 -81 -100t-103.5 -54t-127.5 -17zM542 233q44 0 84.5 17.5t66.5 51t26 82.5v87q-16 -5 -33 -10.5t-36.5 -10t-42 -9t-48.5 -9.5q-44 -7 -73.5 -22t-44.5 -37t-15 -50q0 -29 15 -49t41 -30.5t60 -10.5z
" />
    <glyph glyph-name="b" unicode="b" horiz-adv-x="1299" 
d="M797 -20q-74 0 -133.5 23.5t-102 66.5t-66.5 103h-5v-173h-397v1490h401v-570h3q29 56 71 97t100 63.5t133 22.5q123 0 223.5 -65t161 -190t60.5 -306q0 -179 -58.5 -304.5t-159.5 -191.5t-231 -66zM665 292q55 0 93.5 30.5t58.5 86.5t20 133q0 78 -20 134t-58.5 86.5
t-93.5 30.5t-96 -30.5t-64 -86.5t-23 -134q0 -76 23 -132.5t64 -87t96 -30.5z" />
    <glyph glyph-name="c" unicode="c" horiz-adv-x="1212" 
d="M623 -22q-174 0 -302.5 70.5t-198 197t-69.5 294.5q0 169 69.5 295.5t198 197t302.5 70.5q116 0 212 -32t166.5 -90.5t111.5 -140.5t48 -182l-376 -25q-5 39 -17.5 69.5t-32 52t-46 32.5t-59.5 11q-53 0 -91 -29.5t-58.5 -87t-20.5 -140.5q0 -82 20.5 -139.5t59 -88
t90.5 -30.5q33 0 59.5 11.5t46.5 33t32.5 53.5t16.5 72l376 -24q-4 -102 -44.5 -184.5t-111 -142.5t-167.5 -92t-215 -32z" />
    <glyph glyph-name="d" unicode="d" horiz-adv-x="1299" 
d="M502 -20q-130 0 -231.5 66t-159.5 191.5t-58 304.5q0 181 60.5 306t161.5 190t223 65q75 0 133 -22.5t100.5 -63.5t69.5 -97h4v570h401v-1490h-397v173h-5q-24 -60 -66.5 -103t-102 -66.5t-133.5 -23.5zM634 292q55 0 96 30.5t64 87t23 132.5q0 78 -23 134t-64 86.5
t-96 30.5t-93.5 -30.5t-58.5 -86.5t-20 -134q0 -77 20 -133t58.5 -86.5t93.5 -30.5z" />
    <glyph glyph-name="e" unicode="e" horiz-adv-x="1215" 
d="M621 -22q-171 0 -299 69.5t-198.5 196.5t-70.5 296q0 167 70.5 294t196 198t292.5 71q124 0 225.5 -39.5t175.5 -113t113.5 -175.5t39.5 -228v-100h-992v222h808l-186 -42q0 62 -20.5 104.5t-59.5 65t-96 22.5t-96 -22.5t-59.5 -65t-20.5 -104.5v-169q0 -65 23 -110
t65.5 -67.5t100.5 -22.5q42 0 76 11t58 32t36 50l354 -23q-23 -104 -97 -183t-186 -123t-253 -44z" />
    <glyph glyph-name="f" unicode="f" horiz-adv-x="868" 
d="M823 1084v-299h-803v299h803zM207 0v1150q0 127 45 209t134 122t220 40q72 0 139 -5.5t97 -8.5l-26 -297q-19 3 -50 4.5t-56 1.5q-58 0 -80.5 -24t-22.5 -74v-1118h-400z" />
    <glyph glyph-name="g" unicode="g" horiz-adv-x="1300" 
d="M634 -436q-166 0 -279.5 43.5t-176.5 120t-80 175.5l367 23q6 -27 28.5 -47.5t57.5 -31.5t82 -11q90 0 134 45t44 138v175h-14q-22 -60 -64.5 -100t-100.5 -59.5t-130 -19.5q-130 0 -231 62.5t-159.5 182t-58.5 289.5q0 177 60.5 300.5t161.5 188.5t224 65
q75 0 133.5 -23.5t102 -65.5t70.5 -96h4v166h398v-1023q0 -168 -69 -278.5t-197.5 -164.5t-306.5 -54zM634 312q55 0 96 29t64 83.5t23 129.5t-23 129.5t-64 84t-96 29.5t-93.5 -29.5t-58.5 -84t-20 -129.5t20 -129.5t58.5 -83.5t93.5 -29z" />
    <glyph glyph-name="h" unicode="h" 
d="M494 590v-590h-401v1490h397v-695h-41q45 133 134.5 220.5t246.5 87.5q119 0 201.5 -52t126 -146t43.5 -219v-686h-401v599q0 81 -39.5 126t-112.5 45q-48 0 -82.5 -20.5t-53 -60.5t-18.5 -99z" />
    <glyph glyph-name="i" unicode="i" horiz-adv-x="587" 
d="M93 0v1084h401v-1084h-401zM293 1173q-89 0 -148 54t-59 135t59 134.5t147 53.5q89 0 148 -53.5t59 -134.5t-59 -135t-147 -54z" />
    <glyph glyph-name="j" unicode="j" horiz-adv-x="588" 
d="M94 1084h401v-1122q0 -136 -53 -219.5t-154 -122t-245 -38.5h-122v300h62q62 0 86.5 24.5t24.5 80.5v1097zM294 1173q-89 0 -148 54t-59 135t59 134.5t147 53.5q89 0 148 -53.5t59 -134.5t-59 -135t-147 -54z" />
    <glyph glyph-name="k" unicode="k" horiz-adv-x="1220" 
d="M452 251v474h50l269 359h452l-450 -571h-113zM93 0v1490h401v-1490h-401zM779 0l-254 424l260 283l449 -707h-455z" />
    <glyph glyph-name="l" unicode="l" horiz-adv-x="587" 
d="M494 1490v-1490h-401v1490h401z" />
    <glyph glyph-name="m" unicode="m" horiz-adv-x="1908" 
d="M93 0v1084h377l11 -277h-21q26 105 77.5 170t121 95.5t145.5 30.5q118 0 201.5 -73t113.5 -237h-35q22 109 78 177.5t133 100.5t160 32q107 0 188 -46.5t126 -130.5t45 -199v-727h-400v626q0 73 -37 114.5t-99 41.5q-41 0 -71 -19t-46 -53.5t-16 -83.5v-626h-382v626
q0 73 -37 114.5t-99 41.5q-41 0 -70.5 -19t-46 -53.5t-16.5 -83.5v-626h-401z" />
    <glyph glyph-name="n" unicode="n" 
d="M494 590v-590h-401v1084h387l4 -289h-35q45 133 134.5 220.5t246.5 87.5q119 0 201.5 -52t126 -146t43.5 -219v-686h-401v599q0 81 -39.5 126t-112.5 45q-48 0 -82.5 -20.5t-53 -60.5t-18.5 -99z" />
    <glyph glyph-name="o" unicode="o" horiz-adv-x="1260" 
d="M630 -22q-175 0 -305 69.5t-201 196t-71 296.5q0 171 71 297t201 196t305 70q177 0 306 -70t200 -196t71 -297q0 -170 -71 -296.5t-200 -196t-306 -69.5zM630 284q50 0 88.5 30t60 87.5t21.5 139.5q0 84 -21.5 140.5t-60 85.5t-88.5 29q-49 0 -88 -29t-60.5 -85.5
t-21.5 -140.5q0 -82 21.5 -139.5t60.5 -87.5t88 -30z" />
    <glyph glyph-name="p" unicode="p" horiz-adv-x="1299" 
d="M93 -418v1502h397v-161h7q27 54 69.5 94.5t101 63t133.5 22.5q123 0 223.5 -65t161 -190t60.5 -306q0 -179 -58.5 -304.5t-159.5 -191.5t-231 -66q-74 0 -132.5 23.5t-100.5 65.5t-65 99h-5v-586h-401zM665 292q55 0 93.5 30.5t58.5 86.5t20 133q0 78 -20 134t-58.5 86.5
t-93.5 30.5t-96 -30.5t-64 -86.5t-23 -134q0 -76 23 -132.5t64 -87t96 -30.5z" />
    <glyph glyph-name="q" unicode="q" horiz-adv-x="1299" 
d="M1206 -418h-401v586h-5q-24 -57 -66 -99t-100 -65.5t-132 -23.5q-130 0 -231.5 66t-159.5 191.5t-58 304.5q0 181 60.5 306t161.5 190t223 65q75 0 133.5 -22.5t101 -63t68.5 -94.5h8v161h397v-1502zM634 292q55 0 96 30.5t64 87t23 132.5q0 78 -23 134t-64 86.5
t-96 30.5t-93.5 -30.5t-58.5 -86.5t-20 -134q0 -77 20 -133t58.5 -86.5t93.5 -30.5z" />
    <glyph glyph-name="r" unicode="r" horiz-adv-x="868" 
d="M93 0v1084h389v-202h6q30 112 93.5 160t163.5 48q28 0 52.5 -2t48.5 -5v-330q-25 5 -68.5 7t-78.5 2q-61 0 -107.5 -27.5t-72 -77t-25.5 -117.5v-540h-401z" />
    <glyph glyph-name="s" unicode="s" horiz-adv-x="1171" 
d="M592 -24q-155 0 -273.5 45t-189.5 127t-86 193l384 24q13 -56 54.5 -88t114.5 -32q59 0 92 18t33 51q0 28 -30 46t-93 29l-198 34q-164 28 -248 109t-84 211q0 113 61 193t174.5 122.5t272.5 42.5q155 0 268 -42t178 -120.5t74 -187.5l-360 -22q-6 50 -47.5 78.5
t-99.5 28.5q-56 0 -89 -19t-33 -51q0 -25 23.5 -44.5t77.5 -28.5l227 -39q169 -29 251 -100.5t82 -192.5q0 -116 -68 -202.5t-189 -134.5t-279 -48z" />
    <glyph glyph-name="t" unicode="t" horiz-adv-x="839" 
d="M789 1084v-299h-769v299h769zM182 1362h401v-988q0 -42 18 -59.5t67 -17.5q23 0 61.5 2t51.5 4l22 -296q-46 -9 -108 -12t-123 -3q-200 0 -295 80.5t-95 246.5v1043z" />
    <glyph glyph-name="u" unicode="u" 
d="M464 -20q-117 0 -200.5 52.5t-127 146t-43.5 218.5v687h401v-600q0 -80 40 -125.5t113 -45.5q48 0 82.5 20.5t52.5 61t18 98.5v591h401v-1084h-387l-3 289h34q-44 -133 -133.5 -221t-247.5 -88z" />
    <glyph glyph-name="v" unicode="v" horiz-adv-x="1246" 
d="M390 0l-387 1084h419l136 -476q31 -110 58 -223t53 -234h-80q25 121 51 233.5t57 223.5l132 476h414l-388 -1084h-465z" />
    <glyph glyph-name="w" unicode="w" horiz-adv-x="1794" 
d="M320 0l-323 1084h420l65 -316q25 -119 50.5 -250.5t47.5 -271.5h-45q26 140 56 271.5t58 250.5l74 316h348l72 -316q27 -119 57.5 -250.5t56.5 -271.5h-43q21 140 44.5 271t47.5 251l63 316h428l-325 -1084h-412l-108 368q-15 53 -30 118.5t-29 132.5t-29 124h64
q-14 -57 -28.5 -124t-29 -132.5t-30.5 -118.5l-108 -368h-412z" />
    <glyph glyph-name="x" unicode="x" horiz-adv-x="1195" 
d="M8 0l418 663l-5 -212l-388 633h424l58 -117q40 -80 75 -157.5t68 -152.5h-115q36 75 71.5 152.5t78.5 157.5l62 117h417l-403 -632l6 211l412 -663h-424l-69 132q-42 79 -78 156t-72 151h102q-35 -74 -70.5 -151t-77.5 -156l-69 -132h-421z" />
    <glyph glyph-name="y" unicode="y" horiz-adv-x="1250" 
d="M116 -405l39 296l112 -6q50 -7 82.5 1t48 31t16.5 59l-2 24l-409 1084h419l138 -476q32 -111 55.5 -223t50.5 -234h-96q26 122 53.5 235t61.5 222l148 476h414l-453 -1204q-36 -97 -89 -164.5t-132 -102.5t-194 -35q-68 0 -136.5 4.5t-126.5 12.5z" />
    <glyph glyph-name="z" unicode="z" horiz-adv-x="1175" 
d="M105 0v241l482 534v4h-475v305h944v-261l-455 -515v-4h469v-304h-965z" />
    <glyph glyph-name="braceleft" unicode="{" horiz-adv-x="1013" 
d="M128 610v207q127 0 176.5 50.5t49.5 157.5v128q0 157 49 243.5t132.5 123.5t189 45t217.5 8v-295q-123 0 -164 -39.5t-41 -137.5v-169q0 -54 -23.5 -111t-87.5 -104.5t-184 -77t-314 -29.5zM942 -287q-112 0 -217.5 8t-189 45t-132.5 123.5t-49 243.5v128
q0 107 -49.5 157.5t-176.5 50.5v207q194 0 314 -29.5t184 -77t87.5 -104.5t23.5 -111v-169q0 -99 41 -138.5t164 -39.5v-294zM128 469v348h351v-348h-351z" />
    <glyph glyph-name="bar" unicode="|" horiz-adv-x="812" 
d="M601 1970v-2450h-392v2450h392z" />
    <glyph glyph-name="braceright" unicode="}" horiz-adv-x="1013" 
d="M885 610q-193 0 -313.5 29.5t-184.5 77t-87.5 104.5t-23.5 111v169q0 98 -41 137.5t-164 39.5v295q113 0 218 -8t188.5 -45t132.5 -123.5t49 -243.5v-128q0 -107 49.5 -157.5t176.5 -50.5v-207zM71 -287v294q123 0 164 39.5t41 138.5v169q0 54 23.5 111t87.5 104.5
t184.5 77t313.5 29.5v-207q-127 0 -176.5 -50.5t-49.5 -157.5v-128q0 -157 -49 -243.5t-132.5 -123.5t-188.5 -45t-218 -8zM885 469h-351v348h351v-348z" />
    <glyph glyph-name="asciitilde" unicode="~" horiz-adv-x="1402" 
d="M139 376q-6 149 29.5 258.5t111.5 169.5t191 60q65 0 128 -25.5t142 -96.5q35 -30 61.5 -50t64.5 -20q44 0 75.5 37.5t28.5 124.5h292q6 -148 -31.5 -258t-113.5 -170t-187 -60q-71 0 -135.5 28.5t-138.5 93.5q-40 36 -62.5 53t-59.5 17q-46 0 -76.5 -37.5t-27.5 -124.5
h-292z" />
    <glyph glyph-name="uni00A0" unicode="&#xa0;" horiz-adv-x="390" 
 />
    <glyph glyph-name="exclamdown" unicode="&#xa1;" horiz-adv-x="653" 
d="M115 -398l34 1015h355l35 -1015h-424zM327 700q-91 0 -151 57.5t-60 146.5q0 88 60 146t151 58t150.5 -58t59.5 -146q0 -89 -59.5 -146.5t-150.5 -57.5z" />
    <glyph glyph-name="cent" unicode="&#xa2;" horiz-adv-x="1212" 
d="M573 0v1490h111v-1490h-111zM623 183q-174 0 -302.5 70.5t-198 197t-69.5 294.5q0 169 69.5 295.5t198 197t302.5 70.5q116 0 212 -32t166.5 -90.5t111.5 -140.5t48 -182l-376 -25q-5 39 -17.5 69.5t-32 52t-46 32.5t-59.5 11q-53 0 -91 -29.5t-58.5 -87t-20.5 -140.5
q0 -82 20.5 -139.5t59 -88t90.5 -30.5q33 0 59.5 11.5t46.5 33t32.5 53.5t16.5 72l376 -24q-4 -102 -44.5 -184.5t-111 -142.5t-167.5 -92t-215 -32z" />
    <glyph glyph-name="sterling" unicode="&#xa3;" horiz-adv-x="1324" 
d="M64 273v55q78 0 121 30t38 90l-37 516q-13 181 59.5 303t200 184.5t281.5 62.5q149 0 266 -59t188 -168t81 -261l-377 -25q-4 100 -42 142.5t-108 42.5q-51 0 -86.5 -20t-52.5 -64t-15 -114l17 -464q3 -78 -34 -126t-99.5 -74t-136 -37t-143 -12.5t-121.5 -1.5zM63 0v328
h808q14 0 22 8t8 22v51h373v-63q0 -166 -98.5 -256t-281.5 -90h-831zM63 596v271h805v-271h-805z" />
    <glyph glyph-name="currency" unicode="&#xa4;" horiz-adv-x="1606" 
d="M805 -20q-129 0 -242.5 47.5t-199.5 133t-134.5 200t-47.5 247.5q-1 133 47.5 247t134.5 199t199.5 132.5t242.5 47.5q127 0 239.5 -47.5t199 -132.5t135.5 -199t50 -247q-1 -133 -50 -247.5t-135.5 -200t-199 -133t-239.5 -47.5zM805 190q116 0 212 54.5t153 149.5
t57 214q0 121 -57 215t-153 148.5t-212 54.5q-119 0 -215 -54.5t-151.5 -148.5t-55.5 -215q0 -119 55.5 -214t151.5 -149.5t215 -54.5zM1263 908l-154 156l208 208l158 -158zM1317 -32l-208 206l154 154l212 -202zM293 -32l-154 158l210 202l156 -154zM349 908l-210 206
l154 158l212 -208z" />
    <glyph glyph-name="yen" unicode="&#xa5;" horiz-adv-x="1186" 
d="M425 1490l258 -698l-262 -230l-400 928h404zM509 802l252 688h406l-406 -928zM785 786v-786h-398v786h398zM1059 786v-212h-984v212h984zM1059 498v-212h-984v212h984z" />
    <glyph glyph-name="brokenbar" unicode="&#xa6;" horiz-adv-x="796" 
d="M221 424h354v-704h-354v704zM575 1490v-702h-354v702h354z" />
    <glyph glyph-name="section" unicode="&#xa7;" horiz-adv-x="1131" 
d="M566 -300q-140 0 -247 49t-169 137.5t-69 207.5l337 22q3 -50 41.5 -77.5t105.5 -27.5q62 0 95 23t33 65q0 26 -14.5 47.5t-45 38.5t-80.5 29l-247 61q-78 20 -135 61.5t-87.5 101t-30.5 130.5q0 77 32.5 124.5t83.5 70t107 24.5v1q-89 49 -139 128.5t-50 197.5
q0 187 123 293.5t337 106.5q212 0 333.5 -102.5t131.5 -281.5l-339 -22q-3 48 -34 72.5t-90 24.5q-56 0 -86 -23.5t-30 -68.5q0 -31 17 -55.5t51.5 -43t88.5 -31.5l245 -57q75 -17 129.5 -56.5t83.5 -95.5t29 -125q0 -73 -31.5 -124t-83 -78.5t-110.5 -33.5v-1
q70 -31 111.5 -82t59.5 -112t18 -122q0 -119 -60 -208.5t-166.5 -138.5t-248.5 -49zM668 470q18 -4 40.5 1.5t41 22t25.5 45.5q6 25 -1.5 52t-34 50.5t-78.5 35.5l-198 48q-19 5 -43 1t-44.5 -20t-28.5 -47q-8 -33 4.5 -63t42 -51.5t70.5 -30.5z" />
    <glyph glyph-name="dieresis" unicode="&#xa8;" 
d="M880 1183q-81 0 -135.5 52t-54.5 128q0 78 54.5 129t135.5 51t135.5 -51t54.5 -129q0 -77 -54.5 -128.5t-135.5 -51.5zM414 1183q-81 0 -135 52t-54 128q0 78 54 129t135 51q82 0 136 -51t54 -129q0 -77 -54 -128.5t-136 -51.5z" />
    <glyph glyph-name="copyright" unicode="&#xa9;" horiz-adv-x="1854" 
d="M537 744q0 110 53 199.5t143.5 143t199.5 53.5q97 0 178.5 -43t134 -116.5t61.5 -166.5h-242q-9 42 -46.5 68t-85.5 26q-45 0 -82 -21.5t-59.5 -58.5t-22.5 -82t22.5 -82t59.5 -59.5t82 -22.5q48 0 85.5 26t46.5 66h242q-9 -92 -61.5 -165.5t-134 -116t-178.5 -42.5
q-109 0 -199.5 53.5t-143.5 143t-53 197.5zM927 -23q-159 0 -298 59.5t-245 165.5t-165.5 245t-59.5 298t59.5 298t165.5 245t245 165.5t298 59.5t298 -59.5t245 -165.5t165.5 -245t59.5 -298t-59.5 -298t-165.5 -245t-245 -165.5t-298 -59.5zM927 267q99 0 185.5 37
t152.5 103t103 152.5t37 185.5t-37 185.5t-103 152.5t-152.5 103t-185.5 37t-185.5 -37t-152.5 -103t-103 -152.5t-37 -185.5t37 -185.5t103 -152.5t152.5 -103t185.5 -37z" />
    <glyph glyph-name="ordfeminine" unicode="&#xaa;" horiz-adv-x="956" 
d="M334 644q-84 0 -150 27t-103 82t-37 139q0 92 43.5 148.5t117.5 84.5t165 34q77 6 123 13.5t66.5 22t20.5 38.5v3q0 33 -29.5 52t-79.5 19q-53 0 -85 -20.5t-39 -59.5l-273 12q11 84 60 146t136 96.5t209 34.5q91 0 164.5 -20t125.5 -57.5t80 -91t28 -119.5v-569h-287
v118h-5q-39 -70 -100.5 -101.5t-150.5 -31.5zM429 834q41 0 76 14.5t56.5 42.5t21.5 67v71q-16 -6 -38 -11.5t-48.5 -10.5t-56.5 -10q-56 -9 -85.5 -32t-29.5 -57q0 -35 29.5 -54.5t74.5 -19.5z" />
    <glyph glyph-name="guillemotleft" unicode="&#xab;" horiz-adv-x="1455" 
d="M452 144l-383 454l383 454h427l-376 -454l376 -454h-427zM974 144l-383 454l383 454h427l-376 -454l376 -454h-427z" />
    <glyph glyph-name="logicalnot" unicode="&#xac;" horiz-adv-x="1402" 
d="M845 290v214h-638v310h964v-524h-326z" />
    <glyph glyph-name="registered" unicode="&#xae;" horiz-adv-x="1332" 
d="M665 346q-120 0 -225.5 45.5t-185 125.5t-124.5 185.5t-45 225.5t45 225.5t124.5 185.5t185 125.5t225.5 45.5q121 0 226.5 -45.5t185.5 -125.5t125 -185.5t45 -225.5t-45 -225.5t-125 -185.5t-185.5 -125.5t-226.5 -45.5zM665 510q117 0 212 56t151.5 151t56.5 211
t-56.5 210.5t-152 151t-211.5 56.5q-115 0 -210 -56.5t-151.5 -151t-56.5 -210.5q0 -115 56.5 -210t151.5 -151.5t210 -56.5zM751 664l-104 244h161l117 -244h-174zM444 664v536h250q67 0 115 -23t73.5 -65t25.5 -100q0 -56 -26.5 -96.5t-75.5 -62.5t-118 -22h-148v115h134
q33 0 52 17t19 47t-19 46.5t-52 16.5h-66v-409h-164z" />
    <glyph glyph-name="macron" unicode="&#xaf;" horiz-adv-x="796" 
d="M698 1479v-232h-600v232h600z" />
    <glyph glyph-name="degree" unicode="&#xb0;" horiz-adv-x="930" 
d="M466 754q-104 0 -188.5 50t-134.5 134.5t-50 187.5t50 187.5t134.5 134.5t187.5 50t187.5 -50t134.5 -134.5t50 -187.5t-50 -187.5t-134.5 -134.5t-186.5 -50zM465 1000q35 1 63.5 18t45.5 45.5t17 62.5q0 35 -17 63t-45.5 44.5t-63.5 16.5q-34 0 -62.5 -16.5t-45 -44.5
t-16.5 -63q0 -34 16.5 -62.5t45 -45.5t62.5 -18z" />
    <glyph glyph-name="plusminus" unicode="&#xb1;" horiz-adv-x="1402" 
d="M159 46v304h1082v-304h-1082zM159 664v290h1082v-290h-1082zM537 442v734h326v-734h-326z" />
    <glyph glyph-name="two.sups" unicode="&#xb2;" horiz-adv-x="894" 
d="M84 868v196l354 246q26 17 49.5 34.5t39.5 38t16 47.5q0 37 -29.5 59t-76.5 22q-49 0 -79 -24.5t-30 -73.5h-261q0 146 100 227.5t270 81.5q169 0 271.5 -72t102.5 -198q0 -44 -12.5 -84t-42 -78t-81 -75.5t-128.5 -76.5l-79 -48v-5h350v-217h-734z" />
    <glyph glyph-name="three.sups" unicode="&#xb3;" horiz-adv-x="920" 
d="M458 856q-120 0 -207 41.5t-133.5 110.5t-46.5 150h273q0 -42 30.5 -66t82.5 -24q49 0 79 19t30 51q0 34 -31.5 53.5t-82.5 19.5h-110v165h110q50 0 78.5 19t28.5 51t-27 50.5t-72 18.5q-47 0 -77 -19.5t-30 -49.5h-265q0 80 47 142.5t131 98t195 35.5q107 0 188 -31.5
t127 -87t46 -128.5q0 -72 -55 -116.5t-137 -49.5v-5q114 -9 169.5 -62.5t55.5 -128.5t-50 -133t-139.5 -91t-207.5 -33z" />
    <glyph glyph-name="acute" unicode="&#xb4;" horiz-adv-x="753" 
d="M111 1214l174 326h357l-267 -326h-264z" />
    <glyph glyph-name="uni00B5" unicode="&#xb5;" horiz-adv-x="1328" 
d="M93 -418v1502h400v-612q0 -54 18.5 -93t53 -60t82.5 -21q49 0 83.5 21t52.5 60t18 93v612h400v-714q0 -31 16.5 -48.5t47.5 -17.5h58v-304h-204q-151 0 -224.5 82t-73.5 234v101h56q0 -112 -18 -186.5t-49 -118t-69 -62t-78 -18.5q-43 0 -83 18.5t-72.5 62t-51.5 118
t-19 186.5h56v-835h-400z" />
    <glyph glyph-name="paragraph" unicode="&#xb6;" horiz-adv-x="1202" 
d="M1095 1198h-450v-646h-88q-167 0 -282 61t-173.5 167.5t-58.5 241.5q0 134 58.5 239.5t173.5 167t282 61.5h538v-292zM825 0v1490h290v-1490h-290z" />
    <glyph glyph-name="periodcentered" unicode="&#xb7;" horiz-adv-x="642" 
d="M321 499q-87 0 -147 59.5t-60 146.5q0 86 60 145.5t147 59.5t147 -59.5t60 -145.5q0 -87 -60 -146.5t-147 -59.5z" />
    <glyph glyph-name="cedilla" unicode="&#xb8;" horiz-adv-x="896" 
d="M301 -418v135h126q41 0 60.5 14t19.5 42t-19.5 41.5t-60.5 13.5h-91l42 212h135v-40l-5 -81q92 5 144.5 -40.5t52.5 -120.5q0 -89 -61.5 -132.5t-184.5 -43.5h-158z" />
    <glyph glyph-name="one.sups" unicode="&#xb9;" horiz-adv-x="638" 
d="M558 1710v-842h-275v604h-6l-203 -116v230l215 124h269z" />
    <glyph glyph-name="ordmasculine" unicode="&#xba;" horiz-adv-x="1000" 
d="M500 641q-137 0 -239.5 54.5t-158.5 152.5t-56 230q0 133 56 231t158 152.5t240 54.5q139 0 240.5 -54.5t157.5 -152.5t56 -231q0 -131 -56 -229.5t-157.5 -153t-240.5 -54.5zM500 872q46 0 79.5 24t52.5 70.5t19 112.5t-19 112t-52.5 70.5t-79.5 24.5q-45 0 -79.5 -24.5
t-53 -70.5t-18.5 -112t18.5 -112.5t53 -70.5t79.5 -24z" />
    <glyph glyph-name="guillemotright" unicode="&#xbb;" horiz-adv-x="1455" 
d="M53 144l377 454l-377 454h428l383 -454l-383 -454h-428zM575 144l377 454l-377 454h428l383 -454l-383 -454h-428z" />
    <glyph glyph-name="onequarter" unicode="&#xbc;" horiz-adv-x="1766" 
d="M478 1490v-842h-236v635h-6l-178 -121v202l187 126h233zM189 0l1024 1490h249l-1024 -1490h-249zM995 133v185l325 524h166v-241h-93l-168 -278v-6h488v-184h-718zM1393 0v190l5 81v571h224v-842h-229z" />
    <glyph glyph-name="onehalf" unicode="&#xbd;" horiz-adv-x="1825" 
d="M478 1490v-842h-236v635h-6l-178 -121v202l187 126h233zM189 0l1024 1490h249l-1024 -1490h-249zM1127 0v170l309 257q40 33 67 65.5t27 79.5q0 45 -27 71.5t-69 26.5q-43 0 -70 -28.5t-27 -82.5h-226q0 137 87.5 215.5t235.5 78.5q149 0 238 -71t89 -191
q0 -52 -20 -100.5t-70 -104t-138 -128.5l-75 -64v-5h309v-189h-640z" />
    <glyph glyph-name="threequarters" unicode="&#xbe;" horiz-adv-x="1936" 
d="M392 636q-103 0 -179 36.5t-117.5 99t-41.5 141.5h236q0 -39 29 -63t75 -24q42 0 68.5 23.5t26.5 60.5t-31 60t-81 23h-87v164h87q47 0 76 23t29 59q0 35 -24.5 57.5t-62.5 22.5q-44 0 -71 -23.5t-27 -61.5h-228q0 78 41 138.5t114.5 94.5t170.5 34q93 0 163.5 -31.5
t111 -86.5t40.5 -126q0 -72 -48.5 -117t-120.5 -53v-4q100 -12 149 -64.5t49 -128.5q0 -112 -96.5 -183t-250.5 -71zM359 0l1024 1490h249l-1024 -1490h-249zM1165 133v185l325 524h166v-241h-93l-168 -278v-6h488v-184h-718zM1563 0v190l5 81v571h224v-842h-229z" />
    <glyph glyph-name="questiondown" unicode="&#xbf;" horiz-adv-x="1234" 
d="M827 614v-47q0 -103 -19.5 -169t-63 -110t-115.5 -83q-69 -40 -108 -84t-39 -100q0 -40 19 -70.5t52.5 -47.5t75.5 -17q48 0 85 20.5t58 57t21 85.5h372q0 -150 -70 -256.5t-192 -162.5t-278 -56q-157 0 -279 49t-191.5 141t-69.5 220q0 123 55.5 210.5t156.5 148.5
q56 35 98.5 68.5t66 74t23.5 93.5v35h342zM653 1105q91 0 151 -58t60 -146q0 -89 -60 -146.5t-151 -57.5t-151 57.5t-60 146.5q0 88 60 146t151 58z" />
    <glyph glyph-name="Agrave" unicode="&#xc0;" horiz-adv-x="1593" 
d="M20 0l493 1490h556l504 -1490h-464l-170 578q-55 188 -105 380t-96 391h103q-46 -199 -94 -391t-103 -380l-170 -578h-454zM387 263v312h820v-312h-820zM676 1620l-267 326h357l174 -326h-264z" />
    <glyph glyph-name="Aacute" unicode="&#xc1;" horiz-adv-x="1593" 
d="M20 0l493 1490h556l504 -1490h-464l-170 578q-55 188 -105 380t-96 391h103q-46 -199 -94 -391t-103 -380l-170 -578h-454zM387 263v312h820v-312h-820zM650 1620l174 326h357l-267 -326h-264z" />
    <glyph glyph-name="Acircumflex" unicode="&#xc2;" horiz-adv-x="1593" 
d="M20 0l493 1490h556l504 -1490h-464l-170 578q-55 188 -105 380t-96 391h103q-46 -199 -94 -391t-103 -380l-170 -578h-454zM387 263v312h820v-312h-820zM664 1620h-306v4l290 322h289l294 -322v-4h-306l-133 163z" />
    <glyph glyph-name="Atilde" unicode="&#xc3;" horiz-adv-x="1593" 
d="M20 0l493 1490h556l504 -1490h-464l-170 578q-55 188 -105 380t-96 391h103q-46 -199 -94 -391t-103 -380l-170 -578h-454zM387 263v312h820v-312h-820zM943 1622q-57 0 -96.5 18t-68 42t-53 42t-52.5 18q-35 0 -54.5 -28.5t-21.5 -83.5h-198q3 158 74 235t174 77
q56 0 96 -17.5t69.5 -40.5t54 -40.5t50.5 -17.5q42 0 59.5 29t18.5 81h196q-2 -154 -74 -234t-174 -80z" />
    <glyph glyph-name="Adieresis" unicode="&#xc4;" horiz-adv-x="1593" 
d="M20 0l493 1490h556l504 -1490h-464l-170 578q-55 188 -105 380t-96 391h103q-46 -199 -94 -391t-103 -380l-170 -578h-454zM387 263v312h820v-312h-820zM1028 1589q-81 0 -135.5 52t-54.5 128q0 78 54.5 129t135.5 51t135.5 -51t54.5 -129q0 -77 -54.5 -128.5
t-135.5 -51.5zM562 1589q-81 0 -135 52t-54 128q0 78 54 129t135 51q82 0 136 -51t54 -129q0 -77 -54 -128.5t-136 -51.5z" />
    <glyph glyph-name="Aring" unicode="&#xc5;" horiz-adv-x="1593" 
d="M20 0l493 1490h556l504 -1490h-464l-170 578q-55 188 -105 380t-96 391h103q-46 -199 -94 -391t-103 -380l-170 -578h-454zM387 263v312h820v-312h-820zM795 1561q-81 0 -142.5 31t-95.5 85.5t-34 123.5q0 70 34 124.5t95.5 85.5t142.5 31q82 0 143 -31t95 -85.5
t34 -124.5q0 -69 -34 -123.5t-95 -85.5t-143 -31zM795 1703q46 0 74 27t28 71t-28 71t-74 27t-74 -27t-28 -70q0 -44 28 -71.5t74 -27.5z" />
    <glyph glyph-name="AE" unicode="&#xc6;" horiz-adv-x="2157" 
d="M20 0l581 1490h1485v-340h-708v-237h652v-330h-652v-243h706v-340h-1099v1182h-95l-434 -1182h-436zM377 289v287h769v-287h-769z" />
    <glyph glyph-name="Ccedilla" unicode="&#xc7;" horiz-adv-x="1510" 
d="M775 -22q-204 0 -367.5 88.5t-259 259.5t-95.5 418q0 249 96 420.5t260 259.5t366 88q141 0 260 -40t208.5 -114.5t145.5 -181.5t71 -240h-415q-8 51 -29 91.5t-54.5 69t-78 44t-99.5 15.5q-101 0 -170.5 -49t-105.5 -140.5t-36 -222.5q0 -133 36 -224.5t105.5 -138.5
t170.5 -47q54 0 98 15t78 44t55.5 69.5t29.5 90.5h415q-12 -116 -63 -219.5t-139 -183.5t-209.5 -126t-273.5 -46zM621 -412v135h126q41 0 60.5 14t19.5 42t-19.5 41.5t-60.5 13.5h-91l42 212h135v-40l-5 -81q92 5 144.5 -40.5t52.5 -120.5q0 -89 -61.5 -132.5t-184.5 -43.5
h-158z" />
    <glyph glyph-name="Egrave" unicode="&#xc8;" horiz-adv-x="1277" 
d="M87 0v1490h1119v-340h-708v-237h651v-330h-651v-243h706v-340h-1117zM527 1620l-267 326h357l174 -326h-264z" />
    <glyph glyph-name="Eacute" unicode="&#xc9;" horiz-adv-x="1277" 
d="M87 0v1490h1119v-340h-708v-237h651v-330h-651v-243h706v-340h-1117zM501 1620l174 326h357l-267 -326h-264z" />
    <glyph glyph-name="Ecircumflex" unicode="&#xca;" horiz-adv-x="1277" 
d="M87 0v1490h1119v-340h-708v-237h651v-330h-651v-243h706v-340h-1117zM516 1620h-306v4l290 322h289l294 -322v-4h-306l-133 163z" />
    <glyph glyph-name="Edieresis" unicode="&#xcb;" horiz-adv-x="1277" 
d="M87 0v1490h1119v-340h-708v-237h651v-330h-651v-243h706v-340h-1117zM879 1589q-81 0 -135.5 52t-54.5 128q0 78 54.5 129t135.5 51t135.5 -51t54.5 -129q0 -77 -54.5 -128.5t-135.5 -51.5zM413 1589q-81 0 -135 52t-54 128q0 78 54 129t135 51q82 0 136 -51t54 -129
q0 -77 -54 -128.5t-136 -51.5z" />
    <glyph glyph-name="Igrave" unicode="&#xcc;" horiz-adv-x="585" 
d="M498 1490v-1490h-411v1490h411zM174 1620l-267 326h357l174 -326h-264z" />
    <glyph glyph-name="Iacute" unicode="&#xcd;" horiz-adv-x="585" 
d="M498 1490v-1490h-411v1490h411zM148 1620l174 326h357l-267 -326h-264z" />
    <glyph glyph-name="Icircumflex" unicode="&#xce;" horiz-adv-x="585" 
d="M498 1490v-1490h-411v1490h411zM163 1620h-306v4l290 322h289l294 -322v-4h-306l-133 163z" />
    <glyph glyph-name="Idieresis" unicode="&#xcf;" horiz-adv-x="585" 
d="M498 1490v-1490h-411v1490h411zM526 1589q-81 0 -135.5 52t-54.5 128q0 78 54.5 129t135.5 51t135.5 -51t54.5 -129q0 -77 -54.5 -128.5t-135.5 -51.5zM60 1589q-81 0 -135 52t-54 128q0 78 54 129t135 51q82 0 136 -51t54 -129q0 -77 -54 -128.5t-136 -51.5z" />
    <glyph glyph-name="Eth" unicode="&#xd0;" horiz-adv-x="1588" 
d="M788 0h-408v344h389q117 0 195.5 39.5t118 128t39.5 232.5q0 145 -40.5 233.5t-121.5 128.5t-203 40h-383v344h408q230 0 399 -91t261.5 -258t92.5 -397q0 -229 -91.5 -396t-259.5 -257.5t-396 -90.5zM620 1490v-1490h-411v1490h411zM20 619v252h852v-252h-852z" />
    <glyph glyph-name="Ntilde" unicode="&#xd1;" horiz-adv-x="1540" 
d="M87 0v1490h431l360 -585q33 -55 71.5 -125t77.5 -152.5t76 -173.5l-44 -64q-5 81 -10 185.5t-8.5 204.5t-3.5 164v546h416v-1490h-431l-335 544q-42 69 -85.5 147t-89 170.5t-96.5 198.5l64 14q8 -105 13.5 -207.5t7.5 -186.5t2 -136v-544h-416zM919 1622q-57 0 -96.5 18
t-68 42t-53 42t-52.5 18q-35 0 -54.5 -28.5t-21.5 -83.5h-198q3 158 74 235t174 77q56 0 96 -17.5t69.5 -40.5t54 -40.5t50.5 -17.5q42 0 59.5 29t18.5 81h196q-2 -154 -74 -234t-174 -80z" />
    <glyph glyph-name="Ograve" unicode="&#xd2;" horiz-adv-x="1555" 
d="M777 -22q-203 0 -367.5 88.5t-260.5 259.5t-96 418q0 249 96 420.5t260.5 259.5t367.5 88t367 -88t260.5 -259.5t96.5 -420.5q0 -248 -96.5 -419t-260.5 -259t-367 -88zM777 334q100 0 168 48t103 140t35 222q0 131 -35 223.5t-103 140.5t-168 48q-98 0 -166 -48
t-103.5 -140.5t-35.5 -223.5q0 -130 35.5 -222t103.5 -140t166 -48zM658 1620l-267 326h357l174 -326h-264z" />
    <glyph glyph-name="Oacute" unicode="&#xd3;" horiz-adv-x="1555" 
d="M777 -22q-203 0 -367.5 88.5t-260.5 259.5t-96 418q0 249 96 420.5t260.5 259.5t367.5 88t367 -88t260.5 -259.5t96.5 -420.5q0 -248 -96.5 -419t-260.5 -259t-367 -88zM777 334q100 0 168 48t103 140t35 222q0 131 -35 223.5t-103 140.5t-168 48q-98 0 -166 -48
t-103.5 -140.5t-35.5 -223.5q0 -130 35.5 -222t103.5 -140t166 -48zM632 1620l174 326h357l-267 -326h-264z" />
    <glyph glyph-name="Ocircumflex" unicode="&#xd4;" horiz-adv-x="1555" 
d="M777 -22q-203 0 -367.5 88.5t-260.5 259.5t-96 418q0 249 96 420.5t260.5 259.5t367.5 88t367 -88t260.5 -259.5t96.5 -420.5q0 -248 -96.5 -419t-260.5 -259t-367 -88zM777 334q100 0 168 48t103 140t35 222q0 131 -35 223.5t-103 140.5t-168 48q-98 0 -166 -48
t-103.5 -140.5t-35.5 -223.5q0 -130 35.5 -222t103.5 -140t166 -48zM647 1620h-306v4l290 322h289l294 -322v-4h-306l-133 163z" />
    <glyph glyph-name="Otilde" unicode="&#xd5;" horiz-adv-x="1555" 
d="M777 -22q-203 0 -367.5 88.5t-260.5 259.5t-96 418q0 249 96 420.5t260.5 259.5t367.5 88t367 -88t260.5 -259.5t96.5 -420.5q0 -248 -96.5 -419t-260.5 -259t-367 -88zM777 334q100 0 168 48t103 140t35 222q0 131 -35 223.5t-103 140.5t-168 48q-98 0 -166 -48
t-103.5 -140.5t-35.5 -223.5q0 -130 35.5 -222t103.5 -140t166 -48zM925 1622q-57 0 -96.5 18t-68 42t-53 42t-52.5 18q-35 0 -54.5 -28.5t-21.5 -83.5h-198q3 158 74 235t174 77q56 0 96 -17.5t69.5 -40.5t54 -40.5t50.5 -17.5q42 0 59.5 29t18.5 81h196q-2 -154 -74 -234
t-174 -80z" />
    <glyph glyph-name="Odieresis" unicode="&#xd6;" horiz-adv-x="1555" 
d="M777 -22q-203 0 -367.5 88.5t-260.5 259.5t-96 418q0 249 96 420.5t260.5 259.5t367.5 88t367 -88t260.5 -259.5t96.5 -420.5q0 -248 -96.5 -419t-260.5 -259t-367 -88zM777 334q100 0 168 48t103 140t35 222q0 131 -35 223.5t-103 140.5t-168 48q-98 0 -166 -48
t-103.5 -140.5t-35.5 -223.5q0 -130 35.5 -222t103.5 -140t166 -48zM1010 1589q-81 0 -135.5 52t-54.5 128q0 78 54.5 129t135.5 51t135.5 -51t54.5 -129q0 -77 -54.5 -128.5t-135.5 -51.5zM544 1589q-81 0 -135 52t-54 128q0 78 54 129t135 51q82 0 136 -51t54 -129
q0 -77 -54 -128.5t-136 -51.5z" />
    <glyph glyph-name="multiply" unicode="&#xd7;" horiz-adv-x="1402" 
d="M1030 32l-902 898l246 248l900 -902zM374 32l-246 244l902 902l244 -248z" />
    <glyph glyph-name="Oslash" unicode="&#xd8;" horiz-adv-x="1555" 
d="M777 -22q-203 0 -367.5 88.5t-260.5 259.5t-96 418q0 249 96 420.5t260.5 259.5t367.5 88t367 -88t260.5 -259.5t96.5 -420.5q0 -248 -96.5 -419t-260.5 -259t-367 -88zM777 334q100 0 168 48t103 140t35 222q0 131 -35 223.5t-103 140.5t-168 48q-98 0 -166 -48
t-103.5 -140.5t-35.5 -223.5q0 -130 35.5 -222t103.5 -140t166 -48zM264 -84l-185 148l1213 1509l185 -148z" />
    <glyph glyph-name="Ugrave" unicode="&#xd9;" horiz-adv-x="1459" 
d="M729 -21q-193 0 -337.5 68t-224.5 192.5t-80 293.5v957h404v-923q0 -70 31 -123.5t84.5 -84t122.5 -30.5q70 0 124 30.5t84.5 84t30.5 123.5v923h404v-957q0 -169 -80 -293.5t-224.5 -192.5t-338.5 -68zM610 1620l-267 326h357l174 -326h-264z" />
    <glyph glyph-name="Uacute" unicode="&#xda;" horiz-adv-x="1459" 
d="M729 -21q-193 0 -337.5 68t-224.5 192.5t-80 293.5v957h404v-923q0 -70 31 -123.5t84.5 -84t122.5 -30.5q70 0 124 30.5t84.5 84t30.5 123.5v923h404v-957q0 -169 -80 -293.5t-224.5 -192.5t-338.5 -68zM584 1620l174 326h357l-267 -326h-264z" />
    <glyph glyph-name="Ucircumflex" unicode="&#xdb;" horiz-adv-x="1459" 
d="M729 -21q-193 0 -337.5 68t-224.5 192.5t-80 293.5v957h404v-923q0 -70 31 -123.5t84.5 -84t122.5 -30.5q70 0 124 30.5t84.5 84t30.5 123.5v923h404v-957q0 -169 -80 -293.5t-224.5 -192.5t-338.5 -68zM599 1620h-306v4l290 322h289l294 -322v-4h-306l-133 163z" />
    <glyph glyph-name="Udieresis" unicode="&#xdc;" horiz-adv-x="1459" 
d="M729 -21q-193 0 -337.5 68t-224.5 192.5t-80 293.5v957h404v-923q0 -70 31 -123.5t84.5 -84t122.5 -30.5q70 0 124 30.5t84.5 84t30.5 123.5v923h404v-957q0 -169 -80 -293.5t-224.5 -192.5t-338.5 -68zM962 1589q-81 0 -135.5 52t-54.5 128q0 78 54.5 129t135.5 51
t135.5 -51t54.5 -129q0 -77 -54.5 -128.5t-135.5 -51.5zM496 1589q-81 0 -135 52t-54 128q0 78 54 129t135 51q82 0 136 -51t54 -129q0 -77 -54 -128.5t-136 -51.5z" />
    <glyph glyph-name="Yacute" unicode="&#xdd;" horiz-adv-x="1537" 
d="M575 0v512l-555 978h476l214 -432q28 -56 51.5 -113.5t47.5 -123.5h-59q22 66 44 123.5t48 113.5l201 432h473l-539 -978v-512h-402zM623 1620l174 326h357l-267 -326h-264z" />
    <glyph glyph-name="Thorn" unicode="&#xde;" horiz-adv-x="1410" 
d="M89 1490h406v-1490h-406v1490zM277 1240h388q194 0 328 -61t203 -167.5t69 -245.5q0 -140 -69 -246.5t-203 -166t-328 -59.5h-388v296h388q81 1 127.5 27.5t66.5 66t20 78.5q0 41 -20 82t-66.5 68.5t-127.5 27.5h-388v300z" />
    <glyph glyph-name="germandbls" unicode="&#xdf;" horiz-adv-x="1402" 
d="M87 0v1088q0 132 69.5 226.5t196.5 145t302 50.5q159 0 294.5 -45t218.5 -137t83 -234q0 -107 -52 -186t-150 -102v-18q148 -7 230 -113.5t82 -264.5q0 -139 -65.5 -230t-180 -135.5t-262.5 -44.5h-220v314h134q86 0 136 39t50 107q0 69 -56 107.5t-152 38.5h-106v292h68
q39 0 68 18t45.5 49t16.5 71q0 66 -44 107t-124 41q-84 0 -132 -46t-48 -126v-1012h-402z" />
    <glyph glyph-name="agrave" unicode="&#xe0;" horiz-adv-x="1206" 
d="M412 -19q-107 0 -188.5 35t-127.5 105t-46 178q0 90 31 153.5t86.5 103.5t130 61.5t160.5 27.5q93 7 149.5 17t82 28.5t25.5 49.5v4q0 25 -15.5 43.5t-42.5 28.5t-65 10q-39 0 -68.5 -11t-47.5 -32.5t-23 -54.5l-364 16q12 109 73 189.5t171.5 125t270.5 44.5
q120 0 215 -26t160.5 -75t99.5 -117t34 -152v-733h-383v152h-6q-35 -63 -81 -100t-103.5 -54t-127.5 -17zM542 233q44 0 84.5 17.5t66.5 51t26 82.5v87q-16 -5 -33 -10.5t-36.5 -10t-42 -9t-48.5 -9.5q-44 -7 -73.5 -22t-44.5 -37t-15 -50q0 -29 15 -49t41 -30.5t60 -10.5z
M484 1214l-267 326h357l174 -326h-264z" />
    <glyph glyph-name="aacute" unicode="&#xe1;" horiz-adv-x="1206" 
d="M412 -19q-107 0 -188.5 35t-127.5 105t-46 178q0 90 31 153.5t86.5 103.5t130 61.5t160.5 27.5q93 7 149.5 17t82 28.5t25.5 49.5v4q0 25 -15.5 43.5t-42.5 28.5t-65 10q-39 0 -68.5 -11t-47.5 -32.5t-23 -54.5l-364 16q12 109 73 189.5t171.5 125t270.5 44.5
q120 0 215 -26t160.5 -75t99.5 -117t34 -152v-733h-383v152h-6q-35 -63 -81 -100t-103.5 -54t-127.5 -17zM542 233q44 0 84.5 17.5t66.5 51t26 82.5v87q-16 -5 -33 -10.5t-36.5 -10t-42 -9t-48.5 -9.5q-44 -7 -73.5 -22t-44.5 -37t-15 -50q0 -29 15 -49t41 -30.5t60 -10.5z
M457 1214l174 326h357l-267 -326h-264z" />
    <glyph glyph-name="acircumflex" unicode="&#xe2;" horiz-adv-x="1206" 
d="M412 -19q-107 0 -188.5 35t-127.5 105t-46 178q0 90 31 153.5t86.5 103.5t130 61.5t160.5 27.5q93 7 149.5 17t82 28.5t25.5 49.5v4q0 25 -15.5 43.5t-42.5 28.5t-65 10q-39 0 -68.5 -11t-47.5 -32.5t-23 -54.5l-364 16q12 109 73 189.5t171.5 125t270.5 44.5
q120 0 215 -26t160.5 -75t99.5 -117t34 -152v-733h-383v152h-6q-35 -63 -81 -100t-103.5 -54t-127.5 -17zM542 233q44 0 84.5 17.5t66.5 51t26 82.5v87q-16 -5 -33 -10.5t-36.5 -10t-42 -9t-48.5 -9.5q-44 -7 -73.5 -22t-44.5 -37t-15 -50q0 -29 15 -49t41 -30.5t60 -10.5z
M472 1214h-306v4l290 322h289l294 -322v-4h-306l-133 163z" />
    <glyph glyph-name="atilde" unicode="&#xe3;" horiz-adv-x="1206" 
d="M412 -19q-107 0 -188.5 35t-127.5 105t-46 178q0 90 31 153.5t86.5 103.5t130 61.5t160.5 27.5q93 7 149.5 17t82 28.5t25.5 49.5v4q0 25 -15.5 43.5t-42.5 28.5t-65 10q-39 0 -68.5 -11t-47.5 -32.5t-23 -54.5l-364 16q12 109 73 189.5t171.5 125t270.5 44.5
q120 0 215 -26t160.5 -75t99.5 -117t34 -152v-733h-383v152h-6q-35 -63 -81 -100t-103.5 -54t-127.5 -17zM542 233q44 0 84.5 17.5t66.5 51t26 82.5v87q-16 -5 -33 -10.5t-36.5 -10t-42 -9t-48.5 -9.5q-44 -7 -73.5 -22t-44.5 -37t-15 -50q0 -29 15 -49t41 -30.5t60 -10.5z
M751 1216q-57 0 -96.5 18t-68 42t-53 42t-52.5 18q-35 0 -54.5 -28.5t-21.5 -83.5h-198q3 158 74 235t174 77q56 0 96 -17.5t69.5 -40.5t54 -40.5t50.5 -17.5q42 0 59.5 29t18.5 81h196q-2 -154 -74 -234t-174 -80z" />
    <glyph glyph-name="adieresis" unicode="&#xe4;" horiz-adv-x="1206" 
d="M412 -19q-107 0 -188.5 35t-127.5 105t-46 178q0 90 31 153.5t86.5 103.5t130 61.5t160.5 27.5q93 7 149.5 17t82 28.5t25.5 49.5v4q0 25 -15.5 43.5t-42.5 28.5t-65 10q-39 0 -68.5 -11t-47.5 -32.5t-23 -54.5l-364 16q12 109 73 189.5t171.5 125t270.5 44.5
q120 0 215 -26t160.5 -75t99.5 -117t34 -152v-733h-383v152h-6q-35 -63 -81 -100t-103.5 -54t-127.5 -17zM542 233q44 0 84.5 17.5t66.5 51t26 82.5v87q-16 -5 -33 -10.5t-36.5 -10t-42 -9t-48.5 -9.5q-44 -7 -73.5 -22t-44.5 -37t-15 -50q0 -29 15 -49t41 -30.5t60 -10.5z
M835 1183q-81 0 -135.5 52t-54.5 128q0 78 54.5 129t135.5 51t135.5 -51t54.5 -129q0 -77 -54.5 -128.5t-135.5 -51.5zM369 1183q-81 0 -135 52t-54 128q0 78 54 129t135 51q82 0 136 -51t54 -129q0 -77 -54 -128.5t-136 -51.5z" />
    <glyph glyph-name="aring" unicode="&#xe5;" horiz-adv-x="1206" 
d="M412 -19q-107 0 -188.5 35t-127.5 105t-46 178q0 90 31 153.5t86.5 103.5t130 61.5t160.5 27.5q93 7 149.5 17t82 28.5t25.5 49.5v4q0 25 -15.5 43.5t-42.5 28.5t-65 10q-39 0 -68.5 -11t-47.5 -32.5t-23 -54.5l-364 16q12 109 73 189.5t171.5 125t270.5 44.5
q120 0 215 -26t160.5 -75t99.5 -117t34 -152v-733h-383v152h-6q-35 -63 -81 -100t-103.5 -54t-127.5 -17zM542 233q44 0 84.5 17.5t66.5 51t26 82.5v87q-16 -5 -33 -10.5t-36.5 -10t-42 -9t-48.5 -9.5q-44 -7 -73.5 -22t-44.5 -37t-15 -50q0 -29 15 -49t41 -30.5t60 -10.5z
M603 1165q-77 0 -139 32.5t-97.5 89t-35.5 128.5t35.5 128.5t97.5 89t139 32.5q78 0 139.5 -32.5t97 -89t35.5 -128.5t-35.5 -128.5t-97 -89t-139.5 -32.5zM603 1312q45 0 74 29.5t29 73.5t-29.5 73.5t-73.5 29.5t-73.5 -29.5t-29.5 -73.5t29.5 -73.5t73.5 -29.5z" />
    <glyph glyph-name="ae" unicode="&#xe6;" horiz-adv-x="1842" 
d="M446 -19q-123 0 -212 35t-136.5 105.5t-47.5 177.5q0 100 43 170t121 114.5t184 65t232 20.5h922l-130 -42q0 62 -20.5 104.5t-59.5 65t-96 22.5q-56 0 -95 -22.5t-60 -65t-21 -104.5v-169q0 -67 23 -111.5t66 -66.5t101 -22q42 0 76 11t58 32t36 51h359
q-19 -112 -92 -196t-188 -131t-262 -47q-93 0 -174.5 24.5t-145 69t-103.5 105.5v734q49 60 109.5 103.5t136 66t169.5 22.5q124 0 225.5 -39.5t175 -113t113.5 -175.5t40 -228v-100h-1194q-58 0 -96.5 -17t-57.5 -44.5t-19 -58.5q0 -46 32.5 -70t83.5 -24q44 0 84 17.5
t65.5 51t25.5 82.5v360q0 25 -15.5 43.5t-43.5 28.5t-66 10q-39 0 -68.5 -11t-47.5 -32.5t-23 -54.5l-364 16q11 98 70.5 179t167.5 130.5t263 49.5q143 0 235 -47t136.5 -130.5t44.5 -192.5v-485h-93q-30 -80 -81.5 -132t-115 -81.5t-133 -41.5t-137.5 -12z" />
    <glyph glyph-name="ccedilla" unicode="&#xe7;" horiz-adv-x="1212" 
d="M623 -22q-174 0 -302.5 70.5t-198 197t-69.5 294.5q0 169 69.5 295.5t198 197t302.5 70.5q116 0 212 -32t166.5 -90.5t111.5 -140.5t48 -182l-376 -25q-5 39 -17.5 69.5t-32 52t-46 32.5t-59.5 11q-53 0 -91 -29.5t-58.5 -87t-20.5 -140.5q0 -82 20.5 -139.5t59 -88
t90.5 -30.5q33 0 59.5 11.5t46.5 33t32.5 53.5t16.5 72l376 -24q-4 -102 -44.5 -184.5t-111 -142.5t-167.5 -92t-215 -32zM481 -418v135h126q41 0 60.5 14t19.5 42t-19.5 41.5t-60.5 13.5h-91l42 212h135v-40l-5 -81q92 5 144.5 -40.5t52.5 -120.5q0 -89 -61.5 -132.5
t-184.5 -43.5h-158z" />
    <glyph glyph-name="egrave" unicode="&#xe8;" horiz-adv-x="1215" 
d="M621 -22q-171 0 -299 69.5t-198.5 196.5t-70.5 296q0 167 70.5 294t196 198t292.5 71q124 0 225.5 -39.5t175.5 -113t113.5 -175.5t39.5 -228v-100h-992v222h808l-186 -42q0 62 -20.5 104.5t-59.5 65t-96 22.5t-96 -22.5t-59.5 -65t-20.5 -104.5v-169q0 -65 23 -110
t65.5 -67.5t100.5 -22.5q42 0 76 11t58 32t36 50l354 -23q-23 -104 -97 -183t-186 -123t-253 -44zM490 1214l-267 326h357l174 -326h-264z" />
    <glyph glyph-name="eacute" unicode="&#xe9;" horiz-adv-x="1215" 
d="M621 -22q-171 0 -299 69.5t-198.5 196.5t-70.5 296q0 167 70.5 294t196 198t292.5 71q124 0 225.5 -39.5t175.5 -113t113.5 -175.5t39.5 -228v-100h-992v222h808l-186 -42q0 62 -20.5 104.5t-59.5 65t-96 22.5t-96 -22.5t-59.5 -65t-20.5 -104.5v-169q0 -65 23 -110
t65.5 -67.5t100.5 -22.5q42 0 76 11t58 32t36 50l354 -23q-23 -104 -97 -183t-186 -123t-253 -44zM464 1214l174 326h357l-267 -326h-264z" />
    <glyph glyph-name="ecircumflex" unicode="&#xea;" horiz-adv-x="1215" 
d="M621 -22q-171 0 -299 69.5t-198.5 196.5t-70.5 296q0 167 70.5 294t196 198t292.5 71q124 0 225.5 -39.5t175.5 -113t113.5 -175.5t39.5 -228v-100h-992v222h808l-186 -42q0 62 -20.5 104.5t-59.5 65t-96 22.5t-96 -22.5t-59.5 -65t-20.5 -104.5v-169q0 -65 23 -110
t65.5 -67.5t100.5 -22.5q42 0 76 11t58 32t36 50l354 -23q-23 -104 -97 -183t-186 -123t-253 -44zM479 1214h-306v4l290 322h289l294 -322v-4h-306l-133 163z" />
    <glyph glyph-name="edieresis" unicode="&#xeb;" horiz-adv-x="1215" 
d="M621 -22q-171 0 -299 69.5t-198.5 196.5t-70.5 296q0 167 70.5 294t196 198t292.5 71q124 0 225.5 -39.5t175.5 -113t113.5 -175.5t39.5 -228v-100h-992v222h808l-186 -42q0 62 -20.5 104.5t-59.5 65t-96 22.5t-96 -22.5t-59.5 -65t-20.5 -104.5v-169q0 -65 23 -110
t65.5 -67.5t100.5 -22.5q42 0 76 11t58 32t36 50l354 -23q-23 -104 -97 -183t-186 -123t-253 -44zM842 1183q-81 0 -135.5 52t-54.5 128q0 78 54.5 129t135.5 51t135.5 -51t54.5 -129q0 -77 -54.5 -128.5t-135.5 -51.5zM376 1183q-81 0 -135 52t-54 128q0 78 54 129t135 51
q82 0 136 -51t54 -129q0 -77 -54 -128.5t-136 -51.5z" />
    <glyph glyph-name="igrave" unicode="&#xec;" horiz-adv-x="587" 
d="M93 0v1084h401v-1084h-401zM174 1214l-267 326h357l174 -326h-264z" />
    <glyph glyph-name="iacute" unicode="&#xed;" horiz-adv-x="587" 
d="M93 0v1084h401v-1084h-401zM148 1214l174 326h357l-267 -326h-264z" />
    <glyph glyph-name="icircumflex" unicode="&#xee;" horiz-adv-x="587" 
d="M93 0v1084h401v-1084h-401zM163 1214h-306v4l290 322h289l294 -322v-4h-306l-133 163z" />
    <glyph glyph-name="idieresis" unicode="&#xef;" horiz-adv-x="587" 
d="M93 0v1084h401v-1084h-401zM526 1183q-81 0 -135.5 52t-54.5 128q0 78 54.5 129t135.5 51t135.5 -51t54.5 -129q0 -77 -54.5 -128.5t-135.5 -51.5zM60 1183q-81 0 -135 52t-54 128q0 78 54 129t135 51q82 0 136 -51t54 -129q0 -77 -54 -128.5t-136 -51.5z" />
    <glyph glyph-name="eth" unicode="&#xf0;" horiz-adv-x="1238" 
d="M933 1394l-738 -388v164l738 386v-162zM611 -24q-166 1 -292 67.5t-196 187t-70 281.5q0 141 55.5 258t158 186.5t244.5 69.5q57 0 106 -11.5t90 -33t72 -51.5h16q-57 112 -160.5 200.5t-221 149.5t-218.5 90v194q195 -25 373 -103.5t317 -204.5t219.5 -294t80.5 -372
q0 -182 -68.5 -320.5t-197 -215.5t-308.5 -78zM623 270q59 0 102.5 32t67.5 93t24 147q0 81 -22 138.5t-65 87.5t-107 30t-106.5 -30.5t-64 -87.5t-21.5 -138q0 -85 23.5 -146.5t67 -93.5t101.5 -32z" />
    <glyph glyph-name="ntilde" unicode="&#xf1;" 
d="M494 590v-590h-401v1084h387l4 -289h-35q45 133 134.5 220.5t246.5 87.5q119 0 201.5 -52t126 -146t43.5 -219v-686h-401v599q0 81 -39.5 126t-112.5 45q-48 0 -82.5 -20.5t-53 -60.5t-18.5 -99zM794 1216q-57 0 -96.5 18t-68 42t-53 42t-52.5 18q-35 0 -54.5 -28.5
t-21.5 -83.5h-198q3 158 74 235t174 77q56 0 96 -17.5t69.5 -40.5t54 -40.5t50.5 -17.5q42 0 59.5 29t18.5 81h196q-2 -154 -74 -234t-174 -80z" />
    <glyph glyph-name="ograve" unicode="&#xf2;" horiz-adv-x="1260" 
d="M630 -22q-175 0 -305 69.5t-201 196t-71 296.5q0 171 71 297t201 196t305 70q177 0 306 -70t200 -196t71 -297q0 -170 -71 -296.5t-200 -196t-306 -69.5zM630 284q50 0 88.5 30t60 87.5t21.5 139.5q0 84 -21.5 140.5t-60 85.5t-88.5 29q-49 0 -88 -29t-60.5 -85.5
t-21.5 -140.5q0 -82 21.5 -139.5t60.5 -87.5t88 -30zM511 1214l-267 326h357l174 -326h-264z" />
    <glyph glyph-name="oacute" unicode="&#xf3;" horiz-adv-x="1260" 
d="M630 -22q-175 0 -305 69.5t-201 196t-71 296.5q0 171 71 297t201 196t305 70q177 0 306 -70t200 -196t71 -297q0 -170 -71 -296.5t-200 -196t-306 -69.5zM630 284q50 0 88.5 30t60 87.5t21.5 139.5q0 84 -21.5 140.5t-60 85.5t-88.5 29q-49 0 -88 -29t-60.5 -85.5
t-21.5 -140.5q0 -82 21.5 -139.5t60.5 -87.5t88 -30zM485 1214l174 326h357l-267 -326h-264z" />
    <glyph glyph-name="ocircumflex" unicode="&#xf4;" horiz-adv-x="1260" 
d="M630 -22q-175 0 -305 69.5t-201 196t-71 296.5q0 171 71 297t201 196t305 70q177 0 306 -70t200 -196t71 -297q0 -170 -71 -296.5t-200 -196t-306 -69.5zM630 284q50 0 88.5 30t60 87.5t21.5 139.5q0 84 -21.5 140.5t-60 85.5t-88.5 29q-49 0 -88 -29t-60.5 -85.5
t-21.5 -140.5q0 -82 21.5 -139.5t60.5 -87.5t88 -30zM499 1214h-306v4l290 322h289l294 -322v-4h-306l-133 163z" />
    <glyph glyph-name="otilde" unicode="&#xf5;" horiz-adv-x="1260" 
d="M630 -22q-175 0 -305 69.5t-201 196t-71 296.5q0 171 71 297t201 196t305 70q177 0 306 -70t200 -196t71 -297q0 -170 -71 -296.5t-200 -196t-306 -69.5zM630 284q50 0 88.5 30t60 87.5t21.5 139.5q0 84 -21.5 140.5t-60 85.5t-88.5 29q-49 0 -88 -29t-60.5 -85.5
t-21.5 -140.5q0 -82 21.5 -139.5t60.5 -87.5t88 -30zM778 1216q-57 0 -96.5 18t-68 42t-53 42t-52.5 18q-35 0 -54.5 -28.5t-21.5 -83.5h-198q3 158 74 235t174 77q56 0 96 -17.5t69.5 -40.5t54 -40.5t50.5 -17.5q42 0 59.5 29t18.5 81h196q-2 -154 -74 -234t-174 -80z" />
    <glyph glyph-name="odieresis" unicode="&#xf6;" horiz-adv-x="1260" 
d="M630 -22q-175 0 -305 69.5t-201 196t-71 296.5q0 171 71 297t201 196t305 70q177 0 306 -70t200 -196t71 -297q0 -170 -71 -296.5t-200 -196t-306 -69.5zM630 284q50 0 88.5 30t60 87.5t21.5 139.5q0 84 -21.5 140.5t-60 85.5t-88.5 29q-49 0 -88 -29t-60.5 -85.5
t-21.5 -140.5q0 -82 21.5 -139.5t60.5 -87.5t88 -30zM863 1183q-81 0 -135.5 52t-54.5 128q0 78 54.5 129t135.5 51t135.5 -51t54.5 -129q0 -77 -54.5 -128.5t-135.5 -51.5zM397 1183q-81 0 -135 52t-54 128q0 78 54 129t135 51q82 0 136 -51t54 -129q0 -77 -54 -128.5
t-136 -51.5z" />
    <glyph glyph-name="divide" unicode="&#xf7;" horiz-adv-x="1402" 
d="M1239 756v-302h-1076v302h1076zM701 -24q-86 1 -146 61t-60 147q0 83 60 142.5t146 59.5q84 0 144 -59.5t60 -142.5q0 -87 -60 -147t-144 -61zM701 824q-85 -1 -145.5 60t-60.5 146t60.5 144.5t145.5 59.5t144.5 -59.5t59.5 -144.5t-59.5 -146t-144.5 -60z" />
    <glyph glyph-name="oslash" unicode="&#xf8;" horiz-adv-x="1260" 
d="M630 -22q-175 0 -305 69.5t-201 196t-71 296.5q0 171 71 297t201 196t305 70q177 0 306 -70t200 -196t71 -297q0 -170 -71 -296.5t-200 -196t-306 -69.5zM630 284q50 0 88.5 30t60 87.5t21.5 139.5q0 84 -21.5 140.5t-60 85.5t-88.5 29q-49 0 -88 -29t-60.5 -85.5
t-21.5 -140.5q0 -82 21.5 -139.5t60.5 -87.5t88 -30zM174 -50l-106 100l1018 1083l106 -99z" />
    <glyph glyph-name="ugrave" unicode="&#xf9;" 
d="M464 -20q-117 0 -200.5 52.5t-127 146t-43.5 218.5v687h401v-600q0 -80 40 -125.5t113 -45.5q48 0 82.5 20.5t52.5 61t18 98.5v591h401v-1084h-387l-3 289h34q-44 -133 -133.5 -221t-247.5 -88zM529 1214l-267 326h357l174 -326h-264z" />
    <glyph glyph-name="uacute" unicode="&#xfa;" 
d="M464 -20q-117 0 -200.5 52.5t-127 146t-43.5 218.5v687h401v-600q0 -80 40 -125.5t113 -45.5q48 0 82.5 20.5t52.5 61t18 98.5v591h401v-1084h-387l-3 289h34q-44 -133 -133.5 -221t-247.5 -88zM502 1214l174 326h357l-267 -326h-264z" />
    <glyph glyph-name="ucircumflex" unicode="&#xfb;" 
d="M464 -20q-117 0 -200.5 52.5t-127 146t-43.5 218.5v687h401v-600q0 -80 40 -125.5t113 -45.5q48 0 82.5 20.5t52.5 61t18 98.5v591h401v-1084h-387l-3 289h34q-44 -133 -133.5 -221t-247.5 -88zM517 1214h-306v4l290 322h289l294 -322v-4h-306l-133 163z" />
    <glyph glyph-name="udieresis" unicode="&#xfc;" 
d="M464 -20q-117 0 -200.5 52.5t-127 146t-43.5 218.5v687h401v-600q0 -80 40 -125.5t113 -45.5q48 0 82.5 20.5t52.5 61t18 98.5v591h401v-1084h-387l-3 289h34q-44 -133 -133.5 -221t-247.5 -88zM880 1183q-81 0 -135.5 52t-54.5 128q0 78 54.5 129t135.5 51t135.5 -51
t54.5 -129q0 -77 -54.5 -128.5t-135.5 -51.5zM414 1183q-81 0 -135 52t-54 128q0 78 54 129t135 51q82 0 136 -51t54 -129q0 -77 -54 -128.5t-136 -51.5z" />
    <glyph glyph-name="yacute" unicode="&#xfd;" horiz-adv-x="1250" 
d="M116 -405l39 296l112 -6q50 -7 82.5 1t48 31t16.5 59l-2 24l-409 1084h419l138 -476q32 -111 55.5 -223t50.5 -234h-96q26 122 53.5 235t61.5 222l148 476h414l-453 -1204q-36 -97 -89 -164.5t-132 -102.5t-194 -35q-68 0 -136.5 4.5t-126.5 12.5zM464 1214l174 326h357
l-267 -326h-264z" />
    <glyph glyph-name="thorn" unicode="&#xfe;" horiz-adv-x="1300" 
d="M798 -20q-74 0 -132.5 23.5t-100 65.5t-65.5 99h-5v-586h-402v1908h402v-567h6q27 54 68.5 94.5t99.5 63t133 22.5q123 0 223.5 -65t161 -190t60.5 -306q0 -179 -58 -304.5t-159.5 -191.5t-231.5 -66zM666 292q55 0 93.5 30.5t58.5 86.5t20 133q0 78 -20 134t-58.5 86.5
t-93.5 30.5t-96 -30.5t-64 -86.5t-23 -134q0 -76 23 -132.5t64 -87t96 -30.5z" />
    <glyph glyph-name="ydieresis" unicode="&#xff;" horiz-adv-x="1250" 
d="M116 -405l39 296l112 -6q50 -7 82.5 1t48 31t16.5 59l-2 24l-409 1084h419l138 -476q32 -111 55.5 -223t50.5 -234h-96q26 122 53.5 235t61.5 222l148 476h414l-453 -1204q-36 -97 -89 -164.5t-132 -102.5t-194 -35q-68 0 -136.5 4.5t-126.5 12.5zM842 1183
q-81 0 -135.5 52t-54.5 128q0 78 54.5 129t135.5 51t135.5 -51t54.5 -129q0 -77 -54.5 -128.5t-135.5 -51.5zM376 1183q-81 0 -135 52t-54 128q0 78 54 129t135 51q82 0 136 -51t54 -129q0 -77 -54 -128.5t-136 -51.5z" />
    <glyph glyph-name="Amacron" unicode="&#x100;" horiz-adv-x="1593" 
d="M20 0l493 1490h556l504 -1490h-464l-170 578q-55 188 -105 380t-96 391h103q-46 -199 -94 -391t-103 -380l-170 -578h-454zM387 263v312h820v-312h-820zM1095 1885v-232h-600v232h600z" />
    <glyph glyph-name="amacron" unicode="&#x101;" horiz-adv-x="1206" 
d="M412 -19q-107 0 -188.5 35t-127.5 105t-46 178q0 90 31 153.5t86.5 103.5t130 61.5t160.5 27.5q93 7 149.5 17t82 28.5t25.5 49.5v4q0 25 -15.5 43.5t-42.5 28.5t-65 10q-39 0 -68.5 -11t-47.5 -32.5t-23 -54.5l-364 16q12 109 73 189.5t171.5 125t270.5 44.5
q120 0 215 -26t160.5 -75t99.5 -117t34 -152v-733h-383v152h-6q-35 -63 -81 -100t-103.5 -54t-127.5 -17zM542 233q44 0 84.5 17.5t66.5 51t26 82.5v87q-16 -5 -33 -10.5t-36.5 -10t-42 -9t-48.5 -9.5q-44 -7 -73.5 -22t-44.5 -37t-15 -50q0 -29 15 -49t41 -30.5t60 -10.5z
M902 1479v-232h-600v232h600z" />
    <glyph glyph-name="Abreve" unicode="&#x102;" horiz-adv-x="1593" 
d="M20 0l493 1490h556l504 -1490h-464l-170 578q-55 188 -105 380t-96 391h103q-46 -199 -94 -391t-103 -380l-170 -578h-454zM387 263v312h820v-312h-820zM795 1604q-112 0 -200.5 44.5t-140 120.5t-51.5 169h216q0 -60 50 -100.5t126 -40.5q75 0 124.5 40.5t49.5 100.5
h218q0 -93 -51.5 -169t-140 -120.5t-200.5 -44.5z" />
    <glyph glyph-name="abreve" unicode="&#x103;" horiz-adv-x="1206" 
d="M412 -19q-107 0 -188.5 35t-127.5 105t-46 178q0 90 31 153.5t86.5 103.5t130 61.5t160.5 27.5q93 7 149.5 17t82 28.5t25.5 49.5v4q0 25 -15.5 43.5t-42.5 28.5t-65 10q-39 0 -68.5 -11t-47.5 -32.5t-23 -54.5l-364 16q12 109 73 189.5t171.5 125t270.5 44.5
q120 0 215 -26t160.5 -75t99.5 -117t34 -152v-733h-383v152h-6q-35 -63 -81 -100t-103.5 -54t-127.5 -17zM542 233q44 0 84.5 17.5t66.5 51t26 82.5v87q-16 -5 -33 -10.5t-36.5 -10t-42 -9t-48.5 -9.5q-44 -7 -73.5 -22t-44.5 -37t-15 -50q0 -29 15 -49t41 -30.5t60 -10.5z
M603 1198q-112 0 -200.5 44.5t-140 120.5t-51.5 169h216q0 -60 50 -100.5t126 -40.5q75 0 124.5 40.5t49.5 100.5h218q0 -93 -51.5 -169t-140 -120.5t-200.5 -44.5z" />
    <glyph glyph-name="Aogonek" unicode="&#x104;" horiz-adv-x="1593" 
d="M20 0l493 1490h556l504 -1490h-464l-170 578q-55 188 -105 380t-96 391h103q-46 -199 -94 -391t-103 -380l-170 -578h-454zM387 263v312h820v-312h-820zM1366 -422q-150 0 -240 58.5t-90 165.5q0 66 31.5 119t78.5 96l427 -17q-83 -34 -114.5 -66.5t-31.5 -71.5
q0 -32 18 -48t53 -16q16 0 30.5 2.5t29.5 6.5l31 -206q-40 -11 -107.5 -17t-115.5 -6z" />
    <glyph glyph-name="aogonek" unicode="&#x105;" horiz-adv-x="1206" 
d="M412 -19q-107 0 -188.5 35t-127.5 105t-46 178q0 90 31 153.5t86.5 103.5t130 61.5t160.5 27.5q93 7 149.5 17t82 28.5t25.5 49.5v4q0 25 -15.5 43.5t-42.5 28.5t-65 10q-39 0 -68.5 -11t-47.5 -32.5t-23 -54.5l-364 16q12 109 73 189.5t171.5 125t270.5 44.5
q120 0 215 -26t160.5 -75t99.5 -117t34 -152v-733h-383v152h-6q-35 -63 -81 -100t-103.5 -54t-127.5 -17zM542 233q44 0 84.5 17.5t66.5 51t26 82.5v87q-16 -5 -33 -10.5t-36.5 -10t-42 -9t-48.5 -9.5q-44 -7 -73.5 -22t-44.5 -37t-15 -50q0 -29 15 -49t41 -30.5t60 -10.5z
M923 -422q-150 0 -232.5 58.5t-82.5 162.5q0 66 33 119t89 98l384 -16q-83 -34 -114.5 -66.5t-31.5 -71.5q0 -32 18 -48t53 -16q16 0 30.5 2.5t29.5 6.5l31 -206q-40 -11 -99.5 -17t-107.5 -6z" />
    <glyph glyph-name="Cacute" unicode="&#x106;" horiz-adv-x="1510" 
d="M775 -22q-204 0 -367.5 88.5t-259 259.5t-95.5 418q0 249 96 420.5t260 259.5t366 88q141 0 260 -40t208.5 -114.5t145.5 -181.5t71 -240h-415q-8 51 -29 91.5t-54.5 69t-78 44t-99.5 15.5q-101 0 -170.5 -49t-105.5 -140.5t-36 -222.5q0 -133 36 -224.5t105.5 -138.5
t170.5 -47q54 0 98 15t78 44t55.5 69.5t29.5 90.5h415q-12 -116 -63 -219.5t-139 -183.5t-209.5 -126t-273.5 -46zM626 1620l174 326h357l-267 -326h-264z" />
    <glyph glyph-name="cacute" unicode="&#x107;" horiz-adv-x="1212" 
d="M623 -22q-174 0 -302.5 70.5t-198 197t-69.5 294.5q0 169 69.5 295.5t198 197t302.5 70.5q116 0 212 -32t166.5 -90.5t111.5 -140.5t48 -182l-376 -25q-5 39 -17.5 69.5t-32 52t-46 32.5t-59.5 11q-53 0 -91 -29.5t-58.5 -87t-20.5 -140.5q0 -82 20.5 -139.5t59 -88
t90.5 -30.5q33 0 59.5 11.5t46.5 33t32.5 53.5t16.5 72l376 -24q-4 -102 -44.5 -184.5t-111 -142.5t-167.5 -92t-215 -32zM478 1214l174 326h357l-267 -326h-264z" />
    <glyph glyph-name="Ccircumflex" unicode="&#x108;" horiz-adv-x="1510" 
d="M775 -22q-204 0 -367.5 88.5t-259 259.5t-95.5 418q0 249 96 420.5t260 259.5t366 88q141 0 260 -40t208.5 -114.5t145.5 -181.5t71 -240h-415q-8 51 -29 91.5t-54.5 69t-78 44t-99.5 15.5q-101 0 -170.5 -49t-105.5 -140.5t-36 -222.5q0 -133 36 -224.5t105.5 -138.5
t170.5 -47q54 0 98 15t78 44t55.5 69.5t29.5 90.5h415q-12 -116 -63 -219.5t-139 -183.5t-209.5 -126t-273.5 -46zM641 1620h-306v4l290 322h289l294 -322v-4h-306l-133 163z" />
    <glyph glyph-name="ccircumflex" unicode="&#x109;" horiz-adv-x="1212" 
d="M623 -22q-174 0 -302.5 70.5t-198 197t-69.5 294.5q0 169 69.5 295.5t198 197t302.5 70.5q116 0 212 -32t166.5 -90.5t111.5 -140.5t48 -182l-376 -25q-5 39 -17.5 69.5t-32 52t-46 32.5t-59.5 11q-53 0 -91 -29.5t-58.5 -87t-20.5 -140.5q0 -82 20.5 -139.5t59 -88
t90.5 -30.5q33 0 59.5 11.5t46.5 33t32.5 53.5t16.5 72l376 -24q-4 -102 -44.5 -184.5t-111 -142.5t-167.5 -92t-215 -32zM493 1214h-306v4l290 322h289l294 -322v-4h-306l-133 163z" />
    <glyph glyph-name="Cdotaccent" unicode="&#x10a;" horiz-adv-x="1510" 
d="M775 -22q-204 0 -367.5 88.5t-259 259.5t-95.5 418q0 249 96 420.5t260 259.5t366 88q141 0 260 -40t208.5 -114.5t145.5 -181.5t71 -240h-415q-8 51 -29 91.5t-54.5 69t-78 44t-99.5 15.5q-101 0 -170.5 -49t-105.5 -140.5t-36 -222.5q0 -133 36 -224.5t105.5 -138.5
t170.5 -47q54 0 98 15t78 44t55.5 69.5t29.5 90.5h415q-12 -116 -63 -219.5t-139 -183.5t-209.5 -126t-273.5 -46zM771 1579q-89 0 -148 54t-59 135t59 134.5t147 53.5q89 0 148 -53.5t59 -134.5t-59 -135t-147 -54z" />
    <glyph glyph-name="cdotaccent" unicode="&#x10b;" horiz-adv-x="1212" 
d="M623 -22q-174 0 -302.5 70.5t-198 197t-69.5 294.5q0 169 69.5 295.5t198 197t302.5 70.5q116 0 212 -32t166.5 -90.5t111.5 -140.5t48 -182l-376 -25q-5 39 -17.5 69.5t-32 52t-46 32.5t-59.5 11q-53 0 -91 -29.5t-58.5 -87t-20.5 -140.5q0 -82 20.5 -139.5t59 -88
t90.5 -30.5q33 0 59.5 11.5t46.5 33t32.5 53.5t16.5 72l376 -24q-4 -102 -44.5 -184.5t-111 -142.5t-167.5 -92t-215 -32zM623 1173q-89 0 -148 54t-59 135t59 134.5t147 53.5q89 0 148 -53.5t59 -134.5t-59 -135t-147 -54z" />
    <glyph glyph-name="Ccaron" unicode="&#x10c;" horiz-adv-x="1510" 
d="M775 -22q-204 0 -367.5 88.5t-259 259.5t-95.5 418q0 249 96 420.5t260 259.5t366 88q141 0 260 -40t208.5 -114.5t145.5 -181.5t71 -240h-415q-8 51 -29 91.5t-54.5 69t-78 44t-99.5 15.5q-101 0 -170.5 -49t-105.5 -140.5t-36 -222.5q0 -133 36 -224.5t105.5 -138.5
t170.5 -47q54 0 98 15t78 44t55.5 69.5t29.5 90.5h415q-12 -116 -63 -219.5t-139 -183.5t-209.5 -126t-273.5 -46zM641 1946l128 -162l133 162h306v-3l-294 -323h-289l-290 323v3h306z" />
    <glyph glyph-name="ccaron" unicode="&#x10d;" horiz-adv-x="1212" 
d="M623 -22q-174 0 -302.5 70.5t-198 197t-69.5 294.5q0 169 69.5 295.5t198 197t302.5 70.5q116 0 212 -32t166.5 -90.5t111.5 -140.5t48 -182l-376 -25q-5 39 -17.5 69.5t-32 52t-46 32.5t-59.5 11q-53 0 -91 -29.5t-58.5 -87t-20.5 -140.5q0 -82 20.5 -139.5t59 -88
t90.5 -30.5q33 0 59.5 11.5t46.5 33t32.5 53.5t16.5 72l376 -24q-4 -102 -44.5 -184.5t-111 -142.5t-167.5 -92t-215 -32zM493 1540l128 -162l133 162h306v-3l-294 -323h-289l-290 323v3h306z" />
    <glyph glyph-name="Dcaron" unicode="&#x10e;" horiz-adv-x="1467" 
d="M666 0h-408v344h389q117 0 195.5 39.5t118 128t39.5 232.5q0 145 -40.5 233.5t-121.5 128.5t-203 40h-383v344h408q230 0 399 -91t261.5 -258t92.5 -397q0 -229 -91.5 -396t-259.5 -257.5t-396 -90.5zM498 1490v-1490h-411v1490h411zM459 1946l128 -162l133 162h306v-3
l-294 -323h-289l-290 323v3h306z" />
    <glyph glyph-name="dcaron" unicode="&#x10f;" horiz-adv-x="1599" 
d="M502 -20q-130 0 -231.5 66t-159.5 191.5t-58 304.5q0 181 60.5 306t161.5 190t223 65q75 0 133 -22.5t100.5 -63.5t69.5 -97h4v570h401v-1490h-397v173h-5q-24 -60 -66.5 -103t-102 -66.5t-133.5 -23.5zM634 292q55 0 96 30.5t64 87t23 132.5q0 78 -23 134t-64 86.5
t-96 30.5t-93.5 -30.5t-58.5 -86.5t-20 -134q0 -77 20 -133t58.5 -86.5t93.5 -30.5zM1323 1182v388h272l-54 -388h-218z" />
    <glyph glyph-name="Dcroat" unicode="&#x110;" horiz-adv-x="1588" 
d="M788 0h-408v344h389q117 0 195.5 39.5t118 128t39.5 232.5q0 145 -40.5 233.5t-121.5 128.5t-203 40h-383v344h408q230 0 399 -91t261.5 -258t92.5 -397q0 -229 -91.5 -396t-259.5 -257.5t-396 -90.5zM620 1490v-1490h-411v1490h411zM20 619v252h852v-252h-852z" />
    <glyph glyph-name="dcroat" unicode="&#x111;" horiz-adv-x="1299" 
d="M502 -20q-130 0 -231.5 66t-159.5 191.5t-58 304.5q0 181 60.5 306t161.5 190t223 65q75 0 133 -22.5t100.5 -63.5t69.5 -97h4v570h401v-1490h-397v173h-5q-24 -60 -66.5 -103t-102 -66.5t-133.5 -23.5zM634 292q55 0 96 30.5t64 87t23 132.5q0 78 -23 134t-64 86.5
t-96 30.5t-93.5 -30.5t-58.5 -86.5t-20 -134q0 -77 20 -133t58.5 -86.5t93.5 -30.5zM501 1173v216h827v-216h-827z" />
    <glyph glyph-name="Emacron" unicode="&#x112;" horiz-adv-x="1277" 
d="M87 0v1490h1119v-340h-708v-237h651v-330h-651v-243h706v-340h-1117zM946 1885v-232h-600v232h600z" />
    <glyph glyph-name="emacron" unicode="&#x113;" horiz-adv-x="1215" 
d="M621 -22q-171 0 -299 69.5t-198.5 196.5t-70.5 296q0 167 70.5 294t196 198t292.5 71q124 0 225.5 -39.5t175.5 -113t113.5 -175.5t39.5 -228v-100h-992v222h808l-186 -42q0 62 -20.5 104.5t-59.5 65t-96 22.5t-96 -22.5t-59.5 -65t-20.5 -104.5v-169q0 -65 23 -110
t65.5 -67.5t100.5 -22.5q42 0 76 11t58 32t36 50l354 -23q-23 -104 -97 -183t-186 -123t-253 -44zM909 1479v-232h-600v232h600z" />
    <glyph glyph-name="Ebreve" unicode="&#x114;" horiz-adv-x="1277" 
d="M87 0v1490h1119v-340h-708v-237h651v-330h-651v-243h706v-340h-1117zM646 1604q-112 0 -200.5 44.5t-140 120.5t-51.5 169h216q0 -60 50 -100.5t126 -40.5q75 0 124.5 40.5t49.5 100.5h218q0 -93 -51.5 -169t-140 -120.5t-200.5 -44.5z" />
    <glyph glyph-name="ebreve" unicode="&#x115;" horiz-adv-x="1215" 
d="M621 -22q-171 0 -299 69.5t-198.5 196.5t-70.5 296q0 167 70.5 294t196 198t292.5 71q124 0 225.5 -39.5t175.5 -113t113.5 -175.5t39.5 -228v-100h-992v222h808l-186 -42q0 62 -20.5 104.5t-59.5 65t-96 22.5t-96 -22.5t-59.5 -65t-20.5 -104.5v-169q0 -65 23 -110
t65.5 -67.5t100.5 -22.5q42 0 76 11t58 32t36 50l354 -23q-23 -104 -97 -183t-186 -123t-253 -44zM609 1198q-112 0 -200.5 44.5t-140 120.5t-51.5 169h216q0 -60 50 -100.5t126 -40.5q75 0 124.5 40.5t49.5 100.5h218q0 -93 -51.5 -169t-140 -120.5t-200.5 -44.5z" />
    <glyph glyph-name="Edotaccent" unicode="&#x116;" horiz-adv-x="1277" 
d="M87 0v1490h1119v-340h-708v-237h651v-330h-651v-243h706v-340h-1117zM646 1579q-89 0 -148 54t-59 135t59 134.5t147 53.5q89 0 148 -53.5t59 -134.5t-59 -135t-147 -54z" />
    <glyph glyph-name="edotaccent" unicode="&#x117;" horiz-adv-x="1215" 
d="M621 -22q-171 0 -299 69.5t-198.5 196.5t-70.5 296q0 167 70.5 294t196 198t292.5 71q124 0 225.5 -39.5t175.5 -113t113.5 -175.5t39.5 -228v-100h-992v222h808l-186 -42q0 62 -20.5 104.5t-59.5 65t-96 22.5t-96 -22.5t-59.5 -65t-20.5 -104.5v-169q0 -65 23 -110
t65.5 -67.5t100.5 -22.5q42 0 76 11t58 32t36 50l354 -23q-23 -104 -97 -183t-186 -123t-253 -44zM609 1173q-89 0 -148 54t-59 135t59 134.5t147 53.5q89 0 148 -53.5t59 -134.5t-59 -135t-147 -54z" />
    <glyph glyph-name="Eogonek" unicode="&#x118;" horiz-adv-x="1277" 
d="M87 0v1490h1119v-340h-708v-237h651v-330h-651v-243h706v-340h-1117zM1013 -422q-150 0 -232.5 58.5t-82.5 162.5q0 67 33 124.5t85 103.5l388 -27q-83 -34 -114.5 -66.5t-31.5 -71.5q0 -32 18 -48t53 -16q16 0 30.5 2.5t29.5 6.5l31 -206q-40 -11 -99.5 -17t-107.5 -6z
" />
    <glyph glyph-name="eogonek" unicode="&#x119;" horiz-adv-x="1215" 
d="M621 -22q-171 0 -299 69.5t-198.5 196.5t-70.5 296q0 167 70.5 294t196 198t292.5 71q124 0 225.5 -39.5t175.5 -113t113.5 -175.5t39.5 -228v-100h-992v222h808l-186 -42q0 62 -20.5 104.5t-59.5 65t-96 22.5t-96 -22.5t-59.5 -65t-20.5 -104.5v-169q0 -65 23 -110
t65.5 -67.5t100.5 -22.5q42 0 76 11t58 32t36 50l354 -23q-23 -104 -97 -183t-186 -123t-253 -44zM926 -422q-149 0 -232 58.5t-83 162.5q0 33 8 61.5t23.5 54.5t36.5 52t46 54l432 307q-15 -76 -46 -145t-64.5 -128.5t-56.5 -108t-23 -84.5q0 -32 18 -48t53 -16q16 0 30 2
t30 7l30 -206q-39 -11 -96 -17t-106 -6z" />
    <glyph glyph-name="Ecaron" unicode="&#x11a;" horiz-adv-x="1277" 
d="M87 0v1490h1119v-340h-708v-237h651v-330h-651v-243h706v-340h-1117zM516 1946l128 -162l133 162h306v-3l-294 -323h-289l-290 323v3h306z" />
    <glyph glyph-name="ecaron" unicode="&#x11b;" horiz-adv-x="1215" 
d="M621 -22q-171 0 -299 69.5t-198.5 196.5t-70.5 296q0 167 70.5 294t196 198t292.5 71q124 0 225.5 -39.5t175.5 -113t113.5 -175.5t39.5 -228v-100h-992v222h808l-186 -42q0 62 -20.5 104.5t-59.5 65t-96 22.5t-96 -22.5t-59.5 -65t-20.5 -104.5v-169q0 -65 23 -110
t65.5 -67.5t100.5 -22.5q42 0 76 11t58 32t36 50l354 -23q-23 -104 -97 -183t-186 -123t-253 -44zM479 1540l128 -162l133 162h306v-3l-294 -323h-289l-290 323v3h306z" />
    <glyph glyph-name="Gcircumflex" unicode="&#x11c;" horiz-adv-x="1529" 
d="M784 -22q-219 0 -383.5 93t-256 265t-91.5 407q0 248 97.5 419.5t262 260.5t366.5 89q134 0 251.5 -37.5t208 -108t145.5 -167t66 -213.5h-417q-8 40 -27.5 71.5t-50 53.5t-71.5 33.5t-92 11.5q-103 0 -175 -48t-108.5 -139.5t-36.5 -222.5q0 -132 36.5 -224t108 -140
t178.5 -48q89 0 149.5 26.5t91 74.5t30.5 112l78 -8h-348v293h668v-211q0 -198 -86 -342.5t-239 -222.5t-355 -78zM639 1620h-306v4l290 322h289l294 -322v-4h-306l-133 163z" />
    <glyph glyph-name="gcircumflex" unicode="&#x11d;" horiz-adv-x="1300" 
d="M634 -436q-166 0 -279.5 43.5t-176.5 120t-80 175.5l367 23q6 -27 28.5 -47.5t57.5 -31.5t82 -11q90 0 134 45t44 138v175h-14q-22 -60 -64.5 -100t-100.5 -59.5t-130 -19.5q-130 0 -231 62.5t-159.5 182t-58.5 289.5q0 177 60.5 300.5t161.5 188.5t224 65
q75 0 133.5 -23.5t102 -65.5t70.5 -96h4v166h398v-1023q0 -168 -69 -278.5t-197.5 -164.5t-306.5 -54zM634 312q55 0 96 29t64 83.5t23 129.5t-23 129.5t-64 84t-96 29.5t-93.5 -29.5t-58.5 -84t-20 -129.5t20 -129.5t58.5 -83.5t93.5 -29zM503 1214h-306v4l290 322h289
l294 -322v-4h-306l-133 163z" />
    <glyph glyph-name="Gbreve" unicode="&#x11e;" horiz-adv-x="1529" 
d="M784 -22q-219 0 -383.5 93t-256 265t-91.5 407q0 248 97.5 419.5t262 260.5t366.5 89q134 0 251.5 -37.5t208 -108t145.5 -167t66 -213.5h-417q-8 40 -27.5 71.5t-50 53.5t-71.5 33.5t-92 11.5q-103 0 -175 -48t-108.5 -139.5t-36.5 -222.5q0 -132 36.5 -224t108 -140
t178.5 -48q89 0 149.5 26.5t91 74.5t30.5 112l78 -8h-348v293h668v-211q0 -198 -86 -342.5t-239 -222.5t-355 -78zM769 1604q-112 0 -200.5 44.5t-140 120.5t-51.5 169h216q0 -60 50 -100.5t126 -40.5q75 0 124.5 40.5t49.5 100.5h218q0 -93 -51.5 -169t-140 -120.5
t-200.5 -44.5z" />
    <glyph glyph-name="gbreve" unicode="&#x11f;" horiz-adv-x="1300" 
d="M634 -436q-166 0 -279.5 43.5t-176.5 120t-80 175.5l367 23q6 -27 28.5 -47.5t57.5 -31.5t82 -11q90 0 134 45t44 138v175h-14q-22 -60 -64.5 -100t-100.5 -59.5t-130 -19.5q-130 0 -231 62.5t-159.5 182t-58.5 289.5q0 177 60.5 300.5t161.5 188.5t224 65
q75 0 133.5 -23.5t102 -65.5t70.5 -96h4v166h398v-1023q0 -168 -69 -278.5t-197.5 -164.5t-306.5 -54zM634 312q55 0 96 29t64 83.5t23 129.5t-23 129.5t-64 84t-96 29.5t-93.5 -29.5t-58.5 -84t-20 -129.5t20 -129.5t58.5 -83.5t93.5 -29zM634 1198q-112 0 -200.5 44.5
t-140 120.5t-51.5 169h216q0 -60 50 -100.5t126 -40.5q75 0 124.5 40.5t49.5 100.5h218q0 -93 -51.5 -169t-140 -120.5t-200.5 -44.5z" />
    <glyph glyph-name="Gdotaccent" unicode="&#x120;" horiz-adv-x="1529" 
d="M784 -22q-219 0 -383.5 93t-256 265t-91.5 407q0 248 97.5 419.5t262 260.5t366.5 89q134 0 251.5 -37.5t208 -108t145.5 -167t66 -213.5h-417q-8 40 -27.5 71.5t-50 53.5t-71.5 33.5t-92 11.5q-103 0 -175 -48t-108.5 -139.5t-36.5 -222.5q0 -132 36.5 -224t108 -140
t178.5 -48q89 0 149.5 26.5t91 74.5t30.5 112l78 -8h-348v293h668v-211q0 -198 -86 -342.5t-239 -222.5t-355 -78zM769 1579q-89 0 -148 54t-59 135t59 134.5t147 53.5q89 0 148 -53.5t59 -134.5t-59 -135t-147 -54z" />
    <glyph glyph-name="gdotaccent" unicode="&#x121;" horiz-adv-x="1300" 
d="M634 -436q-166 0 -279.5 43.5t-176.5 120t-80 175.5l367 23q6 -27 28.5 -47.5t57.5 -31.5t82 -11q90 0 134 45t44 138v175h-14q-22 -60 -64.5 -100t-100.5 -59.5t-130 -19.5q-130 0 -231 62.5t-159.5 182t-58.5 289.5q0 177 60.5 300.5t161.5 188.5t224 65
q75 0 133.5 -23.5t102 -65.5t70.5 -96h4v166h398v-1023q0 -168 -69 -278.5t-197.5 -164.5t-306.5 -54zM634 312q55 0 96 29t64 83.5t23 129.5t-23 129.5t-64 84t-96 29.5t-93.5 -29.5t-58.5 -84t-20 -129.5t20 -129.5t58.5 -83.5t93.5 -29zM634 1173q-89 0 -148 54t-59 135
t59 134.5t147 53.5q89 0 148 -53.5t59 -134.5t-59 -135t-147 -54z" />
    <glyph glyph-name="uni0122" unicode="&#x122;" horiz-adv-x="1529" 
d="M784 -22q-219 0 -383.5 93t-256 265t-91.5 407q0 248 97.5 419.5t262 260.5t366.5 89q134 0 251.5 -37.5t208 -108t145.5 -167t66 -213.5h-417q-8 40 -27.5 71.5t-50 53.5t-71.5 33.5t-92 11.5q-103 0 -175 -48t-108.5 -139.5t-36.5 -222.5q0 -132 36.5 -224t108 -140
t178.5 -48q89 0 149.5 26.5t91 74.5t30.5 112l78 -8h-348v293h668v-211q0 -198 -86 -342.5t-239 -222.5t-355 -78zM493 -466l96 348h360l-184 -348h-272z" />
    <glyph glyph-name="uni0123" unicode="&#x123;" horiz-adv-x="1300" 
d="M634 -436q-166 0 -279.5 43.5t-176.5 120t-80 175.5l367 23q6 -27 28.5 -47.5t57.5 -31.5t82 -11q90 0 134 45t44 138v175h-14q-22 -60 -64.5 -100t-100.5 -59.5t-130 -19.5q-130 0 -231 62.5t-159.5 182t-58.5 289.5q0 177 60.5 300.5t161.5 188.5t224 65
q75 0 133.5 -23.5t102 -65.5t70.5 -96h4v166h398v-1023q0 -168 -69 -278.5t-197.5 -164.5t-306.5 -54zM634 312q55 0 96 29t64 83.5t23 129.5t-23 129.5t-64 84t-96 29.5t-93.5 -29.5t-58.5 -84t-20 -129.5t20 -129.5t58.5 -83.5t93.5 -29zM504 1194v146q0 86 17 151.5
t50 112t81 74.5l184 -70q-20 -31 -49 -107.5t-29 -174.5v-132h-254z" />
    <glyph glyph-name="Hcircumflex" unicode="&#x124;" horiz-adv-x="1509" 
d="M87 0v1490h411v-561h514v561h410v-1490h-410v589h-514v-589h-411zM624 1620h-306v4l290 322h289l294 -322v-4h-306l-133 163z" />
    <glyph glyph-name="hcircumflex" unicode="&#x125;" 
d="M494 590v-590h-401v1490h397v-695h-41q45 133 134.5 220.5t246.5 87.5q119 0 201.5 -52t126 -146t43.5 -219v-686h-401v599q0 81 -39.5 126t-112.5 45q-48 0 -82.5 -20.5t-53 -60.5t-18.5 -99zM159 1620h-306v4l290 322h289l294 -322v-4h-306l-133 163z" />
    <glyph glyph-name="Hbar" unicode="&#x126;" horiz-adv-x="1688" 
d="M1641 1268v-192h-1594v192h1594zM171 0v1490h411v-561h514v561h410v-1490h-410v589h-514v-589h-411z" />
    <glyph glyph-name="hbar" unicode="&#x127;" 
d="M494 590v-590h-401v1490h397v-695h-41q45 133 134.5 220.5t246.5 87.5q119 0 201.5 -52t126 -146t43.5 -219v-686h-401v599q0 81 -39.5 126t-112.5 45q-48 0 -82.5 -20.5t-53 -60.5t-18.5 -99zM-39 1173v216h827v-216h-827z" />
    <glyph glyph-name="Itilde" unicode="&#x128;" horiz-adv-x="585" 
d="M498 1490v-1490h-411v1490h411zM441 1622q-57 0 -96.5 18t-68 42t-53 42t-52.5 18q-35 0 -54.5 -28.5t-21.5 -83.5h-198q3 158 74 235t174 77q56 0 96 -17.5t69.5 -40.5t54 -40.5t50.5 -17.5q42 0 59.5 29t18.5 81h196q-2 -154 -74 -234t-174 -80z" />
    <glyph glyph-name="itilde" unicode="&#x129;" horiz-adv-x="587" 
d="M93 0v1084h401v-1084h-401zM441 1216q-57 0 -96.5 18t-68 42t-53 42t-52.5 18q-35 0 -54.5 -28.5t-21.5 -83.5h-198q3 158 74 235t174 77q56 0 96 -17.5t69.5 -40.5t54 -40.5t50.5 -17.5q42 0 59.5 29t18.5 81h196q-2 -154 -74 -234t-174 -80z" />
    <glyph glyph-name="Imacron" unicode="&#x12a;" horiz-adv-x="585" 
d="M498 1490v-1490h-411v1490h411zM593 1885v-232h-600v232h600z" />
    <glyph glyph-name="imacron" unicode="&#x12b;" horiz-adv-x="587" 
d="M93 0v1084h401v-1084h-401zM593 1479v-232h-600v232h600z" />
    <glyph glyph-name="Ibreve" unicode="&#x12c;" horiz-adv-x="585" 
d="M498 1490v-1490h-411v1490h411zM293 1604q-112 0 -200.5 44.5t-140 120.5t-51.5 169h216q0 -60 50 -100.5t126 -40.5q75 0 124.5 40.5t49.5 100.5h218q0 -93 -51.5 -169t-140 -120.5t-200.5 -44.5z" />
    <glyph glyph-name="ibreve" unicode="&#x12d;" horiz-adv-x="587" 
d="M93 0v1084h401v-1084h-401zM293 1198q-112 0 -200.5 44.5t-140 120.5t-51.5 169h216q0 -60 50 -100.5t126 -40.5q75 0 124.5 40.5t49.5 100.5h218q0 -93 -51.5 -169t-140 -120.5t-200.5 -44.5z" />
    <glyph glyph-name="Iogonek" unicode="&#x12e;" horiz-adv-x="585" 
d="M498 1490v-1490h-411v1490h411zM307 -422q-150 0 -232.5 58.5t-82.5 162.5q0 67 33 124.5t85 103.5l388 -27q-83 -34 -114.5 -66.5t-31.5 -71.5q0 -32 18 -48t53 -16q16 0 30.5 2.5t29.5 6.5l31 -206q-40 -11 -99.5 -17t-107.5 -6z" />
    <glyph glyph-name="iogonek" unicode="&#x12f;" horiz-adv-x="587" 
d="M93 0v1084h401v-1084h-401zM303 -422q-150 0 -232.5 58.5t-82.5 162.5q0 67 33 124.5t85 103.5l388 -27q-83 -34 -114.5 -66.5t-31.5 -71.5q0 -32 18 -48t53 -16q16 0 30.5 2.5t29.5 6.5l31 -206q-40 -11 -99.5 -17t-107.5 -6zM293 1173q-89 0 -148 54t-59 135t59 134.5
t147 53.5q89 0 148 -53.5t59 -134.5t-59 -135t-147 -54z" />
    <glyph glyph-name="Idotaccent" unicode="&#x130;" horiz-adv-x="585" 
d="M498 1490v-1490h-411v1490h411zM293 1579q-89 0 -148 54t-59 135t59 134.5t147 53.5q89 0 148 -53.5t59 -134.5t-59 -135t-147 -54z" />
    <glyph glyph-name="dotlessi" unicode="&#x131;" horiz-adv-x="587" 
d="M93 0v1084h401v-1084h-401z" />
    <glyph glyph-name="IJ" unicode="&#x132;" horiz-adv-x="1793" 
d="M498 1490v-1490h-411v1490h411zM1164 -22q-258 0 -397 127.5t-139 364.5v107h393v-112q0 -77 36 -117t103 -40t102.5 40t35.5 118v1024h408v-1025q0 -235 -140.5 -361t-401.5 -126z" />
    <glyph glyph-name="ij" unicode="&#x133;" horiz-adv-x="1175" 
d="M93 0v1084h401v-1084h-401zM293 1173q-89 0 -148 54t-59 135t59 134.5t147 53.5q89 0 148 -53.5t59 -134.5t-59 -135t-147 -54zM681 1084h401v-1122q0 -136 -53 -219.5t-154 -122t-245 -38.5h-122v300h62q62 0 86.5 24.5t24.5 80.5v1097zM882 1173q-89 0 -148 54t-59 135
t59 134.5t147 53.5q89 0 148 -53.5t59 -134.5t-59 -135t-147 -54z" />
    <glyph glyph-name="Jcircumflex" unicode="&#x134;" horiz-adv-x="1208" 
d="M579 -22q-258 0 -397 127.5t-139 364.5v107h393v-112q0 -77 36 -117t103 -40t102.5 40t35.5 118v1024h408v-1025q0 -235 -140.5 -361t-401.5 -126zM786 1620h-306v4l290 322h289l294 -322v-4h-306l-133 163z" />
    <glyph glyph-name="jcircumflex" unicode="&#x135;" horiz-adv-x="588" 
d="M94 1084h401v-1122q0 -136 -53 -219.5t-154 -122t-245 -38.5h-122v300h62q62 0 86.5 24.5t24.5 80.5v1097zM164 1214h-306v4l290 322h289l294 -322v-4h-306l-133 163z" />
    <glyph glyph-name="uni0136" unicode="&#x136;" horiz-adv-x="1521" 
d="M394 234v433q46 78 91.5 147.5t96.5 140t114 152.5l296 383h480l-623 -767l-38 7zM87 0v1490h411v-320l-4 -429l4 -197v-544h-411zM1024 0l-359 599l252 305l583 -904h-476zM469 -466l96 348h360l-184 -348h-272z" />
    <glyph glyph-name="uni0137" unicode="&#x137;" horiz-adv-x="1220" 
d="M452 251v474h50l269 359h452l-450 -571h-113zM93 0v1490h401v-1490h-401zM779 0l-254 424l260 283l449 -707h-455zM347 -466l96 348h360l-184 -348h-272z" />
    <glyph glyph-name="kgreenlandic" unicode="&#x138;" horiz-adv-x="1282" 
d="M495 1084v-1084h-402v1084h402zM1297 1084l-478 -698h-386l-22 298h178l237 400h471zM807 0l-216 406l340 164l358 -570h-482z" />
    <glyph glyph-name="Lacute" unicode="&#x139;" horiz-adv-x="1169" 
d="M87 0v1490h411v-1150h624v-340h-1035zM145 1620l174 326h357l-267 -326h-264z" />
    <glyph glyph-name="lacute" unicode="&#x13a;" horiz-adv-x="587" 
d="M494 1490v-1490h-401v1490h401zM148 1620l174 326h357l-267 -326h-264z" />
    <glyph glyph-name="uni013B" unicode="&#x13b;" horiz-adv-x="1169" 
d="M87 0v1490h411v-1150h624v-340h-1035zM321 -466l96 348h360l-184 -348h-272z" />
    <glyph glyph-name="uni013C" unicode="&#x13c;" horiz-adv-x="587" 
d="M494 1490v-1490h-401v1490h401zM20 -466l96 348h360l-184 -348h-272z" />
    <glyph glyph-name="Lcaron" unicode="&#x13d;" horiz-adv-x="1169" 
d="M87 0v1490h411v-1150h624v-340h-1035zM697 1182v388h272l-54 -388h-218z" />
    <glyph glyph-name="lcaron" unicode="&#x13e;" horiz-adv-x="887" 
d="M494 1490v-1490h-401v1490h401zM610 1182v388h272l-54 -388h-218z" />
    <glyph glyph-name="Ldot" unicode="&#x13f;" horiz-adv-x="1192" 
d="M95 0v1490h411v-1150h624v-340h-1035zM776 693q-89 0 -148 54t-59 135t59 134.5t147 53.5q89 0 148 -53.5t59 -134.5t-59 -135t-147 -54z" />
    <glyph glyph-name="ldot" unicode="&#x140;" horiz-adv-x="1040" 
d="M494 1490v-1490h-401v1490h401zM794 539q-87 0 -147 59.5t-60 146.5q0 86 60 145.5t147 59.5t147 -59.5t60 -145.5q0 -87 -60 -146.5t-147 -59.5z" />
    <glyph glyph-name="Lslash" unicode="&#x141;" horiz-adv-x="1269" 
d="M187 0v1490h411v-1150h624v-340h-1035zM-12 310v327l936 540v-327z" />
    <glyph glyph-name="lslash" unicode="&#x142;" horiz-adv-x="587" 
d="M494 1490v-1490h-401v1490h401zM-33 429v288l652 376v-288z" />
    <glyph glyph-name="Nacute" unicode="&#x143;" horiz-adv-x="1540" 
d="M87 0v1490h431l360 -585q33 -55 71.5 -125t77.5 -152.5t76 -173.5l-44 -64q-5 81 -10 185.5t-8.5 204.5t-3.5 164v546h416v-1490h-431l-335 544q-42 69 -85.5 147t-89 170.5t-96.5 198.5l64 14q8 -105 13.5 -207.5t7.5 -186.5t2 -136v-544h-416zM626 1620l174 326h357
l-267 -326h-264z" />
    <glyph glyph-name="nacute" unicode="&#x144;" 
d="M494 590v-590h-401v1084h387l4 -289h-35q45 133 134.5 220.5t246.5 87.5q119 0 201.5 -52t126 -146t43.5 -219v-686h-401v599q0 81 -39.5 126t-112.5 45q-48 0 -82.5 -20.5t-53 -60.5t-18.5 -99zM501 1214l174 326h357l-267 -326h-264z" />
    <glyph glyph-name="uni0145" unicode="&#x145;" horiz-adv-x="1540" 
d="M87 0v1490h431l360 -585q33 -55 71.5 -125t77.5 -152.5t76 -173.5l-44 -64q-5 81 -10 185.5t-8.5 204.5t-3.5 164v546h416v-1490h-431l-335 544q-42 69 -85.5 147t-89 170.5t-96.5 198.5l64 14q8 -105 13.5 -207.5t7.5 -186.5t2 -136v-544h-416zM499 -466l96 348h360
l-184 -348h-272z" />
    <glyph glyph-name="uni0146" unicode="&#x146;" 
d="M494 590v-590h-401v1084h387l4 -289h-35q45 133 134.5 220.5t246.5 87.5q119 0 201.5 -52t126 -146t43.5 -219v-686h-401v599q0 81 -39.5 126t-112.5 45q-48 0 -82.5 -20.5t-53 -60.5t-18.5 -99zM374 -466l96 348h360l-184 -348h-272z" />
    <glyph glyph-name="Ncaron" unicode="&#x147;" horiz-adv-x="1540" 
d="M87 0v1490h431l360 -585q33 -55 71.5 -125t77.5 -152.5t76 -173.5l-44 -64q-5 81 -10 185.5t-8.5 204.5t-3.5 164v546h416v-1490h-431l-335 544q-42 69 -85.5 147t-89 170.5t-96.5 198.5l64 14q8 -105 13.5 -207.5t7.5 -186.5t2 -136v-544h-416zM641 1946l128 -162
l133 162h306v-3l-294 -323h-289l-290 323v3h306z" />
    <glyph glyph-name="ncaron" unicode="&#x148;" 
d="M494 590v-590h-401v1084h387l4 -289h-35q45 133 134.5 220.5t246.5 87.5q119 0 201.5 -52t126 -146t43.5 -219v-686h-401v599q0 81 -39.5 126t-112.5 45q-48 0 -82.5 -20.5t-53 -60.5t-18.5 -99zM516 1540l128 -162l133 162h306v-3l-294 -323h-289l-290 323v3h306z" />
    <glyph glyph-name="Eng" unicode="&#x14a;" horiz-adv-x="1540" 
d="M824 -418v310q23 -2 55.5 -3t70.5 -1q50 0 71.5 19.5t21.5 61.5v150h410v-173q0 -187 -105 -280.5t-316 -93.5q-63 0 -117 2.5t-91 7.5zM87 0v1490h431l360 -585q33 -55 71.5 -125t77.5 -152.5t76 -173.5l-44 -64q-5 81 -10 185.5t-8.5 204.5t-3.5 164v546h416v-1490
h-431l-335 544q-42 69 -85.5 147t-89 170.5t-96.5 198.5l64 14q8 -105 13.5 -207.5t7.5 -186.5t2 -136v-544h-416z" />
    <glyph glyph-name="eng" unicode="&#x14b;" 
d="M603 -418v307q30 -2 51 -3t53 -1q50 0 71.5 20t21.5 64v31h401v-54q0 -187 -101 -280.5t-312 -93.5q-62 0 -104.5 2.5t-80.5 7.5zM494 590v-590h-401v1084h387l4 -289h-35q45 133 134.5 220.5t246.5 87.5q119 0 201.5 -52t126 -146t43.5 -219v-686h-401v599
q0 81 -39.5 126t-112.5 45q-48 0 -82.5 -20.5t-53 -60.5t-18.5 -99z" />
    <glyph glyph-name="Omacron" unicode="&#x14c;" horiz-adv-x="1555" 
d="M777 -22q-203 0 -367.5 88.5t-260.5 259.5t-96 418q0 249 96 420.5t260.5 259.5t367.5 88t367 -88t260.5 -259.5t96.5 -420.5q0 -248 -96.5 -419t-260.5 -259t-367 -88zM777 334q100 0 168 48t103 140t35 222q0 131 -35 223.5t-103 140.5t-168 48q-98 0 -166 -48
t-103.5 -140.5t-35.5 -223.5q0 -130 35.5 -222t103.5 -140t166 -48zM1077 1885v-232h-600v232h600z" />
    <glyph glyph-name="omacron" unicode="&#x14d;" horiz-adv-x="1260" 
d="M630 -22q-175 0 -305 69.5t-201 196t-71 296.5q0 171 71 297t201 196t305 70q177 0 306 -70t200 -196t71 -297q0 -170 -71 -296.5t-200 -196t-306 -69.5zM630 284q50 0 88.5 30t60 87.5t21.5 139.5q0 84 -21.5 140.5t-60 85.5t-88.5 29q-49 0 -88 -29t-60.5 -85.5
t-21.5 -140.5q0 -82 21.5 -139.5t60.5 -87.5t88 -30zM930 1479v-232h-600v232h600z" />
    <glyph glyph-name="Obreve" unicode="&#x14e;" horiz-adv-x="1555" 
d="M777 -22q-203 0 -367.5 88.5t-260.5 259.5t-96 418q0 249 96 420.5t260.5 259.5t367.5 88t367 -88t260.5 -259.5t96.5 -420.5q0 -248 -96.5 -419t-260.5 -259t-367 -88zM777 334q100 0 168 48t103 140t35 222q0 131 -35 223.5t-103 140.5t-168 48q-98 0 -166 -48
t-103.5 -140.5t-35.5 -223.5q0 -130 35.5 -222t103.5 -140t166 -48zM777 1604q-112 0 -200.5 44.5t-140 120.5t-51.5 169h216q0 -60 50 -100.5t126 -40.5q75 0 124.5 40.5t49.5 100.5h218q0 -93 -51.5 -169t-140 -120.5t-200.5 -44.5z" />
    <glyph glyph-name="obreve" unicode="&#x14f;" horiz-adv-x="1260" 
d="M630 -22q-175 0 -305 69.5t-201 196t-71 296.5q0 171 71 297t201 196t305 70q177 0 306 -70t200 -196t71 -297q0 -170 -71 -296.5t-200 -196t-306 -69.5zM630 284q50 0 88.5 30t60 87.5t21.5 139.5q0 84 -21.5 140.5t-60 85.5t-88.5 29q-49 0 -88 -29t-60.5 -85.5
t-21.5 -140.5q0 -82 21.5 -139.5t60.5 -87.5t88 -30zM630 1198q-112 0 -200.5 44.5t-140 120.5t-51.5 169h216q0 -60 50 -100.5t126 -40.5q75 0 124.5 40.5t49.5 100.5h218q0 -93 -51.5 -169t-140 -120.5t-200.5 -44.5z" />
    <glyph glyph-name="Ohungarumlaut" unicode="&#x150;" horiz-adv-x="1555" 
d="M777 -22q-203 0 -367.5 88.5t-260.5 259.5t-96 418q0 249 96 420.5t260.5 259.5t367.5 88t367 -88t260.5 -259.5t96.5 -420.5q0 -248 -96.5 -419t-260.5 -259t-367 -88zM777 334q100 0 168 48t103 140t35 222q0 131 -35 223.5t-103 140.5t-168 48q-98 0 -166 -48
t-103.5 -140.5t-35.5 -223.5q0 -130 35.5 -222t103.5 -140t166 -48zM652 1620h-264l125 326h326zM1035 1620h-272l197 326h360z" />
    <glyph glyph-name="ohungarumlaut" unicode="&#x151;" horiz-adv-x="1260" 
d="M630 -22q-175 0 -305 69.5t-201 196t-71 296.5q0 171 71 297t201 196t305 70q177 0 306 -70t200 -196t71 -297q0 -170 -71 -296.5t-200 -196t-306 -69.5zM630 284q50 0 88.5 30t60 87.5t21.5 139.5q0 84 -21.5 140.5t-60 85.5t-88.5 29q-49 0 -88 -29t-60.5 -85.5
t-21.5 -140.5q0 -82 21.5 -139.5t60.5 -87.5t88 -30zM504 1214h-264l125 326h326zM887 1214h-272l197 326h360z" />
    <glyph glyph-name="OE" unicode="&#x152;" horiz-adv-x="2144" 
d="M801 0q-228 0 -396 90.5t-260 257.5t-92 396q0 230 93 397t262.5 258t398.5 91h394v-344h-370q-121 0 -202 -40t-121.5 -128.5t-40.5 -233.5q0 -144 39.5 -232.5t118 -128t194.5 -39.5h376v-344h-394zM955 0v1490h1118v-340h-708v-237h652v-330h-652v-243h706v-340h-1116
z" />
    <glyph glyph-name="oe" unicode="&#x153;" horiz-adv-x="1976" 
d="M630 -22q-175 0 -305 69.5t-201 196t-71 296.5q0 171 71 297t201 196t305 70q177 0 306 -70t200 -196t71 -297q0 -170 -71 -296.5t-200 -196t-306 -69.5zM630 284q50 0 88.5 30t60 87.5t21.5 139.5q0 84 -21.5 140.5t-60 85.5t-88.5 29q-49 0 -88 -29t-60.5 -85.5
t-21.5 -140.5q0 -82 21.5 -139.5t60.5 -87.5t88 -30zM1381 -22q-171 0 -299 69.5t-198.5 196.5t-70.5 296q0 167 70.5 294t196 198t292.5 71q124 0 225.5 -39.5t175.5 -113t113.5 -175.5t39.5 -228v-100h-992v222h808l-186 -42q0 62 -20.5 104.5t-59.5 65t-96 22.5
t-96 -22.5t-59.5 -65t-20.5 -104.5v-169q0 -65 23 -110t65.5 -67.5t100.5 -22.5q42 0 76 11t58 32t36 50l354 -23q-23 -104 -97 -183t-186 -123t-253 -44z" />
    <glyph glyph-name="Racute" unicode="&#x154;" horiz-adv-x="1365" 
d="M87 0v1490h637q173 0 300.5 -62t197.5 -177.5t70 -274.5q0 -157 -72.5 -268.5t-204 -170.5t-309.5 -59h-368v318h326q67 0 115 21t74 61t26 98q0 59 -26 99.5t-74 61.5t-115 21h-166v-1158h-411zM904 0l-342 680h427l351 -680h-436zM532 1620l174 326h357l-267 -326h-264
z" />
    <glyph glyph-name="racute" unicode="&#x155;" horiz-adv-x="868" 
d="M93 0v1084h389v-202h6q30 112 93.5 160t163.5 48q28 0 52.5 -2t48.5 -5v-330q-25 5 -68.5 7t-78.5 2q-61 0 -107.5 -27.5t-72 -77t-25.5 -117.5v-540h-401zM328 1214l174 326h357l-267 -326h-264z" />
    <glyph glyph-name="uni0156" unicode="&#x156;" horiz-adv-x="1365" 
d="M87 0v1490h637q173 0 300.5 -62t197.5 -177.5t70 -274.5q0 -157 -72.5 -268.5t-204 -170.5t-309.5 -59h-368v318h326q67 0 115 21t74 61t26 98q0 59 -26 99.5t-74 61.5t-115 21h-166v-1158h-411zM904 0l-342 680h427l351 -680h-436zM420 -466l96 348h360l-184 -348h-272z
" />
    <glyph glyph-name="uni0157" unicode="&#x157;" horiz-adv-x="868" 
d="M93 0v1084h389v-202h6q30 112 93.5 160t163.5 48q28 0 52.5 -2t48.5 -5v-330q-25 5 -68.5 7t-78.5 2q-61 0 -107.5 -27.5t-72 -77t-25.5 -117.5v-540h-401zM23 -466l96 348h360l-184 -348h-272z" />
    <glyph glyph-name="Rcaron" unicode="&#x158;" horiz-adv-x="1365" 
d="M87 0v1490h637q173 0 300.5 -62t197.5 -177.5t70 -274.5q0 -157 -72.5 -268.5t-204 -170.5t-309.5 -59h-368v318h326q67 0 115 21t74 61t26 98q0 59 -26 99.5t-74 61.5t-115 21h-166v-1158h-411zM904 0l-342 680h427l351 -680h-436zM547 1946l128 -162l133 162h306v-3
l-294 -323h-289l-290 323v3h306z" />
    <glyph glyph-name="rcaron" unicode="&#x159;" horiz-adv-x="868" 
d="M93 0v1084h389v-202h6q30 112 93.5 160t163.5 48q28 0 52.5 -2t48.5 -5v-330q-25 5 -68.5 7t-78.5 2q-61 0 -107.5 -27.5t-72 -77t-25.5 -117.5v-540h-401zM343 1540l128 -162l133 162h306v-3l-294 -323h-289l-290 323v3h306z" />
    <glyph glyph-name="Sacute" unicode="&#x15a;" horiz-adv-x="1386" 
d="M703 -21q-201 0 -344.5 58.5t-220 177t-77.5 293.5h389q4 -63 35 -108t86.5 -68.5t131.5 -23.5q66 0 112.5 16.5t72 45.5t25.5 67q0 35 -24 61.5t-76 47t-135 36.5l-149 30q-208 42 -321.5 148.5t-113.5 276.5q0 142 77 249t213 166.5t316 59.5q183 0 316 -59.5t206 -170
t76 -261.5h-384q-7 75 -61 118t-149 43q-60 0 -102.5 -15.5t-65 -43t-22.5 -62.5q0 -36 21.5 -61.5t69 -44.5t121.5 -34l121 -23q125 -25 216 -65t149 -95t85 -125.5t27 -158.5q0 -152 -73.5 -258t-212.5 -161.5t-335 -55.5zM548 1620l174 326h357l-267 -326h-264z" />
    <glyph glyph-name="sacute" unicode="&#x15b;" horiz-adv-x="1171" 
d="M592 -24q-155 0 -273.5 45t-189.5 127t-86 193l384 24q13 -56 54.5 -88t114.5 -32q59 0 92 18t33 51q0 28 -30 46t-93 29l-198 34q-164 28 -248 109t-84 211q0 113 61 193t174.5 122.5t272.5 42.5q155 0 268 -42t178 -120.5t74 -187.5l-360 -22q-6 50 -47.5 78.5
t-99.5 28.5q-56 0 -89 -19t-33 -51q0 -25 23.5 -44.5t77.5 -28.5l227 -39q169 -29 251 -100.5t82 -192.5q0 -116 -68 -202.5t-189 -134.5t-279 -48zM440 1214l174 326h357l-267 -326h-264z" />
    <glyph glyph-name="Scircumflex" unicode="&#x15c;" horiz-adv-x="1386" 
d="M703 -21q-201 0 -344.5 58.5t-220 177t-77.5 293.5h389q4 -63 35 -108t86.5 -68.5t131.5 -23.5q66 0 112.5 16.5t72 45.5t25.5 67q0 35 -24 61.5t-76 47t-135 36.5l-149 30q-208 42 -321.5 148.5t-113.5 276.5q0 142 77 249t213 166.5t316 59.5q183 0 316 -59.5t206 -170
t76 -261.5h-384q-7 75 -61 118t-149 43q-60 0 -102.5 -15.5t-65 -43t-22.5 -62.5q0 -36 21.5 -61.5t69 -44.5t121.5 -34l121 -23q125 -25 216 -65t149 -95t85 -125.5t27 -158.5q0 -152 -73.5 -258t-212.5 -161.5t-335 -55.5zM563 1620h-306v4l290 322h289l294 -322v-4h-306
l-133 163z" />
    <glyph glyph-name="scircumflex" unicode="&#x15d;" horiz-adv-x="1171" 
d="M592 -24q-155 0 -273.5 45t-189.5 127t-86 193l384 24q13 -56 54.5 -88t114.5 -32q59 0 92 18t33 51q0 28 -30 46t-93 29l-198 34q-164 28 -248 109t-84 211q0 113 61 193t174.5 122.5t272.5 42.5q155 0 268 -42t178 -120.5t74 -187.5l-360 -22q-6 50 -47.5 78.5
t-99.5 28.5q-56 0 -89 -19t-33 -51q0 -25 23.5 -44.5t77.5 -28.5l227 -39q169 -29 251 -100.5t82 -192.5q0 -116 -68 -202.5t-189 -134.5t-279 -48zM455 1214h-306v4l290 322h289l294 -322v-4h-306l-133 163z" />
    <glyph glyph-name="Scedilla" unicode="&#x15e;" horiz-adv-x="1386" 
d="M703 -21q-201 0 -344.5 58.5t-220 177t-77.5 293.5h389q4 -63 35 -108t86.5 -68.5t131.5 -23.5q66 0 112.5 16.5t72 45.5t25.5 67q0 35 -24 61.5t-76 47t-135 36.5l-149 30q-208 42 -321.5 148.5t-113.5 276.5q0 142 77 249t213 166.5t316 59.5q183 0 316 -59.5t206 -170
t76 -261.5h-384q-7 75 -61 118t-149 43q-60 0 -102.5 -15.5t-65 -43t-22.5 -62.5q0 -36 21.5 -61.5t69 -44.5t121.5 -34l121 -23q125 -25 216 -65t149 -95t85 -125.5t27 -158.5q0 -152 -73.5 -258t-212.5 -161.5t-335 -55.5zM552 -418v135h126q41 0 60.5 14t19.5 42
t-19.5 41.5t-60.5 13.5h-91l42 212h135v-40l-5 -81q92 5 144.5 -40.5t52.5 -120.5q0 -89 -61.5 -132.5t-184.5 -43.5h-158z" />
    <glyph glyph-name="scedilla" unicode="&#x15f;" horiz-adv-x="1171" 
d="M592 -24q-155 0 -273.5 45t-189.5 127t-86 193l384 24q13 -56 54.5 -88t114.5 -32q59 0 92 18t33 51q0 28 -30 46t-93 29l-198 34q-164 28 -248 109t-84 211q0 113 61 193t174.5 122.5t272.5 42.5q155 0 268 -42t178 -120.5t74 -187.5l-360 -22q-6 50 -47.5 78.5
t-99.5 28.5q-56 0 -89 -19t-33 -51q0 -25 23.5 -44.5t77.5 -28.5l227 -39q169 -29 251 -100.5t82 -192.5q0 -116 -68 -202.5t-189 -134.5t-279 -48zM446 -418v135h126q41 0 60.5 14t19.5 42t-19.5 41.5t-60.5 13.5h-91l42 212h135v-40l-5 -81q92 5 144.5 -40.5t52.5 -120.5
q0 -89 -61.5 -132.5t-184.5 -43.5h-158z" />
    <glyph glyph-name="Scaron" unicode="&#x160;" horiz-adv-x="1386" 
d="M703 -21q-201 0 -344.5 58.5t-220 177t-77.5 293.5h389q4 -63 35 -108t86.5 -68.5t131.5 -23.5q66 0 112.5 16.5t72 45.5t25.5 67q0 35 -24 61.5t-76 47t-135 36.5l-149 30q-208 42 -321.5 148.5t-113.5 276.5q0 142 77 249t213 166.5t316 59.5q183 0 316 -59.5t206 -170
t76 -261.5h-384q-7 75 -61 118t-149 43q-60 0 -102.5 -15.5t-65 -43t-22.5 -62.5q0 -36 21.5 -61.5t69 -44.5t121.5 -34l121 -23q125 -25 216 -65t149 -95t85 -125.5t27 -158.5q0 -152 -73.5 -258t-212.5 -161.5t-335 -55.5zM563 1946l128 -162l133 162h306v-3l-294 -323
h-289l-290 323v3h306z" />
    <glyph glyph-name="scaron" unicode="&#x161;" horiz-adv-x="1171" 
d="M592 -24q-155 0 -273.5 45t-189.5 127t-86 193l384 24q13 -56 54.5 -88t114.5 -32q59 0 92 18t33 51q0 28 -30 46t-93 29l-198 34q-164 28 -248 109t-84 211q0 113 61 193t174.5 122.5t272.5 42.5q155 0 268 -42t178 -120.5t74 -187.5l-360 -22q-6 50 -47.5 78.5
t-99.5 28.5q-56 0 -89 -19t-33 -51q0 -25 23.5 -44.5t77.5 -28.5l227 -39q169 -29 251 -100.5t82 -192.5q0 -116 -68 -202.5t-189 -134.5t-279 -48zM455 1540l128 -162l133 162h306v-3l-294 -323h-289l-290 323v3h306z" />
    <glyph glyph-name="uni021A" unicode="&#x162;" horiz-adv-x="1372" 
d="M47 1150v340h1277v-340h-433v-1150h-411v1150h-433zM544 -418v135h126q41 0 60.5 14t19.5 42t-19.5 41.5t-60.5 13.5h-91l42 212h135v-40l-5 -81q92 5 144.5 -40.5t52.5 -120.5q0 -89 -61.5 -132.5t-184.5 -43.5h-158z" />
    <glyph glyph-name="uni0163" unicode="&#x163;" horiz-adv-x="839" 
d="M789 1084v-299h-769v299h769zM182 1362h401v-988q0 -42 18 -59.5t67 -17.5q23 0 61.5 2t51.5 4l22 -296q-46 -9 -108 -12t-123 -3q-200 0 -295 80.5t-95 246.5v1043zM377 -418v135h126q41 0 60.5 14t19.5 42t-19.5 41.5t-60.5 13.5h-91l42 212h135v-40l-5 -81
q92 5 144.5 -40.5t52.5 -120.5q0 -89 -61.5 -132.5t-184.5 -43.5h-158z" />
    <glyph glyph-name="Tcaron" unicode="&#x164;" horiz-adv-x="1372" 
d="M47 1150v340h1277v-340h-433v-1150h-411v1150h-433zM556 1946l128 -162l133 162h306v-3l-294 -323h-289l-290 323v3h306z" />
    <glyph glyph-name="tcaron" unicode="&#x165;" horiz-adv-x="1039" 
d="M789 1084v-299h-769v299h769zM182 1362h401v-988q0 -42 18 -59.5t67 -17.5q23 0 61.5 2t51.5 4l22 -296q-46 -9 -108 -12t-123 -3q-200 0 -295 80.5t-95 246.5v1043zM714 1214v388h272l-54 -388h-218z" />
    <glyph glyph-name="Tbar" unicode="&#x166;" horiz-adv-x="1372" 
d="M47 1150v340h1277v-340h-433v-1150h-411v1150h-433zM214 540v252h942v-252h-942z" />
    <glyph glyph-name="tbar" unicode="&#x167;" horiz-adv-x="839" 
d="M789 683v-218h-769v218h769zM789 1084v-299h-769v299h769zM182 1362h401v-988q0 -42 18 -59.5t67 -17.5q23 0 61.5 2t51.5 4l22 -296q-46 -9 -108 -12t-123 -3q-200 0 -295 80.5t-95 246.5v1043z" />
    <glyph glyph-name="Utilde" unicode="&#x168;" horiz-adv-x="1459" 
d="M729 -21q-193 0 -337.5 68t-224.5 192.5t-80 293.5v957h404v-923q0 -70 31 -123.5t84.5 -84t122.5 -30.5q70 0 124 30.5t84.5 84t30.5 123.5v923h404v-957q0 -169 -80 -293.5t-224.5 -192.5t-338.5 -68zM877 1622q-57 0 -96.5 18t-68 42t-53 42t-52.5 18
q-35 0 -54.5 -28.5t-21.5 -83.5h-198q3 158 74 235t174 77q56 0 96 -17.5t69.5 -40.5t54 -40.5t50.5 -17.5q42 0 59.5 29t18.5 81h196q-2 -154 -74 -234t-174 -80z" />
    <glyph glyph-name="utilde" unicode="&#x169;" 
d="M464 -20q-117 0 -200.5 52.5t-127 146t-43.5 218.5v687h401v-600q0 -80 40 -125.5t113 -45.5q48 0 82.5 20.5t52.5 61t18 98.5v591h401v-1084h-387l-3 289h34q-44 -133 -133.5 -221t-247.5 -88zM796 1216q-57 0 -96.5 18t-68 42t-53 42t-52.5 18q-35 0 -54.5 -28.5
t-21.5 -83.5h-198q3 158 74 235t174 77q56 0 96 -17.5t69.5 -40.5t54 -40.5t50.5 -17.5q42 0 59.5 29t18.5 81h196q-2 -154 -74 -234t-174 -80z" />
    <glyph glyph-name="Umacron" unicode="&#x16a;" horiz-adv-x="1459" 
d="M729 -21q-193 0 -337.5 68t-224.5 192.5t-80 293.5v957h404v-923q0 -70 31 -123.5t84.5 -84t122.5 -30.5q70 0 124 30.5t84.5 84t30.5 123.5v923h404v-957q0 -169 -80 -293.5t-224.5 -192.5t-338.5 -68zM1029 1885v-232h-600v232h600z" />
    <glyph glyph-name="umacron" unicode="&#x16b;" 
d="M464 -20q-117 0 -200.5 52.5t-127 146t-43.5 218.5v687h401v-600q0 -80 40 -125.5t113 -45.5q48 0 82.5 20.5t52.5 61t18 98.5v591h401v-1084h-387l-3 289h34q-44 -133 -133.5 -221t-247.5 -88zM947 1479v-232h-600v232h600z" />
    <glyph glyph-name="Ubreve" unicode="&#x16c;" horiz-adv-x="1459" 
d="M729 -21q-193 0 -337.5 68t-224.5 192.5t-80 293.5v957h404v-923q0 -70 31 -123.5t84.5 -84t122.5 -30.5q70 0 124 30.5t84.5 84t30.5 123.5v923h404v-957q0 -169 -80 -293.5t-224.5 -192.5t-338.5 -68zM729 1604q-112 0 -200.5 44.5t-140 120.5t-51.5 169h216
q0 -60 50 -100.5t126 -40.5q75 0 124.5 40.5t49.5 100.5h218q0 -93 -51.5 -169t-140 -120.5t-200.5 -44.5z" />
    <glyph glyph-name="ubreve" unicode="&#x16d;" 
d="M464 -20q-117 0 -200.5 52.5t-127 146t-43.5 218.5v687h401v-600q0 -80 40 -125.5t113 -45.5q48 0 82.5 20.5t52.5 61t18 98.5v591h401v-1084h-387l-3 289h34q-44 -133 -133.5 -221t-247.5 -88zM648 1198q-112 0 -200.5 44.5t-140 120.5t-51.5 169h216q0 -60 50 -100.5
t126 -40.5q75 0 124.5 40.5t49.5 100.5h218q0 -93 -51.5 -169t-140 -120.5t-200.5 -44.5z" />
    <glyph glyph-name="Uring" unicode="&#x16e;" horiz-adv-x="1459" 
d="M729 -21q-193 0 -337.5 68t-224.5 192.5t-80 293.5v957h404v-923q0 -70 31 -123.5t84.5 -84t122.5 -30.5q70 0 124 30.5t84.5 84t30.5 123.5v923h404v-957q0 -169 -80 -293.5t-224.5 -192.5t-338.5 -68zM729 1561q-81 0 -142.5 31t-95.5 85.5t-34 123.5q0 70 34 124.5
t95.5 85.5t142.5 31q82 0 143 -31t95 -85.5t34 -124.5q0 -69 -34 -123.5t-95 -85.5t-143 -31zM729 1703q46 0 74 27t28 71t-28 71t-74 27t-74 -27t-28 -70q0 -44 28 -71.5t74 -27.5z" />
    <glyph glyph-name="uring" unicode="&#x16f;" 
d="M464 -20q-117 0 -200.5 52.5t-127 146t-43.5 218.5v687h401v-600q0 -80 40 -125.5t113 -45.5q48 0 82.5 20.5t52.5 61t18 98.5v591h401v-1084h-387l-3 289h34q-44 -133 -133.5 -221t-247.5 -88zM648 1165q-77 0 -139 32.5t-97.5 89t-35.5 128.5t35.5 128.5t97.5 89
t139 32.5q78 0 139.5 -32.5t97 -89t35.5 -128.5t-35.5 -128.5t-97 -89t-139.5 -32.5zM648 1312q45 0 74 29.5t29 73.5t-29.5 73.5t-73.5 29.5t-73.5 -29.5t-29.5 -73.5t29.5 -73.5t73.5 -29.5z" />
    <glyph glyph-name="Uhungarumlaut" unicode="&#x170;" horiz-adv-x="1459" 
d="M729 -21q-193 0 -337.5 68t-224.5 192.5t-80 293.5v957h404v-923q0 -70 31 -123.5t84.5 -84t122.5 -30.5q70 0 124 30.5t84.5 84t30.5 123.5v923h404v-957q0 -169 -80 -293.5t-224.5 -192.5t-338.5 -68zM604 1620h-264l125 326h326zM987 1620h-272l197 326h360z" />
    <glyph glyph-name="uhungarumlaut" unicode="&#x171;" 
d="M464 -20q-117 0 -200.5 52.5t-127 146t-43.5 218.5v687h401v-600q0 -80 40 -125.5t113 -45.5q48 0 82.5 20.5t52.5 61t18 98.5v591h401v-1084h-387l-3 289h34q-44 -133 -133.5 -221t-247.5 -88zM522 1214h-264l125 326h326zM905 1214h-272l197 326h360z" />
    <glyph glyph-name="Uogonek" unicode="&#x172;" horiz-adv-x="1459" 
d="M729 -21q-193 0 -337.5 68t-224.5 192.5t-80 293.5v957h404v-923q0 -70 31 -123.5t84.5 -84t122.5 -30.5q70 0 124 30.5t84.5 84t30.5 123.5v923h404v-957q0 -169 -80 -293.5t-224.5 -192.5t-338.5 -68zM814 -422q-149 0 -232 58.5t-83 162.5q0 77 42 130t111.5 91
t152.5 70t166 67.5t152.5 84t111.5 119t42 172.5h95q0 -129 -37 -216.5t-95.5 -146t-124 -98t-124 -70.5t-95.5 -63t-37 -77q0 -32 18.5 -48t52.5 -16q16 0 30.5 2.5t29.5 6.5l31 -206q-40 -11 -99.5 -17t-107.5 -6z" />
    <glyph glyph-name="uogonek" unicode="&#x173;" 
d="M464 -20q-117 0 -200.5 52.5t-127 146t-43.5 218.5v687h401v-600q0 -80 40 -125.5t113 -45.5q48 0 82.5 20.5t52.5 61t18 98.5v591h401v-1084h-387l-3 289h34q-44 -133 -133.5 -221t-247.5 -88zM1011 -422q-150 0 -232.5 58.5t-82.5 162.5q0 67 33 124.5t85 103.5
l388 -27q-83 -34 -114.5 -66.5t-31.5 -71.5q0 -32 18 -48t53 -16q16 0 30.5 2.5t29.5 6.5l31 -206q-40 -11 -99.5 -17t-107.5 -6z" />
    <glyph glyph-name="Wcircumflex" unicode="&#x174;" horiz-adv-x="2165" 
d="M415 0l-395 1490h452l119 -578q23 -109 42.5 -227.5t38 -236.5t36.5 -228h-89q21 110 41 228t41.5 236.5t46.5 227.5l132 578h404l132 -578q25 -109 47 -227.5t42 -236.5t41 -228h-90q19 110 37 228t37.5 236.5t41.5 227.5l120 578h452l-395 -1490h-457l-159 652
q-28 114 -50.5 259.5t-57.5 313.5h115q-38 -168 -58.5 -313t-48.5 -260l-161 -652h-457zM952 1620h-306v4l290 322h289l294 -322v-4h-306l-133 163z" />
    <glyph glyph-name="wcircumflex" unicode="&#x175;" horiz-adv-x="1794" 
d="M320 0l-323 1084h420l65 -316q25 -119 50.5 -250.5t47.5 -271.5h-45q26 140 56 271.5t58 250.5l74 316h348l72 -316q27 -119 57.5 -250.5t56.5 -271.5h-43q21 140 44.5 271t47.5 251l63 316h428l-325 -1084h-412l-108 368q-15 53 -30 118.5t-29 132.5t-29 124h64
q-14 -57 -28.5 -124t-29 -132.5t-30.5 -118.5l-108 -368h-412zM765 1214h-306v4l290 322h289l294 -322v-4h-306l-133 163z" />
    <glyph glyph-name="Ycircumflex" unicode="&#x176;" horiz-adv-x="1537" 
d="M575 0v512l-555 978h476l214 -432q28 -56 51.5 -113.5t47.5 -123.5h-59q22 66 44 123.5t48 113.5l201 432h473l-539 -978v-512h-402zM638 1620h-306v4l290 322h289l294 -322v-4h-306l-133 163z" />
    <glyph glyph-name="ycircumflex" unicode="&#x177;" horiz-adv-x="1250" 
d="M116 -405l39 296l112 -6q50 -7 82.5 1t48 31t16.5 59l-2 24l-409 1084h419l138 -476q32 -111 55.5 -223t50.5 -234h-96q26 122 53.5 235t61.5 222l148 476h414l-453 -1204q-36 -97 -89 -164.5t-132 -102.5t-194 -35q-68 0 -136.5 4.5t-126.5 12.5zM478 1214h-306v4
l290 322h289l294 -322v-4h-306l-133 163z" />
    <glyph glyph-name="Ydieresis" unicode="&#x178;" horiz-adv-x="1537" 
d="M575 0v512l-555 978h476l214 -432q28 -56 51.5 -113.5t47.5 -123.5h-59q22 66 44 123.5t48 113.5l201 432h473l-539 -978v-512h-402zM1001 1589q-81 0 -135.5 52t-54.5 128q0 78 54.5 129t135.5 51t135.5 -51t54.5 -129q0 -77 -54.5 -128.5t-135.5 -51.5zM535 1589
q-81 0 -135 52t-54 128q0 78 54 129t135 51q82 0 136 -51t54 -129q0 -77 -54 -128.5t-136 -51.5z" />
    <glyph glyph-name="Zacute" unicode="&#x179;" horiz-adv-x="1374" 
d="M73 0v273l555 687q67 83 143 165.5t155 165.5l37 -134q-105 -6 -210 -6.5t-211 -0.5h-460v340h1216v-273l-546 -682q-67 -84 -144 -168t-156 -169l-37 135q109 6 218.5 6.5t218.5 0.5h448v-340h-1227zM544 1620l174 326h357l-267 -326h-264z" />
    <glyph glyph-name="zacute" unicode="&#x17a;" horiz-adv-x="1175" 
d="M105 0v241l482 534v4h-475v305h944v-261l-455 -515v-4h469v-304h-965zM442 1214l174 326h357l-267 -326h-264z" />
    <glyph glyph-name="Zdotaccent" unicode="&#x17b;" horiz-adv-x="1374" 
d="M73 0v273l555 687q67 83 143 165.5t155 165.5l37 -134q-105 -6 -210 -6.5t-211 -0.5h-460v340h1216v-273l-546 -682q-67 -84 -144 -168t-156 -169l-37 135q109 6 218.5 6.5t218.5 0.5h448v-340h-1227zM689 1579q-89 0 -148 54t-59 135t59 134.5t147 53.5q89 0 148 -53.5
t59 -134.5t-59 -135t-147 -54z" />
    <glyph glyph-name="zdotaccent" unicode="&#x17c;" horiz-adv-x="1175" 
d="M105 0v241l482 534v4h-475v305h944v-261l-455 -515v-4h469v-304h-965zM587 1173q-89 0 -148 54t-59 135t59 134.5t147 53.5q89 0 148 -53.5t59 -134.5t-59 -135t-147 -54z" />
    <glyph glyph-name="Zcaron" unicode="&#x17d;" horiz-adv-x="1374" 
d="M73 0v273l555 687q67 83 143 165.5t155 165.5l37 -134q-105 -6 -210 -6.5t-211 -0.5h-460v340h1216v-273l-546 -682q-67 -84 -144 -168t-156 -169l-37 135q109 6 218.5 6.5t218.5 0.5h448v-340h-1227zM559 1946l128 -162l133 162h306v-3l-294 -323h-289l-290 323v3h306z
" />
    <glyph glyph-name="zcaron" unicode="&#x17e;" horiz-adv-x="1175" 
d="M105 0v241l482 534v4h-475v305h944v-261l-455 -515v-4h469v-304h-965zM457 1540l128 -162l133 162h306v-3l-294 -323h-289l-290 323v3h306z" />
    <glyph glyph-name="longs" unicode="&#x17f;" horiz-adv-x="728" 
d="M93 0v1150q0 127 45 209t134 122t220 40q72 0 139 -5.5t97 -8.5l-26 -297q-18 3 -49.5 4.5t-56.5 1.5q-58 0 -80.5 -24t-22.5 -74v-1118h-400z" />
    <glyph glyph-name="bbar" unicode="&#x180;" horiz-adv-x="1299" 
d="M797 -20q-74 0 -133.5 23.5t-102 66.5t-66.5 103h-5v-173h-397v1490h401v-570h3q29 56 71 97t100 63.5t133 22.5q123 0 223.5 -65t161 -190t60.5 -306q0 -179 -58.5 -304.5t-159.5 -191.5t-231 -66zM665 292q55 0 93.5 30.5t58.5 86.5t20 133q0 78 -20 134t-58.5 86.5
t-93.5 30.5t-96 -30.5t-64 -86.5t-23 -134q0 -76 23 -132.5t64 -87t96 -30.5zM-32 1173v216h827v-216h-827z" />
    <glyph glyph-name="uni0181" unicode="&#x181;" horiz-adv-x="1827" 
d="M30 1021v98q0 176 99.5 273.5t302.5 97.5h135v-334h-59q-49 0 -74.5 -22t-25.5 -64v-49h-378zM567 0v1490h646q170 0 286 -47t175 -130.5t59 -194.5q0 -84 -36 -153t-100.5 -114.5t-151.5 -62.5v-8q96 -3 173.5 -48.5t123 -125t45.5 -184.5q0 -122 -62 -217.5t-178 -150
t-278 -54.5h-702zM971 316h207q87 0 135 40t48 110q0 48 -22 82.5t-62.5 53t-96.5 18.5h-209v-304zM971 895h182q49 0 86 16.5t57.5 48t20.5 75.5q0 65 -44.5 102.5t-116.5 37.5h-185v-280z" />
    <glyph glyph-name="uni0182" unicode="&#x182;" horiz-adv-x="1322" 
d="M87 0v1490h1048v-326h-644v-174h152q188 0 328.5 -61t219 -170.5t78.5 -258.5q0 -148 -78.5 -260.5t-219 -176t-328.5 -63.5h-556zM491 318h152q73 0 122.5 24t75.5 66t26 96q0 76 -57.5 126t-166.5 50h-152v-362z" />
    <glyph glyph-name="uni0183" unicode="&#x183;" horiz-adv-x="1299" 
d="M296 1191l-203 299h897v-299h-694zM797 -20q-74 0 -133.5 23.5t-102 66.5t-66.5 103h-5v-173h-397v1490h401v-570h3q29 56 71 97t100 63.5t133 22.5q123 0 223.5 -65t161 -190t60.5 -306q0 -179 -58.5 -304.5t-159.5 -191.5t-231 -66zM665 292q55 0 93.5 30.5t58.5 86.5
t20 133q0 78 -20 134t-58.5 86.5t-93.5 30.5t-96 -30.5t-64 -86.5t-23 -134q0 -76 23 -132.5t64 -87t96 -30.5z" />
    <glyph glyph-name="uni0184" unicode="&#x184;" horiz-adv-x="1774" 
d="M307 891l-287 163l245 436h392zM756 1018h361q186 0 321.5 -61.5t209 -175t73.5 -269.5q0 -157 -70.5 -272t-200 -177.5t-306.5 -62.5h-638v1490h410v-1161h188q101 0 158 49.5t57 137.5q0 57 -25.5 97.5t-73.5 62.5t-116 22h-348v320z" />
    <glyph glyph-name="uni0185" unicode="&#x185;" horiz-adv-x="1529" 
d="M264 553l-261 143l209 388h354zM664 770h326q153 0 262 -46.5t166.5 -132.5t57.5 -208q0 -120 -57.5 -206t-166.5 -131.5t-262 -45.5h-557v1084h401v-784h149q53 0 81.5 22.5t28.5 63.5q0 43 -28.5 65.5t-81.5 22.5h-319v296z" />
    <glyph glyph-name="uni0186" unicode="&#x186;" horiz-adv-x="1510" 
d="M736 1512q204 0 367 -88.5t258.5 -259.5t95.5 -418q0 -249 -96 -420t-259.5 -259.5t-365.5 -88.5q-141 0 -260 40t-209 114.5t-146 181.5t-70 240h415q8 -51 29 -91.5t54 -69t77.5 -44t99.5 -15.5q101 0 171 49t106 141t36 222q0 133 -36 224.5t-105.5 138.5t-170.5 47
q-55 0 -99 -15t-77.5 -44t-55 -69t-30.5 -91h-415q12 116 63.5 219.5t139.5 183.5t209 126t274 46z" />
    <glyph glyph-name="uni0187" unicode="&#x187;" horiz-adv-x="1510" 
d="M1062 936v376q0 188 100.5 281.5t311.5 93.5q62 0 116 -3t92 -8v-296q-24 2 -56.5 3t-70.5 1q-50 0 -72.5 -20t-22.5 -64v-364h-398zM775 -22q-204 0 -367.5 88.5t-259 259.5t-95.5 418q0 249 96 420.5t260 259.5t366 88q141 0 260 -40t208.5 -114.5t145.5 -181.5
t71 -240h-415q-8 51 -29 91.5t-54.5 69t-78 44t-99.5 15.5q-101 0 -170.5 -49t-105.5 -140.5t-36 -222.5q0 -133 36 -224.5t105.5 -138.5t170.5 -47q54 0 98 15t78 44t55.5 69.5t29.5 90.5h415q-12 -116 -63 -219.5t-139 -183.5t-209.5 -126t-273.5 -46z" />
    <glyph glyph-name="uni0188" unicode="&#x188;" horiz-adv-x="1380" 
d="M828 658l-20 273q-12 180 66.5 266.5t289.5 86.5q52 0 100 -1t80 -4l-4 -302q-19 2 -48.5 3.5t-65.5 1.5q-49 0 -68.5 -20t-15.5 -65l19 -239h-333zM623 -22q-174 0 -302.5 70.5t-198 197t-69.5 294.5q0 169 69.5 295.5t198 197t302.5 70.5q116 0 212 -32t166.5 -90.5
t111.5 -140.5t48 -182l-376 -25q-5 39 -17.5 69.5t-32 52t-46 32.5t-59.5 11q-53 0 -91 -29.5t-58.5 -87t-20.5 -140.5q0 -82 20.5 -139.5t59 -88t90.5 -30.5q33 0 59.5 11.5t46.5 33t32.5 53.5t16.5 72l376 -24q-4 -102 -44.5 -184.5t-111 -142.5t-167.5 -92t-215 -32z" />
    <glyph glyph-name="Dbar1" unicode="&#x189;" horiz-adv-x="1588" 
d="M788 0h-408v344h389q117 0 195.5 39.5t118 128t39.5 232.5q0 145 -40.5 233.5t-121.5 128.5t-203 40h-383v344h408q230 0 399 -91t261.5 -258t92.5 -397q0 -229 -91.5 -396t-259.5 -257.5t-396 -90.5zM620 1490v-1490h-411v1490h411zM20 619v252h852v-252h-852z" />
    <glyph glyph-name="uni018A" unicode="&#x18a;" horiz-adv-x="1947" 
d="M30 1021v98q0 176 99.5 273.5t302.5 97.5h135v-334h-59q-49 0 -74.5 -22t-25.5 -64v-49h-378zM1146 0h-408v344h389q117 0 195.5 39.5t118 128t39.5 232.5q0 145 -40.5 233.5t-121.5 128.5t-203 40h-383v344h408q230 0 399 -91t261.5 -258t92.5 -397q0 -229 -91.5 -396
t-259.5 -257.5t-396 -90.5zM978 1490v-1490h-411v1490h411z" />
    <glyph glyph-name="uni018B" unicode="&#x18b;" horiz-adv-x="1410" 
d="M1297 0h-556q-187 0 -327.5 64t-218.5 177t-78 259q0 147 78 257t218.5 171.5t327.5 61.5h166v194h-658v318h1048v-1502zM907 312v368h-166q-111 1 -173.5 -49.5t-62.5 -126.5q0 -54 28 -97.5t81 -69t127 -25.5h166z" />
    <glyph glyph-name="uni018C" unicode="&#x18c;" horiz-adv-x="1299" 
d="M1003 1191h-694v299h897zM502 -20q-130 0 -231.5 66t-159.5 191.5t-58 304.5q0 181 60.5 306t161.5 190t223 65q75 0 133 -22.5t100.5 -63.5t69.5 -97h4v570h401v-1490h-397v173h-5q-24 -60 -66.5 -103t-102 -66.5t-133.5 -23.5zM634 292q55 0 96 30.5t64 87t23 132.5
q0 78 -23 134t-64 86.5t-96 30.5t-93.5 -30.5t-58.5 -86.5t-20 -134q0 -77 20 -133t58.5 -86.5t93.5 -30.5z" />
    <glyph glyph-name="deltaturn" unicode="&#x18d;" horiz-adv-x="1480" 
d="M1175 -376h-888v300h406q-18 11 -41 20t-55.5 27t-79.5 53q-145 109 -238.5 239t-93.5 287v20q1 168 64.5 294.5t187.5 197t304 70.5q179 0 303 -63t188.5 -176t64.5 -265v-20q0 -148 -54.5 -259t-141.5 -178.5t-184 -86.5h-13.5h-24.5q28 -21 70.5 -59.5t87.5 -81.5
t82.5 -80t55.5 -55v-184zM921 550v20q1 67 -10.5 127t-50 97.5t-119.5 37.5q-74 0 -113 -34t-53 -93t-14 -135v-20q0 -109 43.5 -180.5t104.5 -101.5q9 -4 18 -5t18 -1q68 0 106.5 38t54.5 103.5t15 146.5z" />
    <glyph glyph-name="Eturn" unicode="&#x18e;" horiz-adv-x="1277" 
d="M1190 1490v-1490h-1119v340h708v237h-651v330h651v243h-706v340h1117z" />
    <glyph glyph-name="uni018F" unicode="&#x18f;" horiz-adv-x="1524" 
d="M752 -22q-151 0 -276.5 44.5t-218 128t-143 202.5t-50.5 268v211h1078v-293h-758l79 8q0 -64 34 -112t97.5 -74.5t152.5 -26.5q106 0 174 47t100 138.5t32 226.5q0 131 -32.5 222.5t-100.5 139.5t-174 48q-53 0 -95 -11.5t-74 -33.5t-52.5 -53.5t-29.5 -71.5h-416
q10 117 65.5 213.5t146 167t208 108t251.5 37.5q202 0 366 -89t259.5 -260.5t95.5 -419.5q0 -235 -88 -407t-249 -265t-382 -93z" />
    <glyph glyph-name="Epsilon1" unicode="&#x190;" horiz-adv-x="1334" 
d="M669 -22q-182 0 -321 57.5t-217 158.5t-78 230q0 89 40 164t118 124t193 61v6q-129 15 -215 97.5t-86 212.5q0 124 72 219.5t198.5 149.5t291.5 54q176 0 306.5 -61.5t202 -169t71.5 -244.5h-388q0 51 -25 89t-68.5 59.5t-98.5 21.5q-51 0 -91 -20t-63 -55.5t-23 -81.5
q0 -47 25.5 -81.5t72.5 -53.5t111 -19h147v-280h-147q-67 0 -118 -20t-79 -56t-28 -84q0 -47 25 -83.5t69.5 -57t101.5 -20.5q63 0 109.5 23.5t72.5 66.5t26 101h397q0 -139 -69 -254.5t-204 -184.5t-331 -69z" />
    <glyph glyph-name="uni0191" unicode="&#x191;" horiz-adv-x="1220" 
d="M-132 -418v310q23 -2 55.5 -3t71.5 -1q49 0 70.5 19.5t21.5 61.5v150h411v-173q0 -187 -105.5 -280.5t-316.5 -93.5q-63 0 -116.5 2.5t-91.5 7.5zM87 0v1490h1088v-340h-677v-296h626v-330h-626v-524h-411z" />
    <glyph glyph-name="florin" unicode="&#x192;" horiz-adv-x="1056" 
d="M919 1082v-268h-226v-808q-1 -208 -112 -316t-308 -108q-43 0 -84 2.5t-90 11.5l14 296q19 -4 45 -8t49 -4q75 0 89.5 34.5t14.5 91.5v808h-160v268h160v78q1 195 124.5 295.5t347.5 100.5q51 0 91 -5t83 -13l-20 -284q-23 5 -47 6.5t-67 1.5q-58 0 -94 -25.5t-36 -76.5
v-78h226z" />
    <glyph glyph-name="uni0193" unicode="&#x193;" horiz-adv-x="1529" 
d="M1052 986v319q0 188 100.5 281.5t311.5 93.5q63 0 116.5 -3t91.5 -8v-296q-23 2 -55.5 3t-70.5 1q-50 0 -73 -20t-23 -64v-307h-398zM784 -22q-219 0 -383.5 93t-256 265t-91.5 407q0 248 97.5 419.5t262 260.5t366.5 89q134 0 251.5 -37.5t208 -108t145.5 -167
t66 -213.5h-417q-8 40 -27.5 71.5t-50 53.5t-71.5 33.5t-92 11.5q-103 0 -175 -48t-108.5 -139.5t-36.5 -222.5q0 -132 36.5 -224t108 -140t178.5 -48q89 0 149.5 26.5t91 74.5t30.5 112l78 -8h-348v293h668v-211q0 -198 -86 -342.5t-239 -222.5t-355 -78z" />
    <glyph glyph-name="Gamma1" unicode="&#x194;" horiz-adv-x="1664" 
d="M89 1490h466l384 -804q106 -220 176.5 -385.5t106 -278t35.5 -174.5q0 -81 -53.5 -147t-149 -104.5t-223.5 -38.5q-194 0 -316 81t-122 221q0 26 6.5 58t25.5 85.5t56 140t97.5 219t150.5 325.5l376 802h468l-700 -1322q-25 -47 -43.5 -98t-28.5 -99.5t-10 -88.5
q0 -34 9.5 -51t30.5 -17q22 0 32 16.5t10 53.5q0 40 -10 89t-28 100t-42 95z" />
    <glyph glyph-name="uni0195" unicode="&#x195;" horiz-adv-x="2044" 
d="M1321 -22q-169 0 -280.5 57.5t-167 159.5t-55.5 235v174q0 81 -42.5 128t-118.5 47q-49 0 -85.5 -21t-57 -60.5t-20.5 -93.5v-604h-401v1490h394v-613h6q38 106 125 166t209 60q118 0 206 -53.5t137 -147.5t49 -216v-256q0 -38 13.5 -66t39.5 -43t61 -15q83 0 130.5 85
t67.5 243.5t20 377.5v72h400v-72q1 -340 -58.5 -570.5t-197.5 -347t-374 -116.5z" />
    <glyph glyph-name="Iota" unicode="&#x196;" horiz-adv-x="659" 
d="M495 -3q-210 0 -306 78t-96 251v1164h401v-1126q0 -34 19 -52t55 -18q15 0 26.5 0.5t20.5 2.5l25 -286q-26 -4 -63 -9t-82 -5z" />
    <glyph glyph-name="uni0197" unicode="&#x197;" horiz-adv-x="774" 
d="M592 1490v-1490h-411v1490h411zM13 723v130h746v-130h-746z" />
    <glyph glyph-name="uni0198" unicode="&#x198;" horiz-adv-x="1552" 
d="M87 0v1490h404v-576h20l422 428q89 90 187.5 132t206.5 33t224 -73l-120 -282q-70 33 -110.5 12t-87.5 -68l-302 -304l608 -792h-484l-384 504l-180 -186v-318h-404z" />
    <glyph glyph-name="uni0199" unicode="&#x199;" horiz-adv-x="1220" 
d="M93 836v286q0 187 102 280.5t313 93.5q62 0 116 -2.5t92 -7.5v-296q-23 2 -55.5 3t-71.5 1q-49 0 -72 -20t-23 -65v-273h-401zM452 251v474h50l269 359h452l-450 -571h-113zM93 0v1084h401v-1084h-401zM779 0l-254 424l260 283l449 -707h-455z" />
    <glyph glyph-name="uni019A" unicode="&#x19a;" horiz-adv-x="587" 
d="M494 1490v-1490h-401v1490h401zM-122 660v216h827v-216h-827z" />
    <glyph glyph-name="lambdabar" unicode="&#x19b;" horiz-adv-x="1351" 
d="M258 996l-20 128l689 206l23 -123zM3 0l412 1084l-6 26q-8 37 -24.5 57t-46.5 25.5t-79 -0.5l-99 -4l-39 296q58 8 129 12.5t139 4.5q104 0 180.5 -30t132.5 -96t97 -176l303 -814q15 -38 32 -59.5t42 -29t63 -4.5l54 5l39 -291q-44 -8 -99 -13t-109 -5
q-99 0 -171.5 29.5t-123.5 96t-86 177.5l-58 185q-34 109 -61.5 221.5t-53.5 234.5h96q-27 -122 -50.5 -234t-55.5 -222l-138 -476h-419z" />
    <glyph glyph-name="mcapturn" unicode="&#x19c;" horiz-adv-x="2004" 
d="M1481 286v1204h378v-1490h-334zM1529 504l100 2q0 -151 -52 -270t-149 -187.5t-233 -68.5q-116 0 -201.5 43t-132 138.5t-46.5 252.5v1076h372v-1076q0 -39 14.5 -69.5t45 -47.5t76.5 -17q76 0 121.5 29t65.5 80t19 115zM863 504l106 2q0 -155 -51.5 -274t-149.5 -185.5
t-239 -66.5q-132 0 -216 43.5t-124 139t-40 251.5v1076h372v-1076q0 -39 14.5 -69.5t45 -47.5t76.5 -17q57 0 96.5 16.5t63.5 46t35 71t11 90.5z" />
    <glyph glyph-name="Nhook" unicode="&#x19d;" horiz-adv-x="1540" 
d="M-132 -418v310q23 -2 55.5 -3t71.5 -1q49 0 70.5 19.5t21.5 61.5v150h411v-173q0 -187 -105.5 -280.5t-316.5 -93.5q-62 0 -116 2.5t-92 7.5zM87 0v1490h431l360 -585q33 -55 71.5 -125t77.5 -152.5t76 -173.5l-44 -64q-5 81 -10 185.5t-8.5 204.5t-3.5 164v546h416
v-1490h-431l-335 544q-42 69 -85.5 147t-89 170.5t-96.5 198.5l64 14q8 -105 13.5 -207.5t7.5 -186.5t2 -136v-544h-416z" />
    <glyph glyph-name="uni019E" unicode="&#x19e;" 
d="M494 590v-590h-401v1084h387l4 -289h-35q45 133 134.5 220.5t246.5 87.5q119 0 201.5 -52t126 -146t43.5 -219v-1104h-401v1017q0 81 -39.5 126t-112.5 45q-48 0 -82.5 -20.5t-53 -60.5t-18.5 -99z" />
    <glyph glyph-name="Obar" unicode="&#x19f;" horiz-adv-x="1555" 
d="M1263 862v-234h-914v234h914zM777 -22q-203 0 -367.5 88.5t-260.5 259.5t-96 418q0 249 96 420.5t260.5 259.5t367.5 88t367 -88t260.5 -259.5t96.5 -420.5q0 -248 -96.5 -419t-260.5 -259t-367 -88zM777 334q100 0 168 48t103 140t35 222q0 131 -35 223.5t-103 140.5
t-168 48q-98 0 -166 -48t-103.5 -140.5t-35.5 -223.5q0 -130 35.5 -222t103.5 -140t166 -48z" />
    <glyph glyph-name="Ohorn" unicode="&#x1a0;" horiz-adv-x="1572" 
d="M786 1277v235q43 0 79 -3t73.5 -7.5t83 -8t108.5 -3.5q32 0 32 32v194h348v-237q0 -117 -75 -167t-183 -50q-58 0 -116.5 2t-116.5 5t-116.5 5.5t-116.5 2.5zM777 -22q-203 0 -367.5 88.5t-260.5 259.5t-96 418q0 249 96 420.5t260.5 259.5t367.5 88t367 -88
t260.5 -259.5t96.5 -420.5q0 -248 -96.5 -419t-260.5 -259t-367 -88zM777 334q100 0 168 48t103 140t35 222q0 131 -35 223.5t-103 140.5t-168 48q-98 0 -166 -48t-103.5 -140.5t-35.5 -223.5q0 -130 35.5 -222t103.5 -140t166 -48z" />
    <glyph glyph-name="ohorn" unicode="&#x1a1;" horiz-adv-x="1260" 
d="M630 899v204q37 0 77 -3t78 -6.5t71 -6.5t54 -3q56 0 56 51v192h300v-178q0 -115 -78.5 -182.5t-211.5 -67.5h-173h-173zM630 -22q-175 0 -305 69.5t-201 196t-71 296.5q0 171 71 297t201 196t305 70q177 0 306 -70t200 -196t71 -297q0 -170 -71 -296.5t-200 -196
t-306 -69.5zM630 284q50 0 88.5 30t60 87.5t21.5 139.5q0 84 -21.5 140.5t-60 85.5t-88.5 29q-49 0 -88 -29t-60.5 -85.5t-21.5 -140.5q0 -82 21.5 -139.5t60.5 -87.5t88 -30z" />
    <glyph glyph-name="OI" unicode="&#x1a2;" horiz-adv-x="1992" 
d="M1369 966v-788q-40 -41 -123 -87t-201.5 -78.5t-267.5 -32.5q-165 0 -294 47.5t-218.5 139t-136.5 223.5t-47 300v84l398 2v-86q1 -119 28.5 -209.5t95 -140.5t188.5 -50q71 0 122.5 16.5t77.5 33.5v626h378zM1369 1312v-776l-378 -6v622q-35 26 -89 36t-109 10
q-128 0 -196 -47t-93 -135.5t-25 -215.5v-104l-398 2v102q0 169 47 301t136.5 223t218.5 138.5t294 47.5q150 0 268.5 -32t201 -78t122.5 -88zM1905 1490v-1908h-372v1434l-378 -184v434l470 224h280z" />
    <glyph glyph-name="uni01A3" unicode="&#x1a3;" horiz-adv-x="1658" 
d="M607 282q44 0 76 11.5t50 34.5v358h376v-438q-37 -71 -96 -132.5t-154 -98.5t-242 -37q-179 0 -298.5 70.5t-178.5 195.5t-59 286v18q0 175 59 305.5t178.5 203.5t298.5 73q132 0 232.5 -52t166.5 -124t93 -132v-222l-376 36v128q-20 32 -51 49t-81 17q-68 0 -99.5 -37
t-40 -101t-8.5 -144v-18q0 -58 6.5 -115.5t38.5 -96t109 -38.5zM1579 1118v-1536h-378v1136l-252 -72v316l386 156h244z" />
    <glyph glyph-name="uni01A4" unicode="&#x1a4;" horiz-adv-x="1815" 
d="M32 1021v98q0 176 99.5 273.5t302.5 97.5h135v-334h-59q-49 0 -74.5 -22t-25.5 -64v-49h-378zM567 0v1490h637q173 0 300.5 -64.5t197.5 -182t70 -277.5q0 -159 -70.5 -276t-200 -180.5t-303.5 -63.5h-390v330h336q67 0 115 23.5t74 66t26 100.5q0 60 -26 102t-74 65
t-115 23h-166v-1156h-411z" />
    <glyph glyph-name="uni01A5" unicode="&#x1a5;" horiz-adv-x="1299" 
d="M93 836v286q0 187 102 280.5t313 93.5q62 0 116 -2.5t92 -7.5v-296q-23 2 -55.5 3t-71.5 1q-49 0 -72 -20t-23 -65v-273h-401zM93 -418v1502h397v-161h7q27 54 69.5 94.5t101 63t133.5 22.5q123 0 223.5 -65t161 -190t60.5 -306q0 -179 -58.5 -304.5t-159.5 -191.5
t-231 -66q-74 0 -132.5 23.5t-100.5 65.5t-65 99h-5v-586h-401zM665 292q55 0 93.5 30.5t58.5 86.5t20 133q0 78 -20 134t-58.5 86.5t-93.5 30.5t-96 -30.5t-64 -86.5t-23 -134q0 -76 23 -132.5t64 -87t96 -30.5z" />
    <glyph glyph-name="YR" unicode="&#x1a6;" horiz-adv-x="1600" 
d="M85 1388v204h388v-204h-388zM85 1490h616q176 0 307.5 -51t204 -149t72.5 -242q0 -135 -40 -220.5t-111.5 -137.5t-164.5 -90l-134 -82h-510l-2 312h378q63 0 106 19.5t65.5 57.5t22.5 93q0 56 -23 95t-66.5 60t-104.5 21h-224v-1176h-392v1490zM1097 -344l-516 984h414
l520 -968v-16h-418z" />
    <glyph glyph-name="uni01A7" unicode="&#x1a7;" horiz-adv-x="1386" 
d="M683 -21q-196 0 -335 55.5t-213 161.5t-74 258q0 88 27.5 158.5t85.5 125.5t148.5 95t216.5 65l121 23q75 15 121.5 34t68.5 44.5t22 61.5q0 35 -22.5 62.5t-65 43t-102.5 15.5q-96 0 -149.5 -43t-60.5 -118h-385q4 151 76.5 261.5t205.5 170t317 59.5q179 0 315.5 -59.5
t213.5 -166.5t77 -249q0 -170 -114 -276.5t-321 -148.5l-149 -30q-83 -16 -135 -36.5t-76 -47t-24 -61.5q0 -38 25 -67t72.5 -45.5t111.5 -16.5q77 0 132.5 23.5t86.5 68.5t34 108h389q0 -175 -76.5 -293.5t-220 -177t-344.5 -58.5z" />
    <glyph glyph-name="uni01A8" unicode="&#x1a8;" horiz-adv-x="1171" 
d="M72 727q6 174 144.5 274t377.5 100q159 0 273 -42.5t175 -122.5t61 -193q0 -130 -84.5 -211t-248.5 -109l-198 -34q-62 -11 -92 -29t-30 -46q0 -33 34.5 -51.5t91.5 -18.5q66 0 107 29t49 79h396q-11 -113 -81 -197.5t-190 -131.5t-284 -47q-156 0 -275.5 48t-187 134.5
t-67.5 202.5q0 121 82 192.5t250 100.5l227 39q54 9 78 28.5t24 44.5q0 32 -33.5 51t-88.5 19q-58 0 -99.5 -30.5t-44.5 -78.5h-366z" />
    <glyph glyph-name="uni01A9" unicode="&#x1a9;" horiz-adv-x="1400" 
d="M71 0v292l323 320q42 41 101 93t119 102t104 84v-261q-44 34 -104 82.5t-118 99.5t-101 91l-290 283v304h1206v-340h-420q-101 0 -207 1.5t-207 3.5l-14 129q51 -43 108.5 -89t112.5 -91t96 -86l189 -186v-144l-183 -182q-46 -46 -103.5 -96t-114.5 -97t-102 -87l11 111
q101 1 207 2t207 1h438v-340h-1258z" />
    <glyph glyph-name="eshlooprev" unicode="&#x1aa;" horiz-adv-x="1472" 
d="M703 896l376 204v-1092q0 -71 38.5 -110.5t107.5 -39.5q47 0 108 8v-294q-43 -8 -84.5 -11t-91.5 -3q-208 0 -331 116.5t-123 333.5v888zM139 1100q0 124 62.5 227.5t169 166t236.5 62.5q129 0 236.5 -62.5t171.5 -166t64 -227.5q0 -125 -64 -229.5t-171.5 -166.5
t-236.5 -62q-128 0 -234 62t-169.5 166t-64.5 230zM611 954q58 0 101 37.5t41 110.5q0 73 -43 108.5t-99 35.5q-67 0 -107.5 -36.5t-40.5 -107.5q-1 -73 40 -110.5t108 -37.5z" />
    <glyph glyph-name="uni01AB" unicode="&#x1ab;" horiz-adv-x="839" 
d="M183 -419v296q23 -2 55.5 -3t70.5 -1q56 0 83.5 24.5t23.5 71.5l-5 55h392l3 -56q17 -192 -88 -295t-327 -103q-63 0 -116.5 3t-91.5 8zM789 1084v-299h-769v299h769zM182 1362h401v-988q0 -42 18 -59.5t67 -17.5q23 0 61.5 2t51.5 4l22 -296q-46 -9 -108 -12t-123 -3
q-200 0 -295 80.5t-95 246.5v1043z" />
    <glyph glyph-name="uni01AC" unicode="&#x1ac;" horiz-adv-x="1585" 
d="M129 1021v98q0 176 99.5 273.5t302.5 97.5h135v-334h-59q-49 0 -74.5 -22t-25.5 -64v-49h-378zM666 1150v340h872v-340h-447v-1150h-411v1150h-14z" />
    <glyph glyph-name="uni01AD" unicode="&#x1ad;" horiz-adv-x="832" 
d="M173 1084h401v-696q0 -48 21.5 -69t72.5 -21q23 0 52.5 1.5t43.5 3.5l25 -295q-45 -8 -105 -12t-121 -4q-199 0 -294.5 83.5t-95.5 256.5v752zM780 1084v-299h-760v299h760zM173 836v286q0 187 102 280.5t313 93.5q62 0 116 -2.5t92 -7.5v-296q-23 2 -55.5 3t-71.5 1
q-49 0 -72 -20t-23 -65v-273h-401z" />
    <glyph glyph-name="Trthook" unicode="&#x1ae;" horiz-adv-x="1372" 
d="M893 -428q-211 0 -312 93.5t-101 280.5v265h411v-244q0 -45 21.5 -65t71.5 -20q38 0 70.5 1t55.5 3v-304q-38 -5 -96 -7.5t-121 -2.5zM47 1150v340h1277v-340h-433v-1150h-411v1150h-433z" />
    <glyph glyph-name="Uhorn" unicode="&#x1af;" horiz-adv-x="1459" 
d="M968 1254v236h184q32 0 32 32v194h348v-237q0 -117 -75 -171t-183 -54h-306zM729 -21q-193 0 -337.5 68t-224.5 192.5t-80 293.5v957h404v-923q0 -70 31 -123.5t84.5 -84t122.5 -30.5q70 0 124 30.5t84.5 84t30.5 123.5v923h404v-957q0 -169 -80 -293.5t-224.5 -192.5
t-338.5 -68z" />
    <glyph glyph-name="uhorn" unicode="&#x1b0;" horiz-adv-x="1415" 
d="M968 848v236h79q32 0 32 32v211h300v-255q0 -117 -75 -170.5t-183 -53.5h-153zM464 -20q-117 0 -200.5 52.5t-127 146t-43.5 218.5v687h401v-600q0 -80 40 -125.5t113 -45.5q48 0 82.5 20.5t52.5 61t18 98.5v591h401v-1084h-387l-3 289h34q-44 -133 -133.5 -221
t-247.5 -88z" />
    <glyph glyph-name="Upsilon2" unicode="&#x1b1;" horiz-adv-x="1600" 
d="M63 666q1 170 70 291t186 195v12h-256v326h632v-408q-67 -26 -116 -81.5t-75.5 -131t-26.5 -163.5q0 -108 41.5 -192t114 -132t166.5 -48q95 0 168 48t114.5 132t41.5 192q0 88 -27 163.5t-75.5 131t-115.5 81.5v408h630v-326h-256v-12q119 -74 187.5 -195t68.5 -291
q0 -200 -94 -355t-260 -243t-382 -88q-161 0 -295.5 50.5t-233 142.5t-153 217.5t-54.5 275.5z" />
    <glyph glyph-name="Vcursive" unicode="&#x1b2;" horiz-adv-x="1402" 
d="M703 -20q-181 0 -318.5 63t-214.5 184t-77 293v970h390v-970q0 -106 49.5 -168t170.5 -62t167.5 62t46.5 168v538q-1 77 -23.5 104.5t-96.5 27.5q-23 0 -48 -2t-56 -6v310q46 10 83.5 14t80.5 4q221 0 337.5 -116.5t116.5 -335.5v-538q1 -171 -73.5 -292t-211 -184.5
t-323.5 -63.5z" />
    <glyph glyph-name="uni01B3" unicode="&#x1b3;" horiz-adv-x="1712" 
d="M831 850v34h36v-34h-36zM43 1490h434l372 -620l248 410q73 120 173.5 172.5t212 53t216.5 -35.5l-82 -298q-88 24 -131.5 1.5t-88.5 -93.5l-348 -530v-550h-400v550z" />
    <glyph glyph-name="uni01B4" unicode="&#x1b4;" horiz-adv-x="1505" 
d="M833 1084l12 38q38 118 82 202t122 128t218 44q62 0 118 -2.5t93 -7.5v-296q-23 2 -55.5 3t-70.5 1q-33 0 -50 -9.5t-26 -28.5t-20 -47l-9 -25h-414zM116 -405l39 296l112 -6q50 -7 82.5 1t48 31t16.5 59l-2 24l-409 1084h419l138 -476q32 -111 55.5 -223t50.5 -234h-96
q26 122 53.5 235t61.5 222l148 476h414l-453 -1204q-36 -97 -89 -164.5t-132 -102.5t-194 -35q-68 0 -136.5 4.5t-126.5 12.5z" />
    <glyph glyph-name="Zbar" unicode="&#x1b5;" horiz-adv-x="1374" 
d="M73 0v273l555 687q67 83 143 165.5t155 165.5l37 -134q-105 -6 -210 -6.5t-211 -0.5h-460v340h1216v-273l-546 -682q-67 -84 -144 -168t-156 -169l-37 135q109 6 218.5 6.5t218.5 0.5h448v-340h-1227zM216 619v252h942v-252h-942z" />
    <glyph glyph-name="zbar" unicode="&#x1b6;" horiz-adv-x="1175" 
d="M105 0v241l482 534v4h-475v305h944v-261l-455 -515v-4h469v-304h-965zM214 476v130h746v-130h-746z" />
    <glyph glyph-name="uni01B7" unicode="&#x1b7;" horiz-adv-x="1396" 
d="M47 136h406q3 -72 34.5 -127t83.5 -86t118 -31q78 0 132 41.5t82 114t28 166.5q0 106 -34.5 181.5t-94.5 116t-137 40.5h-194v280l360 314v12h-704v332h1190v-292l-456 -392v-14q150 -16 261 -92.5t172 -199t61 -278.5q0 -145 -49 -266.5t-137.5 -210.5t-209 -138
t-264.5 -49q-185 0 -330.5 74.5t-230 205.5t-87.5 298z" />
    <glyph glyph-name="uni01B8" unicode="&#x1b8;" horiz-adv-x="1398" 
d="M1351 136q-3 -167 -87.5 -298t-230.5 -205.5t-332 -74.5q-143 0 -263.5 49t-209.5 138t-138 210.5t-49 266.5q0 156 61.5 278.5t173 199t261.5 92.5v14l-458 392v292h1190v-332h-704v-12l360 -314v-280h-194q-76 1 -136 -40t-94 -116.5t-34 -181.5q0 -94 28 -166.5
t81.5 -114t130.5 -41.5q67 0 119 31t83.5 86t33.5 127h408z" />
    <glyph glyph-name="uni01B9" unicode="&#x1b9;" horiz-adv-x="1334" 
d="M667 -429q-178 0 -317 57t-218 157.5t-79 231.5q0 83 39.5 170t137.5 154t274 88v6l-407 357v292h1102v-332h-617v-4l297 -270v-268h-188q-62 0 -111.5 -20t-78.5 -56t-29 -85q0 -46 24.5 -82.5t69 -57.5t102.5 -21q62 0 108.5 23.5t72.5 67t27 101.5h397
q-1 -139 -69 -254.5t-202.5 -185t-334.5 -69.5z" />
    <glyph glyph-name="uni01BA" unicode="&#x1ba;" horiz-adv-x="1210" 
d="M163 1084h924v-212l-540 -431h-222v210l190 133h-352v300zM469 -118q0 -40 40 -57t93 -17q42 0 79.5 10.5t62.5 36.5t27 73h348q-1 -89 -59.5 -174t-172 -140.5t-281.5 -55.5q-149 0 -262 44t-176 123t-63 185q0 83 35 141t95 97t137 63t160 39q56 10 100.5 21.5
t70.5 32.5t26 57q0 41 -33 60.5t-83 19.5h-176v244h176q151 0 256.5 -47t160.5 -124.5t55 -170.5q0 -86 -42 -147t-108 -101t-140 -65t-140 -41q-58 -14 -100 -28.5t-64 -33t-22 -45.5z" />
    <glyph glyph-name="uni01BB" unicode="&#x1bb;" horiz-adv-x="1306" 
d="M85 0v290l558 456q48 39 91 78.5t69.5 86t26.5 105.5q0 55 -23.5 95t-65.5 62.5t-98 22.5q-58 0 -102.5 -25.5t-69 -75t-24.5 -120.5h-383q0 167 71 287t201 185t308 65q171 0 301 -57t202.5 -162t72.5 -249q0 -100 -39.5 -186t-122.5 -174t-214 -196l-196 -160v-6h581
v-322h-1144zM287 534v252h942v-252h-942z" />
    <glyph glyph-name="uni01BC" unicode="&#x1bc;" horiz-adv-x="1347" 
d="M369 1490v-324h-322v324h322zM696 -22q-172 0 -303 60.5t-207 170.5t-82 259h389q0 -54 27 -95.5t73.5 -65t103.5 -23.5q62 0 108 27t72.5 75.5t26.5 113.5q0 66 -26.5 115.5t-73 77t-107.5 27.5q-71 0 -124.5 -32.5t-74.5 -87.5l-365 31l49 859h1020v-324h-670l-23 -280
h4q42 56 118 88.5t171 32.5q99 0 188 -37t157.5 -104t107.5 -157.5t39 -196.5q0 -156 -74 -276.5t-208.5 -189t-315.5 -68.5z" />
    <glyph glyph-name="uni01BD" unicode="&#x1bd;" horiz-adv-x="1480" 
d="M643 454l-346 12l90 616h828v-284h-526l-26 -144q35 16 93 29t139 13q130 0 221.5 -42t140 -121t48.5 -189q0 -105 -53 -186.5t-166.5 -128.5t-296.5 -47q-110 0 -208 20t-173 62.5t-118 109t-43 160.5l376 12q8 -37 50.5 -48.5t115.5 -11.5q71 0 106.5 23t35.5 69
q0 40 -41 64t-111 24q-52 0 -87 -2.5t-49 -9.5zM503 1082v-284h-328v284h328z" />
    <glyph glyph-name="glottalstopbarinv" unicode="&#x1be;" horiz-adv-x="1210" 
d="M751 312q0 36 -27.5 60t-71.5 46.5t-93.5 52.5t-94 76.5t-72.5 119t-29 179.5v512h378v-520q1 -76 27.5 -121.5t69 -73t89.5 -50.5t89 -54t68.5 -83t26.5 -138q0 -96 -61 -172.5t-174 -121t-269 -44.5q-164 0 -277.5 57.5t-172 143.5t-58.5 169h348q4 -45 29.5 -71.5
t63 -37.5t77.5 -11q59 0 97 19t37 63zM925 1082v-268h-696v268h696z" />
    <glyph glyph-name="uni01BF" unicode="&#x1bf;" horiz-adv-x="1422" 
d="M555 910v-1326h-378v1534h356zM533 574l-150 -4q18 111 47 212.5t76.5 180t120 124t176.5 45.5q142 0 240.5 -68.5t150 -190.5t51.5 -285v-56q0 -160 -53.5 -281t-157.5 -209t-256.5 -150t-350.5 -104l-44 294q144 4 253 58.5t170 154t61 237.5v56q0 67 -13 122.5
t-47 89.5t-98 34q-73 0 -113.5 -26t-54.5 -83t-8 -151z" />
    <glyph glyph-name="pipe" unicode="&#x1c0;" horiz-adv-x="642" 
d="M419 1446v-1446h-196v1446h196z" />
    <glyph glyph-name="pipedbl" unicode="&#x1c1;" horiz-adv-x="838" 
d="M401 1446v-1446h-196v1446h196zM669 1446v-1446h-196v1446h196z" />
    <glyph glyph-name="pipedblbar" unicode="&#x1c2;" horiz-adv-x="587" 
d="M394 1446v-1446h-196v1446h196zM-122 959v216h827v-216h-827zM-122 497v216h827v-216h-827z" />
    <glyph glyph-name="exclam1" unicode="&#x1c3;" horiz-adv-x="653" 
d="M149 469l-34 1021h424l-35 -1021h-355zM327 -21q-91 0 -151 57.5t-60 146.5q0 88 60 146t151 58t150.5 -58t59.5 -146q0 -89 -59.5 -146.5t-150.5 -57.5z" />
    <glyph glyph-name="Dzcaron_" unicode="&#x1c5;" horiz-adv-x="2641" 
d="M666 0h-408v344h389q117 0 195.5 39.5t118 128t39.5 232.5q0 145 -40.5 233.5t-121.5 128.5t-203 40h-383v344h408q230 0 399 -91t261.5 -258t92.5 -397q0 -229 -91.5 -396t-259.5 -257.5t-396 -90.5zM498 1490v-1490h-411v1490h411zM1572 0v241l482 534v4h-475v305h944
v-261l-455 -515v-4h469v-304h-965zM1923 1540l128 -162l133 162h306v-3l-294 -323h-289l-290 323v3h306z" />
    <glyph glyph-name="uni01C6" unicode="&#x1c6;" horiz-adv-x="2473" 
d="M502 -20q-130 0 -231.5 66t-159.5 191.5t-58 304.5q0 181 60.5 306t161.5 190t223 65q75 0 133 -22.5t100.5 -63.5t69.5 -97h4v570h401v-1490h-397v173h-5q-24 -60 -66.5 -103t-102 -66.5t-133.5 -23.5zM634 292q55 0 96 30.5t64 87t23 132.5q0 78 -23 134t-64 86.5
t-96 30.5t-93.5 -30.5t-58.5 -86.5t-20 -134q0 -77 20 -133t58.5 -86.5t93.5 -30.5zM1404 0v241l482 534v4h-475v305h944v-261l-455 -515v-4h469v-304h-965zM1755 1540l128 -162l133 162h306v-3l-294 -323h-289l-290 323v3h306z" />
    <glyph glyph-name="uni01C7" unicode="&#x1c7;" horiz-adv-x="2377" 
d="M87 0v1490h411v-1150h624v-340h-1035zM1748 -22q-258 0 -397 127.5t-139 364.5v107h393v-112q0 -77 36 -117t103 -40t102.5 40t35.5 118v1024h408v-1025q0 -235 -140.5 -361t-401.5 -126z" />
    <glyph glyph-name="uni01C8" unicode="&#x1c8;" horiz-adv-x="1757" 
d="M87 0v1490h411v-1150h624v-340h-1035zM1263 1084h401v-1122q0 -136 -53 -219.5t-154 -122t-245 -38.5h-122v300h62q62 0 86.5 24.5t24.5 80.5v1097zM1464 1173q-89 0 -148 54t-59 135t59 134.5t147 53.5q89 0 148 -53.5t59 -134.5t-59 -135t-147 -54z" />
    <glyph glyph-name="uni01C9" unicode="&#x1c9;" horiz-adv-x="1175" 
d="M494 1490v-1490h-401v1490h401zM681 1084h401v-1122q0 -136 -53 -219.5t-154 -122t-245 -38.5h-122v300h62q62 0 86.5 24.5t24.5 80.5v1097zM882 1173q-89 0 -148 54t-59 135t59 134.5t147 53.5q89 0 148 -53.5t59 -134.5t-59 -135t-147 -54z" />
    <glyph glyph-name="uni01CA" unicode="&#x1ca;" horiz-adv-x="2749" 
d="M87 0v1490h431l360 -585q33 -55 71.5 -125t77.5 -152.5t76 -173.5l-44 -64q-5 81 -10 185.5t-8.5 204.5t-3.5 164v546h416v-1490h-431l-335 544q-42 69 -85.5 147t-89 170.5t-96.5 198.5l64 14q8 -105 13.5 -207.5t7.5 -186.5t2 -136v-544h-416zM2119 -22
q-258 0 -397 127.5t-139 364.5v107h393v-112q0 -77 36 -117t103 -40t102.5 40t35.5 118v1024h408v-1025q0 -235 -140.5 -361t-401.5 -126z" />
    <glyph glyph-name="uni01CB" unicode="&#x1cb;" horiz-adv-x="2129" 
d="M87 0v1490h431l360 -585q33 -55 71.5 -125t77.5 -152.5t76 -173.5l-44 -64q-5 81 -10 185.5t-8.5 204.5t-3.5 164v546h416v-1490h-431l-335 544q-42 69 -85.5 147t-89 170.5t-96.5 198.5l64 14q8 -105 13.5 -207.5t7.5 -186.5t2 -136v-544h-416zM1634 1084h401v-1122
q0 -136 -53 -219.5t-154 -122t-245 -38.5h-122v300h62q62 0 86.5 24.5t24.5 80.5v1097zM1835 1173q-89 0 -148 54t-59 135t59 134.5t147 53.5q89 0 148 -53.5t59 -134.5t-59 -135t-147 -54z" />
    <glyph glyph-name="uni01CC" unicode="&#x1cc;" horiz-adv-x="1883" 
d="M494 590v-590h-401v1084h387l4 -289h-35q45 133 134.5 220.5t246.5 87.5q119 0 201.5 -52t126 -146t43.5 -219v-686h-401v599q0 81 -39.5 126t-112.5 45q-48 0 -82.5 -20.5t-53 -60.5t-18.5 -99zM1388 1084h401v-1122q0 -136 -53 -219.5t-154 -122t-245 -38.5h-122v300
h62q62 0 86.5 24.5t24.5 80.5v1097zM1589 1173q-89 0 -148 54t-59 135t59 134.5t147 53.5q89 0 148 -53.5t59 -134.5t-59 -135t-147 -54z" />
    <glyph glyph-name="uni01CD" unicode="&#x1cd;" horiz-adv-x="1593" 
d="M20 0l493 1490h556l504 -1490h-464l-170 578q-55 188 -105 380t-96 391h103q-46 -199 -94 -391t-103 -380l-170 -578h-454zM387 263v312h820v-312h-820zM664 1946l128 -162l133 162h306v-3l-294 -323h-289l-290 323v3h306z" />
    <glyph glyph-name="uni01CE" unicode="&#x1ce;" horiz-adv-x="1206" 
d="M412 -19q-107 0 -188.5 35t-127.5 105t-46 178q0 90 31 153.5t86.5 103.5t130 61.5t160.5 27.5q93 7 149.5 17t82 28.5t25.5 49.5v4q0 25 -15.5 43.5t-42.5 28.5t-65 10q-39 0 -68.5 -11t-47.5 -32.5t-23 -54.5l-364 16q12 109 73 189.5t171.5 125t270.5 44.5
q120 0 215 -26t160.5 -75t99.5 -117t34 -152v-733h-383v152h-6q-35 -63 -81 -100t-103.5 -54t-127.5 -17zM542 233q44 0 84.5 17.5t66.5 51t26 82.5v87q-16 -5 -33 -10.5t-36.5 -10t-42 -9t-48.5 -9.5q-44 -7 -73.5 -22t-44.5 -37t-15 -50q0 -29 15 -49t41 -30.5t60 -10.5z
M472 1540l128 -162l133 162h306v-3l-294 -323h-289l-290 323v3h306z" />
    <glyph glyph-name="uni01CF" unicode="&#x1cf;" horiz-adv-x="585" 
d="M498 1490v-1490h-411v1490h411zM163 1946l128 -162l133 162h306v-3l-294 -323h-289l-290 323v3h306z" />
    <glyph glyph-name="uni01D0" unicode="&#x1d0;" horiz-adv-x="587" 
d="M93 0v1084h401v-1084h-401zM163 1540l128 -162l133 162h306v-3l-294 -323h-289l-290 323v3h306z" />
    <glyph glyph-name="uni01D1" unicode="&#x1d1;" horiz-adv-x="1555" 
d="M777 -22q-203 0 -367.5 88.5t-260.5 259.5t-96 418q0 249 96 420.5t260.5 259.5t367.5 88t367 -88t260.5 -259.5t96.5 -420.5q0 -248 -96.5 -419t-260.5 -259t-367 -88zM777 334q100 0 168 48t103 140t35 222q0 131 -35 223.5t-103 140.5t-168 48q-98 0 -166 -48
t-103.5 -140.5t-35.5 -223.5q0 -130 35.5 -222t103.5 -140t166 -48zM647 1946l128 -162l133 162h306v-3l-294 -323h-289l-290 323v3h306z" />
    <glyph glyph-name="uni01D2" unicode="&#x1d2;" horiz-adv-x="1260" 
d="M630 -22q-175 0 -305 69.5t-201 196t-71 296.5q0 171 71 297t201 196t305 70q177 0 306 -70t200 -196t71 -297q0 -170 -71 -296.5t-200 -196t-306 -69.5zM630 284q50 0 88.5 30t60 87.5t21.5 139.5q0 84 -21.5 140.5t-60 85.5t-88.5 29q-49 0 -88 -29t-60.5 -85.5
t-21.5 -140.5q0 -82 21.5 -139.5t60.5 -87.5t88 -30zM499 1540l128 -162l133 162h306v-3l-294 -323h-289l-290 323v3h306z" />
    <glyph glyph-name="uni01D3" unicode="&#x1d3;" horiz-adv-x="1459" 
d="M729 -21q-193 0 -337.5 68t-224.5 192.5t-80 293.5v957h404v-923q0 -70 31 -123.5t84.5 -84t122.5 -30.5q70 0 124 30.5t84.5 84t30.5 123.5v923h404v-957q0 -169 -80 -293.5t-224.5 -192.5t-338.5 -68zM599 1946l128 -162l133 162h306v-3l-294 -323h-289l-290 323v3h306
z" />
    <glyph glyph-name="uni01D4" unicode="&#x1d4;" 
d="M464 -20q-117 0 -200.5 52.5t-127 146t-43.5 218.5v687h401v-600q0 -80 40 -125.5t113 -45.5q48 0 82.5 20.5t52.5 61t18 98.5v591h401v-1084h-387l-3 289h34q-44 -133 -133.5 -221t-247.5 -88zM517 1540l128 -162l133 162h306v-3l-294 -323h-289l-290 323v3h306z" />
    <glyph glyph-name="uni01D5" unicode="&#x1d5;" horiz-adv-x="1459" 
d="M729 -21q-193 0 -337.5 68t-224.5 192.5t-80 293.5v957h404v-923q0 -70 31 -123.5t84.5 -84t122.5 -30.5q70 0 124 30.5t84.5 84t30.5 123.5v923h404v-957q0 -169 -80 -293.5t-224.5 -192.5t-338.5 -68zM953 1578q-81 0 -135.5 52t-54.5 129t54.5 128.5t135.5 51.5
t135.5 -51.5t54.5 -128.5q0 -78 -54.5 -129.5t-135.5 -51.5zM487 1578q-81 0 -135 52t-54 129t54 128.5t135 51.5q82 0 136 -51.5t54 -128.5q0 -78 -54 -129.5t-136 -51.5zM1029 2236v-198h-600v198h600z" />
    <glyph glyph-name="uni01D6" unicode="&#x1d6;" 
d="M464 -20q-117 0 -200.5 52.5t-127 146t-43.5 218.5v687h401v-600q0 -80 40 -125.5t113 -45.5q48 0 82.5 20.5t52.5 61t18 98.5v591h401v-1084h-387l-3 289h34q-44 -133 -133.5 -221t-247.5 -88zM872 1172q-81 0 -135.5 52t-54.5 129t54.5 128.5t135.5 51.5t135.5 -51.5
t54.5 -128.5q0 -78 -54.5 -129.5t-135.5 -51.5zM406 1172q-81 0 -135 52t-54 129t54 128.5t135 51.5q82 0 136 -51.5t54 -128.5q0 -78 -54 -129.5t-136 -51.5zM948 1830v-198h-600v198h600z" />
    <glyph glyph-name="uni01D7" unicode="&#x1d7;" horiz-adv-x="1459" 
d="M729 -21q-193 0 -337.5 68t-224.5 192.5t-80 293.5v957h404v-923q0 -70 31 -123.5t84.5 -84t122.5 -30.5q70 0 124 30.5t84.5 84t30.5 123.5v923h404v-957q0 -169 -80 -293.5t-224.5 -192.5t-338.5 -68zM953 1578q-81 0 -135.5 52t-54.5 129t54.5 128.5t135.5 51.5
t135.5 -51.5t54.5 -128.5q0 -78 -54.5 -129.5t-135.5 -51.5zM487 1578q-81 0 -135 52t-54 129t54 128.5t135 51.5q82 0 136 -51.5t54 -128.5q0 -78 -54 -129.5t-136 -51.5zM610 1994l149 278h308l-232 -278h-225z" />
    <glyph glyph-name="uni01D8" unicode="&#x1d8;" 
d="M464 -20q-117 0 -200.5 52.5t-127 146t-43.5 218.5v687h401v-600q0 -80 40 -125.5t113 -45.5q48 0 82.5 20.5t52.5 61t18 98.5v591h401v-1084h-387l-3 289h34q-44 -133 -133.5 -221t-247.5 -88zM872 1172q-81 0 -135.5 52t-54.5 129t54.5 128.5t135.5 51.5t135.5 -51.5
t54.5 -128.5q0 -78 -54.5 -129.5t-135.5 -51.5zM406 1172q-81 0 -135 52t-54 129t54 128.5t135 51.5q82 0 136 -51.5t54 -128.5q0 -78 -54 -129.5t-136 -51.5zM529 1588l149 278h308l-232 -278h-225z" />
    <glyph glyph-name="uni01D9" unicode="&#x1d9;" horiz-adv-x="1459" 
d="M729 -21q-193 0 -337.5 68t-224.5 192.5t-80 293.5v957h404v-923q0 -70 31 -123.5t84.5 -84t122.5 -30.5q70 0 124 30.5t84.5 84t30.5 123.5v923h404v-957q0 -169 -80 -293.5t-224.5 -192.5t-338.5 -68zM953 1578q-81 0 -135.5 52t-54.5 129t54.5 128.5t135.5 51.5
t135.5 -51.5t54.5 -128.5q0 -78 -54.5 -129.5t-135.5 -51.5zM487 1578q-81 0 -135 52t-54 129t54 128.5t135 51.5q82 0 136 -51.5t54 -128.5q0 -78 -54 -129.5t-136 -51.5zM612 2272l110 -139l113 139h260v-2l-250 -276h-247l-246 276v2h260z" />
    <glyph glyph-name="uni01DA" unicode="&#x1da;" 
d="M464 -20q-117 0 -200.5 52.5t-127 146t-43.5 218.5v687h401v-600q0 -80 40 -125.5t113 -45.5q48 0 82.5 20.5t52.5 61t18 98.5v591h401v-1084h-387l-3 289h34q-44 -133 -133.5 -221t-247.5 -88zM872 1172q-81 0 -135.5 52t-54.5 129t54.5 128.5t135.5 51.5t135.5 -51.5
t54.5 -128.5q0 -78 -54.5 -129.5t-135.5 -51.5zM406 1172q-81 0 -135 52t-54 129t54 128.5t135 51.5q82 0 136 -51.5t54 -128.5q0 -78 -54 -129.5t-136 -51.5zM531 1866l110 -139l113 139h260v-2l-250 -276h-247l-246 276v2h260z" />
    <glyph glyph-name="uni01DB" unicode="&#x1db;" horiz-adv-x="1459" 
d="M729 -21q-193 0 -337.5 68t-224.5 192.5t-80 293.5v957h404v-923q0 -70 31 -123.5t84.5 -84t122.5 -30.5q70 0 124 30.5t84.5 84t30.5 123.5v923h404v-957q0 -169 -80 -293.5t-224.5 -192.5t-338.5 -68zM953 1579q-81 0 -135.5 51.5t-54.5 128.5q0 78 54.5 129t135.5 51
t135.5 -51t54.5 -129q0 -77 -54.5 -128.5t-135.5 -51.5zM487 1579q-81 0 -135 51.5t-54 128.5q0 78 54 129t135 51q82 0 136 -51t54 -129q0 -77 -54 -128.5t-136 -51.5zM611 1994l-230 278h306l151 -278h-227z" />
    <glyph glyph-name="uni01DC" unicode="&#x1dc;" 
d="M464 -20q-117 0 -200.5 52.5t-127 146t-43.5 218.5v687h401v-600q0 -80 40 -125.5t113 -45.5q48 0 82.5 20.5t52.5 61t18 98.5v591h401v-1084h-387l-3 289h34q-44 -133 -133.5 -221t-247.5 -88zM872 1173q-81 0 -135.5 51.5t-54.5 128.5q0 78 54.5 129t135.5 51
t135.5 -51t54.5 -129q0 -77 -54.5 -128.5t-135.5 -51.5zM406 1173q-81 0 -135 51.5t-54 128.5q0 78 54 129t135 51q82 0 136 -51t54 -129q0 -77 -54 -128.5t-136 -51.5zM530 1588l-230 278h306l151 -278h-227z" />
    <glyph glyph-name="eturn" unicode="&#x1dd;" horiz-adv-x="1215" 
d="M595 1106q171 0 298.5 -69.5t198 -196t70.5 -297.5q0 -166 -70 -293t-196 -198.5t-293 -71.5q-123 0 -225 39.5t-175.5 113t-113.5 176t-40 227.5v100h993v-222h-808l186 42q0 -60 20.5 -103t59.5 -65.5t96 -22.5q56 0 95 22.5t60 65.5t21 103v170q0 65 -23 110
t-65.5 67.5t-101.5 22.5q-41 0 -75.5 -11t-58.5 -32t-36 -51l-354 23q24 105 97.5 183.5t186 123t253.5 44.5z" />
    <glyph glyph-name="uni01DE" unicode="&#x1de;" horiz-adv-x="1593" 
d="M20 0l493 1490h556l504 -1490h-464l-170 578q-55 188 -105 380t-96 391h103q-46 -199 -94 -391t-103 -380l-170 -578h-454zM387 263v312h820v-312h-820zM1019 1578q-81 0 -135.5 52t-54.5 129t54.5 128.5t135.5 51.5t135.5 -51.5t54.5 -128.5q0 -78 -54.5 -129.5
t-135.5 -51.5zM553 1578q-81 0 -135 52t-54 129t54 128.5t135 51.5q82 0 136 -51.5t54 -128.5q0 -78 -54 -129.5t-136 -51.5zM1095 2236v-198h-600v198h600z" />
    <glyph glyph-name="uni01DF" unicode="&#x1df;" horiz-adv-x="1206" 
d="M412 -19q-107 0 -188.5 35t-127.5 105t-46 178q0 90 31 153.5t86.5 103.5t130 61.5t160.5 27.5q93 7 149.5 17t82 28.5t25.5 49.5v4q0 25 -15.5 43.5t-42.5 28.5t-65 10q-39 0 -68.5 -11t-47.5 -32.5t-23 -54.5l-364 16q12 109 73 189.5t171.5 125t270.5 44.5
q120 0 215 -26t160.5 -75t99.5 -117t34 -152v-733h-383v152h-6q-35 -63 -81 -100t-103.5 -54t-127.5 -17zM542 233q44 0 84.5 17.5t66.5 51t26 82.5v87q-16 -5 -33 -10.5t-36.5 -10t-42 -9t-48.5 -9.5q-44 -7 -73.5 -22t-44.5 -37t-15 -50q0 -29 15 -49t41 -30.5t60 -10.5z
M827 1172q-81 0 -135.5 52t-54.5 129t54.5 128.5t135.5 51.5t135.5 -51.5t54.5 -128.5q0 -78 -54.5 -129.5t-135.5 -51.5zM361 1172q-81 0 -135 52t-54 129t54 128.5t135 51.5q82 0 136 -51.5t54 -128.5q0 -78 -54 -129.5t-136 -51.5zM903 1830v-198h-600v198h600z" />
    <glyph glyph-name="uni01E0" unicode="&#x1e0;" horiz-adv-x="1593" 
d="M20 0l493 1490h556l504 -1490h-464l-170 578q-55 188 -105 380t-96 391h103q-46 -199 -94 -391t-103 -380l-170 -578h-454zM387 263v312h820v-312h-820zM795 1568q-89 0 -148 54.5t-59 134.5q0 81 59 134.5t147 53.5q89 0 148 -53t59 -135q0 -81 -59 -135t-147 -54z
M1095 2236v-198h-600v198h600z" />
    <glyph glyph-name="uni01E1" unicode="&#x1e1;" horiz-adv-x="1206" 
d="M412 -19q-107 0 -188.5 35t-127.5 105t-46 178q0 90 31 153.5t86.5 103.5t130 61.5t160.5 27.5q93 7 149.5 17t82 28.5t25.5 49.5v4q0 25 -15.5 43.5t-42.5 28.5t-65 10q-39 0 -68.5 -11t-47.5 -32.5t-23 -54.5l-364 16q12 109 73 189.5t171.5 125t270.5 44.5
q120 0 215 -26t160.5 -75t99.5 -117t34 -152v-733h-383v152h-6q-35 -63 -81 -100t-103.5 -54t-127.5 -17zM542 233q44 0 84.5 17.5t66.5 51t26 82.5v87q-16 -5 -33 -10.5t-36.5 -10t-42 -9t-48.5 -9.5q-44 -7 -73.5 -22t-44.5 -37t-15 -50q0 -29 15 -49t41 -30.5t60 -10.5z
M602 1162q-89 0 -148 54.5t-59 134.5q0 81 59 134.5t147 53.5q89 0 148 -53t59 -135q0 -81 -59 -135t-147 -54zM902 1830v-198h-600v198h600z" />
    <glyph glyph-name="uni01E2" unicode="&#x1e2;" horiz-adv-x="2157" 
d="M20 0l581 1490h1485v-340h-708v-237h652v-330h-652v-243h706v-340h-1099v1182h-95l-434 -1182h-436zM377 289v287h769v-287h-769zM1657 1885v-232h-600v232h600z" />
    <glyph glyph-name="uni01E3" unicode="&#x1e3;" horiz-adv-x="1842" 
d="M446 -19q-123 0 -212 35t-136.5 105.5t-47.5 177.5q0 100 43 170t121 114.5t184 65t232 20.5h922l-130 -42q0 62 -20.5 104.5t-59.5 65t-96 22.5q-56 0 -95 -22.5t-60 -65t-21 -104.5v-169q0 -67 23 -111.5t66 -66.5t101 -22q42 0 76 11t58 32t36 51h359
q-19 -112 -92 -196t-188 -131t-262 -47q-93 0 -174.5 24.5t-145 69t-103.5 105.5v734q49 60 109.5 103.5t136 66t169.5 22.5q124 0 225.5 -39.5t175 -113t113.5 -175.5t40 -228v-100h-1194q-58 0 -96.5 -17t-57.5 -44.5t-19 -58.5q0 -46 32.5 -70t83.5 -24q44 0 84 17.5
t65.5 51t25.5 82.5v360q0 25 -15.5 43.5t-43.5 28.5t-66 10q-39 0 -68.5 -11t-47.5 -32.5t-23 -54.5l-364 16q11 98 70.5 179t167.5 130.5t263 49.5q143 0 235 -47t136.5 -130.5t44.5 -192.5v-485h-93q-30 -80 -81.5 -132t-115 -81.5t-133 -41.5t-137.5 -12zM1203 1479v-232
h-600v232h600z" />
    <glyph glyph-name="Gbar" unicode="&#x1e4;" horiz-adv-x="1529" 
d="M784 -22q-219 0 -383.5 93t-256 265t-91.5 407q0 248 97.5 419.5t262 260.5t366.5 89q134 0 251.5 -37.5t208 -108t145.5 -167t66 -213.5h-417q-8 40 -27.5 71.5t-50 53.5t-71.5 33.5t-92 11.5q-103 0 -175 -48t-108.5 -139.5t-36.5 -222.5q0 -132 36.5 -224t108 -140
t178.5 -48q89 0 149.5 26.5t91 74.5t30.5 112l78 -8h-348v293h668v-211q0 -198 -86 -342.5t-239 -222.5t-355 -78zM796 385v96h782v-96h-782z" />
    <glyph glyph-name="gbar" unicode="&#x1e5;" horiz-adv-x="1412" 
d="M634 -436q-166 0 -279.5 43.5t-176.5 120t-80 175.5l367 23q6 -27 28.5 -47.5t57.5 -31.5t82 -11q90 0 134 45t44 138v175h-14q-22 -60 -64.5 -100t-100.5 -59.5t-130 -19.5q-130 0 -231 62.5t-159.5 182t-58.5 289.5q0 177 60.5 300.5t161.5 188.5t224 65
q75 0 133.5 -23.5t102 -65.5t70.5 -96h4v166h398v-1023q0 -168 -69 -278.5t-197.5 -164.5t-306.5 -54zM634 312q55 0 96 29t64 83.5t23 129.5t-23 129.5t-64 84t-96 29.5t-93.5 -29.5t-58.5 -84t-20 -129.5t20 -129.5t58.5 -83.5t93.5 -29zM630 503v130h746v-130h-746z" />
    <glyph glyph-name="Gcaron" unicode="&#x1e6;" horiz-adv-x="1529" 
d="M784 -22q-219 0 -383.5 93t-256 265t-91.5 407q0 248 97.5 419.5t262 260.5t366.5 89q134 0 251.5 -37.5t208 -108t145.5 -167t66 -213.5h-417q-8 40 -27.5 71.5t-50 53.5t-71.5 33.5t-92 11.5q-103 0 -175 -48t-108.5 -139.5t-36.5 -222.5q0 -132 36.5 -224t108 -140
t178.5 -48q89 0 149.5 26.5t91 74.5t30.5 112l78 -8h-348v293h668v-211q0 -198 -86 -342.5t-239 -222.5t-355 -78zM639 1946l128 -162l133 162h306v-3l-294 -323h-289l-290 323v3h306z" />
    <glyph glyph-name="gcaron" unicode="&#x1e7;" horiz-adv-x="1300" 
d="M634 -436q-166 0 -279.5 43.5t-176.5 120t-80 175.5l367 23q6 -27 28.5 -47.5t57.5 -31.5t82 -11q90 0 134 45t44 138v175h-14q-22 -60 -64.5 -100t-100.5 -59.5t-130 -19.5q-130 0 -231 62.5t-159.5 182t-58.5 289.5q0 177 60.5 300.5t161.5 188.5t224 65
q75 0 133.5 -23.5t102 -65.5t70.5 -96h4v166h398v-1023q0 -168 -69 -278.5t-197.5 -164.5t-306.5 -54zM634 312q55 0 96 29t64 83.5t23 129.5t-23 129.5t-64 84t-96 29.5t-93.5 -29.5t-58.5 -84t-20 -129.5t20 -129.5t58.5 -83.5t93.5 -29zM503 1540l128 -162l133 162h306
v-3l-294 -323h-289l-290 323v3h306z" />
    <glyph glyph-name="uni01E8" unicode="&#x1e8;" horiz-adv-x="1521" 
d="M394 234v433q46 78 91.5 147.5t96.5 140t114 152.5l296 383h480l-623 -767l-38 7zM87 0v1490h411v-320l-4 -429l4 -197v-544h-411zM1024 0l-359 599l252 305l583 -904h-476zM611 1946l128 -162l133 162h306v-3l-294 -323h-289l-290 323v3h306z" />
    <glyph glyph-name="uni01E9" unicode="&#x1e9;" horiz-adv-x="1220" 
d="M452 251v474h50l269 359h452l-450 -571h-113zM93 0v1490h401v-1490h-401zM779 0l-254 424l260 283l449 -707h-455zM163 1946l128 -162l133 162h306v-3l-294 -323h-289l-290 323v3h306z" />
    <glyph glyph-name="uni01EA" unicode="&#x1ea;" horiz-adv-x="1555" 
d="M777 -22q-203 0 -367.5 88.5t-260.5 259.5t-96 418q0 249 96 420.5t260.5 259.5t367.5 88t367 -88t260.5 -259.5t96.5 -420.5q0 -248 -96.5 -419t-260.5 -259t-367 -88zM777 334q100 0 168 48t103 140t35 222q0 131 -35 223.5t-103 140.5t-168 48q-98 0 -166 -48
t-103.5 -140.5t-35.5 -223.5q0 -130 35.5 -222t103.5 -140t166 -48zM851 -422q-149 0 -232 58.5t-83 162.5q0 79 47.5 133t125 94t170.5 79t185.5 87.5t170 120t124.5 176t47 255.5h95q0 -159 -32.5 -272.5t-86.5 -193t-118.5 -132.5t-129 -89t-118.5 -65t-87 -59t-33 -71
q0 -32 18.5 -48t53.5 -16q15 0 29.5 2.5t29.5 6.5l31 -206q-40 -11 -99 -17t-108 -6z" />
    <glyph glyph-name="uni01EB" unicode="&#x1eb;" horiz-adv-x="1260" 
d="M630 -22q-175 0 -305 69.5t-201 196t-71 296.5q0 171 71 297t201 196t305 70q177 0 306 -70t200 -196t71 -297q0 -170 -71 -296.5t-200 -196t-306 -69.5zM630 284q50 0 88.5 30t60 87.5t21.5 139.5q0 84 -21.5 140.5t-60 85.5t-88.5 29q-49 0 -88 -29t-60.5 -85.5
t-21.5 -140.5q0 -82 21.5 -139.5t60.5 -87.5t88 -30zM696 -422q-149 0 -232 58.5t-83 162.5q0 74 38.5 124.5t101.5 88t139 70.5t151.5 70.5t138.5 87.5t101.5 123t38.5 177h117q0 -132 -34 -222.5t-87.5 -150.5t-114 -99.5t-113.5 -70t-87 -61.5t-34 -74q0 -32 18 -48
t53 -16q15 0 29.5 2t30.5 7l30 -206q-39 -11 -96.5 -17t-105.5 -6z" />
    <glyph glyph-name="uni01EC" unicode="&#x1ec;" horiz-adv-x="1555" 
d="M777 -22q-203 0 -367.5 88.5t-260.5 259.5t-96 418q0 249 96 420.5t260.5 259.5t367.5 88t367 -88t260.5 -259.5t96.5 -420.5q0 -248 -96.5 -419t-260.5 -259t-367 -88zM777 334q100 0 168 48t103 140t35 222q0 131 -35 223.5t-103 140.5t-168 48q-98 0 -166 -48
t-103.5 -140.5t-35.5 -223.5q0 -130 35.5 -222t103.5 -140t166 -48zM851 -422q-149 0 -232 58.5t-83 162.5q0 79 47.5 133t125 94t170.5 79t185.5 87.5t170 120t124.5 176t47 255.5h95q0 -159 -32.5 -272.5t-86.5 -193t-118.5 -132.5t-129 -89t-118.5 -65t-87 -59t-33 -71
q0 -32 18.5 -48t53.5 -16q15 0 29.5 2.5t29.5 6.5l31 -206q-40 -11 -99 -17t-108 -6zM1077 1885v-232h-600v232h600z" />
    <glyph glyph-name="uni01ED" unicode="&#x1ed;" horiz-adv-x="1260" 
d="M630 -22q-175 0 -305 69.5t-201 196t-71 296.5q0 171 71 297t201 196t305 70q177 0 306 -70t200 -196t71 -297q0 -170 -71 -296.5t-200 -196t-306 -69.5zM630 284q50 0 88.5 30t60 87.5t21.5 139.5q0 84 -21.5 140.5t-60 85.5t-88.5 29q-49 0 -88 -29t-60.5 -85.5
t-21.5 -140.5q0 -82 21.5 -139.5t60.5 -87.5t88 -30zM696 -422q-149 0 -232 58.5t-83 162.5q0 74 38.5 124.5t101.5 88t139 70.5t151.5 70.5t138.5 87.5t101.5 123t38.5 177h117q0 -132 -34 -222.5t-87.5 -150.5t-114 -99.5t-113.5 -70t-87 -61.5t-34 -74q0 -32 18 -48
t53 -16q15 0 29.5 2t30.5 7l30 -206q-39 -11 -96.5 -17t-105.5 -6zM930 1479v-232h-600v232h600z" />
    <glyph glyph-name="uni01EE" unicode="&#x1ee;" horiz-adv-x="1396" 
d="M47 136h406q3 -72 34.5 -127t83.5 -86t118 -31q78 0 132 41.5t82 114t28 166.5q0 106 -34.5 181.5t-94.5 116t-137 40.5h-194v280l360 314v12h-704v332h1190v-292l-456 -392v-14q150 -16 261 -92.5t172 -199t61 -278.5q0 -145 -49 -266.5t-137.5 -210.5t-209 -138
t-264.5 -49q-185 0 -330.5 74.5t-230 205.5t-87.5 298zM567 1946l128 -162l133 162h306v-3l-294 -323h-289l-290 323v3h306z" />
    <glyph glyph-name="uni01EF" unicode="&#x1ef;" horiz-adv-x="1328" 
d="M667 -428q-195 0 -330 69t-205 185t-70 254h397q1 -56 28 -99t73.5 -67.5t105.5 -24.5t103 24t68.5 67.5t24.5 100.5q0 53 -26.5 93.5t-75.5 63.5t-113 23h-209v233l298 262v4h-601v324h1073v-300l-483 -414v90q175 22 298 -26.5t187.5 -147.5t64.5 -229
q0 -146 -77.5 -255t-214 -169.5t-316.5 -60.5zM542 1540l128 -162l133 162h306v-3l-294 -323h-289l-290 323v3h306z" />
    <glyph glyph-name="uni01F0" unicode="&#x1f0;" horiz-adv-x="588" 
d="M94 1084h401v-1122q0 -136 -53 -219.5t-154 -122t-245 -38.5h-122v300h62q62 0 86.5 24.5t24.5 80.5v1097zM164 1540l128 -162l133 162h306v-3l-294 -323h-289l-290 323v3h306z" />
    <glyph glyph-name="uni01F1" unicode="&#x1f1;" horiz-adv-x="2841" 
d="M666 0h-408v344h389q117 0 195.5 39.5t118 128t39.5 232.5q0 145 -40.5 233.5t-121.5 128.5t-203 40h-383v344h408q230 0 399 -91t261.5 -258t92.5 -397q0 -229 -91.5 -396t-259.5 -257.5t-396 -90.5zM498 1490v-1490h-411v1490h411zM1540 0v273l555 687q67 83 143 165.5
t155 165.5l37 -134q-105 -6 -210 -6.5t-211 -0.5h-460v340h1216v-273l-546 -682q-67 -84 -144 -168t-156 -169l-37 135q109 6 218.5 6.5t218.5 0.5h448v-340h-1227z" />
    <glyph glyph-name="uni01F2" unicode="&#x1f2;" horiz-adv-x="2641" 
d="M666 0h-408v344h389q117 0 195.5 39.5t118 128t39.5 232.5q0 145 -40.5 233.5t-121.5 128.5t-203 40h-383v344h408q230 0 399 -91t261.5 -258t92.5 -397q0 -229 -91.5 -396t-259.5 -257.5t-396 -90.5zM498 1490v-1490h-411v1490h411zM1572 0v241l482 534v4h-475v305h944
v-261l-455 -515v-4h469v-304h-965z" />
    <glyph glyph-name="uni01F3" unicode="&#x1f3;" horiz-adv-x="2473" 
d="M502 -20q-130 0 -231.5 66t-159.5 191.5t-58 304.5q0 181 60.5 306t161.5 190t223 65q75 0 133 -22.5t100.5 -63.5t69.5 -97h4v570h401v-1490h-397v173h-5q-24 -60 -66.5 -103t-102 -66.5t-133.5 -23.5zM634 292q55 0 96 30.5t64 87t23 132.5q0 78 -23 134t-64 86.5
t-96 30.5t-93.5 -30.5t-58.5 -86.5t-20 -134q0 -77 20 -133t58.5 -86.5t93.5 -30.5zM1404 0v241l482 534v4h-475v305h944v-261l-455 -515v-4h469v-304h-965z" />
    <glyph glyph-name="uni01F4" unicode="&#x1f4;" horiz-adv-x="1529" 
d="M784 -22q-219 0 -383.5 93t-256 265t-91.5 407q0 248 97.5 419.5t262 260.5t366.5 89q134 0 251.5 -37.5t208 -108t145.5 -167t66 -213.5h-417q-8 40 -27.5 71.5t-50 53.5t-71.5 33.5t-92 11.5q-103 0 -175 -48t-108.5 -139.5t-36.5 -222.5q0 -132 36.5 -224t108 -140
t178.5 -48q89 0 149.5 26.5t91 74.5t30.5 112l78 -8h-348v293h668v-211q0 -198 -86 -342.5t-239 -222.5t-355 -78zM624 1620l174 326h357l-267 -326h-264z" />
    <glyph glyph-name="uni01F5" unicode="&#x1f5;" horiz-adv-x="1300" 
d="M634 -436q-166 0 -279.5 43.5t-176.5 120t-80 175.5l367 23q6 -27 28.5 -47.5t57.5 -31.5t82 -11q90 0 134 45t44 138v175h-14q-22 -60 -64.5 -100t-100.5 -59.5t-130 -19.5q-130 0 -231 62.5t-159.5 182t-58.5 289.5q0 177 60.5 300.5t161.5 188.5t224 65
q75 0 133.5 -23.5t102 -65.5t70.5 -96h4v166h398v-1023q0 -168 -69 -278.5t-197.5 -164.5t-306.5 -54zM634 312q55 0 96 29t64 83.5t23 129.5t-23 129.5t-64 84t-96 29.5t-93.5 -29.5t-58.5 -84t-20 -129.5t20 -129.5t58.5 -83.5t93.5 -29zM489 1214l174 326h357l-267 -326
h-264z" />
    <glyph glyph-name="uni01F6" unicode="&#x1f6;" horiz-adv-x="2261" 
d="M1592 -22q-174 0 -305 62.5t-203 175t-72 263.5v102h-514v-581h-411v1490h411v-568h514v568h410v-997q0 -58 21 -100.5t59.5 -65.5t92.5 -23q53 0 91 23t59 65.5t21 100.5v568h402v-582q0 -151 -71.5 -263.5t-201 -175t-303.5 -62.5z" />
    <glyph glyph-name="uni01F7" unicode="&#x1f7;" horiz-adv-x="1676" 
d="M587 1490v-1908h-386v1908h386zM425 -192v318q161 59 283 124.5t204.5 143t124.5 171.5t42 209v56q0 56 -5.5 120t-27 120.5t-69.5 92t-132 35.5q-79 0 -154.5 -32t-132.5 -85.5t-81 -118.5v414q43 57 137 95.5t227 38.5q185 0 329.5 -80t227.5 -232.5t83 -371.5v-52
q-1 -156 -66 -295.5t-196 -261t-329 -224t-465 -185.5z" />
    <glyph glyph-name="uni01F8" unicode="&#x1f8;" horiz-adv-x="1540" 
d="M87 0v1490h431l360 -585q33 -55 71.5 -125t77.5 -152.5t76 -173.5l-44 -64q-5 81 -10 185.5t-8.5 204.5t-3.5 164v546h416v-1490h-431l-335 544q-42 69 -85.5 147t-89 170.5t-96.5 198.5l64 14q8 -105 13.5 -207.5t7.5 -186.5t2 -136v-544h-416zM652 1620l-267 326h357
l174 -326h-264z" />
    <glyph glyph-name="uni01F9" unicode="&#x1f9;" 
d="M494 590v-590h-401v1084h387l4 -289h-35q45 133 134.5 220.5t246.5 87.5q119 0 201.5 -52t126 -146t43.5 -219v-686h-401v599q0 81 -39.5 126t-112.5 45q-48 0 -82.5 -20.5t-53 -60.5t-18.5 -99zM527 1214l-267 326h357l174 -326h-264z" />
    <glyph glyph-name="Aringacute" unicode="&#x1fa;" horiz-adv-x="1593" 
d="M20 0l493 1490h556l504 -1490h-464l-170 578q-55 188 -105 380t-96 391h103q-46 -199 -94 -391t-103 -380l-170 -578h-454zM387 263v312h820v-312h-820zM679 2072l146 230h308l-218 -230h-236zM795 1558q-81 0 -142.5 29t-95.5 81t-34 118q0 67 34 118.5t95.5 81
t142.5 29.5q82 0 143 -29.5t95 -81t34 -118.5q0 -66 -34 -117.5t-95 -81t-143 -29.5zM795 1693q46 0 74 25.5t28 67.5t-28 67.5t-74 25.5t-74 -25.5t-28 -67.5t28 -67.5t74 -25.5z" />
    <glyph glyph-name="aringacute" unicode="&#x1fb;" horiz-adv-x="1206" 
d="M412 -19q-107 0 -188.5 35t-127.5 105t-46 178q0 90 31 153.5t86.5 103.5t130 61.5t160.5 27.5q93 7 149.5 17t82 28.5t25.5 49.5v4q0 25 -15.5 43.5t-42.5 28.5t-65 10q-39 0 -68.5 -11t-47.5 -32.5t-23 -54.5l-364 16q12 109 73 189.5t171.5 125t270.5 44.5
q120 0 215 -26t160.5 -75t99.5 -117t34 -152v-733h-383v152h-6q-35 -63 -81 -100t-103.5 -54t-127.5 -17zM542 233q44 0 84.5 17.5t66.5 51t26 82.5v87q-16 -5 -33 -10.5t-36.5 -10t-42 -9t-48.5 -9.5q-44 -7 -73.5 -22t-44.5 -37t-15 -50q0 -29 15 -49t41 -30.5t60 -10.5z
M488 1737l146 230h308l-218 -230h-236zM603 1165q-77 0 -139 32.5t-97.5 89t-35.5 128.5t35.5 128.5t97.5 89t139 32.5q78 0 139.5 -32.5t97 -89t35.5 -129.5q0 -71 -35.5 -127.5t-97 -89t-139.5 -32.5zM603 1312q45 0 74 29.5t29 72.5q0 45 -29.5 74.5t-73.5 29.5
t-73.5 -29.5t-29.5 -73.5t29.5 -73.5t73.5 -29.5z" />
    <glyph glyph-name="AEacute" unicode="&#x1fc;" horiz-adv-x="2157" 
d="M20 0l581 1490h1485v-340h-708v-237h652v-330h-652v-243h706v-340h-1099v1182h-95l-434 -1182h-436zM377 289v287h769v-287h-769zM1212 1620l174 326h357l-267 -326h-264z" />
    <glyph glyph-name="aeacute" unicode="&#x1fd;" horiz-adv-x="1842" 
d="M446 -19q-123 0 -212 35t-136.5 105.5t-47.5 177.5q0 100 43 170t121 114.5t184 65t232 20.5h922l-130 -42q0 62 -20.5 104.5t-59.5 65t-96 22.5q-56 0 -95 -22.5t-60 -65t-21 -104.5v-169q0 -67 23 -111.5t66 -66.5t101 -22q42 0 76 11t58 32t36 51h359
q-19 -112 -92 -196t-188 -131t-262 -47q-93 0 -174.5 24.5t-145 69t-103.5 105.5v734q49 60 109.5 103.5t136 66t169.5 22.5q124 0 225.5 -39.5t175 -113t113.5 -175.5t40 -228v-100h-1194q-58 0 -96.5 -17t-57.5 -44.5t-19 -58.5q0 -46 32.5 -70t83.5 -24q44 0 84 17.5
t65.5 51t25.5 82.5v360q0 25 -15.5 43.5t-43.5 28.5t-66 10q-39 0 -68.5 -11t-47.5 -32.5t-23 -54.5l-364 16q11 98 70.5 179t167.5 130.5t263 49.5q143 0 235 -47t136.5 -130.5t44.5 -192.5v-485h-93q-30 -80 -81.5 -132t-115 -81.5t-133 -41.5t-137.5 -12zM758 1214
l174 326h357l-267 -326h-264z" />
    <glyph glyph-name="Oslashacute" unicode="&#x1fe;" horiz-adv-x="1555" 
d="M777 -22q-203 0 -367.5 88.5t-260.5 259.5t-96 418q0 249 96 420.5t260.5 259.5t367.5 88t367 -88t260.5 -259.5t96.5 -420.5q0 -248 -96.5 -419t-260.5 -259t-367 -88zM777 334q100 0 168 48t103 140t35 222q0 131 -35 223.5t-103 140.5t-168 48q-98 0 -166 -48
t-103.5 -140.5t-35.5 -223.5q0 -130 35.5 -222t103.5 -140t166 -48zM264 -84l-185 148l1213 1509l185 -148zM632 1620l174 326h357l-267 -326h-264z" />
    <glyph glyph-name="oslashacute" unicode="&#x1ff;" horiz-adv-x="1260" 
d="M630 -22q-175 0 -305 69.5t-201 196t-71 296.5q0 171 71 297t201 196t305 70q177 0 306 -70t200 -196t71 -297q0 -170 -71 -296.5t-200 -196t-306 -69.5zM630 284q50 0 88.5 30t60 87.5t21.5 139.5q0 84 -21.5 140.5t-60 85.5t-88.5 29q-49 0 -88 -29t-60.5 -85.5
t-21.5 -140.5q0 -82 21.5 -139.5t60.5 -87.5t88 -30zM174 -50l-106 100l1018 1083l106 -99zM485 1214l174 326h357l-267 -326h-264z" />
    <glyph glyph-name="uni0200" unicode="&#x200;" horiz-adv-x="1593" 
d="M20 0l493 1490h556l504 -1490h-464l-170 578q-55 188 -105 380t-96 391h103q-46 -199 -94 -391t-103 -380l-170 -578h-454zM387 263v312h820v-312h-820zM874 1620l-187 326h326l125 -326h-264zM491 1620l-285 326h360l197 -326h-272z" />
    <glyph glyph-name="uni0201" unicode="&#x201;" horiz-adv-x="1206" 
d="M412 -19q-107 0 -188.5 35t-127.5 105t-46 178q0 90 31 153.5t86.5 103.5t130 61.5t160.5 27.5q93 7 149.5 17t82 28.5t25.5 49.5v4q0 25 -15.5 43.5t-42.5 28.5t-65 10q-39 0 -68.5 -11t-47.5 -32.5t-23 -54.5l-364 16q12 109 73 189.5t171.5 125t270.5 44.5
q120 0 215 -26t160.5 -75t99.5 -117t34 -152v-733h-383v152h-6q-35 -63 -81 -100t-103.5 -54t-127.5 -17zM542 233q44 0 84.5 17.5t66.5 51t26 82.5v87q-16 -5 -33 -10.5t-36.5 -10t-42 -9t-48.5 -9.5q-44 -7 -73.5 -22t-44.5 -37t-15 -50q0 -29 15 -49t41 -30.5t60 -10.5z
M682 1214l-187 326h326l125 -326h-264zM299 1214l-285 326h360l197 -326h-272z" />
    <glyph glyph-name="uni0202" unicode="&#x202;" horiz-adv-x="1593" 
d="M20 0l493 1490h556l504 -1490h-464l-170 578q-55 188 -105 380t-96 391h103q-46 -199 -94 -391t-103 -380l-170 -578h-454zM387 263v312h820v-312h-820zM795 1954q112 0 200 -44t140 -119.5t52 -170.5h-219q0 62 -49 102t-125 40q-75 0 -125 -40t-50 -102h-216
q0 95 51 170.5t140 119.5t201 44z" />
    <glyph glyph-name="uni0203" unicode="&#x203;" horiz-adv-x="1206" 
d="M412 -19q-107 0 -188.5 35t-127.5 105t-46 178q0 90 31 153.5t86.5 103.5t130 61.5t160.5 27.5q93 7 149.5 17t82 28.5t25.5 49.5v4q0 25 -15.5 43.5t-42.5 28.5t-65 10q-39 0 -68.5 -11t-47.5 -32.5t-23 -54.5l-364 16q12 109 73 189.5t171.5 125t270.5 44.5
q120 0 215 -26t160.5 -75t99.5 -117t34 -152v-733h-383v152h-6q-35 -63 -81 -100t-103.5 -54t-127.5 -17zM542 233q44 0 84.5 17.5t66.5 51t26 82.5v87q-16 -5 -33 -10.5t-36.5 -10t-42 -9t-48.5 -9.5q-44 -7 -73.5 -22t-44.5 -37t-15 -50q0 -29 15 -49t41 -30.5t60 -10.5z
M603 1548q112 0 200 -44t140 -119.5t52 -170.5h-219q0 62 -49 102t-125 40q-75 0 -125 -40t-50 -102h-216q0 95 51 170.5t140 119.5t201 44z" />
    <glyph glyph-name="uni0204" unicode="&#x204;" horiz-adv-x="1277" 
d="M87 0v1490h1119v-340h-708v-237h651v-330h-651v-243h706v-340h-1117zM725 1620l-187 326h326l125 -326h-264zM342 1620l-285 326h360l197 -326h-272z" />
    <glyph glyph-name="uni0205" unicode="&#x205;" horiz-adv-x="1215" 
d="M621 -22q-171 0 -299 69.5t-198.5 196.5t-70.5 296q0 167 70.5 294t196 198t292.5 71q124 0 225.5 -39.5t175.5 -113t113.5 -175.5t39.5 -228v-100h-992v222h808l-186 -42q0 62 -20.5 104.5t-59.5 65t-96 22.5t-96 -22.5t-59.5 -65t-20.5 -104.5v-169q0 -65 23 -110
t65.5 -67.5t100.5 -22.5q42 0 76 11t58 32t36 50l354 -23q-23 -104 -97 -183t-186 -123t-253 -44zM688 1214l-187 326h326l125 -326h-264zM305 1214l-285 326h360l197 -326h-272z" />
    <glyph glyph-name="uni0206" unicode="&#x206;" horiz-adv-x="1277" 
d="M87 0v1490h1119v-340h-708v-237h651v-330h-651v-243h706v-340h-1117zM647 1954q112 0 200 -44t140 -119.5t52 -170.5h-219q0 62 -49 102t-125 40q-75 0 -125 -40t-50 -102h-216q0 95 51 170.5t140 119.5t201 44z" />
    <glyph glyph-name="uni0207" unicode="&#x207;" horiz-adv-x="1215" 
d="M621 -22q-171 0 -299 69.5t-198.5 196.5t-70.5 296q0 167 70.5 294t196 198t292.5 71q124 0 225.5 -39.5t175.5 -113t113.5 -175.5t39.5 -228v-100h-992v222h808l-186 -42q0 62 -20.5 104.5t-59.5 65t-96 22.5t-96 -22.5t-59.5 -65t-20.5 -104.5v-169q0 -65 23 -110
t65.5 -67.5t100.5 -22.5q42 0 76 11t58 32t36 50l354 -23q-23 -104 -97 -183t-186 -123t-253 -44zM610 1548q112 0 200 -44t140 -119.5t52 -170.5h-219q0 62 -49 102t-125 40q-75 0 -125 -40t-50 -102h-216q0 95 51 170.5t140 119.5t201 44z" />
    <glyph glyph-name="uni0208" unicode="&#x208;" horiz-adv-x="585" 
d="M498 1490v-1490h-411v1490h411zM372 1620l-187 326h326l125 -326h-264zM-11 1620l-285 326h360l197 -326h-272z" />
    <glyph glyph-name="uni0209" unicode="&#x209;" horiz-adv-x="587" 
d="M93 0v1084h401v-1084h-401zM372 1214l-187 326h326l125 -326h-264zM-11 1214l-285 326h360l197 -326h-272z" />
    <glyph glyph-name="uni020A" unicode="&#x20a;" horiz-adv-x="585" 
d="M498 1490v-1490h-411v1490h411zM294 1954q112 0 200 -44t140 -119.5t52 -170.5h-219q0 62 -49 102t-125 40q-75 0 -125 -40t-50 -102h-216q0 95 51 170.5t140 119.5t201 44z" />
    <glyph glyph-name="uni020B" unicode="&#x20b;" horiz-adv-x="587" 
d="M93 0v1084h401v-1084h-401zM294 1548q112 0 200 -44t140 -119.5t52 -170.5h-219q0 62 -49 102t-125 40q-75 0 -125 -40t-50 -102h-216q0 95 51 170.5t140 119.5t201 44z" />
    <glyph glyph-name="uni020C" unicode="&#x20c;" horiz-adv-x="1555" 
d="M777 -22q-203 0 -367.5 88.5t-260.5 259.5t-96 418q0 249 96 420.5t260.5 259.5t367.5 88t367 -88t260.5 -259.5t96.5 -420.5q0 -248 -96.5 -419t-260.5 -259t-367 -88zM777 334q100 0 168 48t103 140t35 222q0 131 -35 223.5t-103 140.5t-168 48q-98 0 -166 -48
t-103.5 -140.5t-35.5 -223.5q0 -130 35.5 -222t103.5 -140t166 -48zM856 1620l-187 326h326l125 -326h-264zM473 1620l-285 326h360l197 -326h-272z" />
    <glyph glyph-name="uni020D" unicode="&#x20d;" horiz-adv-x="1260" 
d="M630 -22q-175 0 -305 69.5t-201 196t-71 296.5q0 171 71 297t201 196t305 70q177 0 306 -70t200 -196t71 -297q0 -170 -71 -296.5t-200 -196t-306 -69.5zM630 284q50 0 88.5 30t60 87.5t21.5 139.5q0 84 -21.5 140.5t-60 85.5t-88.5 29q-49 0 -88 -29t-60.5 -85.5
t-21.5 -140.5q0 -82 21.5 -139.5t60.5 -87.5t88 -30zM709 1214l-187 326h326l125 -326h-264zM326 1214l-285 326h360l197 -326h-272z" />
    <glyph glyph-name="uni020E" unicode="&#x20e;" horiz-adv-x="1555" 
d="M777 -22q-203 0 -367.5 88.5t-260.5 259.5t-96 418q0 249 96 420.5t260.5 259.5t367.5 88t367 -88t260.5 -259.5t96.5 -420.5q0 -248 -96.5 -419t-260.5 -259t-367 -88zM777 334q100 0 168 48t103 140t35 222q0 131 -35 223.5t-103 140.5t-168 48q-98 0 -166 -48
t-103.5 -140.5t-35.5 -223.5q0 -130 35.5 -222t103.5 -140t166 -48zM778 1954q112 0 200 -44t140 -119.5t52 -170.5h-219q0 62 -49 102t-125 40q-75 0 -125 -40t-50 -102h-216q0 95 51 170.5t140 119.5t201 44z" />
    <glyph glyph-name="uni020F" unicode="&#x20f;" horiz-adv-x="1260" 
d="M630 -22q-175 0 -305 69.5t-201 196t-71 296.5q0 171 71 297t201 196t305 70q177 0 306 -70t200 -196t71 -297q0 -170 -71 -296.5t-200 -196t-306 -69.5zM630 284q50 0 88.5 30t60 87.5t21.5 139.5q0 84 -21.5 140.5t-60 85.5t-88.5 29q-49 0 -88 -29t-60.5 -85.5
t-21.5 -140.5q0 -82 21.5 -139.5t60.5 -87.5t88 -30zM630 1548q112 0 200 -44t140 -119.5t52 -170.5h-219q0 62 -49 102t-125 40q-75 0 -125 -40t-50 -102h-216q0 95 51 170.5t140 119.5t201 44z" />
    <glyph glyph-name="uni0210" unicode="&#x210;" horiz-adv-x="1365" 
d="M87 0v1490h637q173 0 300.5 -62t197.5 -177.5t70 -274.5q0 -157 -72.5 -268.5t-204 -170.5t-309.5 -59h-368v318h326q67 0 115 21t74 61t26 98q0 59 -26 99.5t-74 61.5t-115 21h-166v-1158h-411zM904 0l-342 680h427l351 -680h-436zM756 1620l-187 326h326l125 -326h-264
zM373 1620l-285 326h360l197 -326h-272z" />
    <glyph glyph-name="uni0211" unicode="&#x211;" horiz-adv-x="868" 
d="M93 0v1084h389v-202h6q30 112 93.5 160t163.5 48q28 0 52.5 -2t48.5 -5v-330q-25 5 -68.5 7t-78.5 2q-61 0 -107.5 -27.5t-72 -77t-25.5 -117.5v-540h-401zM552 1214l-187 326h326l125 -326h-264zM169 1214l-285 326h360l197 -326h-272z" />
    <glyph glyph-name="uni0212" unicode="&#x212;" horiz-adv-x="1365" 
d="M87 0v1490h637q173 0 300.5 -62t197.5 -177.5t70 -274.5q0 -157 -72.5 -268.5t-204 -170.5t-309.5 -59h-368v318h326q67 0 115 21t74 61t26 98q0 59 -26 99.5t-74 61.5t-115 21h-166v-1158h-411zM904 0l-342 680h427l351 -680h-436zM678 1954q112 0 200 -44t140 -119.5
t52 -170.5h-219q0 62 -49 102t-125 40q-75 0 -125 -40t-50 -102h-216q0 95 51 170.5t140 119.5t201 44z" />
    <glyph glyph-name="uni0213" unicode="&#x213;" horiz-adv-x="868" 
d="M93 0v1084h389v-202h6q30 112 93.5 160t163.5 48q28 0 52.5 -2t48.5 -5v-330q-25 5 -68.5 7t-78.5 2q-61 0 -107.5 -27.5t-72 -77t-25.5 -117.5v-540h-401zM474 1548q112 0 200 -44t140 -119.5t52 -170.5h-219q0 62 -49 102t-125 40q-75 0 -125 -40t-50 -102h-216
q0 95 51 170.5t140 119.5t201 44z" />
    <glyph glyph-name="uni0214" unicode="&#x214;" horiz-adv-x="1459" 
d="M729 -21q-193 0 -337.5 68t-224.5 192.5t-80 293.5v957h404v-923q0 -70 31 -123.5t84.5 -84t122.5 -30.5q70 0 124 30.5t84.5 84t30.5 123.5v923h404v-957q0 -169 -80 -293.5t-224.5 -192.5t-338.5 -68zM808 1620l-187 326h326l125 -326h-264zM425 1620l-285 326h360
l197 -326h-272z" />
    <glyph glyph-name="uni0215" unicode="&#x215;" 
d="M464 -20q-117 0 -200.5 52.5t-127 146t-43.5 218.5v687h401v-600q0 -80 40 -125.5t113 -45.5q48 0 82.5 20.5t52.5 61t18 98.5v591h401v-1084h-387l-3 289h34q-44 -133 -133.5 -221t-247.5 -88zM727 1214l-187 326h326l125 -326h-264zM344 1214l-285 326h360l197 -326
h-272z" />
    <glyph glyph-name="uni0216" unicode="&#x216;" horiz-adv-x="1459" 
d="M729 -21q-193 0 -337.5 68t-224.5 192.5t-80 293.5v957h404v-923q0 -70 31 -123.5t84.5 -84t122.5 -30.5q70 0 124 30.5t84.5 84t30.5 123.5v923h404v-957q0 -169 -80 -293.5t-224.5 -192.5t-338.5 -68zM730 1954q112 0 200 -44t140 -119.5t52 -170.5h-219q0 62 -49 102
t-125 40q-75 0 -125 -40t-50 -102h-216q0 95 51 170.5t140 119.5t201 44z" />
    <glyph glyph-name="uni0217" unicode="&#x217;" 
d="M464 -20q-117 0 -200.5 52.5t-127 146t-43.5 218.5v687h401v-600q0 -80 40 -125.5t113 -45.5q48 0 82.5 20.5t52.5 61t18 98.5v591h401v-1084h-387l-3 289h34q-44 -133 -133.5 -221t-247.5 -88zM648 1548q112 0 200 -44t140 -119.5t52 -170.5h-219q0 62 -49 102t-125 40
q-75 0 -125 -40t-50 -102h-216q0 95 51 170.5t140 119.5t201 44z" />
    <glyph glyph-name="uni0218" unicode="&#x218;" horiz-adv-x="1386" 
d="M703 -21q-201 0 -344.5 58.5t-220 177t-77.5 293.5h389q4 -63 35 -108t86.5 -68.5t131.5 -23.5q66 0 112.5 16.5t72 45.5t25.5 67q0 35 -24 61.5t-76 47t-135 36.5l-149 30q-208 42 -321.5 148.5t-113.5 276.5q0 142 77 249t213 166.5t316 59.5q183 0 316 -59.5t206 -170
t76 -261.5h-384q-7 75 -61 118t-149 43q-60 0 -102.5 -15.5t-65 -43t-22.5 -62.5q0 -36 21.5 -61.5t69 -44.5t121.5 -34l121 -23q125 -25 216 -65t149 -95t85 -125.5t27 -158.5q0 -152 -73.5 -258t-212.5 -161.5t-335 -55.5zM426 -466l96 348h360l-184 -348h-272z" />
    <glyph glyph-name="uni0219" unicode="&#x219;" horiz-adv-x="1171" 
d="M592 -24q-155 0 -273.5 45t-189.5 127t-86 193l384 24q13 -56 54.5 -88t114.5 -32q59 0 92 18t33 51q0 28 -30 46t-93 29l-198 34q-164 28 -248 109t-84 211q0 113 61 193t174.5 122.5t272.5 42.5q155 0 268 -42t178 -120.5t74 -187.5l-360 -22q-6 50 -47.5 78.5
t-99.5 28.5q-56 0 -89 -19t-33 -51q0 -25 23.5 -44.5t77.5 -28.5l227 -39q169 -29 251 -100.5t82 -192.5q0 -116 -68 -202.5t-189 -134.5t-279 -48zM315 -466l96 348h360l-184 -348h-272z" />
    <glyph glyph-name="uni021A.1" unicode="&#x21a;" horiz-adv-x="1372" 
d="M47 1150v340h1277v-340h-433v-1150h-411v1150h-433zM413 -466l96 348h360l-184 -348h-272z" />
    <glyph glyph-name="uni021B" unicode="&#x21b;" horiz-adv-x="839" 
d="M789 1084v-299h-769v299h769zM182 1362h401v-988q0 -42 18 -59.5t67 -17.5q23 0 61.5 2t51.5 4l22 -296q-46 -9 -108 -12t-123 -3q-200 0 -295 80.5t-95 246.5v1043zM200 -466l96 348h360l-184 -348h-272z" />
    <glyph glyph-name="uni021C" unicode="&#x21c;" horiz-adv-x="1408" 
d="M239 306v294q199 58 325.5 104t196.5 90t97 94.5t27 117.5q0 104 -48 148t-150 44q-56 0 -97 -13t-63 -37.5t-22 -59.5h-388q0 124 72.5 219t201.5 149t296 54q183 0 313.5 -48t200.5 -147t70 -253q0 -133 -53.5 -242t-174 -199t-318.5 -167t-486 -148zM713 504l38 230
q160 13 281.5 -29.5t190 -131t68.5 -215.5q0 -155 -75 -289.5t-214 -239.5t-332.5 -173t-430.5 -92v308q156 29 278.5 76.5t208 111.5t130.5 141.5t45 164.5q0 97 -40.5 125t-147.5 13z" />
    <glyph glyph-name="uni021D" unicode="&#x21d;" horiz-adv-x="1212" 
d="M255 120v266q172 62 271 114.5t141 109t42 128.5q0 62 -27 91t-85 29q-36 0 -61 -11.5t-38 -32.5t-13 -52h-378q0 116 58.5 199t170 127t267.5 44q240 0 360 -89.5t120 -268.5q0 -143 -86.5 -259t-269 -213t-472.5 -182zM579 360l32 144q238 18 365 -61.5t127 -246.5
q0 -213 -213.5 -372.5t-634.5 -259.5v270q181 75 283 135.5t144.5 119.5t42.5 127q0 81 -42 119.5t-104 24.5z" />
    <glyph glyph-name="uni021E" unicode="&#x21e;" horiz-adv-x="1509" 
d="M87 0v1490h411v-561h514v561h410v-1490h-410v589h-514v-589h-411zM624 1946l128 -162l133 162h306v-3l-294 -323h-289l-290 323v3h306z" />
    <glyph glyph-name="uni021F" unicode="&#x21f;" 
d="M494 590v-590h-401v1490h397v-695h-41q45 133 134.5 220.5t246.5 87.5q119 0 201.5 -52t126 -146t43.5 -219v-686h-401v599q0 81 -39.5 126t-112.5 45q-48 0 -82.5 -20.5t-53 -60.5t-18.5 -99zM159 1946l128 -162l133 162h306v-3l-294 -323h-289l-290 323v3h306z" />
    <glyph glyph-name="uni0220" unicode="&#x220;" horiz-adv-x="1414" 
d="M1273 -416h-380v1504q0 43 -18.5 70.5t-54.5 41.5t-87 14q-133 0 -259.5 -90t-244.5 -262v356q112 140 255 216t307 76q140 0 248.5 -53t171 -148t62.5 -221v-1504zM521 1490v-1490h-378v1490h378z" />
    <glyph glyph-name="uni0221" unicode="&#x221;" horiz-adv-x="1619" 
d="M1280 -418q-164 0 -269.5 43.5t-155.5 133.5t-50 229v204h401v-314q0 -40 24 -60t62 -20q33 0 55.5 15t22.5 43q0 29 -24 47.5t-74 18.5q-29 0 -62.5 -10t-84.5 -39t-133 -85l-318 -218l-166 222l336 230q78 53 182 96.5t228 43.5q209 0 325.5 -93t116.5 -231
q0 -126 -105.5 -191t-310.5 -65zM502 -20q-130 0 -231.5 66t-159.5 191.5t-58 304.5q0 181 60.5 306t161.5 190t223 65q75 0 133 -22.5t100.5 -63.5t69.5 -97h4v570h401v-1490h-397v173h-5q-24 -60 -66.5 -103t-102 -66.5t-133.5 -23.5zM634 292q55 0 96 30.5t64 87
t23 132.5q0 78 -23 134t-64 86.5t-96 30.5t-93.5 -30.5t-58.5 -86.5t-20 -134q0 -77 20 -133t58.5 -86.5t93.5 -30.5z" />
    <glyph glyph-name="uni0222" unicode="&#x222;" horiz-adv-x="1410" 
d="M697 954h22q183 0 312 -55t197.5 -159.5t68.5 -253.5q0 -154 -71.5 -267.5t-201 -176t-305.5 -62.5h-22q-177 0 -308 62t-203.5 175t-72.5 265q0 150 68.5 255.5t199.5 161t316 55.5zM719 684h-22q-85 0 -135.5 -55t-50.5 -147q0 -88 51 -142t135 -54h22
q83 -1 131.5 52.5t48.5 147.5q0 92 -48.5 145t-131.5 53zM695 998h20q67 0 108.5 9.5t61.5 35t20 71.5q0 41 -17.5 63.5t-58.5 30.5v302q151 3 256.5 -44.5t161.5 -137t56 -214.5q0 -126 -69.5 -211.5t-200.5 -129t-318 -43.5h-20q-187 0 -317 43t-197.5 128.5t-67.5 212.5
q0 126 54.5 215.5t160 136.5t257.5 44v-302q-42 -7 -58 -29.5t-16 -64.5q0 -48 18.5 -73t59 -34t106.5 -9z" />
    <glyph glyph-name="uni0223" unicode="&#x223;" horiz-adv-x="1408" 
d="M695 928h20q166 0 294.5 -45.5t202 -145.5t73.5 -263q0 -158 -72.5 -268.5t-201 -168t-296.5 -57.5h-20q-168 0 -297.5 57.5t-203 168t-73.5 268.5q0 163 73.5 263t203 145.5t297.5 45.5zM715 666h-20q-96 0 -145 -55.5t-49 -136.5q0 -80 49 -136t145 -56h20
q101 0 146.5 56t45.5 136q0 81 -45.5 136.5t-146.5 55.5zM713 966q73 0 116.5 18.5t63.5 56t20 93.5q0 62 -28 93.5t-60 38.5v290q139 2 242 -43t160.5 -136.5t57.5 -232.5q0 -160 -72 -256.5t-201 -139t-299 -42.5h-18q-168 1 -297.5 43.5t-203 138.5t-73.5 256
q0 138 57 230t160.5 138t242.5 44v-290q-30 -7 -55 -38.5t-25 -93.5q0 -58 18.5 -95t61.5 -55t114 -18h18z" />
    <glyph glyph-name="uni0224" unicode="&#x224;" horiz-adv-x="1374" 
d="M670 -418v310q24 -2 56.5 -3t70.5 -1q50 0 71.5 19.5t21.5 61.5v31h410v-54q0 -187 -105.5 -280.5t-316.5 -93.5q-62 0 -116 2.5t-92 7.5zM73 0v273l555 687q67 83 143 165.5t155 165.5l37 -134q-105 -6 -210 -6.5t-211 -0.5h-460v340h1216v-273l-546 -682
q-67 -84 -144 -168t-156 -169l-37 135q109 6 218.5 6.5t218.5 0.5h448v-340h-1227z" />
    <glyph glyph-name="uni0225" unicode="&#x225;" horiz-adv-x="1175" 
d="M858 -247v114q0 69 -28 101t-88 32h-637v241l482 534v4h-475v305h944v-261l-455 -515v-4h203q183 0 281.5 -115.5t98.5 -330.5v-105h-326z" />
    <glyph glyph-name="uni0226" unicode="&#x226;" horiz-adv-x="1593" 
d="M20 0l493 1490h556l504 -1490h-464l-170 578q-55 188 -105 380t-96 391h103q-46 -199 -94 -391t-103 -380l-170 -578h-454zM387 263v312h820v-312h-820zM795 1579q-89 0 -148 54t-59 135t59 134.5t147 53.5q89 0 148 -53.5t59 -134.5t-59 -135t-147 -54z" />
    <glyph glyph-name="uni0227" unicode="&#x227;" horiz-adv-x="1206" 
d="M412 -19q-107 0 -188.5 35t-127.5 105t-46 178q0 90 31 153.5t86.5 103.5t130 61.5t160.5 27.5q93 7 149.5 17t82 28.5t25.5 49.5v4q0 25 -15.5 43.5t-42.5 28.5t-65 10q-39 0 -68.5 -11t-47.5 -32.5t-23 -54.5l-364 16q12 109 73 189.5t171.5 125t270.5 44.5
q120 0 215 -26t160.5 -75t99.5 -117t34 -152v-733h-383v152h-6q-35 -63 -81 -100t-103.5 -54t-127.5 -17zM542 233q44 0 84.5 17.5t66.5 51t26 82.5v87q-16 -5 -33 -10.5t-36.5 -10t-42 -9t-48.5 -9.5q-44 -7 -73.5 -22t-44.5 -37t-15 -50q0 -29 15 -49t41 -30.5t60 -10.5z
M602 1173q-89 0 -148 54t-59 135t59 134.5t147 53.5q89 0 148 -53.5t59 -134.5t-59 -135t-147 -54z" />
    <glyph glyph-name="uni0228" unicode="&#x228;" horiz-adv-x="1277" 
d="M87 0v1490h1119v-340h-708v-237h651v-330h-651v-243h706v-340h-1117zM504 -418v135h126q41 0 60.5 14t19.5 42t-19.5 41.5t-60.5 13.5h-91l42 212h135v-40l-5 -81q92 5 144.5 -40.5t52.5 -120.5q0 -89 -61.5 -132.5t-184.5 -43.5h-158z" />
    <glyph glyph-name="uni0229" unicode="&#x229;" horiz-adv-x="1215" 
d="M621 -22q-171 0 -299 69.5t-198.5 196.5t-70.5 296q0 167 70.5 294t196 198t292.5 71q124 0 225.5 -39.5t175.5 -113t113.5 -175.5t39.5 -228v-100h-992v222h808l-186 -42q0 62 -20.5 104.5t-59.5 65t-96 22.5t-96 -22.5t-59.5 -65t-20.5 -104.5v-169q0 -65 23 -110
t65.5 -67.5t100.5 -22.5q42 0 76 11t58 32t36 50l354 -23q-23 -104 -97 -183t-186 -123t-253 -44zM474 -418v135h126q41 0 60.5 14t19.5 42t-19.5 41.5t-60.5 13.5h-91l42 212h135v-40l-5 -81q92 5 144.5 -40.5t52.5 -120.5q0 -89 -61.5 -132.5t-184.5 -43.5h-158z" />
    <glyph glyph-name="uni022A" unicode="&#x22a;" horiz-adv-x="1555" 
d="M777 -22q-203 0 -367.5 88.5t-260.5 259.5t-96 418q0 249 96 420.5t260.5 259.5t367.5 88t367 -88t260.5 -259.5t96.5 -420.5q0 -248 -96.5 -419t-260.5 -259t-367 -88zM777 334q100 0 168 48t103 140t35 222q0 131 -35 223.5t-103 140.5t-168 48q-98 0 -166 -48
t-103.5 -140.5t-35.5 -223.5q0 -130 35.5 -222t103.5 -140t166 -48zM1001 1578q-81 0 -135.5 52t-54.5 129t54.5 128.5t135.5 51.5t135.5 -51.5t54.5 -128.5q0 -78 -54.5 -129.5t-135.5 -51.5zM535 1578q-81 0 -135 52t-54 129t54 128.5t135 51.5q82 0 136 -51.5t54 -128.5
q0 -78 -54 -129.5t-136 -51.5zM1077 2236v-198h-600v198h600z" />
    <glyph glyph-name="uni022B" unicode="&#x22b;" horiz-adv-x="1260" 
d="M630 -22q-175 0 -305 69.5t-201 196t-71 296.5q0 171 71 297t201 196t305 70q177 0 306 -70t200 -196t71 -297q0 -170 -71 -296.5t-200 -196t-306 -69.5zM630 284q50 0 88.5 30t60 87.5t21.5 139.5q0 84 -21.5 140.5t-60 85.5t-88.5 29q-49 0 -88 -29t-60.5 -85.5
t-21.5 -140.5q0 -82 21.5 -139.5t60.5 -87.5t88 -30zM854 1172q-81 0 -135.5 52t-54.5 129t54.5 128.5t135.5 51.5t135.5 -51.5t54.5 -128.5q0 -78 -54.5 -129.5t-135.5 -51.5zM388 1172q-81 0 -135 52t-54 129t54 128.5t135 51.5q82 0 136 -51.5t54 -128.5
q0 -78 -54 -129.5t-136 -51.5zM930 1830v-198h-600v198h600z" />
    <glyph glyph-name="uni022C" unicode="&#x22c;" horiz-adv-x="1555" 
d="M777 -22q-203 0 -367.5 88.5t-260.5 259.5t-96 418q0 249 96 420.5t260.5 259.5t367.5 88t367 -88t260.5 -259.5t96.5 -420.5q0 -248 -96.5 -419t-260.5 -259t-367 -88zM777 334q100 0 168 48t103 140t35 222q0 131 -35 223.5t-103 140.5t-168 48q-98 0 -166 -48
t-103.5 -140.5t-35.5 -223.5q0 -130 35.5 -222t103.5 -140t166 -48zM925 1611q-57 0 -96.5 18t-68 42t-53 42t-52.5 18q-35 0 -54.5 -28.5t-21.5 -83.5h-198q3 158 74 235t174 77q56 0 96 -17.5t69.5 -40.5t54 -40.5t50.5 -17.5q42 0 59.5 29t18.5 81h196q-2 -154 -74 -234
t-174 -80zM1079 2236v-198h-600v198h600z" />
    <glyph glyph-name="uni022D" unicode="&#x22d;" horiz-adv-x="1260" 
d="M630 -22q-175 0 -305 69.5t-201 196t-71 296.5q0 171 71 297t201 196t305 70q177 0 306 -70t200 -196t71 -297q0 -170 -71 -296.5t-200 -196t-306 -69.5zM630 284q50 0 88.5 30t60 87.5t21.5 139.5q0 84 -21.5 140.5t-60 85.5t-88.5 29q-49 0 -88 -29t-60.5 -85.5
t-21.5 -140.5q0 -82 21.5 -139.5t60.5 -87.5t88 -30zM778 1205q-57 0 -96.5 18t-68 42t-53 42t-52.5 18q-35 0 -54.5 -28.5t-21.5 -83.5h-198q3 158 74 235t174 77q56 0 96 -17.5t69.5 -40.5t54 -40.5t50.5 -17.5q42 0 59.5 29t18.5 81h196q-2 -154 -74 -234t-174 -80z
M932 1830v-198h-600v198h600z" />
    <glyph glyph-name="uni022E" unicode="&#x22e;" horiz-adv-x="1555" 
d="M777 -22q-203 0 -367.5 88.5t-260.5 259.5t-96 418q0 249 96 420.5t260.5 259.5t367.5 88t367 -88t260.5 -259.5t96.5 -420.5q0 -248 -96.5 -419t-260.5 -259t-367 -88zM777 334q100 0 168 48t103 140t35 222q0 131 -35 223.5t-103 140.5t-168 48q-98 0 -166 -48
t-103.5 -140.5t-35.5 -223.5q0 -130 35.5 -222t103.5 -140t166 -48zM777 1579q-89 0 -148 54t-59 135t59 134.5t147 53.5q89 0 148 -53.5t59 -134.5t-59 -135t-147 -54z" />
    <glyph glyph-name="uni022F" unicode="&#x22f;" horiz-adv-x="1260" 
d="M630 -22q-175 0 -305 69.5t-201 196t-71 296.5q0 171 71 297t201 196t305 70q177 0 306 -70t200 -196t71 -297q0 -170 -71 -296.5t-200 -196t-306 -69.5zM630 284q50 0 88.5 30t60 87.5t21.5 139.5q0 84 -21.5 140.5t-60 85.5t-88.5 29q-49 0 -88 -29t-60.5 -85.5
t-21.5 -140.5q0 -82 21.5 -139.5t60.5 -87.5t88 -30zM630 1173q-89 0 -148 54t-59 135t59 134.5t147 53.5q89 0 148 -53.5t59 -134.5t-59 -135t-147 -54z" />
    <glyph glyph-name="uni0230" unicode="&#x230;" horiz-adv-x="1555" 
d="M777 -22q-203 0 -367.5 88.5t-260.5 259.5t-96 418q0 249 96 420.5t260.5 259.5t367.5 88t367 -88t260.5 -259.5t96.5 -420.5q0 -248 -96.5 -419t-260.5 -259t-367 -88zM777 334q100 0 168 48t103 140t35 222q0 131 -35 223.5t-103 140.5t-168 48q-98 0 -166 -48
t-103.5 -140.5t-35.5 -223.5q0 -130 35.5 -222t103.5 -140t166 -48zM777 1568q-89 0 -148 54.5t-59 134.5q0 81 59 134.5t147 53.5q89 0 148 -53t59 -135q0 -81 -59 -135t-147 -54zM1077 2236v-198h-600v198h600z" />
    <glyph glyph-name="uni0231" unicode="&#x231;" horiz-adv-x="1260" 
d="M630 -22q-175 0 -305 69.5t-201 196t-71 296.5q0 171 71 297t201 196t305 70q177 0 306 -70t200 -196t71 -297q0 -170 -71 -296.5t-200 -196t-306 -69.5zM630 284q50 0 88.5 30t60 87.5t21.5 139.5q0 84 -21.5 140.5t-60 85.5t-88.5 29q-49 0 -88 -29t-60.5 -85.5
t-21.5 -140.5q0 -82 21.5 -139.5t60.5 -87.5t88 -30zM630 1162q-89 0 -148 54.5t-59 134.5q0 81 59 134.5t147 53.5q89 0 148 -53t59 -135q0 -81 -59 -135t-147 -54zM930 1830v-198h-600v198h600z" />
    <glyph glyph-name="uni0232" unicode="&#x232;" horiz-adv-x="1537" 
d="M575 0v512l-555 978h476l214 -432q28 -56 51.5 -113.5t47.5 -123.5h-59q22 66 44 123.5t48 113.5l201 432h473l-539 -978v-512h-402zM1068 1885v-232h-600v232h600z" />
    <glyph glyph-name="uni0233" unicode="&#x233;" horiz-adv-x="1250" 
d="M116 -405l39 296l112 -6q50 -7 82.5 1t48 31t16.5 59l-2 24l-409 1084h419l138 -476q32 -111 55.5 -223t50.5 -234h-96q26 122 53.5 235t61.5 222l148 476h414l-453 -1204q-36 -97 -89 -164.5t-132 -102.5t-194 -35q-68 0 -136.5 4.5t-126.5 12.5zM909 1479v-232h-600
v232h600z" />
    <glyph glyph-name="uni0234" unicode="&#x234;" horiz-adv-x="907" 
d="M568 -418q-164 0 -269 43.5t-155.5 133.5t-50.5 229v204h401v-314q0 -40 24 -60t62 -20q33 0 55.5 15t22.5 43q0 29 -24 47.5t-74 18.5q-29 0 -62.5 -10t-84.5 -39t-133 -85l-318 -218l-166 222l336 230q78 53 182 96.5t228 43.5q209 0 325.5 -93t116.5 -231
q0 -126 -105.5 -191t-310.5 -65zM494 1490v-1490h-401v1490h401z" />
    <glyph glyph-name="uni0235" unicode="&#x235;" horiz-adv-x="1614" 
d="M1275 -418q-164 0 -269 43.5t-155.5 133.5t-50.5 229v204h401v-314q0 -40 24 -60t62 -20q33 0 55.5 15t22.5 43q0 29 -24 47.5t-74 18.5q-29 0 -62.5 -10t-84.5 -39t-133 -85l-318 -218l-166 222l336 230q78 53 182 96.5t228 43.5q209 0 325.5 -93t116.5 -231
q0 -126 -105.5 -191t-310.5 -65zM494 590v-590h-401v1084h387l4 -289h-35q45 133 134.5 220.5t246.5 87.5q119 0 201.5 -52t126 -146t43.5 -219v-686h-401v599q0 81 -39.5 126t-112.5 45q-48 0 -82.5 -20.5t-53 -60.5t-18.5 -99z" />
    <glyph glyph-name="uni0236" unicode="&#x236;" horiz-adv-x="1077" 
d="M648 -20q-164 0 -269 43.5t-155.5 133.5t-50.5 229v204h401v-314q0 -40 24 -60t62 -20q33 0 55.5 15t22.5 43q0 29 -24 47.5t-74 18.5q-29 0 -62.5 -10t-84.5 -39t-133 -85l-318 -218l-166 222l336 230q78 53 182 96.5t228 43.5q209 0 325.5 -93t116.5 -231
q0 -126 -105.5 -191t-310.5 -65zM173 398v964h401v-964h-401zM20 785v299h760v-299h-760z" />
    <glyph glyph-name="uni0237" unicode="&#x237;" horiz-adv-x="588" 
d="M94 1084h401v-1122q0 -136 -53 -219.5t-154 -122t-245 -38.5h-122v300h62q62 0 86.5 24.5t24.5 80.5v1097z" />
    <glyph glyph-name="uni0238" unicode="&#x238;" horiz-adv-x="2000" 
d="M1879 564v-20q0 -166 -51.5 -293t-146 -199t-224.5 -72q-108 0 -184.5 45.5t-127 124.5t-81.5 180t-49 212v4q24 162 72 295t136.5 212t231.5 79q131 0 226 -71t146.5 -198.5t51.5 -298.5zM1501 544v20q0 85 -14.5 145t-49.5 92.5t-96 32.5q-89 0 -136.5 -70t-47.5 -208
v-20q1 -125 48 -190.5t136 -65.5q70 0 104 36t45 96t11 132zM811 262v1228h378v-1490h-340zM121 544v20q1 171 52.5 298.5t147 198.5t226.5 71q143 0 231 -79t136 -212t71 -295v-4q-17 -111 -48 -212t-82 -180t-127.5 -124.5t-184.5 -45.5q-129 0 -223.5 72t-146 199
t-52.5 293zM501 564v-20q0 -72 10.5 -132t45 -96t104.5 -36q89 0 135.5 65.5t46.5 190.5v20q0 138 -46.5 208t-135.5 70q-61 0 -96.5 -32.5t-49.5 -92.5t-14 -145z" />
    <glyph glyph-name="uni0239" unicode="&#x239;" horiz-adv-x="2000" 
d="M811 -416v1298l50 236h302l26 -208v-1326h-378zM121 544v20q1 171 52.5 298.5t147 198.5t226.5 71q143 0 231 -79t136 -212t71 -295v-4q-17 -111 -48 -212t-82 -180t-127.5 -124.5t-184.5 -45.5q-129 0 -223.5 72t-146 199t-52.5 293zM501 564v-20q0 -72 10.5 -132
t45 -96t104.5 -36q89 0 135.5 65.5t46.5 190.5v20q0 138 -46.5 208t-135.5 70q-61 0 -96.5 -32.5t-49.5 -92.5t-14 -145zM1879 564v-20q0 -166 -51.5 -293t-146 -199t-224.5 -72q-108 0 -184.5 45.5t-127 124.5t-81.5 180t-49 212v4q24 162 72 295t136.5 212t231.5 79
q131 0 226 -71t146.5 -198.5t51.5 -298.5zM1501 544v20q0 85 -14.5 145t-49.5 92.5t-96 32.5q-89 0 -136.5 -70t-47.5 -208v-20q1 -125 48 -190.5t136 -65.5q70 0 104 36t45 96t11 132z" />
    <glyph glyph-name="uni023A" unicode="&#x23a;" horiz-adv-x="1593" 
d="M1133 1678l-564 -1868h-78l564 1868h78zM20 0l493 1490h556l504 -1490h-464l-170 578q-55 188 -105 380t-96 391h103q-46 -199 -94 -391t-103 -380l-170 -578h-454zM387 263v312h820v-312h-820z" />
    <glyph glyph-name="uni023B" unicode="&#x23b;" horiz-adv-x="1510" 
d="M395 -190l564 1868h208l-566 -1868h-206zM775 -22q-204 0 -367.5 88.5t-259 259.5t-95.5 418q0 249 96 420.5t260 259.5t366 88q141 0 260 -40t208.5 -114.5t145.5 -181.5t71 -240h-415q-8 51 -29 91.5t-54.5 69t-78 44t-99.5 15.5q-101 0 -170.5 -49t-105.5 -140.5
t-36 -222.5q0 -133 36 -224.5t105.5 -138.5t170.5 -47q54 0 98 15t78 44t55.5 69.5t29.5 90.5h415q-12 -116 -63 -219.5t-139 -183.5t-209.5 -126t-273.5 -46z" />
    <glyph glyph-name="uni023C" unicode="&#x23c;" horiz-adv-x="1212" 
d="M281 -418l520 1908h174l-520 -1908h-174zM623 -22q-174 0 -302.5 70.5t-198 197t-69.5 294.5q0 169 69.5 295.5t198 197t302.5 70.5q116 0 212 -32t166.5 -90.5t111.5 -140.5t48 -182l-376 -25q-5 39 -17.5 69.5t-32 52t-46 32.5t-59.5 11q-53 0 -91 -29.5t-58.5 -87
t-20.5 -140.5q0 -82 20.5 -139.5t59 -88t90.5 -30.5q33 0 59.5 11.5t46.5 33t32.5 53.5t16.5 72l376 -24q-4 -102 -44.5 -184.5t-111 -142.5t-167.5 -92t-215 -32z" />
    <glyph glyph-name="uni023D" unicode="&#x23d;" horiz-adv-x="1291" 
d="M209 0v1490h411v-1150h624v-340h-1035zM22 619v252h852v-252h-852z" />
    <glyph glyph-name="uni023E" unicode="&#x23e;" horiz-adv-x="1372" 
d="M207 -209l792 1908h174l-793 -1908h-173zM47 1150v340h1277v-340h-433v-1150h-411v1150h-433z" />
    <glyph glyph-name="uni023F" unicode="&#x23f;" horiz-adv-x="1171" 
d="M350 309q78 -160 131 -254.5t90.5 -141t69.5 -61t68 -14.5q77 0 129.5 27t92.5 59l110 -192q-62 -50 -145.5 -100t-202.5 -50q-109 0 -185.5 49t-130.5 120.5t-96 140.5l-176 298zM592 -24q-155 0 -273.5 45t-189.5 127t-86 193l384 24q13 -56 54.5 -88t114.5 -32
q59 0 92 18t33 51q0 28 -30 46t-93 29l-198 34q-164 28 -248 109t-84 211q0 113 61 193t174.5 122.5t272.5 42.5q155 0 268 -42t178 -120.5t74 -187.5l-360 -22q-6 50 -47.5 78.5t-99.5 28.5q-56 0 -89 -19t-33 -51q0 -25 23.5 -44.5t77.5 -28.5l227 -39q169 -29 251 -100.5
t82 -192.5q0 -116 -68 -202.5t-189 -134.5t-279 -48z" />
    <glyph glyph-name="uni0240" unicode="&#x240;" horiz-adv-x="1175" 
d="M105 0v241l482 534v4h-475v305h944v-261l-455 -515v-308h-496zM1203 -420q-120 0 -213 41.5t-160 126t-112 214.5q-4 13 -11 21.5t-15.5 12.5t-20.5 4h-134v304h200q61 0 111.5 -21.5t88.5 -66t59 -115.5q20 -70 49 -118.5t68 -73.5t90 -25q33 0 79.5 15.5t87.5 37.5
l129 -272q-70 -40 -142 -62.5t-154 -22.5z" />
    <glyph glyph-name="uni0241" unicode="&#x241;" horiz-adv-x="1210" 
d="M439 552h152q62 1 93.5 29t43 80.5t11.5 126.5v164q0 44 -6.5 100t-37.5 98t-104 42q-78 0 -112.5 -44.5t-31.5 -103.5h-374q-2 146 66 250t184.5 160t257.5 56q174 0 298.5 -72t191 -197.5t66.5 -288.5v-164q0 -160 -66 -284t-190.5 -195t-301.5 -71h-140v314zM803 552
v-552h-394v552h394z" />
    <glyph glyph-name="uni0242" unicode="&#x242;" horiz-adv-x="1212" 
d="M113 680q0 136 61 237.5t171 158t256 56.5q229 0 363.5 -116.5t134.5 -313.5q0 -119 -49 -204t-140.5 -130.5t-220.5 -45.5h-226v196h80q89 0 133.5 42t44.5 136q0 69 -27 102.5t-87 33.5q-63 0 -89.5 -35.5t-26.5 -116.5h-378zM415 518h378v-518h-378v518z" />
    <glyph glyph-name="uni0243" unicode="&#x243;" horiz-adv-x="1416" 
d="M156 0v1490h646q170 0 286 -47t175 -130.5t59 -194.5q0 -84 -36 -153t-100.5 -114.5t-151.5 -62.5v-8q96 -3 173.5 -48.5t123 -125t45.5 -184.5q0 -122 -62 -217.5t-178 -150t-278 -54.5h-702zM560 316h207q87 0 135 40t48 110q0 48 -22 82.5t-62.5 53t-96.5 18.5h-209
v-304zM560 895h182q49 0 86 16.5t57.5 48t20.5 75.5q0 65 -44.5 102.5t-116.5 37.5h-185v-280zM12 403v130h746v-130h-746z" />
    <glyph glyph-name="uni0244" unicode="&#x244;" horiz-adv-x="1564" 
d="M1585 834v-220h-1606v220h1606zM791 -21q-193 0 -337.5 68t-224.5 192.5t-80 293.5v957h404v-923q0 -70 31 -123.5t84.5 -84t122.5 -30.5q70 0 124 30.5t84.5 84t30.5 123.5v923h404v-957q0 -169 -80 -293.5t-224.5 -192.5t-338.5 -68z" />
    <glyph glyph-name="uni0245" unicode="&#x245;" horiz-adv-x="1600" 
d="M1085 0l-300 1100l-52 390h282l506 -1490h-436zM815 1100l-304 -1100h-436l506 1490h282z" />
    <glyph glyph-name="uni0246" unicode="&#x246;" horiz-adv-x="1277" 
d="M313 -190l540 1868h164l-538 -1868h-166zM87 0v1490h1119v-340h-708v-237h651v-330h-651v-243h706v-340h-1117z" />
    <glyph glyph-name="uni0247" unicode="&#x247;" horiz-adv-x="1215" 
d="M250 -418l582 1908h158l-584 -1908h-156zM621 -22q-171 0 -299 69.5t-198.5 196.5t-70.5 296q0 167 70.5 294t196 198t292.5 71q124 0 225.5 -39.5t175.5 -113t113.5 -175.5t39.5 -228v-100h-992v222h808l-186 -42q0 62 -20.5 104.5t-59.5 65t-96 22.5t-96 -22.5
t-59.5 -65t-20.5 -104.5v-169q0 -65 23 -110t65.5 -67.5t100.5 -22.5q42 0 76 11t58 32t36 50l354 -23q-23 -104 -97 -183t-186 -123t-253 -44z" />
    <glyph glyph-name="uni0248" unicode="&#x248;" horiz-adv-x="1303" 
d="M579 -22q-258 0 -397 127.5t-139 364.5v107h393v-112q0 -77 36 -117t103 -40t102.5 40t35.5 118v1024h408v-1025q0 -235 -140.5 -361t-401.5 -126zM542 819v130h746v-130h-746z" />
    <glyph glyph-name="uni0249" unicode="&#x249;" horiz-adv-x="588" 
d="M94 1084h401v-1122q0 -136 -53 -219.5t-154 -122t-245 -38.5h-122v300h62q62 0 86.5 24.5t24.5 80.5v1097zM-120 578v216h827v-216h-827zM294 1173q-89 0 -148 54t-59 135t59 134.5t147 53.5q89 0 148 -53.5t59 -134.5t-59 -135t-147 -54z" />
    <glyph glyph-name="Q_rthook" unicode="&#x24a;" horiz-adv-x="1570" 
d="M1483 1490v-1490h-401v206h-6q-59 -102 -160 -164t-243 -62q-135 0 -248.5 57.5t-197 161t-129 242.5t-45.5 303t46.5 303.5t130 243t197 161.5t246.5 58q141 0 241.5 -62.5t161.5 -163.5h6v206h401zM773 332q99 0 168 48t104.5 140t35.5 224q0 133 -35.5 225.5
t-104 140.5t-168.5 48q-98 0 -166 -48t-103 -140t-35 -226q0 -133 35 -225t103 -139.5t166 -47.5zM1494 -428q-211 0 -311.5 93.5t-100.5 280.5v54h401v-41q0 -45 21.5 -65t70.5 -20q39 0 71.5 1t55.5 3v-296q-38 -5 -92 -7.5t-116 -2.5z" />
    <glyph glyph-name="qrthook" unicode="&#x24b;" horiz-adv-x="1295" 
d="M1213 -428q-211 0 -309.5 93.5t-98.5 280.5v260h397v-247q0 -45 22 -65t71 -20q38 0 70.5 1t55.5 3v-296q-38 -5 -91.5 -7.5t-116.5 -2.5zM502 -20q-130 0 -231 66t-159.5 191.5t-58.5 304.5q0 181 60.5 306t161.5 190t224 65q75 0 133 -22.5t100.5 -63t69.5 -94.5h6v161
h394v-1084h-393v168h-6q-24 -57 -66.5 -99t-101.5 -65.5t-133 -23.5zM634 292q55 0 96 30.5t64 87t23 132.5q0 78 -23 134t-64 86.5t-96 30.5t-93.5 -30.5t-58.5 -86.5t-20 -134q0 -77 20 -133t58.5 -86.5t93.5 -30.5z" />
    <glyph glyph-name="uni024C" unicode="&#x24c;" horiz-adv-x="1404" 
d="M373 526h-370v286h370v-286zM131 0v1490h637q173 0 300.5 -62t197.5 -177.5t70 -274.5q0 -157 -72.5 -268.5t-204 -170.5t-309.5 -59h-368v318h326q67 0 115 21t74 61t26 98q0 59 -26 99.5t-74 61.5t-115 21h-166v-1158h-411zM948 0l-342 680h427l351 -680h-436z" />
    <glyph glyph-name="uni024D" unicode="&#x24d;" horiz-adv-x="868" 
d="M93 0v1084h389v-202h6q30 112 93.5 160t163.5 48q28 0 52.5 -2t48.5 -5v-330q-25 5 -68.5 7t-78.5 2q-61 0 -107.5 -27.5t-72 -77t-25.5 -117.5v-540h-401zM-122 424v216h827v-216h-827z" />
    <glyph glyph-name="uni024E" unicode="&#x24e;" horiz-adv-x="1548" 
d="M1529 1176v-190h-1512v190h1512zM575 0v512l-555 978h476l214 -432q28 -56 51.5 -113.5t47.5 -123.5h-59q22 66 44 123.5t48 113.5l201 432h473l-539 -978v-512h-402z" />
    <glyph glyph-name="uni024F" unicode="&#x24f;" horiz-adv-x="1261" 
d="M1248 724v-172h-1236v172h1236zM122 -405l39 296l112 -6q50 -7 82 1t48 31t17 59l-2 24l-409 1084h418l139 -476q32 -111 55.5 -223t50.5 -234h-96q26 122 53.5 235t61.5 222l147 476h414l-452 -1204q-37 -97 -90 -164.5t-131.5 -102.5t-194.5 -35q-67 0 -136 4.5
t-126 12.5z" />
    <glyph glyph-name="aturn" unicode="&#x250;" horiz-adv-x="1206" 
d="M795 1102q107 0 188 -34.5t127 -105t46 -178.5q0 -89 -31 -152.5t-86.5 -104t-129.5 -62t-160 -27.5q-93 -6 -149.5 -16.5t-82 -28.5t-25.5 -49v-4q0 -25 15 -44t43 -28.5t64 -9.5q40 0 69 11t47.5 32.5t23.5 53.5l364 -16q-11 -108 -72.5 -188.5t-172 -125.5t-270.5 -45
q-121 0 -215.5 26.5t-160.5 75t-100 117t-34 152.5v733h384v-153h6q34 63 80 100.5t104 54t128 16.5zM665 851q-44 0 -85 -17.5t-66.5 -51t-25.5 -82.5v-88q15 6 32.5 11.5t37 10t42 9t48.5 8.5q43 8 72.5 23t45 37t15.5 49q0 30 -15 50t-41 30.5t-60 10.5z" />
    <glyph glyph-name="ascript" unicode="&#x251;" horiz-adv-x="1295" 
d="M502 -20q-130 0 -231 66t-159.5 191.5t-58.5 304.5q0 181 60.5 306t161.5 190t224 65q75 0 133 -22.5t100.5 -63t69.5 -94.5h6v161h394v-1084h-393v168h-6q-24 -57 -66.5 -99t-101.5 -65.5t-133 -23.5zM634 292q55 0 96 30.5t64 87t23 132.5q0 78 -23 134t-64 86.5
t-96 30.5t-93.5 -30.5t-58.5 -86.5t-20 -134q0 -77 20 -133t58.5 -86.5t93.5 -30.5z" />
    <glyph glyph-name="ascriptturn" unicode="&#x252;" horiz-adv-x="1295" 
d="M793 -20q-73 0 -132.5 23.5t-102 65.5t-66.5 99h-5v-168h-394v1084h395v-161h5q27 54 69.5 94.5t101 63t132.5 22.5q124 0 225 -65t161 -190t60 -306q0 -179 -58 -304.5t-159.5 -191.5t-231.5 -66zM661 292q55 0 93.5 30.5t59 86.5t20.5 133q0 78 -20.5 134t-59 86.5
t-93.5 30.5q-54 0 -95.5 -30.5t-64.5 -86.5t-23 -134q0 -76 23 -132.5t64.5 -87t95.5 -30.5z" />
    <glyph glyph-name="uni0253" unicode="&#x253;" horiz-adv-x="1299" 
d="M797 -20q-74 0 -133 23.5t-101.5 65.5t-65.5 99h-7v-168h-397v1084h401v-184l5 5q27 52 69 91t100 61t133 22q123 0 223.5 -63.5t161 -184.5t60.5 -296t-58.5 -299t-159.5 -190t-231 -66zM665 292q55 0 93.5 29.5t58.5 84t20 129.5t-20 129.5t-58.5 84t-93.5 29.5
t-96 -29.5t-64 -84t-23 -129.5q0 -74 23 -129t64 -84.5t96 -29.5zM93 836v286q0 187 102 280.5t313 93.5q62 0 116 -2.5t92 -7.5v-296q-23 2 -55.5 3t-71.5 1q-49 0 -72 -20t-23 -65v-273h-401z" />
    <glyph glyph-name="uni0254" unicode="&#x254;" horiz-adv-x="1206" 
d="M93 404h352q-1 -42 15.5 -69t48.5 -40t78 -13q72 0 103 35.5t38 95.5t7 133v18q1 60 -5 122t-37 104t-106 42q-76 0 -109.5 -47.5t-32.5 -132.5h-352q-1 163 62 269t173 158.5t251 52.5q176 0 295 -72t179 -200t60 -296v-18q1 -168 -59.5 -295.5t-180.5 -199t-298 -71.5
q-137 0 -246.5 50.5t-173 145.5t-62.5 228z" />
    <glyph glyph-name="drthook" unicode="&#x256;" horiz-adv-x="1299" 
d="M1217 -428q-211 0 -309.5 93.5t-98.5 280.5v260h397v-247q0 -45 21.5 -65t70.5 -20q38 0 70.5 1t56.5 3v-296q-38 -5 -92 -7.5t-116 -2.5zM502 -20q-130 0 -231.5 66t-159.5 191.5t-58 304.5q0 181 60.5 306t161.5 190t223 65q75 0 133 -22.5t100.5 -63.5t69.5 -97h4v570
h401v-1490h-397v173h-5q-24 -60 -66.5 -103t-102 -66.5t-133.5 -23.5zM634 292q55 0 96 30.5t64 87t23 132.5q0 78 -23 134t-64 86.5t-96 30.5t-93.5 -30.5t-58.5 -86.5t-20 -134q0 -77 20 -133t58.5 -86.5t93.5 -30.5z" />
    <glyph glyph-name="uni0257" unicode="&#x257;" horiz-adv-x="1295" 
d="M801 836v286q0 187 102 280.5t313 93.5q62 0 116 -2.5t92 -7.5v-296q-23 2 -55.5 3t-70.5 1q-50 0 -73 -20t-23 -65v-273h-401zM502 -20q-130 0 -231 66t-159.5 191.5t-58.5 304.5q0 181 60.5 306t161.5 190t224 65q75 0 133 -22.5t100.5 -63t69.5 -94.5h6v161h394v-1084
h-393v168h-6q-24 -57 -66.5 -99t-101.5 -65.5t-133 -23.5zM634 292q55 0 96 30.5t64 87t23 132.5q0 78 -23 134t-64 86.5t-96 30.5t-93.5 -30.5t-58.5 -86.5t-20 -134q0 -77 20 -133t58.5 -86.5t93.5 -30.5z" />
    <glyph glyph-name="erev" unicode="&#x258;" horiz-adv-x="1204" 
d="M553 -20q-168 0 -285 57.5t-173 124.5l170 216q50 -56 118 -76t128 -20q121 0 187.5 60.5t66.5 177.5v38q0 35 -4 81.5t-20.5 90.5t-54 73t-103.5 29q-69 0 -112.5 -38t-43.5 -116v-14h576v-230h-940v156q1 258 141.5 400t380.5 142q189 0 312.5 -78.5t184.5 -209
t61 -286.5v-38q1 -143 -69 -266.5t-202 -198.5t-319 -75z" />
    </font>
</defs>
</svg>
